{
	"asset":{
		"generator":"Khronos glTF Blender I/O v5.2.39",
		"version":"2.0"
	},
	"extensionsUsed":[
		"KHR_materials_specular"
	],
	"scene":0,
	"scenes":[
		{
			"name":"Scene",
			"nodes":[
				25
			]
		}
	],
	"nodes":[
		{
			"name":"LeftToeBase",
			"rotation":[
				-0.348836749792099,
				-0.027357185259461403,
				-0.010188338346779346,
				0.9367287158966064
			],
			"scale":[
				1.000000238418579,
				0.9999998807907104,
				0.9999999403953552
			],
			"translation":[
				4.76837158203125e-07,
				14.50529670715332,
				1.6093254089355469e-06
			]
		},
		{
			"children":[
				0
			],
			"name":"LeftFoot",
			"rotation":[
				-0.46542105078697205,
				-0.025971513241529465,
				0.014534230343997478,
				0.884588897228241
			],
			"translation":[
				-3.6954879760742188e-06,
				36.694393157958984,
				7.152557373046875e-07
			]
		},
		{
			"children":[
				1
			],
			"name":"LeftLeg",
			"rotation":[
				0.03322767838835716,
				0.006614218931645155,
				0.0031920606270432472,
				0.9994208812713623
			],
			"scale":[
				0.9999999403953552,
				1,
				0.9999999403953552
			],
			"translation":[
				2.0079314708709717e-06,
				36.48003387451172,
				8.344650268554688e-07
			]
		},
		{
			"children":[
				2
			],
			"name":"LeftUpLeg",
			"rotation":[
				-0.4841150939464569,
				-0.6346822381019592,
				0.4341358542442322,
				0.41753700375556946
			],
			"scale":[
				0.9999998807907104,
				1,
				0.9999999403953552
			],
			"translation":[
				1.8089020252227783,
				8.900118827819824,
				-8.359502792358398
			]
		},
		{
			"name":"RightToeBase",
			"rotation":[
				-0.3475732207298279,
				0.03261334076523781,
				0.012097561731934547,
				0.9370073676109314
			],
			"scale":[
				1,
				1.0000001192092896,
				1
			],
			"translation":[
				1.341104507446289e-07,
				14.597952842712402,
				5.543231964111328e-06
			]
		},
		{
			"children":[
				4
			],
			"name":"RightFoot",
			"rotation":[
				-0.4681875705718994,
				0.03818077594041824,
				0.0009120986796915531,
				0.8828033804893494
			],
			"translation":[
				3.8743019104003906e-07,
				37.05891799926758,
				9.5367431640625e-07
			]
		},
		{
			"children":[
				5
			],
			"name":"RightLeg",
			"rotation":[
				0.037744950503110886,
				-0.01436162181198597,
				-0.010042565874755383,
				0.9991337656974792
			],
			"scale":[
				0.9999997615814209,
				0.9999998807907104,
				1.0000001192092896
			],
			"translation":[
				5.587935447692871e-08,
				36.19019317626953,
				3.6954879760742188e-06
			]
		},
		{
			"children":[
				6
			],
			"name":"RightUpLeg",
			"rotation":[
				-0.5831471681594849,
				-0.5424181222915649,
				0.4203833341598511,
				0.4347412586212158
			],
			"scale":[
				0.9999999403953552,
				0.9999999403953552,
				0.9999998807907104
			],
			"translation":[
				2.921082019805908,
				-8.030315399169922,
				-9.077834129333496
			]
		},
		{
			"name":"LeftHand",
			"rotation":[
				0.03474036604166031,
				0.08482721447944641,
				0.1126721128821373,
				0.989395022392273
			],
			"scale":[
				1.0000001192092896,
				1,
				1.0000001192092896
			],
			"translation":[
				-5.960464477539063e-08,
				23.668127059936523,
				-2.86102294921875e-06
			]
		},
		{
			"children":[
				8
			],
			"name":"LeftForeArm",
			"rotation":[
				-0.21120254695415497,
				-0.03958693891763687,
				0.03447992727160454,
				0.976031482219696
			],
			"scale":[
				1,
				1.0000001192092896,
				1.0000001192092896
			],
			"translation":[
				-2.6226043701171875e-06,
				26.244775772094727,
				-1.1920928955078125e-06
			]
		},
		{
			"children":[
				9
			],
			"name":"LeftArm",
			"rotation":[
				0.47751933336257935,
				0.5165873169898987,
				0.3281213045120239,
				0.6304357647895813
			],
			"scale":[
				1,
				0.9999998807907104,
				0.9999999403953552
			],
			"translation":[
				9.05677916307468e-06,
				13.835576057434082,
				-3.007269333465956e-05
			]
		},
		{
			"children":[
				10
			],
			"name":"LeftShoulder",
			"rotation":[
				0.5186913013458252,
				0.5611274838447571,
				-0.4782932698726654,
				0.43281736969947815
			],
			"translation":[
				3.472621440887451,
				3.3887858390808105,
				-0.5553044080734253
			]
		},
		{
			"name":"head_end",
			"rotation":[
				-0.23054777085781097,
				-1.2589895792558536e-09,
				-2.1367430491636696e-08,
				0.9730609655380249
			],
			"scale":[
				1,
				0.9999998807907104,
				1
			],
			"translation":[
				8.04176920610189e-07,
				18.48601722717285,
				-9.280787467956543
			]
		},
		{
			"name":"headfront",
			"rotation":[
				0.43640658259391785,
				2.620518202434141e-08,
				5.333066965818034e-08,
				0.8997495770454407
			],
			"scale":[
				1,
				0.9999999403953552,
				0.9999999403953552
			],
			"translation":[
				-9.589136880094884e-07,
				7.316476821899414,
				9.280760765075684
			]
		},
		{
			"children":[
				12,
				13
			],
			"name":"Head",
			"rotation":[
				0.35579824447631836,
				6.611502012532355e-09,
				3.2342615696734356e-08,
				0.9345628023147583
			],
			"scale":[
				1,
				0.9999999403953552,
				0.9999999403953552
			],
			"translation":[
				-3.377965924755699e-07,
				6.812258720397949,
				-7.668271791771986e-06
			]
		},
		{
			"children":[
				14
			],
			"name":"neck",
			"rotation":[
				0.054332368075847626,
				0.004973762668669224,
				-0.004684222396463156,
				0.9984995722770691
			],
			"scale":[
				0.9999999403953552,
				0.9999999403953552,
				1
			],
			"translation":[
				0.09586195647716522,
				9.63038444519043,
				1.0507179498672485
			]
		},
		{
			"name":"RightHand",
			"rotation":[
				0.03778426721692085,
				-0.07957801967859268,
				-0.10355699062347412,
				0.9907147288322449
			],
			"scale":[
				0.9999999403953552,
				0.9999999403953552,
				0.9999998807907104
			],
			"translation":[
				8.165836334228516e-06,
				23.47576141357422,
				-1.4424324035644531e-05
			]
		},
		{
			"children":[
				16
			],
			"name":"RightForeArm",
			"rotation":[
				-0.22378407418727875,
				0.06662872433662415,
				-0.004158553201705217,
				0.9723497629165649
			],
			"scale":[
				1,
				1,
				0.9999998807907104
			],
			"translation":[
				3.5762786865234375e-06,
				25.91946029663086,
				-2.682209014892578e-07
			]
		},
		{
			"children":[
				17
			],
			"name":"RightArm",
			"rotation":[
				0.48512330651283264,
				-0.523654043674469,
				-0.3455653488636017,
				0.6091194748878479
			],
			"scale":[
				0.9999999403953552,
				0.9999999403953552,
				1
			],
			"translation":[
				-9.46939780988032e-06,
				14.415658950805664,
				-4.538673601928167e-05
			]
		},
		{
			"children":[
				18
			],
			"name":"RightShoulder",
			"rotation":[
				0.5193095803260803,
				-0.5605553388595581,
				0.4685293138027191,
				0.44336846470832825
			],
			"scale":[
				1.0000001192092896,
				1.0000001192092896,
				1.0000001192092896
			],
			"translation":[
				-3.568483352661133,
				3.4531726837158203,
				-0.49541109800338745
			]
		},
		{
			"children":[
				11,
				15,
				19
			],
			"name":"Spine",
			"rotation":[
				-0.05433231592178345,
				-0.004973762668669224,
				0.004684221465140581,
				0.9984995722770691
			],
			"scale":[
				0.9999999403953552,
				1,
				0.9999999403953552
			],
			"translation":[
				4.5601844078646536e-08,
				12.833602905273438,
				-6.053024321772682e-07
			]
		},
		{
			"children":[
				20
			],
			"name":"Spine01",
			"rotation":[
				3.818422555923462e-08,
				2.2613473760202396e-08,
				4.726766178464459e-08,
				1
			],
			"scale":[
				1,
				1,
				0.9999999403953552
			],
			"translation":[
				-2.0605432382581057e-06,
				12.833521842956543,
				-8.899393719730142e-07
			]
		},
		{
			"children":[
				21
			],
			"name":"Spine02",
			"rotation":[
				0.39715051651000977,
				0.3954481780529022,
				0.613318145275116,
				0.5565367341041565
			],
			"scale":[
				1.0000001192092896,
				1.000000238418579,
				1.0000001192092896
			],
			"translation":[
				-4.729992389678955,
				-0.8697993755340576,
				11.898407936096191
			]
		},
		{
			"children":[
				3,
				7,
				22
			],
			"name":"Hips",
			"rotation":[
				-0.4136495888233185,
				-0.4136494994163513,
				-0.6011925339698792,
				0.5443856120109558
			],
			"scale":[
				0.9999999403953552,
				0.9999999403953552,
				1
			],
			"translation":[
				0.36296892166137695,
				95.12586975097656,
				1.9382367134094238
			]
		},
		{
			"mesh":0,
			"name":"char1",
			"skin":0
		},
		{
			"children":[
				24,
				23
			],
			"name":"Armature",
			"scale":[
				0.009999999776482582,
				0.009999999776482582,
				0.009999999776482582
			]
		}
	],
	"materials":[
		{
			"alphaMode":"BLEND",
			"doubleSided":true,
			"emissiveFactor":[
				1,
				1,
				1
			],
			"emissiveTexture":{
				"index":0
			},
			"extensions":{
				"KHR_materials_specular":{
					"specularColorFactor":[
						2.0,
						2.0,
						2.0
					]
				}
			},
			"name":"Material_1",
			"pbrMetallicRoughness":{
				"baseColorTexture":{
					"index":1
				}
			}
		}
	],
	"meshes":[
		{
			"name":"char1",
			"primitives":[
				{
					"attributes":{
						"POSITION":0,
						"NORMAL":1,
						"TEXCOORD_0":2,
						"JOINTS_0":3,
						"WEIGHTS_0":4
					},
					"indices":5,
					"material":0
				}
			]
		}
	],
	"textures":[
		{
			"sampler":0,
			"source":0
		},
		{
			"sampler":0,
			"source":0
		}
	],
	"images":[
		{
			"mimeType":"image/png",
			"name":"texture_0",
			"uri":"texture_0.png"
		}
	],
	"skins":[
		{
			"inverseBindMatrices":6,
			"joints":[
				23,
				3,
				2,
				1,
				0,
				7,
				6,
				5,
				4,
				22,
				21,
				20,
				11,
				10,
				9,
				8,
				15,
				14,
				12,
				13,
				19,
				18,
				17,
				16
			],
			"name":"Armature"
		}
	],
	"accessors":[
		{
			"bufferView":0,
			"componentType":5126,
			"count":29480,
			"max":[
				0.3947891891002655,
				1.7000298500061035,
				0.16297413408756256
			],
			"min":[
				-0.3945927619934082,
				6.367245646288211e-07,
				-0.16284669935703278
			],
			"type":"VEC3"
		},
		{
			"bufferView":1,
			"componentType":5126,
			"count":29480,
			"type":"VEC3"
		},
		{
			"bufferView":2,
			"componentType":5126,
			"count":29480,
			"type":"VEC2"
		},
		{
			"bufferView":3,
			"componentType":5121,
			"count":29480,
			"type":"VEC4"
		},
		{
			"bufferView":4,
			"componentType":5126,
			"count":29480,
			"type":"VEC4"
		},
		{
			"bufferView":5,
			"componentType":5123,
			"count":119997,
			"type":"SCALAR"
		},
		{
			"bufferView":6,
			"componentType":5126,
			"count":24,
			"type":"MAT4"
		}
	],
	"bufferViews":[
		{
			"buffer":0,
			"byteLength":353760,
			"byteOffset":0,
			"target":34962
		},
		{
			"buffer":0,
			"byteLength":353760,
			"byteOffset":353760,
			"target":34962
		},
		{
			"buffer":0,
			"byteLength":235840,
			"byteOffset":707520,
			"target":34962
		},
		{
			"buffer":0,
			"byteLength":117920,
			"byteOffset":943360,
			"target":34962
		},
		{
			"buffer":0,
			"byteLength":471680,
			"byteOffset":1061280,
			"target":34962
		},
		{
			"buffer":0,
			"byteLength":239994,
			"byteOffset":1532960,
			"target":34963
		},
		{
			"buffer":0,
			"byteLength":1536,
			"byteOffset":1772956
		}
	],
	"samplers":[
		{
			"magFilter":9729,
			"minFilter":9987
		}
	],
	"buffers":[
		{
			"byteLength":1774492,
			"uri":"transient_guests.bin"
		}
	]
}
