{
	"asset":{
		"generator":"Khronos glTF Blender I/O v5.2.39",
		"version":"2.0"
	},
	"extensionsUsed":[
		"KHR_materials_specular"
	],
	"scene":0,
	"scenes":[
		{
			"name":"Scene",
			"nodes":[
				25
			]
		}
	],
	"nodes":[
		{
			"name":"LeftToeBase",
			"rotation":[
				-0.3794098496437073,
				-0.0364503413438797,
				-0.01496050227433443,
				0.9243894219398499
			],
			"scale":[
				0.9999997019767761,
				1.0000001192092896,
				0.9999999403953552
			],
			"translation":[
				-1.9669532775878906e-06,
				14.690607070922852,
				8.344650268554688e-07
			]
		},
		{
			"children":[
				0
			],
			"name":"LeftFoot",
			"rotation":[
				-0.44573771953582764,
				-0.03332604095339775,
				0.0053847855888307095,
				0.8945268392562866
			],
			"scale":[
				1,
				1.0000001192092896,
				1
			],
			"translation":[
				-1.1920928955078125e-07,
				38.659690856933594,
				-2.384185791015625e-07
			]
		},
		{
			"children":[
				1
			],
			"name":"LeftLeg",
			"rotation":[
				0.008653542958199978,
				0.00991029292345047,
				0.007929149083793163,
				0.9998820424079895
			],
			"scale":[
				1.0000001192092896,
				1.0000001192092896,
				1.0000001192092896
			],
			"translation":[
				-1.2032687664031982e-06,
				36.43571853637695,
				5.960464477539062e-07
			]
		},
		{
			"children":[
				2
			],
			"name":"LeftUpLeg",
			"rotation":[
				0.37122878432273865,
				-0.39435040950775146,
				-0.6094348430633545,
				0.5790217518806458
			],
			"scale":[
				0.9999998211860657,
				0.9999998807907104,
				0.9999999403953552
			],
			"translation":[
				4.370487213134766,
				-7.622515678405762,
				8.634247779846191
			]
		},
		{
			"name":"RightToeBase",
			"rotation":[
				-0.3686617314815521,
				0.045356202870607376,
				0.018013225868344307,
				0.9282816648483276
			],
			"scale":[
				1,
				0.9999999403953552,
				1
			],
			"translation":[
				-1.4901161193847656e-08,
				14.595785140991211,
				1.1920928955078125e-06
			]
		},
		{
			"children":[
				4
			],
			"name":"RightFoot",
			"rotation":[
				-0.45520779490470886,
				0.05613105371594429,
				0.022555992007255554,
				0.8883278965950012
			],
			"scale":[
				0.9999999403953552,
				1,
				0.9999998807907104
			],
			"translation":[
				6.854534149169922e-07,
				38.990394592285156,
				0
			]
		},
		{
			"children":[
				5
			],
			"name":"RightLeg",
			"rotation":[
				0.010511161759495735,
				-0.01935574598610401,
				-0.016137147322297096,
				0.9996271729469299
			],
			"scale":[
				0.9999999403953552,
				0.9999998807907104,
				0.9999998807907104
			],
			"translation":[
				-2.678483724594116e-06,
				36.42015075683594,
				4.172325134277344e-07
			]
		},
		{
			"children":[
				6
			],
			"name":"RightUpLeg",
			"rotation":[
				0.39456886053085327,
				-0.36420315504074097,
				-0.5120011568069458,
				0.6704672574996948
			],
			"scale":[
				1,
				0.9999998807907104,
				0.9999999403953552
			],
			"translation":[
				3.043428897857666,
				8.731194496154785,
				7.883108615875244
			]
		},
		{
			"name":"LeftHand",
			"rotation":[
				0.04513438418507576,
				0.09581249207258224,
				0.1083906814455986,
				0.9884504675865173
			],
			"scale":[
				1,
				0.9999998807907104,
				1
			],
			"translation":[
				1.2934207916259766e-05,
				23.82442855834961,
				5.036592483520508e-06
			]
		},
		{
			"children":[
				8
			],
			"name":"LeftForeArm",
			"rotation":[
				-0.18200752139091492,
				-0.07714350521564484,
				0.0044154999777674675,
				0.9802564382553101
			],
			"scale":[
				0.9999998807907104,
				0.9999999403953552,
				1
			],
			"translation":[
				3.4570693969726562e-06,
				23.736278533935547,
				-1.430511474609375e-06
			]
		},
		{
			"children":[
				9
			],
			"name":"LeftArm",
			"rotation":[
				0.4630451798439026,
				0.5187394022941589,
				0.2927565574645996,
				0.6563475728034973
			],
			"translation":[
				-8.247860023402609e-06,
				13.435417175292969,
				-1.5270616131601855e-05
			]
		},
		{
			"children":[
				10
			],
			"name":"LeftShoulder",
			"rotation":[
				0.5552209615707397,
				0.622002363204956,
				-0.412906676530838,
				0.36653897166252136
			],
			"scale":[
				0.9999999403953552,
				1.0000001192092896,
				0.9999998807907104
			],
			"translation":[
				3.33904767036438,
				2.152655839920044,
				-0.7438277006149292
			]
		},
		{
			"name":"head_end",
			"rotation":[
				-0.2524805963039398,
				-5.714900996878214e-09,
				-0.0027154204435646534,
				0.9675981402397156
			],
			"scale":[
				0.9999998211860657,
				0.9999998211860657,
				0.9999998807907104
			],
			"translation":[
				0.10765749216079712,
				17.87488555908203,
				-10.010011672973633
			]
		},
		{
			"name":"headfront",
			"rotation":[
				0.4538293182849884,
				-7.381492395097666e-08,
				0.004880867432802916,
				0.8910753130912781
			],
			"scale":[
				0.9999998211860657,
				0.9999999403953552,
				0.9999999403953552
			],
			"translation":[
				-0.10765741020441055,
				7.277768611907959,
				10.010054588317871
			]
		},
		{
			"children":[
				12,
				13
			],
			"name":"Head",
			"rotation":[
				0.35421696305274963,
				-2.2928328689886257e-05,
				0.0038545900024473667,
				0.9351553320884705
			],
			"scale":[
				1,
				0.9999999403953552,
				0.9999998807907104
			],
			"translation":[
				-3.102468326687813e-07,
				11.436752319335938,
				9.152106940746307e-06
			]
		},
		{
			"children":[
				14
			],
			"name":"neck",
			"rotation":[
				0.1521310955286026,
				0.007802113424986601,
				-0.005443766713142395,
				0.9883145689964294
			],
			"scale":[
				0.9999999403953552,
				1,
				0.9999999403953552
			],
			"translation":[
				0.07104705274105072,
				5.158631324768066,
				1.6261529922485352
			]
		},
		{
			"name":"RightHand",
			"rotation":[
				0.03002006560564041,
				-0.0656653419137001,
				-0.0746660903096199,
				0.9945913553237915
			],
			"scale":[
				0.9999999403953552,
				1.0000001192092896,
				1
			],
			"translation":[
				-2.0682811737060547e-05,
				23.630830764770508,
				-6.854534149169922e-07
			]
		},
		{
			"children":[
				16
			],
			"name":"RightForeArm",
			"rotation":[
				-0.187156543135643,
				0.08216015994548798,
				0.0020047302823513746,
				0.9788861274719238
			],
			"scale":[
				1.0000001192092896,
				1.0000001192092896,
				1.0000001192092896
			],
			"translation":[
				-8.58306884765625e-06,
				23.13157844543457,
				-4.76837158203125e-07
			]
		},
		{
			"children":[
				17
			],
			"name":"RightArm",
			"rotation":[
				0.4691786468029022,
				-0.5248255133628845,
				-0.3008357882499695,
				0.6433718800544739
			],
			"scale":[
				0.9999998807907104,
				0.9999997019767761,
				0.9999998807907104
			],
			"translation":[
				6.838527042418718e-06,
				13.72945785522461,
				-1.5690166037529707e-05
			]
		},
		{
			"children":[
				18
			],
			"name":"RightShoulder",
			"rotation":[
				0.5556829571723938,
				-0.6215896010398865,
				0.4106096625328064,
				0.3691104054450989
			],
			"scale":[
				1,
				1,
				0.9999999403953552
			],
			"translation":[
				-3.4100940227508545,
				1.8301870822906494,
				-0.882337749004364
			]
		},
		{
			"children":[
				11,
				15,
				19
			],
			"name":"Spine",
			"rotation":[
				-0.14885130524635315,
				-0.004197544883936644,
				0.003050820203498006,
				0.988845944404602
			],
			"scale":[
				0.9999998807907104,
				1,
				0.9999998807907104
			],
			"translation":[
				-2.7008354663848877e-08,
				12.259169578552246,
				2.170214429497719e-06
			]
		},
		{
			"children":[
				20
			],
			"name":"Spine01",
			"rotation":[
				-9.466931061297146e-08,
				-2.0832523262015457e-07,
				-3.767490852624178e-08,
				1
			],
			"scale":[
				1,
				1,
				0.9999999403953552
			],
			"translation":[
				7.14324414730072e-07,
				12.25920581817627,
				1.9796425476670265e-06
			]
		},
		{
			"children":[
				21
			],
			"name":"Spine02",
			"rotation":[
				-0.6670127511024475,
				0.5997517108917236,
				-0.3167211711406708,
				0.30834993720054626
			],
			"scale":[
				0.9999998211860657,
				0.9999997019767761,
				0.9999999403953552
			],
			"translation":[
				-7.413881778717041,
				-1.1086821556091309,
				-9.70011043548584
			]
		},
		{
			"children":[
				3,
				7,
				22
			],
			"name":"Hips",
			"rotation":[
				0.649657666683197,
				-0.5837278366088867,
				0.34438833594322205,
				0.34438827633857727
			],
			"scale":[
				0.9999998211860657,
				0.9999997615814209,
				1
			],
			"translation":[
				0,
				96.96102142333984,
				5.195757865905762
			]
		},
		{
			"mesh":0,
			"name":"char1",
			"skin":0
		},
		{
			"children":[
				24,
				23
			],
			"name":"Armature",
			"scale":[
				0.009999999776482582,
				0.009999999776482582,
				0.009999999776482582
			]
		}
	],
	"materials":[
		{
			"doubleSided":true,
			"emissiveFactor":[
				1,
				1,
				1
			],
			"emissiveTexture":{
				"index":0
			},
			"extensions":{
				"KHR_materials_specular":{
					"specularColorFactor":[
						2.0,
						2.0,
						2.0
					]
				}
			},
			"name":"Material_1",
			"pbrMetallicRoughness":{
				"baseColorTexture":{
					"index":1
				}
			}
		}
	],
	"meshes":[
		{
			"name":"char1",
			"primitives":[
				{
					"attributes":{
						"POSITION":0,
						"NORMAL":1,
						"TEXCOORD_0":2,
						"JOINTS_0":3,
						"WEIGHTS_0":4
					},
					"indices":5,
					"material":0
				}
			]
		}
	],
	"textures":[
		{
			"sampler":0,
			"source":0
		},
		{
			"sampler":0,
			"source":0
		}
	],
	"images":[
		{
			"mimeType":"image/png",
			"name":"texture_0",
			"uri":"texture_0.png"
		}
	],
	"skins":[
		{
			"inverseBindMatrices":6,
			"joints":[
				23,
				3,
				2,
				1,
				0,
				7,
				6,
				5,
				4,
				22,
				21,
				20,
				11,
				10,
				9,
				8,
				15,
				14,
				12,
				13,
				19,
				18,
				17,
				16
			],
			"name":"Armature"
		}
	],
	"accessors":[
		{
			"bufferView":0,
			"componentType":5126,
			"count":24616,
			"max":[
				0.44755101203918457,
				1.700211763381958,
				0.15863734483718872
			],
			"min":[
				-0.4470931589603424,
				6.0250498790992424e-05,
				-0.15862293541431427
			],
			"type":"VEC3"
		},
		{
			"bufferView":1,
			"componentType":5126,
			"count":24616,
			"type":"VEC3"
		},
		{
			"bufferView":2,
			"componentType":5126,
			"count":24616,
			"type":"VEC2"
		},
		{
			"bufferView":3,
			"componentType":5121,
			"count":24616,
			"type":"VEC4"
		},
		{
			"bufferView":4,
			"componentType":5126,
			"count":24616,
			"type":"VEC4"
		},
		{
			"bufferView":5,
			"componentType":5123,
			"count":120000,
			"type":"SCALAR"
		},
		{
			"bufferView":6,
			"componentType":5126,
			"count":24,
			"type":"MAT4"
		}
	],
	"bufferViews":[
		{
			"buffer":0,
			"byteLength":295392,
			"byteOffset":0,
			"target":34962
		},
		{
			"buffer":0,
			"byteLength":295392,
			"byteOffset":295392,
			"target":34962
		},
		{
			"buffer":0,
			"byteLength":196928,
			"byteOffset":590784,
			"target":34962
		},
		{
			"buffer":0,
			"byteLength":98464,
			"byteOffset":787712,
			"target":34962
		},
		{
			"buffer":0,
			"byteLength":393856,
			"byteOffset":886176,
			"target":34962
		},
		{
			"buffer":0,
			"byteLength":240000,
			"byteOffset":1280032,
			"target":34963
		},
		{
			"buffer":0,
			"byteLength":1536,
			"byteOffset":1520032
		}
	],
	"samplers":[
		{
			"magFilter":9729,
			"minFilter":9987
		}
	],
	"buffers":[
		{
			"byteLength":1521568,
			"uri":"teresa_vale.bin"
		}
	]
}
