{"asset":{"generator":"Khronos glTF Blender I/O v5.2.39","version":"2.0"},"extensionsUsed":["KHR_materials_specular"],"scene":0,"scenes":[{"name":"Scene","nodes":[25]}],"nodes":[{"name":"LeftToeBase","rotation":[-0.3377404510974884,-0.0293105635792017,-0.010522691532969475,0.9407239556312561],"scale":[0.9999998807907104,1,0.9999998211860657],"translation":[-6.854534149169922e-07,15.239500999450684,1.1920928955078125e-06]},{"children":[0],"name":"LeftFoot","rotation":[-0.49335405230522156,-0.03596104308962822,0.003591772634536028,0.8690775036811829],"scale":[0.9999999403953552,1,0.9999998807907104],"translation":[-4.470348358154297e-07,37.62175750732422,-8.344650268554688e-07]},{"children":[1],"name":"LeftLeg","rotation":[0.045988231897354126,0.022693345323204994,0.016150783747434616,0.9985535740852356],"scale":[1.0000001192092896,1.0000001192092896,1.0000001192092896],"translation":[-4.1350722312927246e-07,35.103515625,-1.1324882507324219e-05]},{"children":[2],"name":"LeftUpLeg","rotation":[0.9833497405052185,0.07202068716287613,-0.09331315755844116,0.13830778002738953],"scale":[0.9999992251396179,0.9999998211860657,0.9999985098838806],"translation":[9.844666481018066,-7.983016490936279,1.7484382390975952]},{"name":"RightToeBase","rotation":[-0.3365667760372162,0.0316954031586647,0.011334839276969433,0.9410577416419983],"scale":[0.9999998807907104,1.0000001192092896,1.0000001192092896],"translation":[1.773238182067871e-06,15.282401084899902,-4.172325134277344e-07]},{"children":[4],"name":"RightFoot","rotation":[-0.4943835139274597,0.040483348071575165,-0.00019711244385689497,0.8683006763458252],"scale":[1,0.9999998807907104,0.9999999403953552],"translation":[-5.364418029785156e-07,37.257484436035156,1.1920928955078125e-07]},{"children":[5],"name":"RightLeg","rotation":[0.04638196527957916,-0.02351272851228714,-0.016764573752880096,0.9985063076019287],"scale":[0.9999999403953552,0.9999997615814209,0.9999998807907104],"translation":[-4.194676876068115e-06,35.4106559753418,1.817941665649414e-06]},{"children":[6],"name":"RightUpLeg","rotation":[0.9894076585769653,-0.021290810778737068,0.039394915103912354,0.13808423280715942],"scale":[0.9999999403953552,1,1.0000027418136597],"translation":[-9.071549415588379,-8.88305950164795,2.93892502784729]},{"name":"LeftHand","rotation":[0.031468164175748825,0.06811283528804779,0.08908730745315552,0.9931937456130981],"scale":[1,1.0000001192092896,0.9999999403953552],"translation":[2.9325485229492188e-05,24.11969566345215,-5.960464477539062e-07]},{"children":[8],"name":"LeftForeArm","rotation":[-0.2371351271867752,-0.05445943772792816,0.04437340050935745,0.9689335227012634],"scale":[0.9999999403953552,1,1],"translation":[1.1920928955078125e-06,25.191055297851562,4.172325134277344e-07]},{"children":[9],"name":"LeftArm","rotation":[0.4779563844203949,0.5230510234832764,0.2880818843841553,0.6441926956176758],"scale":[0.9999999403953552,1.0000003576278687,1.0000001192092896],"translation":[-5.786914698546752e-06,14.731823921203613,-2.9300494475137384e-07]},{"children":[10],"name":"LeftShoulder","rotation":[0.5222837328910828,0.571560800075531,-0.46963903307914734,0.4242371618747711],"scale":[1.0000001192092896,1,1],"translation":[3.6832802295684814,3.9849257469177246,-0.5599414706230164]},{"name":"head_end","rotation":[-0.14413388073444366,-7.929630840841639e-10,-1.6964014637466107e-09,0.9895581603050232],"scale":[0.9999999403953552,0.9999998807907104,0.9999999403953552],"translation":[1.0920611259734869e-07,23.99495506286621,-7.14146614074707]},{"name":"headfront","rotation":[0.5326504111289978,-6.447911005125206e-08,-3.433087769622034e-08,0.8463353514671326],"scale":[0.9999999403953552,0.9999999403953552,1],"translation":[-9.416444157750448e-08,3.4262943267822266,7.141458988189697]},{"children":[12,13],"name":"Head","rotation":[0.25010210275650024,1.4002176085270435e-09,1.7412139508010682e-09,0.9682194590568542],"translation":[8.733169210017877e-08,6.811557292938232,6.6345473896944895e-06]},{"children":[14],"name":"neck","rotation":[0.07096127420663834,0.0026375767774879932,-0.0024882846046239138,0.9974724650382996],"scale":[1,1,0.9999999403953552],"translation":[0.04599745571613312,8.529568672180176,1.2196534872055054]},{"name":"RightHand","rotation":[0.020621249452233315,-0.05232642590999603,-0.06937367469072342,0.996004045009613],"scale":[0.9999999403953552,0.9999998807907104,0.9999999403953552],"translation":[2.0176172256469727e-05,24.03765106201172,1.5676021575927734e-05]},{"children":[16],"name":"RightForeArm","rotation":[-0.23811429738998413,0.06046003848314285,-0.03673175722360611,0.9686573147773743],"translation":[4.5299530029296875e-06,23.91457748413086,4.76837158203125e-07]},{"children":[17],"name":"RightArm","rotation":[0.48231789469718933,-0.5267610549926758,-0.29024022817611694,0.6369088292121887],"scale":[0.9999999403953552,0.9999998211860657,1],"translation":[6.170930646476336e-06,15.020673751831055,3.276389293205284e-08]},{"children":[18],"name":"RightShoulder","rotation":[0.5228574872016907,-0.5710361003875732,0.46431541442871094,0.43005719780921936],"scale":[0.9999997615814209,0.9999997019767761,0.9999999403953552],"translation":[-3.729278326034546,3.3019025325775146,-0.659736692905426]},{"children":[11,15,19],"name":"Spine","rotation":[-0.07096127420663834,-0.002637577010318637,0.0024882848374545574,0.9974724650382996],"scale":[0.9999998807907104,0.9999999403953552,0.9999997615814209],"translation":[1.723530651531746e-08,11.999593734741211,-5.324201310941135e-07]},{"children":[20],"name":"Spine01","rotation":[8.66129994392395e-08,4.059939939793367e-09,-1.4280448823456027e-08,1],"scale":[1,1,0.9999999403953552],"translation":[1.7773320450942265e-06,11.999558448791504,1.1931673498111195e-06]},{"children":[21],"name":"Spine02","rotation":[-0.20023402571678162,0.02602154016494751,0.027582762762904167,0.9790140390396118],"scale":[0.9999999403953552,1,1],"translation":[-0.7731160521507263,11.01909351348877,-4.687369346618652]},{"children":[3,7,22],"name":"Hips","rotation":[0.1716475486755371,-0.026813508942723274,-0.026813508942723274,0.9844284057617188],"scale":[1,0.9999999403953552,0.9999999403953552],"translation":[0.36296892166137695,94.0270004272461,2.826268196105957]},{"mesh":0,"name":"char1","skin":0},{"children":[24,23],"name":"Armature","scale":[0.009999999776482582,0.009999999776482582,0.009999999776482582]}],"materials":[{"doubleSided":true,"extensions":{"KHR_materials_specular":{"specularColorFactor":[1.0,1.0,1.0]}},"name":"Material_1","pbrMetallicRoughness":{"baseColorTexture":{"index":1}}}],"meshes":[{"name":"char1","primitives":[{"attributes":{"POSITION":0,"NORMAL":1,"TEXCOORD_0":2,"JOINTS_0":3,"WEIGHTS_0":4},"indices":5,"material":0}]}],"textures":[{"sampler":0,"source":0},{"sampler":0,"source":0}],"images":[{"mimeType":"image/png","name":"texture_0","uri":"texture_0.png"}],"skins":[{"inverseBindMatrices":6,"joints":[23,3,2,1,0,7,6,5,4,22,21,20,11,10,9,8,15,14,12,13,19,18,17,16],"name":"Armature"}],"accessors":[{"bufferView":0,"componentType":5126,"count":22607,"max":[0.4518681466579437,1.7001566886901855,0.1636759489774704],"min":[-0.4518786370754242,-7.338151044677943e-05,-0.16340897977352142],"type":"VEC3"},{"bufferView":1,"componentType":5126,"count":22607,"type":"VEC3"},{"bufferView":2,"componentType":5126,"count":22607,"type":"VEC2"},{"bufferView":3,"componentType":5121,"count":22607,"type":"VEC4"},{"bufferView":4,"componentType":5126,"count":22607,"type":"VEC4"},{"bufferView":5,"componentType":5123,"count":119997,"type":"SCALAR"},{"bufferView":6,"componentType":5126,"count":24,"type":"MAT4"}],"bufferViews":[{"buffer":0,"byteLength":271284,"byteOffset":0,"target":34962},{"buffer":0,"byteLength":271284,"byteOffset":271284,"target":34962},{"buffer":0,"byteLength":180856,"byteOffset":542568,"target":34962},{"buffer":0,"byteLength":90428,"byteOffset":723424,"target":34962},{"buffer":0,"byteLength":361712,"byteOffset":813852,"target":34962},{"buffer":0,"byteLength":239994,"byteOffset":1175564,"target":34963},{"buffer":0,"byteLength":1536,"byteOffset":1415560}],"samplers":[{"magFilter":9729,"minFilter":9987}],"buffers":[{"byteLength":1417096,"uri":"omar_bell.bin"}]}