{"asset":{"generator":"Khronos glTF Blender I/O v5.2.39","version":"2.0"},"extensionsUsed":["KHR_materials_specular"],"scene":0,"scenes":[{"name":"Scene","nodes":[25]}],"nodes":[{"name":"LeftToeBase","rotation":[-0.3153977394104004,-0.04288030043244362,-0.014268082566559315,0.947882890701294],"scale":[1,0.9999998211860657,0.9999999403953552],"translation":[-1.8775463104248047e-06,13.715335845947266,1.5497207641601562e-06]},{"children":[0],"name":"LeftFoot","rotation":[-0.4659488797187805,-0.06108536943793297,-0.014386355876922607,0.8825833201408386],"scale":[0.9999999403953552,0.9999999403953552,0.9999998211860657],"translation":[-3.069639205932617e-06,39.454833984375,5.9604644775390625e-06]},{"children":[1],"name":"LeftLeg","rotation":[-0.022265266627073288,-0.00545889139175415,-0.003079212736338377,0.9997324347496033],"scale":[1,0.9999999403953552,1],"translation":[2.518296241760254e-06,38.48234939575195,-1.9073486328125e-06]},{"children":[2],"name":"LeftUpLeg","rotation":[-0.4831196963787079,-0.6519057154655457,0.42426398396492004,0.40201303362846375],"scale":[0.9999999403953552,0.9999998211860657,0.9999997615814209],"translation":[2.0660791397094727,8.732321739196777,-8.594841003417969]},{"name":"RightToeBase","rotation":[-0.3167402148246765,0.04160292074084282,0.013907421380281448,0.9474974870681763],"scale":[1,0.9999999403953552,1.0000001192092896],"translation":[6.4373016357421875e-06,13.66942310333252,6.198883056640625e-06]},{"children":[4],"name":"RightFoot","rotation":[-0.46406710147857666,0.05806155875325203,0.011857005767524242,0.883815586566925],"scale":[1.000000238418579,1.0000001192092896,1.0000001192092896],"translation":[-1.341104507446289e-06,39.44828414916992,-1.7881393432617188e-07]},{"children":[5],"name":"RightLeg","rotation":[-0.02382018230855465,0.002556390827521682,0.00020829665299970657,0.9997129440307617],"translation":[-3.2782554626464844e-06,38.50395584106445,9.5367431640625e-07]},{"children":[6],"name":"RightUpLeg","rotation":[-0.5738778114318848,-0.5681973099708557,0.40968742966651917,0.42423149943351746],"scale":[0.9999998807907104,0.9999998807907104,0.9999999403953552],"translation":[3.690673351287842,-7.477931022644043,-9.663117408752441]},{"name":"LeftHand","rotation":[-0.1399262696504593,0.21809491515159607,0.31950387358665466,0.9114672541618347],"scale":[1,0.9999999403953552,1.0000001192092896],"translation":[5.602836608886719e-06,22.763500213623047,1.0728836059570312e-05]},{"children":[8],"name":"LeftForeArm","rotation":[-0.2049679011106491,-0.031084561720490456,0.011627333238720894,0.9782059192657471],"scale":[0.9999998211860657,0.9999999403953552,0.9999998807907104],"translation":[-1.9073486328125e-06,24.689655303955078,1.430511474609375e-06]},{"children":[9],"name":"LeftArm","rotation":[0.4956631064414978,0.5685181021690369,0.3914615511894226,0.527127206325531],"scale":[1.000000238418579,1.0000001192092896,1.0000001192092896],"translation":[-9.40269364946289e-06,12.707221031188965,-1.5674497262807563e-05]},{"children":[10],"name":"LeftShoulder","rotation":[0.5337003469467163,0.6121463179588318,-0.4460567831993103,0.3761306405067444],"scale":[0.9999998807907104,1.0000001192092896,0.9999998211860657],"translation":[3.170820713043213,3.1661622524261475,-0.7982625961303711]},{"name":"head_end","rotation":[-0.193921759724617,3.0223257230233003e-09,0.0005264519713819027,0.9810168743133545],"scale":[0.9999999403953552,1,1.0000001192092896],"translation":[-0.01987597532570362,17.7952823638916,-7.3214569091796875]},{"name":"headfront","rotation":[0.4839271605014801,-6.591624668317309e-08,-0.001313782879151404,0.8751072883605957],"scale":[1,1,0.9999998807907104],"translation":[0.0198759064078331,4.595492362976074,7.321384906768799]},{"children":[12,13],"name":"Head","rotation":[0.3272182047367096,-5.065773439127952e-05,-0.0007967109559103847,0.9449484944343567],"scale":[0.9999999403953552,1,0.9999998211860657],"translation":[-1.9837170839309692e-07,8.10562801361084,1.3089855201542377e-05]},{"children":[14],"name":"neck","rotation":[0.10914251208305359,0.005600182339549065,-0.005315872840583324,0.9939961433410645],"scale":[0.9999998211860657,0.9999998211860657,0.9999998211860657],"translation":[0.08132793009281158,6.733066558837891,1.496222972869873]},{"name":"RightHand","rotation":[-0.1471572369337082,-0.2184070199728012,-0.3217450678348541,0.9094631671905518],"scale":[1,0.9999999403953552,0.9999999403953552],"translation":[-1.0848045349121094e-05,22.763450622558594,6.198883056640625e-06]},{"children":[16],"name":"RightForeArm","rotation":[-0.20497334003448486,0.031085414811968803,-0.011628606356680393,0.9782046675682068],"scale":[1,1.0000001192092896,1],"translation":[6.079673767089844e-06,24.68973731994629,-4.76837158203125e-07]},{"children":[17],"name":"RightArm","rotation":[0.4971848428249359,-0.5671967267990112,-0.3900446593761444,0.5281669497489929],"scale":[0.9999998807907104,1,1],"translation":[1.053427331498824e-05,13.221879005432129,3.0119064831524156e-05]},{"children":[18],"name":"RightShoulder","rotation":[0.5353342294692993,-0.6107178926467896,0.4323660731315613,0.391791433095932],"scale":[0.9999997019767761,0.9999995231628418,0.9999997615814209],"translation":[-3.2521462440490723,3.2383151054382324,-0.6979774832725525]},{"children":[11,15,19],"name":"Spine","rotation":[-0.10914113372564316,-0.006488501094281673,0.005953974090516567,0.9939872622489929],"scale":[1,0.9999999403953552,0.9999998807907104],"translation":[-7.695052772760391e-08,11.669267654418945,1.0509684216231108e-06]},{"children":[20],"name":"Spine01","rotation":[8.013003593987378e-08,-5.6483262511619614e-08,1.874104782473296e-08,1],"scale":[0.9999999403953552,1,1],"translation":[-6.852787919342518e-07,11.66922378540039,3.4707190934568644e-06]},{"children":[21],"name":"Spine02","rotation":[0.35618719458580017,0.35056421160697937,0.6533592343330383,0.5686450004577637],"translation":[-5.756768703460693,-1.2543946504592896,10.072649002075195]},{"children":[3,7,22],"name":"Hips","rotation":[-0.38528355956077576,-0.3852834105491638,-0.6337087154388428,0.5491144061088562],"scale":[0.9999999403953552,0.9999998807907104,1],"translation":[0.36296892166137695,99.15894317626953,3.2694437503814697]},{"mesh":0,"name":"char1","skin":0},{"children":[24,23],"name":"Armature","scale":[0.009999999776482582,0.009999999776482582,0.009999999776482582]}],"materials":[{"doubleSided":true,"extensions":{"KHR_materials_specular":{"specularColorFactor":[1.0,1.0,1.0]}},"name":"Material_1","pbrMetallicRoughness":{"baseColorTexture":{"index":1}}}],"meshes":[{"name":"char1","primitives":[{"attributes":{"POSITION":0,"NORMAL":1,"TEXCOORD_0":2,"JOINTS_0":3,"WEIGHTS_0":4},"indices":5,"material":0}]}],"textures":[{"sampler":0,"source":0},{"sampler":0,"source":0}],"images":[{"mimeType":"image/png","name":"texture_0","uri":"texture_0.png"}],"skins":[{"inverseBindMatrices":6,"joints":[23,3,2,1,0,7,6,5,4,22,21,20,11,10,9,8,15,14,12,13,19,18,17,16],"name":"Armature"}],"accessors":[{"bufferView":0,"componentType":5126,"count":25067,"max":[0.28947147727012634,1.6998178958892822,0.16336478292942047],"min":[-0.28935661911964417,-0.0001809521927498281,-0.16326381266117096],"type":"VEC3"},{"bufferView":1,"componentType":5126,"count":25067,"type":"VEC3"},{"bufferView":2,"componentType":5126,"count":25067,"type":"VEC2"},{"bufferView":3,"componentType":5121,"count":25067,"type":"VEC4"},{"bufferView":4,"componentType":5126,"count":25067,"type":"VEC4"},{"bufferView":5,"componentType":5123,"count":119997,"type":"SCALAR"},{"bufferView":6,"componentType":5126,"count":24,"type":"MAT4"}],"bufferViews":[{"buffer":0,"byteLength":300804,"byteOffset":0,"target":34962},{"buffer":0,"byteLength":300804,"byteOffset":300804,"target":34962},{"buffer":0,"byteLength":200536,"byteOffset":601608,"target":34962},{"buffer":0,"byteLength":100268,"byteOffset":802144,"target":34962},{"buffer":0,"byteLength":401072,"byteOffset":902412,"target":34962},{"buffer":0,"byteLength":239994,"byteOffset":1303484,"target":34963},{"buffer":0,"byteLength":1536,"byteOffset":1543480}],"samplers":[{"magFilter":9729,"minFilter":9987}],"buffers":[{"byteLength":1545016,"uri":"oni.bin"}]}