{"asset":{"generator":"Khronos glTF Blender I/O v5.2.39","version":"2.0","extras":{"orison_bin_sha256":"2861fceab55c8883fa24b7d3f03525fa26ee6eee25ea629bd2dda5df231fac36","orison_m11c1_candidate":{"production_asset":false,"owner_before_material":true,"spatial_inference_used":false},"orison_m11c1_owner_first":{"cell":"CELL_PASSAGE","production_asset":false,"owner_before_material":true,"spatial_inference_used":false}}},"extensionsUsed":["KHR_materials_specular"],"scene":0,"scenes":[{"name":"Scene_passage","nodes":[0,1,2,3,4,5,6,7,8,9,10,11,12,13,14,15,16,17,18,19,20,21,22,23,24,25,26,27,28,29,30,31,32,33]}],"nodes":[{"mesh":0,"name":"F01_OWN_PASSAGE_retail_passage_shell_bakelite_black-col"},{"mesh":1,"name":"F01_OWN_PASSAGE_retail_passage_shell_brass_dull"},{"mesh":2,"name":"F01_OWN_PASSAGE_retail_passage_shell_brass_dull-col"},{"mesh":3,"name":"F01_OWN_PASSAGE_retail_passage_shell_cast_iron"},{"mesh":4,"name":"F01_OWN_PASSAGE_retail_passage_shell_cast_iron-col"},{"mesh":5,"name":"F01_OWN_PASSAGE_retail_passage_shell_common_brick-col"},{"mesh":6,"name":"F01_OWN_PASSAGE_retail_passage_shell_concrete-col"},{"mesh":7,"name":"F01_OWN_PASSAGE_retail_passage_shell_glassish-col"},{"mesh":8,"name":"F01_OWN_PASSAGE_retail_passage_shell_limestone-col"},{"mesh":9,"name":"F01_OWN_PASSAGE_retail_passage_shell_metal"},{"mesh":10,"name":"F01_OWN_PASSAGE_retail_passage_shell_milk_glass-col"},{"mesh":11,"name":"F01_OWN_PASSAGE_retail_passage_shell_paper-col"},{"mesh":12,"name":"F01_OWN_PASSAGE_retail_passage_shell_plaster-col"},{"mesh":13,"name":"F01_OWN_PASSAGE_retail_passage_shell_plaster_stained-col"},{"mesh":14,"name":"F01_OWN_PASSAGE_retail_passage_shell_soot-col"},{"mesh":15,"name":"F01_OWN_PASSAGE_retail_passage_shell_terrazzo"},{"mesh":16,"name":"F01_OWN_PASSAGE_retail_passage_shell_terrazzo-col"},{"mesh":17,"name":"F01_OWN_PASSAGE_retail_passage_shell_terrazzo_dark"},{"mesh":18,"name":"F01_OWN_PASSAGE_retail_passage_shell_trim-col"},{"mesh":19,"name":"F01_OWN_PASSAGE_retail_passage_shell_wood_dark-col"},{"mesh":20,"name":"F01_OWN_PASSAGE_retail_shop_funeral_parlour_limestone-col"},{"mesh":21,"name":"F01_OWN_PASSAGE_retail_shop_hardware_paint_wood_dark-col"},{"mesh":22,"name":"F01_OWN_PASSAGE_retail_shop_keys_cut_common_brick-col"},{"mesh":23,"name":"F01_OWN_PASSAGE_retail_shop_luncheonette_chrome-col"},{"mesh":24,"name":"F01_OWN_PASSAGE_retail_shop_model_laundry_plaster_stained-col"},{"mesh":25,"name":"F01_OWN_PASSAGE_retail_shop_news_cigars_wood_dark-col"},{"mesh":26,"name":"F01_OWN_PASSAGE_retail_shop_otis___son_limestone-col"},{"mesh":27,"name":"F01_OWN_PASSAGE_retail_shop_pawnbroker_common_brick-col"},{"mesh":28,"name":"F01_OWN_PASSAGE_retail_shop_photo_supplies_plaster_stained-col"},{"mesh":29,"name":"F01_OWN_PASSAGE_retail_shop_radio_service_wood_dark-col"},{"mesh":30,"name":"F01_OWN_PASSAGE_retail_shop_shoe_rebuilding_wood_dark-col"},{"name":"V2_PASSAGE_finish_ceiling_teal","mesh":31},{"name":"V2_PASSAGE_finish_ceiling_brass","mesh":32},{"name":"V2_PASSAGE_finish_ceiling_ochre","mesh":33}],"meshes":[{"name":"F01_OWN_PASSAGE_retail_passage_shell_bakelite_black-col","primitives":[{"attributes":{"POSITION":5,"NORMAL":6,"TEXCOORD_0":7},"indices":0,"material":11}]},{"name":"F01_OWN_PASSAGE_retail_passage_shell_brass_dull","primitives":[{"attributes":{"POSITION":8,"NORMAL":9,"TEXCOORD_0":10},"indices":11,"material":12}]},{"name":"F01_OWN_PASSAGE_retail_passage_shell_brass_dull-col","primitives":[{"attributes":{"POSITION":12,"NORMAL":13,"TEXCOORD_0":14},"indices":15,"material":12}]},{"name":"F01_OWN_PASSAGE_retail_passage_shell_cast_iron","primitives":[{"attributes":{"POSITION":16,"NORMAL":17,"TEXCOORD_0":18},"indices":19,"material":1}]},{"name":"F01_OWN_PASSAGE_retail_passage_shell_cast_iron-col","primitives":[{"attributes":{"POSITION":20,"NORMAL":21,"TEXCOORD_0":22},"indices":3,"material":1}]},{"name":"F01_OWN_PASSAGE_retail_passage_shell_common_brick-col","primitives":[{"attributes":{"POSITION":23,"NORMAL":24,"TEXCOORD_0":25},"indices":26,"material":6}]},{"name":"F01_OWN_PASSAGE_retail_passage_shell_concrete-col","primitives":[{"attributes":{"POSITION":27,"NORMAL":28,"TEXCOORD_0":29},"indices":30,"material":9}]},{"name":"F01_OWN_PASSAGE_retail_passage_shell_glassish-col","primitives":[{"attributes":{"POSITION":31,"NORMAL":32,"TEXCOORD_0":33},"indices":34,"material":2}]},{"name":"F01_OWN_PASSAGE_retail_passage_shell_limestone-col","primitives":[{"attributes":{"POSITION":35,"NORMAL":36,"TEXCOORD_0":37},"indices":38,"material":4}]},{"name":"F01_OWN_PASSAGE_retail_passage_shell_metal","primitives":[{"attributes":{"POSITION":39,"NORMAL":40,"TEXCOORD_0":41},"indices":42,"material":0}]},{"name":"F01_OWN_PASSAGE_retail_passage_shell_milk_glass-col","primitives":[{"attributes":{"POSITION":43,"NORMAL":44,"TEXCOORD_0":45},"indices":1,"material":16}]},{"name":"F01_OWN_PASSAGE_retail_passage_shell_paper-col","primitives":[{"attributes":{"POSITION":46,"NORMAL":47,"TEXCOORD_0":48},"indices":0,"material":14}]},{"name":"F01_OWN_PASSAGE_retail_passage_shell_plaster-col","primitives":[{"attributes":{"POSITION":49,"NORMAL":50,"TEXCOORD_0":51},"indices":52,"material":7}]},{"name":"F01_OWN_PASSAGE_retail_passage_shell_plaster_stained-col","primitives":[{"attributes":{"POSITION":53,"NORMAL":54,"TEXCOORD_0":55},"indices":56,"material":8}]},{"name":"F01_OWN_PASSAGE_retail_passage_shell_soot-col","primitives":[{"attributes":{"POSITION":57,"NORMAL":58,"TEXCOORD_0":59},"indices":2,"material":3}]},{"name":"F01_OWN_PASSAGE_retail_passage_shell_terrazzo","primitives":[{"attributes":{"POSITION":60,"NORMAL":61,"TEXCOORD_0":62},"indices":0,"material":10}]},{"name":"F01_OWN_PASSAGE_retail_passage_shell_terrazzo-col","primitives":[{"attributes":{"POSITION":63,"NORMAL":64,"TEXCOORD_0":65},"indices":0,"material":10}]},{"name":"F01_OWN_PASSAGE_retail_passage_shell_terrazzo_dark","primitives":[{"attributes":{"POSITION":66,"NORMAL":67,"TEXCOORD_0":68},"indices":4,"material":17}]},{"name":"F01_OWN_PASSAGE_retail_passage_shell_trim-col","primitives":[{"attributes":{"POSITION":69,"NORMAL":70,"TEXCOORD_0":71},"indices":72,"material":5}]},{"name":"F01_OWN_PASSAGE_retail_passage_shell_wood_dark-col","primitives":[{"attributes":{"POSITION":73,"NORMAL":74,"TEXCOORD_0":75},"indices":2,"material":15}]},{"name":"F01_OWN_PASSAGE_retail_shop_funeral_parlour_limestone-col","primitives":[{"attributes":{"POSITION":76,"NORMAL":77,"TEXCOORD_0":78},"indices":0,"material":4}]},{"name":"F01_OWN_PASSAGE_retail_shop_hardware_paint_wood_dark-col","primitives":[{"attributes":{"POSITION":79,"NORMAL":80,"TEXCOORD_0":81},"indices":0,"material":15}]},{"name":"F01_OWN_PASSAGE_retail_shop_keys_cut_common_brick-col","primitives":[{"attributes":{"POSITION":82,"NORMAL":83,"TEXCOORD_0":84},"indices":0,"material":6}]},{"name":"F01_OWN_PASSAGE_retail_shop_luncheonette_chrome-col","primitives":[{"attributes":{"POSITION":85,"NORMAL":86,"TEXCOORD_0":87},"indices":0,"material":13}]},{"name":"F01_OWN_PASSAGE_retail_shop_model_laundry_plaster_stained-col","primitives":[{"attributes":{"POSITION":88,"NORMAL":89,"TEXCOORD_0":90},"indices":0,"material":8}]},{"name":"F01_OWN_PASSAGE_retail_shop_news_cigars_wood_dark-col","primitives":[{"attributes":{"POSITION":91,"NORMAL":92,"TEXCOORD_0":93},"indices":0,"material":15}]},{"name":"F01_OWN_PASSAGE_retail_shop_otis___son_limestone-col","primitives":[{"attributes":{"POSITION":94,"NORMAL":95,"TEXCOORD_0":96},"indices":0,"material":4}]},{"name":"F01_OWN_PASSAGE_retail_shop_pawnbroker_common_brick-col","primitives":[{"attributes":{"POSITION":97,"NORMAL":98,"TEXCOORD_0":99},"indices":0,"material":6}]},{"name":"F01_OWN_PASSAGE_retail_shop_photo_supplies_plaster_stained-col","primitives":[{"attributes":{"POSITION":100,"NORMAL":101,"TEXCOORD_0":102},"indices":0,"material":8}]},{"name":"F01_OWN_PASSAGE_retail_shop_radio_service_wood_dark-col","primitives":[{"attributes":{"POSITION":103,"NORMAL":104,"TEXCOORD_0":105},"indices":0,"material":15}]},{"name":"F01_OWN_PASSAGE_retail_shop_shoe_rebuilding_wood_dark-col","primitives":[{"attributes":{"POSITION":106,"NORMAL":107,"TEXCOORD_0":108},"indices":0,"material":15}]},{"name":"V2_PASSAGE_finish_ceiling_teal","primitives":[{"attributes":{"POSITION":109,"NORMAL":110,"TEXCOORD_0":111},"material":18,"mode":4}]},{"name":"V2_PASSAGE_finish_ceiling_brass","primitives":[{"attributes":{"POSITION":112,"NORMAL":113,"TEXCOORD_0":114},"material":19,"mode":4}]},{"name":"V2_PASSAGE_finish_ceiling_ochre","primitives":[{"attributes":{"POSITION":115,"NORMAL":116,"TEXCOORD_0":117},"material":20,"mode":4}]}],"accessors":[{"bufferView":0,"componentType":5123,"count":36,"type":"SCALAR"},{"bufferView":1,"componentType":5123,"count":108,"type":"SCALAR"},{"bufferView":2,"componentType":5123,"count":432,"type":"SCALAR"},{"bufferView":3,"componentType":5123,"count":324,"type":"SCALAR"},{"bufferView":4,"componentType":5123,"count":144,"type":"SCALAR"},{"bufferView":5,"componentType":5126,"count":24,"max":[14.279999732971191,6.519999980926514,51.880001068115234],"min":[13.720000267028809,5.900000095367432,51.31999969482422],"type":"VEC3"},{"bufferView":6,"componentType":5126,"count":24,"type":"VEC3"},{"bufferView":7,"componentType":5126,"count":24,"type":"VEC2"},{"bufferView":8,"componentType":5126,"count":110,"max":[17,5.840000152587891,52],"min":[11,-0.03999999910593033,38.2400016784668],"type":"VEC3"},{"bufferView":9,"componentType":5126,"count":110,"type":"VEC3"},{"bufferView":10,"componentType":5126,"count":110,"type":"VEC2"},{"bufferView":11,"componentType":5123,"count":192,"type":"SCALAR"},{"bufferView":12,"componentType":5126,"count":336,"max":[15.449999809265137,6.579999923706055,64.5999984741211],"min":[12.550000190734863,0.8899999856948853,31.110000610351562],"type":"VEC3"},{"bufferView":13,"componentType":5126,"count":336,"type":"VEC3"},{"bufferView":14,"componentType":5126,"count":336,"type":"VEC2"},{"bufferView":15,"componentType":5123,"count":504,"type":"SCALAR"},{"bufferView":16,"componentType":5126,"count":1110,"max":[17.022796630859375,12.100000381469727,64.5],"min":[10.977202415466309,3.950000047683716,31.18000030517578],"type":"VEC3"},{"bufferView":17,"componentType":5126,"count":1110,"type":"VEC3"},{"bufferView":18,"componentType":5126,"count":1110,"type":"VEC2"},{"bufferView":19,"componentType":5123,"count":1920,"type":"SCALAR"},{"bufferView":20,"componentType":5126,"count":216,"max":[17.100000381469727,11.4399995803833,64.5999984741211],"min":[10.899999618530273,7.059999942779541,38.599998474121094],"type":"VEC3"},{"bufferView":21,"componentType":5126,"count":216,"type":"VEC3"},{"bufferView":22,"componentType":5126,"count":216,"type":"VEC2"},{"bufferView":23,"componentType":5126,"count":840,"max":[24.219999313354492,4.199999809265137,64.8499984741211],"min":[3.7799999713897705,0,28.31599998474121],"type":"VEC3"},{"bufferView":24,"componentType":5126,"count":840,"type":"VEC3"},{"bufferView":25,"componentType":5126,"count":840,"type":"VEC2"},{"bufferView":26,"componentType":5123,"count":1260,"type":"SCALAR"},{"bufferView":27,"componentType":5126,"count":264,"max":[27.3700008392334,0.009999999776482582,62.209999084472656],"min":[0.6299999952316284,-0.05000000074505806,41.290000915527344],"type":"VEC3"},{"bufferView":28,"componentType":5126,"count":264,"type":"VEC3"},{"bufferView":29,"componentType":5126,"count":264,"type":"VEC2"},{"bufferView":30,"componentType":5123,"count":396,"type":"SCALAR"},{"bufferView":31,"componentType":5126,"count":1296,"max":[17.170000076293945,10.960000038146973,64.5999984741211],"min":[10.829999923706055,5.150000095367432,38.599998474121094],"type":"VEC3"},{"bufferView":32,"componentType":5126,"count":1296,"type":"VEC3"},{"bufferView":33,"componentType":5126,"count":1296,"type":"VEC2"},{"bufferView":34,"componentType":5123,"count":1944,"type":"SCALAR"},{"bufferView":35,"componentType":5126,"count":888,"max":[17.5,7.199999809265137,64.66000366210938],"min":[10.5,0,38.599998474121094],"type":"VEC3"},{"bufferView":36,"componentType":5126,"count":888,"type":"VEC3"},{"bufferView":37,"componentType":5126,"count":888,"type":"VEC2"},{"bufferView":38,"componentType":5123,"count":1332,"type":"SCALAR"},{"bufferView":39,"componentType":5126,"count":12330,"max":[17.0411376953125,9.942728996276855,63.04499816894531],"min":[10.9588623046875,7.188198089599609,38.95500183105469],"type":"VEC3"},{"bufferView":40,"componentType":5126,"count":12330,"type":"VEC3"},{"bufferView":41,"componentType":5126,"count":12330,"type":"VEC2"},{"bufferView":42,"componentType":5123,"count":19200,"type":"SCALAR"},{"bufferView":43,"componentType":5126,"count":72,"max":[14.899999618530273,11.5,52.5],"min":[13.100000381469727,5.960000038146973,50.70000076293945],"type":"VEC3"},{"bufferView":44,"componentType":5126,"count":72,"type":"VEC3"},{"bufferView":45,"componentType":5126,"count":72,"type":"VEC2"},{"bufferView":46,"componentType":5126,"count":24,"max":[15.329999923706055,2.6500000953674316,64.5999984741211],"min":[12.670000076293945,1.0700000524520874,64.44000244140625],"type":"VEC3"},{"bufferView":47,"componentType":5126,"count":24,"type":"VEC3"},{"bufferView":48,"componentType":5126,"count":24,"type":"VEC2"},{"bufferView":49,"componentType":5126,"count":1704,"max":[17.280000686645508,9.899999618530273,64.5999984741211],"min":[10.720000267028809,3.7899999618530273,38.599998474121094],"type":"VEC3"},{"bufferView":50,"componentType":5126,"count":1704,"type":"VEC3"},{"bufferView":51,"componentType":5126,"count":1704,"type":"VEC2"},{"bufferView":52,"componentType":5123,"count":2556,"type":"SCALAR"},{"bufferView":53,"componentType":5126,"count":816,"max":[27.3700008392334,4.380000114440918,62.209999084472656],"min":[0.6299999952316284,0.009999999776482582,28.31599998474121],"type":"VEC3"},{"bufferView":54,"componentType":5126,"count":816,"type":"VEC3"},{"bufferView":55,"componentType":5126,"count":816,"type":"VEC2"},{"bufferView":56,"componentType":5123,"count":1224,"type":"SCALAR"},{"bufferView":57,"componentType":5126,"count":288,"max":[17.3799991607666,8.100000381469727,64.73999786376953],"min":[10.619999885559082,4.989999771118164,40.400001525878906],"type":"VEC3"},{"bufferView":58,"componentType":5126,"count":288,"type":"VEC3"},{"bufferView":59,"componentType":5126,"count":288,"type":"VEC2"},{"bufferView":60,"componentType":5126,"count":24,"max":[14.149999618530273,0.019999999552965164,51.75],"min":[13.850000381469727,-0.03799999877810478,51.45000076293945],"type":"VEC3"},{"bufferView":61,"componentType":5126,"count":24,"type":"VEC3"},{"bufferView":62,"componentType":5126,"count":24,"type":"VEC2"},{"bufferView":63,"componentType":5126,"count":24,"max":[17,0.009999999776482582,64.5999984741211],"min":[11,-0.05000000074505806,28.31599998474121],"type":"VEC3"},{"bufferView":64,"componentType":5126,"count":24,"type":"VEC3"},{"bufferView":65,"componentType":5126,"count":24,"type":"VEC2"},{"bufferView":66,"componentType":5126,"count":96,"max":[17,0.01600000075995922,64.5999984741211],"min":[11,-0.04399999976158142,38.29999923706055],"type":"VEC3"},{"bufferView":67,"componentType":5126,"count":96,"type":"VEC3"},{"bufferView":68,"componentType":5126,"count":96,"type":"VEC2"},{"bufferView":69,"componentType":5126,"count":168,"max":[16.799999237060547,4.199999809265137,38.400001525878906],"min":[11.199999809265137,4.039999961853027,28.516000747680664],"type":"VEC3"},{"bufferView":70,"componentType":5126,"count":168,"type":"VEC3"},{"bufferView":71,"componentType":5126,"count":168,"type":"VEC2"},{"bufferView":72,"componentType":5123,"count":252,"type":"SCALAR"},{"bufferView":73,"componentType":5126,"count":288,"max":[27.43000030517578,2.809999942779541,64.5999984741211],"min":[0.5699999928474426,0.009999999776482582,41.290000915527344],"type":"VEC3"},{"bufferView":74,"componentType":5126,"count":288,"type":"VEC3"},{"bufferView":75,"componentType":5126,"count":288,"type":"VEC2"},{"bufferView":76,"componentType":5126,"count":24,"max":[11.199999809265137,0.550000011920929,62.45000076293945],"min":[11,0,59.540000915527344],"type":"VEC3"},{"bufferView":77,"componentType":5126,"count":24,"type":"VEC3"},{"bufferView":78,"componentType":5126,"count":24,"type":"VEC2"},{"bufferView":79,"componentType":5126,"count":24,"max":[11.199999809265137,0.550000011920929,57.849998474121094],"min":[11,0,54.13999938964844],"type":"VEC3"},{"bufferView":80,"componentType":5126,"count":24,"type":"VEC3"},{"bufferView":81,"componentType":5126,"count":24,"type":"VEC2"},{"bufferView":82,"componentType":5126,"count":24,"max":[11.199999809265137,0.550000011920929,52.45000076293945],"min":[11,0,50.540000915527344],"type":"VEC3"},{"bufferView":83,"componentType":5126,"count":24,"type":"VEC3"},{"bufferView":84,"componentType":5126,"count":24,"type":"VEC2"},{"bufferView":85,"componentType":5126,"count":24,"max":[17,0.550000011920929,42.79999923706055],"min":[16.799999237060547,0,39.34000015258789],"type":"VEC3"},{"bufferView":86,"componentType":5126,"count":24,"type":"VEC3"},{"bufferView":87,"componentType":5126,"count":24,"type":"VEC2"},{"bufferView":88,"componentType":5126,"count":24,"max":[11.199999809265137,0.550000011920929,43.25],"min":[11,0,39.34000015258789],"type":"VEC3"},{"bufferView":89,"componentType":5126,"count":24,"type":"VEC3"},{"bufferView":90,"componentType":5126,"count":24,"type":"VEC2"},{"bufferView":91,"componentType":5126,"count":24,"max":[17,0.550000011920929,49.400001525878906],"min":[16.799999237060547,0,48.84000015258789],"type":"VEC3"},{"bufferView":92,"componentType":5126,"count":24,"type":"VEC3"},{"bufferView":93,"componentType":5126,"count":24,"type":"VEC2"},{"bufferView":94,"componentType":5126,"count":24,"max":[17,0.550000011920929,48.560001373291016],"min":[16.799999237060547,0,45.95000076293945],"type":"VEC3"},{"bufferView":95,"componentType":5126,"count":24,"type":"VEC3"},{"bufferView":96,"componentType":5126,"count":24,"type":"VEC2"},{"bufferView":97,"componentType":5126,"count":24,"max":[17,0.550000011920929,55.459999084472656],"min":[16.799999237060547,0,52.54999923706055],"type":"VEC3"},{"bufferView":98,"componentType":5126,"count":24,"type":"VEC3"},{"bufferView":99,"componentType":5126,"count":24,"type":"VEC2"},{"bufferView":100,"componentType":5126,"count":24,"max":[17,0.550000011920929,62.400001525878906],"min":[16.799999237060547,0,58.939998626708984],"type":"VEC3"},{"bufferView":101,"componentType":5126,"count":24,"type":"VEC3"},{"bufferView":102,"componentType":5126,"count":24,"type":"VEC2"},{"bufferView":103,"componentType":5126,"count":24,"max":[17,0.550000011920929,58.65999984741211],"min":[16.799999237060547,0,57.150001525878906],"type":"VEC3"},{"bufferView":104,"componentType":5126,"count":24,"type":"VEC3"},{"bufferView":105,"componentType":5126,"count":24,"type":"VEC2"},{"bufferView":106,"componentType":5126,"count":24,"max":[11.199999809265137,0.550000011920929,48.849998474121094],"min":[11,0,44.939998626708984],"type":"VEC3"},{"bufferView":107,"componentType":5126,"count":24,"type":"VEC3"},{"bufferView":108,"componentType":5126,"count":24,"type":"VEC2"},{"bufferView":109,"componentType":5126,"count":43200,"type":"VEC3","min":[11.078742831328775,8.173902714755984,39.244331421687676],"max":[16.921257168671225,9.755966080187875,64.06974116687401]},{"bufferView":110,"componentType":5126,"count":43200,"type":"VEC3"},{"bufferView":111,"componentType":5126,"count":43200,"type":"VEC2"},{"bufferView":112,"componentType":5126,"count":22824,"type":"VEC3","min":[11.031,6.912,38.8455],"max":[16.968999999999998,9.886466080187875,64.3545]},{"bufferView":113,"componentType":5126,"count":22824,"type":"VEC3"},{"bufferView":114,"componentType":5126,"count":22824,"type":"VEC2"},{"bufferView":115,"componentType":5126,"count":1008,"type":"VEC3","min":[11.08,6.92,38.839999999999996],"max":[16.92,9.25,64.36]},{"bufferView":116,"componentType":5126,"count":1008,"type":"VEC3"},{"bufferView":117,"componentType":5126,"count":1008,"type":"VEC2"}],"bufferViews":[{"buffer":0,"byteLength":72,"byteOffset":0,"target":34963},{"buffer":0,"byteLength":216,"byteOffset":72,"target":34963},{"buffer":0,"byteLength":864,"byteOffset":288,"target":34963},{"buffer":0,"byteLength":648,"byteOffset":1152,"target":34963},{"buffer":0,"byteLength":288,"byteOffset":1800,"target":34963},{"buffer":0,"byteLength":288,"byteOffset":2088,"target":34962,"byteStride":12},{"buffer":0,"byteLength":288,"byteOffset":2376,"target":34962,"byteStride":12},{"buffer":0,"byteLength":192,"byteOffset":2664,"target":34962,"byteStride":8},{"buffer":0,"byteLength":1320,"byteOffset":2856,"target":34962,"byteStride":12},{"buffer":0,"byteLength":1320,"byteOffset":4176,"target":34962,"byteStride":12},{"buffer":0,"byteLength":880,"byteOffset":5496,"target":34962,"byteStride":8},{"buffer":0,"byteLength":384,"byteOffset":6376,"target":34963},{"buffer":0,"byteLength":4032,"byteOffset":6760,"target":34962,"byteStride":12},{"buffer":0,"byteLength":4032,"byteOffset":10792,"target":34962,"byteStride":12},{"buffer":0,"byteLength":2688,"byteOffset":14824,"target":34962,"byteStride":8},{"buffer":0,"byteLength":1008,"byteOffset":17512,"target":34963},{"buffer":0,"byteLength":13320,"byteOffset":18520,"target":34962,"byteStride":12},{"buffer":0,"byteLength":13320,"byteOffset":31840,"target":34962,"byteStride":12},{"buffer":0,"byteLength":8880,"byteOffset":45160,"target":34962,"byteStride":8},{"buffer":0,"byteLength":3840,"byteOffset":54040,"target":34963},{"buffer":0,"byteLength":2592,"byteOffset":57880,"target":34962,"byteStride":12},{"buffer":0,"byteLength":2592,"byteOffset":60472,"target":34962,"byteStride":12},{"buffer":0,"byteLength":1728,"byteOffset":63064,"target":34962,"byteStride":8},{"buffer":0,"byteLength":10080,"byteOffset":64792,"target":34962,"byteStride":12},{"buffer":0,"byteLength":10080,"byteOffset":74872,"target":34962,"byteStride":12},{"buffer":0,"byteLength":6720,"byteOffset":84952,"target":34962,"byteStride":8},{"buffer":0,"byteLength":2520,"byteOffset":91672,"target":34963},{"buffer":0,"byteLength":3168,"byteOffset":94192,"target":34962,"byteStride":12},{"buffer":0,"byteLength":3168,"byteOffset":97360,"target":34962,"byteStride":12},{"buffer":0,"byteLength":2112,"byteOffset":100528,"target":34962,"byteStride":8},{"buffer":0,"byteLength":792,"byteOffset":102640,"target":34963},{"buffer":0,"byteLength":15552,"byteOffset":103432,"target":34962,"byteStride":12},{"buffer":0,"byteLength":15552,"byteOffset":118984,"target":34962,"byteStride":12},{"buffer":0,"byteLength":10368,"byteOffset":134536,"target":34962,"byteStride":8},{"buffer":0,"byteLength":3888,"byteOffset":144904,"target":34963},{"buffer":0,"byteLength":10656,"byteOffset":148792,"target":34962,"byteStride":12},{"buffer":0,"byteLength":10656,"byteOffset":159448,"target":34962,"byteStride":12},{"buffer":0,"byteLength":7104,"byteOffset":170104,"target":34962,"byteStride":8},{"buffer":0,"byteLength":2664,"byteOffset":177208,"target":34963},{"buffer":0,"byteLength":147960,"byteOffset":179872,"target":34962,"byteStride":12},{"buffer":0,"byteLength":147960,"byteOffset":327832,"target":34962,"byteStride":12},{"buffer":0,"byteLength":98640,"byteOffset":475792,"target":34962,"byteStride":8},{"buffer":0,"byteLength":38400,"byteOffset":574432,"target":34963},{"buffer":0,"byteLength":864,"byteOffset":612832,"target":34962,"byteStride":12},{"buffer":0,"byteLength":864,"byteOffset":613696,"target":34962,"byteStride":12},{"buffer":0,"byteLength":576,"byteOffset":614560,"target":34962,"byteStride":8},{"buffer":0,"byteLength":288,"byteOffset":615136,"target":34962,"byteStride":12},{"buffer":0,"byteLength":288,"byteOffset":615424,"target":34962,"byteStride":12},{"buffer":0,"byteLength":192,"byteOffset":615712,"target":34962,"byteStride":8},{"buffer":0,"byteLength":20448,"byteOffset":615904,"target":34962,"byteStride":12},{"buffer":0,"byteLength":20448,"byteOffset":636352,"target":34962,"byteStride":12},{"buffer":0,"byteLength":13632,"byteOffset":656800,"target":34962,"byteStride":8},{"buffer":0,"byteLength":5112,"byteOffset":670432,"target":34963},{"buffer":0,"byteLength":9792,"byteOffset":675544,"target":34962,"byteStride":12},{"buffer":0,"byteLength":9792,"byteOffset":685336,"target":34962,"byteStride":12},{"buffer":0,"byteLength":6528,"byteOffset":695128,"target":34962,"byteStride":8},{"buffer":0,"byteLength":2448,"byteOffset":701656,"target":34963},{"buffer":0,"byteLength":3456,"byteOffset":704104,"target":34962,"byteStride":12},{"buffer":0,"byteLength":3456,"byteOffset":707560,"target":34962,"byteStride":12},{"buffer":0,"byteLength":2304,"byteOffset":711016,"target":34962,"byteStride":8},{"buffer":0,"byteLength":288,"byteOffset":713320,"target":34962,"byteStride":12},{"buffer":0,"byteLength":288,"byteOffset":713608,"target":34962,"byteStride":12},{"buffer":0,"byteLength":192,"byteOffset":713896,"target":34962,"byteStride":8},{"buffer":0,"byteLength":288,"byteOffset":714088,"target":34962,"byteStride":12},{"buffer":0,"byteLength":288,"byteOffset":714376,"target":34962,"byteStride":12},{"buffer":0,"byteLength":192,"byteOffset":714664,"target":34962,"byteStride":8},{"buffer":0,"byteLength":1152,"byteOffset":714856,"target":34962,"byteStride":12},{"buffer":0,"byteLength":1152,"byteOffset":716008,"target":34962,"byteStride":12},{"buffer":0,"byteLength":768,"byteOffset":717160,"target":34962,"byteStride":8},{"buffer":0,"byteLength":2016,"byteOffset":717928,"target":34962,"byteStride":12},{"buffer":0,"byteLength":2016,"byteOffset":719944,"target":34962,"byteStride":12},{"buffer":0,"byteLength":1344,"byteOffset":721960,"target":34962,"byteStride":8},{"buffer":0,"byteLength":504,"byteOffset":723304,"target":34963},{"buffer":0,"byteLength":3456,"byteOffset":723808,"target":34962,"byteStride":12},{"buffer":0,"byteLength":3456,"byteOffset":727264,"target":34962,"byteStride":12},{"buffer":0,"byteLength":2304,"byteOffset":730720,"target":34962,"byteStride":8},{"buffer":0,"byteLength":288,"byteOffset":733024,"target":34962,"byteStride":12},{"buffer":0,"byteLength":288,"byteOffset":733312,"target":34962,"byteStride":12},{"buffer":0,"byteLength":192,"byteOffset":733600,"target":34962,"byteStride":8},{"buffer":0,"byteLength":288,"byteOffset":733792,"target":34962,"byteStride":12},{"buffer":0,"byteLength":288,"byteOffset":734080,"target":34962,"byteStride":12},{"buffer":0,"byteLength":192,"byteOffset":734368,"target":34962,"byteStride":8},{"buffer":0,"byteLength":288,"byteOffset":734560,"target":34962,"byteStride":12},{"buffer":0,"byteLength":288,"byteOffset":734848,"target":34962,"byteStride":12},{"buffer":0,"byteLength":192,"byteOffset":735136,"target":34962,"byteStride":8},{"buffer":0,"byteLength":288,"byteOffset":735328,"target":34962,"byteStride":12},{"buffer":0,"byteLength":288,"byteOffset":735616,"target":34962,"byteStride":12},{"buffer":0,"byteLength":192,"byteOffset":735904,"target":34962,"byteStride":8},{"buffer":0,"byteLength":288,"byteOffset":736096,"target":34962,"byteStride":12},{"buffer":0,"byteLength":288,"byteOffset":736384,"target":34962,"byteStride":12},{"buffer":0,"byteLength":192,"byteOffset":736672,"target":34962,"byteStride":8},{"buffer":0,"byteLength":288,"byteOffset":736864,"target":34962,"byteStride":12},{"buffer":0,"byteLength":288,"byteOffset":737152,"target":34962,"byteStride":12},{"buffer":0,"byteLength":192,"byteOffset":737440,"target":34962,"byteStride":8},{"buffer":0,"byteLength":288,"byteOffset":737632,"target":34962,"byteStride":12},{"buffer":0,"byteLength":288,"byteOffset":737920,"target":34962,"byteStride":12},{"buffer":0,"byteLength":192,"byteOffset":738208,"target":34962,"byteStride":8},{"buffer":0,"byteLength":288,"byteOffset":738400,"target":34962,"byteStride":12},{"buffer":0,"byteLength":288,"byteOffset":738688,"target":34962,"byteStride":12},{"buffer":0,"byteLength":192,"byteOffset":738976,"target":34962,"byteStride":8},{"buffer":0,"byteLength":288,"byteOffset":739168,"target":34962,"byteStride":12},{"buffer":0,"byteLength":288,"byteOffset":739456,"target":34962,"byteStride":12},{"buffer":0,"byteLength":192,"byteOffset":739744,"target":34962,"byteStride":8},{"buffer":0,"byteLength":288,"byteOffset":739936,"target":34962,"byteStride":12},{"buffer":0,"byteLength":288,"byteOffset":740224,"target":34962,"byteStride":12},{"buffer":0,"byteLength":192,"byteOffset":740512,"target":34962,"byteStride":8},{"buffer":0,"byteLength":288,"byteOffset":740704,"target":34962,"byteStride":12},{"buffer":0,"byteLength":288,"byteOffset":740992,"target":34962,"byteStride":12},{"buffer":0,"byteLength":192,"byteOffset":741280,"target":34962,"byteStride":8},{"buffer":1,"byteOffset":0,"byteLength":518400,"target":34962},{"buffer":1,"byteOffset":518400,"byteLength":518400,"target":34962},{"buffer":1,"byteOffset":1036800,"byteLength":345600,"target":34962},{"buffer":1,"byteOffset":1382400,"byteLength":273888,"target":34962},{"buffer":1,"byteOffset":1656288,"byteLength":273888,"target":34962},{"buffer":1,"byteOffset":1930176,"byteLength":182592,"target":34962},{"buffer":1,"byteOffset":2112768,"byteLength":12096,"target":34962},{"buffer":1,"byteOffset":2124864,"byteLength":12096,"target":34962},{"buffer":1,"byteOffset":2136960,"byteLength":8064,"target":34962}],"buffers":[{"byteLength":741472,"uri":"../../floor_01_cells/passage.bin"},{"uri":"ceiling_detail.bin","byteLength":2145024}],"materials":[{"name":"M_metal_b","normalTexture":{"index":0,"scale":0.3499999940395355},"pbrMetallicRoughness":{"baseColorTexture":{"index":1},"metallicFactor":0.8999999761581421,"metallicRoughnessTexture":{"index":2}}},{"name":"M_cast_iron_b","normalTexture":{"index":3,"scale":0.3499999940395355},"pbrMetallicRoughness":{"baseColorTexture":{"index":4},"metallicFactor":0.3499999940395355,"metallicRoughnessTexture":{"index":5}}},{"alphaMode":"BLEND","doubleSided":true,"name":"M_glassish","normalTexture":{"index":6,"scale":0.550000011920929},"pbrMetallicRoughness":{"baseColorFactor":[0.7599999904632568,0.8500000238418579,0.8899999856948853,0.1599999964237213],"metallicFactor":0,"metallicRoughnessTexture":{"index":7}}},{"name":"M_soot_b","normalTexture":{"index":8,"scale":0.3499999940395355},"pbrMetallicRoughness":{"baseColorTexture":{"index":9},"metallicFactor":0,"metallicRoughnessTexture":{"index":10}}},{"name":"M_limestone_b","normalTexture":{"index":11,"scale":0.3499999940395355},"pbrMetallicRoughness":{"baseColorTexture":{"index":12},"metallicFactor":0,"metallicRoughnessTexture":{"index":13}}},{"name":"M_trim_b","normalTexture":{"index":14,"scale":0.3499999940395355},"pbrMetallicRoughness":{"baseColorTexture":{"index":15},"metallicFactor":0,"metallicRoughnessTexture":{"index":16}}},{"name":"M_common_brick_b","normalTexture":{"index":17,"scale":0.3499999940395355},"pbrMetallicRoughness":{"baseColorTexture":{"index":18},"metallicFactor":0,"metallicRoughnessTexture":{"index":19}}},{"name":"M_plaster_b","normalTexture":{"index":20,"scale":0.3499999940395355},"pbrMetallicRoughness":{"baseColorTexture":{"index":21},"metallicFactor":0,"metallicRoughnessTexture":{"index":22}}},{"name":"M_plaster_stained_b","normalTexture":{"index":23,"scale":0.3499999940395355},"pbrMetallicRoughness":{"baseColorTexture":{"index":24},"metallicFactor":0,"metallicRoughnessTexture":{"index":25}}},{"name":"M_concrete_b","normalTexture":{"index":26,"scale":0.3499999940395355},"pbrMetallicRoughness":{"baseColorTexture":{"index":27},"metallicFactor":0,"metallicRoughnessTexture":{"index":28}}},{"name":"M_terrazzo_b","normalTexture":{"index":29,"scale":0.3499999940395355},"pbrMetallicRoughness":{"baseColorTexture":{"index":30},"metallicFactor":0,"metallicRoughnessTexture":{"index":31}}},{"name":"M_bakelite_black","normalTexture":{"index":32,"scale":0.3499999940395355},"pbrMetallicRoughness":{"baseColorTexture":{"index":33},"metallicFactor":0,"metallicRoughnessTexture":{"index":34}}},{"name":"M_brass_dull","normalTexture":{"index":35,"scale":0.3499999940395355},"pbrMetallicRoughness":{"baseColorTexture":{"index":36},"metallicFactor":0.30000001192092896,"metallicRoughnessTexture":{"index":37}}},{"name":"M_chrome_b","normalTexture":{"index":38,"scale":0.3499999940395355},"pbrMetallicRoughness":{"baseColorTexture":{"index":39},"metallicRoughnessTexture":{"index":40}}},{"name":"M_paper_b","normalTexture":{"index":41,"scale":0.3499999940395355},"pbrMetallicRoughness":{"baseColorTexture":{"index":42},"metallicFactor":0,"metallicRoughnessTexture":{"index":43}}},{"name":"M_wood_dark_b","normalTexture":{"index":44,"scale":0.3499999940395355},"pbrMetallicRoughness":{"baseColorTexture":{"index":45},"metallicFactor":0,"metallicRoughnessTexture":{"index":46}}},{"name":"M_milk_glass","normalTexture":{"index":47,"scale":0.3499999940395355},"pbrMetallicRoughness":{"baseColorTexture":{"index":48},"metallicFactor":0,"metallicRoughnessTexture":{"index":49}}},{"name":"M_terrazzo_dark","normalTexture":{"index":50,"scale":0.3499999940395355},"pbrMetallicRoughness":{"baseColorTexture":{"index":51},"metallicFactor":0,"metallicRoughnessTexture":{"index":52}}},{"name":"M_v2_arcade_teal","normalTexture":{"index":53,"scale":0.55},"pbrMetallicRoughness":{"baseColorFactor":[0.1,0.56,0.46,1],"baseColorTexture":{"index":54},"roughnessFactor":0.72,"metallicFactor":0.0,"metallicRoughnessTexture":{"index":55}}},{"name":"M_v2_arcade_brass","normalTexture":{"index":56,"scale":0.55},"pbrMetallicRoughness":{"baseColorFactor":[0.88,0.67,0.3,1],"baseColorTexture":{"index":57},"roughnessFactor":0.52,"metallicFactor":0.3,"metallicRoughnessTexture":{"index":58}}},{"name":"M_v2_arcade_ochre","normalTexture":{"index":59,"scale":0.55},"pbrMetallicRoughness":{"baseColorFactor":[0.64,0.4,0.16,1],"baseColorTexture":{"index":60},"roughnessFactor":0.72,"metallicFactor":0.0,"metallicRoughnessTexture":{"index":61}}}],"textures":[{"sampler":0,"source":0},{"sampler":0,"source":1},{"sampler":0,"source":2},{"sampler":0,"source":3},{"sampler":0,"source":4},{"sampler":0,"source":5},{"sampler":0,"source":6},{"sampler":0,"source":7},{"sampler":0,"source":8},{"sampler":0,"source":9},{"sampler":0,"source":10},{"sampler":0,"source":11},{"sampler":0,"source":12},{"sampler":0,"source":13},{"sampler":0,"source":14},{"sampler":0,"source":15},{"sampler":0,"source":16},{"sampler":0,"source":17},{"sampler":0,"source":18},{"sampler":0,"source":19},{"sampler":0,"source":20},{"sampler":0,"source":21},{"sampler":0,"source":22},{"sampler":0,"source":23},{"sampler":0,"source":24},{"sampler":0,"source":25},{"sampler":0,"source":26},{"sampler":0,"source":27},{"sampler":0,"source":28},{"sampler":0,"source":29},{"sampler":0,"source":30},{"sampler":0,"source":31},{"sampler":0,"source":32},{"sampler":0,"source":33},{"sampler":0,"source":34},{"sampler":0,"source":35},{"sampler":0,"source":36},{"sampler":0,"source":37},{"sampler":0,"source":38},{"sampler":0,"source":39},{"sampler":0,"source":40},{"sampler":0,"source":41},{"sampler":0,"source":42},{"sampler":0,"source":43},{"sampler":0,"source":44},{"sampler":0,"source":45},{"sampler":0,"source":46},{"sampler":0,"source":47},{"sampler":0,"source":48},{"sampler":0,"source":49},{"sampler":0,"source":50},{"sampler":0,"source":51},{"sampler":0,"source":52},{"source":53},{"source":54},{"source":55},{"source":56},{"source":57},{"source":58},{"source":59},{"source":60},{"source":61}],"images":[{"mimeType":"image/png","name":"T_ai_materials_metal_b_normal","uri":"../../textures/T_ai_materials_metal_b_normal.png"},{"mimeType":"image/png","name":"T_ai_materials_metal_b_albedo","uri":"../../textures/T_ai_materials_metal_b_albedo.png"},{"mimeType":"image/png","name":"T_ai_materials_metal_b_rough","uri":"../../textures/T_ai_materials_metal_b_rough.png"},{"mimeType":"image/png","name":"T_ai_materials_cast_iron_b_normal","uri":"../../textures/T_ai_materials_cast_iron_b_normal.png"},{"mimeType":"image/png","name":"T_ai_materials_cast_iron_b_albedo","uri":"../../textures/T_ai_materials_cast_iron_b_albedo.png"},{"mimeType":"image/png","name":"T_ai_materials_cast_iron_b_rough","uri":"../../textures/T_ai_materials_cast_iron_b_rough.png"},{"mimeType":"image/png","name":"T_glass_normal","uri":"../../textures/T_glass_normal.png"},{"mimeType":"image/png","name":"T_glass_rough","uri":"../../textures/T_glass_rough.png"},{"mimeType":"image/png","name":"T_ai_materials_soot_b_normal","uri":"../../textures/T_ai_materials_soot_b_normal.png"},{"mimeType":"image/png","name":"T_ai_materials_soot_b_albedo","uri":"../../textures/T_ai_materials_soot_b_albedo.png"},{"mimeType":"image/png","name":"T_ai_materials_soot_b_rough","uri":"../../textures/T_ai_materials_soot_b_rough.png"},{"mimeType":"image/png","name":"T_ai_materials_limestone_b_normal","uri":"../../textures/T_ai_materials_limestone_b_normal.png"},{"mimeType":"image/png","name":"T_ai_materials_limestone_b_albedo","uri":"../../textures/T_ai_materials_limestone_b_albedo.png"},{"mimeType":"image/png","name":"T_ai_materials_limestone_b_rough","uri":"../../textures/T_ai_materials_limestone_b_rough.png"},{"mimeType":"image/png","name":"T_ai_materials_trim_b_normal","uri":"../../textures/T_ai_materials_trim_b_normal.png"},{"mimeType":"image/png","name":"T_ai_materials_trim_b_albedo","uri":"../../textures/T_ai_materials_trim_b_albedo.png"},{"mimeType":"image/png","name":"T_ai_materials_trim_b_rough","uri":"../../textures/T_ai_materials_trim_b_rough.png"},{"mimeType":"image/png","name":"T_ai_materials_common_brick_b_normal","uri":"../../textures/T_ai_materials_common_brick_b_normal.png"},{"mimeType":"image/png","name":"T_ai_materials_common_brick_b_albedo","uri":"../../textures/T_ai_materials_common_brick_b_albedo.png"},{"mimeType":"image/png","name":"T_ai_materials_common_brick_b_rough","uri":"../../textures/T_ai_materials_common_brick_b_rough.png"},{"mimeType":"image/png","name":"T_ai_materials_plaster_b_normal","uri":"../../textures/T_ai_materials_plaster_b_normal.png"},{"mimeType":"image/png","name":"T_ai_materials_plaster_b_albedo","uri":"../../textures/T_ai_materials_plaster_b_albedo.png"},{"mimeType":"image/png","name":"T_ai_materials_plaster_b_rough","uri":"../../textures/T_ai_materials_plaster_b_rough.png"},{"mimeType":"image/png","name":"T_ai_materials_plaster_stained_b_normal","uri":"../../textures/T_ai_materials_plaster_stained_b_normal.png"},{"mimeType":"image/png","name":"T_ai_materials_plaster_stained_b_albedo","uri":"../../textures/T_ai_materials_plaster_stained_b_albedo.png"},{"mimeType":"image/png","name":"T_ai_materials_plaster_stained_b_rough","uri":"../../textures/T_ai_materials_plaster_stained_b_rough.png"},{"mimeType":"image/png","name":"T_ai_materials_concrete_b_normal","uri":"../../textures/T_ai_materials_concrete_b_normal.png"},{"mimeType":"image/png","name":"T_ai_materials_concrete_b_albedo","uri":"../../textures/T_ai_materials_concrete_b_albedo.png"},{"mimeType":"image/png","name":"T_ai_materials_concrete_b_rough","uri":"../../textures/T_ai_materials_concrete_b_rough.png"},{"mimeType":"image/png","name":"T_ai_materials_terrazzo_b_normal","uri":"../../textures/T_ai_materials_terrazzo_b_normal.png"},{"mimeType":"image/png","name":"T_ai_materials_terrazzo_b_albedo","uri":"../../textures/T_ai_materials_terrazzo_b_albedo.png"},{"mimeType":"image/png","name":"T_ai_materials_terrazzo_b_rough","uri":"../../textures/T_ai_materials_terrazzo_b_rough.png"},{"mimeType":"image/png","name":"T_ai_materials_bakelite_black_normal","uri":"../../textures/T_ai_materials_bakelite_black_normal.png"},{"mimeType":"image/png","name":"T_ai_materials_bakelite_black_albedo","uri":"../../textures/T_ai_materials_bakelite_black_albedo.png"},{"mimeType":"image/png","name":"T_ai_materials_bakelite_black_rough","uri":"../../textures/T_ai_materials_bakelite_black_rough.png"},{"mimeType":"image/png","name":"T_ai_materials_brass_normal","uri":"../../textures/T_ai_materials_brass_normal.png"},{"mimeType":"image/png","name":"T_ai_materials_brass_albedo","uri":"../../textures/T_ai_materials_brass_albedo.png"},{"mimeType":"image/png","name":"T_ai_materials_brass_rough","uri":"../../textures/T_ai_materials_brass_rough.png"},{"mimeType":"image/png","name":"T_ai_materials_chrome_b_normal","uri":"../../textures/T_ai_materials_chrome_b_normal.png"},{"mimeType":"image/png","name":"T_ai_materials_chrome_b_albedo","uri":"../../textures/T_ai_materials_chrome_b_albedo.png"},{"mimeType":"image/png","name":"T_ai_materials_chrome_b_rough","uri":"../../textures/T_ai_materials_chrome_b_rough.png"},{"mimeType":"image/png","name":"T_ai_materials_paper_b_normal","uri":"../../textures/T_ai_materials_paper_b_normal.png"},{"mimeType":"image/png","name":"T_ai_materials_paper_b_albedo","uri":"../../textures/T_ai_materials_paper_b_albedo.png"},{"mimeType":"image/png","name":"T_ai_materials_paper_b_rough","uri":"../../textures/T_ai_materials_paper_b_rough.png"},{"mimeType":"image/png","name":"T_ai_materials_wood_dark_b_normal","uri":"../../textures/T_ai_materials_wood_dark_b_normal.png"},{"mimeType":"image/png","name":"T_ai_materials_wood_dark_b_albedo","uri":"../../textures/T_ai_materials_wood_dark_b_albedo.png"},{"mimeType":"image/png","name":"T_ai_materials_wood_dark_b_rough","uri":"../../textures/T_ai_materials_wood_dark_b_rough.png"},{"mimeType":"image/png","name":"T_ai_materials_milk_glass_normal","uri":"../../textures/T_ai_materials_milk_glass_normal.png"},{"mimeType":"image/png","name":"T_ai_materials_milk_glass_albedo","uri":"../../textures/T_ai_materials_milk_glass_albedo.png"},{"mimeType":"image/png","name":"T_ai_materials_milk_glass_rough","uri":"../../textures/T_ai_materials_milk_glass_rough.png"},{"mimeType":"image/png","name":"T_ai_materials_terrazzo_dark_normal","uri":"../../textures/T_ai_materials_terrazzo_dark_normal.png"},{"mimeType":"image/png","name":"T_ai_materials_terrazzo_dark_albedo","uri":"../../textures/T_ai_materials_terrazzo_dark_albedo.png"},{"mimeType":"image/png","name":"T_ai_materials_terrazzo_dark_rough","uri":"../../textures/T_ai_materials_terrazzo_dark_rough.png"},{"uri":"../../textures/T_ai_materials_enamel_appliance_normal.png"},{"uri":"../../textures/T_ai_materials_enamel_appliance_albedo.png"},{"uri":"../../textures/T_ai_materials_enamel_appliance_rough.png"},{"uri":"../../textures/T_ai_materials_brass_dull_normal.png"},{"uri":"../../textures/T_ai_materials_brass_dull_albedo.png"},{"uri":"../../textures/T_ai_materials_brass_dull_rough.png"},{"uri":"../../textures/T_ai_materials_plaster_stained_normal.png"},{"uri":"../../textures/T_ai_materials_plaster_stained_albedo.png"},{"uri":"../../textures/T_ai_materials_plaster_stained_rough.png"}],"samplers":[{"magFilter":9729,"minFilter":9987}]}
