{
	"asset":{
		"generator":"Khronos glTF Blender I/O v5.2.39",
		"version":"2.0"
	},
	"scene":0,
	"scenes":[
		{
			"name":"Scene",
			"nodes":[
				0
			]
		}
	],
	"nodes":[
		{
			"mesh":0,
			"name":"lobby_placeholder"
		}
	],
	"materials":[
		{
			"doubleSided":true,
			"emissiveFactor":[
				1,
				1,
				1
			],
			"emissiveTexture":{
				"index":0
			},
			"name":"material",
			"normalTexture":{
				"index":1
			},
			"pbrMetallicRoughness":{
				"baseColorTexture":{
					"index":2
				},
				"metallicRoughnessTexture":{
					"index":3
				}
			}
		}
	],
	"meshes":[
		{
			"name":"lobby_placeholder",
			"primitives":[
				{
					"attributes":{
						"POSITION":0,
						"NORMAL":1,
						"TEXCOORD_0":2
					},
					"indices":3,
					"material":0
				}
			]
		}
	],
	"textures":[
		{
			"sampler":0,
			"source":0
		},
		{
			"sampler":0,
			"source":1
		},
		{
			"sampler":0,
			"source":2
		},
		{
			"sampler":0,
			"source":3
		}
	],
	"images":[
		{
			"mimeType":"image/jpeg",
			"name":"emissive",
			"uri":"emissive.jpg"
		},
		{
			"mimeType":"image/jpeg",
			"name":"normal",
			"uri":"normal.jpg"
		},
		{
			"mimeType":"image/jpeg",
			"name":"base_color",
			"uri":"base_color.jpg"
		},
		{
			"mimeType":"image/jpeg",
			"name":"metallic_roughness",
			"uri":"metallic_roughness.jpg"
		}
	],
	"accessors":[
		{
			"bufferView":0,
			"componentType":5126,
			"count":24915,
			"max":[
				0.8060663938522339,
				0.9482314586639404,
				0.1607031673192978
			],
			"min":[
				-0.8082969188690186,
				-0.9506261348724365,
				-0.16324341297149658
			],
			"type":"VEC3"
		},
		{
			"bufferView":1,
			"componentType":5126,
			"count":24915,
			"type":"VEC3"
		},
		{
			"bufferView":2,
			"componentType":5126,
			"count":24915,
			"type":"VEC2"
		},
		{
			"bufferView":3,
			"componentType":5123,
			"count":130554,
			"type":"SCALAR"
		}
	],
	"bufferViews":[
		{
			"buffer":0,
			"byteLength":298980,
			"byteOffset":0,
			"target":34962
		},
		{
			"buffer":0,
			"byteLength":298980,
			"byteOffset":298980,
			"target":34962
		},
		{
			"buffer":0,
			"byteLength":199320,
			"byteOffset":597960,
			"target":34962
		},
		{
			"buffer":0,
			"byteLength":261108,
			"byteOffset":797280,
			"target":34963
		}
	],
	"samplers":[
		{
			"magFilter":9729,
			"minFilter":9987
		}
	],
	"buffers":[
		{
			"byteLength":1058388,
			"uri":"lobby_placeholder.bin"
		}
	]
}
