{
	"asset":{
		"generator":"Khronos glTF Blender I/O v5.2.39",
		"version":"2.0"
	},
	"extensionsUsed":[
		"KHR_materials_transmission",
		"KHR_materials_specular",
		"KHR_materials_ior"
	],
	"scene":0,
	"scenes":[
		{
			"name":"Scene",
			"nodes":[
				0,
				1,
				2,
				3,
				4,
				5,
				6,
				7,
				8,
				9,
				10,
				11,
				12,
				13,
				14,
				15,
				16,
				17,
				18,
				19,
				20,
				21,
				22,
				23,
				24,
				25,
				26,
				27,
				28,
				29,
				30,
				31,
				32,
				33,
				34,
				35,
				36,
				37,
				38,
				39,
				40,
				41,
				42,
				43,
				44,
				45,
				46,
				47,
				48,
				49,
				50,
				51,
				52,
				53,
				54,
				55,
				56,
				57,
				58
			]
		}
	],
	"nodes":[
		{
			"mesh":0,
			"name":"B1_floors_terrazzo"
		},
		{
			"mesh":1,
			"name":"B1_furnish_bakelite"
		},
		{
			"mesh":2,
			"name":"B1_furnish_book_brown"
		},
		{
			"mesh":3,
			"name":"B1_furnish_book_burgundy"
		},
		{
			"mesh":4,
			"name":"B1_furnish_book_green"
		},
		{
			"mesh":5,
			"name":"B1_furnish_book_navy"
		},
		{
			"mesh":6,
			"name":"B1_furnish_book_ochre"
		},
		{
			"mesh":7,
			"name":"B1_furnish_book_teal"
		},
		{
			"mesh":8,
			"name":"B1_furnish_brass"
		},
		{
			"mesh":9,
			"name":"B1_furnish_ceramic"
		},
		{
			"mesh":10,
			"name":"B1_furnish_chrome"
		},
		{
			"mesh":11,
			"name":"B1_furnish_floor_oak"
		},
		{
			"mesh":12,
			"name":"B1_furnish_fx_shadow"
		},
		{
			"mesh":13,
			"name":"B1_furnish_glassish"
		},
		{
			"mesh":14,
			"name":"B1_furnish_metal"
		},
		{
			"mesh":15,
			"name":"B1_furnish_plant"
		},
		{
			"mesh":16,
			"name":"B1_furnish_soil"
		},
		{
			"mesh":17,
			"name":"B1_furnish_terracotta"
		},
		{
			"mesh":18,
			"name":"B1_furnish_timber"
		},
		{
			"mesh":19,
			"name":"B1_furnish_trim"
		},
		{
			"mesh":20,
			"name":"B1_furnish_wood_dark"
		},
		{
			"mesh":21,
			"name":"B1_furniture_art-col"
		},
		{
			"mesh":22,
			"name":"B1_furniture_brass-col"
		},
		{
			"mesh":23,
			"name":"B1_furniture_ceramic-col"
		},
		{
			"mesh":24,
			"name":"B1_furniture_common_brick-col"
		},
		{
			"mesh":25,
			"name":"B1_furniture_concrete-col"
		},
		{
			"mesh":26,
			"name":"B1_furniture_fabric_cool-col"
		},
		{
			"mesh":27,
			"name":"B1_furniture_fabric_green-col"
		},
		{
			"mesh":28,
			"name":"B1_furniture_fabric_warm-col"
		},
		{
			"mesh":29,
			"name":"B1_furniture_floor_oak-col"
		},
		{
			"mesh":30,
			"name":"B1_furniture_hull-colonly"
		},
		{
			"mesh":31,
			"name":"B1_furniture_linen-col"
		},
		{
			"mesh":32,
			"name":"B1_furniture_metal-col"
		},
		{
			"mesh":33,
			"name":"B1_furniture_paper-col"
		},
		{
			"mesh":34,
			"name":"B1_furniture_rug_warm-col"
		},
		{
			"mesh":35,
			"name":"B1_furniture_safety_orange-col"
		},
		{
			"mesh":36,
			"name":"B1_furniture_slab-col"
		},
		{
			"mesh":37,
			"name":"B1_furniture_timber-col"
		},
		{
			"mesh":38,
			"name":"B1_furniture_trim-col"
		},
		{
			"mesh":39,
			"name":"B1_furniture_wood_dark-col"
		},
		{
			"mesh":40,
			"name":"B1_fx_ao_decal"
		},
		{
			"mesh":41,
			"name":"B1_glazing-col"
		},
		{
			"mesh":42,
			"name":"B1_slabs-col"
		},
		{
			"mesh":43,
			"name":"B1_stairs"
		},
		{
			"mesh":44,
			"name":"B1_stairs_bal"
		},
		{
			"mesh":45,
			"name":"B1_stairs_guard-colonly"
		},
		{
			"mesh":46,
			"name":"B1_stairs_rail"
		},
		{
			"mesh":47,
			"name":"B1_stairs_ramp-colonly"
		},
		{
			"mesh":48,
			"name":"B1_stone_trim-col"
		},
		{
			"mesh":49,
			"name":"B1_trim"
		},
		{
			"mesh":50,
			"name":"B1_wainscot"
		},
		{
			"mesh":51,
			"name":"B1_walls-col"
		},
		{
			"mesh":52,
			"name":"B1_walls_cbrick-col"
		},
		{
			"mesh":53,
			"name":"B1_walls_conc-col"
		},
		{
			"mesh":54,
			"name":"B1_walls_fbrick-col"
		},
		{
			"mesh":55,
			"name":"B1_wear_ceiling_fx_drip"
		},
		{
			"mesh":56,
			"name":"B1_wear_ceiling_fx_grease"
		},
		{
			"mesh":57,
			"name":"B1_wear_fx_drip"
		},
		{
			"mesh":58,
			"name":"B1_wear_fx_scuff"
		}
	],
	"materials":[
		{
			"doubleSided":true,
			"name":"M_terrazzo",
			"normalTexture":{
				"index":0,
				"scale":0.3499999940395355
			},
			"pbrMetallicRoughness":{
				"baseColorTexture":{
					"index":1
				},
				"metallicFactor":0,
				"metallicRoughnessTexture":{
					"index":2
				}
			}
		},
		{
			"doubleSided":true,
			"name":"M_bakelite",
			"normalTexture":{
				"index":3,
				"scale":0.3499999940395355
			},
			"pbrMetallicRoughness":{
				"baseColorTexture":{
					"index":4
				},
				"metallicFactor":0,
				"metallicRoughnessTexture":{
					"index":5
				}
			}
		},
		{
			"doubleSided":true,
			"name":"M_book_brown",
			"normalTexture":{
				"index":6,
				"scale":0.3499999940395355
			},
			"pbrMetallicRoughness":{
				"baseColorTexture":{
					"index":7
				},
				"metallicFactor":0,
				"metallicRoughnessTexture":{
					"index":8
				}
			}
		},
		{
			"doubleSided":true,
			"name":"M_book_burgundy",
			"normalTexture":{
				"index":9,
				"scale":0.3499999940395355
			},
			"pbrMetallicRoughness":{
				"baseColorTexture":{
					"index":10
				},
				"metallicFactor":0,
				"metallicRoughnessTexture":{
					"index":11
				}
			}
		},
		{
			"doubleSided":true,
			"name":"M_book_green",
			"normalTexture":{
				"index":12,
				"scale":0.3499999940395355
			},
			"pbrMetallicRoughness":{
				"baseColorTexture":{
					"index":13
				},
				"metallicFactor":0,
				"metallicRoughnessTexture":{
					"index":14
				}
			}
		},
		{
			"doubleSided":true,
			"name":"M_book_navy",
			"normalTexture":{
				"index":15,
				"scale":0.3499999940395355
			},
			"pbrMetallicRoughness":{
				"baseColorTexture":{
					"index":16
				},
				"metallicFactor":0,
				"metallicRoughnessTexture":{
					"index":17
				}
			}
		},
		{
			"doubleSided":true,
			"name":"M_book_ochre",
			"normalTexture":{
				"index":18,
				"scale":0.3499999940395355
			},
			"pbrMetallicRoughness":{
				"baseColorTexture":{
					"index":19
				},
				"metallicFactor":0,
				"metallicRoughnessTexture":{
					"index":20
				}
			}
		},
		{
			"doubleSided":true,
			"name":"M_book_teal",
			"normalTexture":{
				"index":21,
				"scale":0.3499999940395355
			},
			"pbrMetallicRoughness":{
				"baseColorTexture":{
					"index":22
				},
				"metallicFactor":0,
				"metallicRoughnessTexture":{
					"index":23
				}
			}
		},
		{
			"doubleSided":true,
			"name":"M_brass",
			"normalTexture":{
				"index":24,
				"scale":0.3499999940395355
			},
			"pbrMetallicRoughness":{
				"baseColorTexture":{
					"index":25
				},
				"metallicFactor":0.8500000238418579,
				"metallicRoughnessTexture":{
					"index":26
				}
			}
		},
		{
			"doubleSided":true,
			"name":"M_ceramic",
			"normalTexture":{
				"index":27,
				"scale":0.3499999940395355
			},
			"pbrMetallicRoughness":{
				"baseColorTexture":{
					"index":28
				},
				"metallicFactor":0,
				"metallicRoughnessTexture":{
					"index":29
				}
			}
		},
		{
			"doubleSided":true,
			"name":"M_chrome",
			"normalTexture":{
				"index":30,
				"scale":0.3499999940395355
			},
			"pbrMetallicRoughness":{
				"baseColorTexture":{
					"index":31
				},
				"metallicRoughnessTexture":{
					"index":32
				}
			}
		},
		{
			"doubleSided":true,
			"name":"M_floor_oak",
			"normalTexture":{
				"index":33,
				"scale":0.3499999940395355
			},
			"pbrMetallicRoughness":{
				"baseColorTexture":{
					"index":34
				},
				"metallicFactor":0,
				"metallicRoughnessTexture":{
					"index":35
				}
			}
		},
		{
			"alphaMode":"BLEND",
			"doubleSided":true,
			"extensions":{
				"KHR_materials_specular":{
					"specularFactor":0
				}
			},
			"name":"M_fx_shadow",
			"pbrMetallicRoughness":{
				"baseColorTexture":{
					"index":36
				},
				"metallicFactor":0
			}
		},
		{
			"alphaMode":"BLEND",
			"doubleSided":true,
			"extensions":{
				"KHR_materials_transmission":{
					"transmissionFactor":0.7200000286102295
				},
				"KHR_materials_ior":{
					"ior":1.4600000381469727
				}
			},
			"name":"M_glassish",
			"pbrMetallicRoughness":{
				"baseColorFactor":[
					0.7200000286102295,
					0.8399999737739563,
					0.8799999952316284,
					0.3199999928474426
				],
				"metallicFactor":0,
				"roughnessFactor":0.07999999821186066
			}
		},
		{
			"doubleSided":true,
			"name":"M_metal",
			"normalTexture":{
				"index":37,
				"scale":0.3499999940395355
			},
			"pbrMetallicRoughness":{
				"baseColorTexture":{
					"index":38
				},
				"metallicFactor":0.8999999761581421,
				"metallicRoughnessTexture":{
					"index":39
				}
			}
		},
		{
			"doubleSided":true,
			"name":"M_plant",
			"normalTexture":{
				"index":40,
				"scale":0.3499999940395355
			},
			"pbrMetallicRoughness":{
				"baseColorTexture":{
					"index":41
				},
				"metallicFactor":0,
				"metallicRoughnessTexture":{
					"index":42
				}
			}
		},
		{
			"doubleSided":true,
			"name":"M_soil",
			"normalTexture":{
				"index":43,
				"scale":0.3499999940395355
			},
			"pbrMetallicRoughness":{
				"baseColorTexture":{
					"index":44
				},
				"metallicFactor":0,
				"metallicRoughnessTexture":{
					"index":45
				}
			}
		},
		{
			"doubleSided":true,
			"name":"M_terracotta",
			"normalTexture":{
				"index":46,
				"scale":0.3499999940395355
			},
			"pbrMetallicRoughness":{
				"baseColorTexture":{
					"index":47
				},
				"metallicFactor":0,
				"metallicRoughnessTexture":{
					"index":48
				}
			}
		},
		{
			"doubleSided":true,
			"name":"M_timber",
			"normalTexture":{
				"index":49,
				"scale":0.3499999940395355
			},
			"pbrMetallicRoughness":{
				"baseColorTexture":{
					"index":50
				},
				"metallicFactor":0,
				"metallicRoughnessTexture":{
					"index":51
				}
			}
		},
		{
			"doubleSided":true,
			"name":"M_trim",
			"normalTexture":{
				"index":52,
				"scale":0.3499999940395355
			},
			"pbrMetallicRoughness":{
				"baseColorTexture":{
					"index":53
				},
				"metallicFactor":0,
				"metallicRoughnessTexture":{
					"index":54
				}
			}
		},
		{
			"doubleSided":true,
			"name":"M_wood_dark",
			"normalTexture":{
				"index":55,
				"scale":0.3499999940395355
			},
			"pbrMetallicRoughness":{
				"baseColorTexture":{
					"index":56
				},
				"metallicFactor":0,
				"metallicRoughnessTexture":{
					"index":57
				}
			}
		},
		{
			"doubleSided":true,
			"name":"M_art",
			"normalTexture":{
				"index":58,
				"scale":0.3499999940395355
			},
			"pbrMetallicRoughness":{
				"baseColorTexture":{
					"index":59
				},
				"metallicFactor":0,
				"metallicRoughnessTexture":{
					"index":60
				}
			}
		},
		{
			"doubleSided":true,
			"name":"M_common_brick",
			"normalTexture":{
				"index":61,
				"scale":0.3499999940395355
			},
			"pbrMetallicRoughness":{
				"baseColorTexture":{
					"index":62
				},
				"metallicFactor":0,
				"metallicRoughnessTexture":{
					"index":63
				}
			}
		},
		{
			"doubleSided":true,
			"name":"M_concrete",
			"normalTexture":{
				"index":64,
				"scale":0.3499999940395355
			},
			"pbrMetallicRoughness":{
				"baseColorTexture":{
					"index":65
				},
				"metallicFactor":0,
				"metallicRoughnessTexture":{
					"index":66
				}
			}
		},
		{
			"doubleSided":true,
			"name":"M_fabric_cool",
			"normalTexture":{
				"index":67,
				"scale":0.3499999940395355
			},
			"pbrMetallicRoughness":{
				"baseColorTexture":{
					"index":68
				},
				"metallicFactor":0,
				"metallicRoughnessTexture":{
					"index":69
				}
			}
		},
		{
			"doubleSided":true,
			"name":"M_fabric_green",
			"normalTexture":{
				"index":70,
				"scale":0.3499999940395355
			},
			"pbrMetallicRoughness":{
				"baseColorTexture":{
					"index":71
				},
				"metallicFactor":0,
				"metallicRoughnessTexture":{
					"index":72
				}
			}
		},
		{
			"doubleSided":true,
			"name":"M_fabric_warm",
			"normalTexture":{
				"index":73,
				"scale":0.3499999940395355
			},
			"pbrMetallicRoughness":{
				"baseColorTexture":{
					"index":74
				},
				"metallicFactor":0,
				"metallicRoughnessTexture":{
					"index":75
				}
			}
		},
		{
			"doubleSided":true,
			"name":"M_slab",
			"normalTexture":{
				"index":76,
				"scale":0.3499999940395355
			},
			"pbrMetallicRoughness":{
				"baseColorTexture":{
					"index":77
				},
				"metallicFactor":0,
				"metallicRoughnessTexture":{
					"index":78
				}
			}
		},
		{
			"doubleSided":true,
			"name":"M_linen",
			"normalTexture":{
				"index":79,
				"scale":0.3499999940395355
			},
			"pbrMetallicRoughness":{
				"baseColorTexture":{
					"index":80
				},
				"metallicFactor":0,
				"metallicRoughnessTexture":{
					"index":81
				}
			}
		},
		{
			"doubleSided":true,
			"name":"M_paper",
			"normalTexture":{
				"index":82,
				"scale":0.3499999940395355
			},
			"pbrMetallicRoughness":{
				"baseColorTexture":{
					"index":83
				},
				"metallicFactor":0,
				"metallicRoughnessTexture":{
					"index":84
				}
			}
		},
		{
			"doubleSided":true,
			"name":"M_rug_warm",
			"normalTexture":{
				"index":85,
				"scale":0.3499999940395355
			},
			"pbrMetallicRoughness":{
				"baseColorTexture":{
					"index":86
				},
				"metallicFactor":0,
				"metallicRoughnessTexture":{
					"index":87
				}
			}
		},
		{
			"doubleSided":true,
			"name":"M_safety_orange",
			"pbrMetallicRoughness":{
				"baseColorFactor":[
					0.8799999952316284,
					0.2199999988079071,
					0.03500000014901161,
					1
				],
				"metallicFactor":0,
				"roughnessFactor":0.6200000047683716
			}
		},
		{
			"alphaMode":"BLEND",
			"doubleSided":true,
			"extensions":{
				"KHR_materials_specular":{
					"specularFactor":0
				}
			},
			"name":"M_fx_ao",
			"pbrMetallicRoughness":{
				"baseColorTexture":{
					"index":88
				},
				"metallicFactor":0
			}
		},
		{
			"doubleSided":true,
			"name":"M_stair",
			"normalTexture":{
				"index":89,
				"scale":0.3499999940395355
			},
			"pbrMetallicRoughness":{
				"baseColorTexture":{
					"index":90
				},
				"metallicFactor":0,
				"metallicRoughnessTexture":{
					"index":91
				}
			}
		},
		{
			"doubleSided":true,
			"name":"M_baluster",
			"normalTexture":{
				"index":92,
				"scale":0.3499999940395355
			},
			"pbrMetallicRoughness":{
				"baseColorTexture":{
					"index":93
				},
				"metallicFactor":0,
				"metallicRoughnessTexture":{
					"index":94
				}
			}
		},
		{
			"doubleSided":true,
			"name":"M_handrail_wood",
			"normalTexture":{
				"index":95,
				"scale":0.3499999940395355
			},
			"pbrMetallicRoughness":{
				"baseColorTexture":{
					"index":96
				},
				"metallicFactor":0,
				"metallicRoughnessTexture":{
					"index":97
				}
			}
		},
		{
			"doubleSided":true,
			"name":"M_limestone",
			"normalTexture":{
				"index":98,
				"scale":0.3499999940395355
			},
			"pbrMetallicRoughness":{
				"baseColorTexture":{
					"index":99
				},
				"metallicFactor":0,
				"metallicRoughnessTexture":{
					"index":100
				}
			}
		},
		{
			"doubleSided":true,
			"name":"M_wainscot",
			"normalTexture":{
				"index":101,
				"scale":0.3499999940395355
			},
			"pbrMetallicRoughness":{
				"baseColorTexture":{
					"index":102
				},
				"metallicFactor":0,
				"metallicRoughnessTexture":{
					"index":103
				}
			}
		},
		{
			"doubleSided":true,
			"name":"M_plaster",
			"normalTexture":{
				"index":104,
				"scale":0.3499999940395355
			},
			"pbrMetallicRoughness":{
				"baseColorTexture":{
					"index":105
				},
				"metallicFactor":0,
				"metallicRoughnessTexture":{
					"index":106
				}
			}
		},
		{
			"doubleSided":true,
			"name":"M_face_brick",
			"normalTexture":{
				"index":107,
				"scale":0.3499999940395355
			},
			"pbrMetallicRoughness":{
				"baseColorTexture":{
					"index":108
				},
				"metallicFactor":0,
				"metallicRoughnessTexture":{
					"index":109
				}
			}
		},
		{
			"alphaMode":"BLEND",
			"doubleSided":true,
			"extensions":{
				"KHR_materials_specular":{
					"specularFactor":0
				}
			},
			"name":"M_fx_drip",
			"pbrMetallicRoughness":{
				"baseColorTexture":{
					"index":110
				},
				"metallicFactor":0
			}
		},
		{
			"alphaMode":"BLEND",
			"doubleSided":true,
			"extensions":{
				"KHR_materials_specular":{
					"specularFactor":0
				}
			},
			"name":"M_fx_grease",
			"pbrMetallicRoughness":{
				"baseColorTexture":{
					"index":111
				},
				"metallicFactor":0
			}
		},
		{
			"alphaMode":"BLEND",
			"doubleSided":true,
			"extensions":{
				"KHR_materials_specular":{
					"specularFactor":0
				}
			},
			"name":"M_fx_scuff",
			"pbrMetallicRoughness":{
				"baseColorTexture":{
					"index":112
				},
				"metallicFactor":0
			}
		}
	],
	"meshes":[
		{
			"name":"B1_floors_terrazzo",
			"primitives":[
				{
					"attributes":{
						"POSITION":0,
						"NORMAL":1,
						"TEXCOORD_0":2
					},
					"indices":3,
					"material":0
				}
			]
		},
		{
			"name":"B1_furnish_bakelite",
			"primitives":[
				{
					"attributes":{
						"POSITION":4,
						"NORMAL":5,
						"TEXCOORD_0":6
					},
					"indices":7,
					"material":1
				}
			]
		},
		{
			"name":"B1_furnish_book_brown",
			"primitives":[
				{
					"attributes":{
						"POSITION":8,
						"NORMAL":9,
						"TEXCOORD_0":10
					},
					"indices":11,
					"material":2
				}
			]
		},
		{
			"name":"B1_furnish_book_burgundy",
			"primitives":[
				{
					"attributes":{
						"POSITION":12,
						"NORMAL":13,
						"TEXCOORD_0":14
					},
					"indices":15,
					"material":3
				}
			]
		},
		{
			"name":"B1_furnish_book_green",
			"primitives":[
				{
					"attributes":{
						"POSITION":16,
						"NORMAL":17,
						"TEXCOORD_0":18
					},
					"indices":19,
					"material":4
				}
			]
		},
		{
			"name":"B1_furnish_book_navy",
			"primitives":[
				{
					"attributes":{
						"POSITION":20,
						"NORMAL":21,
						"TEXCOORD_0":22
					},
					"indices":23,
					"material":5
				}
			]
		},
		{
			"name":"B1_furnish_book_ochre",
			"primitives":[
				{
					"attributes":{
						"POSITION":24,
						"NORMAL":25,
						"TEXCOORD_0":26
					},
					"indices":27,
					"material":6
				}
			]
		},
		{
			"name":"B1_furnish_book_teal",
			"primitives":[
				{
					"attributes":{
						"POSITION":28,
						"NORMAL":29,
						"TEXCOORD_0":30
					},
					"indices":23,
					"material":7
				}
			]
		},
		{
			"name":"B1_furnish_brass",
			"primitives":[
				{
					"attributes":{
						"POSITION":31,
						"NORMAL":32,
						"TEXCOORD_0":33
					},
					"indices":34,
					"material":8
				}
			]
		},
		{
			"name":"B1_furnish_ceramic",
			"primitives":[
				{
					"attributes":{
						"POSITION":35,
						"NORMAL":36,
						"TEXCOORD_0":37
					},
					"indices":38,
					"material":9
				}
			]
		},
		{
			"name":"B1_furnish_chrome",
			"primitives":[
				{
					"attributes":{
						"POSITION":39,
						"NORMAL":40,
						"TEXCOORD_0":41
					},
					"indices":42,
					"material":10
				}
			]
		},
		{
			"name":"B1_furnish_floor_oak",
			"primitives":[
				{
					"attributes":{
						"POSITION":43,
						"NORMAL":44,
						"TEXCOORD_0":45
					},
					"indices":46,
					"material":11
				}
			]
		},
		{
			"name":"B1_furnish_fx_shadow",
			"primitives":[
				{
					"attributes":{
						"POSITION":47,
						"NORMAL":48,
						"TEXCOORD_0":49
					},
					"indices":50,
					"material":12
				}
			]
		},
		{
			"name":"B1_furnish_glassish",
			"primitives":[
				{
					"attributes":{
						"POSITION":51,
						"NORMAL":52,
						"TEXCOORD_0":53
					},
					"indices":54,
					"material":13
				}
			]
		},
		{
			"name":"B1_furnish_metal",
			"primitives":[
				{
					"attributes":{
						"POSITION":55,
						"NORMAL":56,
						"TEXCOORD_0":57
					},
					"indices":58,
					"material":14
				}
			]
		},
		{
			"name":"B1_furnish_plant",
			"primitives":[
				{
					"attributes":{
						"POSITION":59,
						"NORMAL":60,
						"TEXCOORD_0":61
					},
					"indices":62,
					"material":15
				}
			]
		},
		{
			"name":"B1_furnish_soil",
			"primitives":[
				{
					"attributes":{
						"POSITION":63,
						"NORMAL":64,
						"TEXCOORD_0":65
					},
					"indices":66,
					"material":16
				}
			]
		},
		{
			"name":"B1_furnish_terracotta",
			"primitives":[
				{
					"attributes":{
						"POSITION":67,
						"NORMAL":68,
						"TEXCOORD_0":69
					},
					"indices":70,
					"material":17
				}
			]
		},
		{
			"name":"B1_furnish_timber",
			"primitives":[
				{
					"attributes":{
						"POSITION":71,
						"NORMAL":72,
						"TEXCOORD_0":73
					},
					"indices":74,
					"material":18
				}
			]
		},
		{
			"name":"B1_furnish_trim",
			"primitives":[
				{
					"attributes":{
						"POSITION":75,
						"NORMAL":76,
						"TEXCOORD_0":77
					},
					"indices":42,
					"material":19
				}
			]
		},
		{
			"name":"B1_furnish_wood_dark",
			"primitives":[
				{
					"attributes":{
						"POSITION":78,
						"NORMAL":79,
						"TEXCOORD_0":80
					},
					"indices":81,
					"material":20
				}
			]
		},
		{
			"name":"B1_furniture_art-col",
			"primitives":[
				{
					"attributes":{
						"POSITION":82,
						"NORMAL":83,
						"TEXCOORD_0":84
					},
					"indices":85,
					"material":21
				}
			]
		},
		{
			"name":"B1_furniture_brass-col",
			"primitives":[
				{
					"attributes":{
						"POSITION":86,
						"NORMAL":87,
						"TEXCOORD_0":88
					},
					"indices":89,
					"material":8
				}
			]
		},
		{
			"name":"B1_furniture_ceramic-col",
			"primitives":[
				{
					"attributes":{
						"POSITION":90,
						"NORMAL":91,
						"TEXCOORD_0":92
					},
					"indices":3,
					"material":9
				}
			]
		},
		{
			"name":"B1_furniture_common_brick-col",
			"primitives":[
				{
					"attributes":{
						"POSITION":93,
						"NORMAL":94,
						"TEXCOORD_0":95
					},
					"indices":15,
					"material":22
				}
			]
		},
		{
			"name":"B1_furniture_concrete-col",
			"primitives":[
				{
					"attributes":{
						"POSITION":96,
						"NORMAL":97,
						"TEXCOORD_0":98
					},
					"indices":99,
					"material":23
				}
			]
		},
		{
			"name":"B1_furniture_fabric_cool-col",
			"primitives":[
				{
					"attributes":{
						"POSITION":100,
						"NORMAL":101,
						"TEXCOORD_0":102
					},
					"indices":3,
					"material":24
				}
			]
		},
		{
			"name":"B1_furniture_fabric_green-col",
			"primitives":[
				{
					"attributes":{
						"POSITION":103,
						"NORMAL":104,
						"TEXCOORD_0":105
					},
					"indices":3,
					"material":25
				}
			]
		},
		{
			"name":"B1_furniture_fabric_warm-col",
			"primitives":[
				{
					"attributes":{
						"POSITION":106,
						"NORMAL":107,
						"TEXCOORD_0":108
					},
					"indices":3,
					"material":26
				}
			]
		},
		{
			"name":"B1_furniture_floor_oak-col",
			"primitives":[
				{
					"attributes":{
						"POSITION":109,
						"NORMAL":110,
						"TEXCOORD_0":111
					},
					"indices":112,
					"material":11
				}
			]
		},
		{
			"name":"B1_furniture_hull-colonly",
			"primitives":[
				{
					"attributes":{
						"POSITION":113,
						"NORMAL":114,
						"TEXCOORD_0":115
					},
					"indices":112,
					"material":27
				}
			]
		},
		{
			"name":"B1_furniture_linen-col",
			"primitives":[
				{
					"attributes":{
						"POSITION":116,
						"NORMAL":117,
						"TEXCOORD_0":118
					},
					"indices":85,
					"material":28
				}
			]
		},
		{
			"name":"B1_furniture_metal-col",
			"primitives":[
				{
					"attributes":{
						"POSITION":119,
						"NORMAL":120,
						"TEXCOORD_0":121
					},
					"indices":122,
					"material":14
				}
			]
		},
		{
			"name":"B1_furniture_paper-col",
			"primitives":[
				{
					"attributes":{
						"POSITION":123,
						"NORMAL":124,
						"TEXCOORD_0":125
					},
					"indices":112,
					"material":29
				}
			]
		},
		{
			"name":"B1_furniture_rug_warm-col",
			"primitives":[
				{
					"attributes":{
						"POSITION":126,
						"NORMAL":127,
						"TEXCOORD_0":128
					},
					"indices":3,
					"material":30
				}
			]
		},
		{
			"name":"B1_furniture_safety_orange-col",
			"primitives":[
				{
					"attributes":{
						"POSITION":129,
						"NORMAL":130,
						"TEXCOORD_0":131
					},
					"indices":3,
					"material":31
				}
			]
		},
		{
			"name":"B1_furniture_slab-col",
			"primitives":[
				{
					"attributes":{
						"POSITION":132,
						"NORMAL":133,
						"TEXCOORD_0":134
					},
					"indices":3,
					"material":27
				}
			]
		},
		{
			"name":"B1_furniture_timber-col",
			"primitives":[
				{
					"attributes":{
						"POSITION":135,
						"NORMAL":136,
						"TEXCOORD_0":137
					},
					"indices":138,
					"material":18
				}
			]
		},
		{
			"name":"B1_furniture_trim-col",
			"primitives":[
				{
					"attributes":{
						"POSITION":139,
						"NORMAL":140,
						"TEXCOORD_0":141
					},
					"indices":89,
					"material":19
				}
			]
		},
		{
			"name":"B1_furniture_wood_dark-col",
			"primitives":[
				{
					"attributes":{
						"POSITION":142,
						"NORMAL":143,
						"TEXCOORD_0":144
					},
					"indices":138,
					"material":20
				}
			]
		},
		{
			"name":"B1_fx_ao_decal",
			"primitives":[
				{
					"attributes":{
						"POSITION":145,
						"NORMAL":146,
						"TEXCOORD_0":147
					},
					"indices":148,
					"material":32
				}
			]
		},
		{
			"name":"B1_glazing-col",
			"primitives":[
				{
					"attributes":{
						"POSITION":149,
						"NORMAL":150,
						"TEXCOORD_0":151
					},
					"indices":152,
					"material":13
				}
			]
		},
		{
			"name":"B1_slabs-col",
			"primitives":[
				{
					"attributes":{
						"POSITION":153,
						"NORMAL":154,
						"TEXCOORD_0":155
					},
					"indices":3,
					"material":27
				}
			]
		},
		{
			"name":"B1_stairs",
			"primitives":[
				{
					"attributes":{
						"POSITION":156,
						"NORMAL":157,
						"TEXCOORD_0":158
					},
					"indices":159,
					"material":33
				}
			]
		},
		{
			"name":"B1_stairs_bal",
			"primitives":[
				{
					"attributes":{
						"POSITION":160,
						"NORMAL":161,
						"TEXCOORD_0":162
					},
					"indices":163,
					"material":34
				}
			]
		},
		{
			"name":"B1_stairs_guard-colonly",
			"primitives":[
				{
					"attributes":{
						"POSITION":164,
						"NORMAL":165,
						"TEXCOORD_0":166
					},
					"indices":167,
					"material":33
				}
			]
		},
		{
			"name":"B1_stairs_rail",
			"primitives":[
				{
					"attributes":{
						"POSITION":168,
						"NORMAL":169,
						"TEXCOORD_0":170
					},
					"indices":171,
					"material":35
				}
			]
		},
		{
			"name":"B1_stairs_ramp-colonly",
			"primitives":[
				{
					"attributes":{
						"POSITION":172,
						"NORMAL":173,
						"TEXCOORD_0":174
					},
					"indices":167,
					"material":33
				}
			]
		},
		{
			"name":"B1_stone_trim-col",
			"primitives":[
				{
					"attributes":{
						"POSITION":175,
						"NORMAL":176,
						"TEXCOORD_0":177
					},
					"indices":178,
					"material":36
				}
			]
		},
		{
			"name":"B1_trim",
			"primitives":[
				{
					"attributes":{
						"POSITION":179,
						"NORMAL":180,
						"TEXCOORD_0":181
					},
					"indices":182,
					"material":19
				}
			]
		},
		{
			"name":"B1_wainscot",
			"primitives":[
				{
					"attributes":{
						"POSITION":183,
						"NORMAL":184,
						"TEXCOORD_0":185
					},
					"indices":186,
					"material":37
				}
			]
		},
		{
			"name":"B1_walls-col",
			"primitives":[
				{
					"attributes":{
						"POSITION":187,
						"NORMAL":188,
						"TEXCOORD_0":189
					},
					"indices":190,
					"material":38
				}
			]
		},
		{
			"name":"B1_walls_cbrick-col",
			"primitives":[
				{
					"attributes":{
						"POSITION":191,
						"NORMAL":192,
						"TEXCOORD_0":193
					},
					"indices":194,
					"material":22
				}
			]
		},
		{
			"name":"B1_walls_conc-col",
			"primitives":[
				{
					"attributes":{
						"POSITION":195,
						"NORMAL":196,
						"TEXCOORD_0":197
					},
					"indices":112,
					"material":23
				}
			]
		},
		{
			"name":"B1_walls_fbrick-col",
			"primitives":[
				{
					"attributes":{
						"POSITION":198,
						"NORMAL":199,
						"TEXCOORD_0":200
					},
					"indices":186,
					"material":39
				}
			]
		},
		{
			"name":"B1_wear_ceiling_fx_drip",
			"primitives":[
				{
					"attributes":{
						"POSITION":201,
						"NORMAL":202,
						"TEXCOORD_0":203
					},
					"indices":204,
					"material":40
				}
			]
		},
		{
			"name":"B1_wear_ceiling_fx_grease",
			"primitives":[
				{
					"attributes":{
						"POSITION":205,
						"NORMAL":206,
						"TEXCOORD_0":207
					},
					"indices":50,
					"material":41
				}
			]
		},
		{
			"name":"B1_wear_fx_drip",
			"primitives":[
				{
					"attributes":{
						"POSITION":208,
						"NORMAL":209,
						"TEXCOORD_0":210
					},
					"indices":211,
					"material":40
				}
			]
		},
		{
			"name":"B1_wear_fx_scuff",
			"primitives":[
				{
					"attributes":{
						"POSITION":212,
						"NORMAL":213,
						"TEXCOORD_0":214
					},
					"indices":215,
					"material":42
				}
			]
		}
	],
	"textures":[
		{
			"sampler":0,
			"source":0
		},
		{
			"sampler":0,
			"source":1
		},
		{
			"sampler":0,
			"source":2
		},
		{
			"sampler":0,
			"source":3
		},
		{
			"sampler":0,
			"source":4
		},
		{
			"sampler":0,
			"source":5
		},
		{
			"sampler":0,
			"source":6
		},
		{
			"sampler":0,
			"source":7
		},
		{
			"sampler":0,
			"source":8
		},
		{
			"sampler":0,
			"source":9
		},
		{
			"sampler":0,
			"source":10
		},
		{
			"sampler":0,
			"source":11
		},
		{
			"sampler":0,
			"source":12
		},
		{
			"sampler":0,
			"source":13
		},
		{
			"sampler":0,
			"source":14
		},
		{
			"sampler":0,
			"source":15
		},
		{
			"sampler":0,
			"source":16
		},
		{
			"sampler":0,
			"source":17
		},
		{
			"sampler":0,
			"source":18
		},
		{
			"sampler":0,
			"source":19
		},
		{
			"sampler":0,
			"source":20
		},
		{
			"sampler":0,
			"source":21
		},
		{
			"sampler":0,
			"source":22
		},
		{
			"sampler":0,
			"source":23
		},
		{
			"sampler":0,
			"source":24
		},
		{
			"sampler":0,
			"source":25
		},
		{
			"sampler":0,
			"source":26
		},
		{
			"sampler":0,
			"source":27
		},
		{
			"sampler":0,
			"source":28
		},
		{
			"sampler":0,
			"source":29
		},
		{
			"sampler":0,
			"source":30
		},
		{
			"sampler":0,
			"source":31
		},
		{
			"sampler":0,
			"source":32
		},
		{
			"sampler":0,
			"source":33
		},
		{
			"sampler":0,
			"source":34
		},
		{
			"sampler":0,
			"source":35
		},
		{
			"sampler":0,
			"source":36
		},
		{
			"sampler":0,
			"source":37
		},
		{
			"sampler":0,
			"source":38
		},
		{
			"sampler":0,
			"source":39
		},
		{
			"sampler":0,
			"source":40
		},
		{
			"sampler":0,
			"source":41
		},
		{
			"sampler":0,
			"source":42
		},
		{
			"sampler":0,
			"source":43
		},
		{
			"sampler":0,
			"source":44
		},
		{
			"sampler":0,
			"source":45
		},
		{
			"sampler":0,
			"source":46
		},
		{
			"sampler":0,
			"source":47
		},
		{
			"sampler":0,
			"source":48
		},
		{
			"sampler":0,
			"source":49
		},
		{
			"sampler":0,
			"source":50
		},
		{
			"sampler":0,
			"source":51
		},
		{
			"sampler":0,
			"source":52
		},
		{
			"sampler":0,
			"source":53
		},
		{
			"sampler":0,
			"source":54
		},
		{
			"sampler":0,
			"source":55
		},
		{
			"sampler":0,
			"source":56
		},
		{
			"sampler":0,
			"source":57
		},
		{
			"sampler":0,
			"source":58
		},
		{
			"sampler":0,
			"source":59
		},
		{
			"sampler":0,
			"source":60
		},
		{
			"sampler":0,
			"source":61
		},
		{
			"sampler":0,
			"source":62
		},
		{
			"sampler":0,
			"source":63
		},
		{
			"sampler":0,
			"source":64
		},
		{
			"sampler":0,
			"source":65
		},
		{
			"sampler":0,
			"source":66
		},
		{
			"sampler":0,
			"source":67
		},
		{
			"sampler":0,
			"source":68
		},
		{
			"sampler":0,
			"source":69
		},
		{
			"sampler":0,
			"source":70
		},
		{
			"sampler":0,
			"source":71
		},
		{
			"sampler":0,
			"source":72
		},
		{
			"sampler":0,
			"source":73
		},
		{
			"sampler":0,
			"source":74
		},
		{
			"sampler":0,
			"source":75
		},
		{
			"sampler":0,
			"source":64
		},
		{
			"sampler":0,
			"source":76
		},
		{
			"sampler":0,
			"source":77
		},
		{
			"sampler":0,
			"source":78
		},
		{
			"sampler":0,
			"source":79
		},
		{
			"sampler":0,
			"source":80
		},
		{
			"sampler":0,
			"source":81
		},
		{
			"sampler":0,
			"source":82
		},
		{
			"sampler":0,
			"source":83
		},
		{
			"sampler":0,
			"source":84
		},
		{
			"sampler":0,
			"source":85
		},
		{
			"sampler":0,
			"source":86
		},
		{
			"sampler":0,
			"source":87
		},
		{
			"sampler":0,
			"source":88
		},
		{
			"sampler":0,
			"source":89
		},
		{
			"sampler":0,
			"source":90
		},
		{
			"sampler":0,
			"source":52
		},
		{
			"sampler":0,
			"source":53
		},
		{
			"sampler":0,
			"source":54
		},
		{
			"sampler":0,
			"source":55
		},
		{
			"sampler":0,
			"source":56
		},
		{
			"sampler":0,
			"source":57
		},
		{
			"sampler":0,
			"source":91
		},
		{
			"sampler":0,
			"source":92
		},
		{
			"sampler":0,
			"source":93
		},
		{
			"sampler":0,
			"source":94
		},
		{
			"sampler":0,
			"source":95
		},
		{
			"sampler":0,
			"source":96
		},
		{
			"sampler":0,
			"source":97
		},
		{
			"sampler":0,
			"source":98
		},
		{
			"sampler":0,
			"source":99
		},
		{
			"sampler":0,
			"source":100
		},
		{
			"sampler":0,
			"source":101
		},
		{
			"sampler":0,
			"source":102
		},
		{
			"sampler":0,
			"source":103
		},
		{
			"sampler":0,
			"source":104
		},
		{
			"sampler":0,
			"source":105
		}
	],
	"images":[
		{
			"mimeType":"image/png",
			"name":"T_generated_terrazzo_normal",
			"uri":"textures/T_generated_terrazzo_normal.png"
		},
		{
			"mimeType":"image/png",
			"name":"T_generated_terrazzo_albedo",
			"uri":"textures/T_generated_terrazzo_albedo.png"
		},
		{
			"mimeType":"image/png",
			"name":"T_generated_terrazzo_rough",
			"uri":"textures/T_generated_terrazzo_rough.png"
		},
		{
			"mimeType":"image/png",
			"name":"T_library_appliances_bakelite_normal",
			"uri":"textures/T_library_appliances_bakelite_normal.png"
		},
		{
			"mimeType":"image/png",
			"name":"T_library_appliances_bakelite_albedo",
			"uri":"textures/T_library_appliances_bakelite_albedo.png"
		},
		{
			"mimeType":"image/png",
			"name":"T_library_appliances_bakelite_rough",
			"uri":"textures/T_library_appliances_bakelite_rough.png"
		},
		{
			"mimeType":"image/png",
			"name":"T_library_furniture_book_brown_normal",
			"uri":"textures/T_library_furniture_book_brown_normal.png"
		},
		{
			"mimeType":"image/png",
			"name":"T_library_furniture_book_brown_albedo",
			"uri":"textures/T_library_furniture_book_brown_albedo.png"
		},
		{
			"mimeType":"image/png",
			"name":"T_library_furniture_book_brown_rough",
			"uri":"textures/T_library_furniture_book_brown_rough.png"
		},
		{
			"mimeType":"image/png",
			"name":"T_library_furniture_book_burgundy_normal",
			"uri":"textures/T_library_furniture_book_burgundy_normal.png"
		},
		{
			"mimeType":"image/png",
			"name":"T_library_furniture_book_burgundy_albedo",
			"uri":"textures/T_library_furniture_book_burgundy_albedo.png"
		},
		{
			"mimeType":"image/png",
			"name":"T_library_furniture_book_burgundy_rough",
			"uri":"textures/T_library_furniture_book_burgundy_rough.png"
		},
		{
			"mimeType":"image/png",
			"name":"T_library_furniture_book_green_normal",
			"uri":"textures/T_library_furniture_book_green_normal.png"
		},
		{
			"mimeType":"image/png",
			"name":"T_library_furniture_book_green_albedo",
			"uri":"textures/T_library_furniture_book_green_albedo.png"
		},
		{
			"mimeType":"image/png",
			"name":"T_library_furniture_book_green_rough",
			"uri":"textures/T_library_furniture_book_green_rough.png"
		},
		{
			"mimeType":"image/png",
			"name":"T_library_furniture_book_navy_normal",
			"uri":"textures/T_library_furniture_book_navy_normal.png"
		},
		{
			"mimeType":"image/png",
			"name":"T_library_furniture_book_navy_albedo",
			"uri":"textures/T_library_furniture_book_navy_albedo.png"
		},
		{
			"mimeType":"image/png",
			"name":"T_library_furniture_book_navy_rough",
			"uri":"textures/T_library_furniture_book_navy_rough.png"
		},
		{
			"mimeType":"image/png",
			"name":"T_library_furniture_book_ochre_normal",
			"uri":"textures/T_library_furniture_book_ochre_normal.png"
		},
		{
			"mimeType":"image/png",
			"name":"T_library_furniture_book_ochre_albedo",
			"uri":"textures/T_library_furniture_book_ochre_albedo.png"
		},
		{
			"mimeType":"image/png",
			"name":"T_library_furniture_book_ochre_rough",
			"uri":"textures/T_library_furniture_book_ochre_rough.png"
		},
		{
			"mimeType":"image/png",
			"name":"T_library_furniture_book_teal_normal",
			"uri":"textures/T_library_furniture_book_teal_normal.png"
		},
		{
			"mimeType":"image/png",
			"name":"T_library_furniture_book_teal_albedo",
			"uri":"textures/T_library_furniture_book_teal_albedo.png"
		},
		{
			"mimeType":"image/png",
			"name":"T_library_furniture_book_teal_rough",
			"uri":"textures/T_library_furniture_book_teal_rough.png"
		},
		{
			"mimeType":"image/png",
			"name":"T_library_metals_aged_brass_normal",
			"uri":"textures/T_library_metals_aged_brass_normal.png"
		},
		{
			"mimeType":"image/png",
			"name":"T_library_metals_aged_brass_albedo",
			"uri":"textures/T_library_metals_aged_brass_albedo.png"
		},
		{
			"mimeType":"image/png",
			"name":"T_library_metals_aged_brass_rough",
			"uri":"textures/T_library_metals_aged_brass_rough.png"
		},
		{
			"mimeType":"image/png",
			"name":"T_library_architectural_ceramic_tile_normal",
			"uri":"textures/T_library_architectural_ceramic_tile_normal.png"
		},
		{
			"mimeType":"image/png",
			"name":"T_library_architectural_ceramic_tile_albedo",
			"uri":"textures/T_library_architectural_ceramic_tile_albedo.png"
		},
		{
			"mimeType":"image/png",
			"name":"T_library_architectural_ceramic_tile_rough",
			"uri":"textures/T_library_architectural_ceramic_tile_rough.png"
		},
		{
			"mimeType":"image/png",
			"name":"T_library_appliances_brushed_steel_normal",
			"uri":"textures/T_library_appliances_brushed_steel_normal.png"
		},
		{
			"mimeType":"image/png",
			"name":"T_library_appliances_brushed_steel_albedo",
			"uri":"textures/T_library_appliances_brushed_steel_albedo.png"
		},
		{
			"mimeType":"image/png",
			"name":"T_library_appliances_brushed_steel_rough",
			"uri":"textures/T_library_appliances_brushed_steel_rough.png"
		},
		{
			"mimeType":"image/png",
			"name":"T_generated_floor_oak_normal",
			"uri":"textures/T_generated_floor_oak_normal.png"
		},
		{
			"mimeType":"image/png",
			"name":"T_generated_floor_oak_albedo",
			"uri":"textures/T_generated_floor_oak_albedo.png"
		},
		{
			"mimeType":"image/png",
			"name":"T_generated_floor_oak_rough",
			"uri":"textures/T_generated_floor_oak_rough.png"
		},
		{
			"mimeType":"image/png",
			"name":"T_fx_fx_shadow",
			"uri":"textures/T_fx_fx_shadow.png"
		},
		{
			"mimeType":"image/png",
			"name":"T_library_appliances_galvanized_metal_normal",
			"uri":"textures/T_library_appliances_galvanized_metal_normal.png"
		},
		{
			"mimeType":"image/png",
			"name":"T_library_appliances_galvanized_metal_worn_metal_albedo",
			"uri":"textures/T_library_appliances_galvanized_metal_worn_metal_albedo.png"
		},
		{
			"mimeType":"image/png",
			"name":"T_library_appliances_galvanized_metal_worn_metal_rough",
			"uri":"textures/T_library_appliances_galvanized_metal_worn_metal_rough.png"
		},
		{
			"mimeType":"image/png",
			"name":"T_library_organic_leaf_surface_normal",
			"uri":"textures/T_library_organic_leaf_surface_normal.png"
		},
		{
			"mimeType":"image/png",
			"name":"T_library_organic_leaf_surface_albedo",
			"uri":"textures/T_library_organic_leaf_surface_albedo.png"
		},
		{
			"mimeType":"image/png",
			"name":"T_library_organic_leaf_surface_rough",
			"uri":"textures/T_library_organic_leaf_surface_rough.png"
		},
		{
			"mimeType":"image/png",
			"name":"T_generated_soil_normal",
			"uri":"textures/T_generated_soil_normal.png"
		},
		{
			"mimeType":"image/png",
			"name":"T_generated_soil_albedo",
			"uri":"textures/T_generated_soil_albedo.png"
		},
		{
			"mimeType":"image/png",
			"name":"T_generated_soil_rough",
			"uri":"textures/T_generated_soil_rough.png"
		},
		{
			"mimeType":"image/png",
			"name":"T_generated_terracotta_normal",
			"uri":"textures/T_generated_terracotta_normal.png"
		},
		{
			"mimeType":"image/png",
			"name":"T_generated_terracotta_albedo",
			"uri":"textures/T_generated_terracotta_albedo.png"
		},
		{
			"mimeType":"image/png",
			"name":"T_generated_terracotta_rough",
			"uri":"textures/T_generated_terracotta_rough.png"
		},
		{
			"mimeType":"image/png",
			"name":"T_generated_timber_normal",
			"uri":"textures/T_generated_timber_normal.png"
		},
		{
			"mimeType":"image/png",
			"name":"T_generated_timber_albedo",
			"uri":"textures/T_generated_timber_albedo.png"
		},
		{
			"mimeType":"image/png",
			"name":"T_generated_timber_rough",
			"uri":"textures/T_generated_timber_rough.png"
		},
		{
			"mimeType":"image/png",
			"name":"T_library_architectural_painted_trim_normal",
			"uri":"textures/T_library_architectural_painted_trim_normal.png"
		},
		{
			"mimeType":"image/png",
			"name":"T_library_architectural_painted_trim_albedo",
			"uri":"textures/T_library_architectural_painted_trim_albedo.png"
		},
		{
			"mimeType":"image/png",
			"name":"T_library_architectural_painted_trim_rough",
			"uri":"textures/T_library_architectural_painted_trim_rough.png"
		},
		{
			"mimeType":"image/png",
			"name":"T_library_furniture_walnut_normal",
			"uri":"textures/T_library_furniture_walnut_normal.png"
		},
		{
			"mimeType":"image/png",
			"name":"T_library_furniture_walnut_albedo",
			"uri":"textures/T_library_furniture_walnut_albedo.png"
		},
		{
			"mimeType":"image/png",
			"name":"T_library_furniture_walnut_rough",
			"uri":"textures/T_library_furniture_walnut_rough.png"
		},
		{
			"mimeType":"image/png",
			"name":"T_library_furniture_art_canvas_normal",
			"uri":"textures/T_library_furniture_art_canvas_normal.png"
		},
		{
			"mimeType":"image/png",
			"name":"T_library_furniture_art_canvas_albedo",
			"uri":"textures/T_library_furniture_art_canvas_albedo.png"
		},
		{
			"mimeType":"image/png",
			"name":"T_library_furniture_art_canvas_rough",
			"uri":"textures/T_library_furniture_art_canvas_rough.png"
		},
		{
			"mimeType":"image/png",
			"name":"T_generated_common_brick_normal",
			"uri":"textures/T_generated_common_brick_normal.png"
		},
		{
			"mimeType":"image/png",
			"name":"T_generated_common_brick_albedo",
			"uri":"textures/T_generated_common_brick_albedo.png"
		},
		{
			"mimeType":"image/png",
			"name":"T_generated_common_brick_rough",
			"uri":"textures/T_generated_common_brick_rough.png"
		},
		{
			"mimeType":"image/png",
			"name":"T_generated_concrete_normal",
			"uri":"textures/T_generated_concrete_normal.png"
		},
		{
			"mimeType":"image/png",
			"name":"T_generated_concrete_worn_concrete_albedo",
			"uri":"textures/T_generated_concrete_worn_concrete_albedo.png"
		},
		{
			"mimeType":"image/png",
			"name":"T_generated_concrete_worn_concrete_rough",
			"uri":"textures/T_generated_concrete_worn_concrete_rough.png"
		},
		{
			"mimeType":"image/png",
			"name":"T_library_furniture_upholstery_cool_normal",
			"uri":"textures/T_library_furniture_upholstery_cool_normal.png"
		},
		{
			"mimeType":"image/png",
			"name":"T_library_furniture_upholstery_cool_albedo",
			"uri":"textures/T_library_furniture_upholstery_cool_albedo.png"
		},
		{
			"mimeType":"image/png",
			"name":"T_library_furniture_upholstery_cool_rough",
			"uri":"textures/T_library_furniture_upholstery_cool_rough.png"
		},
		{
			"mimeType":"image/png",
			"name":"T_library_furniture_upholstery_moss_normal",
			"uri":"textures/T_library_furniture_upholstery_moss_normal.png"
		},
		{
			"mimeType":"image/png",
			"name":"T_library_furniture_upholstery_moss_albedo",
			"uri":"textures/T_library_furniture_upholstery_moss_albedo.png"
		},
		{
			"mimeType":"image/png",
			"name":"T_library_furniture_upholstery_moss_rough",
			"uri":"textures/T_library_furniture_upholstery_moss_rough.png"
		},
		{
			"mimeType":"image/png",
			"name":"T_library_furniture_upholstery_rust_normal",
			"uri":"textures/T_library_furniture_upholstery_rust_normal.png"
		},
		{
			"mimeType":"image/png",
			"name":"T_library_furniture_upholstery_rust_albedo",
			"uri":"textures/T_library_furniture_upholstery_rust_albedo.png"
		},
		{
			"mimeType":"image/png",
			"name":"T_library_furniture_upholstery_rust_rough",
			"uri":"textures/T_library_furniture_upholstery_rust_rough.png"
		},
		{
			"mimeType":"image/png",
			"name":"T_generated_concrete_albedo",
			"uri":"textures/T_generated_concrete_albedo.png"
		},
		{
			"mimeType":"image/png",
			"name":"T_generated_concrete_rough",
			"uri":"textures/T_generated_concrete_rough.png"
		},
		{
			"mimeType":"image/png",
			"name":"T_library_furniture_linen_normal",
			"uri":"textures/T_library_furniture_linen_normal.png"
		},
		{
			"mimeType":"image/png",
			"name":"T_library_furniture_linen_albedo",
			"uri":"textures/T_library_furniture_linen_albedo.png"
		},
		{
			"mimeType":"image/png",
			"name":"T_library_furniture_linen_rough",
			"uri":"textures/T_library_furniture_linen_rough.png"
		},
		{
			"mimeType":"image/png",
			"name":"T_library_furniture_aged_paper_normal",
			"uri":"textures/T_library_furniture_aged_paper_normal.png"
		},
		{
			"mimeType":"image/png",
			"name":"T_library_furniture_aged_paper_albedo",
			"uri":"textures/T_library_furniture_aged_paper_albedo.png"
		},
		{
			"mimeType":"image/png",
			"name":"T_library_furniture_aged_paper_rough",
			"uri":"textures/T_library_furniture_aged_paper_rough.png"
		},
		{
			"mimeType":"image/png",
			"name":"T_library_furniture_rug_warm_normal",
			"uri":"textures/T_library_furniture_rug_warm_normal.png"
		},
		{
			"mimeType":"image/png",
			"name":"T_library_furniture_rug_warm_albedo",
			"uri":"textures/T_library_furniture_rug_warm_albedo.png"
		},
		{
			"mimeType":"image/png",
			"name":"T_library_furniture_rug_warm_rough",
			"uri":"textures/T_library_furniture_rug_warm_rough.png"
		},
		{
			"mimeType":"image/png",
			"name":"T_fx_fx_ao",
			"uri":"textures/T_fx_fx_ao.png"
		},
		{
			"mimeType":"image/png",
			"name":"T_library_architectural_worn_stair_stone_normal",
			"uri":"textures/T_library_architectural_worn_stair_stone_normal.png"
		},
		{
			"mimeType":"image/png",
			"name":"T_library_architectural_worn_stair_stone_albedo",
			"uri":"textures/T_library_architectural_worn_stair_stone_albedo.png"
		},
		{
			"mimeType":"image/png",
			"name":"T_library_architectural_worn_stair_stone_rough",
			"uri":"textures/T_library_architectural_worn_stair_stone_rough.png"
		},
		{
			"mimeType":"image/png",
			"name":"T_generated_limestone_normal",
			"uri":"textures/T_generated_limestone_normal.png"
		},
		{
			"mimeType":"image/png",
			"name":"T_generated_limestone_albedo",
			"uri":"textures/T_generated_limestone_albedo.png"
		},
		{
			"mimeType":"image/png",
			"name":"T_generated_limestone_rough",
			"uri":"textures/T_generated_limestone_rough.png"
		},
		{
			"mimeType":"image/png",
			"name":"T_generated_wainscot_normal",
			"uri":"textures/T_generated_wainscot_normal.png"
		},
		{
			"mimeType":"image/png",
			"name":"T_generated_wainscot_worn_wainscot_albedo",
			"uri":"textures/T_generated_wainscot_worn_wainscot_albedo.png"
		},
		{
			"mimeType":"image/png",
			"name":"T_generated_wainscot_worn_wainscot_rough",
			"uri":"textures/T_generated_wainscot_worn_wainscot_rough.png"
		},
		{
			"mimeType":"image/png",
			"name":"T_generated_plaster_normal",
			"uri":"textures/T_generated_plaster_normal.png"
		},
		{
			"mimeType":"image/png",
			"name":"T_generated_plaster_worn_plaster_albedo",
			"uri":"textures/T_generated_plaster_worn_plaster_albedo.png"
		},
		{
			"mimeType":"image/png",
			"name":"T_generated_plaster_worn_plaster_rough",
			"uri":"textures/T_generated_plaster_worn_plaster_rough.png"
		},
		{
			"mimeType":"image/png",
			"name":"T_generated_face_brick_normal",
			"uri":"textures/T_generated_face_brick_normal.png"
		},
		{
			"mimeType":"image/png",
			"name":"T_generated_face_brick_albedo",
			"uri":"textures/T_generated_face_brick_albedo.png"
		},
		{
			"mimeType":"image/png",
			"name":"T_generated_face_brick_rough",
			"uri":"textures/T_generated_face_brick_rough.png"
		},
		{
			"mimeType":"image/png",
			"name":"T_fx_fx_drip",
			"uri":"textures/T_fx_fx_drip.png"
		},
		{
			"mimeType":"image/png",
			"name":"T_fx_fx_grease",
			"uri":"textures/T_fx_fx_grease.png"
		},
		{
			"mimeType":"image/png",
			"name":"T_fx_fx_scuff",
			"uri":"textures/T_fx_fx_scuff.png"
		}
	],
	"accessors":[
		{
			"bufferView":0,
			"componentType":5126,
			"count":24,
			"max":[
				0.8500000238418579,
				-2.7880001068115234,
				6.75
			],
			"min":[
				-3.25,
				-2.799999952316284,
				3.25
			],
			"type":"VEC3"
		},
		{
			"bufferView":1,
			"componentType":5126,
			"count":24,
			"type":"VEC3"
		},
		{
			"bufferView":2,
			"componentType":5126,
			"count":24,
			"type":"VEC2"
		},
		{
			"bufferView":3,
			"componentType":5123,
			"count":36,
			"type":"SCALAR"
		},
		{
			"bufferView":4,
			"componentType":5126,
			"count":672,
			"max":[
				11.400225639343262,
				-1.6519999504089355,
				4.691999912261963
			],
			"min":[
				-5.4602251052856445,
				-1.7079999446868896,
				-10.0402250289917
			],
			"type":"VEC3"
		},
		{
			"bufferView":5,
			"componentType":5126,
			"count":672,
			"type":"VEC3"
		},
		{
			"bufferView":6,
			"componentType":5126,
			"count":672,
			"type":"VEC2"
		},
		{
			"bufferView":7,
			"componentType":5123,
			"count":1008,
			"type":"SCALAR"
		},
		{
			"bufferView":8,
			"componentType":5126,
			"count":264,
			"max":[
				-0.021496497094631195,
				-1.166528582572937,
				-1.1299000978469849
			],
			"min":[
				-0.7838308215141296,
				-2.7079999446868896,
				-1.334895133972168
			],
			"type":"VEC3"
		},
		{
			"bufferView":9,
			"componentType":5126,
			"count":264,
			"type":"VEC3"
		},
		{
			"bufferView":10,
			"componentType":5126,
			"count":264,
			"type":"VEC2"
		},
		{
			"bufferView":11,
			"componentType":5123,
			"count":396,
			"type":"SCALAR"
		},
		{
			"bufferView":12,
			"componentType":5126,
			"count":288,
			"max":[
				-0.018618619069457054,
				-1.1705574989318848,
				-1.1303606033325195
			],
			"min":[
				-0.7794104218482971,
				-2.7079999446868896,
				-1.3360462188720703
			],
			"type":"VEC3"
		},
		{
			"bufferView":13,
			"componentType":5126,
			"count":288,
			"type":"VEC3"
		},
		{
			"bufferView":14,
			"componentType":5126,
			"count":288,
			"type":"VEC2"
		},
		{
			"bufferView":15,
			"componentType":5123,
			"count":432,
			"type":"SCALAR"
		},
		{
			"bufferView":16,
			"componentType":5126,
			"count":168,
			"max":[
				-0.015740741044282913,
				-1.1504124402999878,
				-1.1315016746520996
			],
			"min":[
				-0.3696436583995819,
				-2.7079999446868896,
				-1.3354957103729248
			],
			"type":"VEC3"
		},
		{
			"bufferView":17,
			"componentType":5126,
			"count":168,
			"type":"VEC3"
		},
		{
			"bufferView":18,
			"componentType":5126,
			"count":168,
			"type":"VEC2"
		},
		{
			"bufferView":19,
			"componentType":5123,
			"count":252,
			"type":"SCALAR"
		},
		{
			"bufferView":20,
			"componentType":5126,
			"count":264,
			"max":[
				-0.06821221113204956,
				-1.154441475868225,
				0.7859992980957031
			],
			"min":[
				-0.8041616082191467,
				-2.7079999446868896,
				-1.3366467952728271
			],
			"type":"VEC3"
		},
		{
			"bufferView":21,
			"componentType":5126,
			"count":264,
			"type":"VEC3"
		},
		{
			"bufferView":22,
			"componentType":5126,
			"count":264,
			"type":"VEC2"
		},
		{
			"bufferView":23,
			"componentType":5123,
			"count":396,
			"type":"SCALAR"
		},
		{
			"bufferView":24,
			"componentType":5126,
			"count":192,
			"max":[
				-0.09148948639631271,
				-1.1584705114364624,
				0.7862962484359741
			],
			"min":[
				-0.8041643500328064,
				-2.7079999446868896,
				-1.337797999382019
			],
			"type":"VEC3"
		},
		{
			"bufferView":25,
			"componentType":5126,
			"count":192,
			"type":"VEC3"
		},
		{
			"bufferView":26,
			"componentType":5126,
			"count":192,
			"type":"VEC2"
		},
		{
			"bufferView":27,
			"componentType":5123,
			"count":288,
			"type":"SCALAR"
		},
		{
			"bufferView":28,
			"componentType":5126,
			"count":264,
			"max":[
				-0.024374375119805336,
				-1.1624995470046997,
				0.7865932583808899
			],
			"min":[
				-0.8041670322418213,
				-2.7079999446868896,
				-1.338949203491211
			],
			"type":"VEC3"
		},
		{
			"bufferView":29,
			"componentType":5126,
			"count":264,
			"type":"VEC3"
		},
		{
			"bufferView":30,
			"componentType":5126,
			"count":264,
			"type":"VEC2"
		},
		{
			"bufferView":31,
			"componentType":5126,
			"count":1517,
			"max":[
				0.5145654082298279,
				0.4328998923301697,
				0.26045969128608704
			],
			"min":[
				-1.0724157094955444,
				-2.8223042488098145,
				-0.8299100995063782
			],
			"type":"VEC3"
		},
		{
			"bufferView":32,
			"componentType":5126,
			"count":1517,
			"type":"VEC3"
		},
		{
			"bufferView":33,
			"componentType":5126,
			"count":1517,
			"type":"VEC2"
		},
		{
			"bufferView":34,
			"componentType":5123,
			"count":2880,
			"type":"SCALAR"
		},
		{
			"bufferView":35,
			"componentType":5126,
			"count":227,
			"max":[
				-0.22341419756412506,
				-2.3299999237060547,
				0.5884522199630737
			],
			"min":[
				-0.31999391317367554,
				-2.430000066757202,
				0.508904218673706
			],
			"type":"VEC3"
		},
		{
			"bufferView":36,
			"componentType":5126,
			"count":227,
			"type":"VEC3"
		},
		{
			"bufferView":37,
			"componentType":5126,
			"count":227,
			"type":"VEC2"
		},
		{
			"bufferView":38,
			"componentType":5123,
			"count":384,
			"type":"SCALAR"
		},
		{
			"bufferView":39,
			"componentType":5126,
			"count":672,
			"max":[
				11.371500015258789,
				-1.622499942779541,
				4.678500175476074
			],
			"min":[
				-5.43149995803833,
				-1.7374999523162842,
				-10.011500358581543
			],
			"type":"VEC3"
		},
		{
			"bufferView":40,
			"componentType":5126,
			"count":672,
			"type":"VEC3"
		},
		{
			"bufferView":41,
			"componentType":5126,
			"count":672,
			"type":"VEC2"
		},
		{
			"bufferView":42,
			"componentType":5123,
			"count":1008,
			"type":"SCALAR"
		},
		{
			"bufferView":43,
			"componentType":5126,
			"count":120,
			"max":[
				0.15000000596046448,
				-1.3880000114440918,
				-1.0898000001907349
			],
			"min":[
				-1.100000023841858,
				-2.740000009536743,
				-1.389799952507019
			],
			"type":"VEC3"
		},
		{
			"bufferView":44,
			"componentType":5126,
			"count":120,
			"type":"VEC3"
		},
		{
			"bufferView":45,
			"componentType":5126,
			"count":120,
			"type":"VEC2"
		},
		{
			"bufferView":46,
			"componentType":5123,
			"count":180,
			"type":"SCALAR"
		},
		{
			"bufferView":47,
			"componentType":5126,
			"count":12,
			"max":[
				0.7319999933242798,
				-2.7730000019073486,
				1.0678000450134277
			],
			"min":[
				-1.2400000095367432,
				-2.7730000019073486,
				-1.4537999629974365
			],
			"type":"VEC3"
		},
		{
			"bufferView":48,
			"componentType":5126,
			"count":12,
			"type":"VEC3"
		},
		{
			"bufferView":49,
			"componentType":5126,
			"count":12,
			"type":"VEC2"
		},
		{
			"bufferView":50,
			"componentType":5123,
			"count":18,
			"type":"SCALAR"
		},
		{
			"bufferView":51,
			"componentType":5126,
			"count":110,
			"max":[
				-0.11900000274181366,
				-2.434999942779541,
				1.1518442630767822
			],
			"min":[
				-0.8009999990463257,
				-2.450000047683716,
				0.06855573505163193
			],
			"type":"VEC3"
		},
		{
			"bufferView":52,
			"componentType":5126,
			"count":110,
			"type":"VEC3"
		},
		{
			"bufferView":53,
			"componentType":5126,
			"count":110,
			"type":"VEC2"
		},
		{
			"bufferView":54,
			"componentType":5123,
			"count":216,
			"type":"SCALAR"
		},
		{
			"bufferView":55,
			"componentType":5126,
			"count":1260,
			"max":[
				13.430000305175781,
				20.200000762939453,
				8.600000381469727
			],
			"min":[
				-5.9070634841918945,
				-2.799999952316284,
				-8.5
			],
			"type":"VEC3"
		},
		{
			"bufferView":56,
			"componentType":5126,
			"count":1260,
			"type":"VEC3"
		},
		{
			"bufferView":57,
			"componentType":5126,
			"count":1260,
			"type":"VEC2"
		},
		{
			"bufferView":58,
			"componentType":5123,
			"count":2424,
			"type":"SCALAR"
		},
		{
			"bufferView":59,
			"componentType":5126,
			"count":1270,
			"max":[
				0.6292774081230164,
				-1.9390901327133179,
				-1.163314938545227
			],
			"min":[
				0.42811572551727295,
				-2.149784803390503,
				-1.3989489078521729
			],
			"type":"VEC3"
		},
		{
			"bufferView":60,
			"componentType":5126,
			"count":1270,
			"type":"VEC3"
		},
		{
			"bufferView":61,
			"componentType":5126,
			"count":1270,
			"type":"VEC2"
		},
		{
			"bufferView":62,
			"componentType":5123,
			"count":1890,
			"type":"SCALAR"
		},
		{
			"bufferView":63,
			"componentType":5126,
			"count":214,
			"max":[
				0.6200000047683716,
				-2.421999931335449,
				-1.0138115882873535
			],
			"min":[
				0.30000001192092896,
				-2.4649999141693115,
				-1.3257884979248047
			],
			"type":"VEC3"
		},
		{
			"bufferView":64,
			"componentType":5126,
			"count":214,
			"type":"VEC3"
		},
		{
			"bufferView":65,
			"componentType":5126,
			"count":214,
			"type":"VEC2"
		},
		{
			"bufferView":66,
			"componentType":5123,
			"count":336,
			"type":"SCALAR"
		},
		{
			"bufferView":67,
			"componentType":5126,
			"count":678,
			"max":[
				0.6579999923706055,
				-2.440000057220459,
				-0.9718000292778015
			],
			"min":[
				0.2619999945163727,
				-2.799999952316284,
				-1.367799997329712
			],
			"type":"VEC3"
		},
		{
			"bufferView":68,
			"componentType":5126,
			"count":678,
			"type":"VEC3"
		},
		{
			"bufferView":69,
			"componentType":5126,
			"count":678,
			"type":"VEC2"
		},
		{
			"bufferView":70,
			"componentType":5123,
			"count":1152,
			"type":"SCALAR"
		},
		{
			"bufferView":71,
			"componentType":5126,
			"count":256,
			"max":[
				0.5871118307113647,
				-1.9349662065505981,
				-1.185603141784668
			],
			"min":[
				0.4595212936401367,
				-2.4493045806884766,
				-1.3865549564361572
			],
			"type":"VEC3"
		},
		{
			"bufferView":72,
			"componentType":5126,
			"count":256,
			"type":"VEC3"
		},
		{
			"bufferView":73,
			"componentType":5126,
			"count":256,
			"type":"VEC2"
		},
		{
			"bufferView":74,
			"componentType":5123,
			"count":432,
			"type":"SCALAR"
		},
		{
			"bufferView":75,
			"componentType":5126,
			"count":672,
			"max":[
				11.374500274658203,
				-1.6139999628067017,
				4.718999862670898
			],
			"min":[
				-5.434500217437744,
				-1.746000051498413,
				-10.01449966430664
			],
			"type":"VEC3"
		},
		{
			"bufferView":76,
			"componentType":5126,
			"count":672,
			"type":"VEC3"
		},
		{
			"bufferView":77,
			"componentType":5126,
			"count":672,
			"type":"VEC2"
		},
		{
			"bufferView":78,
			"componentType":5126,
			"count":48,
			"max":[
				-0.10795217007398605,
				-2.436119318008423,
				0.8507606983184814
			],
			"min":[
				-0.8358545303344727,
				-2.818880558013916,
				0.3388992249965668
			],
			"type":"VEC3"
		},
		{
			"bufferView":79,
			"componentType":5126,
			"count":48,
			"type":"VEC3"
		},
		{
			"bufferView":80,
			"componentType":5126,
			"count":48,
			"type":"VEC2"
		},
		{
			"bufferView":81,
			"componentType":5123,
			"count":72,
			"type":"SCALAR"
		},
		{
			"bufferView":82,
			"componentType":5126,
			"count":48,
			"max":[
				0.5600000023841858,
				-0.3700000047683716,
				6.642000198364258
			],
			"min":[
				-0.5600000023841858,
				-0.7300000190734863,
				3.111999988555908
			],
			"type":"VEC3"
		},
		{
			"bufferView":83,
			"componentType":5126,
			"count":48,
			"type":"VEC3"
		},
		{
			"bufferView":84,
			"componentType":5126,
			"count":48,
			"type":"VEC2"
		},
		{
			"bufferView":85,
			"componentType":5123,
			"count":72,
			"type":"SCALAR"
		},
		{
			"bufferView":86,
			"componentType":5126,
			"count":192,
			"max":[
				0.7379999756813049,
				0.061000000685453415,
				6.636000156402588
			],
			"min":[
				-0.30000001192092896,
				-1.4889999628067017,
				-1.1030000448226929
			],
			"type":"VEC3"
		},
		{
			"bufferView":87,
			"componentType":5126,
			"count":192,
			"type":"VEC3"
		},
		{
			"bufferView":88,
			"componentType":5126,
			"count":192,
			"type":"VEC2"
		},
		{
			"bufferView":89,
			"componentType":5123,
			"count":288,
			"type":"SCALAR"
		},
		{
			"bufferView":90,
			"componentType":5126,
			"count":24,
			"max":[
				-2.759999990463257,
				-2.4000000953674316,
				-6.300000190734863
			],
			"min":[
				-3.0799999237060547,
				-2.799999952316284,
				-6.619999885559082
			],
			"type":"VEC3"
		},
		{
			"bufferView":91,
			"componentType":5126,
			"count":24,
			"type":"VEC3"
		},
		{
			"bufferView":92,
			"componentType":5126,
			"count":24,
			"type":"VEC2"
		},
		{
			"bufferView":93,
			"componentType":5126,
			"count":288,
			"max":[
				12.739999771118164,
				-0.5299999713897705,
				4.989999771118164
			],
			"min":[
				-12.199999809265137,
				-2.799999952316284,
				-4.989999771118164
			],
			"type":"VEC3"
		},
		{
			"bufferView":94,
			"componentType":5126,
			"count":288,
			"type":"VEC3"
		},
		{
			"bufferView":95,
			"componentType":5126,
			"count":288,
			"type":"VEC2"
		},
		{
			"bufferView":96,
			"componentType":5126,
			"count":336,
			"max":[
				1.4500000476837158,
				0.15000000596046448,
				-9.819999694824219
			],
			"min":[
				-1.4500000476837158,
				-2.799999952316284,
				-12.550000190734863
			],
			"type":"VEC3"
		},
		{
			"bufferView":97,
			"componentType":5126,
			"count":336,
			"type":"VEC3"
		},
		{
			"bufferView":98,
			"componentType":5126,
			"count":336,
			"type":"VEC2"
		},
		{
			"bufferView":99,
			"componentType":5123,
			"count":504,
			"type":"SCALAR"
		},
		{
			"bufferView":100,
			"componentType":5126,
			"count":24,
			"max":[
				-9.399999618530273,
				-2.25,
				-3.700000047683716
			],
			"min":[
				-9.899999618530273,
				-2.799999952316284,
				-4.199999809265137
			],
			"type":"VEC3"
		},
		{
			"bufferView":101,
			"componentType":5126,
			"count":24,
			"type":"VEC3"
		},
		{
			"bufferView":102,
			"componentType":5126,
			"count":24,
			"type":"VEC2"
		},
		{
			"bufferView":103,
			"componentType":5126,
			"count":24,
			"max":[
				0.3199999928474426,
				-2.259999990463257,
				0.05000000074505806
			],
			"min":[
				0.019999999552965164,
				-2.3350000381469727,
				-0.5099999904632568
			],
			"type":"VEC3"
		},
		{
			"bufferView":104,
			"componentType":5126,
			"count":24,
			"type":"VEC3"
		},
		{
			"bufferView":105,
			"componentType":5126,
			"count":24,
			"type":"VEC2"
		},
		{
			"bufferView":106,
			"componentType":5126,
			"count":24,
			"max":[
				-0.6399999856948853,
				-2.25,
				-0.75
			],
			"min":[
				-1.2200000286102295,
				-2.3350000381469727,
				-1.1100000143051147
			],
			"type":"VEC3"
		},
		{
			"bufferView":107,
			"componentType":5126,
			"count":24,
			"type":"VEC3"
		},
		{
			"bufferView":108,
			"componentType":5126,
			"count":24,
			"type":"VEC2"
		},
		{
			"bufferView":109,
			"componentType":5126,
			"count":72,
			"max":[
				0.3400000035762787,
				-2.3350000381469727,
				0.1899999976158142
			],
			"min":[
				-1.2999999523162842,
				-2.4000000953674316,
				-1.0700000524520874
			],
			"type":"VEC3"
		},
		{
			"bufferView":110,
			"componentType":5126,
			"count":72,
			"type":"VEC3"
		},
		{
			"bufferView":111,
			"componentType":5126,
			"count":72,
			"type":"VEC2"
		},
		{
			"bufferView":112,
			"componentType":5123,
			"count":108,
			"type":"SCALAR"
		},
		{
			"bufferView":113,
			"componentType":5126,
			"count":72,
			"max":[
				0.6600000262260437,
				-1.850000023841858,
				0.9702000021934509
			],
			"min":[
				-1.100000023841858,
				-2.799999952316284,
				-1.389799952507019
			],
			"type":"VEC3"
		},
		{
			"bufferView":114,
			"componentType":5126,
			"count":72,
			"type":"VEC3"
		},
		{
			"bufferView":115,
			"componentType":5126,
			"count":72,
			"type":"VEC2"
		},
		{
			"bufferView":116,
			"componentType":5126,
			"count":48,
			"max":[
				-0.9599999785423279,
				-2.25,
				0.09000000357627869
			],
			"min":[
				-10.600000381469727,
				-2.799999952316284,
				-4.099999904632568
			],
			"type":"VEC3"
		},
		{
			"bufferView":117,
			"componentType":5126,
			"count":48,
			"type":"VEC3"
		},
		{
			"bufferView":118,
			"componentType":5126,
			"count":48,
			"type":"VEC2"
		},
		{
			"bufferView":119,
			"componentType":5126,
			"count":552,
			"max":[
				13.4399995803833,
				0.10000000149011612,
				9
			],
			"min":[
				-13.649999618530273,
				-2.799999952316284,
				-12.449999809265137
			],
			"type":"VEC3"
		},
		{
			"bufferView":120,
			"componentType":5126,
			"count":552,
			"type":"VEC3"
		},
		{
			"bufferView":121,
			"componentType":5126,
			"count":552,
			"type":"VEC2"
		},
		{
			"bufferView":122,
			"componentType":5123,
			"count":828,
			"type":"SCALAR"
		},
		{
			"bufferView":123,
			"componentType":5126,
			"count":72,
			"max":[
				9.319999694824219,
				-1.2699999809265137,
				-7.159999847412109
			],
			"min":[
				8.579999923706055,
				-1.5199999809265137,
				-7.179999828338623
			],
			"type":"VEC3"
		},
		{
			"bufferView":124,
			"componentType":5126,
			"count":72,
			"type":"VEC3"
		},
		{
			"bufferView":125,
			"componentType":5126,
			"count":72,
			"type":"VEC2"
		},
		{
			"bufferView":126,
			"componentType":5126,
			"count":24,
			"max":[
				0.7599999904632568,
				-2.7780001163482666,
				0.9900000095367432
			],
			"min":[
				-1.7200000286102295,
				-2.7860000133514404,
				-1.4900000095367432
			],
			"type":"VEC3"
		},
		{
			"bufferView":127,
			"componentType":5126,
			"count":24,
			"type":"VEC3"
		},
		{
			"bufferView":128,
			"componentType":5126,
			"count":24,
			"type":"VEC2"
		},
		{
			"bufferView":129,
			"componentType":5126,
			"count":24,
			"max":[
				7.420000076293945,
				-2.359999895095825,
				-5.71999979019165
			],
			"min":[
				7.050000190734863,
				-2.7799999713897705,
				-6.090000152587891
			],
			"type":"VEC3"
		},
		{
			"bufferView":130,
			"componentType":5126,
			"count":24,
			"type":"VEC3"
		},
		{
			"bufferView":131,
			"componentType":5126,
			"count":24,
			"type":"VEC2"
		},
		{
			"bufferView":132,
			"componentType":5126,
			"count":24,
			"max":[
				13.399999618530273,
				-2.049999952316284,
				-0.6000000238418579
			],
			"min":[
				12.399999618530273,
				-2.799999952316284,
				-2.4000000953674316
			],
			"type":"VEC3"
		},
		{
			"bufferView":133,
			"componentType":5126,
			"count":24,
			"type":"VEC3"
		},
		{
			"bufferView":134,
			"componentType":5126,
			"count":24,
			"type":"VEC2"
		},
		{
			"bufferView":135,
			"componentType":5126,
			"count":96,
			"max":[
				13.449999809265137,
				-0.18000000715255737,
				4.949999809265137
			],
			"min":[
				-13.449999809265137,
				-0.5299999713897705,
				-4.949999809265137
			],
			"type":"VEC3"
		},
		{
			"bufferView":136,
			"componentType":5126,
			"count":96,
			"type":"VEC3"
		},
		{
			"bufferView":137,
			"componentType":5126,
			"count":96,
			"type":"VEC2"
		},
		{
			"bufferView":138,
			"componentType":5123,
			"count":144,
			"type":"SCALAR"
		},
		{
			"bufferView":139,
			"componentType":5126,
			"count":192,
			"max":[
				9.520000457763672,
				-0.3199999928474426,
				8.5
			],
			"min":[
				-13.199999809265137,
				-2.799999952316284,
				-7.260000228881836
			],
			"type":"VEC3"
		},
		{
			"bufferView":140,
			"componentType":5126,
			"count":192,
			"type":"VEC3"
		},
		{
			"bufferView":141,
			"componentType":5126,
			"count":192,
			"type":"VEC2"
		},
		{
			"bufferView":142,
			"componentType":5126,
			"count":96,
			"max":[
				0.28999999165534973,
				-2.3499999046325684,
				0.14000000059604645
			],
			"min":[
				-8.199999809265137,
				-2.799999952316284,
				-9.300000190734863
			],
			"type":"VEC3"
		},
		{
			"bufferView":143,
			"componentType":5126,
			"count":96,
			"type":"VEC3"
		},
		{
			"bufferView":144,
			"componentType":5126,
			"count":96,
			"type":"VEC2"
		},
		{
			"bufferView":145,
			"componentType":5126,
			"count":320,
			"max":[
				14.15999984741211,
				-2.7760000228881836,
				10.15999984741211
			],
			"min":[
				-14.15999984741211,
				-2.7760000228881836,
				-10.15999984741211
			],
			"type":"VEC3"
		},
		{
			"bufferView":146,
			"componentType":5126,
			"count":320,
			"type":"VEC3"
		},
		{
			"bufferView":147,
			"componentType":5126,
			"count":320,
			"type":"VEC2"
		},
		{
			"bufferView":148,
			"componentType":5123,
			"count":480,
			"type":"SCALAR"
		},
		{
			"bufferView":149,
			"componentType":5126,
			"count":384,
			"max":[
				13.805000305175781,
				-0.44999998807907104,
				9.805000305175781
			],
			"min":[
				-13.805000305175781,
				-0.8500000238418579,
				-9.805000305175781
			],
			"type":"VEC3"
		},
		{
			"bufferView":150,
			"componentType":5126,
			"count":384,
			"type":"VEC3"
		},
		{
			"bufferView":151,
			"componentType":5126,
			"count":384,
			"type":"VEC2"
		},
		{
			"bufferView":152,
			"componentType":5123,
			"count":576,
			"type":"SCALAR"
		},
		{
			"bufferView":153,
			"componentType":5126,
			"count":24,
			"max":[
				13.970000267028809,
				-2.799999952316284,
				9.970000267028809
			],
			"min":[
				-13.970000267028809,
				-2.9800000190734863,
				-9.970000267028809
			],
			"type":"VEC3"
		},
		{
			"bufferView":154,
			"componentType":5126,
			"count":24,
			"type":"VEC3"
		},
		{
			"bufferView":155,
			"componentType":5126,
			"count":24,
			"type":"VEC2"
		},
		{
			"bufferView":156,
			"componentType":5126,
			"count":504,
			"max":[
				3.1600000858306885,
				-0.15555556118488312,
				1.4600000381469727
			],
			"min":[
				-3.1600000858306885,
				-2.990000009536743,
				-3.1600000858306885
			],
			"type":"VEC3"
		},
		{
			"bufferView":157,
			"componentType":5126,
			"count":504,
			"type":"VEC3"
		},
		{
			"bufferView":158,
			"componentType":5126,
			"count":504,
			"type":"VEC2"
		},
		{
			"bufferView":159,
			"componentType":5123,
			"count":756,
			"type":"SCALAR"
		},
		{
			"bufferView":160,
			"componentType":5126,
			"count":1200,
			"max":[
				1.524999976158142,
				0.6844444274902344,
				1.3777999877929688
			],
			"min":[
				-1.524999976158142,
				-2.644444465637207,
				-1.5329999923706055
			],
			"type":"VEC3"
		},
		{
			"bufferView":161,
			"componentType":5126,
			"count":1200,
			"type":"VEC3"
		},
		{
			"bufferView":162,
			"componentType":5126,
			"count":1200,
			"type":"VEC2"
		},
		{
			"bufferView":163,
			"componentType":5123,
			"count":1800,
			"type":"SCALAR"
		},
		{
			"bufferView":164,
			"componentType":5126,
			"count":72,
			"max":[
				1.590000033378601,
				0.949999988079071,
				1.4600000381469727
			],
			"min":[
				-1.590000033378601,
				-2.799999952316284,
				-1.5449999570846558
			],
			"type":"VEC3"
		},
		{
			"bufferView":165,
			"componentType":5126,
			"count":72,
			"type":"VEC3"
		},
		{
			"bufferView":166,
			"componentType":5126,
			"count":72,
			"type":"VEC2"
		},
		{
			"bufferView":167,
			"componentType":5123,
			"count":108,
			"type":"SCALAR"
		},
		{
			"bufferView":168,
			"componentType":5126,
			"count":216,
			"max":[
				3.13700008392334,
				0.9200000166893005,
				1.4600000381469727
			],
			"min":[
				-3.13700008392334,
				-2.799999952316284,
				-1.5750000476837158
			],
			"type":"VEC3"
		},
		{
			"bufferView":169,
			"componentType":5126,
			"count":216,
			"type":"VEC3"
		},
		{
			"bufferView":170,
			"componentType":5126,
			"count":216,
			"type":"VEC2"
		},
		{
			"bufferView":171,
			"componentType":5123,
			"count":324,
			"type":"SCALAR"
		},
		{
			"bufferView":172,
			"componentType":5126,
			"count":72,
			"max":[
				3.1600000858306885,
				0,
				1.4600000381469727
			],
			"min":[
				-3.1600000858306885,
				-2.880000114440918,
				-3.1600000858306885
			],
			"type":"VEC3"
		},
		{
			"bufferView":173,
			"componentType":5126,
			"count":72,
			"type":"VEC3"
		},
		{
			"bufferView":174,
			"componentType":5126,
			"count":72,
			"type":"VEC2"
		},
		{
			"bufferView":175,
			"componentType":5126,
			"count":1992,
			"max":[
				14.050000190734863,
				-0.4000000059604645,
				10.050000190734863
			],
			"min":[
				-14.050000190734863,
				-2.799999952316284,
				-10.050000190734863
			],
			"type":"VEC3"
		},
		{
			"bufferView":176,
			"componentType":5126,
			"count":1992,
			"type":"VEC3"
		},
		{
			"bufferView":177,
			"componentType":5126,
			"count":1992,
			"type":"VEC2"
		},
		{
			"bufferView":178,
			"componentType":5123,
			"count":2988,
			"type":"SCALAR"
		},
		{
			"bufferView":179,
			"componentType":5126,
			"count":5452,
			"max":[
				13.649999618530273,
				0.4000000059604645,
				9.649999618530273
			],
			"min":[
				-13.649999618530273,
				-2.799999952316284,
				-9.649999618530273
			],
			"type":"VEC3"
		},
		{
			"bufferView":180,
			"componentType":5126,
			"count":5452,
			"type":"VEC3"
		},
		{
			"bufferView":181,
			"componentType":5126,
			"count":5452,
			"type":"VEC2"
		},
		{
			"bufferView":182,
			"componentType":5123,
			"count":8976,
			"type":"SCALAR"
		},
		{
			"bufferView":183,
			"componentType":5126,
			"count":456,
			"max":[
				5.431000232696533,
				-1.4800000190734863,
				9.649999618530273
			],
			"min":[
				-5.431000232696533,
				-2.690000057220459,
				-9.649999618530273
			],
			"type":"VEC3"
		},
		{
			"bufferView":184,
			"componentType":5126,
			"count":456,
			"type":"VEC3"
		},
		{
			"bufferView":185,
			"componentType":5126,
			"count":456,
			"type":"VEC2"
		},
		{
			"bufferView":186,
			"componentType":5123,
			"count":684,
			"type":"SCALAR"
		},
		{
			"bufferView":187,
			"componentType":5126,
			"count":1488,
			"max":[
				13.649999618530273,
				0.2199999988079071,
				9.649999618530273
			],
			"min":[
				-13.649999618530273,
				-2.799999952316284,
				-9.649999618530273
			],
			"type":"VEC3"
		},
		{
			"bufferView":188,
			"componentType":5126,
			"count":1488,
			"type":"VEC3"
		},
		{
			"bufferView":189,
			"componentType":5126,
			"count":1488,
			"type":"VEC2"
		},
		{
			"bufferView":190,
			"componentType":5123,
			"count":2232,
			"type":"SCALAR"
		},
		{
			"bufferView":191,
			"componentType":5126,
			"count":1392,
			"max":[
				14.024999618530273,
				0.4000000059604645,
				9.649999618530273
			],
			"min":[
				-14.024999618530273,
				-2.799999952316284,
				-10.024999618530273
			],
			"type":"VEC3"
		},
		{
			"bufferView":192,
			"componentType":5126,
			"count":1392,
			"type":"VEC3"
		},
		{
			"bufferView":193,
			"componentType":5126,
			"count":1392,
			"type":"VEC2"
		},
		{
			"bufferView":194,
			"componentType":5123,
			"count":2088,
			"type":"SCALAR"
		},
		{
			"bufferView":195,
			"componentType":5126,
			"count":72,
			"max":[
				3.0899999141693115,
				0.2199999988079071,
				6.75
			],
			"min":[
				0.7599999904632568,
				-2.799999952316284,
				4.460000038146973
			],
			"type":"VEC3"
		},
		{
			"bufferView":196,
			"componentType":5126,
			"count":72,
			"type":"VEC3"
		},
		{
			"bufferView":197,
			"componentType":5126,
			"count":72,
			"type":"VEC2"
		},
		{
			"bufferView":198,
			"componentType":5126,
			"count":456,
			"max":[
				13.649999618530273,
				0.4000000059604645,
				10.024999618530273
			],
			"min":[
				-13.649999618530273,
				-2.799999952316284,
				9.5649995803833
			],
			"type":"VEC3"
		},
		{
			"bufferView":199,
			"componentType":5126,
			"count":456,
			"type":"VEC3"
		},
		{
			"bufferView":200,
			"componentType":5126,
			"count":456,
			"type":"VEC2"
		},
		{
			"bufferView":201,
			"componentType":5126,
			"count":8,
			"max":[
				10.300000190734863,
				0.18199999630451202,
				-3.934999942779541
			],
			"min":[
				-10.470000267028809,
				0.18199999630451202,
				-6.610000133514404
			],
			"type":"VEC3"
		},
		{
			"bufferView":202,
			"componentType":5126,
			"count":8,
			"type":"VEC3"
		},
		{
			"bufferView":203,
			"componentType":5126,
			"count":8,
			"type":"VEC2"
		},
		{
			"bufferView":204,
			"componentType":5123,
			"count":12,
			"type":"SCALAR"
		},
		{
			"bufferView":205,
			"componentType":5126,
			"count":12,
			"max":[
				9.5,
				0.18199999630451202,
				4.71999979019165
			],
			"min":[
				-11,
				0.18199999630451202,
				-6.21999979019165
			],
			"type":"VEC3"
		},
		{
			"bufferView":206,
			"componentType":5126,
			"count":12,
			"type":"VEC3"
		},
		{
			"bufferView":207,
			"componentType":5126,
			"count":12,
			"type":"VEC2"
		},
		{
			"bufferView":208,
			"componentType":5126,
			"count":64,
			"max":[
				14.003999710083008,
				-0.8600000143051147,
				9.586000442504883
			],
			"min":[
				-13.586000442504883,
				-2.7200000286102295,
				-10.003999710083008
			],
			"type":"VEC3"
		},
		{
			"bufferView":209,
			"componentType":5126,
			"count":64,
			"type":"VEC3"
		},
		{
			"bufferView":210,
			"componentType":5126,
			"count":64,
			"type":"VEC2"
		},
		{
			"bufferView":211,
			"componentType":5123,
			"count":96,
			"type":"SCALAR"
		},
		{
			"bufferView":212,
			"componentType":5126,
			"count":28,
			"max":[
				11.75,
				-2.7715001106262207,
				6.864999771118164
			],
			"min":[
				-5.78000020980835,
				-2.7715001106262207,
				-10.244999885559082
			],
			"type":"VEC3"
		},
		{
			"bufferView":213,
			"componentType":5126,
			"count":28,
			"type":"VEC3"
		},
		{
			"bufferView":214,
			"componentType":5126,
			"count":28,
			"type":"VEC2"
		},
		{
			"bufferView":215,
			"componentType":5123,
			"count":42,
			"type":"SCALAR"
		}
	],
	"bufferViews":[
		{
			"buffer":0,
			"byteLength":288,
			"byteOffset":0,
			"target":34962
		},
		{
			"buffer":0,
			"byteLength":288,
			"byteOffset":288,
			"target":34962
		},
		{
			"buffer":0,
			"byteLength":192,
			"byteOffset":576,
			"target":34962
		},
		{
			"buffer":0,
			"byteLength":72,
			"byteOffset":768,
			"target":34963
		},
		{
			"buffer":0,
			"byteLength":8064,
			"byteOffset":840,
			"target":34962
		},
		{
			"buffer":0,
			"byteLength":8064,
			"byteOffset":8904,
			"target":34962
		},
		{
			"buffer":0,
			"byteLength":5376,
			"byteOffset":16968,
			"target":34962
		},
		{
			"buffer":0,
			"byteLength":2016,
			"byteOffset":22344,
			"target":34963
		},
		{
			"buffer":0,
			"byteLength":3168,
			"byteOffset":24360,
			"target":34962
		},
		{
			"buffer":0,
			"byteLength":3168,
			"byteOffset":27528,
			"target":34962
		},
		{
			"buffer":0,
			"byteLength":2112,
			"byteOffset":30696,
			"target":34962
		},
		{
			"buffer":0,
			"byteLength":792,
			"byteOffset":32808,
			"target":34963
		},
		{
			"buffer":0,
			"byteLength":3456,
			"byteOffset":33600,
			"target":34962
		},
		{
			"buffer":0,
			"byteLength":3456,
			"byteOffset":37056,
			"target":34962
		},
		{
			"buffer":0,
			"byteLength":2304,
			"byteOffset":40512,
			"target":34962
		},
		{
			"buffer":0,
			"byteLength":864,
			"byteOffset":42816,
			"target":34963
		},
		{
			"buffer":0,
			"byteLength":2016,
			"byteOffset":43680,
			"target":34962
		},
		{
			"buffer":0,
			"byteLength":2016,
			"byteOffset":45696,
			"target":34962
		},
		{
			"buffer":0,
			"byteLength":1344,
			"byteOffset":47712,
			"target":34962
		},
		{
			"buffer":0,
			"byteLength":504,
			"byteOffset":49056,
			"target":34963
		},
		{
			"buffer":0,
			"byteLength":3168,
			"byteOffset":49560,
			"target":34962
		},
		{
			"buffer":0,
			"byteLength":3168,
			"byteOffset":52728,
			"target":34962
		},
		{
			"buffer":0,
			"byteLength":2112,
			"byteOffset":55896,
			"target":34962
		},
		{
			"buffer":0,
			"byteLength":792,
			"byteOffset":58008,
			"target":34963
		},
		{
			"buffer":0,
			"byteLength":2304,
			"byteOffset":58800,
			"target":34962
		},
		{
			"buffer":0,
			"byteLength":2304,
			"byteOffset":61104,
			"target":34962
		},
		{
			"buffer":0,
			"byteLength":1536,
			"byteOffset":63408,
			"target":34962
		},
		{
			"buffer":0,
			"byteLength":576,
			"byteOffset":64944,
			"target":34963
		},
		{
			"buffer":0,
			"byteLength":3168,
			"byteOffset":65520,
			"target":34962
		},
		{
			"buffer":0,
			"byteLength":3168,
			"byteOffset":68688,
			"target":34962
		},
		{
			"buffer":0,
			"byteLength":2112,
			"byteOffset":71856,
			"target":34962
		},
		{
			"buffer":0,
			"byteLength":18204,
			"byteOffset":73968,
			"target":34962
		},
		{
			"buffer":0,
			"byteLength":18204,
			"byteOffset":92172,
			"target":34962
		},
		{
			"buffer":0,
			"byteLength":12136,
			"byteOffset":110376,
			"target":34962
		},
		{
			"buffer":0,
			"byteLength":5760,
			"byteOffset":122512,
			"target":34963
		},
		{
			"buffer":0,
			"byteLength":2724,
			"byteOffset":128272,
			"target":34962
		},
		{
			"buffer":0,
			"byteLength":2724,
			"byteOffset":130996,
			"target":34962
		},
		{
			"buffer":0,
			"byteLength":1816,
			"byteOffset":133720,
			"target":34962
		},
		{
			"buffer":0,
			"byteLength":768,
			"byteOffset":135536,
			"target":34963
		},
		{
			"buffer":0,
			"byteLength":8064,
			"byteOffset":136304,
			"target":34962
		},
		{
			"buffer":0,
			"byteLength":8064,
			"byteOffset":144368,
			"target":34962
		},
		{
			"buffer":0,
			"byteLength":5376,
			"byteOffset":152432,
			"target":34962
		},
		{
			"buffer":0,
			"byteLength":2016,
			"byteOffset":157808,
			"target":34963
		},
		{
			"buffer":0,
			"byteLength":1440,
			"byteOffset":159824,
			"target":34962
		},
		{
			"buffer":0,
			"byteLength":1440,
			"byteOffset":161264,
			"target":34962
		},
		{
			"buffer":0,
			"byteLength":960,
			"byteOffset":162704,
			"target":34962
		},
		{
			"buffer":0,
			"byteLength":360,
			"byteOffset":163664,
			"target":34963
		},
		{
			"buffer":0,
			"byteLength":144,
			"byteOffset":164024,
			"target":34962
		},
		{
			"buffer":0,
			"byteLength":144,
			"byteOffset":164168,
			"target":34962
		},
		{
			"buffer":0,
			"byteLength":96,
			"byteOffset":164312,
			"target":34962
		},
		{
			"buffer":0,
			"byteLength":36,
			"byteOffset":164408,
			"target":34963
		},
		{
			"buffer":0,
			"byteLength":1320,
			"byteOffset":164444,
			"target":34962
		},
		{
			"buffer":0,
			"byteLength":1320,
			"byteOffset":165764,
			"target":34962
		},
		{
			"buffer":0,
			"byteLength":880,
			"byteOffset":167084,
			"target":34962
		},
		{
			"buffer":0,
			"byteLength":432,
			"byteOffset":167964,
			"target":34963
		},
		{
			"buffer":0,
			"byteLength":15120,
			"byteOffset":168396,
			"target":34962
		},
		{
			"buffer":0,
			"byteLength":15120,
			"byteOffset":183516,
			"target":34962
		},
		{
			"buffer":0,
			"byteLength":10080,
			"byteOffset":198636,
			"target":34962
		},
		{
			"buffer":0,
			"byteLength":4848,
			"byteOffset":208716,
			"target":34963
		},
		{
			"buffer":0,
			"byteLength":15240,
			"byteOffset":213564,
			"target":34962
		},
		{
			"buffer":0,
			"byteLength":15240,
			"byteOffset":228804,
			"target":34962
		},
		{
			"buffer":0,
			"byteLength":10160,
			"byteOffset":244044,
			"target":34962
		},
		{
			"buffer":0,
			"byteLength":3780,
			"byteOffset":254204,
			"target":34963
		},
		{
			"buffer":0,
			"byteLength":2568,
			"byteOffset":257984,
			"target":34962
		},
		{
			"buffer":0,
			"byteLength":2568,
			"byteOffset":260552,
			"target":34962
		},
		{
			"buffer":0,
			"byteLength":1712,
			"byteOffset":263120,
			"target":34962
		},
		{
			"buffer":0,
			"byteLength":672,
			"byteOffset":264832,
			"target":34963
		},
		{
			"buffer":0,
			"byteLength":8136,
			"byteOffset":265504,
			"target":34962
		},
		{
			"buffer":0,
			"byteLength":8136,
			"byteOffset":273640,
			"target":34962
		},
		{
			"buffer":0,
			"byteLength":5424,
			"byteOffset":281776,
			"target":34962
		},
		{
			"buffer":0,
			"byteLength":2304,
			"byteOffset":287200,
			"target":34963
		},
		{
			"buffer":0,
			"byteLength":3072,
			"byteOffset":289504,
			"target":34962
		},
		{
			"buffer":0,
			"byteLength":3072,
			"byteOffset":292576,
			"target":34962
		},
		{
			"buffer":0,
			"byteLength":2048,
			"byteOffset":295648,
			"target":34962
		},
		{
			"buffer":0,
			"byteLength":864,
			"byteOffset":297696,
			"target":34963
		},
		{
			"buffer":0,
			"byteLength":8064,
			"byteOffset":298560,
			"target":34962
		},
		{
			"buffer":0,
			"byteLength":8064,
			"byteOffset":306624,
			"target":34962
		},
		{
			"buffer":0,
			"byteLength":5376,
			"byteOffset":314688,
			"target":34962
		},
		{
			"buffer":0,
			"byteLength":576,
			"byteOffset":320064,
			"target":34962
		},
		{
			"buffer":0,
			"byteLength":576,
			"byteOffset":320640,
			"target":34962
		},
		{
			"buffer":0,
			"byteLength":384,
			"byteOffset":321216,
			"target":34962
		},
		{
			"buffer":0,
			"byteLength":144,
			"byteOffset":321600,
			"target":34963
		},
		{
			"buffer":0,
			"byteLength":576,
			"byteOffset":321744,
			"target":34962
		},
		{
			"buffer":0,
			"byteLength":576,
			"byteOffset":322320,
			"target":34962
		},
		{
			"buffer":0,
			"byteLength":384,
			"byteOffset":322896,
			"target":34962
		},
		{
			"buffer":0,
			"byteLength":144,
			"byteOffset":323280,
			"target":34963
		},
		{
			"buffer":0,
			"byteLength":2304,
			"byteOffset":323424,
			"target":34962
		},
		{
			"buffer":0,
			"byteLength":2304,
			"byteOffset":325728,
			"target":34962
		},
		{
			"buffer":0,
			"byteLength":1536,
			"byteOffset":328032,
			"target":34962
		},
		{
			"buffer":0,
			"byteLength":576,
			"byteOffset":329568,
			"target":34963
		},
		{
			"buffer":0,
			"byteLength":288,
			"byteOffset":330144,
			"target":34962
		},
		{
			"buffer":0,
			"byteLength":288,
			"byteOffset":330432,
			"target":34962
		},
		{
			"buffer":0,
			"byteLength":192,
			"byteOffset":330720,
			"target":34962
		},
		{
			"buffer":0,
			"byteLength":3456,
			"byteOffset":330912,
			"target":34962
		},
		{
			"buffer":0,
			"byteLength":3456,
			"byteOffset":334368,
			"target":34962
		},
		{
			"buffer":0,
			"byteLength":2304,
			"byteOffset":337824,
			"target":34962
		},
		{
			"buffer":0,
			"byteLength":4032,
			"byteOffset":340128,
			"target":34962
		},
		{
			"buffer":0,
			"byteLength":4032,
			"byteOffset":344160,
			"target":34962
		},
		{
			"buffer":0,
			"byteLength":2688,
			"byteOffset":348192,
			"target":34962
		},
		{
			"buffer":0,
			"byteLength":1008,
			"byteOffset":350880,
			"target":34963
		},
		{
			"buffer":0,
			"byteLength":288,
			"byteOffset":351888,
			"target":34962
		},
		{
			"buffer":0,
			"byteLength":288,
			"byteOffset":352176,
			"target":34962
		},
		{
			"buffer":0,
			"byteLength":192,
			"byteOffset":352464,
			"target":34962
		},
		{
			"buffer":0,
			"byteLength":288,
			"byteOffset":352656,
			"target":34962
		},
		{
			"buffer":0,
			"byteLength":288,
			"byteOffset":352944,
			"target":34962
		},
		{
			"buffer":0,
			"byteLength":192,
			"byteOffset":353232,
			"target":34962
		},
		{
			"buffer":0,
			"byteLength":288,
			"byteOffset":353424,
			"target":34962
		},
		{
			"buffer":0,
			"byteLength":288,
			"byteOffset":353712,
			"target":34962
		},
		{
			"buffer":0,
			"byteLength":192,
			"byteOffset":354000,
			"target":34962
		},
		{
			"buffer":0,
			"byteLength":864,
			"byteOffset":354192,
			"target":34962
		},
		{
			"buffer":0,
			"byteLength":864,
			"byteOffset":355056,
			"target":34962
		},
		{
			"buffer":0,
			"byteLength":576,
			"byteOffset":355920,
			"target":34962
		},
		{
			"buffer":0,
			"byteLength":216,
			"byteOffset":356496,
			"target":34963
		},
		{
			"buffer":0,
			"byteLength":864,
			"byteOffset":356712,
			"target":34962
		},
		{
			"buffer":0,
			"byteLength":864,
			"byteOffset":357576,
			"target":34962
		},
		{
			"buffer":0,
			"byteLength":576,
			"byteOffset":358440,
			"target":34962
		},
		{
			"buffer":0,
			"byteLength":576,
			"byteOffset":359016,
			"target":34962
		},
		{
			"buffer":0,
			"byteLength":576,
			"byteOffset":359592,
			"target":34962
		},
		{
			"buffer":0,
			"byteLength":384,
			"byteOffset":360168,
			"target":34962
		},
		{
			"buffer":0,
			"byteLength":6624,
			"byteOffset":360552,
			"target":34962
		},
		{
			"buffer":0,
			"byteLength":6624,
			"byteOffset":367176,
			"target":34962
		},
		{
			"buffer":0,
			"byteLength":4416,
			"byteOffset":373800,
			"target":34962
		},
		{
			"buffer":0,
			"byteLength":1656,
			"byteOffset":378216,
			"target":34963
		},
		{
			"buffer":0,
			"byteLength":864,
			"byteOffset":379872,
			"target":34962
		},
		{
			"buffer":0,
			"byteLength":864,
			"byteOffset":380736,
			"target":34962
		},
		{
			"buffer":0,
			"byteLength":576,
			"byteOffset":381600,
			"target":34962
		},
		{
			"buffer":0,
			"byteLength":288,
			"byteOffset":382176,
			"target":34962
		},
		{
			"buffer":0,
			"byteLength":288,
			"byteOffset":382464,
			"target":34962
		},
		{
			"buffer":0,
			"byteLength":192,
			"byteOffset":382752,
			"target":34962
		},
		{
			"buffer":0,
			"byteLength":288,
			"byteOffset":382944,
			"target":34962
		},
		{
			"buffer":0,
			"byteLength":288,
			"byteOffset":383232,
			"target":34962
		},
		{
			"buffer":0,
			"byteLength":192,
			"byteOffset":383520,
			"target":34962
		},
		{
			"buffer":0,
			"byteLength":288,
			"byteOffset":383712,
			"target":34962
		},
		{
			"buffer":0,
			"byteLength":288,
			"byteOffset":384000,
			"target":34962
		},
		{
			"buffer":0,
			"byteLength":192,
			"byteOffset":384288,
			"target":34962
		},
		{
			"buffer":0,
			"byteLength":1152,
			"byteOffset":384480,
			"target":34962
		},
		{
			"buffer":0,
			"byteLength":1152,
			"byteOffset":385632,
			"target":34962
		},
		{
			"buffer":0,
			"byteLength":768,
			"byteOffset":386784,
			"target":34962
		},
		{
			"buffer":0,
			"byteLength":288,
			"byteOffset":387552,
			"target":34963
		},
		{
			"buffer":0,
			"byteLength":2304,
			"byteOffset":387840,
			"target":34962
		},
		{
			"buffer":0,
			"byteLength":2304,
			"byteOffset":390144,
			"target":34962
		},
		{
			"buffer":0,
			"byteLength":1536,
			"byteOffset":392448,
			"target":34962
		},
		{
			"buffer":0,
			"byteLength":1152,
			"byteOffset":393984,
			"target":34962
		},
		{
			"buffer":0,
			"byteLength":1152,
			"byteOffset":395136,
			"target":34962
		},
		{
			"buffer":0,
			"byteLength":768,
			"byteOffset":396288,
			"target":34962
		},
		{
			"buffer":0,
			"byteLength":3840,
			"byteOffset":397056,
			"target":34962
		},
		{
			"buffer":0,
			"byteLength":3840,
			"byteOffset":400896,
			"target":34962
		},
		{
			"buffer":0,
			"byteLength":2560,
			"byteOffset":404736,
			"target":34962
		},
		{
			"buffer":0,
			"byteLength":960,
			"byteOffset":407296,
			"target":34963
		},
		{
			"buffer":0,
			"byteLength":4608,
			"byteOffset":408256,
			"target":34962
		},
		{
			"buffer":0,
			"byteLength":4608,
			"byteOffset":412864,
			"target":34962
		},
		{
			"buffer":0,
			"byteLength":3072,
			"byteOffset":417472,
			"target":34962
		},
		{
			"buffer":0,
			"byteLength":1152,
			"byteOffset":420544,
			"target":34963
		},
		{
			"buffer":0,
			"byteLength":288,
			"byteOffset":421696,
			"target":34962
		},
		{
			"buffer":0,
			"byteLength":288,
			"byteOffset":421984,
			"target":34962
		},
		{
			"buffer":0,
			"byteLength":192,
			"byteOffset":422272,
			"target":34962
		},
		{
			"buffer":0,
			"byteLength":6048,
			"byteOffset":422464,
			"target":34962
		},
		{
			"buffer":0,
			"byteLength":6048,
			"byteOffset":428512,
			"target":34962
		},
		{
			"buffer":0,
			"byteLength":4032,
			"byteOffset":434560,
			"target":34962
		},
		{
			"buffer":0,
			"byteLength":1512,
			"byteOffset":438592,
			"target":34963
		},
		{
			"buffer":0,
			"byteLength":14400,
			"byteOffset":440104,
			"target":34962
		},
		{
			"buffer":0,
			"byteLength":14400,
			"byteOffset":454504,
			"target":34962
		},
		{
			"buffer":0,
			"byteLength":9600,
			"byteOffset":468904,
			"target":34962
		},
		{
			"buffer":0,
			"byteLength":3600,
			"byteOffset":478504,
			"target":34963
		},
		{
			"buffer":0,
			"byteLength":864,
			"byteOffset":482104,
			"target":34962
		},
		{
			"buffer":0,
			"byteLength":864,
			"byteOffset":482968,
			"target":34962
		},
		{
			"buffer":0,
			"byteLength":576,
			"byteOffset":483832,
			"target":34962
		},
		{
			"buffer":0,
			"byteLength":216,
			"byteOffset":484408,
			"target":34963
		},
		{
			"buffer":0,
			"byteLength":2592,
			"byteOffset":484624,
			"target":34962
		},
		{
			"buffer":0,
			"byteLength":2592,
			"byteOffset":487216,
			"target":34962
		},
		{
			"buffer":0,
			"byteLength":1728,
			"byteOffset":489808,
			"target":34962
		},
		{
			"buffer":0,
			"byteLength":648,
			"byteOffset":491536,
			"target":34963
		},
		{
			"buffer":0,
			"byteLength":864,
			"byteOffset":492184,
			"target":34962
		},
		{
			"buffer":0,
			"byteLength":864,
			"byteOffset":493048,
			"target":34962
		},
		{
			"buffer":0,
			"byteLength":576,
			"byteOffset":493912,
			"target":34962
		},
		{
			"buffer":0,
			"byteLength":23904,
			"byteOffset":494488,
			"target":34962
		},
		{
			"buffer":0,
			"byteLength":23904,
			"byteOffset":518392,
			"target":34962
		},
		{
			"buffer":0,
			"byteLength":15936,
			"byteOffset":542296,
			"target":34962
		},
		{
			"buffer":0,
			"byteLength":5976,
			"byteOffset":558232,
			"target":34963
		},
		{
			"buffer":0,
			"byteLength":65424,
			"byteOffset":564208,
			"target":34962
		},
		{
			"buffer":0,
			"byteLength":65424,
			"byteOffset":629632,
			"target":34962
		},
		{
			"buffer":0,
			"byteLength":43616,
			"byteOffset":695056,
			"target":34962
		},
		{
			"buffer":0,
			"byteLength":17952,
			"byteOffset":738672,
			"target":34963
		},
		{
			"buffer":0,
			"byteLength":5472,
			"byteOffset":756624,
			"target":34962
		},
		{
			"buffer":0,
			"byteLength":5472,
			"byteOffset":762096,
			"target":34962
		},
		{
			"buffer":0,
			"byteLength":3648,
			"byteOffset":767568,
			"target":34962
		},
		{
			"buffer":0,
			"byteLength":1368,
			"byteOffset":771216,
			"target":34963
		},
		{
			"buffer":0,
			"byteLength":17856,
			"byteOffset":772584,
			"target":34962
		},
		{
			"buffer":0,
			"byteLength":17856,
			"byteOffset":790440,
			"target":34962
		},
		{
			"buffer":0,
			"byteLength":11904,
			"byteOffset":808296,
			"target":34962
		},
		{
			"buffer":0,
			"byteLength":4464,
			"byteOffset":820200,
			"target":34963
		},
		{
			"buffer":0,
			"byteLength":16704,
			"byteOffset":824664,
			"target":34962
		},
		{
			"buffer":0,
			"byteLength":16704,
			"byteOffset":841368,
			"target":34962
		},
		{
			"buffer":0,
			"byteLength":11136,
			"byteOffset":858072,
			"target":34962
		},
		{
			"buffer":0,
			"byteLength":4176,
			"byteOffset":869208,
			"target":34963
		},
		{
			"buffer":0,
			"byteLength":864,
			"byteOffset":873384,
			"target":34962
		},
		{
			"buffer":0,
			"byteLength":864,
			"byteOffset":874248,
			"target":34962
		},
		{
			"buffer":0,
			"byteLength":576,
			"byteOffset":875112,
			"target":34962
		},
		{
			"buffer":0,
			"byteLength":5472,
			"byteOffset":875688,
			"target":34962
		},
		{
			"buffer":0,
			"byteLength":5472,
			"byteOffset":881160,
			"target":34962
		},
		{
			"buffer":0,
			"byteLength":3648,
			"byteOffset":886632,
			"target":34962
		},
		{
			"buffer":0,
			"byteLength":96,
			"byteOffset":890280,
			"target":34962
		},
		{
			"buffer":0,
			"byteLength":96,
			"byteOffset":890376,
			"target":34962
		},
		{
			"buffer":0,
			"byteLength":64,
			"byteOffset":890472,
			"target":34962
		},
		{
			"buffer":0,
			"byteLength":24,
			"byteOffset":890536,
			"target":34963
		},
		{
			"buffer":0,
			"byteLength":144,
			"byteOffset":890560,
			"target":34962
		},
		{
			"buffer":0,
			"byteLength":144,
			"byteOffset":890704,
			"target":34962
		},
		{
			"buffer":0,
			"byteLength":96,
			"byteOffset":890848,
			"target":34962
		},
		{
			"buffer":0,
			"byteLength":768,
			"byteOffset":890944,
			"target":34962
		},
		{
			"buffer":0,
			"byteLength":768,
			"byteOffset":891712,
			"target":34962
		},
		{
			"buffer":0,
			"byteLength":512,
			"byteOffset":892480,
			"target":34962
		},
		{
			"buffer":0,
			"byteLength":192,
			"byteOffset":892992,
			"target":34963
		},
		{
			"buffer":0,
			"byteLength":336,
			"byteOffset":893184,
			"target":34962
		},
		{
			"buffer":0,
			"byteLength":336,
			"byteOffset":893520,
			"target":34962
		},
		{
			"buffer":0,
			"byteLength":224,
			"byteOffset":893856,
			"target":34962
		},
		{
			"buffer":0,
			"byteLength":84,
			"byteOffset":894080,
			"target":34963
		}
	],
	"samplers":[
		{
			"magFilter":9729,
			"minFilter":9987
		}
	],
	"buffers":[
		{
			"byteLength":894164,
			"uri":"floor_b1.bin"
		}
	]
}
