{
	"asset":{
		"generator":"Khronos glTF Blender I/O v5.2.39",
		"version":"2.0"
	},
	"extensionsUsed":[
		"KHR_materials_transmission",
		"KHR_materials_specular",
		"KHR_materials_ior"
	],
	"scene":0,
	"scenes":[
		{
			"name":"Scene",
			"nodes":[
				0,
				1,
				2,
				3,
				4,
				5,
				6,
				7,
				8,
				9,
				10,
				11,
				12,
				13,
				14,
				15,
				16,
				17,
				18,
				19,
				20,
				21,
				22,
				23,
				24,
				25,
				26,
				27,
				28,
				29,
				30,
				31,
				32,
				33,
				34,
				35,
				36,
				37,
				38,
				39,
				40,
				41,
				42,
				43
			]
		}
	],
	"nodes":[
		{
			"mesh":0,
			"name":"ROOF_furnish_bakelite"
		},
		{
			"mesh":1,
			"name":"ROOF_furnish_chrome"
		},
		{
			"mesh":2,
			"name":"ROOF_furnish_fx_shadow"
		},
		{
			"mesh":3,
			"name":"ROOF_furnish_glassish"
		},
		{
			"mesh":4,
			"name":"ROOF_furnish_plant"
		},
		{
			"mesh":5,
			"name":"ROOF_furnish_soil"
		},
		{
			"mesh":6,
			"name":"ROOF_furnish_soot"
		},
		{
			"mesh":7,
			"name":"ROOF_furnish_terracotta"
		},
		{
			"mesh":8,
			"name":"ROOF_furnish_timber"
		},
		{
			"mesh":9,
			"name":"ROOF_furnish_trim"
		},
		{
			"mesh":10,
			"name":"ROOF_furnish_wood_dark"
		},
		{
			"mesh":11,
			"name":"ROOF_furniture_baluster-col"
		},
		{
			"mesh":12,
			"name":"ROOF_furniture_char-col"
		},
		{
			"mesh":13,
			"name":"ROOF_furniture_concrete-col"
		},
		{
			"mesh":14,
			"name":"ROOF_furniture_face_brick-col"
		},
		{
			"mesh":15,
			"name":"ROOF_furniture_glassish-col"
		},
		{
			"mesh":16,
			"name":"ROOF_furniture_handrail_wood-col"
		},
		{
			"mesh":17,
			"name":"ROOF_furniture_hull-colonly"
		},
		{
			"mesh":18,
			"name":"ROOF_furniture_limestone-col"
		},
		{
			"mesh":19,
			"name":"ROOF_furniture_metal-col"
		},
		{
			"mesh":20,
			"name":"ROOF_furniture_soil-col"
		},
		{
			"mesh":21,
			"name":"ROOF_furniture_soot-col"
		},
		{
			"mesh":22,
			"name":"ROOF_furniture_timber-col"
		},
		{
			"mesh":23,
			"name":"ROOF_furniture_wood_dark-col"
		},
		{
			"mesh":24,
			"name":"ROOF_fx_ao_decal"
		},
		{
			"mesh":25,
			"name":"ROOF_glazing-col"
		},
		{
			"mesh":26,
			"name":"ROOF_roof_vents"
		},
		{
			"mesh":27,
			"name":"ROOF_skylight-col"
		},
		{
			"mesh":28,
			"name":"ROOF_skyribs"
		},
		{
			"mesh":29,
			"name":"ROOF_slabs-col"
		},
		{
			"mesh":30,
			"name":"ROOF_stairs"
		},
		{
			"mesh":31,
			"name":"ROOF_stairs_bal"
		},
		{
			"mesh":32,
			"name":"ROOF_stairs_guard-colonly"
		},
		{
			"mesh":33,
			"name":"ROOF_stairs_rail"
		},
		{
			"mesh":34,
			"name":"ROOF_stairs_ramp-colonly"
		},
		{
			"mesh":35,
			"name":"ROOF_stone_trim-col"
		},
		{
			"mesh":36,
			"name":"ROOF_trim"
		},
		{
			"mesh":37,
			"name":"ROOF_walls-col"
		},
		{
			"mesh":38,
			"name":"ROOF_walls_brick-col"
		},
		{
			"mesh":39,
			"name":"ROOF_walls_cbrick-col"
		},
		{
			"mesh":40,
			"name":"ROOF_walls_conc-col"
		},
		{
			"mesh":41,
			"name":"ROOF_wear_fx_drip"
		},
		{
			"mesh":42,
			"name":"ROOF_wear_fx_scuff"
		},
		{
			"mesh":43,
			"name":"ROOF_wear_fx_traffic"
		}
	],
	"materials":[
		{
			"doubleSided":true,
			"name":"M_bakelite",
			"normalTexture":{
				"index":0,
				"scale":0.3499999940395355
			},
			"pbrMetallicRoughness":{
				"baseColorTexture":{
					"index":1
				},
				"metallicFactor":0,
				"metallicRoughnessTexture":{
					"index":2
				}
			}
		},
		{
			"doubleSided":true,
			"name":"M_chrome",
			"normalTexture":{
				"index":3,
				"scale":0.3499999940395355
			},
			"pbrMetallicRoughness":{
				"baseColorTexture":{
					"index":4
				},
				"metallicRoughnessTexture":{
					"index":5
				}
			}
		},
		{
			"alphaMode":"BLEND",
			"doubleSided":true,
			"extensions":{
				"KHR_materials_specular":{
					"specularFactor":0
				}
			},
			"name":"M_fx_shadow",
			"pbrMetallicRoughness":{
				"baseColorTexture":{
					"index":6
				},
				"metallicFactor":0
			}
		},
		{
			"alphaMode":"BLEND",
			"doubleSided":true,
			"extensions":{
				"KHR_materials_transmission":{
					"transmissionFactor":0.7200000286102295
				},
				"KHR_materials_ior":{
					"ior":1.4600000381469727
				}
			},
			"name":"M_glassish",
			"pbrMetallicRoughness":{
				"baseColorFactor":[
					0.7200000286102295,
					0.8399999737739563,
					0.8799999952316284,
					0.3199999928474426
				],
				"metallicFactor":0,
				"roughnessFactor":0.07999999821186066
			}
		},
		{
			"doubleSided":true,
			"name":"M_plant",
			"normalTexture":{
				"index":7,
				"scale":0.3499999940395355
			},
			"pbrMetallicRoughness":{
				"baseColorTexture":{
					"index":8
				},
				"metallicFactor":0,
				"metallicRoughnessTexture":{
					"index":9
				}
			}
		},
		{
			"doubleSided":true,
			"name":"M_soil",
			"normalTexture":{
				"index":10,
				"scale":0.3499999940395355
			},
			"pbrMetallicRoughness":{
				"baseColorTexture":{
					"index":11
				},
				"metallicFactor":0,
				"metallicRoughnessTexture":{
					"index":12
				}
			}
		},
		{
			"doubleSided":true,
			"name":"M_soot",
			"normalTexture":{
				"index":13,
				"scale":0.3499999940395355
			},
			"pbrMetallicRoughness":{
				"baseColorTexture":{
					"index":14
				},
				"metallicFactor":0,
				"metallicRoughnessTexture":{
					"index":15
				}
			}
		},
		{
			"doubleSided":true,
			"name":"M_terracotta",
			"normalTexture":{
				"index":16,
				"scale":0.3499999940395355
			},
			"pbrMetallicRoughness":{
				"baseColorTexture":{
					"index":17
				},
				"metallicFactor":0,
				"metallicRoughnessTexture":{
					"index":18
				}
			}
		},
		{
			"doubleSided":true,
			"name":"M_timber",
			"normalTexture":{
				"index":19,
				"scale":0.3499999940395355
			},
			"pbrMetallicRoughness":{
				"baseColorTexture":{
					"index":20
				},
				"metallicFactor":0,
				"metallicRoughnessTexture":{
					"index":21
				}
			}
		},
		{
			"doubleSided":true,
			"name":"M_trim",
			"normalTexture":{
				"index":22,
				"scale":0.3499999940395355
			},
			"pbrMetallicRoughness":{
				"baseColorTexture":{
					"index":23
				},
				"metallicFactor":0,
				"metallicRoughnessTexture":{
					"index":24
				}
			}
		},
		{
			"doubleSided":true,
			"name":"M_wood_dark",
			"normalTexture":{
				"index":25,
				"scale":0.3499999940395355
			},
			"pbrMetallicRoughness":{
				"baseColorTexture":{
					"index":26
				},
				"metallicFactor":0,
				"metallicRoughnessTexture":{
					"index":27
				}
			}
		},
		{
			"doubleSided":true,
			"name":"M_baluster",
			"normalTexture":{
				"index":28,
				"scale":0.3499999940395355
			},
			"pbrMetallicRoughness":{
				"baseColorTexture":{
					"index":29
				},
				"metallicFactor":0,
				"metallicRoughnessTexture":{
					"index":30
				}
			}
		},
		{
			"doubleSided":true,
			"name":"M_char",
			"pbrMetallicRoughness":{
				"baseColorFactor":[
					0.05999999865889549,
					0.054999999701976776,
					0.05000000074505806,
					1
				],
				"metallicFactor":0,
				"roughnessFactor":0.949999988079071
			}
		},
		{
			"doubleSided":true,
			"name":"M_concrete",
			"normalTexture":{
				"index":31,
				"scale":0.3499999940395355
			},
			"pbrMetallicRoughness":{
				"baseColorTexture":{
					"index":32
				},
				"metallicFactor":0,
				"metallicRoughnessTexture":{
					"index":33
				}
			}
		},
		{
			"doubleSided":true,
			"name":"M_face_brick",
			"normalTexture":{
				"index":34,
				"scale":0.3499999940395355
			},
			"pbrMetallicRoughness":{
				"baseColorTexture":{
					"index":35
				},
				"metallicFactor":0,
				"metallicRoughnessTexture":{
					"index":36
				}
			}
		},
		{
			"doubleSided":true,
			"name":"M_handrail_wood",
			"normalTexture":{
				"index":37,
				"scale":0.3499999940395355
			},
			"pbrMetallicRoughness":{
				"baseColorTexture":{
					"index":38
				},
				"metallicFactor":0,
				"metallicRoughnessTexture":{
					"index":39
				}
			}
		},
		{
			"doubleSided":true,
			"name":"M_slab",
			"normalTexture":{
				"index":40,
				"scale":0.3499999940395355
			},
			"pbrMetallicRoughness":{
				"baseColorTexture":{
					"index":41
				},
				"metallicFactor":0,
				"metallicRoughnessTexture":{
					"index":42
				}
			}
		},
		{
			"doubleSided":true,
			"name":"M_limestone",
			"normalTexture":{
				"index":43,
				"scale":0.3499999940395355
			},
			"pbrMetallicRoughness":{
				"baseColorTexture":{
					"index":44
				},
				"metallicFactor":0,
				"metallicRoughnessTexture":{
					"index":45
				}
			}
		},
		{
			"doubleSided":true,
			"name":"M_metal",
			"normalTexture":{
				"index":46,
				"scale":0.3499999940395355
			},
			"pbrMetallicRoughness":{
				"baseColorTexture":{
					"index":47
				},
				"metallicFactor":0.8999999761581421,
				"metallicRoughnessTexture":{
					"index":48
				}
			}
		},
		{
			"alphaMode":"BLEND",
			"doubleSided":true,
			"extensions":{
				"KHR_materials_specular":{
					"specularFactor":0
				}
			},
			"name":"M_fx_ao",
			"pbrMetallicRoughness":{
				"baseColorTexture":{
					"index":49
				},
				"metallicFactor":0
			}
		},
		{
			"doubleSided":true,
			"name":"M_stair",
			"normalTexture":{
				"index":50,
				"scale":0.3499999940395355
			},
			"pbrMetallicRoughness":{
				"baseColorTexture":{
					"index":51
				},
				"metallicFactor":0,
				"metallicRoughnessTexture":{
					"index":52
				}
			}
		},
		{
			"doubleSided":true,
			"name":"M_plaster",
			"normalTexture":{
				"index":53,
				"scale":0.3499999940395355
			},
			"pbrMetallicRoughness":{
				"baseColorTexture":{
					"index":54
				},
				"metallicFactor":0,
				"metallicRoughnessTexture":{
					"index":55
				}
			}
		},
		{
			"doubleSided":true,
			"name":"M_brick",
			"normalTexture":{
				"index":56,
				"scale":0.3499999940395355
			},
			"pbrMetallicRoughness":{
				"baseColorTexture":{
					"index":57
				},
				"metallicFactor":0,
				"metallicRoughnessTexture":{
					"index":58
				}
			}
		},
		{
			"doubleSided":true,
			"name":"M_common_brick",
			"normalTexture":{
				"index":59,
				"scale":0.3499999940395355
			},
			"pbrMetallicRoughness":{
				"baseColorTexture":{
					"index":60
				},
				"metallicFactor":0,
				"metallicRoughnessTexture":{
					"index":61
				}
			}
		},
		{
			"alphaMode":"BLEND",
			"doubleSided":true,
			"extensions":{
				"KHR_materials_specular":{
					"specularFactor":0
				}
			},
			"name":"M_fx_drip",
			"pbrMetallicRoughness":{
				"baseColorTexture":{
					"index":62
				},
				"metallicFactor":0
			}
		},
		{
			"alphaMode":"BLEND",
			"doubleSided":true,
			"extensions":{
				"KHR_materials_specular":{
					"specularFactor":0
				}
			},
			"name":"M_fx_scuff",
			"pbrMetallicRoughness":{
				"baseColorTexture":{
					"index":63
				},
				"metallicFactor":0
			}
		},
		{
			"alphaMode":"BLEND",
			"doubleSided":true,
			"extensions":{
				"KHR_materials_specular":{
					"specularFactor":0
				}
			},
			"name":"M_fx_traffic",
			"pbrMetallicRoughness":{
				"baseColorTexture":{
					"index":64
				},
				"metallicFactor":0
			}
		}
	],
	"meshes":[
		{
			"name":"ROOF_furnish_bakelite",
			"primitives":[
				{
					"attributes":{
						"POSITION":0,
						"NORMAL":1,
						"TEXCOORD_0":2
					},
					"indices":3,
					"material":0
				}
			]
		},
		{
			"name":"ROOF_furnish_chrome",
			"primitives":[
				{
					"attributes":{
						"POSITION":4,
						"NORMAL":5,
						"TEXCOORD_0":6
					},
					"indices":7,
					"material":1
				}
			]
		},
		{
			"name":"ROOF_furnish_fx_shadow",
			"primitives":[
				{
					"attributes":{
						"POSITION":8,
						"NORMAL":9,
						"TEXCOORD_0":10
					},
					"indices":11,
					"material":2
				}
			]
		},
		{
			"name":"ROOF_furnish_glassish",
			"primitives":[
				{
					"attributes":{
						"POSITION":12,
						"NORMAL":13,
						"TEXCOORD_0":14
					},
					"indices":15,
					"material":3
				}
			]
		},
		{
			"name":"ROOF_furnish_plant",
			"primitives":[
				{
					"attributes":{
						"POSITION":16,
						"NORMAL":17,
						"TEXCOORD_0":18
					},
					"indices":19,
					"material":4
				}
			]
		},
		{
			"name":"ROOF_furnish_soil",
			"primitives":[
				{
					"attributes":{
						"POSITION":20,
						"NORMAL":21,
						"TEXCOORD_0":22
					},
					"indices":23,
					"material":5
				}
			]
		},
		{
			"name":"ROOF_furnish_soot",
			"primitives":[
				{
					"attributes":{
						"POSITION":24,
						"NORMAL":25,
						"TEXCOORD_0":26
					},
					"indices":27,
					"material":6
				}
			]
		},
		{
			"name":"ROOF_furnish_terracotta",
			"primitives":[
				{
					"attributes":{
						"POSITION":28,
						"NORMAL":29,
						"TEXCOORD_0":30
					},
					"indices":31,
					"material":7
				}
			]
		},
		{
			"name":"ROOF_furnish_timber",
			"primitives":[
				{
					"attributes":{
						"POSITION":32,
						"NORMAL":33,
						"TEXCOORD_0":34
					},
					"indices":35,
					"material":8
				}
			]
		},
		{
			"name":"ROOF_furnish_trim",
			"primitives":[
				{
					"attributes":{
						"POSITION":36,
						"NORMAL":37,
						"TEXCOORD_0":38
					},
					"indices":7,
					"material":9
				}
			]
		},
		{
			"name":"ROOF_furnish_wood_dark",
			"primitives":[
				{
					"attributes":{
						"POSITION":39,
						"NORMAL":40,
						"TEXCOORD_0":41
					},
					"indices":42,
					"material":10
				}
			]
		},
		{
			"name":"ROOF_furniture_baluster-col",
			"primitives":[
				{
					"attributes":{
						"POSITION":43,
						"NORMAL":44,
						"TEXCOORD_0":45
					},
					"indices":46,
					"material":11
				}
			]
		},
		{
			"name":"ROOF_furniture_char-col",
			"primitives":[
				{
					"attributes":{
						"POSITION":47,
						"NORMAL":48,
						"TEXCOORD_0":49
					},
					"indices":50,
					"material":12
				}
			]
		},
		{
			"name":"ROOF_furniture_concrete-col",
			"primitives":[
				{
					"attributes":{
						"POSITION":51,
						"NORMAL":52,
						"TEXCOORD_0":53
					},
					"indices":54,
					"material":13
				}
			]
		},
		{
			"name":"ROOF_furniture_face_brick-col",
			"primitives":[
				{
					"attributes":{
						"POSITION":55,
						"NORMAL":56,
						"TEXCOORD_0":57
					},
					"indices":58,
					"material":14
				}
			]
		},
		{
			"name":"ROOF_furniture_glassish-col",
			"primitives":[
				{
					"attributes":{
						"POSITION":59,
						"NORMAL":60,
						"TEXCOORD_0":61
					},
					"indices":50,
					"material":3
				}
			]
		},
		{
			"name":"ROOF_furniture_handrail_wood-col",
			"primitives":[
				{
					"attributes":{
						"POSITION":62,
						"NORMAL":63,
						"TEXCOORD_0":64
					},
					"indices":58,
					"material":15
				}
			]
		},
		{
			"name":"ROOF_furniture_hull-colonly",
			"primitives":[
				{
					"attributes":{
						"POSITION":65,
						"NORMAL":66,
						"TEXCOORD_0":67
					},
					"indices":68,
					"material":16
				}
			]
		},
		{
			"name":"ROOF_furniture_limestone-col",
			"primitives":[
				{
					"attributes":{
						"POSITION":69,
						"NORMAL":70,
						"TEXCOORD_0":71
					},
					"indices":72,
					"material":17
				}
			]
		},
		{
			"name":"ROOF_furniture_metal-col",
			"primitives":[
				{
					"attributes":{
						"POSITION":73,
						"NORMAL":74,
						"TEXCOORD_0":75
					},
					"indices":76,
					"material":18
				}
			]
		},
		{
			"name":"ROOF_furniture_soil-col",
			"primitives":[
				{
					"attributes":{
						"POSITION":77,
						"NORMAL":78,
						"TEXCOORD_0":79
					},
					"indices":80,
					"material":5
				}
			]
		},
		{
			"name":"ROOF_furniture_soot-col",
			"primitives":[
				{
					"attributes":{
						"POSITION":81,
						"NORMAL":82,
						"TEXCOORD_0":83
					},
					"indices":54,
					"material":6
				}
			]
		},
		{
			"name":"ROOF_furniture_timber-col",
			"primitives":[
				{
					"attributes":{
						"POSITION":84,
						"NORMAL":85,
						"TEXCOORD_0":86
					},
					"indices":87,
					"material":8
				}
			]
		},
		{
			"name":"ROOF_furniture_wood_dark-col",
			"primitives":[
				{
					"attributes":{
						"POSITION":88,
						"NORMAL":89,
						"TEXCOORD_0":90
					},
					"indices":91,
					"material":10
				}
			]
		},
		{
			"name":"ROOF_fx_ao_decal",
			"primitives":[
				{
					"attributes":{
						"POSITION":92,
						"NORMAL":93,
						"TEXCOORD_0":94
					},
					"indices":95,
					"material":19
				}
			]
		},
		{
			"name":"ROOF_glazing-col",
			"primitives":[
				{
					"attributes":{
						"POSITION":96,
						"NORMAL":97,
						"TEXCOORD_0":98
					},
					"indices":99,
					"material":3
				}
			]
		},
		{
			"name":"ROOF_roof_vents",
			"primitives":[
				{
					"attributes":{
						"POSITION":100,
						"NORMAL":101,
						"TEXCOORD_0":102
					},
					"indices":103,
					"material":18
				}
			]
		},
		{
			"name":"ROOF_skylight-col",
			"primitives":[
				{
					"attributes":{
						"POSITION":104,
						"NORMAL":105,
						"TEXCOORD_0":106
					},
					"indices":54,
					"material":3
				}
			]
		},
		{
			"name":"ROOF_skyribs",
			"primitives":[
				{
					"attributes":{
						"POSITION":107,
						"NORMAL":108,
						"TEXCOORD_0":109
					},
					"indices":110,
					"material":18
				}
			]
		},
		{
			"name":"ROOF_slabs-col",
			"primitives":[
				{
					"attributes":{
						"POSITION":111,
						"NORMAL":112,
						"TEXCOORD_0":113
					},
					"indices":114,
					"material":16
				}
			]
		},
		{
			"name":"ROOF_stairs",
			"primitives":[
				{
					"attributes":{
						"POSITION":115,
						"NORMAL":116,
						"TEXCOORD_0":117
					},
					"indices":54,
					"material":20
				}
			]
		},
		{
			"name":"ROOF_stairs_bal",
			"primitives":[
				{
					"attributes":{
						"POSITION":118,
						"NORMAL":119,
						"TEXCOORD_0":120
					},
					"indices":121,
					"material":11
				}
			]
		},
		{
			"name":"ROOF_stairs_guard-colonly",
			"primitives":[
				{
					"attributes":{
						"POSITION":122,
						"NORMAL":123,
						"TEXCOORD_0":124
					},
					"indices":54,
					"material":20
				}
			]
		},
		{
			"name":"ROOF_stairs_rail",
			"primitives":[
				{
					"attributes":{
						"POSITION":125,
						"NORMAL":126,
						"TEXCOORD_0":127
					},
					"indices":80,
					"material":15
				}
			]
		},
		{
			"name":"ROOF_stairs_ramp-colonly",
			"primitives":[
				{
					"attributes":{
						"POSITION":128,
						"NORMAL":129,
						"TEXCOORD_0":130
					},
					"indices":54,
					"material":20
				}
			]
		},
		{
			"name":"ROOF_stone_trim-col",
			"primitives":[
				{
					"attributes":{
						"POSITION":131,
						"NORMAL":132,
						"TEXCOORD_0":133
					},
					"indices":80,
					"material":17
				}
			]
		},
		{
			"name":"ROOF_trim",
			"primitives":[
				{
					"attributes":{
						"POSITION":134,
						"NORMAL":135,
						"TEXCOORD_0":136
					},
					"indices":137,
					"material":9
				}
			]
		},
		{
			"name":"ROOF_walls-col",
			"primitives":[
				{
					"attributes":{
						"POSITION":138,
						"NORMAL":139,
						"TEXCOORD_0":140
					},
					"indices":121,
					"material":21
				}
			]
		},
		{
			"name":"ROOF_walls_brick-col",
			"primitives":[
				{
					"attributes":{
						"POSITION":141,
						"NORMAL":142,
						"TEXCOORD_0":143
					},
					"indices":99,
					"material":22
				}
			]
		},
		{
			"name":"ROOF_walls_cbrick-col",
			"primitives":[
				{
					"attributes":{
						"POSITION":144,
						"NORMAL":145,
						"TEXCOORD_0":146
					},
					"indices":54,
					"material":23
				}
			]
		},
		{
			"name":"ROOF_walls_conc-col",
			"primitives":[
				{
					"attributes":{
						"POSITION":147,
						"NORMAL":148,
						"TEXCOORD_0":149
					},
					"indices":150,
					"material":13
				}
			]
		},
		{
			"name":"ROOF_wear_fx_drip",
			"primitives":[
				{
					"attributes":{
						"POSITION":151,
						"NORMAL":152,
						"TEXCOORD_0":153
					},
					"indices":154,
					"material":24
				}
			]
		},
		{
			"name":"ROOF_wear_fx_scuff",
			"primitives":[
				{
					"attributes":{
						"POSITION":155,
						"NORMAL":156,
						"TEXCOORD_0":157
					},
					"indices":158,
					"material":25
				}
			]
		},
		{
			"name":"ROOF_wear_fx_traffic",
			"primitives":[
				{
					"attributes":{
						"POSITION":159,
						"NORMAL":160,
						"TEXCOORD_0":161
					},
					"indices":162,
					"material":26
				}
			]
		}
	],
	"textures":[
		{
			"sampler":0,
			"source":0
		},
		{
			"sampler":0,
			"source":1
		},
		{
			"sampler":0,
			"source":2
		},
		{
			"sampler":0,
			"source":3
		},
		{
			"sampler":0,
			"source":4
		},
		{
			"sampler":0,
			"source":5
		},
		{
			"sampler":0,
			"source":6
		},
		{
			"sampler":0,
			"source":7
		},
		{
			"sampler":0,
			"source":8
		},
		{
			"sampler":0,
			"source":9
		},
		{
			"sampler":0,
			"source":10
		},
		{
			"sampler":0,
			"source":11
		},
		{
			"sampler":0,
			"source":12
		},
		{
			"sampler":0,
			"source":13
		},
		{
			"sampler":0,
			"source":14
		},
		{
			"sampler":0,
			"source":15
		},
		{
			"sampler":0,
			"source":16
		},
		{
			"sampler":0,
			"source":17
		},
		{
			"sampler":0,
			"source":18
		},
		{
			"sampler":0,
			"source":19
		},
		{
			"sampler":0,
			"source":20
		},
		{
			"sampler":0,
			"source":21
		},
		{
			"sampler":0,
			"source":22
		},
		{
			"sampler":0,
			"source":23
		},
		{
			"sampler":0,
			"source":24
		},
		{
			"sampler":0,
			"source":25
		},
		{
			"sampler":0,
			"source":26
		},
		{
			"sampler":0,
			"source":27
		},
		{
			"sampler":0,
			"source":22
		},
		{
			"sampler":0,
			"source":23
		},
		{
			"sampler":0,
			"source":24
		},
		{
			"sampler":0,
			"source":28
		},
		{
			"sampler":0,
			"source":29
		},
		{
			"sampler":0,
			"source":30
		},
		{
			"sampler":0,
			"source":31
		},
		{
			"sampler":0,
			"source":32
		},
		{
			"sampler":0,
			"source":33
		},
		{
			"sampler":0,
			"source":25
		},
		{
			"sampler":0,
			"source":26
		},
		{
			"sampler":0,
			"source":27
		},
		{
			"sampler":0,
			"source":28
		},
		{
			"sampler":0,
			"source":34
		},
		{
			"sampler":0,
			"source":35
		},
		{
			"sampler":0,
			"source":36
		},
		{
			"sampler":0,
			"source":37
		},
		{
			"sampler":0,
			"source":38
		},
		{
			"sampler":0,
			"source":39
		},
		{
			"sampler":0,
			"source":40
		},
		{
			"sampler":0,
			"source":41
		},
		{
			"sampler":0,
			"source":42
		},
		{
			"sampler":0,
			"source":43
		},
		{
			"sampler":0,
			"source":44
		},
		{
			"sampler":0,
			"source":45
		},
		{
			"sampler":0,
			"source":46
		},
		{
			"sampler":0,
			"source":47
		},
		{
			"sampler":0,
			"source":48
		},
		{
			"sampler":0,
			"source":49
		},
		{
			"sampler":0,
			"source":50
		},
		{
			"sampler":0,
			"source":51
		},
		{
			"sampler":0,
			"source":52
		},
		{
			"sampler":0,
			"source":53
		},
		{
			"sampler":0,
			"source":54
		},
		{
			"sampler":0,
			"source":55
		},
		{
			"sampler":0,
			"source":56
		},
		{
			"sampler":0,
			"source":57
		}
	],
	"images":[
		{
			"mimeType":"image/png",
			"name":"T_library_appliances_bakelite_normal",
			"uri":"textures/T_library_appliances_bakelite_normal.png"
		},
		{
			"mimeType":"image/png",
			"name":"T_library_appliances_bakelite_albedo",
			"uri":"textures/T_library_appliances_bakelite_albedo.png"
		},
		{
			"mimeType":"image/png",
			"name":"T_library_appliances_bakelite_rough",
			"uri":"textures/T_library_appliances_bakelite_rough.png"
		},
		{
			"mimeType":"image/png",
			"name":"T_library_appliances_brushed_steel_normal",
			"uri":"textures/T_library_appliances_brushed_steel_normal.png"
		},
		{
			"mimeType":"image/png",
			"name":"T_library_appliances_brushed_steel_albedo",
			"uri":"textures/T_library_appliances_brushed_steel_albedo.png"
		},
		{
			"mimeType":"image/png",
			"name":"T_library_appliances_brushed_steel_rough",
			"uri":"textures/T_library_appliances_brushed_steel_rough.png"
		},
		{
			"mimeType":"image/png",
			"name":"T_fx_fx_shadow",
			"uri":"textures/T_fx_fx_shadow.png"
		},
		{
			"mimeType":"image/png",
			"name":"T_library_organic_leaf_surface_normal",
			"uri":"textures/T_library_organic_leaf_surface_normal.png"
		},
		{
			"mimeType":"image/png",
			"name":"T_library_organic_leaf_surface_albedo",
			"uri":"textures/T_library_organic_leaf_surface_albedo.png"
		},
		{
			"mimeType":"image/png",
			"name":"T_library_organic_leaf_surface_rough",
			"uri":"textures/T_library_organic_leaf_surface_rough.png"
		},
		{
			"mimeType":"image/png",
			"name":"T_generated_soil_normal",
			"uri":"textures/T_generated_soil_normal.png"
		},
		{
			"mimeType":"image/png",
			"name":"T_generated_soil_albedo",
			"uri":"textures/T_generated_soil_albedo.png"
		},
		{
			"mimeType":"image/png",
			"name":"T_generated_soil_rough",
			"uri":"textures/T_generated_soil_rough.png"
		},
		{
			"mimeType":"image/png",
			"name":"T_library_damage_charred_surface_normal",
			"uri":"textures/T_library_damage_charred_surface_normal.png"
		},
		{
			"mimeType":"image/png",
			"name":"T_library_damage_charred_surface_worn_soot_albedo",
			"uri":"textures/T_library_damage_charred_surface_worn_soot_albedo.png"
		},
		{
			"mimeType":"image/png",
			"name":"T_library_damage_charred_surface_worn_soot_rough",
			"uri":"textures/T_library_damage_charred_surface_worn_soot_rough.png"
		},
		{
			"mimeType":"image/png",
			"name":"T_generated_terracotta_normal",
			"uri":"textures/T_generated_terracotta_normal.png"
		},
		{
			"mimeType":"image/png",
			"name":"T_generated_terracotta_albedo",
			"uri":"textures/T_generated_terracotta_albedo.png"
		},
		{
			"mimeType":"image/png",
			"name":"T_generated_terracotta_rough",
			"uri":"textures/T_generated_terracotta_rough.png"
		},
		{
			"mimeType":"image/png",
			"name":"T_generated_timber_normal",
			"uri":"textures/T_generated_timber_normal.png"
		},
		{
			"mimeType":"image/png",
			"name":"T_generated_timber_albedo",
			"uri":"textures/T_generated_timber_albedo.png"
		},
		{
			"mimeType":"image/png",
			"name":"T_generated_timber_rough",
			"uri":"textures/T_generated_timber_rough.png"
		},
		{
			"mimeType":"image/png",
			"name":"T_library_architectural_painted_trim_normal",
			"uri":"textures/T_library_architectural_painted_trim_normal.png"
		},
		{
			"mimeType":"image/png",
			"name":"T_library_architectural_painted_trim_albedo",
			"uri":"textures/T_library_architectural_painted_trim_albedo.png"
		},
		{
			"mimeType":"image/png",
			"name":"T_library_architectural_painted_trim_rough",
			"uri":"textures/T_library_architectural_painted_trim_rough.png"
		},
		{
			"mimeType":"image/png",
			"name":"T_library_furniture_walnut_normal",
			"uri":"textures/T_library_furniture_walnut_normal.png"
		},
		{
			"mimeType":"image/png",
			"name":"T_library_furniture_walnut_albedo",
			"uri":"textures/T_library_furniture_walnut_albedo.png"
		},
		{
			"mimeType":"image/png",
			"name":"T_library_furniture_walnut_rough",
			"uri":"textures/T_library_furniture_walnut_rough.png"
		},
		{
			"mimeType":"image/png",
			"name":"T_generated_concrete_normal",
			"uri":"textures/T_generated_concrete_normal.png"
		},
		{
			"mimeType":"image/png",
			"name":"T_generated_concrete_worn_concrete_albedo",
			"uri":"textures/T_generated_concrete_worn_concrete_albedo.png"
		},
		{
			"mimeType":"image/png",
			"name":"T_generated_concrete_worn_concrete_rough",
			"uri":"textures/T_generated_concrete_worn_concrete_rough.png"
		},
		{
			"mimeType":"image/png",
			"name":"T_generated_face_brick_normal",
			"uri":"textures/T_generated_face_brick_normal.png"
		},
		{
			"mimeType":"image/png",
			"name":"T_generated_face_brick_albedo",
			"uri":"textures/T_generated_face_brick_albedo.png"
		},
		{
			"mimeType":"image/png",
			"name":"T_generated_face_brick_rough",
			"uri":"textures/T_generated_face_brick_rough.png"
		},
		{
			"mimeType":"image/png",
			"name":"T_generated_concrete_albedo",
			"uri":"textures/T_generated_concrete_albedo.png"
		},
		{
			"mimeType":"image/png",
			"name":"T_generated_concrete_rough",
			"uri":"textures/T_generated_concrete_rough.png"
		},
		{
			"mimeType":"image/png",
			"name":"T_generated_limestone_normal",
			"uri":"textures/T_generated_limestone_normal.png"
		},
		{
			"mimeType":"image/png",
			"name":"T_generated_limestone_albedo",
			"uri":"textures/T_generated_limestone_albedo.png"
		},
		{
			"mimeType":"image/png",
			"name":"T_generated_limestone_rough",
			"uri":"textures/T_generated_limestone_rough.png"
		},
		{
			"mimeType":"image/png",
			"name":"T_library_appliances_galvanized_metal_normal",
			"uri":"textures/T_library_appliances_galvanized_metal_normal.png"
		},
		{
			"mimeType":"image/png",
			"name":"T_library_appliances_galvanized_metal_worn_metal_albedo",
			"uri":"textures/T_library_appliances_galvanized_metal_worn_metal_albedo.png"
		},
		{
			"mimeType":"image/png",
			"name":"T_library_appliances_galvanized_metal_worn_metal_rough",
			"uri":"textures/T_library_appliances_galvanized_metal_worn_metal_rough.png"
		},
		{
			"mimeType":"image/png",
			"name":"T_fx_fx_ao",
			"uri":"textures/T_fx_fx_ao.png"
		},
		{
			"mimeType":"image/png",
			"name":"T_library_architectural_worn_stair_stone_normal",
			"uri":"textures/T_library_architectural_worn_stair_stone_normal.png"
		},
		{
			"mimeType":"image/png",
			"name":"T_library_architectural_worn_stair_stone_albedo",
			"uri":"textures/T_library_architectural_worn_stair_stone_albedo.png"
		},
		{
			"mimeType":"image/png",
			"name":"T_library_architectural_worn_stair_stone_rough",
			"uri":"textures/T_library_architectural_worn_stair_stone_rough.png"
		},
		{
			"mimeType":"image/png",
			"name":"T_generated_plaster_normal",
			"uri":"textures/T_generated_plaster_normal.png"
		},
		{
			"mimeType":"image/png",
			"name":"T_generated_plaster_worn_plaster_albedo",
			"uri":"textures/T_generated_plaster_worn_plaster_albedo.png"
		},
		{
			"mimeType":"image/png",
			"name":"T_generated_plaster_worn_plaster_rough",
			"uri":"textures/T_generated_plaster_worn_plaster_rough.png"
		},
		{
			"mimeType":"image/png",
			"name":"T_generated_brick_normal",
			"uri":"textures/T_generated_brick_normal.png"
		},
		{
			"mimeType":"image/png",
			"name":"T_generated_brick_albedo",
			"uri":"textures/T_generated_brick_albedo.png"
		},
		{
			"mimeType":"image/png",
			"name":"T_generated_brick_rough",
			"uri":"textures/T_generated_brick_rough.png"
		},
		{
			"mimeType":"image/png",
			"name":"T_generated_common_brick_normal",
			"uri":"textures/T_generated_common_brick_normal.png"
		},
		{
			"mimeType":"image/png",
			"name":"T_generated_common_brick_albedo",
			"uri":"textures/T_generated_common_brick_albedo.png"
		},
		{
			"mimeType":"image/png",
			"name":"T_generated_common_brick_rough",
			"uri":"textures/T_generated_common_brick_rough.png"
		},
		{
			"mimeType":"image/png",
			"name":"T_fx_fx_drip",
			"uri":"textures/T_fx_fx_drip.png"
		},
		{
			"mimeType":"image/png",
			"name":"T_fx_fx_scuff",
			"uri":"textures/T_fx_fx_scuff.png"
		},
		{
			"mimeType":"image/png",
			"name":"T_fx_fx_traffic",
			"uri":"textures/T_fx_fx_traffic.png"
		}
	],
	"accessors":[
		{
			"bufferView":0,
			"componentType":5126,
			"count":192,
			"max":[
				2.066999912261963,
				20.347999572753906,
				7.330224990844727
			],
			"min":[
				-0.21699999272823334,
				20.29199981689453,
				3.11977481842041
			],
			"type":"VEC3"
		},
		{
			"bufferView":1,
			"componentType":5126,
			"count":192,
			"type":"VEC3"
		},
		{
			"bufferView":2,
			"componentType":5126,
			"count":192,
			"type":"VEC2"
		},
		{
			"bufferView":3,
			"componentType":5123,
			"count":288,
			"type":"SCALAR"
		},
		{
			"bufferView":4,
			"componentType":5126,
			"count":192,
			"max":[
				2.053499937057495,
				20.377500534057617,
				7.301499843597412
			],
			"min":[
				-0.20350000262260437,
				20.262500762939453,
				3.1484999656677246
			],
			"type":"VEC3"
		},
		{
			"bufferView":5,
			"componentType":5126,
			"count":192,
			"type":"VEC3"
		},
		{
			"bufferView":6,
			"componentType":5126,
			"count":192,
			"type":"VEC2"
		},
		{
			"bufferView":7,
			"componentType":5123,
			"count":288,
			"type":"SCALAR"
		},
		{
			"bufferView":8,
			"componentType":5126,
			"count":108,
			"max":[
				11.927925109863281,
				19.28700065612793,
				5.696653842926025
			],
			"min":[
				-12.910323143005371,
				19.226999282836914,
				-8.478283882141113
			],
			"type":"VEC3"
		},
		{
			"bufferView":9,
			"componentType":5126,
			"count":108,
			"type":"VEC3"
		},
		{
			"bufferView":10,
			"componentType":5126,
			"count":108,
			"type":"VEC2"
		},
		{
			"bufferView":11,
			"componentType":5123,
			"count":162,
			"type":"SCALAR"
		},
		{
			"bufferView":12,
			"componentType":5126,
			"count":110,
			"max":[
				7.091000080108643,
				19.625,
				3.891644239425659
			],
			"min":[
				6.408999919891357,
				19.610000610351562,
				2.8083558082580566
			],
			"type":"VEC3"
		},
		{
			"bufferView":13,
			"componentType":5126,
			"count":110,
			"type":"VEC3"
		},
		{
			"bufferView":14,
			"componentType":5126,
			"count":110,
			"type":"VEC2"
		},
		{
			"bufferView":15,
			"componentType":5123,
			"count":216,
			"type":"SCALAR"
		},
		{
			"bufferView":16,
			"componentType":5126,
			"count":35573,
			"max":[
				0.11538583040237427,
				20.423545837402344,
				1.8404008150100708
			],
			"min":[
				-12.711127281188965,
				19.67228889465332,
				-8.312870979309082
			],
			"type":"VEC3"
		},
		{
			"bufferView":17,
			"componentType":5126,
			"count":35573,
			"type":"VEC3"
		},
		{
			"bufferView":18,
			"componentType":5126,
			"count":35573,
			"type":"VEC2"
		},
		{
			"bufferView":19,
			"componentType":5123,
			"count":50652,
			"type":"SCALAR"
		},
		{
			"bufferView":20,
			"componentType":5126,
			"count":4727,
			"max":[
				0.0965036153793335,
				19.71030044555664,
				1.8190813064575195
			],
			"min":[
				-12.633745193481445,
				19.53499984741211,
				-8.195805549621582
			],
			"type":"VEC3"
		},
		{
			"bufferView":21,
			"componentType":5126,
			"count":4727,
			"type":"VEC3"
		},
		{
			"bufferView":22,
			"componentType":5126,
			"count":4727,
			"type":"VEC2"
		},
		{
			"bufferView":23,
			"componentType":5123,
			"count":7392,
			"type":"SCALAR"
		},
		{
			"bufferView":24,
			"componentType":5126,
			"count":24,
			"max":[
				11.80621337890625,
				19.514265060424805,
				5.5792555809021
			],
			"min":[
				11.393786430358887,
				19.280000686645508,
				5.220744609832764
			],
			"type":"VEC3"
		},
		{
			"bufferView":25,
			"componentType":5126,
			"count":24,
			"type":"VEC3"
		},
		{
			"bufferView":26,
			"componentType":5126,
			"count":24,
			"type":"VEC2"
		},
		{
			"bufferView":27,
			"componentType":5123,
			"count":36,
			"type":"SCALAR"
		},
		{
			"bufferView":28,
			"componentType":5126,
			"count":14974,
			"max":[
				0.1346844732761383,
				19.68600082397461,
				1.857630729675293
			],
			"min":[
				-12.683633804321289,
				19.200000762939453,
				-8.246648788452148
			],
			"type":"VEC3"
		},
		{
			"bufferView":29,
			"componentType":5126,
			"count":14974,
			"type":"VEC3"
		},
		{
			"bufferView":30,
			"componentType":5126,
			"count":14974,
			"type":"VEC2"
		},
		{
			"bufferView":31,
			"componentType":5123,
			"count":25344,
			"type":"SCALAR"
		},
		{
			"bufferView":32,
			"componentType":5126,
			"count":8462,
			"max":[
				11.852555274963379,
				20.4393310546875,
				5.623310089111328
			],
			"min":[
				-12.608107566833496,
				19.260000228881836,
				-8.176188468933105
			],
			"type":"VEC3"
		},
		{
			"bufferView":33,
			"componentType":5126,
			"count":8462,
			"type":"VEC3"
		},
		{
			"bufferView":34,
			"componentType":5126,
			"count":8462,
			"type":"VEC2"
		},
		{
			"bufferView":35,
			"componentType":5123,
			"count":10908,
			"type":"SCALAR"
		},
		{
			"bufferView":36,
			"componentType":5126,
			"count":192,
			"max":[
				2.0940001010894775,
				20.38599967956543,
				7.304500102996826
			],
			"min":[
				-0.24400000274181366,
				20.253999710083008,
				3.1454999446868896
			],
			"type":"VEC3"
		},
		{
			"bufferView":37,
			"componentType":5126,
			"count":192,
			"type":"VEC3"
		},
		{
			"bufferView":38,
			"componentType":5126,
			"count":192,
			"type":"VEC2"
		},
		{
			"bufferView":39,
			"componentType":5126,
			"count":2307,
			"max":[
				9.699999809265137,
				20.18000030517578,
				4.289609432220459
			],
			"min":[
				6.005000114440918,
				19.196767807006836,
				-1.784999966621399
			],
			"type":"VEC3"
		},
		{
			"bufferView":40,
			"componentType":5126,
			"count":2307,
			"type":"VEC3"
		},
		{
			"bufferView":41,
			"componentType":5126,
			"count":2307,
			"type":"VEC2"
		},
		{
			"bufferView":42,
			"componentType":5123,
			"count":3672,
			"type":"SCALAR"
		},
		{
			"bufferView":43,
			"componentType":5126,
			"count":864,
			"max":[
				1.3580000400543213,
				20.059999465942383,
				1.5329999923706055
			],
			"min":[
				-1.3980000019073486,
				19.200000762939453,
				-1.5329999923706055
			],
			"type":"VEC3"
		},
		{
			"bufferView":44,
			"componentType":5126,
			"count":864,
			"type":"VEC3"
		},
		{
			"bufferView":45,
			"componentType":5126,
			"count":864,
			"type":"VEC2"
		},
		{
			"bufferView":46,
			"componentType":5123,
			"count":1296,
			"type":"SCALAR"
		},
		{
			"bufferView":47,
			"componentType":5126,
			"count":120,
			"max":[
				10.658013343811035,
				19.215999603271484,
				6.654891014099121
			],
			"min":[
				-10.552342414855957,
				19.211999893188477,
				-8.25441837310791
			],
			"type":"VEC3"
		},
		{
			"bufferView":48,
			"componentType":5126,
			"count":120,
			"type":"VEC3"
		},
		{
			"bufferView":49,
			"componentType":5126,
			"count":120,
			"type":"VEC2"
		},
		{
			"bufferView":50,
			"componentType":5123,
			"count":180,
			"type":"SCALAR"
		},
		{
			"bufferView":51,
			"componentType":5126,
			"count":24,
			"max":[
				4.599999904632568,
				20.389999389648438,
				10.079999923706055
			],
			"min":[
				2,
				20.299999237060547,
				9.920000076293945
			],
			"type":"VEC3"
		},
		{
			"bufferView":52,
			"componentType":5126,
			"count":24,
			"type":"VEC3"
		},
		{
			"bufferView":53,
			"componentType":5126,
			"count":24,
			"type":"VEC2"
		},
		{
			"bufferView":54,
			"componentType":5123,
			"count":36,
			"type":"SCALAR"
		},
		{
			"bufferView":55,
			"componentType":5126,
			"count":48,
			"max":[
				14.069999694824219,
				18.93000030517578,
				10.069999694824219
			],
			"min":[
				-14.069999694824219,
				18.649999618530273,
				9.960000038146973
			],
			"type":"VEC3"
		},
		{
			"bufferView":56,
			"componentType":5126,
			"count":48,
			"type":"VEC3"
		},
		{
			"bufferView":57,
			"componentType":5126,
			"count":48,
			"type":"VEC2"
		},
		{
			"bufferView":58,
			"componentType":5123,
			"count":72,
			"type":"SCALAR"
		},
		{
			"bufferView":59,
			"componentType":5126,
			"count":120,
			"max":[
				3.3399999141693115,
				21.799999237060547,
				3.3399999141693115
			],
			"min":[
				-3.3399999141693115,
				19.25,
				-3.3399999141693115
			],
			"type":"VEC3"
		},
		{
			"bufferView":60,
			"componentType":5126,
			"count":120,
			"type":"VEC3"
		},
		{
			"bufferView":61,
			"componentType":5126,
			"count":120,
			"type":"VEC2"
		},
		{
			"bufferView":62,
			"componentType":5126,
			"count":48,
			"max":[
				1.5199999809265137,
				20.15999984741211,
				1.559999942779541
			],
			"min":[
				-1.5199999809265137,
				20.059999465942383,
				-1.559999942779541
			],
			"type":"VEC3"
		},
		{
			"bufferView":63,
			"componentType":5126,
			"count":48,
			"type":"VEC3"
		},
		{
			"bufferView":64,
			"componentType":5126,
			"count":48,
			"type":"VEC2"
		},
		{
			"bufferView":65,
			"componentType":5126,
			"count":648,
			"max":[
				11.841795921325684,
				20.482500076293945,
				5.614837169647217
			],
			"min":[
				-12.794822692871094,
				19.200000762939453,
				-8.360907554626465
			],
			"type":"VEC3"
		},
		{
			"bufferView":66,
			"componentType":5126,
			"count":648,
			"type":"VEC3"
		},
		{
			"bufferView":67,
			"componentType":5126,
			"count":648,
			"type":"VEC2"
		},
		{
			"bufferView":68,
			"componentType":5123,
			"count":972,
			"type":"SCALAR"
		},
		{
			"bufferView":69,
			"componentType":5126,
			"count":384,
			"max":[
				14.100000381469727,
				21.860000610351562,
				10.100000381469727
			],
			"min":[
				-14.100000381469727,
				18.950000762939453,
				-10.100000381469727
			],
			"type":"VEC3"
		},
		{
			"bufferView":70,
			"componentType":5126,
			"count":384,
			"type":"VEC3"
		},
		{
			"bufferView":71,
			"componentType":5126,
			"count":384,
			"type":"VEC2"
		},
		{
			"bufferView":72,
			"componentType":5123,
			"count":576,
			"type":"SCALAR"
		},
		{
			"bufferView":73,
			"componentType":5126,
			"count":960,
			"max":[
				12.550000190734863,
				23.200000762939453,
				8.800000190734863
			],
			"min":[
				-12.5,
				19.200000762939453,
				-8.960000038146973
			],
			"type":"VEC3"
		},
		{
			"bufferView":74,
			"componentType":5126,
			"count":960,
			"type":"VEC3"
		},
		{
			"bufferView":75,
			"componentType":5126,
			"count":960,
			"type":"VEC2"
		},
		{
			"bufferView":76,
			"componentType":5123,
			"count":1440,
			"type":"SCALAR"
		},
		{
			"bufferView":77,
			"componentType":5126,
			"count":72,
			"max":[
				0.5199999809265137,
				19.649999618530273,
				2.119999885559082
			],
			"min":[
				-12.920000076293945,
				19.600000381469727,
				-8.819999694824219
			],
			"type":"VEC3"
		},
		{
			"bufferView":78,
			"componentType":5126,
			"count":72,
			"type":"VEC3"
		},
		{
			"bufferView":79,
			"componentType":5126,
			"count":72,
			"type":"VEC2"
		},
		{
			"bufferView":80,
			"componentType":5123,
			"count":108,
			"type":"SCALAR"
		},
		{
			"bufferView":81,
			"componentType":5126,
			"count":24,
			"max":[
				-9.5,
				19.280000686645508,
				-4.900000095367432
			],
			"min":[
				-9.600000381469727,
				19.219999313354492,
				-6.900000095367432
			],
			"type":"VEC3"
		},
		{
			"bufferView":82,
			"componentType":5126,
			"count":24,
			"type":"VEC3"
		},
		{
			"bufferView":83,
			"componentType":5126,
			"count":24,
			"type":"VEC2"
		},
		{
			"bufferView":84,
			"componentType":5126,
			"count":720,
			"max":[
				12.600000381469727,
				23.100000381469727,
				6.400000095367432
			],
			"min":[
				-13,
				19.200000762939453,
				-8.899999618530273
			],
			"type":"VEC3"
		},
		{
			"bufferView":85,
			"componentType":5126,
			"count":720,
			"type":"VEC3"
		},
		{
			"bufferView":86,
			"componentType":5126,
			"count":720,
			"type":"VEC2"
		},
		{
			"bufferView":87,
			"componentType":5123,
			"count":1080,
			"type":"SCALAR"
		},
		{
			"bufferView":88,
			"componentType":5126,
			"count":408,
			"max":[
				12.640000343322754,
				19.263999938964844,
				6.400000095367432
			],
			"min":[
				4.599999904632568,
				19.260000228881836,
				-2.200000047683716
			],
			"type":"VEC3"
		},
		{
			"bufferView":89,
			"componentType":5126,
			"count":408,
			"type":"VEC3"
		},
		{
			"bufferView":90,
			"componentType":5126,
			"count":408,
			"type":"VEC2"
		},
		{
			"bufferView":91,
			"componentType":5123,
			"count":612,
			"type":"SCALAR"
		},
		{
			"bufferView":92,
			"componentType":5126,
			"count":80,
			"max":[
				3.700000047683716,
				19.224000930786133,
				7.449999809265137
			],
			"min":[
				-3.5,
				19.224000930786133,
				-3.5
			],
			"type":"VEC3"
		},
		{
			"bufferView":93,
			"componentType":5126,
			"count":80,
			"type":"VEC3"
		},
		{
			"bufferView":94,
			"componentType":5126,
			"count":80,
			"type":"VEC2"
		},
		{
			"bufferView":95,
			"componentType":5123,
			"count":120,
			"type":"SCALAR"
		},
		{
			"bufferView":96,
			"componentType":5126,
			"count":96,
			"max":[
				3.259999990463257,
				21.5,
				3.259999990463257
			],
			"min":[
				-3.259999990463257,
				20.549999237060547,
				-3.259999990463257
			],
			"type":"VEC3"
		},
		{
			"bufferView":97,
			"componentType":5126,
			"count":96,
			"type":"VEC3"
		},
		{
			"bufferView":98,
			"componentType":5126,
			"count":96,
			"type":"VEC2"
		},
		{
			"bufferView":99,
			"componentType":5123,
			"count":144,
			"type":"SCALAR"
		},
		{
			"bufferView":100,
			"componentType":5126,
			"count":592,
			"max":[
				10.743000030517578,
				20.350000381469727,
				5.743000030517578
			],
			"min":[
				-8.575499534606934,
				19.239999771118164,
				-6.235000133514404
			],
			"type":"VEC3"
		},
		{
			"bufferView":101,
			"componentType":5126,
			"count":592,
			"type":"VEC3"
		},
		{
			"bufferView":102,
			"componentType":5126,
			"count":592,
			"type":"VEC2"
		},
		{
			"bufferView":103,
			"componentType":5123,
			"count":1152,
			"type":"SCALAR"
		},
		{
			"bufferView":104,
			"componentType":5126,
			"count":24,
			"max":[
				3.4000000953674316,
				21.809999465942383,
				3.4000000953674316
			],
			"min":[
				-3.4000000953674316,
				21.770000457763672,
				-3.4000000953674316
			],
			"type":"VEC3"
		},
		{
			"bufferView":105,
			"componentType":5126,
			"count":24,
			"type":"VEC3"
		},
		{
			"bufferView":106,
			"componentType":5126,
			"count":24,
			"type":"VEC2"
		},
		{
			"bufferView":107,
			"componentType":5126,
			"count":168,
			"max":[
				3.4600000381469727,
				21.829999923706055,
				3.4600000381469727
			],
			"min":[
				-3.4600000381469727,
				21.700000762939453,
				-3.4600000381469727
			],
			"type":"VEC3"
		},
		{
			"bufferView":108,
			"componentType":5126,
			"count":168,
			"type":"VEC3"
		},
		{
			"bufferView":109,
			"componentType":5126,
			"count":168,
			"type":"VEC2"
		},
		{
			"bufferView":110,
			"componentType":5123,
			"count":252,
			"type":"SCALAR"
		},
		{
			"bufferView":111,
			"componentType":5126,
			"count":240,
			"max":[
				13.970000267028809,
				19.200000762939453,
				9.970000267028809
			],
			"min":[
				-13.970000267028809,
				19.020000457763672,
				-9.970000267028809
			],
			"type":"VEC3"
		},
		{
			"bufferView":112,
			"componentType":5126,
			"count":240,
			"type":"VEC3"
		},
		{
			"bufferView":113,
			"componentType":5126,
			"count":240,
			"type":"VEC2"
		},
		{
			"bufferView":114,
			"componentType":5123,
			"count":360,
			"type":"SCALAR"
		},
		{
			"bufferView":115,
			"componentType":5126,
			"count":24,
			"max":[
				3.1600000858306885,
				19.200000762939453,
				3.1600000858306885
			],
			"min":[
				-3.1600000858306885,
				19.020000457763672,
				1.4600000381469727
			],
			"type":"VEC3"
		},
		{
			"bufferView":116,
			"componentType":5126,
			"count":24,
			"type":"VEC3"
		},
		{
			"bufferView":117,
			"componentType":5126,
			"count":24,
			"type":"VEC2"
		},
		{
			"bufferView":118,
			"componentType":5126,
			"count":432,
			"max":[
				1.3968888521194458,
				20.059999465942383,
				1.5329999923706055
			],
			"min":[
				-1.3968888521194458,
				19.200000762939453,
				1.496999979019165
			],
			"type":"VEC3"
		},
		{
			"bufferView":119,
			"componentType":5126,
			"count":432,
			"type":"VEC3"
		},
		{
			"bufferView":120,
			"componentType":5126,
			"count":432,
			"type":"VEC2"
		},
		{
			"bufferView":121,
			"componentType":5123,
			"count":648,
			"type":"SCALAR"
		},
		{
			"bufferView":122,
			"componentType":5126,
			"count":24,
			"max":[
				1.590000033378601,
				20.200000762939453,
				1.5449999570846558
			],
			"min":[
				-1.590000033378601,
				19.200000762939453,
				1.4850000143051147
			],
			"type":"VEC3"
		},
		{
			"bufferView":123,
			"componentType":5126,
			"count":24,
			"type":"VEC3"
		},
		{
			"bufferView":124,
			"componentType":5126,
			"count":24,
			"type":"VEC2"
		},
		{
			"bufferView":125,
			"componentType":5126,
			"count":72,
			"max":[
				1.590000033378601,
				20.219999313354492,
				1.5750000476837158
			],
			"min":[
				-1.590000033378601,
				19.200000762939453,
				1.4550000429153442
			],
			"type":"VEC3"
		},
		{
			"bufferView":126,
			"componentType":5126,
			"count":72,
			"type":"VEC3"
		},
		{
			"bufferView":127,
			"componentType":5126,
			"count":72,
			"type":"VEC2"
		},
		{
			"bufferView":128,
			"componentType":5126,
			"count":24,
			"max":[
				3.1600000858306885,
				19.200000762939453,
				3.1600000858306885
			],
			"min":[
				-3.1600000858306885,
				19.020000457763672,
				1.4600000381469727
			],
			"type":"VEC3"
		},
		{
			"bufferView":129,
			"componentType":5126,
			"count":24,
			"type":"VEC3"
		},
		{
			"bufferView":130,
			"componentType":5126,
			"count":24,
			"type":"VEC2"
		},
		{
			"bufferView":131,
			"componentType":5126,
			"count":72,
			"max":[
				1.8799999952316284,
				21.360000610351562,
				7.309999942779541
			],
			"min":[
				0.9200000166893005,
				19.200000762939453,
				7.090000152587891
			],
			"type":"VEC3"
		},
		{
			"bufferView":132,
			"componentType":5126,
			"count":72,
			"type":"VEC3"
		},
		{
			"bufferView":133,
			"componentType":5126,
			"count":72,
			"type":"VEC2"
		},
		{
			"bufferView":134,
			"componentType":5126,
			"count":1032,
			"max":[
				3.558000087738037,
				21.75,
				7.308000087738037
			],
			"min":[
				-3.390000104904175,
				19.200000762939453,
				-3.390000104904175
			],
			"type":"VEC3"
		},
		{
			"bufferView":135,
			"componentType":5126,
			"count":1032,
			"type":"VEC3"
		},
		{
			"bufferView":136,
			"componentType":5126,
			"count":1032,
			"type":"VEC2"
		},
		{
			"bufferView":137,
			"componentType":5123,
			"count":1548,
			"type":"SCALAR"
		},
		{
			"bufferView":138,
			"componentType":5126,
			"count":432,
			"max":[
				3.3399999141693115,
				21.75,
				3.3399999141693115
			],
			"min":[
				-3.3399999141693115,
				19.200000762939453,
				-3.3399999141693115
			],
			"type":"VEC3"
		},
		{
			"bufferView":139,
			"componentType":5126,
			"count":432,
			"type":"VEC3"
		},
		{
			"bufferView":140,
			"componentType":5126,
			"count":432,
			"type":"VEC2"
		},
		{
			"bufferView":141,
			"componentType":5126,
			"count":96,
			"max":[
				14.175000190734863,
				20.299999237060547,
				10.175000190734863
			],
			"min":[
				-14.175000190734863,
				19.200000762939453,
				-10.175000190734863
			],
			"type":"VEC3"
		},
		{
			"bufferView":142,
			"componentType":5126,
			"count":96,
			"type":"VEC3"
		},
		{
			"bufferView":143,
			"componentType":5126,
			"count":96,
			"type":"VEC2"
		},
		{
			"bufferView":144,
			"componentType":5126,
			"count":24,
			"max":[
				10.449999809265137,
				21.399999618530273,
				-9.100000381469727
			],
			"min":[
				9.550000190734863,
				19.200000762939453,
				-9.649999618530273
			],
			"type":"VEC3"
		},
		{
			"bufferView":145,
			"componentType":5126,
			"count":24,
			"type":"VEC3"
		},
		{
			"bufferView":146,
			"componentType":5126,
			"count":24,
			"type":"VEC2"
		},
		{
			"bufferView":147,
			"componentType":5126,
			"count":144,
			"max":[
				3.5399999618530273,
				21.600000381469727,
				7.289999961853027
			],
			"min":[
				0.3100000023841858,
				19.200000762939453,
				4.010000228881836
			],
			"type":"VEC3"
		},
		{
			"bufferView":148,
			"componentType":5126,
			"count":144,
			"type":"VEC3"
		},
		{
			"bufferView":149,
			"componentType":5126,
			"count":144,
			"type":"VEC2"
		},
		{
			"bufferView":150,
			"componentType":5123,
			"count":216,
			"type":"SCALAR"
		},
		{
			"bufferView":151,
			"componentType":5126,
			"count":16,
			"max":[
				3.3440001010894775,
				20.540000915527344,
				3.1559998989105225
			],
			"min":[
				-3.1559998989105225,
				19.280000686645508,
				-3.3440001010894775
			],
			"type":"VEC3"
		},
		{
			"bufferView":152,
			"componentType":5126,
			"count":16,
			"type":"VEC3"
		},
		{
			"bufferView":153,
			"componentType":5126,
			"count":16,
			"type":"VEC2"
		},
		{
			"bufferView":154,
			"componentType":5123,
			"count":24,
			"type":"SCALAR"
		},
		{
			"bufferView":155,
			"componentType":5126,
			"count":8,
			"max":[
				1.9800000190734863,
				19.228500366210938,
				7.650000095367432
			],
			"min":[
				-1.4299999475479126,
				19.228500366210938,
				2.799999952316284
			],
			"type":"VEC3"
		},
		{
			"bufferView":156,
			"componentType":5126,
			"count":8,
			"type":"VEC3"
		},
		{
			"bufferView":157,
			"componentType":5126,
			"count":8,
			"type":"VEC2"
		},
		{
			"bufferView":158,
			"componentType":5123,
			"count":12,
			"type":"SCALAR"
		},
		{
			"bufferView":159,
			"componentType":5126,
			"count":24,
			"max":[
				4.829999923706055,
				19.228500366210938,
				8.75
			],
			"min":[
				-4.829999923706055,
				19.228500366210938,
				-8.75
			],
			"type":"VEC3"
		},
		{
			"bufferView":160,
			"componentType":5126,
			"count":24,
			"type":"VEC3"
		},
		{
			"bufferView":161,
			"componentType":5126,
			"count":24,
			"type":"VEC2"
		},
		{
			"bufferView":162,
			"componentType":5123,
			"count":36,
			"type":"SCALAR"
		}
	],
	"bufferViews":[
		{
			"buffer":0,
			"byteLength":2304,
			"byteOffset":0,
			"target":34962
		},
		{
			"buffer":0,
			"byteLength":2304,
			"byteOffset":2304,
			"target":34962
		},
		{
			"buffer":0,
			"byteLength":1536,
			"byteOffset":4608,
			"target":34962
		},
		{
			"buffer":0,
			"byteLength":576,
			"byteOffset":6144,
			"target":34963
		},
		{
			"buffer":0,
			"byteLength":2304,
			"byteOffset":6720,
			"target":34962
		},
		{
			"buffer":0,
			"byteLength":2304,
			"byteOffset":9024,
			"target":34962
		},
		{
			"buffer":0,
			"byteLength":1536,
			"byteOffset":11328,
			"target":34962
		},
		{
			"buffer":0,
			"byteLength":576,
			"byteOffset":12864,
			"target":34963
		},
		{
			"buffer":0,
			"byteLength":1296,
			"byteOffset":13440,
			"target":34962
		},
		{
			"buffer":0,
			"byteLength":1296,
			"byteOffset":14736,
			"target":34962
		},
		{
			"buffer":0,
			"byteLength":864,
			"byteOffset":16032,
			"target":34962
		},
		{
			"buffer":0,
			"byteLength":324,
			"byteOffset":16896,
			"target":34963
		},
		{
			"buffer":0,
			"byteLength":1320,
			"byteOffset":17220,
			"target":34962
		},
		{
			"buffer":0,
			"byteLength":1320,
			"byteOffset":18540,
			"target":34962
		},
		{
			"buffer":0,
			"byteLength":880,
			"byteOffset":19860,
			"target":34962
		},
		{
			"buffer":0,
			"byteLength":432,
			"byteOffset":20740,
			"target":34963
		},
		{
			"buffer":0,
			"byteLength":426876,
			"byteOffset":21172,
			"target":34962
		},
		{
			"buffer":0,
			"byteLength":426876,
			"byteOffset":448048,
			"target":34962
		},
		{
			"buffer":0,
			"byteLength":284584,
			"byteOffset":874924,
			"target":34962
		},
		{
			"buffer":0,
			"byteLength":101304,
			"byteOffset":1159508,
			"target":34963
		},
		{
			"buffer":0,
			"byteLength":56724,
			"byteOffset":1260812,
			"target":34962
		},
		{
			"buffer":0,
			"byteLength":56724,
			"byteOffset":1317536,
			"target":34962
		},
		{
			"buffer":0,
			"byteLength":37816,
			"byteOffset":1374260,
			"target":34962
		},
		{
			"buffer":0,
			"byteLength":14784,
			"byteOffset":1412076,
			"target":34963
		},
		{
			"buffer":0,
			"byteLength":288,
			"byteOffset":1426860,
			"target":34962
		},
		{
			"buffer":0,
			"byteLength":288,
			"byteOffset":1427148,
			"target":34962
		},
		{
			"buffer":0,
			"byteLength":192,
			"byteOffset":1427436,
			"target":34962
		},
		{
			"buffer":0,
			"byteLength":72,
			"byteOffset":1427628,
			"target":34963
		},
		{
			"buffer":0,
			"byteLength":179688,
			"byteOffset":1427700,
			"target":34962
		},
		{
			"buffer":0,
			"byteLength":179688,
			"byteOffset":1607388,
			"target":34962
		},
		{
			"buffer":0,
			"byteLength":119792,
			"byteOffset":1787076,
			"target":34962
		},
		{
			"buffer":0,
			"byteLength":50688,
			"byteOffset":1906868,
			"target":34963
		},
		{
			"buffer":0,
			"byteLength":101544,
			"byteOffset":1957556,
			"target":34962
		},
		{
			"buffer":0,
			"byteLength":101544,
			"byteOffset":2059100,
			"target":34962
		},
		{
			"buffer":0,
			"byteLength":67696,
			"byteOffset":2160644,
			"target":34962
		},
		{
			"buffer":0,
			"byteLength":21816,
			"byteOffset":2228340,
			"target":34963
		},
		{
			"buffer":0,
			"byteLength":2304,
			"byteOffset":2250156,
			"target":34962
		},
		{
			"buffer":0,
			"byteLength":2304,
			"byteOffset":2252460,
			"target":34962
		},
		{
			"buffer":0,
			"byteLength":1536,
			"byteOffset":2254764,
			"target":34962
		},
		{
			"buffer":0,
			"byteLength":27684,
			"byteOffset":2256300,
			"target":34962
		},
		{
			"buffer":0,
			"byteLength":27684,
			"byteOffset":2283984,
			"target":34962
		},
		{
			"buffer":0,
			"byteLength":18456,
			"byteOffset":2311668,
			"target":34962
		},
		{
			"buffer":0,
			"byteLength":7344,
			"byteOffset":2330124,
			"target":34963
		},
		{
			"buffer":0,
			"byteLength":10368,
			"byteOffset":2337468,
			"target":34962
		},
		{
			"buffer":0,
			"byteLength":10368,
			"byteOffset":2347836,
			"target":34962
		},
		{
			"buffer":0,
			"byteLength":6912,
			"byteOffset":2358204,
			"target":34962
		},
		{
			"buffer":0,
			"byteLength":2592,
			"byteOffset":2365116,
			"target":34963
		},
		{
			"buffer":0,
			"byteLength":1440,
			"byteOffset":2367708,
			"target":34962
		},
		{
			"buffer":0,
			"byteLength":1440,
			"byteOffset":2369148,
			"target":34962
		},
		{
			"buffer":0,
			"byteLength":960,
			"byteOffset":2370588,
			"target":34962
		},
		{
			"buffer":0,
			"byteLength":360,
			"byteOffset":2371548,
			"target":34963
		},
		{
			"buffer":0,
			"byteLength":288,
			"byteOffset":2371908,
			"target":34962
		},
		{
			"buffer":0,
			"byteLength":288,
			"byteOffset":2372196,
			"target":34962
		},
		{
			"buffer":0,
			"byteLength":192,
			"byteOffset":2372484,
			"target":34962
		},
		{
			"buffer":0,
			"byteLength":72,
			"byteOffset":2372676,
			"target":34963
		},
		{
			"buffer":0,
			"byteLength":576,
			"byteOffset":2372748,
			"target":34962
		},
		{
			"buffer":0,
			"byteLength":576,
			"byteOffset":2373324,
			"target":34962
		},
		{
			"buffer":0,
			"byteLength":384,
			"byteOffset":2373900,
			"target":34962
		},
		{
			"buffer":0,
			"byteLength":144,
			"byteOffset":2374284,
			"target":34963
		},
		{
			"buffer":0,
			"byteLength":1440,
			"byteOffset":2374428,
			"target":34962
		},
		{
			"buffer":0,
			"byteLength":1440,
			"byteOffset":2375868,
			"target":34962
		},
		{
			"buffer":0,
			"byteLength":960,
			"byteOffset":2377308,
			"target":34962
		},
		{
			"buffer":0,
			"byteLength":576,
			"byteOffset":2378268,
			"target":34962
		},
		{
			"buffer":0,
			"byteLength":576,
			"byteOffset":2378844,
			"target":34962
		},
		{
			"buffer":0,
			"byteLength":384,
			"byteOffset":2379420,
			"target":34962
		},
		{
			"buffer":0,
			"byteLength":7776,
			"byteOffset":2379804,
			"target":34962
		},
		{
			"buffer":0,
			"byteLength":7776,
			"byteOffset":2387580,
			"target":34962
		},
		{
			"buffer":0,
			"byteLength":5184,
			"byteOffset":2395356,
			"target":34962
		},
		{
			"buffer":0,
			"byteLength":1944,
			"byteOffset":2400540,
			"target":34963
		},
		{
			"buffer":0,
			"byteLength":4608,
			"byteOffset":2402484,
			"target":34962
		},
		{
			"buffer":0,
			"byteLength":4608,
			"byteOffset":2407092,
			"target":34962
		},
		{
			"buffer":0,
			"byteLength":3072,
			"byteOffset":2411700,
			"target":34962
		},
		{
			"buffer":0,
			"byteLength":1152,
			"byteOffset":2414772,
			"target":34963
		},
		{
			"buffer":0,
			"byteLength":11520,
			"byteOffset":2415924,
			"target":34962
		},
		{
			"buffer":0,
			"byteLength":11520,
			"byteOffset":2427444,
			"target":34962
		},
		{
			"buffer":0,
			"byteLength":7680,
			"byteOffset":2438964,
			"target":34962
		},
		{
			"buffer":0,
			"byteLength":2880,
			"byteOffset":2446644,
			"target":34963
		},
		{
			"buffer":0,
			"byteLength":864,
			"byteOffset":2449524,
			"target":34962
		},
		{
			"buffer":0,
			"byteLength":864,
			"byteOffset":2450388,
			"target":34962
		},
		{
			"buffer":0,
			"byteLength":576,
			"byteOffset":2451252,
			"target":34962
		},
		{
			"buffer":0,
			"byteLength":216,
			"byteOffset":2451828,
			"target":34963
		},
		{
			"buffer":0,
			"byteLength":288,
			"byteOffset":2452044,
			"target":34962
		},
		{
			"buffer":0,
			"byteLength":288,
			"byteOffset":2452332,
			"target":34962
		},
		{
			"buffer":0,
			"byteLength":192,
			"byteOffset":2452620,
			"target":34962
		},
		{
			"buffer":0,
			"byteLength":8640,
			"byteOffset":2452812,
			"target":34962
		},
		{
			"buffer":0,
			"byteLength":8640,
			"byteOffset":2461452,
			"target":34962
		},
		{
			"buffer":0,
			"byteLength":5760,
			"byteOffset":2470092,
			"target":34962
		},
		{
			"buffer":0,
			"byteLength":2160,
			"byteOffset":2475852,
			"target":34963
		},
		{
			"buffer":0,
			"byteLength":4896,
			"byteOffset":2478012,
			"target":34962
		},
		{
			"buffer":0,
			"byteLength":4896,
			"byteOffset":2482908,
			"target":34962
		},
		{
			"buffer":0,
			"byteLength":3264,
			"byteOffset":2487804,
			"target":34962
		},
		{
			"buffer":0,
			"byteLength":1224,
			"byteOffset":2491068,
			"target":34963
		},
		{
			"buffer":0,
			"byteLength":960,
			"byteOffset":2492292,
			"target":34962
		},
		{
			"buffer":0,
			"byteLength":960,
			"byteOffset":2493252,
			"target":34962
		},
		{
			"buffer":0,
			"byteLength":640,
			"byteOffset":2494212,
			"target":34962
		},
		{
			"buffer":0,
			"byteLength":240,
			"byteOffset":2494852,
			"target":34963
		},
		{
			"buffer":0,
			"byteLength":1152,
			"byteOffset":2495092,
			"target":34962
		},
		{
			"buffer":0,
			"byteLength":1152,
			"byteOffset":2496244,
			"target":34962
		},
		{
			"buffer":0,
			"byteLength":768,
			"byteOffset":2497396,
			"target":34962
		},
		{
			"buffer":0,
			"byteLength":288,
			"byteOffset":2498164,
			"target":34963
		},
		{
			"buffer":0,
			"byteLength":7104,
			"byteOffset":2498452,
			"target":34962
		},
		{
			"buffer":0,
			"byteLength":7104,
			"byteOffset":2505556,
			"target":34962
		},
		{
			"buffer":0,
			"byteLength":4736,
			"byteOffset":2512660,
			"target":34962
		},
		{
			"buffer":0,
			"byteLength":2304,
			"byteOffset":2517396,
			"target":34963
		},
		{
			"buffer":0,
			"byteLength":288,
			"byteOffset":2519700,
			"target":34962
		},
		{
			"buffer":0,
			"byteLength":288,
			"byteOffset":2519988,
			"target":34962
		},
		{
			"buffer":0,
			"byteLength":192,
			"byteOffset":2520276,
			"target":34962
		},
		{
			"buffer":0,
			"byteLength":2016,
			"byteOffset":2520468,
			"target":34962
		},
		{
			"buffer":0,
			"byteLength":2016,
			"byteOffset":2522484,
			"target":34962
		},
		{
			"buffer":0,
			"byteLength":1344,
			"byteOffset":2524500,
			"target":34962
		},
		{
			"buffer":0,
			"byteLength":504,
			"byteOffset":2525844,
			"target":34963
		},
		{
			"buffer":0,
			"byteLength":2880,
			"byteOffset":2526348,
			"target":34962
		},
		{
			"buffer":0,
			"byteLength":2880,
			"byteOffset":2529228,
			"target":34962
		},
		{
			"buffer":0,
			"byteLength":1920,
			"byteOffset":2532108,
			"target":34962
		},
		{
			"buffer":0,
			"byteLength":720,
			"byteOffset":2534028,
			"target":34963
		},
		{
			"buffer":0,
			"byteLength":288,
			"byteOffset":2534748,
			"target":34962
		},
		{
			"buffer":0,
			"byteLength":288,
			"byteOffset":2535036,
			"target":34962
		},
		{
			"buffer":0,
			"byteLength":192,
			"byteOffset":2535324,
			"target":34962
		},
		{
			"buffer":0,
			"byteLength":5184,
			"byteOffset":2535516,
			"target":34962
		},
		{
			"buffer":0,
			"byteLength":5184,
			"byteOffset":2540700,
			"target":34962
		},
		{
			"buffer":0,
			"byteLength":3456,
			"byteOffset":2545884,
			"target":34962
		},
		{
			"buffer":0,
			"byteLength":1296,
			"byteOffset":2549340,
			"target":34963
		},
		{
			"buffer":0,
			"byteLength":288,
			"byteOffset":2550636,
			"target":34962
		},
		{
			"buffer":0,
			"byteLength":288,
			"byteOffset":2550924,
			"target":34962
		},
		{
			"buffer":0,
			"byteLength":192,
			"byteOffset":2551212,
			"target":34962
		},
		{
			"buffer":0,
			"byteLength":864,
			"byteOffset":2551404,
			"target":34962
		},
		{
			"buffer":0,
			"byteLength":864,
			"byteOffset":2552268,
			"target":34962
		},
		{
			"buffer":0,
			"byteLength":576,
			"byteOffset":2553132,
			"target":34962
		},
		{
			"buffer":0,
			"byteLength":288,
			"byteOffset":2553708,
			"target":34962
		},
		{
			"buffer":0,
			"byteLength":288,
			"byteOffset":2553996,
			"target":34962
		},
		{
			"buffer":0,
			"byteLength":192,
			"byteOffset":2554284,
			"target":34962
		},
		{
			"buffer":0,
			"byteLength":864,
			"byteOffset":2554476,
			"target":34962
		},
		{
			"buffer":0,
			"byteLength":864,
			"byteOffset":2555340,
			"target":34962
		},
		{
			"buffer":0,
			"byteLength":576,
			"byteOffset":2556204,
			"target":34962
		},
		{
			"buffer":0,
			"byteLength":12384,
			"byteOffset":2556780,
			"target":34962
		},
		{
			"buffer":0,
			"byteLength":12384,
			"byteOffset":2569164,
			"target":34962
		},
		{
			"buffer":0,
			"byteLength":8256,
			"byteOffset":2581548,
			"target":34962
		},
		{
			"buffer":0,
			"byteLength":3096,
			"byteOffset":2589804,
			"target":34963
		},
		{
			"buffer":0,
			"byteLength":5184,
			"byteOffset":2592900,
			"target":34962
		},
		{
			"buffer":0,
			"byteLength":5184,
			"byteOffset":2598084,
			"target":34962
		},
		{
			"buffer":0,
			"byteLength":3456,
			"byteOffset":2603268,
			"target":34962
		},
		{
			"buffer":0,
			"byteLength":1152,
			"byteOffset":2606724,
			"target":34962
		},
		{
			"buffer":0,
			"byteLength":1152,
			"byteOffset":2607876,
			"target":34962
		},
		{
			"buffer":0,
			"byteLength":768,
			"byteOffset":2609028,
			"target":34962
		},
		{
			"buffer":0,
			"byteLength":288,
			"byteOffset":2609796,
			"target":34962
		},
		{
			"buffer":0,
			"byteLength":288,
			"byteOffset":2610084,
			"target":34962
		},
		{
			"buffer":0,
			"byteLength":192,
			"byteOffset":2610372,
			"target":34962
		},
		{
			"buffer":0,
			"byteLength":1728,
			"byteOffset":2610564,
			"target":34962
		},
		{
			"buffer":0,
			"byteLength":1728,
			"byteOffset":2612292,
			"target":34962
		},
		{
			"buffer":0,
			"byteLength":1152,
			"byteOffset":2614020,
			"target":34962
		},
		{
			"buffer":0,
			"byteLength":432,
			"byteOffset":2615172,
			"target":34963
		},
		{
			"buffer":0,
			"byteLength":192,
			"byteOffset":2615604,
			"target":34962
		},
		{
			"buffer":0,
			"byteLength":192,
			"byteOffset":2615796,
			"target":34962
		},
		{
			"buffer":0,
			"byteLength":128,
			"byteOffset":2615988,
			"target":34962
		},
		{
			"buffer":0,
			"byteLength":48,
			"byteOffset":2616116,
			"target":34963
		},
		{
			"buffer":0,
			"byteLength":96,
			"byteOffset":2616164,
			"target":34962
		},
		{
			"buffer":0,
			"byteLength":96,
			"byteOffset":2616260,
			"target":34962
		},
		{
			"buffer":0,
			"byteLength":64,
			"byteOffset":2616356,
			"target":34962
		},
		{
			"buffer":0,
			"byteLength":24,
			"byteOffset":2616420,
			"target":34963
		},
		{
			"buffer":0,
			"byteLength":288,
			"byteOffset":2616444,
			"target":34962
		},
		{
			"buffer":0,
			"byteLength":288,
			"byteOffset":2616732,
			"target":34962
		},
		{
			"buffer":0,
			"byteLength":192,
			"byteOffset":2617020,
			"target":34962
		},
		{
			"buffer":0,
			"byteLength":72,
			"byteOffset":2617212,
			"target":34963
		}
	],
	"samplers":[
		{
			"magFilter":9729,
			"minFilter":9987
		}
	],
	"buffers":[
		{
			"byteLength":2617284,
			"uri":"roof.bin"
		}
	]
}
