{"asset":{"generator":"Khronos glTF Blender I/O v5.2.39","version":"2.0"},"extensionsUsed":["KHR_materials_specular"],"scene":0,"scenes":[{"name":"Scene","nodes":[25]}],"nodes":[{"name":"LeftToeBase","rotation":[-0.3467177450656891,-0.050711099058389664,-0.01877695508301258,0.9364094138145447],"scale":[1.0000001192092896,1.0000001192092896,1.0000001192092896],"translation":[-3.3676624298095703e-06,14.927861213684082,7.152557373046875e-07]},{"children":[0],"name":"LeftFoot","rotation":[-0.4680365324020386,-0.07447203248739243,-0.04130035266280174,0.8795965313911438],"scale":[0.9999999403953552,0.9999999403953552,1],"translation":[2.5331974029541016e-06,36.316314697265625,-5.960464477539062e-07]},{"children":[1],"name":"LeftLeg","rotation":[0.04388671740889549,0.031674403697252274,0.02548842504620552,0.9982089400291443],"scale":[1,1,1.0000001192092896],"translation":[-7.655471563339233e-06,36.823097229003906,-2.2649765014648438e-06]},{"children":[2],"name":"LeftUpLeg","rotation":[0.4154263436794281,-0.43078377842903137,-0.5511046051979065,0.5814895033836365],"scale":[1,1.0000001192092896,0.9999999403953552],"translation":[4.04229736328125,-8.316301345825195,9.840855598449707]},{"name":"RightToeBase","rotation":[-0.3455231487751007,0.052419908344745636,0.0193353109061718,0.9367454648017883],"scale":[1.0000001192092896,1.0000001192092896,1.0000001192092896],"translation":[-1.2516975402832031e-06,14.979270935058594,3.5762786865234375e-07]},{"children":[4],"name":"RightFoot","rotation":[-0.46975770592689514,0.07540865242481232,0.03729422762989998,0.8787777423858643],"scale":[1,1.0000001192092896,1.000000238418579],"translation":[6.258487701416016e-07,36.72164535522461,9.5367431640625e-07]},{"children":[5],"name":"RightLeg","rotation":[0.046484071761369705,-0.02395615540444851,-0.018082784488797188,0.9984679818153381],"translation":[-2.074986696243286e-06,36.50820541381836,-5.632638931274414e-06]},{"children":[6],"name":"RightUpLeg","rotation":[0.42532187700271606,-0.40467217564582825,-0.4368441700935364,0.6815489530563354],"scale":[0.9999999403953552,1.0000001192092896,0.9999999403953552],"translation":[0.9333535432815552,10.6228609085083,7.551255702972412]},{"name":"LeftHand","rotation":[0.019590657204389572,0.07873298227787018,0.11636748164892197,0.9898868203163147],"scale":[1.0000001192092896,1.0000001192092896,1.0000001192092896],"translation":[1.9818544387817383e-05,24.21005630493164,1.728534698486328e-05]},{"children":[8],"name":"LeftForeArm","rotation":[-0.22124388813972473,-0.11154603958129883,-0.0030196569859981537,0.9688134789466858],"scale":[0.9999998807907104,0.9999999403953552,0.9999998211860657],"translation":[2.384185791015625e-07,24.615253448486328,4.76837158203125e-07]},{"children":[9],"name":"LeftArm","rotation":[0.4553307294845581,0.4960607886314392,0.2689373791217804,0.6886729598045349],"scale":[0.9999999403953552,0.9999999403953552,1],"translation":[1.5877274563536048e-05,14.7404203414917,-4.543594798178674e-07]},{"children":[10],"name":"LeftShoulder","rotation":[0.5373489260673523,0.5854154229164124,-0.44199997186660767,0.4161502420902252],"scale":[0.9999998211860657,0.9999998807907104,0.9999999403953552],"translation":[3.6621716022491455,2.005706310272217,-0.7235316634178162]},{"name":"head_end","rotation":[-0.24459747970104218,-5.042672057697928e-09,-0.004657209385186434,0.9696135520935059],"scale":[0.9999998211860657,1.0000001192092896,1],"translation":[0.17725598812103271,17.277332305908203,-9.309526443481445]},{"name":"headfront","rotation":[0.45014697313308716,2.998669978993007e-09,0.008570922538638115,0.8929133415222168],"scale":[0.9999999403953552,1,1.0000001192092896],"translation":[-0.17725424468517303,6.885725021362305,9.30945110321045]},{"children":[12,13],"name":"Head","rotation":[0.34721845388412476,-0.00025184356491081417,0.00711073400452733,0.9377573132514954],"scale":[1,0.9999998211860657,0.9999999403953552],"translation":[-3.650784492492676e-07,8.437471389770508,-1.1929310858249664e-05]},{"children":[14],"name":"neck","rotation":[0.09668683260679245,0.005890384316444397,-0.0035637218970805407,0.9952910542488098],"scale":[0.9999999403953552,0.9999999403953552,1],"translation":[0.07437944412231445,8.865195274353027,1.7384101152420044]},{"name":"RightHand","rotation":[0.015297836624085903,-0.06994331628084183,-0.1056133583188057,0.9918264746665955],"scale":[1,1,1.0000001192092896],"translation":[-9.238719940185547e-07,23.908292770385742,5.185604095458984e-06]},{"children":[16],"name":"RightForeArm","rotation":[-0.2264074981212616,0.11968575417995453,0.009679928421974182,0.9666029810905457],"scale":[1,1.0000001192092896,1],"translation":[-1.1920928955078125e-06,24.132144927978516,8.58306884765625e-06]},{"children":[17],"name":"RightArm","rotation":[0.4579201936721802,-0.49838438630104065,-0.27042508125305176,0.684684157371521],"scale":[0.9999999403953552,0.9999998211860657,1],"translation":[-7.266353350132704e-06,15.001795768737793,-1.152828417616547e-06]},{"children":[18],"name":"RightShoulder","rotation":[0.5376395583152771,-0.5851484537124634,0.4522020220756531,0.4050411283969879],"scale":[1,1.000000238418579,0.9999998807907104],"translation":[-3.736551284790039,1.2283602952957153,-1.014856219291687]},{"children":[11,15,19],"name":"Spine","rotation":[-0.094881571829319,0.00045733412844128907,-0.0012678581988438964,0.9954876899719238],"scale":[1.0000001192092896,1.0000001192092896,0.9999999403953552],"translation":[-3.734603524208069e-07,12.967575073242188,2.044485881924629e-06]},{"children":[20],"name":"Spine01","rotation":[3.8431611670830534e-08,2.1434973973555316e-07,1.3271348464627408e-08,1],"scale":[0.9999999403953552,0.9999999403953552,0.9999999403953552],"translation":[-5.290465196594596e-06,12.967560768127441,1.1181226000189781e-05]},{"children":[21],"name":"Spine02","rotation":[-0.6589979529380798,0.5172218680381775,-0.393264502286911,0.37887513637542725],"scale":[1,0.9999999403953552,1],"translation":[-4.975649833679199,-2.306537628173828,-11.750723838806152]},{"children":[3,7,22],"name":"Hips","rotation":[0.6435315012931824,-0.5031780004501343,0.40784743428230286,0.40784749388694763],"scale":[1,1.0000001192092896,0.9999999403953552],"translation":[0,95.12586975097656,1.9421658515930176]},{"mesh":0,"name":"char1","skin":0},{"children":[24,23],"name":"Armature","scale":[0.009999999776482582,0.009999999776482582,0.009999999776482582]}],"materials":[{"alphaMode":"BLEND","doubleSided":true,"extensions":{"KHR_materials_specular":{"specularColorFactor":[1.0,1.0,1.0]}},"name":"Material_1","pbrMetallicRoughness":{"baseColorTexture":{"index":1}}}],"meshes":[{"name":"char1","primitives":[{"attributes":{"POSITION":0,"NORMAL":1,"TEXCOORD_0":2,"JOINTS_0":3,"WEIGHTS_0":4},"indices":5,"material":0}]}],"textures":[{"sampler":0,"source":0},{"sampler":0,"source":0}],"images":[{"mimeType":"image/png","name":"texture_0","uri":"texture_0.png"}],"skins":[{"inverseBindMatrices":6,"joints":[23,3,2,1,0,7,6,5,4,22,21,20,11,10,9,8,15,14,12,13,19,18,17,16],"name":"Armature"}],"accessors":[{"bufferView":0,"componentType":5126,"count":28651,"max":[0.5231667160987854,1.7001320123672485,0.15922217071056366],"min":[-0.5228082537651062,-4.9027014028979465e-05,-0.15922680497169495],"type":"VEC3"},{"bufferView":1,"componentType":5126,"count":28651,"type":"VEC3"},{"bufferView":2,"componentType":5126,"count":28651,"type":"VEC2"},{"bufferView":3,"componentType":5121,"count":28651,"type":"VEC4"},{"bufferView":4,"componentType":5126,"count":28651,"type":"VEC4"},{"bufferView":5,"componentType":5123,"count":120000,"type":"SCALAR"},{"bufferView":6,"componentType":5126,"count":24,"type":"MAT4"}],"bufferViews":[{"buffer":0,"byteLength":343812,"byteOffset":0,"target":34962},{"buffer":0,"byteLength":343812,"byteOffset":343812,"target":34962},{"buffer":0,"byteLength":229208,"byteOffset":687624,"target":34962},{"buffer":0,"byteLength":114604,"byteOffset":916832,"target":34962},{"buffer":0,"byteLength":458416,"byteOffset":1031436,"target":34962},{"buffer":0,"byteLength":240000,"byteOffset":1489852,"target":34963},{"buffer":0,"byteLength":1536,"byteOffset":1729852}],"samplers":[{"magFilter":9729,"minFilter":9987}],"buffers":[{"byteLength":1731388,"uri":"malcolm_reed.bin"}]}