{
	"asset":{
		"generator":"Khronos glTF Blender I/O v5.2.39",
		"version":"2.0"
	},
	"extensionsUsed":[
		"KHR_materials_specular"
	],
	"scene":0,
	"scenes":[
		{
			"name":"Scene",
			"nodes":[
				25
			]
		}
	],
	"nodes":[
		{
			"name":"LeftToeBase",
			"rotation":[
				-0.3945724070072174,
				-0.026788759976625443,
				-0.011509482748806477,
				0.9184021353721619
			],
			"scale":[
				0.9999999403953552,
				0.9999998211860657,
				0.9999999403953552
			],
			"translation":[
				1.5795230865478516e-06,
				16.513965606689453,
				-1.7881393432617188e-07
			]
		},
		{
			"children":[
				0
			],
			"name":"LeftFoot",
			"rotation":[
				-0.44646891951560974,
				-0.0033147598151117563,
				0.04958116635680199,
				0.8934183120727539
			],
			"scale":[
				0.9999999403953552,
				1.0000001192092896,
				1.000000238418579
			],
			"translation":[
				4.3213367462158203e-07,
				41.62208557128906,
				2.384185791015625e-07
			]
		},
		{
			"children":[
				1
			],
			"name":"LeftLeg",
			"rotation":[
				-0.018483545631170273,
				-0.02179357223212719,
				-0.016120778396725655,
				0.9994616508483887
			],
			"scale":[
				0.9999999403953552,
				1,
				1
			],
			"translation":[
				-1.0132789611816406e-06,
				36.07284164428711,
				-7.748603820800781e-07
			]
		},
		{
			"children":[
				2
			],
			"name":"LeftUpLeg",
			"rotation":[
				0.3510059118270874,
				-0.36797797679901123,
				-0.5839443206787109,
				0.6327685713768005
			],
			"scale":[
				1,
				0.9999999403953552,
				0.9999998807907104
			],
			"translation":[
				5.351401329040527,
				-5.248039245605469,
				8.343500137329102
			]
		},
		{
			"name":"RightToeBase",
			"rotation":[
				-0.39362189173698425,
				0.033361729234457016,
				0.014295459724962711,
				0.9185556173324585
			],
			"scale":[
				1,
				1,
				0.9999999403953552
			],
			"translation":[
				1.385807991027832e-06,
				16.5157527923584,
				4.76837158203125e-07
			]
		},
		{
			"children":[
				4
			],
			"name":"RightFoot",
			"rotation":[
				-0.4472591280937195,
				0.018414558842778206,
				-0.028977813199162483,
				0.8937451839447021
			],
			"scale":[
				1.0000001192092896,
				1.0000001192092896,
				1
			],
			"translation":[
				-1.0132789611816406e-06,
				41.53532028198242,
				3.814697265625e-06
			]
		},
		{
			"children":[
				5
			],
			"name":"RightLeg",
			"rotation":[
				-0.018163908272981644,
				0.015074034221470356,
				0.010833142325282097,
				0.9996626973152161
			],
			"scale":[
				1.0000001192092896,
				1.0000001192092896,
				1.0000001192092896
			],
			"translation":[
				1.1622905731201172e-06,
				36.053253173828125,
				-1.9669532775878906e-06
			]
		},
		{
			"children":[
				6
			],
			"name":"RightUpLeg",
			"rotation":[
				0.3752686381340027,
				-0.3329179883003235,
				-0.4994330108165741,
				0.7063326239585876
			],
			"scale":[
				1,
				0.9999998211860657,
				0.9999999403953552
			],
			"translation":[
				3.1662943363189697,
				7.432835578918457,
				7.348136901855469
			]
		},
		{
			"name":"LeftHand",
			"rotation":[
				0.16826651990413666,
				0.09745050966739655,
				0.074773408472538,
				0.9780586957931519
			],
			"scale":[
				0.9999999403953552,
				0.9999999403953552,
				1
			],
			"translation":[
				-3.814697265625e-06,
				25.424148559570312,
				0
			]
		},
		{
			"children":[
				8
			],
			"name":"LeftForeArm",
			"rotation":[
				-0.34612929821014404,
				-0.08409003913402557,
				0.08720845729112625,
				0.9303322434425354
			],
			"scale":[
				1.0000001192092896,
				1,
				1.0000001192092896
			],
			"translation":[
				1.9788742065429688e-05,
				23.087221145629883,
				-3.4868717193603516e-06
			]
		},
		{
			"children":[
				9
			],
			"name":"LeftArm",
			"rotation":[
				0.4515726864337921,
				0.5436030030250549,
				0.2704484760761261,
				0.6537855267524719
			],
			"translation":[
				-1.0054618542199023e-06,
				11.056648254394531,
				-1.5643219740013592e-05
			]
		},
		{
			"children":[
				10
			],
			"name":"LeftShoulder",
			"rotation":[
				0.5242098569869995,
				0.6310432553291321,
				-0.43088725209236145,
				0.3759317696094513
			],
			"scale":[
				0.9999999403953552,
				0.9999998807907104,
				1
			],
			"translation":[
				2.7097270488739014,
				2.3398776054382324,
				-1.2518575191497803
			]
		},
		{
			"name":"head_end",
			"rotation":[
				-0.24492453038692474,
				1.2607811461506913e-09,
				-0.005489250645041466,
				0.9695266485214233
			],
			"scale":[
				0.9999999403953552,
				0.9999998211860657,
				1
			],
			"translation":[
				0.1811891496181488,
				14.979514122009277,
				-8.084526062011719
			]
		},
		{
			"name":"headfront",
			"rotation":[
				0.46421903371810913,
				-3.2861201759715186e-08,
				0.010404021479189396,
				0.8856593370437622
			],
			"scale":[
				1,
				1,
				1.0000001192092896
			],
			"translation":[
				-0.18119052052497864,
				5.5922346115112305,
				8.084515571594238
			]
		},
		{
			"children":[
				12,
				13
			],
			"name":"Head",
			"rotation":[
				0.3562029004096985,
				-6.625146488659084e-05,
				0.008109647780656815,
				0.9343734979629517
			],
			"scale":[
				1,
				1.0000001192092896,
				0.9999999403953552
			],
			"translation":[
				9.08970832824707e-07,
				6.85399055480957,
				-1.9958242774009705e-06
			]
		},
		{
			"children":[
				14
			],
			"name":"neck",
			"rotation":[
				0.11486084759235382,
				0.003523313207551837,
				-0.0005174833931960166,
				0.9933752417564392
			],
			"scale":[
				0.9999999403953552,
				0.9999998807907104,
				0.9999999403953552
			],
			"translation":[
				0.015887096524238586,
				8.417807579040527,
				1.9729835987091064
			]
		},
		{
			"name":"RightHand",
			"rotation":[
				0.08918825536966324,
				-0.09986738860607147,
				-0.10392113775014877,
				0.9855315089225769
			],
			"scale":[
				1,
				0.9999999403953552,
				0.9999999403953552
			],
			"translation":[
				-2.384185791015625e-06,
				23.335412979125977,
				1.9073486328125e-06
			]
		},
		{
			"children":[
				16
			],
			"name":"RightForeArm",
			"rotation":[
				-0.22851713001728058,
				0.1096077486872673,
				0.013353956863284111,
				0.9672578573226929
			],
			"scale":[
				1,
				0.9999998807907104,
				0.9999999403953552
			],
			"translation":[
				1.33514404296875e-05,
				22.64496612548828,
				-2.86102294921875e-06
			]
		},
		{
			"children":[
				17
			],
			"name":"RightArm",
			"rotation":[
				0.4477931559085846,
				-0.5061309933662415,
				-0.31899747252464294,
				0.6644947528839111
			],
			"scale":[
				1,
				0.9999998807907104,
				1
			],
			"translation":[
				7.855996955186129e-07,
				10.917756080627441,
				3.6794369862036547e-06
			]
		},
		{
			"children":[
				18
			],
			"name":"RightShoulder",
			"rotation":[
				0.5435999035835266,
				-0.6144188046455383,
				0.4373171031475067,
				0.36843234300613403
			],
			"scale":[
				0.9999999403953552,
				1,
				1
			],
			"translation":[
				-2.7256109714508057,
				2.0124874114990234,
				-0.721106231212616
			]
		},
		{
			"children":[
				11,
				15,
				19
			],
			"name":"Spine",
			"rotation":[
				-0.11257977038621902,
				0.0042104898020625114,
				-0.004833232145756483,
				0.9936220049858093
			],
			"scale":[
				0.9999999403953552,
				1.000000238418579,
				1.0000001192092896
			],
			"translation":[
				4.0978193283081055e-08,
				11.641770362854004,
				-3.5885459510609508e-06
			]
		},
		{
			"children":[
				20
			],
			"name":"Spine01",
			"rotation":[
				7.843663496487352e-08,
				-7.4825940998835e-08,
				-2.386513653362954e-09,
				1
			],
			"scale":[
				1.0000001192092896,
				1.0000001192092896,
				1.0000001192092896
			],
			"translation":[
				-1.4826655387878418e-06,
				11.641762733459473,
				1.3035372830927372e-05
			]
		},
		{
			"children":[
				21
			],
			"name":"Spine02",
			"rotation":[
				-0.7257179617881775,
				0.590074360370636,
				-0.2591681182384491,
				0.2407853901386261
			],
			"scale":[
				1.0000001192092896,
				1.000000238418579,
				1.0000001192092896
			],
			"translation":[
				-8.517650604248047,
				-2.184802770614624,
				-7.629291534423828
			]
		},
		{
			"children":[
				3,
				7,
				22
			],
			"name":"Hips",
			"rotation":[
				0.707058310508728,
				-0.5748673677444458,
				0.29120102524757385,
				0.2912009656429291
			],
			"scale":[
				0.9999998807907104,
				0.9999997019767761,
				1
			],
			"translation":[
				-0.3680446743965149,
				100.62586975097656,
				15.24144172668457
			]
		},
		{
			"mesh":0,
			"name":"char1",
			"skin":0
		},
		{
			"children":[
				24,
				23
			],
			"name":"Armature",
			"scale":[
				0.009999999776482582,
				0.009999999776482582,
				0.009999999776482582
			]
		}
	],
	"materials":[
		{
			"alphaMode":"BLEND",
			"doubleSided":true,
			"emissiveFactor":[
				1,
				1,
				1
			],
			"emissiveTexture":{
				"index":0
			},
			"extensions":{
				"KHR_materials_specular":{
					"specularColorFactor":[
						2.0,
						2.0,
						2.0
					]
				}
			},
			"name":"Material_1",
			"pbrMetallicRoughness":{
				"baseColorTexture":{
					"index":1
				}
			}
		}
	],
	"meshes":[
		{
			"name":"char1",
			"primitives":[
				{
					"attributes":{
						"POSITION":0,
						"NORMAL":1,
						"TEXCOORD_0":2,
						"JOINTS_0":3,
						"WEIGHTS_0":4
					},
					"indices":5,
					"material":0
				}
			]
		}
	],
	"textures":[
		{
			"sampler":0,
			"source":0
		},
		{
			"sampler":0,
			"source":0
		}
	],
	"images":[
		{
			"mimeType":"image/png",
			"name":"texture_0",
			"uri":"texture_0.png"
		}
	],
	"skins":[
		{
			"inverseBindMatrices":6,
			"joints":[
				23,
				3,
				2,
				1,
				0,
				7,
				6,
				5,
				4,
				22,
				21,
				20,
				11,
				10,
				9,
				8,
				15,
				14,
				12,
				13,
				19,
				18,
				17,
				16
			],
			"name":"Armature"
		}
	],
	"accessors":[
		{
			"bufferView":0,
			"componentType":5126,
			"count":37899,
			"max":[
				0.600468635559082,
				1.7002809047698975,
				0.2406671941280365
			],
			"min":[
				-0.6002404689788818,
				-7.931891741463915e-05,
				-0.2406122386455536
			],
			"type":"VEC3"
		},
		{
			"bufferView":1,
			"componentType":5126,
			"count":37899,
			"type":"VEC3"
		},
		{
			"bufferView":2,
			"componentType":5126,
			"count":37899,
			"type":"VEC2"
		},
		{
			"bufferView":3,
			"componentType":5121,
			"count":37899,
			"type":"VEC4"
		},
		{
			"bufferView":4,
			"componentType":5126,
			"count":37899,
			"type":"VEC4"
		},
		{
			"bufferView":5,
			"componentType":5123,
			"count":119991,
			"type":"SCALAR"
		},
		{
			"bufferView":6,
			"componentType":5126,
			"count":24,
			"type":"MAT4"
		}
	],
	"bufferViews":[
		{
			"buffer":0,
			"byteLength":454788,
			"byteOffset":0,
			"target":34962
		},
		{
			"buffer":0,
			"byteLength":454788,
			"byteOffset":454788,
			"target":34962
		},
		{
			"buffer":0,
			"byteLength":303192,
			"byteOffset":909576,
			"target":34962
		},
		{
			"buffer":0,
			"byteLength":151596,
			"byteOffset":1212768,
			"target":34962
		},
		{
			"buffer":0,
			"byteLength":606384,
			"byteOffset":1364364,
			"target":34962
		},
		{
			"buffer":0,
			"byteLength":239982,
			"byteOffset":1970748,
			"target":34963
		},
		{
			"buffer":0,
			"byteLength":1536,
			"byteOffset":2210732
		}
	],
	"samplers":[
		{
			"magFilter":9729,
			"minFilter":9987
		}
	],
	"buffers":[
		{
			"byteLength":2212268,
			"uri":"harpy.bin"
		}
	]
}
