{
	"asset":{
		"generator":"Khronos glTF Blender I/O v5.2.39",
		"version":"2.0"
	},
	"extensionsUsed":[
		"KHR_materials_specular"
	],
	"scene":0,
	"scenes":[
		{
			"name":"Scene",
			"nodes":[
				25
			]
		}
	],
	"nodes":[
		{
			"name":"LeftToeBase",
			"rotation":[
				-0.3578558564186096,
				-0.02289619669318199,
				-0.008778799325227737,
				0.9334548115730286
			],
			"scale":[
				1,
				1.0000001192092896,
				1.0000001192092896
			],
			"translation":[
				-3.6656856536865234e-06,
				13.788376808166504,
				8.940696716308594e-07
			]
		},
		{
			"children":[
				0
			],
			"name":"LeftFoot",
			"rotation":[
				-0.4582073390483856,
				-0.016105856746435165,
				0.023105723783373833,
				0.8883990049362183
			],
			"translation":[
				1.1324882507324219e-06,
				36.334693908691406,
				2.384185791015625e-07
			]
		},
		{
			"children":[
				1
			],
			"name":"LeftLeg",
			"rotation":[
				0.0017458266811445355,
				0.0035984525457024574,
				0.0030515664257109165,
				0.9999873638153076
			],
			"scale":[
				0.9999998807907104,
				0.9999999403953552,
				0.9999998807907104
			],
			"translation":[
				-2.1830201148986816e-06,
				37.55708312988281,
				-1.5497207641601562e-05
			]
		},
		{
			"children":[
				2
			],
			"name":"LeftUpLeg",
			"rotation":[
				0.9840317368507385,
				0.02932250127196312,
				-0.04957480728626251,
				0.16841630637645721
			],
			"scale":[
				1.0000001192092896,
				1,
				1.0000015497207642
			],
			"translation":[
				7.980137825012207,
				-8.903707504272461,
				3.186028003692627
			]
		},
		{
			"name":"RightToeBase",
			"rotation":[
				-0.36764708161354065,
				0.04608289524912834,
				0.018244437873363495,
				0.9286437034606934
			],
			"scale":[
				1.0000001192092896,
				1.0000001192092896,
				1
			],
			"translation":[
				4.172325134277344e-07,
				14.113687515258789,
				2.384185791015625e-07
			]
		},
		{
			"children":[
				4
			],
			"name":"RightFoot",
			"rotation":[
				-0.4465065598487854,
				0.0504799410700798,
				0.008473658002912998,
				0.8933151364326477
			],
			"scale":[
				0.9999998807907104,
				1,
				1
			],
			"translation":[
				2.980232238769531e-07,
				36.72470474243164,
				-1.1920928955078125e-07
			]
		},
		{
			"children":[
				5
			],
			"name":"RightLeg",
			"rotation":[
				0.005138331092894077,
				-0.004900163970887661,
				-0.003910045139491558,
				0.999967098236084
			],
			"scale":[
				1.0000001192092896,
				1.0000001192092896,
				1
			],
			"translation":[
				1.385807991027832e-06,
				36.965843200683594,
				-2.092123031616211e-05
			]
		},
		{
			"children":[
				6
			],
			"name":"RightUpLeg",
			"rotation":[
				0.9827715754508972,
				-0.04077417775988579,
				0.06269823759794235,
				0.16901622712612152
			],
			"scale":[
				1.000000238418579,
				1,
				1.000002145767212
			],
			"translation":[
				-8.208438873291016,
				-8.619647026062012,
				2.9217464923858643
			]
		},
		{
			"name":"LeftHand",
			"rotation":[
				0.04473216459155083,
				0.08219794929027557,
				0.09388638287782669,
				0.9911749958992004
			],
			"scale":[
				1,
				1,
				0.9999999403953552
			],
			"translation":[
				3.3527612686157227e-06,
				21.375261306762695,
				2.321600914001465e-05
			]
		},
		{
			"children":[
				8
			],
			"name":"LeftForeArm",
			"rotation":[
				-0.1795663684606552,
				-0.07732467353343964,
				0.005294198635965586,
				0.9806879162788391
			],
			"scale":[
				1,
				1,
				0.9999999403953552
			],
			"translation":[
				-5.125999450683594e-06,
				22.98216438293457,
				4.0531158447265625e-06
			]
		},
		{
			"children":[
				9
			],
			"name":"LeftArm",
			"rotation":[
				0.44808056950569153,
				0.5030959844589233,
				0.2958340048789978,
				0.6772004961967468
			],
			"scale":[
				1,
				1.0000001192092896,
				1.0000001192092896
			],
			"translation":[
				2.777611371129751e-06,
				11.67072582244873,
				1.4854836990707554e-05
			]
		},
		{
			"children":[
				10
			],
			"name":"LeftShoulder",
			"rotation":[
				0.548157274723053,
				0.6154599189758301,
				-0.43330106139183044,
				0.3646683096885681
			],
			"scale":[
				0.9999998211860657,
				0.999999463558197,
				0.9999998807907104
			],
			"translation":[
				2.917059898376465,
				2.0174107551574707,
				-0.7218872308731079
			]
		},
		{
			"name":"head_end",
			"rotation":[
				-0.22336693108081818,
				8.957507513507323e-10,
				-0.0030293564777821302,
				0.9747297167778015
			],
			"translation":[
				0.117123544216156,
				17.853185653686523,
				-8.636006355285645
			]
		},
		{
			"name":"headfront",
			"rotation":[
				0.4166724979877472,
				-7.824719006066516e-08,
				0.005650961771607399,
				0.9090391397476196
			],
			"scale":[
				1,
				0.9999998807907104,
				0.9999999403953552
			],
			"translation":[
				-0.11712275445461273,
				7.440866947174072,
				8.63591480255127
			]
		},
		{
			"children":[
				12,
				13
			],
			"name":"Head",
			"rotation":[
				0.3970663249492645,
				0.0006890719523653388,
				0.003881781594827771,
				0.9177814722061157
			],
			"scale":[
				0.9999998807907104,
				0.9999999403953552,
				1
			],
			"translation":[
				-7.795169949531555e-07,
				11.282546043395996,
				-3.725290298461914e-08
			]
		},
		{
			"children":[
				14
			],
			"name":"neck",
			"rotation":[
				0.13040702044963837,
				0.0187421552836895,
				-0.015384400263428688,
				0.9911640286445618
			],
			"scale":[
				0.9999999403953552,
				0.9999998211860657,
				0.9999999403953552
			],
			"translation":[
				0.17836995422840118,
				4.866954803466797,
				1.3001810312271118
			]
		},
		{
			"name":"RightHand",
			"rotation":[
				0.01169058308005333,
				-0.06986662745475769,
				-0.09487808495759964,
				0.9929653406143188
			],
			"translation":[
				2.5480985641479492e-06,
				21.25914192199707,
				-4.917383193969727e-07
			]
		},
		{
			"children":[
				16
			],
			"name":"RightForeArm",
			"rotation":[
				-0.17821642756462097,
				0.09059806913137436,
				0.012037480250000954,
				0.9797376990318298
			],
			"scale":[
				0.9999998211860657,
				0.9999998807907104,
				0.9999998211860657
			],
			"translation":[
				-2.384185791015625e-06,
				21.54224967956543,
				-9.5367431640625e-07
			]
		},
		{
			"children":[
				17
			],
			"name":"RightArm",
			"rotation":[
				0.45687657594680786,
				-0.509432852268219,
				-0.3013017475605011,
				0.6640475988388062
			],
			"scale":[
				0.9999999403953552,
				0.9999998807907104,
				1.0000001192092896
			],
			"translation":[
				-6.103677151259035e-06,
				12.542076110839844,
				1.500645976193482e-05
			]
		},
		{
			"children":[
				18
			],
			"name":"RightShoulder",
			"rotation":[
				0.5502713322639465,
				-0.6135704517364502,
				0.4108545184135437,
				0.3897837996482849
			],
			"scale":[
				0.9999998807907104,
				0.9999997615814209,
				0.9999998807907104
			],
			"translation":[
				-3.095425605773926,
				2.1307642459869385,
				-0.5782724022865295
			]
		},
		{
			"children":[
				11,
				15,
				19
			],
			"name":"Spine",
			"rotation":[
				-0.12367154657840729,
				-0.015250924043357372,
				0.012856684625148773,
				0.9921227097511292
			],
			"scale":[
				0.9999999403953552,
				1,
				1.0000001192092896
			],
			"translation":[
				2.0558945834636688e-07,
				11.257784843444824,
				-1.8619466572999954e-06
			]
		},
		{
			"children":[
				20
			],
			"name":"Spine01",
			"rotation":[
				2.9061177997391496e-07,
				-9.98261384665966e-09,
				-1.527951210000822e-09,
				1
			],
			"scale":[
				1,
				0.9999999403953552,
				0.9999999403953552
			],
			"translation":[
				-4.98257577419281e-07,
				11.257771492004395,
				2.1551037207245827e-05
			]
		},
		{
			"children":[
				21
			],
			"name":"Spine02",
			"rotation":[
				-0.2828693985939026,
				-0.0032648982014507055,
				-0.009609178639948368,
				0.9591047763824463
			],
			"scale":[
				1,
				0.9999999403953552,
				1
			],
			"translation":[
				0.2283022701740265,
				9.454110145568848,
				-6.107814788818359
			]
		},
		{
			"children":[
				3,
				7,
				22
			],
			"name":"Hips",
			"rotation":[
				0.2253452092409134,
				0.005793340504169464,
				0.005793341435492039,
				0.9742445349693298
			],
			"translation":[
				0.36296892166137695,
				95.49392700195312,
				4.679504871368408
			]
		},
		{
			"mesh":0,
			"name":"char1",
			"skin":0
		},
		{
			"children":[
				24,
				23
			],
			"name":"Armature",
			"scale":[
				0.009999999776482582,
				0.009999999776482582,
				0.009999999776482582
			]
		}
	],
	"materials":[
		{
			"alphaMode":"BLEND",
			"doubleSided":true,
			"emissiveFactor":[
				1,
				1,
				1
			],
			"emissiveTexture":{
				"index":0
			},
			"extensions":{
				"KHR_materials_specular":{
					"specularColorFactor":[
						2.0,
						2.0,
						2.0
					]
				}
			},
			"name":"Material_1",
			"pbrMetallicRoughness":{
				"baseColorTexture":{
					"index":1
				}
			}
		}
	],
	"meshes":[
		{
			"name":"char1",
			"primitives":[
				{
					"attributes":{
						"POSITION":0,
						"NORMAL":1,
						"TEXCOORD_0":2,
						"JOINTS_0":3,
						"WEIGHTS_0":4
					},
					"indices":5,
					"material":0
				}
			]
		}
	],
	"textures":[
		{
			"sampler":0,
			"source":0
		},
		{
			"sampler":0,
			"source":0
		}
	],
	"images":[
		{
			"mimeType":"image/png",
			"name":"texture_0",
			"uri":"texture_0.png"
		}
	],
	"skins":[
		{
			"inverseBindMatrices":6,
			"joints":[
				23,
				3,
				2,
				1,
				0,
				7,
				6,
				5,
				4,
				22,
				21,
				20,
				11,
				10,
				9,
				8,
				15,
				14,
				12,
				13,
				19,
				18,
				17,
				16
			],
			"name":"Armature"
		}
	],
	"accessors":[
		{
			"bufferView":0,
			"componentType":5126,
			"count":32590,
			"max":[
				0.430077463388443,
				1.700068473815918,
				0.1458471715450287
			],
			"min":[
				-0.43010732531547546,
				-0.0002124054590240121,
				-0.1458033323287964
			],
			"type":"VEC3"
		},
		{
			"bufferView":1,
			"componentType":5126,
			"count":32590,
			"type":"VEC3"
		},
		{
			"bufferView":2,
			"componentType":5126,
			"count":32590,
			"type":"VEC2"
		},
		{
			"bufferView":3,
			"componentType":5121,
			"count":32590,
			"type":"VEC4"
		},
		{
			"bufferView":4,
			"componentType":5126,
			"count":32590,
			"type":"VEC4"
		},
		{
			"bufferView":5,
			"componentType":5123,
			"count":119997,
			"type":"SCALAR"
		},
		{
			"bufferView":6,
			"componentType":5126,
			"count":24,
			"type":"MAT4"
		}
	],
	"bufferViews":[
		{
			"buffer":0,
			"byteLength":391080,
			"byteOffset":0,
			"target":34962
		},
		{
			"buffer":0,
			"byteLength":391080,
			"byteOffset":391080,
			"target":34962
		},
		{
			"buffer":0,
			"byteLength":260720,
			"byteOffset":782160,
			"target":34962
		},
		{
			"buffer":0,
			"byteLength":130360,
			"byteOffset":1042880,
			"target":34962
		},
		{
			"buffer":0,
			"byteLength":521440,
			"byteOffset":1173240,
			"target":34962
		},
		{
			"buffer":0,
			"byteLength":239994,
			"byteOffset":1694680,
			"target":34963
		},
		{
			"buffer":0,
			"byteLength":1536,
			"byteOffset":1934676
		}
	],
	"samplers":[
		{
			"magFilter":9729,
			"minFilter":9987
		}
	],
	"buffers":[
		{
			"byteLength":1936212,
			"uri":"noel_price.bin"
		}
	]
}
