{"asset":{"generator":"Khronos glTF Blender I/O v5.2.39","version":"2.0","extras":{"orison_bin_sha256":"e5666a66f32f7e86fbe30c404b20bf1be3f7d1fbd369e314f7c7d89089be777b","orison_m11c1_candidate":{"production_asset":false,"owner_before_material":true,"spatial_inference_used":false},"orison_m11c1_owner_first":{"cell":"CELL_ORISON_FACADE_SHELL","production_asset":false,"owner_before_material":true,"spatial_inference_used":false}}},"extensionsUsed":["KHR_materials_specular"],"scene":0,"scenes":[{"name":"Scene_orison_facade_shell","nodes":[0,1,2,3,4,5,6,7,8,9,10,11,12,13,14,15,16,17,18,19,20,21,22,23,24,25,26,27,28,29,30]}],"nodes":[{"mesh":0,"name":"F01_OWN_FACADE_facade_rainwater"},{"mesh":1,"name":"F01_OWN_FACADE_finish_f01_w00"},{"mesh":2,"name":"F01_OWN_FACADE_finish_f01_w01"},{"mesh":3,"name":"F01_OWN_FACADE_finish_f01_w02"},{"mesh":4,"name":"F01_OWN_FACADE_finish_f01_w03"},{"mesh":5,"name":"F01_OWN_FACADE_finish_f01_w04"},{"mesh":6,"name":"F01_OWN_FACADE_finish_f01_w05"},{"mesh":7,"name":"F01_OWN_FACADE_finish_f01_w06"},{"mesh":8,"name":"F01_OWN_FACADE_finish_f01_w07"},{"mesh":9,"name":"F01_OWN_FACADE_finish_f01_w08"},{"mesh":10,"name":"F01_OWN_FACADE_finish_f01_w09"},{"mesh":11,"name":"F01_OWN_FACADE_furnish_brass"},{"mesh":12,"name":"F01_OWN_FACADE_furnish_cast_iron"},{"mesh":13,"name":"F01_OWN_FACADE_furnish_glassish"},{"mesh":14,"name":"F01_OWN_FACADE_furnish_metal"},{"mesh":15,"name":"F01_OWN_FACADE_furnish_plywood"},{"mesh":16,"name":"F01_OWN_FACADE_furnish_soot"},{"mesh":17,"name":"F01_OWN_FACADE_furniture_brass-col"},{"mesh":18,"name":"F01_OWN_FACADE_furniture_fx_damp-col"},{"mesh":19,"name":"F01_OWN_FACADE_furniture_fx_drip-col"},{"mesh":20,"name":"F01_OWN_FACADE_furniture_limestone-col"},{"mesh":21,"name":"F01_OWN_FACADE_furniture_metal-col"},{"mesh":22,"name":"F01_OWN_FACADE_fx_ao_decal"},{"mesh":23,"name":"F01_OWN_FACADE_glazing-col"},{"mesh":24,"name":"F01_OWN_FACADE_sash-col"},{"mesh":25,"name":"F01_OWN_FACADE_stone_trim-col"},{"mesh":26,"name":"F01_OWN_FACADE_trim"},{"mesh":27,"name":"F01_OWN_FACADE_walls_cbrick-col"},{"mesh":28,"name":"F01_OWN_FACADE_walls_fbrick-col"},{"mesh":29,"name":"F01_OWN_FACADE_wear_fx_drip"},{"mesh":30,"name":"F01_OWN_FACADE_wear_fx_scuff"}],"meshes":[{"name":"F01_OWN_FACADE_facade_rainwater","primitives":[{"attributes":{"POSITION":0,"NORMAL":1,"TEXCOORD_0":2},"indices":3,"material":0}]},{"name":"F01_OWN_FACADE_finish_f01_w00","primitives":[{"attributes":{"POSITION":4,"NORMAL":5,"TEXCOORD_0":6},"indices":7,"material":1}]},{"name":"F01_OWN_FACADE_finish_f01_w01","primitives":[{"attributes":{"POSITION":8,"NORMAL":9,"TEXCOORD_0":10},"indices":11,"material":2}]},{"name":"F01_OWN_FACADE_finish_f01_w02","primitives":[{"attributes":{"POSITION":12,"NORMAL":13,"TEXCOORD_0":14},"indices":7,"material":3}]},{"name":"F01_OWN_FACADE_finish_f01_w03","primitives":[{"attributes":{"POSITION":15,"NORMAL":16,"TEXCOORD_0":17},"indices":11,"material":4}]},{"name":"F01_OWN_FACADE_finish_f01_w04","primitives":[{"attributes":{"POSITION":18,"NORMAL":19,"TEXCOORD_0":20},"indices":7,"material":5}]},{"name":"F01_OWN_FACADE_finish_f01_w05","primitives":[{"attributes":{"POSITION":21,"NORMAL":22,"TEXCOORD_0":23},"indices":11,"material":6}]},{"name":"F01_OWN_FACADE_finish_f01_w06","primitives":[{"attributes":{"POSITION":24,"NORMAL":25,"TEXCOORD_0":26},"indices":7,"material":7}]},{"name":"F01_OWN_FACADE_finish_f01_w07","primitives":[{"attributes":{"POSITION":27,"NORMAL":28,"TEXCOORD_0":29},"indices":11,"material":8}]},{"name":"F01_OWN_FACADE_finish_f01_w08","primitives":[{"attributes":{"POSITION":30,"NORMAL":31,"TEXCOORD_0":32},"indices":33,"material":9}]},{"name":"F01_OWN_FACADE_finish_f01_w09","primitives":[{"attributes":{"POSITION":34,"NORMAL":35,"TEXCOORD_0":36},"indices":7,"material":10}]},{"name":"F01_OWN_FACADE_furnish_brass","primitives":[{"attributes":{"POSITION":37,"NORMAL":38,"TEXCOORD_0":39},"indices":40,"material":11}]},{"name":"F01_OWN_FACADE_furnish_cast_iron","primitives":[{"attributes":{"POSITION":41,"NORMAL":42,"TEXCOORD_0":43},"indices":44,"material":12}]},{"name":"F01_OWN_FACADE_furnish_glassish","primitives":[{"attributes":{"POSITION":45,"NORMAL":46,"TEXCOORD_0":47},"indices":48,"material":13}]},{"name":"F01_OWN_FACADE_furnish_metal","primitives":[{"attributes":{"POSITION":49,"NORMAL":50,"TEXCOORD_0":51},"indices":52,"material":0}]},{"name":"F01_OWN_FACADE_furnish_plywood","primitives":[{"attributes":{"POSITION":53,"NORMAL":54,"TEXCOORD_0":55},"indices":56,"material":14}]},{"name":"F01_OWN_FACADE_furnish_soot","primitives":[{"attributes":{"POSITION":57,"NORMAL":58,"TEXCOORD_0":59},"indices":60,"material":15}]},{"name":"F01_OWN_FACADE_furniture_brass-col","primitives":[{"attributes":{"POSITION":61,"NORMAL":62,"TEXCOORD_0":63},"indices":64,"material":11}]},{"name":"F01_OWN_FACADE_furniture_fx_damp-col","primitives":[{"attributes":{"POSITION":65,"NORMAL":66,"TEXCOORD_0":67},"indices":68,"material":16}]},{"name":"F01_OWN_FACADE_furniture_fx_drip-col","primitives":[{"attributes":{"POSITION":69,"NORMAL":70,"TEXCOORD_0":71},"indices":68,"material":17}]},{"name":"F01_OWN_FACADE_furniture_limestone-col","primitives":[{"attributes":{"POSITION":72,"NORMAL":73,"TEXCOORD_0":74},"indices":64,"material":18}]},{"name":"F01_OWN_FACADE_furniture_metal-col","primitives":[{"attributes":{"POSITION":75,"NORMAL":76,"TEXCOORD_0":77},"indices":68,"material":0}]},{"name":"F01_OWN_FACADE_fx_ao_decal","primitives":[{"attributes":{"POSITION":78,"NORMAL":79,"TEXCOORD_0":80},"indices":81,"material":19}]},{"name":"F01_OWN_FACADE_glazing-col","primitives":[{"attributes":{"POSITION":82,"NORMAL":83,"TEXCOORD_0":84},"indices":85,"material":13}]},{"name":"F01_OWN_FACADE_sash-col","primitives":[{"attributes":{"POSITION":86,"NORMAL":87,"TEXCOORD_0":88},"indices":89,"material":20}]},{"name":"F01_OWN_FACADE_stone_trim-col","primitives":[{"attributes":{"POSITION":90,"NORMAL":91,"TEXCOORD_0":92},"indices":93,"material":18}]},{"name":"F01_OWN_FACADE_trim","primitives":[{"attributes":{"POSITION":94,"NORMAL":95,"TEXCOORD_0":96},"indices":97,"material":21}]},{"name":"F01_OWN_FACADE_walls_cbrick-col","primitives":[{"attributes":{"POSITION":98,"NORMAL":99,"TEXCOORD_0":100},"indices":101,"material":22}]},{"name":"F01_OWN_FACADE_walls_fbrick-col","primitives":[{"attributes":{"POSITION":102,"NORMAL":103,"TEXCOORD_0":104},"indices":105,"material":23}]},{"name":"F01_OWN_FACADE_wear_fx_drip","primitives":[{"attributes":{"POSITION":106,"NORMAL":107,"TEXCOORD_0":108},"indices":109,"material":17}]},{"name":"F01_OWN_FACADE_wear_fx_scuff","primitives":[{"attributes":{"POSITION":110,"NORMAL":111,"TEXCOORD_0":112},"indices":113,"material":24}]}],"accessors":[{"bufferView":0,"componentType":5126,"count":268,"max":[13.632308006286621,18.81999969482422,9.914999961853027],"min":[-13.632308006286621,0.18000000715255737,-9.914999961853027],"type":"VEC3"},{"bufferView":1,"componentType":5126,"count":268,"type":"VEC3"},{"bufferView":2,"componentType":5126,"count":268,"type":"VEC2"},{"bufferView":3,"componentType":5123,"count":480,"type":"SCALAR"},{"bufferView":4,"componentType":5126,"count":20,"max":[-13.583999633789062,3.200000047683716,9.649999618530273],"min":[-13.583999633789062,0,0.44999998807907104],"type":"VEC3"},{"bufferView":5,"componentType":5126,"count":20,"type":"VEC3"},{"bufferView":6,"componentType":5126,"count":20,"type":"VEC2"},{"bufferView":7,"componentType":5123,"count":30,"type":"SCALAR"},{"bufferView":8,"componentType":5126,"count":16,"max":[-5.510000228881836,3.200000047683716,9.583999633789062],"min":[-13.649999618530273,0,9.583999633789062],"type":"VEC3"},{"bufferView":9,"componentType":5126,"count":16,"type":"VEC3"},{"bufferView":10,"componentType":5126,"count":16,"type":"VEC2"},{"bufferView":11,"componentType":5123,"count":24,"type":"SCALAR"},{"bufferView":12,"componentType":5126,"count":20,"max":[-13.583999633789062,3.200000047683716,-2.6700000762939453],"min":[-13.583999633789062,0,-9.649999618530273],"type":"VEC3"},{"bufferView":13,"componentType":5126,"count":20,"type":"VEC3"},{"bufferView":14,"componentType":5126,"count":20,"type":"VEC2"},{"bufferView":15,"componentType":5126,"count":16,"max":[-5.510000228881836,3.200000047683716,-9.583999633789062],"min":[-13.649999618530273,0,-9.583999633789062],"type":"VEC3"},{"bufferView":16,"componentType":5126,"count":16,"type":"VEC3"},{"bufferView":17,"componentType":5126,"count":16,"type":"VEC2"},{"bufferView":18,"componentType":5126,"count":20,"max":[13.583999633789062,3.200000047683716,0.8799999952316284],"min":[13.583999633789062,0,-9.649999618530273],"type":"VEC3"},{"bufferView":19,"componentType":5126,"count":20,"type":"VEC3"},{"bufferView":20,"componentType":5126,"count":20,"type":"VEC2"},{"bufferView":21,"componentType":5126,"count":16,"max":[13.649999618530273,3.200000047683716,-9.583999633789062],"min":[5.510000228881836,0,-9.583999633789062],"type":"VEC3"},{"bufferView":22,"componentType":5126,"count":16,"type":"VEC3"},{"bufferView":23,"componentType":5126,"count":16,"type":"VEC2"},{"bufferView":24,"componentType":5126,"count":20,"max":[13.583999633789062,3.200000047683716,9.649999618530273],"min":[13.583999633789062,0,1],"type":"VEC3"},{"bufferView":25,"componentType":5126,"count":20,"type":"VEC3"},{"bufferView":26,"componentType":5126,"count":20,"type":"VEC2"},{"bufferView":27,"componentType":5126,"count":16,"max":[13.649999618530273,3.200000047683716,9.583999633789062],"min":[5.510000228881836,0,9.583999633789062],"type":"VEC3"},{"bufferView":28,"componentType":5126,"count":16,"type":"VEC3"},{"bufferView":29,"componentType":5126,"count":16,"type":"VEC2"},{"bufferView":30,"componentType":5126,"count":32,"max":[5.510000228881836,3.200000047683716,9.583999633789062],"min":[-5.510000228881836,0,9.583999633789062],"type":"VEC3"},{"bufferView":31,"componentType":5126,"count":32,"type":"VEC3"},{"bufferView":32,"componentType":5126,"count":32,"type":"VEC2"},{"bufferView":33,"componentType":5123,"count":48,"type":"SCALAR"},{"bufferView":34,"componentType":5126,"count":20,"max":[5.510000228881836,3.200000047683716,-9.583999633789062],"min":[-5.510000228881836,0,-9.583999633789062],"type":"VEC3"},{"bufferView":35,"componentType":5126,"count":20,"type":"VEC3"},{"bufferView":36,"componentType":5126,"count":20,"type":"VEC2"},{"bufferView":37,"componentType":5126,"count":2885,"max":[1.7699999809265137,3.6700000762939453,11.925000190734863],"min":[-1.7699999809265137,3.180000066757202,11.798203468322754],"type":"VEC3"},{"bufferView":38,"componentType":5126,"count":2885,"type":"VEC3"},{"bufferView":39,"componentType":5126,"count":2885,"type":"VEC2"},{"bufferView":40,"componentType":5123,"count":4680,"type":"SCALAR"},{"bufferView":41,"componentType":5126,"count":722,"max":[1.8600000143051147,5.15500020980835,11.880000114440918],"min":[-1.8600000143051147,3.180000066757202,9.904999732971191],"type":"VEC3"},{"bufferView":42,"componentType":5126,"count":722,"type":"VEC3"},{"bufferView":43,"componentType":5126,"count":722,"type":"VEC2"},{"bufferView":44,"componentType":5123,"count":1080,"type":"SCALAR"},{"bufferView":45,"componentType":5126,"count":240,"max":[1.7400000095367432,3.4070000648498535,11.739999771118164],"min":[-1.7400000095367432,3.3949999809265137,10.020000457763672],"type":"VEC3"},{"bufferView":46,"componentType":5126,"count":240,"type":"VEC3"},{"bufferView":47,"componentType":5126,"count":240,"type":"VEC2"},{"bufferView":48,"componentType":5123,"count":360,"type":"SCALAR"},{"bufferView":49,"componentType":5126,"count":17135,"max":[15.458000183105469,19.215587615966797,11.819999694824219],"min":[-15.458000183105469,0.05000000074505806,-11.508000373840332],"type":"VEC3"},{"bufferView":50,"componentType":5126,"count":17135,"type":"VEC3"},{"bufferView":51,"componentType":5126,"count":17135,"type":"VEC2"},{"bufferView":52,"componentType":5123,"count":27540,"type":"SCALAR"},{"bufferView":53,"componentType":5126,"count":24,"max":[-0.925000011920929,3.4130001068115234,11.739999771118164],"min":[-1.7400000095367432,3.3949999809265137,11.220000267028809],"type":"VEC3"},{"bufferView":54,"componentType":5126,"count":24,"type":"VEC3"},{"bufferView":55,"componentType":5126,"count":24,"type":"VEC2"},{"bufferView":56,"componentType":5123,"count":36,"type":"SCALAR"},{"bufferView":57,"componentType":5126,"count":72,"max":[1.7000000476837158,5.059999942779541,10.01200008392334],"min":[-1.7000000476837158,2.619999885559082,10],"type":"VEC3"},{"bufferView":58,"componentType":5126,"count":72,"type":"VEC3"},{"bufferView":59,"componentType":5126,"count":72,"type":"VEC2"},{"bufferView":60,"componentType":5123,"count":108,"type":"SCALAR"},{"bufferView":61,"componentType":5126,"count":192,"max":[4.260000228881836,1.5850000381469727,9.59000015258789],"min":[4.010000228881836,1.1799999475479126,9.569999694824219],"type":"VEC3"},{"bufferView":62,"componentType":5126,"count":192,"type":"VEC3"},{"bufferView":63,"componentType":5126,"count":192,"type":"VEC2"},{"bufferView":64,"componentType":5123,"count":288,"type":"SCALAR"},{"bufferView":65,"componentType":5126,"count":48,"max":[13.899999618530273,0.7300000190734863,10.0600004196167],"min":[-13.899999618530273,0.44999998807907104,9.96500015258789],"type":"VEC3"},{"bufferView":66,"componentType":5126,"count":48,"type":"VEC3"},{"bufferView":67,"componentType":5126,"count":48,"type":"VEC2"},{"bufferView":68,"componentType":5123,"count":72,"type":"SCALAR"},{"bufferView":69,"componentType":5126,"count":48,"max":[6.75,3,10.055000305175781],"min":[-11,0.699999988079071,9.970000267028809],"type":"VEC3"},{"bufferView":70,"componentType":5126,"count":48,"type":"VEC3"},{"bufferView":71,"componentType":5126,"count":48,"type":"VEC2"},{"bufferView":72,"componentType":5126,"count":192,"max":[14.100000381469727,3.0999999046325684,10.380000114440918],"min":[-14.100000381469727,0,-10.100000381469727],"type":"VEC3"},{"bufferView":73,"componentType":5126,"count":192,"type":"VEC3"},{"bufferView":74,"componentType":5126,"count":192,"type":"VEC2"},{"bufferView":75,"componentType":5126,"count":48,"max":[4.429999828338623,2.9600000381469727,9.664999961853027],"min":[3.950000047683716,1.100000023841858,9.59000015258789],"type":"VEC3"},{"bufferView":76,"componentType":5126,"count":48,"type":"VEC3"},{"bufferView":77,"componentType":5126,"count":48,"type":"VEC2"},{"bufferView":78,"componentType":5126,"count":44,"max":[13.649999618530273,0.02199999988079071,9.649999618530273],"min":[-13.649999618530273,0.0020000000949949026,-9.649999618530273],"type":"VEC3"},{"bufferView":79,"componentType":5126,"count":44,"type":"VEC3"},{"bufferView":80,"componentType":5126,"count":44,"type":"VEC2"},{"bufferView":81,"componentType":5123,"count":66,"type":"SCALAR"},{"bufferView":82,"componentType":5126,"count":768,"max":[13.964900016784668,2.4010000228881836,9.964900016784668],"min":[-13.964900016784668,0.9629999995231628,-9.964900016784668],"type":"VEC3"},{"bufferView":83,"componentType":5126,"count":768,"type":"VEC3"},{"bufferView":84,"componentType":5126,"count":768,"type":"VEC2"},{"bufferView":85,"componentType":5123,"count":1152,"type":"SCALAR"},{"bufferView":86,"componentType":5126,"count":4608,"max":[13.979999542236328,2.5,9.979999542236328],"min":[-13.979999542236328,0.8500000238418579,-9.979999542236328],"type":"VEC3"},{"bufferView":87,"componentType":5126,"count":4608,"type":"VEC3"},{"bufferView":88,"componentType":5126,"count":4608,"type":"VEC2"},{"bufferView":89,"componentType":5123,"count":6912,"type":"SCALAR"},{"bufferView":90,"componentType":5126,"count":3912,"max":[14.095000267028809,2.7049999237060547,10.095000267028809],"min":[-14.095000267028809,0,-10.095000267028809],"type":"VEC3"},{"bufferView":91,"componentType":5126,"count":3912,"type":"VEC3"},{"bufferView":92,"componentType":5126,"count":3912,"type":"VEC2"},{"bufferView":93,"componentType":5123,"count":5868,"type":"SCALAR"},{"bufferView":94,"componentType":5126,"count":2040,"max":[13.649999618530273,3.200000047683716,9.649999618530273],"min":[-13.649999618530273,0,-9.649999618530273],"type":"VEC3"},{"bufferView":95,"componentType":5126,"count":2040,"type":"VEC3"},{"bufferView":96,"componentType":5126,"count":2040,"type":"VEC2"},{"bufferView":97,"componentType":5123,"count":3060,"type":"SCALAR"},{"bufferView":98,"componentType":5126,"count":1320,"max":[14.024999618530273,3.200000047683716,9.649999618530273],"min":[-14.024999618530273,0,-10.024999618530273],"type":"VEC3"},{"bufferView":99,"componentType":5126,"count":1320,"type":"VEC3"},{"bufferView":100,"componentType":5126,"count":1320,"type":"VEC2"},{"bufferView":101,"componentType":5123,"count":1980,"type":"SCALAR"},{"bufferView":102,"componentType":5126,"count":504,"max":[13.649999618530273,3.200000047683716,10.024999618530273],"min":[-13.649999618530273,0,9.5649995803833],"type":"VEC3"},{"bufferView":103,"componentType":5126,"count":504,"type":"VEC3"},{"bufferView":104,"componentType":5126,"count":504,"type":"VEC2"},{"bufferView":105,"componentType":5123,"count":756,"type":"SCALAR"},{"bufferView":106,"componentType":5126,"count":64,"max":[13.586000442504883,0.8899999856948853,9.586000442504883],"min":[-13.586000442504883,0.07999999821186066,-9.586000442504883],"type":"VEC3"},{"bufferView":107,"componentType":5126,"count":64,"type":"VEC3"},{"bufferView":108,"componentType":5126,"count":64,"type":"VEC2"},{"bufferView":109,"componentType":5123,"count":96,"type":"SCALAR"},{"bufferView":110,"componentType":5126,"count":4,"max":[0.5550000071525574,0.006000000052154064,10.244999885559082],"min":[-0.5550000071525574,0.006000000052154064,9.345000267028809],"type":"VEC3"},{"bufferView":111,"componentType":5126,"count":4,"type":"VEC3"},{"bufferView":112,"componentType":5126,"count":4,"type":"VEC2"},{"bufferView":113,"componentType":5123,"count":6,"type":"SCALAR"}],"bufferViews":[{"buffer":0,"byteLength":3216,"byteOffset":0,"target":34962,"byteStride":12},{"buffer":0,"byteLength":3216,"byteOffset":3216,"target":34962,"byteStride":12},{"buffer":0,"byteLength":2144,"byteOffset":6432,"target":34962,"byteStride":8},{"buffer":0,"byteLength":960,"byteOffset":8576,"target":34963},{"buffer":0,"byteLength":240,"byteOffset":9536,"target":34962,"byteStride":12},{"buffer":0,"byteLength":240,"byteOffset":9776,"target":34962,"byteStride":12},{"buffer":0,"byteLength":160,"byteOffset":10016,"target":34962,"byteStride":8},{"buffer":0,"byteLength":60,"byteOffset":10176,"target":34963},{"buffer":0,"byteLength":192,"byteOffset":10236,"target":34962,"byteStride":12},{"buffer":0,"byteLength":192,"byteOffset":10428,"target":34962,"byteStride":12},{"buffer":0,"byteLength":128,"byteOffset":10620,"target":34962,"byteStride":8},{"buffer":0,"byteLength":48,"byteOffset":10748,"target":34963},{"buffer":0,"byteLength":240,"byteOffset":10796,"target":34962,"byteStride":12},{"buffer":0,"byteLength":240,"byteOffset":11036,"target":34962,"byteStride":12},{"buffer":0,"byteLength":160,"byteOffset":11276,"target":34962,"byteStride":8},{"buffer":0,"byteLength":192,"byteOffset":11436,"target":34962,"byteStride":12},{"buffer":0,"byteLength":192,"byteOffset":11628,"target":34962,"byteStride":12},{"buffer":0,"byteLength":128,"byteOffset":11820,"target":34962,"byteStride":8},{"buffer":0,"byteLength":240,"byteOffset":11948,"target":34962,"byteStride":12},{"buffer":0,"byteLength":240,"byteOffset":12188,"target":34962,"byteStride":12},{"buffer":0,"byteLength":160,"byteOffset":12428,"target":34962,"byteStride":8},{"buffer":0,"byteLength":192,"byteOffset":12588,"target":34962,"byteStride":12},{"buffer":0,"byteLength":192,"byteOffset":12780,"target":34962,"byteStride":12},{"buffer":0,"byteLength":128,"byteOffset":12972,"target":34962,"byteStride":8},{"buffer":0,"byteLength":240,"byteOffset":13100,"target":34962,"byteStride":12},{"buffer":0,"byteLength":240,"byteOffset":13340,"target":34962,"byteStride":12},{"buffer":0,"byteLength":160,"byteOffset":13580,"target":34962,"byteStride":8},{"buffer":0,"byteLength":192,"byteOffset":13740,"target":34962,"byteStride":12},{"buffer":0,"byteLength":192,"byteOffset":13932,"target":34962,"byteStride":12},{"buffer":0,"byteLength":128,"byteOffset":14124,"target":34962,"byteStride":8},{"buffer":0,"byteLength":384,"byteOffset":14252,"target":34962,"byteStride":12},{"buffer":0,"byteLength":384,"byteOffset":14636,"target":34962,"byteStride":12},{"buffer":0,"byteLength":256,"byteOffset":15020,"target":34962,"byteStride":8},{"buffer":0,"byteLength":96,"byteOffset":15276,"target":34963},{"buffer":0,"byteLength":240,"byteOffset":15372,"target":34962,"byteStride":12},{"buffer":0,"byteLength":240,"byteOffset":15612,"target":34962,"byteStride":12},{"buffer":0,"byteLength":160,"byteOffset":15852,"target":34962,"byteStride":8},{"buffer":0,"byteLength":34620,"byteOffset":16012,"target":34962,"byteStride":12},{"buffer":0,"byteLength":34620,"byteOffset":50632,"target":34962,"byteStride":12},{"buffer":0,"byteLength":23080,"byteOffset":85252,"target":34962,"byteStride":8},{"buffer":0,"byteLength":9360,"byteOffset":108332,"target":34963},{"buffer":0,"byteLength":8664,"byteOffset":117692,"target":34962,"byteStride":12},{"buffer":0,"byteLength":8664,"byteOffset":126356,"target":34962,"byteStride":12},{"buffer":0,"byteLength":5776,"byteOffset":135020,"target":34962,"byteStride":8},{"buffer":0,"byteLength":2160,"byteOffset":140796,"target":34963},{"buffer":0,"byteLength":2880,"byteOffset":142956,"target":34962,"byteStride":12},{"buffer":0,"byteLength":2880,"byteOffset":145836,"target":34962,"byteStride":12},{"buffer":0,"byteLength":1920,"byteOffset":148716,"target":34962,"byteStride":8},{"buffer":0,"byteLength":720,"byteOffset":150636,"target":34963},{"buffer":0,"byteLength":205620,"byteOffset":151356,"target":34962,"byteStride":12},{"buffer":0,"byteLength":205620,"byteOffset":356976,"target":34962,"byteStride":12},{"buffer":0,"byteLength":137080,"byteOffset":562596,"target":34962,"byteStride":8},{"buffer":0,"byteLength":55080,"byteOffset":699676,"target":34963},{"buffer":0,"byteLength":288,"byteOffset":754756,"target":34962,"byteStride":12},{"buffer":0,"byteLength":288,"byteOffset":755044,"target":34962,"byteStride":12},{"buffer":0,"byteLength":192,"byteOffset":755332,"target":34962,"byteStride":8},{"buffer":0,"byteLength":72,"byteOffset":755524,"target":34963},{"buffer":0,"byteLength":864,"byteOffset":755596,"target":34962,"byteStride":12},{"buffer":0,"byteLength":864,"byteOffset":756460,"target":34962,"byteStride":12},{"buffer":0,"byteLength":576,"byteOffset":757324,"target":34962,"byteStride":8},{"buffer":0,"byteLength":216,"byteOffset":757900,"target":34963},{"buffer":0,"byteLength":2304,"byteOffset":758116,"target":34962,"byteStride":12},{"buffer":0,"byteLength":2304,"byteOffset":760420,"target":34962,"byteStride":12},{"buffer":0,"byteLength":1536,"byteOffset":762724,"target":34962,"byteStride":8},{"buffer":0,"byteLength":576,"byteOffset":764260,"target":34963},{"buffer":0,"byteLength":576,"byteOffset":764836,"target":34962,"byteStride":12},{"buffer":0,"byteLength":576,"byteOffset":765412,"target":34962,"byteStride":12},{"buffer":0,"byteLength":384,"byteOffset":765988,"target":34962,"byteStride":8},{"buffer":0,"byteLength":144,"byteOffset":766372,"target":34963},{"buffer":0,"byteLength":576,"byteOffset":766516,"target":34962,"byteStride":12},{"buffer":0,"byteLength":576,"byteOffset":767092,"target":34962,"byteStride":12},{"buffer":0,"byteLength":384,"byteOffset":767668,"target":34962,"byteStride":8},{"buffer":0,"byteLength":2304,"byteOffset":768052,"target":34962,"byteStride":12},{"buffer":0,"byteLength":2304,"byteOffset":770356,"target":34962,"byteStride":12},{"buffer":0,"byteLength":1536,"byteOffset":772660,"target":34962,"byteStride":8},{"buffer":0,"byteLength":576,"byteOffset":774196,"target":34962,"byteStride":12},{"buffer":0,"byteLength":576,"byteOffset":774772,"target":34962,"byteStride":12},{"buffer":0,"byteLength":384,"byteOffset":775348,"target":34962,"byteStride":8},{"buffer":0,"byteLength":528,"byteOffset":775732,"target":34962,"byteStride":12},{"buffer":0,"byteLength":528,"byteOffset":776260,"target":34962,"byteStride":12},{"buffer":0,"byteLength":352,"byteOffset":776788,"target":34962,"byteStride":8},{"buffer":0,"byteLength":132,"byteOffset":777140,"target":34963},{"buffer":0,"byteLength":9216,"byteOffset":777272,"target":34962,"byteStride":12},{"buffer":0,"byteLength":9216,"byteOffset":786488,"target":34962,"byteStride":12},{"buffer":0,"byteLength":6144,"byteOffset":795704,"target":34962,"byteStride":8},{"buffer":0,"byteLength":2304,"byteOffset":801848,"target":34963},{"buffer":0,"byteLength":55296,"byteOffset":804152,"target":34962,"byteStride":12},{"buffer":0,"byteLength":55296,"byteOffset":859448,"target":34962,"byteStride":12},{"buffer":0,"byteLength":36864,"byteOffset":914744,"target":34962,"byteStride":8},{"buffer":0,"byteLength":13824,"byteOffset":951608,"target":34963},{"buffer":0,"byteLength":46944,"byteOffset":965432,"target":34962,"byteStride":12},{"buffer":0,"byteLength":46944,"byteOffset":1012376,"target":34962,"byteStride":12},{"buffer":0,"byteLength":31296,"byteOffset":1059320,"target":34962,"byteStride":8},{"buffer":0,"byteLength":11736,"byteOffset":1090616,"target":34963},{"buffer":0,"byteLength":24480,"byteOffset":1102352,"target":34962,"byteStride":12},{"buffer":0,"byteLength":24480,"byteOffset":1126832,"target":34962,"byteStride":12},{"buffer":0,"byteLength":16320,"byteOffset":1151312,"target":34962,"byteStride":8},{"buffer":0,"byteLength":6120,"byteOffset":1167632,"target":34963},{"buffer":0,"byteLength":15840,"byteOffset":1173752,"target":34962,"byteStride":12},{"buffer":0,"byteLength":15840,"byteOffset":1189592,"target":34962,"byteStride":12},{"buffer":0,"byteLength":10560,"byteOffset":1205432,"target":34962,"byteStride":8},{"buffer":0,"byteLength":3960,"byteOffset":1215992,"target":34963},{"buffer":0,"byteLength":6048,"byteOffset":1219952,"target":34962,"byteStride":12},{"buffer":0,"byteLength":6048,"byteOffset":1226000,"target":34962,"byteStride":12},{"buffer":0,"byteLength":4032,"byteOffset":1232048,"target":34962,"byteStride":8},{"buffer":0,"byteLength":1512,"byteOffset":1236080,"target":34963},{"buffer":0,"byteLength":768,"byteOffset":1237592,"target":34962,"byteStride":12},{"buffer":0,"byteLength":768,"byteOffset":1238360,"target":34962,"byteStride":12},{"buffer":0,"byteLength":512,"byteOffset":1239128,"target":34962,"byteStride":8},{"buffer":0,"byteLength":192,"byteOffset":1239640,"target":34963},{"buffer":0,"byteLength":48,"byteOffset":1239832,"target":34962,"byteStride":12},{"buffer":0,"byteLength":48,"byteOffset":1239880,"target":34962,"byteStride":12},{"buffer":0,"byteLength":32,"byteOffset":1239928,"target":34962,"byteStride":8},{"buffer":0,"byteLength":12,"byteOffset":1239960,"target":34963}],"buffers":[{"byteLength":1239972,"uri":"orison_facade_shell.bin"}],"materials":[{"name":"M_metal_b","normalTexture":{"index":0,"scale":0.3499999940395355},"pbrMetallicRoughness":{"baseColorTexture":{"index":1},"metallicFactor":0.8999999761581421,"metallicRoughnessTexture":{"index":2}}},{"alphaMode":"MASK","name":"M_wallfinish_f01_w00","normalTexture":{"index":3,"scale":0.41999998688697815},"pbrMetallicRoughness":{"baseColorTexture":{"index":4},"metallicFactor":0,"metallicRoughnessTexture":{"index":5}}},{"alphaMode":"MASK","name":"M_wallfinish_f01_w01","normalTexture":{"index":6,"scale":0.41999998688697815},"pbrMetallicRoughness":{"baseColorTexture":{"index":7},"metallicFactor":0,"metallicRoughnessTexture":{"index":8}}},{"alphaMode":"MASK","name":"M_wallfinish_f01_w02","normalTexture":{"index":9,"scale":0.41999998688697815},"pbrMetallicRoughness":{"baseColorTexture":{"index":10},"metallicFactor":0,"metallicRoughnessTexture":{"index":11}}},{"alphaMode":"MASK","name":"M_wallfinish_f01_w03","normalTexture":{"index":12,"scale":0.41999998688697815},"pbrMetallicRoughness":{"baseColorTexture":{"index":13},"metallicFactor":0,"metallicRoughnessTexture":{"index":14}}},{"alphaMode":"MASK","name":"M_wallfinish_f01_w04","normalTexture":{"index":15,"scale":0.41999998688697815},"pbrMetallicRoughness":{"baseColorTexture":{"index":16},"metallicFactor":0,"metallicRoughnessTexture":{"index":17}}},{"alphaMode":"MASK","name":"M_wallfinish_f01_w05","normalTexture":{"index":18,"scale":0.41999998688697815},"pbrMetallicRoughness":{"baseColorTexture":{"index":19},"metallicFactor":0,"metallicRoughnessTexture":{"index":20}}},{"alphaMode":"MASK","name":"M_wallfinish_f01_w06","normalTexture":{"index":21,"scale":0.41999998688697815},"pbrMetallicRoughness":{"baseColorTexture":{"index":22},"metallicFactor":0,"metallicRoughnessTexture":{"index":23}}},{"alphaMode":"MASK","name":"M_wallfinish_f01_w07","normalTexture":{"index":24,"scale":0.41999998688697815},"pbrMetallicRoughness":{"baseColorTexture":{"index":25},"metallicFactor":0,"metallicRoughnessTexture":{"index":26}}},{"alphaMode":"MASK","name":"M_wallfinish_f01_w08","normalTexture":{"index":27,"scale":0.41999998688697815},"pbrMetallicRoughness":{"baseColorTexture":{"index":28},"metallicFactor":0,"metallicRoughnessTexture":{"index":29}}},{"alphaMode":"MASK","name":"M_wallfinish_f01_w09","normalTexture":{"index":30,"scale":0.41999998688697815},"pbrMetallicRoughness":{"baseColorTexture":{"index":31},"metallicFactor":0,"metallicRoughnessTexture":{"index":32}}},{"name":"M_brass_b","normalTexture":{"index":33,"scale":0.3499999940395355},"pbrMetallicRoughness":{"baseColorTexture":{"index":34},"metallicFactor":0.8500000238418579,"metallicRoughnessTexture":{"index":35}}},{"name":"M_cast_iron_b","normalTexture":{"index":36,"scale":0.3499999940395355},"pbrMetallicRoughness":{"baseColorTexture":{"index":37},"metallicFactor":0.3499999940395355,"metallicRoughnessTexture":{"index":38}}},{"alphaMode":"BLEND","doubleSided":true,"name":"M_glassish","normalTexture":{"index":39,"scale":0.550000011920929},"pbrMetallicRoughness":{"baseColorFactor":[0.7599999904632568,0.8500000238418579,0.8899999856948853,0.1599999964237213],"metallicFactor":0,"metallicRoughnessTexture":{"index":40}}},{"name":"M_plywood_b","normalTexture":{"index":41,"scale":0.3499999940395355},"pbrMetallicRoughness":{"baseColorTexture":{"index":42},"metallicFactor":0,"metallicRoughnessTexture":{"index":43}}},{"name":"M_soot_b","normalTexture":{"index":44,"scale":0.3499999940395355},"pbrMetallicRoughness":{"baseColorTexture":{"index":45},"metallicFactor":0,"metallicRoughnessTexture":{"index":46}}},{"alphaMode":"BLEND","doubleSided":true,"name":"M_fx_damp","normalTexture":{"index":47,"scale":0.2800000011920929},"pbrMetallicRoughness":{"baseColorTexture":{"index":48},"metallicFactor":0,"metallicRoughnessTexture":{"index":49}}},{"alphaMode":"BLEND","doubleSided":true,"name":"M_fx_drip","normalTexture":{"index":50,"scale":0.2800000011920929},"pbrMetallicRoughness":{"baseColorTexture":{"index":51},"metallicFactor":0,"metallicRoughnessTexture":{"index":52}}},{"name":"M_limestone_b","normalTexture":{"index":53,"scale":0.3499999940395355},"pbrMetallicRoughness":{"baseColorTexture":{"index":54},"metallicFactor":0,"metallicRoughnessTexture":{"index":55}}},{"alphaMode":"BLEND","doubleSided":true,"extensions":{"KHR_materials_specular":{"specularFactor":0}},"name":"M_fx_ao","pbrMetallicRoughness":{"baseColorTexture":{"index":56},"metallicFactor":0}},{"name":"M_sash","normalTexture":{"index":57,"scale":0.3499999940395355},"pbrMetallicRoughness":{"baseColorTexture":{"index":58},"metallicFactor":0,"metallicRoughnessTexture":{"index":59}}},{"name":"M_trim_b","normalTexture":{"index":60,"scale":0.3499999940395355},"pbrMetallicRoughness":{"baseColorTexture":{"index":61},"metallicFactor":0,"metallicRoughnessTexture":{"index":62}}},{"name":"M_common_brick_b","normalTexture":{"index":63,"scale":0.3499999940395355},"pbrMetallicRoughness":{"baseColorTexture":{"index":64},"metallicFactor":0,"metallicRoughnessTexture":{"index":65}}},{"name":"M_face_brick_b","normalTexture":{"index":66,"scale":0.3499999940395355},"pbrMetallicRoughness":{"baseColorTexture":{"index":67},"metallicFactor":0,"metallicRoughnessTexture":{"index":68}}},{"alphaMode":"BLEND","doubleSided":true,"name":"M_fx_scuff","normalTexture":{"index":69,"scale":0.2800000011920929},"pbrMetallicRoughness":{"baseColorTexture":{"index":70},"metallicFactor":0,"metallicRoughnessTexture":{"index":71}}}],"textures":[{"sampler":0,"source":0},{"sampler":0,"source":1},{"sampler":0,"source":2},{"sampler":0,"source":3},{"sampler":0,"source":4},{"sampler":0,"source":5},{"sampler":0,"source":6},{"sampler":0,"source":7},{"sampler":0,"source":8},{"sampler":0,"source":9},{"sampler":0,"source":10},{"sampler":0,"source":11},{"sampler":0,"source":12},{"sampler":0,"source":13},{"sampler":0,"source":14},{"sampler":0,"source":15},{"sampler":0,"source":16},{"sampler":0,"source":17},{"sampler":0,"source":18},{"sampler":0,"source":19},{"sampler":0,"source":20},{"sampler":0,"source":21},{"sampler":0,"source":22},{"sampler":0,"source":23},{"sampler":0,"source":24},{"sampler":0,"source":25},{"sampler":0,"source":26},{"sampler":0,"source":27},{"sampler":0,"source":28},{"sampler":0,"source":29},{"sampler":0,"source":30},{"sampler":0,"source":31},{"sampler":0,"source":32},{"sampler":0,"source":33},{"sampler":0,"source":34},{"sampler":0,"source":35},{"sampler":0,"source":36},{"sampler":0,"source":37},{"sampler":0,"source":38},{"sampler":0,"source":39},{"sampler":0,"source":40},{"sampler":0,"source":41},{"sampler":0,"source":42},{"sampler":0,"source":43},{"sampler":0,"source":44},{"sampler":0,"source":45},{"sampler":0,"source":46},{"sampler":0,"source":47},{"sampler":0,"source":48},{"sampler":0,"source":49},{"sampler":0,"source":50},{"sampler":0,"source":51},{"sampler":0,"source":52},{"sampler":0,"source":53},{"sampler":0,"source":54},{"sampler":0,"source":55},{"sampler":0,"source":56},{"sampler":0,"source":57},{"sampler":0,"source":58},{"sampler":0,"source":59},{"sampler":0,"source":60},{"sampler":0,"source":61},{"sampler":0,"source":62},{"sampler":0,"source":63},{"sampler":0,"source":64},{"sampler":0,"source":65},{"sampler":0,"source":66},{"sampler":0,"source":67},{"sampler":0,"source":68},{"sampler":0,"source":69},{"sampler":0,"source":70},{"sampler":0,"source":71}],"images":[{"mimeType":"image/png","name":"T_ai_materials_metal_b_normal","uri":"../textures/T_ai_materials_metal_b_normal.png"},{"mimeType":"image/png","name":"T_ai_materials_metal_b_albedo","uri":"../textures/T_ai_materials_metal_b_albedo.png"},{"mimeType":"image/png","name":"T_ai_materials_metal_b_rough","uri":"../textures/T_ai_materials_metal_b_rough.png"},{"mimeType":"image/png","name":"T_wallfinish_f01_w00_normal","uri":"../textures/T_wallfinish_f01_w00_normal.png"},{"mimeType":"image/png","name":"T_wallfinish_f01_w00_albedo","uri":"../textures/T_wallfinish_f01_w00_albedo.png"},{"mimeType":"image/png","name":"T_wallfinish_f01_w00_roughness","uri":"../textures/T_wallfinish_f01_w00_roughness.png"},{"mimeType":"image/png","name":"T_wallfinish_f01_w01_normal","uri":"../textures/T_wallfinish_f01_w01_normal.png"},{"mimeType":"image/png","name":"T_wallfinish_f01_w01_albedo","uri":"../textures/T_wallfinish_f01_w01_albedo.png"},{"mimeType":"image/png","name":"T_wallfinish_f01_w01_roughness","uri":"../textures/T_wallfinish_f01_w01_roughness.png"},{"mimeType":"image/png","name":"T_wallfinish_f01_w02_normal","uri":"../textures/T_wallfinish_f01_w02_normal.png"},{"mimeType":"image/png","name":"T_wallfinish_f01_w02_albedo","uri":"../textures/T_wallfinish_f01_w02_albedo.png"},{"mimeType":"image/png","name":"T_wallfinish_f01_w02_roughness","uri":"../textures/T_wallfinish_f01_w02_roughness.png"},{"mimeType":"image/png","name":"T_wallfinish_f01_w03_normal","uri":"../textures/T_wallfinish_f01_w03_normal.png"},{"mimeType":"image/png","name":"T_wallfinish_f01_w03_albedo","uri":"../textures/T_wallfinish_f01_w03_albedo.png"},{"mimeType":"image/png","name":"T_wallfinish_f01_w03_roughness","uri":"../textures/T_wallfinish_f01_w03_roughness.png"},{"mimeType":"image/png","name":"T_wallfinish_f01_w04_normal","uri":"../textures/T_wallfinish_f01_w04_normal.png"},{"mimeType":"image/png","name":"T_wallfinish_f01_w04_albedo","uri":"../textures/T_wallfinish_f01_w04_albedo.png"},{"mimeType":"image/png","name":"T_wallfinish_f01_w04_roughness","uri":"../textures/T_wallfinish_f01_w04_roughness.png"},{"mimeType":"image/png","name":"T_wallfinish_f01_w05_normal","uri":"../textures/T_wallfinish_f01_w05_normal.png"},{"mimeType":"image/png","name":"T_wallfinish_f01_w05_albedo","uri":"../textures/T_wallfinish_f01_w05_albedo.png"},{"mimeType":"image/png","name":"T_wallfinish_f01_w05_roughness","uri":"../textures/T_wallfinish_f01_w05_roughness.png"},{"mimeType":"image/png","name":"T_wallfinish_f01_w06_normal","uri":"../textures/T_wallfinish_f01_w06_normal.png"},{"mimeType":"image/png","name":"T_wallfinish_f01_w06_albedo","uri":"../textures/T_wallfinish_f01_w06_albedo.png"},{"mimeType":"image/png","name":"T_wallfinish_f01_w06_roughness","uri":"../textures/T_wallfinish_f01_w06_roughness.png"},{"mimeType":"image/png","name":"T_wallfinish_f01_w07_normal","uri":"../textures/T_wallfinish_f01_w07_normal.png"},{"mimeType":"image/png","name":"T_wallfinish_f01_w07_albedo","uri":"../textures/T_wallfinish_f01_w07_albedo.png"},{"mimeType":"image/png","name":"T_wallfinish_f01_w07_roughness","uri":"../textures/T_wallfinish_f01_w07_roughness.png"},{"mimeType":"image/png","name":"T_wallfinish_f01_w08_normal","uri":"../textures/T_wallfinish_f01_w08_normal.png"},{"mimeType":"image/png","name":"T_wallfinish_f01_w08_albedo","uri":"../textures/T_wallfinish_f01_w08_albedo.png"},{"mimeType":"image/png","name":"T_wallfinish_f01_w08_roughness","uri":"../textures/T_wallfinish_f01_w08_roughness.png"},{"mimeType":"image/png","name":"T_wallfinish_f01_w09_normal","uri":"../textures/T_wallfinish_f01_w09_normal.png"},{"mimeType":"image/png","name":"T_wallfinish_f01_w09_albedo","uri":"../textures/T_wallfinish_f01_w09_albedo.png"},{"mimeType":"image/png","name":"T_wallfinish_f01_w09_roughness","uri":"../textures/T_wallfinish_f01_w09_roughness.png"},{"mimeType":"image/png","name":"T_ai_materials_brass_b_normal","uri":"../textures/T_ai_materials_brass_b_normal.png"},{"mimeType":"image/png","name":"T_ai_materials_brass_b_albedo","uri":"../textures/T_ai_materials_brass_b_albedo.png"},{"mimeType":"image/png","name":"T_ai_materials_brass_b_rough","uri":"../textures/T_ai_materials_brass_b_rough.png"},{"mimeType":"image/png","name":"T_ai_materials_cast_iron_b_normal","uri":"../textures/T_ai_materials_cast_iron_b_normal.png"},{"mimeType":"image/png","name":"T_ai_materials_cast_iron_b_albedo","uri":"../textures/T_ai_materials_cast_iron_b_albedo.png"},{"mimeType":"image/png","name":"T_ai_materials_cast_iron_b_rough","uri":"../textures/T_ai_materials_cast_iron_b_rough.png"},{"mimeType":"image/png","name":"T_glass_normal","uri":"../textures/T_glass_normal.png"},{"mimeType":"image/png","name":"T_glass_rough","uri":"../textures/T_glass_rough.png"},{"mimeType":"image/png","name":"T_ai_materials_plywood_b_normal","uri":"../textures/T_ai_materials_plywood_b_normal.png"},{"mimeType":"image/png","name":"T_ai_materials_plywood_b_albedo","uri":"../textures/T_ai_materials_plywood_b_albedo.png"},{"mimeType":"image/png","name":"T_ai_materials_plywood_b_rough","uri":"../textures/T_ai_materials_plywood_b_rough.png"},{"mimeType":"image/png","name":"T_ai_materials_soot_b_normal","uri":"../textures/T_ai_materials_soot_b_normal.png"},{"mimeType":"image/png","name":"T_ai_materials_soot_b_albedo","uri":"../textures/T_ai_materials_soot_b_albedo.png"},{"mimeType":"image/png","name":"T_ai_materials_soot_b_rough","uri":"../textures/T_ai_materials_soot_b_rough.png"},{"mimeType":"image/png","name":"T_fx_fx_damp_normal","uri":"../textures/T_fx_fx_damp_normal.png"},{"mimeType":"image/png","name":"T_fx_fx_damp","uri":"../textures/T_fx_fx_damp.png"},{"mimeType":"image/png","name":"T_fx_fx_damp_rough","uri":"../textures/T_fx_fx_damp_rough.png"},{"mimeType":"image/png","name":"T_fx_fx_drip_normal","uri":"../textures/T_fx_fx_drip_normal.png"},{"mimeType":"image/png","name":"T_fx_fx_drip","uri":"../textures/T_fx_fx_drip.png"},{"mimeType":"image/png","name":"T_fx_fx_drip_rough","uri":"../textures/T_fx_fx_drip_rough.png"},{"mimeType":"image/png","name":"T_ai_materials_limestone_b_normal","uri":"../textures/T_ai_materials_limestone_b_normal.png"},{"mimeType":"image/png","name":"T_ai_materials_limestone_b_albedo","uri":"../textures/T_ai_materials_limestone_b_albedo.png"},{"mimeType":"image/png","name":"T_ai_materials_limestone_b_rough","uri":"../textures/T_ai_materials_limestone_b_rough.png"},{"mimeType":"image/png","name":"T_fx_fx_ao","uri":"../textures/T_fx_fx_ao.png"},{"mimeType":"image/png","name":"T_generated_sash_normal","uri":"../textures/T_generated_sash_normal.png"},{"mimeType":"image/png","name":"T_generated_sash_albedo","uri":"../textures/T_generated_sash_albedo.png"},{"mimeType":"image/png","name":"T_generated_sash_rough","uri":"../textures/T_generated_sash_rough.png"},{"mimeType":"image/png","name":"T_ai_materials_trim_b_normal","uri":"../textures/T_ai_materials_trim_b_normal.png"},{"mimeType":"image/png","name":"T_ai_materials_trim_b_albedo","uri":"../textures/T_ai_materials_trim_b_albedo.png"},{"mimeType":"image/png","name":"T_ai_materials_trim_b_rough","uri":"../textures/T_ai_materials_trim_b_rough.png"},{"mimeType":"image/png","name":"T_ai_materials_common_brick_b_normal","uri":"../textures/T_ai_materials_common_brick_b_normal.png"},{"mimeType":"image/png","name":"T_ai_materials_common_brick_b_albedo","uri":"../textures/T_ai_materials_common_brick_b_albedo.png"},{"mimeType":"image/png","name":"T_ai_materials_common_brick_b_rough","uri":"../textures/T_ai_materials_common_brick_b_rough.png"},{"mimeType":"image/png","name":"T_ai_materials_face_brick_b_normal","uri":"../textures/T_ai_materials_face_brick_b_normal.png"},{"mimeType":"image/png","name":"T_ai_materials_face_brick_b_albedo","uri":"../textures/T_ai_materials_face_brick_b_albedo.png"},{"mimeType":"image/png","name":"T_ai_materials_face_brick_b_rough","uri":"../textures/T_ai_materials_face_brick_b_rough.png"},{"mimeType":"image/png","name":"T_fx_fx_scuff_normal","uri":"../textures/T_fx_fx_scuff_normal.png"},{"mimeType":"image/png","name":"T_fx_fx_scuff","uri":"../textures/T_fx_fx_scuff.png"},{"mimeType":"image/png","name":"T_fx_fx_scuff_rough","uri":"../textures/T_fx_fx_scuff_rough.png"}],"samplers":[{"magFilter":9729,"minFilter":9987}]}
