{
  "accessors": [
    {
      "bufferView": 0,
      "componentType": 5123,
      "count": 36,
      "type": "SCALAR"
    },
    {
      "bufferView": 1,
      "componentType": 5123,
      "count": 108,
      "type": "SCALAR"
    },
    {
      "bufferView": 2,
      "componentType": 5123,
      "count": 432,
      "type": "SCALAR"
    },
    {
      "bufferView": 3,
      "componentType": 5123,
      "count": 324,
      "type": "SCALAR"
    },
    {
      "bufferView": 4,
      "componentType": 5123,
      "count": 144,
      "type": "SCALAR"
    },
    {
      "bufferView": 5,
      "componentType": 5126,
      "count": 24,
      "max": [
        14.279999732971191,
        6.519999980926514,
        51.880001068115234
      ],
      "min": [
        13.720000267028809,
        5.900000095367432,
        51.31999969482422
      ],
      "type": "VEC3"
    },
    {
      "bufferView": 6,
      "componentType": 5126,
      "count": 24,
      "type": "VEC3"
    },
    {
      "bufferView": 7,
      "componentType": 5126,
      "count": 24,
      "type": "VEC2"
    },
    {
      "bufferView": 8,
      "componentType": 5126,
      "count": 110,
      "max": [
        17,
        5.840000152587891,
        52
      ],
      "min": [
        11,
        -0.03999999910593033,
        38.2400016784668
      ],
      "type": "VEC3"
    },
    {
      "bufferView": 9,
      "componentType": 5126,
      "count": 110,
      "type": "VEC3"
    },
    {
      "bufferView": 10,
      "componentType": 5126,
      "count": 110,
      "type": "VEC2"
    },
    {
      "bufferView": 11,
      "componentType": 5123,
      "count": 192,
      "type": "SCALAR"
    },
    {
      "bufferView": 12,
      "componentType": 5126,
      "count": 336,
      "max": [
        15.449999809265137,
        6.579999923706055,
        64.5999984741211
      ],
      "min": [
        12.550000190734863,
        0.8899999856948853,
        31.110000610351562
      ],
      "type": "VEC3"
    },
    {
      "bufferView": 13,
      "componentType": 5126,
      "count": 336,
      "type": "VEC3"
    },
    {
      "bufferView": 14,
      "componentType": 5126,
      "count": 336,
      "type": "VEC2"
    },
    {
      "bufferView": 15,
      "componentType": 5123,
      "count": 504,
      "type": "SCALAR"
    },
    {
      "bufferView": 16,
      "componentType": 5126,
      "count": 1110,
      "max": [
        17.022796630859375,
        12.100000381469727,
        64.5
      ],
      "min": [
        10.977202415466309,
        3.950000047683716,
        31.18000030517578
      ],
      "type": "VEC3"
    },
    {
      "bufferView": 17,
      "componentType": 5126,
      "count": 1110,
      "type": "VEC3"
    },
    {
      "bufferView": 18,
      "componentType": 5126,
      "count": 1110,
      "type": "VEC2"
    },
    {
      "bufferView": 19,
      "componentType": 5123,
      "count": 1920,
      "type": "SCALAR"
    },
    {
      "bufferView": 20,
      "componentType": 5126,
      "count": 216,
      "max": [
        17.100000381469727,
        11.4399995803833,
        64.5999984741211
      ],
      "min": [
        10.899999618530273,
        7.059999942779541,
        38.599998474121094
      ],
      "type": "VEC3"
    },
    {
      "bufferView": 21,
      "componentType": 5126,
      "count": 216,
      "type": "VEC3"
    },
    {
      "bufferView": 22,
      "componentType": 5126,
      "count": 216,
      "type": "VEC2"
    },
    {
      "bufferView": 23,
      "componentType": 5126,
      "count": 840,
      "max": [
        24.219999313354492,
        4.199999809265137,
        64.8499984741211
      ],
      "min": [
        3.7799999713897705,
        0,
        28.31599998474121
      ],
      "type": "VEC3"
    },
    {
      "bufferView": 24,
      "componentType": 5126,
      "count": 840,
      "type": "VEC3"
    },
    {
      "bufferView": 25,
      "componentType": 5126,
      "count": 840,
      "type": "VEC2"
    },
    {
      "bufferView": 26,
      "componentType": 5123,
      "count": 1260,
      "type": "SCALAR"
    },
    {
      "bufferView": 27,
      "componentType": 5126,
      "count": 264,
      "max": [
        27.3700008392334,
        0.009999999776482582,
        62.209999084472656
      ],
      "min": [
        0.6299999952316284,
        -0.05000000074505806,
        41.290000915527344
      ],
      "type": "VEC3"
    },
    {
      "bufferView": 28,
      "componentType": 5126,
      "count": 264,
      "type": "VEC3"
    },
    {
      "bufferView": 29,
      "componentType": 5126,
      "count": 264,
      "type": "VEC2"
    },
    {
      "bufferView": 30,
      "componentType": 5123,
      "count": 396,
      "type": "SCALAR"
    },
    {
      "bufferView": 31,
      "componentType": 5126,
      "count": 1296,
      "max": [
        17.170000076293945,
        10.960000038146973,
        64.5999984741211
      ],
      "min": [
        10.829999923706055,
        5.150000095367432,
        38.599998474121094
      ],
      "type": "VEC3"
    },
    {
      "bufferView": 32,
      "componentType": 5126,
      "count": 1296,
      "type": "VEC3"
    },
    {
      "bufferView": 33,
      "componentType": 5126,
      "count": 1296,
      "type": "VEC2"
    },
    {
      "bufferView": 34,
      "componentType": 5123,
      "count": 1944,
      "type": "SCALAR"
    },
    {
      "bufferView": 35,
      "componentType": 5126,
      "count": 888,
      "max": [
        17.5,
        7.199999809265137,
        64.66000366210938
      ],
      "min": [
        10.5,
        0,
        38.599998474121094
      ],
      "type": "VEC3"
    },
    {
      "bufferView": 36,
      "componentType": 5126,
      "count": 888,
      "type": "VEC3"
    },
    {
      "bufferView": 37,
      "componentType": 5126,
      "count": 888,
      "type": "VEC2"
    },
    {
      "bufferView": 38,
      "componentType": 5123,
      "count": 1332,
      "type": "SCALAR"
    },
    {
      "bufferView": 39,
      "componentType": 5126,
      "count": 12330,
      "max": [
        17.0411376953125,
        9.942728996276855,
        63.04499816894531
      ],
      "min": [
        10.9588623046875,
        7.188198089599609,
        38.95500183105469
      ],
      "type": "VEC3"
    },
    {
      "bufferView": 40,
      "componentType": 5126,
      "count": 12330,
      "type": "VEC3"
    },
    {
      "bufferView": 41,
      "componentType": 5126,
      "count": 12330,
      "type": "VEC2"
    },
    {
      "bufferView": 42,
      "componentType": 5123,
      "count": 19200,
      "type": "SCALAR"
    },
    {
      "bufferView": 43,
      "componentType": 5126,
      "count": 72,
      "max": [
        14.899999618530273,
        11.5,
        52.5
      ],
      "min": [
        13.100000381469727,
        5.960000038146973,
        50.70000076293945
      ],
      "type": "VEC3"
    },
    {
      "bufferView": 44,
      "componentType": 5126,
      "count": 72,
      "type": "VEC3"
    },
    {
      "bufferView": 45,
      "componentType": 5126,
      "count": 72,
      "type": "VEC2"
    },
    {
      "bufferView": 46,
      "componentType": 5126,
      "count": 24,
      "max": [
        15.329999923706055,
        2.6500000953674316,
        64.5999984741211
      ],
      "min": [
        12.670000076293945,
        1.0700000524520874,
        64.44000244140625
      ],
      "type": "VEC3"
    },
    {
      "bufferView": 47,
      "componentType": 5126,
      "count": 24,
      "type": "VEC3"
    },
    {
      "bufferView": 48,
      "componentType": 5126,
      "count": 24,
      "type": "VEC2"
    },
    {
      "bufferView": 49,
      "componentType": 5126,
      "count": 1704,
      "max": [
        17.280000686645508,
        9.899999618530273,
        64.5999984741211
      ],
      "min": [
        10.720000267028809,
        3.7899999618530273,
        38.599998474121094
      ],
      "type": "VEC3"
    },
    {
      "bufferView": 50,
      "componentType": 5126,
      "count": 1704,
      "type": "VEC3"
    },
    {
      "bufferView": 51,
      "componentType": 5126,
      "count": 1704,
      "type": "VEC2"
    },
    {
      "bufferView": 52,
      "componentType": 5123,
      "count": 2556,
      "type": "SCALAR"
    },
    {
      "bufferView": 53,
      "componentType": 5126,
      "count": 816,
      "max": [
        27.3700008392334,
        4.380000114440918,
        62.209999084472656
      ],
      "min": [
        0.6299999952316284,
        0.009999999776482582,
        28.31599998474121
      ],
      "type": "VEC3"
    },
    {
      "bufferView": 54,
      "componentType": 5126,
      "count": 816,
      "type": "VEC3"
    },
    {
      "bufferView": 55,
      "componentType": 5126,
      "count": 816,
      "type": "VEC2"
    },
    {
      "bufferView": 56,
      "componentType": 5123,
      "count": 1224,
      "type": "SCALAR"
    },
    {
      "bufferView": 57,
      "componentType": 5126,
      "count": 288,
      "max": [
        17.3799991607666,
        8.100000381469727,
        64.73999786376953
      ],
      "min": [
        10.619999885559082,
        4.989999771118164,
        40.400001525878906
      ],
      "type": "VEC3"
    },
    {
      "bufferView": 58,
      "componentType": 5126,
      "count": 288,
      "type": "VEC3"
    },
    {
      "bufferView": 59,
      "componentType": 5126,
      "count": 288,
      "type": "VEC2"
    },
    {
      "bufferView": 60,
      "componentType": 5126,
      "count": 24,
      "max": [
        14.149999618530273,
        0.019999999552965164,
        51.75
      ],
      "min": [
        13.850000381469727,
        -0.03799999877810478,
        51.45000076293945
      ],
      "type": "VEC3"
    },
    {
      "bufferView": 61,
      "componentType": 5126,
      "count": 24,
      "type": "VEC3"
    },
    {
      "bufferView": 62,
      "componentType": 5126,
      "count": 24,
      "type": "VEC2"
    },
    {
      "bufferView": 63,
      "componentType": 5126,
      "count": 24,
      "max": [
        17,
        0.009999999776482582,
        64.5999984741211
      ],
      "min": [
        11,
        -0.05000000074505806,
        28.31599998474121
      ],
      "type": "VEC3"
    },
    {
      "bufferView": 64,
      "componentType": 5126,
      "count": 24,
      "type": "VEC3"
    },
    {
      "bufferView": 65,
      "componentType": 5126,
      "count": 24,
      "type": "VEC2"
    },
    {
      "bufferView": 66,
      "componentType": 5126,
      "count": 96,
      "max": [
        17,
        0.01600000075995922,
        64.5999984741211
      ],
      "min": [
        11,
        -0.04399999976158142,
        38.29999923706055
      ],
      "type": "VEC3"
    },
    {
      "bufferView": 67,
      "componentType": 5126,
      "count": 96,
      "type": "VEC3"
    },
    {
      "bufferView": 68,
      "componentType": 5126,
      "count": 96,
      "type": "VEC2"
    },
    {
      "bufferView": 69,
      "componentType": 5126,
      "count": 168,
      "max": [
        16.799999237060547,
        4.199999809265137,
        38.400001525878906
      ],
      "min": [
        11.199999809265137,
        4.039999961853027,
        28.516000747680664
      ],
      "type": "VEC3"
    },
    {
      "bufferView": 70,
      "componentType": 5126,
      "count": 168,
      "type": "VEC3"
    },
    {
      "bufferView": 71,
      "componentType": 5126,
      "count": 168,
      "type": "VEC2"
    },
    {
      "bufferView": 72,
      "componentType": 5123,
      "count": 252,
      "type": "SCALAR"
    },
    {
      "bufferView": 73,
      "componentType": 5126,
      "count": 288,
      "max": [
        27.43000030517578,
        2.809999942779541,
        64.5999984741211
      ],
      "min": [
        0.5699999928474426,
        0.009999999776482582,
        41.290000915527344
      ],
      "type": "VEC3"
    },
    {
      "bufferView": 74,
      "componentType": 5126,
      "count": 288,
      "type": "VEC3"
    },
    {
      "bufferView": 75,
      "componentType": 5126,
      "count": 288,
      "type": "VEC2"
    },
    {
      "bufferView": 76,
      "componentType": 5126,
      "count": 24,
      "max": [
        11.199999809265137,
        0.550000011920929,
        62.45000076293945
      ],
      "min": [
        11,
        0,
        59.540000915527344
      ],
      "type": "VEC3"
    },
    {
      "bufferView": 77,
      "componentType": 5126,
      "count": 24,
      "type": "VEC3"
    },
    {
      "bufferView": 78,
      "componentType": 5126,
      "count": 24,
      "type": "VEC2"
    },
    {
      "bufferView": 79,
      "componentType": 5126,
      "count": 24,
      "max": [
        11.199999809265137,
        0.550000011920929,
        57.849998474121094
      ],
      "min": [
        11,
        0,
        54.13999938964844
      ],
      "type": "VEC3"
    },
    {
      "bufferView": 80,
      "componentType": 5126,
      "count": 24,
      "type": "VEC3"
    },
    {
      "bufferView": 81,
      "componentType": 5126,
      "count": 24,
      "type": "VEC2"
    },
    {
      "bufferView": 82,
      "componentType": 5126,
      "count": 24,
      "max": [
        11.199999809265137,
        0.550000011920929,
        52.45000076293945
      ],
      "min": [
        11,
        0,
        50.540000915527344
      ],
      "type": "VEC3"
    },
    {
      "bufferView": 83,
      "componentType": 5126,
      "count": 24,
      "type": "VEC3"
    },
    {
      "bufferView": 84,
      "componentType": 5126,
      "count": 24,
      "type": "VEC2"
    },
    {
      "bufferView": 85,
      "componentType": 5126,
      "count": 24,
      "max": [
        17,
        0.550000011920929,
        42.79999923706055
      ],
      "min": [
        16.799999237060547,
        0,
        39.34000015258789
      ],
      "type": "VEC3"
    },
    {
      "bufferView": 86,
      "componentType": 5126,
      "count": 24,
      "type": "VEC3"
    },
    {
      "bufferView": 87,
      "componentType": 5126,
      "count": 24,
      "type": "VEC2"
    },
    {
      "bufferView": 88,
      "componentType": 5126,
      "count": 24,
      "max": [
        11.199999809265137,
        0.550000011920929,
        43.25
      ],
      "min": [
        11,
        0,
        39.34000015258789
      ],
      "type": "VEC3"
    },
    {
      "bufferView": 89,
      "componentType": 5126,
      "count": 24,
      "type": "VEC3"
    },
    {
      "bufferView": 90,
      "componentType": 5126,
      "count": 24,
      "type": "VEC2"
    },
    {
      "bufferView": 91,
      "componentType": 5126,
      "count": 24,
      "max": [
        17,
        0.550000011920929,
        49.400001525878906
      ],
      "min": [
        16.799999237060547,
        0,
        48.84000015258789
      ],
      "type": "VEC3"
    },
    {
      "bufferView": 92,
      "componentType": 5126,
      "count": 24,
      "type": "VEC3"
    },
    {
      "bufferView": 93,
      "componentType": 5126,
      "count": 24,
      "type": "VEC2"
    },
    {
      "bufferView": 94,
      "componentType": 5126,
      "count": 24,
      "max": [
        17,
        0.550000011920929,
        48.560001373291016
      ],
      "min": [
        16.799999237060547,
        0,
        45.95000076293945
      ],
      "type": "VEC3"
    },
    {
      "bufferView": 95,
      "componentType": 5126,
      "count": 24,
      "type": "VEC3"
    },
    {
      "bufferView": 96,
      "componentType": 5126,
      "count": 24,
      "type": "VEC2"
    },
    {
      "bufferView": 97,
      "componentType": 5126,
      "count": 24,
      "max": [
        17,
        0.550000011920929,
        55.459999084472656
      ],
      "min": [
        16.799999237060547,
        0,
        52.54999923706055
      ],
      "type": "VEC3"
    },
    {
      "bufferView": 98,
      "componentType": 5126,
      "count": 24,
      "type": "VEC3"
    },
    {
      "bufferView": 99,
      "componentType": 5126,
      "count": 24,
      "type": "VEC2"
    },
    {
      "bufferView": 100,
      "componentType": 5126,
      "count": 24,
      "max": [
        17,
        0.550000011920929,
        62.400001525878906
      ],
      "min": [
        16.799999237060547,
        0,
        58.939998626708984
      ],
      "type": "VEC3"
    },
    {
      "bufferView": 101,
      "componentType": 5126,
      "count": 24,
      "type": "VEC3"
    },
    {
      "bufferView": 102,
      "componentType": 5126,
      "count": 24,
      "type": "VEC2"
    },
    {
      "bufferView": 103,
      "componentType": 5126,
      "count": 24,
      "max": [
        17,
        0.550000011920929,
        58.65999984741211
      ],
      "min": [
        16.799999237060547,
        0,
        57.150001525878906
      ],
      "type": "VEC3"
    },
    {
      "bufferView": 104,
      "componentType": 5126,
      "count": 24,
      "type": "VEC3"
    },
    {
      "bufferView": 105,
      "componentType": 5126,
      "count": 24,
      "type": "VEC2"
    },
    {
      "bufferView": 106,
      "componentType": 5126,
      "count": 24,
      "max": [
        11.199999809265137,
        0.550000011920929,
        48.849998474121094
      ],
      "min": [
        11,
        0,
        44.939998626708984
      ],
      "type": "VEC3"
    },
    {
      "bufferView": 107,
      "componentType": 5126,
      "count": 24,
      "type": "VEC3"
    },
    {
      "bufferView": 108,
      "componentType": 5126,
      "count": 24,
      "type": "VEC2"
    }
  ],
  "asset": {
    "extras": {
      "orison_bin_sha256": "2861fceab55c8883fa24b7d3f03525fa26ee6eee25ea629bd2dda5df231fac36",
      "orison_floor01_owner_first": {
        "cell_id": "CELL_PASSAGE",
        "collision_name_contract": [
          "-col",
          "-colonly"
        ],
        "owner_before_material": true,
        "production_asset": true,
        "rollback_monolith_loaded_simultaneously": false,
        "schema": "orison.floor01.production-cell.v1",
        "spatial_inference_used": false
      }
    },
    "generator": "Khronos glTF Blender I/O v5.2.39",
    "version": "2.0"
  },
  "bufferViews": [
    {
      "buffer": 0,
      "byteLength": 72,
      "byteOffset": 0,
      "target": 34963
    },
    {
      "buffer": 0,
      "byteLength": 216,
      "byteOffset": 72,
      "target": 34963
    },
    {
      "buffer": 0,
      "byteLength": 864,
      "byteOffset": 288,
      "target": 34963
    },
    {
      "buffer": 0,
      "byteLength": 648,
      "byteOffset": 1152,
      "target": 34963
    },
    {
      "buffer": 0,
      "byteLength": 288,
      "byteOffset": 1800,
      "target": 34963
    },
    {
      "buffer": 0,
      "byteLength": 288,
      "byteOffset": 2088,
      "target": 34962
    },
    {
      "buffer": 0,
      "byteLength": 288,
      "byteOffset": 2376,
      "target": 34962
    },
    {
      "buffer": 0,
      "byteLength": 192,
      "byteOffset": 2664,
      "target": 34962
    },
    {
      "buffer": 0,
      "byteLength": 1320,
      "byteOffset": 2856,
      "target": 34962
    },
    {
      "buffer": 0,
      "byteLength": 1320,
      "byteOffset": 4176,
      "target": 34962
    },
    {
      "buffer": 0,
      "byteLength": 880,
      "byteOffset": 5496,
      "target": 34962
    },
    {
      "buffer": 0,
      "byteLength": 384,
      "byteOffset": 6376,
      "target": 34963
    },
    {
      "buffer": 0,
      "byteLength": 4032,
      "byteOffset": 6760,
      "target": 34962
    },
    {
      "buffer": 0,
      "byteLength": 4032,
      "byteOffset": 10792,
      "target": 34962
    },
    {
      "buffer": 0,
      "byteLength": 2688,
      "byteOffset": 14824,
      "target": 34962
    },
    {
      "buffer": 0,
      "byteLength": 1008,
      "byteOffset": 17512,
      "target": 34963
    },
    {
      "buffer": 0,
      "byteLength": 13320,
      "byteOffset": 18520,
      "target": 34962
    },
    {
      "buffer": 0,
      "byteLength": 13320,
      "byteOffset": 31840,
      "target": 34962
    },
    {
      "buffer": 0,
      "byteLength": 8880,
      "byteOffset": 45160,
      "target": 34962
    },
    {
      "buffer": 0,
      "byteLength": 3840,
      "byteOffset": 54040,
      "target": 34963
    },
    {
      "buffer": 0,
      "byteLength": 2592,
      "byteOffset": 57880,
      "target": 34962
    },
    {
      "buffer": 0,
      "byteLength": 2592,
      "byteOffset": 60472,
      "target": 34962
    },
    {
      "buffer": 0,
      "byteLength": 1728,
      "byteOffset": 63064,
      "target": 34962
    },
    {
      "buffer": 0,
      "byteLength": 10080,
      "byteOffset": 64792,
      "target": 34962
    },
    {
      "buffer": 0,
      "byteLength": 10080,
      "byteOffset": 74872,
      "target": 34962
    },
    {
      "buffer": 0,
      "byteLength": 6720,
      "byteOffset": 84952,
      "target": 34962
    },
    {
      "buffer": 0,
      "byteLength": 2520,
      "byteOffset": 91672,
      "target": 34963
    },
    {
      "buffer": 0,
      "byteLength": 3168,
      "byteOffset": 94192,
      "target": 34962
    },
    {
      "buffer": 0,
      "byteLength": 3168,
      "byteOffset": 97360,
      "target": 34962
    },
    {
      "buffer": 0,
      "byteLength": 2112,
      "byteOffset": 100528,
      "target": 34962
    },
    {
      "buffer": 0,
      "byteLength": 792,
      "byteOffset": 102640,
      "target": 34963
    },
    {
      "buffer": 0,
      "byteLength": 15552,
      "byteOffset": 103432,
      "target": 34962
    },
    {
      "buffer": 0,
      "byteLength": 15552,
      "byteOffset": 118984,
      "target": 34962
    },
    {
      "buffer": 0,
      "byteLength": 10368,
      "byteOffset": 134536,
      "target": 34962
    },
    {
      "buffer": 0,
      "byteLength": 3888,
      "byteOffset": 144904,
      "target": 34963
    },
    {
      "buffer": 0,
      "byteLength": 10656,
      "byteOffset": 148792,
      "target": 34962
    },
    {
      "buffer": 0,
      "byteLength": 10656,
      "byteOffset": 159448,
      "target": 34962
    },
    {
      "buffer": 0,
      "byteLength": 7104,
      "byteOffset": 170104,
      "target": 34962
    },
    {
      "buffer": 0,
      "byteLength": 2664,
      "byteOffset": 177208,
      "target": 34963
    },
    {
      "buffer": 0,
      "byteLength": 147960,
      "byteOffset": 179872,
      "target": 34962
    },
    {
      "buffer": 0,
      "byteLength": 147960,
      "byteOffset": 327832,
      "target": 34962
    },
    {
      "buffer": 0,
      "byteLength": 98640,
      "byteOffset": 475792,
      "target": 34962
    },
    {
      "buffer": 0,
      "byteLength": 38400,
      "byteOffset": 574432,
      "target": 34963
    },
    {
      "buffer": 0,
      "byteLength": 864,
      "byteOffset": 612832,
      "target": 34962
    },
    {
      "buffer": 0,
      "byteLength": 864,
      "byteOffset": 613696,
      "target": 34962
    },
    {
      "buffer": 0,
      "byteLength": 576,
      "byteOffset": 614560,
      "target": 34962
    },
    {
      "buffer": 0,
      "byteLength": 288,
      "byteOffset": 615136,
      "target": 34962
    },
    {
      "buffer": 0,
      "byteLength": 288,
      "byteOffset": 615424,
      "target": 34962
    },
    {
      "buffer": 0,
      "byteLength": 192,
      "byteOffset": 615712,
      "target": 34962
    },
    {
      "buffer": 0,
      "byteLength": 20448,
      "byteOffset": 615904,
      "target": 34962
    },
    {
      "buffer": 0,
      "byteLength": 20448,
      "byteOffset": 636352,
      "target": 34962
    },
    {
      "buffer": 0,
      "byteLength": 13632,
      "byteOffset": 656800,
      "target": 34962
    },
    {
      "buffer": 0,
      "byteLength": 5112,
      "byteOffset": 670432,
      "target": 34963
    },
    {
      "buffer": 0,
      "byteLength": 9792,
      "byteOffset": 675544,
      "target": 34962
    },
    {
      "buffer": 0,
      "byteLength": 9792,
      "byteOffset": 685336,
      "target": 34962
    },
    {
      "buffer": 0,
      "byteLength": 6528,
      "byteOffset": 695128,
      "target": 34962
    },
    {
      "buffer": 0,
      "byteLength": 2448,
      "byteOffset": 701656,
      "target": 34963
    },
    {
      "buffer": 0,
      "byteLength": 3456,
      "byteOffset": 704104,
      "target": 34962
    },
    {
      "buffer": 0,
      "byteLength": 3456,
      "byteOffset": 707560,
      "target": 34962
    },
    {
      "buffer": 0,
      "byteLength": 2304,
      "byteOffset": 711016,
      "target": 34962
    },
    {
      "buffer": 0,
      "byteLength": 288,
      "byteOffset": 713320,
      "target": 34962
    },
    {
      "buffer": 0,
      "byteLength": 288,
      "byteOffset": 713608,
      "target": 34962
    },
    {
      "buffer": 0,
      "byteLength": 192,
      "byteOffset": 713896,
      "target": 34962
    },
    {
      "buffer": 0,
      "byteLength": 288,
      "byteOffset": 714088,
      "target": 34962
    },
    {
      "buffer": 0,
      "byteLength": 288,
      "byteOffset": 714376,
      "target": 34962
    },
    {
      "buffer": 0,
      "byteLength": 192,
      "byteOffset": 714664,
      "target": 34962
    },
    {
      "buffer": 0,
      "byteLength": 1152,
      "byteOffset": 714856,
      "target": 34962
    },
    {
      "buffer": 0,
      "byteLength": 1152,
      "byteOffset": 716008,
      "target": 34962
    },
    {
      "buffer": 0,
      "byteLength": 768,
      "byteOffset": 717160,
      "target": 34962
    },
    {
      "buffer": 0,
      "byteLength": 2016,
      "byteOffset": 717928,
      "target": 34962
    },
    {
      "buffer": 0,
      "byteLength": 2016,
      "byteOffset": 719944,
      "target": 34962
    },
    {
      "buffer": 0,
      "byteLength": 1344,
      "byteOffset": 721960,
      "target": 34962
    },
    {
      "buffer": 0,
      "byteLength": 504,
      "byteOffset": 723304,
      "target": 34963
    },
    {
      "buffer": 0,
      "byteLength": 3456,
      "byteOffset": 723808,
      "target": 34962
    },
    {
      "buffer": 0,
      "byteLength": 3456,
      "byteOffset": 727264,
      "target": 34962
    },
    {
      "buffer": 0,
      "byteLength": 2304,
      "byteOffset": 730720,
      "target": 34962
    },
    {
      "buffer": 0,
      "byteLength": 288,
      "byteOffset": 733024,
      "target": 34962
    },
    {
      "buffer": 0,
      "byteLength": 288,
      "byteOffset": 733312,
      "target": 34962
    },
    {
      "buffer": 0,
      "byteLength": 192,
      "byteOffset": 733600,
      "target": 34962
    },
    {
      "buffer": 0,
      "byteLength": 288,
      "byteOffset": 733792,
      "target": 34962
    },
    {
      "buffer": 0,
      "byteLength": 288,
      "byteOffset": 734080,
      "target": 34962
    },
    {
      "buffer": 0,
      "byteLength": 192,
      "byteOffset": 734368,
      "target": 34962
    },
    {
      "buffer": 0,
      "byteLength": 288,
      "byteOffset": 734560,
      "target": 34962
    },
    {
      "buffer": 0,
      "byteLength": 288,
      "byteOffset": 734848,
      "target": 34962
    },
    {
      "buffer": 0,
      "byteLength": 192,
      "byteOffset": 735136,
      "target": 34962
    },
    {
      "buffer": 0,
      "byteLength": 288,
      "byteOffset": 735328,
      "target": 34962
    },
    {
      "buffer": 0,
      "byteLength": 288,
      "byteOffset": 735616,
      "target": 34962
    },
    {
      "buffer": 0,
      "byteLength": 192,
      "byteOffset": 735904,
      "target": 34962
    },
    {
      "buffer": 0,
      "byteLength": 288,
      "byteOffset": 736096,
      "target": 34962
    },
    {
      "buffer": 0,
      "byteLength": 288,
      "byteOffset": 736384,
      "target": 34962
    },
    {
      "buffer": 0,
      "byteLength": 192,
      "byteOffset": 736672,
      "target": 34962
    },
    {
      "buffer": 0,
      "byteLength": 288,
      "byteOffset": 736864,
      "target": 34962
    },
    {
      "buffer": 0,
      "byteLength": 288,
      "byteOffset": 737152,
      "target": 34962
    },
    {
      "buffer": 0,
      "byteLength": 192,
      "byteOffset": 737440,
      "target": 34962
    },
    {
      "buffer": 0,
      "byteLength": 288,
      "byteOffset": 737632,
      "target": 34962
    },
    {
      "buffer": 0,
      "byteLength": 288,
      "byteOffset": 737920,
      "target": 34962
    },
    {
      "buffer": 0,
      "byteLength": 192,
      "byteOffset": 738208,
      "target": 34962
    },
    {
      "buffer": 0,
      "byteLength": 288,
      "byteOffset": 738400,
      "target": 34962
    },
    {
      "buffer": 0,
      "byteLength": 288,
      "byteOffset": 738688,
      "target": 34962
    },
    {
      "buffer": 0,
      "byteLength": 192,
      "byteOffset": 738976,
      "target": 34962
    },
    {
      "buffer": 0,
      "byteLength": 288,
      "byteOffset": 739168,
      "target": 34962
    },
    {
      "buffer": 0,
      "byteLength": 288,
      "byteOffset": 739456,
      "target": 34962
    },
    {
      "buffer": 0,
      "byteLength": 192,
      "byteOffset": 739744,
      "target": 34962
    },
    {
      "buffer": 0,
      "byteLength": 288,
      "byteOffset": 739936,
      "target": 34962
    },
    {
      "buffer": 0,
      "byteLength": 288,
      "byteOffset": 740224,
      "target": 34962
    },
    {
      "buffer": 0,
      "byteLength": 192,
      "byteOffset": 740512,
      "target": 34962
    },
    {
      "buffer": 0,
      "byteLength": 288,
      "byteOffset": 740704,
      "target": 34962
    },
    {
      "buffer": 0,
      "byteLength": 288,
      "byteOffset": 740992,
      "target": 34962
    },
    {
      "buffer": 0,
      "byteLength": 192,
      "byteOffset": 741280,
      "target": 34962
    }
  ],
  "buffers": [
    {
      "byteLength": 741472,
      "uri": "passage.bin"
    }
  ],
  "extensionsUsed": [
    "KHR_materials_specular"
  ],
  "images": [
    {
      "mimeType": "image/png",
      "name": "T_ai_materials_metal_b_normal",
      "uri": "../textures/T_ai_materials_metal_b_normal.png"
    },
    {
      "mimeType": "image/png",
      "name": "T_ai_materials_metal_b_albedo",
      "uri": "../textures/T_ai_materials_metal_b_albedo.png"
    },
    {
      "mimeType": "image/png",
      "name": "T_ai_materials_metal_b_rough",
      "uri": "../textures/T_ai_materials_metal_b_rough.png"
    },
    {
      "mimeType": "image/png",
      "name": "T_ai_materials_cast_iron_b_normal",
      "uri": "../textures/T_ai_materials_cast_iron_b_normal.png"
    },
    {
      "mimeType": "image/png",
      "name": "T_ai_materials_cast_iron_b_albedo",
      "uri": "../textures/T_ai_materials_cast_iron_b_albedo.png"
    },
    {
      "mimeType": "image/png",
      "name": "T_ai_materials_cast_iron_b_rough",
      "uri": "../textures/T_ai_materials_cast_iron_b_rough.png"
    },
    {
      "mimeType": "image/png",
      "name": "T_glass_normal",
      "uri": "../textures/T_glass_normal.png"
    },
    {
      "mimeType": "image/png",
      "name": "T_glass_rough",
      "uri": "../textures/T_glass_rough.png"
    },
    {
      "mimeType": "image/png",
      "name": "T_ai_materials_soot_b_normal",
      "uri": "../textures/T_ai_materials_soot_b_normal.png"
    },
    {
      "mimeType": "image/png",
      "name": "T_ai_materials_soot_b_albedo",
      "uri": "../textures/T_ai_materials_soot_b_albedo.png"
    },
    {
      "mimeType": "image/png",
      "name": "T_ai_materials_soot_b_rough",
      "uri": "../textures/T_ai_materials_soot_b_rough.png"
    },
    {
      "mimeType": "image/png",
      "name": "T_ai_materials_limestone_b_normal",
      "uri": "../textures/T_ai_materials_limestone_b_normal.png"
    },
    {
      "mimeType": "image/png",
      "name": "T_ai_materials_limestone_b_albedo",
      "uri": "../textures/T_ai_materials_limestone_b_albedo.png"
    },
    {
      "mimeType": "image/png",
      "name": "T_ai_materials_limestone_b_rough",
      "uri": "../textures/T_ai_materials_limestone_b_rough.png"
    },
    {
      "mimeType": "image/png",
      "name": "T_ai_materials_trim_b_normal",
      "uri": "../textures/T_ai_materials_trim_b_normal.png"
    },
    {
      "mimeType": "image/png",
      "name": "T_ai_materials_trim_b_albedo",
      "uri": "../textures/T_ai_materials_trim_b_albedo.png"
    },
    {
      "mimeType": "image/png",
      "name": "T_ai_materials_trim_b_rough",
      "uri": "../textures/T_ai_materials_trim_b_rough.png"
    },
    {
      "mimeType": "image/png",
      "name": "T_ai_materials_common_brick_b_normal",
      "uri": "../textures/T_ai_materials_common_brick_b_normal.png"
    },
    {
      "mimeType": "image/png",
      "name": "T_ai_materials_common_brick_b_albedo",
      "uri": "../textures/T_ai_materials_common_brick_b_albedo.png"
    },
    {
      "mimeType": "image/png",
      "name": "T_ai_materials_common_brick_b_rough",
      "uri": "../textures/T_ai_materials_common_brick_b_rough.png"
    },
    {
      "mimeType": "image/png",
      "name": "T_ai_materials_plaster_b_normal",
      "uri": "../textures/T_ai_materials_plaster_b_normal.png"
    },
    {
      "mimeType": "image/png",
      "name": "T_ai_materials_plaster_b_albedo",
      "uri": "../textures/T_ai_materials_plaster_b_albedo.png"
    },
    {
      "mimeType": "image/png",
      "name": "T_ai_materials_plaster_b_rough",
      "uri": "../textures/T_ai_materials_plaster_b_rough.png"
    },
    {
      "mimeType": "image/png",
      "name": "T_ai_materials_plaster_stained_b_normal",
      "uri": "../textures/T_ai_materials_plaster_stained_b_normal.png"
    },
    {
      "mimeType": "image/png",
      "name": "T_ai_materials_plaster_stained_b_albedo",
      "uri": "../textures/T_ai_materials_plaster_stained_b_albedo.png"
    },
    {
      "mimeType": "image/png",
      "name": "T_ai_materials_plaster_stained_b_rough",
      "uri": "../textures/T_ai_materials_plaster_stained_b_rough.png"
    },
    {
      "mimeType": "image/png",
      "name": "T_ai_materials_concrete_b_normal",
      "uri": "../textures/T_ai_materials_concrete_b_normal.png"
    },
    {
      "mimeType": "image/png",
      "name": "T_ai_materials_concrete_b_albedo",
      "uri": "../textures/T_ai_materials_concrete_b_albedo.png"
    },
    {
      "mimeType": "image/png",
      "name": "T_ai_materials_concrete_b_rough",
      "uri": "../textures/T_ai_materials_concrete_b_rough.png"
    },
    {
      "mimeType": "image/png",
      "name": "T_ai_materials_terrazzo_b_normal",
      "uri": "../textures/T_ai_materials_terrazzo_b_normal.png"
    },
    {
      "mimeType": "image/png",
      "name": "T_ai_materials_terrazzo_b_albedo",
      "uri": "../textures/T_ai_materials_terrazzo_b_albedo.png"
    },
    {
      "mimeType": "image/png",
      "name": "T_ai_materials_terrazzo_b_rough",
      "uri": "../textures/T_ai_materials_terrazzo_b_rough.png"
    },
    {
      "mimeType": "image/png",
      "name": "T_ai_materials_bakelite_black_normal",
      "uri": "../textures/T_ai_materials_bakelite_black_normal.png"
    },
    {
      "mimeType": "image/png",
      "name": "T_ai_materials_bakelite_black_albedo",
      "uri": "../textures/T_ai_materials_bakelite_black_albedo.png"
    },
    {
      "mimeType": "image/png",
      "name": "T_ai_materials_bakelite_black_rough",
      "uri": "../textures/T_ai_materials_bakelite_black_rough.png"
    },
    {
      "mimeType": "image/png",
      "name": "T_ai_materials_brass_normal",
      "uri": "../textures/T_ai_materials_brass_normal.png"
    },
    {
      "mimeType": "image/png",
      "name": "T_ai_materials_brass_albedo",
      "uri": "../textures/T_ai_materials_brass_albedo.png"
    },
    {
      "mimeType": "image/png",
      "name": "T_ai_materials_brass_rough",
      "uri": "../textures/T_ai_materials_brass_rough.png"
    },
    {
      "mimeType": "image/png",
      "name": "T_ai_materials_chrome_b_normal",
      "uri": "../textures/T_ai_materials_chrome_b_normal.png"
    },
    {
      "mimeType": "image/png",
      "name": "T_ai_materials_chrome_b_albedo",
      "uri": "../textures/T_ai_materials_chrome_b_albedo.png"
    },
    {
      "mimeType": "image/png",
      "name": "T_ai_materials_chrome_b_rough",
      "uri": "../textures/T_ai_materials_chrome_b_rough.png"
    },
    {
      "mimeType": "image/png",
      "name": "T_ai_materials_paper_b_normal",
      "uri": "../textures/T_ai_materials_paper_b_normal.png"
    },
    {
      "mimeType": "image/png",
      "name": "T_ai_materials_paper_b_albedo",
      "uri": "../textures/T_ai_materials_paper_b_albedo.png"
    },
    {
      "mimeType": "image/png",
      "name": "T_ai_materials_paper_b_rough",
      "uri": "../textures/T_ai_materials_paper_b_rough.png"
    },
    {
      "mimeType": "image/png",
      "name": "T_ai_materials_wood_dark_b_normal",
      "uri": "../textures/T_ai_materials_wood_dark_b_normal.png"
    },
    {
      "mimeType": "image/png",
      "name": "T_ai_materials_wood_dark_b_albedo",
      "uri": "../textures/T_ai_materials_wood_dark_b_albedo.png"
    },
    {
      "mimeType": "image/png",
      "name": "T_ai_materials_wood_dark_b_rough",
      "uri": "../textures/T_ai_materials_wood_dark_b_rough.png"
    },
    {
      "mimeType": "image/png",
      "name": "T_ai_materials_milk_glass_normal",
      "uri": "../textures/T_ai_materials_milk_glass_normal.png"
    },
    {
      "mimeType": "image/png",
      "name": "T_ai_materials_milk_glass_albedo",
      "uri": "../textures/T_ai_materials_milk_glass_albedo.png"
    },
    {
      "mimeType": "image/png",
      "name": "T_ai_materials_milk_glass_rough",
      "uri": "../textures/T_ai_materials_milk_glass_rough.png"
    },
    {
      "mimeType": "image/png",
      "name": "T_ai_materials_terrazzo_dark_normal",
      "uri": "../textures/T_ai_materials_terrazzo_dark_normal.png"
    },
    {
      "mimeType": "image/png",
      "name": "T_ai_materials_terrazzo_dark_albedo",
      "uri": "../textures/T_ai_materials_terrazzo_dark_albedo.png"
    },
    {
      "mimeType": "image/png",
      "name": "T_ai_materials_terrazzo_dark_rough",
      "uri": "../textures/T_ai_materials_terrazzo_dark_rough.png"
    }
  ],
  "materials": [
    {
      "name": "M_metal_b",
      "normalTexture": {
        "index": 0,
        "scale": 0.3499999940395355
      },
      "pbrMetallicRoughness": {
        "baseColorTexture": {
          "index": 1
        },
        "metallicFactor": 0.8999999761581421,
        "metallicRoughnessTexture": {
          "index": 2
        }
      }
    },
    {
      "name": "M_cast_iron_b",
      "normalTexture": {
        "index": 3,
        "scale": 0.3499999940395355
      },
      "pbrMetallicRoughness": {
        "baseColorTexture": {
          "index": 4
        },
        "metallicFactor": 0.3499999940395355,
        "metallicRoughnessTexture": {
          "index": 5
        }
      }
    },
    {
      "alphaMode": "BLEND",
      "doubleSided": true,
      "name": "M_glassish",
      "normalTexture": {
        "index": 6,
        "scale": 0.550000011920929
      },
      "pbrMetallicRoughness": {
        "baseColorFactor": [
          0.7599999904632568,
          0.8500000238418579,
          0.8899999856948853,
          0.1599999964237213
        ],
        "metallicFactor": 0,
        "metallicRoughnessTexture": {
          "index": 7
        }
      }
    },
    {
      "name": "M_soot_b",
      "normalTexture": {
        "index": 8,
        "scale": 0.3499999940395355
      },
      "pbrMetallicRoughness": {
        "baseColorTexture": {
          "index": 9
        },
        "metallicFactor": 0,
        "metallicRoughnessTexture": {
          "index": 10
        }
      }
    },
    {
      "name": "M_limestone_b",
      "normalTexture": {
        "index": 11,
        "scale": 0.3499999940395355
      },
      "pbrMetallicRoughness": {
        "baseColorTexture": {
          "index": 12
        },
        "metallicFactor": 0,
        "metallicRoughnessTexture": {
          "index": 13
        }
      }
    },
    {
      "name": "M_trim_b",
      "normalTexture": {
        "index": 14,
        "scale": 0.3499999940395355
      },
      "pbrMetallicRoughness": {
        "baseColorTexture": {
          "index": 15
        },
        "metallicFactor": 0,
        "metallicRoughnessTexture": {
          "index": 16
        }
      }
    },
    {
      "name": "M_common_brick_b",
      "normalTexture": {
        "index": 17,
        "scale": 0.3499999940395355
      },
      "pbrMetallicRoughness": {
        "baseColorTexture": {
          "index": 18
        },
        "metallicFactor": 0,
        "metallicRoughnessTexture": {
          "index": 19
        }
      }
    },
    {
      "name": "M_plaster_b",
      "normalTexture": {
        "index": 20,
        "scale": 0.3499999940395355
      },
      "pbrMetallicRoughness": {
        "baseColorTexture": {
          "index": 21
        },
        "metallicFactor": 0,
        "metallicRoughnessTexture": {
          "index": 22
        }
      }
    },
    {
      "name": "M_plaster_stained_b",
      "normalTexture": {
        "index": 23,
        "scale": 0.3499999940395355
      },
      "pbrMetallicRoughness": {
        "baseColorTexture": {
          "index": 24
        },
        "metallicFactor": 0,
        "metallicRoughnessTexture": {
          "index": 25
        }
      }
    },
    {
      "name": "M_concrete_b",
      "normalTexture": {
        "index": 26,
        "scale": 0.3499999940395355
      },
      "pbrMetallicRoughness": {
        "baseColorTexture": {
          "index": 27
        },
        "metallicFactor": 0,
        "metallicRoughnessTexture": {
          "index": 28
        }
      }
    },
    {
      "name": "M_terrazzo_b",
      "normalTexture": {
        "index": 29,
        "scale": 0.3499999940395355
      },
      "pbrMetallicRoughness": {
        "baseColorTexture": {
          "index": 30
        },
        "metallicFactor": 0,
        "metallicRoughnessTexture": {
          "index": 31
        }
      }
    },
    {
      "name": "M_bakelite_black",
      "normalTexture": {
        "index": 32,
        "scale": 0.3499999940395355
      },
      "pbrMetallicRoughness": {
        "baseColorTexture": {
          "index": 33
        },
        "metallicFactor": 0,
        "metallicRoughnessTexture": {
          "index": 34
        }
      }
    },
    {
      "name": "M_brass_dull",
      "normalTexture": {
        "index": 35,
        "scale": 0.3499999940395355
      },
      "pbrMetallicRoughness": {
        "baseColorTexture": {
          "index": 36
        },
        "metallicFactor": 0.30000001192092896,
        "metallicRoughnessTexture": {
          "index": 37
        }
      }
    },
    {
      "name": "M_chrome_b",
      "normalTexture": {
        "index": 38,
        "scale": 0.3499999940395355
      },
      "pbrMetallicRoughness": {
        "baseColorTexture": {
          "index": 39
        },
        "metallicRoughnessTexture": {
          "index": 40
        }
      }
    },
    {
      "name": "M_paper_b",
      "normalTexture": {
        "index": 41,
        "scale": 0.3499999940395355
      },
      "pbrMetallicRoughness": {
        "baseColorTexture": {
          "index": 42
        },
        "metallicFactor": 0,
        "metallicRoughnessTexture": {
          "index": 43
        }
      }
    },
    {
      "name": "M_wood_dark_b",
      "normalTexture": {
        "index": 44,
        "scale": 0.3499999940395355
      },
      "pbrMetallicRoughness": {
        "baseColorTexture": {
          "index": 45
        },
        "metallicFactor": 0,
        "metallicRoughnessTexture": {
          "index": 46
        }
      }
    },
    {
      "name": "M_milk_glass",
      "normalTexture": {
        "index": 47,
        "scale": 0.3499999940395355
      },
      "pbrMetallicRoughness": {
        "baseColorTexture": {
          "index": 48
        },
        "metallicFactor": 0,
        "metallicRoughnessTexture": {
          "index": 49
        }
      }
    },
    {
      "name": "M_terrazzo_dark",
      "normalTexture": {
        "index": 50,
        "scale": 0.3499999940395355
      },
      "pbrMetallicRoughness": {
        "baseColorTexture": {
          "index": 51
        },
        "metallicFactor": 0,
        "metallicRoughnessTexture": {
          "index": 52
        }
      }
    }
  ],
  "meshes": [
    {
      "name": "F01_OWN_PASSAGE_retail_passage_shell_bakelite_black-col",
      "primitives": [
        {
          "attributes": {
            "NORMAL": 6,
            "POSITION": 5,
            "TEXCOORD_0": 7
          },
          "indices": 0,
          "material": 11
        }
      ]
    },
    {
      "name": "F01_OWN_PASSAGE_retail_passage_shell_brass_dull",
      "primitives": [
        {
          "attributes": {
            "NORMAL": 9,
            "POSITION": 8,
            "TEXCOORD_0": 10
          },
          "indices": 11,
          "material": 12
        }
      ]
    },
    {
      "name": "F01_OWN_PASSAGE_retail_passage_shell_brass_dull-col",
      "primitives": [
        {
          "attributes": {
            "NORMAL": 13,
            "POSITION": 12,
            "TEXCOORD_0": 14
          },
          "indices": 15,
          "material": 12
        }
      ]
    },
    {
      "name": "F01_OWN_PASSAGE_retail_passage_shell_cast_iron",
      "primitives": [
        {
          "attributes": {
            "NORMAL": 17,
            "POSITION": 16,
            "TEXCOORD_0": 18
          },
          "indices": 19,
          "material": 1
        }
      ]
    },
    {
      "name": "F01_OWN_PASSAGE_retail_passage_shell_cast_iron-col",
      "primitives": [
        {
          "attributes": {
            "NORMAL": 21,
            "POSITION": 20,
            "TEXCOORD_0": 22
          },
          "indices": 3,
          "material": 1
        }
      ]
    },
    {
      "name": "F01_OWN_PASSAGE_retail_passage_shell_common_brick-col",
      "primitives": [
        {
          "attributes": {
            "NORMAL": 24,
            "POSITION": 23,
            "TEXCOORD_0": 25
          },
          "indices": 26,
          "material": 6
        }
      ]
    },
    {
      "name": "F01_OWN_PASSAGE_retail_passage_shell_concrete-col",
      "primitives": [
        {
          "attributes": {
            "NORMAL": 28,
            "POSITION": 27,
            "TEXCOORD_0": 29
          },
          "indices": 30,
          "material": 9
        }
      ]
    },
    {
      "name": "F01_OWN_PASSAGE_retail_passage_shell_glassish-col",
      "primitives": [
        {
          "attributes": {
            "NORMAL": 32,
            "POSITION": 31,
            "TEXCOORD_0": 33
          },
          "indices": 34,
          "material": 2
        }
      ]
    },
    {
      "name": "F01_OWN_PASSAGE_retail_passage_shell_limestone-col",
      "primitives": [
        {
          "attributes": {
            "NORMAL": 36,
            "POSITION": 35,
            "TEXCOORD_0": 37
          },
          "indices": 38,
          "material": 4
        }
      ]
    },
    {
      "name": "F01_OWN_PASSAGE_retail_passage_shell_metal",
      "primitives": [
        {
          "attributes": {
            "NORMAL": 40,
            "POSITION": 39,
            "TEXCOORD_0": 41
          },
          "indices": 42,
          "material": 0
        }
      ]
    },
    {
      "name": "F01_OWN_PASSAGE_retail_passage_shell_milk_glass-col",
      "primitives": [
        {
          "attributes": {
            "NORMAL": 44,
            "POSITION": 43,
            "TEXCOORD_0": 45
          },
          "indices": 1,
          "material": 16
        }
      ]
    },
    {
      "name": "F01_OWN_PASSAGE_retail_passage_shell_paper-col",
      "primitives": [
        {
          "attributes": {
            "NORMAL": 47,
            "POSITION": 46,
            "TEXCOORD_0": 48
          },
          "indices": 0,
          "material": 14
        }
      ]
    },
    {
      "name": "F01_OWN_PASSAGE_retail_passage_shell_plaster-col",
      "primitives": [
        {
          "attributes": {
            "NORMAL": 50,
            "POSITION": 49,
            "TEXCOORD_0": 51
          },
          "indices": 52,
          "material": 7
        }
      ]
    },
    {
      "name": "F01_OWN_PASSAGE_retail_passage_shell_plaster_stained-col",
      "primitives": [
        {
          "attributes": {
            "NORMAL": 54,
            "POSITION": 53,
            "TEXCOORD_0": 55
          },
          "indices": 56,
          "material": 8
        }
      ]
    },
    {
      "name": "F01_OWN_PASSAGE_retail_passage_shell_soot-col",
      "primitives": [
        {
          "attributes": {
            "NORMAL": 58,
            "POSITION": 57,
            "TEXCOORD_0": 59
          },
          "indices": 2,
          "material": 3
        }
      ]
    },
    {
      "name": "F01_OWN_PASSAGE_retail_passage_shell_terrazzo",
      "primitives": [
        {
          "attributes": {
            "NORMAL": 61,
            "POSITION": 60,
            "TEXCOORD_0": 62
          },
          "indices": 0,
          "material": 10
        }
      ]
    },
    {
      "name": "F01_OWN_PASSAGE_retail_passage_shell_terrazzo-col",
      "primitives": [
        {
          "attributes": {
            "NORMAL": 64,
            "POSITION": 63,
            "TEXCOORD_0": 65
          },
          "indices": 0,
          "material": 10
        }
      ]
    },
    {
      "name": "F01_OWN_PASSAGE_retail_passage_shell_terrazzo_dark",
      "primitives": [
        {
          "attributes": {
            "NORMAL": 67,
            "POSITION": 66,
            "TEXCOORD_0": 68
          },
          "indices": 4,
          "material": 17
        }
      ]
    },
    {
      "name": "F01_OWN_PASSAGE_retail_passage_shell_trim-col",
      "primitives": [
        {
          "attributes": {
            "NORMAL": 70,
            "POSITION": 69,
            "TEXCOORD_0": 71
          },
          "indices": 72,
          "material": 5
        }
      ]
    },
    {
      "name": "F01_OWN_PASSAGE_retail_passage_shell_wood_dark-col",
      "primitives": [
        {
          "attributes": {
            "NORMAL": 74,
            "POSITION": 73,
            "TEXCOORD_0": 75
          },
          "indices": 2,
          "material": 15
        }
      ]
    },
    {
      "name": "F01_OWN_PASSAGE_retail_shop_funeral_parlour_limestone-col",
      "primitives": [
        {
          "attributes": {
            "NORMAL": 77,
            "POSITION": 76,
            "TEXCOORD_0": 78
          },
          "indices": 0,
          "material": 4
        }
      ]
    },
    {
      "name": "F01_OWN_PASSAGE_retail_shop_hardware_paint_wood_dark-col",
      "primitives": [
        {
          "attributes": {
            "NORMAL": 80,
            "POSITION": 79,
            "TEXCOORD_0": 81
          },
          "indices": 0,
          "material": 15
        }
      ]
    },
    {
      "name": "F01_OWN_PASSAGE_retail_shop_keys_cut_common_brick-col",
      "primitives": [
        {
          "attributes": {
            "NORMAL": 83,
            "POSITION": 82,
            "TEXCOORD_0": 84
          },
          "indices": 0,
          "material": 6
        }
      ]
    },
    {
      "name": "F01_OWN_PASSAGE_retail_shop_luncheonette_chrome-col",
      "primitives": [
        {
          "attributes": {
            "NORMAL": 86,
            "POSITION": 85,
            "TEXCOORD_0": 87
          },
          "indices": 0,
          "material": 13
        }
      ]
    },
    {
      "name": "F01_OWN_PASSAGE_retail_shop_model_laundry_plaster_stained-col",
      "primitives": [
        {
          "attributes": {
            "NORMAL": 89,
            "POSITION": 88,
            "TEXCOORD_0": 90
          },
          "indices": 0,
          "material": 8
        }
      ]
    },
    {
      "name": "F01_OWN_PASSAGE_retail_shop_news_cigars_wood_dark-col",
      "primitives": [
        {
          "attributes": {
            "NORMAL": 92,
            "POSITION": 91,
            "TEXCOORD_0": 93
          },
          "indices": 0,
          "material": 15
        }
      ]
    },
    {
      "name": "F01_OWN_PASSAGE_retail_shop_otis___son_limestone-col",
      "primitives": [
        {
          "attributes": {
            "NORMAL": 95,
            "POSITION": 94,
            "TEXCOORD_0": 96
          },
          "indices": 0,
          "material": 4
        }
      ]
    },
    {
      "name": "F01_OWN_PASSAGE_retail_shop_pawnbroker_common_brick-col",
      "primitives": [
        {
          "attributes": {
            "NORMAL": 98,
            "POSITION": 97,
            "TEXCOORD_0": 99
          },
          "indices": 0,
          "material": 6
        }
      ]
    },
    {
      "name": "F01_OWN_PASSAGE_retail_shop_photo_supplies_plaster_stained-col",
      "primitives": [
        {
          "attributes": {
            "NORMAL": 101,
            "POSITION": 100,
            "TEXCOORD_0": 102
          },
          "indices": 0,
          "material": 8
        }
      ]
    },
    {
      "name": "F01_OWN_PASSAGE_retail_shop_radio_service_wood_dark-col",
      "primitives": [
        {
          "attributes": {
            "NORMAL": 104,
            "POSITION": 103,
            "TEXCOORD_0": 105
          },
          "indices": 0,
          "material": 15
        }
      ]
    },
    {
      "name": "F01_OWN_PASSAGE_retail_shop_shoe_rebuilding_wood_dark-col",
      "primitives": [
        {
          "attributes": {
            "NORMAL": 107,
            "POSITION": 106,
            "TEXCOORD_0": 108
          },
          "indices": 0,
          "material": 15
        }
      ]
    }
  ],
  "nodes": [
    {
      "mesh": 0,
      "name": "F01_OWN_PASSAGE_retail_passage_shell_bakelite_black-col"
    },
    {
      "mesh": 1,
      "name": "F01_OWN_PASSAGE_retail_passage_shell_brass_dull"
    },
    {
      "mesh": 2,
      "name": "F01_OWN_PASSAGE_retail_passage_shell_brass_dull-col"
    },
    {
      "mesh": 3,
      "name": "F01_OWN_PASSAGE_retail_passage_shell_cast_iron"
    },
    {
      "mesh": 4,
      "name": "F01_OWN_PASSAGE_retail_passage_shell_cast_iron-col"
    },
    {
      "mesh": 5,
      "name": "F01_OWN_PASSAGE_retail_passage_shell_common_brick-col"
    },
    {
      "mesh": 6,
      "name": "F01_OWN_PASSAGE_retail_passage_shell_concrete-col"
    },
    {
      "mesh": 7,
      "name": "F01_OWN_PASSAGE_retail_passage_shell_glassish-col"
    },
    {
      "mesh": 8,
      "name": "F01_OWN_PASSAGE_retail_passage_shell_limestone-col"
    },
    {
      "mesh": 9,
      "name": "F01_OWN_PASSAGE_retail_passage_shell_metal"
    },
    {
      "mesh": 10,
      "name": "F01_OWN_PASSAGE_retail_passage_shell_milk_glass-col"
    },
    {
      "mesh": 11,
      "name": "F01_OWN_PASSAGE_retail_passage_shell_paper-col"
    },
    {
      "mesh": 12,
      "name": "F01_OWN_PASSAGE_retail_passage_shell_plaster-col"
    },
    {
      "mesh": 13,
      "name": "F01_OWN_PASSAGE_retail_passage_shell_plaster_stained-col"
    },
    {
      "mesh": 14,
      "name": "F01_OWN_PASSAGE_retail_passage_shell_soot-col"
    },
    {
      "mesh": 15,
      "name": "F01_OWN_PASSAGE_retail_passage_shell_terrazzo"
    },
    {
      "mesh": 16,
      "name": "F01_OWN_PASSAGE_retail_passage_shell_terrazzo-col"
    },
    {
      "mesh": 17,
      "name": "F01_OWN_PASSAGE_retail_passage_shell_terrazzo_dark"
    },
    {
      "mesh": 18,
      "name": "F01_OWN_PASSAGE_retail_passage_shell_trim-col"
    },
    {
      "mesh": 19,
      "name": "F01_OWN_PASSAGE_retail_passage_shell_wood_dark-col"
    },
    {
      "mesh": 20,
      "name": "F01_OWN_PASSAGE_retail_shop_funeral_parlour_limestone-col"
    },
    {
      "mesh": 21,
      "name": "F01_OWN_PASSAGE_retail_shop_hardware_paint_wood_dark-col"
    },
    {
      "mesh": 22,
      "name": "F01_OWN_PASSAGE_retail_shop_keys_cut_common_brick-col"
    },
    {
      "mesh": 23,
      "name": "F01_OWN_PASSAGE_retail_shop_luncheonette_chrome-col"
    },
    {
      "mesh": 24,
      "name": "F01_OWN_PASSAGE_retail_shop_model_laundry_plaster_stained-col"
    },
    {
      "mesh": 25,
      "name": "F01_OWN_PASSAGE_retail_shop_news_cigars_wood_dark-col"
    },
    {
      "mesh": 26,
      "name": "F01_OWN_PASSAGE_retail_shop_otis___son_limestone-col"
    },
    {
      "mesh": 27,
      "name": "F01_OWN_PASSAGE_retail_shop_pawnbroker_common_brick-col"
    },
    {
      "mesh": 28,
      "name": "F01_OWN_PASSAGE_retail_shop_photo_supplies_plaster_stained-col"
    },
    {
      "mesh": 29,
      "name": "F01_OWN_PASSAGE_retail_shop_radio_service_wood_dark-col"
    },
    {
      "mesh": 30,
      "name": "F01_OWN_PASSAGE_retail_shop_shoe_rebuilding_wood_dark-col"
    }
  ],
  "samplers": [
    {
      "magFilter": 9729,
      "minFilter": 9987
    }
  ],
  "scene": 0,
  "scenes": [
    {
      "name": "Scene_passage",
      "nodes": [
        0,
        1,
        2,
        3,
        4,
        5,
        6,
        7,
        8,
        9,
        10,
        11,
        12,
        13,
        14,
        15,
        16,
        17,
        18,
        19,
        20,
        21,
        22,
        23,
        24,
        25,
        26,
        27,
        28,
        29,
        30
      ]
    }
  ],
  "textures": [
    {
      "sampler": 0,
      "source": 0
    },
    {
      "sampler": 0,
      "source": 1
    },
    {
      "sampler": 0,
      "source": 2
    },
    {
      "sampler": 0,
      "source": 3
    },
    {
      "sampler": 0,
      "source": 4
    },
    {
      "sampler": 0,
      "source": 5
    },
    {
      "sampler": 0,
      "source": 6
    },
    {
      "sampler": 0,
      "source": 7
    },
    {
      "sampler": 0,
      "source": 8
    },
    {
      "sampler": 0,
      "source": 9
    },
    {
      "sampler": 0,
      "source": 10
    },
    {
      "sampler": 0,
      "source": 11
    },
    {
      "sampler": 0,
      "source": 12
    },
    {
      "sampler": 0,
      "source": 13
    },
    {
      "sampler": 0,
      "source": 14
    },
    {
      "sampler": 0,
      "source": 15
    },
    {
      "sampler": 0,
      "source": 16
    },
    {
      "sampler": 0,
      "source": 17
    },
    {
      "sampler": 0,
      "source": 18
    },
    {
      "sampler": 0,
      "source": 19
    },
    {
      "sampler": 0,
      "source": 20
    },
    {
      "sampler": 0,
      "source": 21
    },
    {
      "sampler": 0,
      "source": 22
    },
    {
      "sampler": 0,
      "source": 23
    },
    {
      "sampler": 0,
      "source": 24
    },
    {
      "sampler": 0,
      "source": 25
    },
    {
      "sampler": 0,
      "source": 26
    },
    {
      "sampler": 0,
      "source": 27
    },
    {
      "sampler": 0,
      "source": 28
    },
    {
      "sampler": 0,
      "source": 29
    },
    {
      "sampler": 0,
      "source": 30
    },
    {
      "sampler": 0,
      "source": 31
    },
    {
      "sampler": 0,
      "source": 32
    },
    {
      "sampler": 0,
      "source": 33
    },
    {
      "sampler": 0,
      "source": 34
    },
    {
      "sampler": 0,
      "source": 35
    },
    {
      "sampler": 0,
      "source": 36
    },
    {
      "sampler": 0,
      "source": 37
    },
    {
      "sampler": 0,
      "source": 38
    },
    {
      "sampler": 0,
      "source": 39
    },
    {
      "sampler": 0,
      "source": 40
    },
    {
      "sampler": 0,
      "source": 41
    },
    {
      "sampler": 0,
      "source": 42
    },
    {
      "sampler": 0,
      "source": 43
    },
    {
      "sampler": 0,
      "source": 44
    },
    {
      "sampler": 0,
      "source": 45
    },
    {
      "sampler": 0,
      "source": 46
    },
    {
      "sampler": 0,
      "source": 47
    },
    {
      "sampler": 0,
      "source": 48
    },
    {
      "sampler": 0,
      "source": 49
    },
    {
      "sampler": 0,
      "source": 50
    },
    {
      "sampler": 0,
      "source": 51
    },
    {
      "sampler": 0,
      "source": 52
    }
  ]
}
