{"asset":{"generator":"Khronos glTF Blender I/O v5.2.39","version":"2.0","extras":{"orison_bin_sha256":"a8c0cd8fa55990d23b8658168ee39b8218d2202305ea3aea1ae30bdb52b75918","orison_m11c1_candidate":{"production_asset":false,"owner_before_material":true,"spatial_inference_used":false},"orison_m11c1_owner_first":{"cell":"CELL_SHOP_SHOE_REBUILDING","production_asset":false,"owner_before_material":true,"spatial_inference_used":false}}},"extensionsUsed":["KHR_materials_specular"],"scene":0,"scenes":[{"name":"Scene_shop_shoe_rebuilding","nodes":[0,1,2,3,4,5,6,7,8,9,10,11,12,13,14,15,16,17,18,19,20]}],"nodes":[{"mesh":0,"name":"F01_OWN_SHOP_SHOE_REBUILDING_retail_shop_shoe_rebuilding_brass_bright-col"},{"mesh":1,"name":"F01_OWN_SHOP_SHOE_REBUILDING_retail_shop_shoe_rebuilding_brass_dull-col"},{"mesh":2,"name":"F01_OWN_SHOP_SHOE_REBUILDING_retail_shop_shoe_rebuilding_cast_iron-col"},{"mesh":3,"name":"F01_OWN_SHOP_SHOE_REBUILDING_retail_shop_shoe_rebuilding_concrete-col"},{"mesh":4,"name":"F01_OWN_SHOP_SHOE_REBUILDING_retail_shop_shoe_rebuilding_countertop-col"},{"mesh":5,"name":"F01_OWN_SHOP_SHOE_REBUILDING_retail_shop_shoe_rebuilding_floor_oak-col"},{"mesh":6,"name":"F01_OWN_SHOP_SHOE_REBUILDING_retail_shop_shoe_rebuilding_glassish-col"},{"mesh":7,"name":"F01_OWN_SHOP_SHOE_REBUILDING_retail_shop_shoe_rebuilding_lacquer_red-col"},{"mesh":8,"name":"F01_OWN_SHOP_SHOE_REBUILDING_retail_shop_shoe_rebuilding_metal-col"},{"mesh":9,"name":"F01_OWN_SHOP_SHOE_REBUILDING_retail_shop_shoe_rebuilding_paper-col"},{"mesh":10,"name":"F01_OWN_SHOP_SHOE_REBUILDING_retail_shop_shoe_rebuilding_plaster-col"},{"mesh":11,"name":"F01_OWN_SHOP_SHOE_REBUILDING_retail_shop_shoe_rebuilding_plaster_stained-col"},{"mesh":12,"name":"F01_OWN_SHOP_SHOE_REBUILDING_retail_shop_shoe_rebuilding_plywood-col"},{"mesh":13,"name":"F01_OWN_SHOP_SHOE_REBUILDING_retail_shop_shoe_rebuilding_rubber_aged-col"},{"mesh":14,"name":"F01_OWN_SHOP_SHOE_REBUILDING_retail_shop_shoe_rebuilding_soot-col"},{"mesh":15,"name":"F01_OWN_SHOP_SHOE_REBUILDING_retail_shop_shoe_rebuilding_timber-col"},{"mesh":16,"name":"F01_OWN_SHOP_SHOE_REBUILDING_retail_shop_shoe_rebuilding_trim-col"},{"mesh":17,"name":"F01_OWN_SHOP_SHOE_REBUILDING_retail_shop_shoe_rebuilding_vinyl_oxblood-col"},{"mesh":18,"name":"F01_OWN_SHOP_SHOE_REBUILDING_retail_shop_shoe_rebuilding_wainscot-col"},{"mesh":19,"name":"F01_OWN_SHOP_SHOE_REBUILDING_retail_shop_shoe_rebuilding_wood_dark-col"},{"mesh":20,"name":"F01_OWN_SHOP_SHOE_REBUILDING_wear_fx_scuff"}],"meshes":[{"name":"F01_OWN_SHOP_SHOE_REBUILDING_retail_shop_shoe_rebuilding_brass_bright-col","primitives":[{"attributes":{"POSITION":10,"NORMAL":11,"TEXCOORD_0":12},"indices":0,"material":11}]},{"name":"F01_OWN_SHOP_SHOE_REBUILDING_retail_shop_shoe_rebuilding_brass_dull-col","primitives":[{"attributes":{"POSITION":13,"NORMAL":14,"TEXCOORD_0":15},"indices":0,"material":12}]},{"name":"F01_OWN_SHOP_SHOE_REBUILDING_retail_shop_shoe_rebuilding_cast_iron-col","primitives":[{"attributes":{"POSITION":16,"NORMAL":17,"TEXCOORD_0":18},"indices":7,"material":1}]},{"name":"F01_OWN_SHOP_SHOE_REBUILDING_retail_shop_shoe_rebuilding_concrete-col","primitives":[{"attributes":{"POSITION":19,"NORMAL":20,"TEXCOORD_0":21},"indices":0,"material":9}]},{"name":"F01_OWN_SHOP_SHOE_REBUILDING_retail_shop_shoe_rebuilding_countertop-col","primitives":[{"attributes":{"POSITION":22,"NORMAL":23,"TEXCOORD_0":24},"indices":0,"material":13}]},{"name":"F01_OWN_SHOP_SHOE_REBUILDING_retail_shop_shoe_rebuilding_floor_oak-col","primitives":[{"attributes":{"POSITION":25,"NORMAL":26,"TEXCOORD_0":27},"indices":0,"material":10}]},{"name":"F01_OWN_SHOP_SHOE_REBUILDING_retail_shop_shoe_rebuilding_glassish-col","primitives":[{"attributes":{"POSITION":28,"NORMAL":29,"TEXCOORD_0":30},"indices":1,"material":2}]},{"name":"F01_OWN_SHOP_SHOE_REBUILDING_retail_shop_shoe_rebuilding_lacquer_red-col","primitives":[{"attributes":{"POSITION":31,"NORMAL":32,"TEXCOORD_0":33},"indices":3,"material":18}]},{"name":"F01_OWN_SHOP_SHOE_REBUILDING_retail_shop_shoe_rebuilding_metal-col","primitives":[{"attributes":{"POSITION":34,"NORMAL":35,"TEXCOORD_0":36},"indices":9,"material":0}]},{"name":"F01_OWN_SHOP_SHOE_REBUILDING_retail_shop_shoe_rebuilding_paper-col","primitives":[{"attributes":{"POSITION":37,"NORMAL":38,"TEXCOORD_0":39},"indices":6,"material":14}]},{"name":"F01_OWN_SHOP_SHOE_REBUILDING_retail_shop_shoe_rebuilding_plaster-col","primitives":[{"attributes":{"POSITION":40,"NORMAL":41,"TEXCOORD_0":42},"indices":8,"material":7}]},{"name":"F01_OWN_SHOP_SHOE_REBUILDING_retail_shop_shoe_rebuilding_plaster_stained-col","primitives":[{"attributes":{"POSITION":43,"NORMAL":44,"TEXCOORD_0":45},"indices":6,"material":8}]},{"name":"F01_OWN_SHOP_SHOE_REBUILDING_retail_shop_shoe_rebuilding_plywood-col","primitives":[{"attributes":{"POSITION":46,"NORMAL":47,"TEXCOORD_0":48},"indices":0,"material":3}]},{"name":"F01_OWN_SHOP_SHOE_REBUILDING_retail_shop_shoe_rebuilding_rubber_aged-col","primitives":[{"attributes":{"POSITION":49,"NORMAL":50,"TEXCOORD_0":51},"indices":3,"material":19}]},{"name":"F01_OWN_SHOP_SHOE_REBUILDING_retail_shop_shoe_rebuilding_soot-col","primitives":[{"attributes":{"POSITION":52,"NORMAL":53,"TEXCOORD_0":54},"indices":3,"material":4}]},{"name":"F01_OWN_SHOP_SHOE_REBUILDING_retail_shop_shoe_rebuilding_timber-col","primitives":[{"attributes":{"POSITION":55,"NORMAL":56,"TEXCOORD_0":57},"indices":2,"material":15}]},{"name":"F01_OWN_SHOP_SHOE_REBUILDING_retail_shop_shoe_rebuilding_trim-col","primitives":[{"attributes":{"POSITION":58,"NORMAL":59,"TEXCOORD_0":60},"indices":5,"material":5}]},{"name":"F01_OWN_SHOP_SHOE_REBUILDING_retail_shop_shoe_rebuilding_vinyl_oxblood-col","primitives":[{"attributes":{"POSITION":61,"NORMAL":62,"TEXCOORD_0":63},"indices":5,"material":20}]},{"name":"F01_OWN_SHOP_SHOE_REBUILDING_retail_shop_shoe_rebuilding_wainscot-col","primitives":[{"attributes":{"POSITION":64,"NORMAL":65,"TEXCOORD_0":66},"indices":1,"material":17}]},{"name":"F01_OWN_SHOP_SHOE_REBUILDING_retail_shop_shoe_rebuilding_wood_dark-col","primitives":[{"attributes":{"POSITION":67,"NORMAL":68,"TEXCOORD_0":69},"indices":70,"material":16}]},{"name":"F01_OWN_SHOP_SHOE_REBUILDING_wear_fx_scuff","primitives":[{"attributes":{"POSITION":71,"NORMAL":72,"TEXCOORD_0":73},"indices":4,"material":6}]}],"accessors":[{"bufferView":0,"componentType":5123,"count":36,"type":"SCALAR"},{"bufferView":1,"componentType":5123,"count":108,"type":"SCALAR"},{"bufferView":2,"componentType":5123,"count":288,"type":"SCALAR"},{"bufferView":3,"componentType":5123,"count":72,"type":"SCALAR"},{"bufferView":4,"componentType":5123,"count":6,"type":"SCALAR"},{"bufferView":5,"componentType":5123,"count":180,"type":"SCALAR"},{"bufferView":6,"componentType":5123,"count":144,"type":"SCALAR"},{"bufferView":7,"componentType":5123,"count":504,"type":"SCALAR"},{"bufferView":8,"componentType":5123,"count":252,"type":"SCALAR"},{"bufferView":9,"componentType":5123,"count":216,"type":"SCALAR"},{"bufferView":10,"componentType":5126,"count":24,"max":[11.04800033569336,1.5800000429153442,48.790000915527344],"min":[11.020000457763672,1.3200000524520874,48.61000061035156],"type":"VEC3"},{"bufferView":11,"componentType":5126,"count":24,"type":"VEC3"},{"bufferView":12,"componentType":5126,"count":24,"type":"VEC2"},{"bufferView":13,"componentType":5126,"count":24,"max":[5.940000057220459,1.0299999713897705,50.23500061035156],"min":[5.880000114440918,0.9599999785423279,50.19499969482422],"type":"VEC3"},{"bufferView":14,"componentType":5126,"count":24,"type":"VEC3"},{"bufferView":15,"componentType":5126,"count":24,"type":"VEC2"},{"bufferView":16,"componentType":5126,"count":336,"max":[7.349999904632568,1.2999999523162842,49.63999938964844],"min":[5.380000114440918,0.05000000074505806,45.81999969482422],"type":"VEC3"},{"bufferView":17,"componentType":5126,"count":336,"type":"VEC3"},{"bufferView":18,"componentType":5126,"count":336,"type":"VEC2"},{"bufferView":19,"componentType":5126,"count":24,"max":[3.7799999713897705,0.009999999776482582,50.29999923706055],"min":[1.1799999475479126,-0.05000000074505806,44.900001525878906],"type":"VEC3"},{"bufferView":20,"componentType":5126,"count":24,"type":"VEC3"},{"bufferView":21,"componentType":5126,"count":24,"type":"VEC2"},{"bufferView":22,"componentType":5126,"count":24,"max":[10.199999809265137,1.1200000047683716,48.84000015258789],"min":[9.5,1.0700000524520874,45.15999984741211],"type":"VEC3"},{"bufferView":23,"componentType":5126,"count":24,"type":"VEC3"},{"bufferView":24,"componentType":5126,"count":24,"type":"VEC2"},{"bufferView":25,"componentType":5126,"count":24,"max":[11,0.009999999776482582,50.29999923706055],"min":[5,-0.05000000074505806,44.900001525878906],"type":"VEC3"},{"bufferView":26,"componentType":5126,"count":24,"type":"VEC3"},{"bufferView":27,"componentType":5126,"count":24,"type":"VEC2"},{"bufferView":28,"componentType":5126,"count":72,"max":[11.140000343322754,3.049999952316284,50.2599983215332],"min":[5.014999866485596,0.550000011920929,44.939998626708984],"type":"VEC3"},{"bufferView":29,"componentType":5126,"count":72,"type":"VEC3"},{"bufferView":30,"componentType":5126,"count":72,"type":"VEC2"},{"bufferView":31,"componentType":5126,"count":48,"max":[12.300000190734863,3.4200000762939453,50.18000030517578],"min":[11.199999809265137,2.549999952316284,45.02000045776367],"type":"VEC3"},{"bufferView":32,"componentType":5126,"count":48,"type":"VEC3"},{"bufferView":33,"componentType":5126,"count":48,"type":"VEC2"},{"bufferView":34,"componentType":5126,"count":144,"max":[12.600000381469727,3.4700000286102295,48.619998931884766],"min":[5.480000019073486,0.006000000052154064,45.20000076293945],"type":"VEC3"},{"bufferView":35,"componentType":5126,"count":144,"type":"VEC3"},{"bufferView":36,"componentType":5126,"count":144,"type":"VEC2"},{"bufferView":37,"componentType":5126,"count":96,"max":[10.0600004196167,2,49.900001525878906],"min":[1.2599999904632568,0.5,47.41999816894531],"type":"VEC3"},{"bufferView":38,"componentType":5126,"count":96,"type":"VEC3"},{"bufferView":39,"componentType":5126,"count":96,"type":"VEC2"},{"bufferView":40,"componentType":5126,"count":168,"max":[11,3.549999952316284,50.29999923706055],"min":[1.1799999475479126,0.009999999776482582,44.900001525878906],"type":"VEC3"},{"bufferView":41,"componentType":5126,"count":168,"type":"VEC3"},{"bufferView":42,"componentType":5126,"count":168,"type":"VEC2"},{"bufferView":43,"componentType":5126,"count":96,"max":[5.059999942779541,3.259999990463257,50.29999923706055],"min":[5,0.009999999776482582,44.900001525878906],"type":"VEC3"},{"bufferView":44,"componentType":5126,"count":96,"type":"VEC3"},{"bufferView":45,"componentType":5126,"count":96,"type":"VEC2"},{"bufferView":46,"componentType":5126,"count":24,"max":[10.460000038146973,1.5700000524520874,48.68000030517578],"min":[10.420000076293945,0.41999998688697815,45.08000183105469],"type":"VEC3"},{"bufferView":47,"componentType":5126,"count":24,"type":"VEC3"},{"bufferView":48,"componentType":5126,"count":24,"type":"VEC2"},{"bufferView":49,"componentType":5126,"count":48,"max":[5.880000114440918,1.2999999523162842,46.900001525878906],"min":[5.570000171661377,1,46.119998931884766],"type":"VEC3"},{"bufferView":50,"componentType":5126,"count":48,"type":"VEC3"},{"bufferView":51,"componentType":5126,"count":48,"type":"VEC2"},{"bufferView":52,"componentType":5126,"count":48,"max":[9.279999732971191,1.7100000381469727,50.20000076293945],"min":[5.119999885559082,0.012000000104308128,45],"type":"VEC3"},{"bufferView":53,"componentType":5126,"count":48,"type":"VEC3"},{"bufferView":54,"componentType":5126,"count":48,"type":"VEC2"},{"bufferView":55,"componentType":5126,"count":192,"max":[10.119999885559082,1.899999976158142,50.25],"min":[5.260000228881836,0.05000000074505806,44.95000076293945],"type":"VEC3"},{"bufferView":56,"componentType":5126,"count":192,"type":"VEC3"},{"bufferView":57,"componentType":5126,"count":192,"type":"VEC2"},{"bufferView":58,"componentType":5126,"count":120,"max":[5.070000171661377,3.0999999046325684,49.790000915527344],"min":[5,2.299999952316284,45.40999984741211],"type":"VEC3"},{"bufferView":59,"componentType":5126,"count":120,"type":"VEC3"},{"bufferView":60,"componentType":5126,"count":120,"type":"VEC2"},{"bufferView":61,"componentType":5126,"count":120,"max":[7.670000076293945,2.009999990463257,50.18000030517578],"min":[5.550000190734863,0.05000000074505806,47.79999923706055],"type":"VEC3"},{"bufferView":62,"componentType":5126,"count":120,"type":"VEC3"},{"bufferView":63,"componentType":5126,"count":120,"type":"VEC2"},{"bufferView":64,"componentType":5126,"count":72,"max":[11,1.100000023841858,50.29999923706055],"min":[5,0.05000000074505806,44.900001525878906],"type":"VEC3"},{"bufferView":65,"componentType":5126,"count":72,"type":"VEC3"},{"bufferView":66,"componentType":5126,"count":72,"type":"VEC2"},{"bufferView":67,"componentType":5126,"count":744,"max":[11.420000076293945,4.199999809265137,50.459999084472656],"min":[1.2400000095367432,0,44.7400016784668],"type":"VEC3"},{"bufferView":68,"componentType":5126,"count":744,"type":"VEC3"},{"bufferView":69,"componentType":5126,"count":744,"type":"VEC2"},{"bufferView":70,"componentType":5123,"count":1116,"type":"SCALAR"},{"bufferView":71,"componentType":5126,"count":4,"max":[11.789999961853027,0.006000000052154064,50],"min":[10.890000343322754,0.006000000052154064,48.849998474121094],"type":"VEC3"},{"bufferView":72,"componentType":5126,"count":4,"type":"VEC3"},{"bufferView":73,"componentType":5126,"count":4,"type":"VEC2"}],"bufferViews":[{"buffer":0,"byteLength":72,"byteOffset":0,"target":34963},{"buffer":0,"byteLength":216,"byteOffset":72,"target":34963},{"buffer":0,"byteLength":576,"byteOffset":288,"target":34963},{"buffer":0,"byteLength":144,"byteOffset":864,"target":34963},{"buffer":0,"byteLength":12,"byteOffset":1008,"target":34963},{"buffer":0,"byteLength":360,"byteOffset":1020,"target":34963},{"buffer":0,"byteLength":288,"byteOffset":1380,"target":34963},{"buffer":0,"byteLength":1008,"byteOffset":1668,"target":34963},{"buffer":0,"byteLength":504,"byteOffset":2676,"target":34963},{"buffer":0,"byteLength":432,"byteOffset":3180,"target":34963},{"buffer":0,"byteLength":288,"byteOffset":3612,"target":34962,"byteStride":12},{"buffer":0,"byteLength":288,"byteOffset":3900,"target":34962,"byteStride":12},{"buffer":0,"byteLength":192,"byteOffset":4188,"target":34962,"byteStride":8},{"buffer":0,"byteLength":288,"byteOffset":4380,"target":34962,"byteStride":12},{"buffer":0,"byteLength":288,"byteOffset":4668,"target":34962,"byteStride":12},{"buffer":0,"byteLength":192,"byteOffset":4956,"target":34962,"byteStride":8},{"buffer":0,"byteLength":4032,"byteOffset":5148,"target":34962,"byteStride":12},{"buffer":0,"byteLength":4032,"byteOffset":9180,"target":34962,"byteStride":12},{"buffer":0,"byteLength":2688,"byteOffset":13212,"target":34962,"byteStride":8},{"buffer":0,"byteLength":288,"byteOffset":15900,"target":34962,"byteStride":12},{"buffer":0,"byteLength":288,"byteOffset":16188,"target":34962,"byteStride":12},{"buffer":0,"byteLength":192,"byteOffset":16476,"target":34962,"byteStride":8},{"buffer":0,"byteLength":288,"byteOffset":16668,"target":34962,"byteStride":12},{"buffer":0,"byteLength":288,"byteOffset":16956,"target":34962,"byteStride":12},{"buffer":0,"byteLength":192,"byteOffset":17244,"target":34962,"byteStride":8},{"buffer":0,"byteLength":288,"byteOffset":17436,"target":34962,"byteStride":12},{"buffer":0,"byteLength":288,"byteOffset":17724,"target":34962,"byteStride":12},{"buffer":0,"byteLength":192,"byteOffset":18012,"target":34962,"byteStride":8},{"buffer":0,"byteLength":864,"byteOffset":18204,"target":34962,"byteStride":12},{"buffer":0,"byteLength":864,"byteOffset":19068,"target":34962,"byteStride":12},{"buffer":0,"byteLength":576,"byteOffset":19932,"target":34962,"byteStride":8},{"buffer":0,"byteLength":576,"byteOffset":20508,"target":34962,"byteStride":12},{"buffer":0,"byteLength":576,"byteOffset":21084,"target":34962,"byteStride":12},{"buffer":0,"byteLength":384,"byteOffset":21660,"target":34962,"byteStride":8},{"buffer":0,"byteLength":1728,"byteOffset":22044,"target":34962,"byteStride":12},{"buffer":0,"byteLength":1728,"byteOffset":23772,"target":34962,"byteStride":12},{"buffer":0,"byteLength":1152,"byteOffset":25500,"target":34962,"byteStride":8},{"buffer":0,"byteLength":1152,"byteOffset":26652,"target":34962,"byteStride":12},{"buffer":0,"byteLength":1152,"byteOffset":27804,"target":34962,"byteStride":12},{"buffer":0,"byteLength":768,"byteOffset":28956,"target":34962,"byteStride":8},{"buffer":0,"byteLength":2016,"byteOffset":29724,"target":34962,"byteStride":12},{"buffer":0,"byteLength":2016,"byteOffset":31740,"target":34962,"byteStride":12},{"buffer":0,"byteLength":1344,"byteOffset":33756,"target":34962,"byteStride":8},{"buffer":0,"byteLength":1152,"byteOffset":35100,"target":34962,"byteStride":12},{"buffer":0,"byteLength":1152,"byteOffset":36252,"target":34962,"byteStride":12},{"buffer":0,"byteLength":768,"byteOffset":37404,"target":34962,"byteStride":8},{"buffer":0,"byteLength":288,"byteOffset":38172,"target":34962,"byteStride":12},{"buffer":0,"byteLength":288,"byteOffset":38460,"target":34962,"byteStride":12},{"buffer":0,"byteLength":192,"byteOffset":38748,"target":34962,"byteStride":8},{"buffer":0,"byteLength":576,"byteOffset":38940,"target":34962,"byteStride":12},{"buffer":0,"byteLength":576,"byteOffset":39516,"target":34962,"byteStride":12},{"buffer":0,"byteLength":384,"byteOffset":40092,"target":34962,"byteStride":8},{"buffer":0,"byteLength":576,"byteOffset":40476,"target":34962,"byteStride":12},{"buffer":0,"byteLength":576,"byteOffset":41052,"target":34962,"byteStride":12},{"buffer":0,"byteLength":384,"byteOffset":41628,"target":34962,"byteStride":8},{"buffer":0,"byteLength":2304,"byteOffset":42012,"target":34962,"byteStride":12},{"buffer":0,"byteLength":2304,"byteOffset":44316,"target":34962,"byteStride":12},{"buffer":0,"byteLength":1536,"byteOffset":46620,"target":34962,"byteStride":8},{"buffer":0,"byteLength":1440,"byteOffset":48156,"target":34962,"byteStride":12},{"buffer":0,"byteLength":1440,"byteOffset":49596,"target":34962,"byteStride":12},{"buffer":0,"byteLength":960,"byteOffset":51036,"target":34962,"byteStride":8},{"buffer":0,"byteLength":1440,"byteOffset":51996,"target":34962,"byteStride":12},{"buffer":0,"byteLength":1440,"byteOffset":53436,"target":34962,"byteStride":12},{"buffer":0,"byteLength":960,"byteOffset":54876,"target":34962,"byteStride":8},{"buffer":0,"byteLength":864,"byteOffset":55836,"target":34962,"byteStride":12},{"buffer":0,"byteLength":864,"byteOffset":56700,"target":34962,"byteStride":12},{"buffer":0,"byteLength":576,"byteOffset":57564,"target":34962,"byteStride":8},{"buffer":0,"byteLength":8928,"byteOffset":58140,"target":34962,"byteStride":12},{"buffer":0,"byteLength":8928,"byteOffset":67068,"target":34962,"byteStride":12},{"buffer":0,"byteLength":5952,"byteOffset":75996,"target":34962,"byteStride":8},{"buffer":0,"byteLength":2232,"byteOffset":81948,"target":34963},{"buffer":0,"byteLength":48,"byteOffset":84180,"target":34962,"byteStride":12},{"buffer":0,"byteLength":48,"byteOffset":84228,"target":34962,"byteStride":12},{"buffer":0,"byteLength":32,"byteOffset":84276,"target":34962,"byteStride":8}],"buffers":[{"byteLength":84308,"uri":"shop_shoe_rebuilding.bin"}],"materials":[{"name":"M_metal_b","normalTexture":{"index":0,"scale":0.3499999940395355},"pbrMetallicRoughness":{"baseColorTexture":{"index":1},"metallicFactor":0.8999999761581421,"metallicRoughnessTexture":{"index":2}}},{"name":"M_cast_iron_b","normalTexture":{"index":3,"scale":0.3499999940395355},"pbrMetallicRoughness":{"baseColorTexture":{"index":4},"metallicFactor":0.3499999940395355,"metallicRoughnessTexture":{"index":5}}},{"alphaMode":"BLEND","doubleSided":true,"name":"M_glassish","normalTexture":{"index":6,"scale":0.550000011920929},"pbrMetallicRoughness":{"baseColorFactor":[0.7599999904632568,0.8500000238418579,0.8899999856948853,0.1599999964237213],"metallicFactor":0,"metallicRoughnessTexture":{"index":7}}},{"name":"M_plywood_b","normalTexture":{"index":8,"scale":0.3499999940395355},"pbrMetallicRoughness":{"baseColorTexture":{"index":9},"metallicFactor":0,"metallicRoughnessTexture":{"index":10}}},{"name":"M_soot_b","normalTexture":{"index":11,"scale":0.3499999940395355},"pbrMetallicRoughness":{"baseColorTexture":{"index":12},"metallicFactor":0,"metallicRoughnessTexture":{"index":13}}},{"name":"M_trim_b","normalTexture":{"index":14,"scale":0.3499999940395355},"pbrMetallicRoughness":{"baseColorTexture":{"index":15},"metallicFactor":0,"metallicRoughnessTexture":{"index":16}}},{"alphaMode":"BLEND","doubleSided":true,"name":"M_fx_scuff","normalTexture":{"index":17,"scale":0.2800000011920929},"pbrMetallicRoughness":{"baseColorTexture":{"index":18},"metallicFactor":0,"metallicRoughnessTexture":{"index":19}}},{"name":"M_plaster_b","normalTexture":{"index":20,"scale":0.3499999940395355},"pbrMetallicRoughness":{"baseColorTexture":{"index":21},"metallicFactor":0,"metallicRoughnessTexture":{"index":22}}},{"name":"M_plaster_stained_b","normalTexture":{"index":23,"scale":0.3499999940395355},"pbrMetallicRoughness":{"baseColorTexture":{"index":24},"metallicFactor":0,"metallicRoughnessTexture":{"index":25}}},{"name":"M_concrete_b","normalTexture":{"index":26,"scale":0.3499999940395355},"pbrMetallicRoughness":{"baseColorTexture":{"index":27},"metallicFactor":0,"metallicRoughnessTexture":{"index":28}}},{"name":"M_floor_oak_b","normalTexture":{"index":29,"scale":0.3499999940395355},"pbrMetallicRoughness":{"baseColorTexture":{"index":30},"metallicFactor":0,"metallicRoughnessTexture":{"index":31}}},{"name":"M_brass_bright","normalTexture":{"index":32,"scale":0.3499999940395355},"pbrMetallicRoughness":{"baseColorTexture":{"index":33},"metallicFactor":0.8500000238418579,"metallicRoughnessTexture":{"index":34}}},{"name":"M_brass_dull","normalTexture":{"index":35,"scale":0.3499999940395355},"pbrMetallicRoughness":{"baseColorTexture":{"index":36},"metallicFactor":0.30000001192092896,"metallicRoughnessTexture":{"index":37}}},{"name":"M_countertop_b","normalTexture":{"index":38,"scale":0.3499999940395355},"pbrMetallicRoughness":{"baseColorTexture":{"index":39},"metallicFactor":0,"metallicRoughnessTexture":{"index":40}}},{"name":"M_paper_b","normalTexture":{"index":41,"scale":0.3499999940395355},"pbrMetallicRoughness":{"baseColorTexture":{"index":42},"metallicFactor":0,"metallicRoughnessTexture":{"index":43}}},{"name":"M_timber_b","normalTexture":{"index":44,"scale":0.3499999940395355},"pbrMetallicRoughness":{"baseColorTexture":{"index":45},"metallicFactor":0,"metallicRoughnessTexture":{"index":46}}},{"name":"M_wood_dark_b","normalTexture":{"index":47,"scale":0.3499999940395355},"pbrMetallicRoughness":{"baseColorTexture":{"index":48},"metallicFactor":0,"metallicRoughnessTexture":{"index":49}}},{"name":"M_wainscot_b","normalTexture":{"index":50,"scale":0.3499999940395355},"pbrMetallicRoughness":{"baseColorTexture":{"index":51},"metallicFactor":0,"metallicRoughnessTexture":{"index":52}}},{"name":"M_lacquer_red_b","normalTexture":{"index":53,"scale":0.3499999940395355},"pbrMetallicRoughness":{"baseColorTexture":{"index":54},"metallicFactor":0,"metallicRoughnessTexture":{"index":55}}},{"name":"M_rubber_aged","normalTexture":{"index":56,"scale":0.3499999940395355},"pbrMetallicRoughness":{"baseColorTexture":{"index":57},"metallicFactor":0,"metallicRoughnessTexture":{"index":58}}},{"name":"M_vinyl_oxblood_b","normalTexture":{"index":59,"scale":0.3499999940395355},"pbrMetallicRoughness":{"baseColorTexture":{"index":60},"metallicFactor":0,"metallicRoughnessTexture":{"index":61}}}],"textures":[{"sampler":0,"source":0},{"sampler":0,"source":1},{"sampler":0,"source":2},{"sampler":0,"source":3},{"sampler":0,"source":4},{"sampler":0,"source":5},{"sampler":0,"source":6},{"sampler":0,"source":7},{"sampler":0,"source":8},{"sampler":0,"source":9},{"sampler":0,"source":10},{"sampler":0,"source":11},{"sampler":0,"source":12},{"sampler":0,"source":13},{"sampler":0,"source":14},{"sampler":0,"source":15},{"sampler":0,"source":16},{"sampler":0,"source":17},{"sampler":0,"source":18},{"sampler":0,"source":19},{"sampler":0,"source":20},{"sampler":0,"source":21},{"sampler":0,"source":22},{"sampler":0,"source":23},{"sampler":0,"source":24},{"sampler":0,"source":25},{"sampler":0,"source":26},{"sampler":0,"source":27},{"sampler":0,"source":28},{"sampler":0,"source":29},{"sampler":0,"source":30},{"sampler":0,"source":31},{"sampler":0,"source":32},{"sampler":0,"source":33},{"sampler":0,"source":34},{"sampler":0,"source":35},{"sampler":0,"source":36},{"sampler":0,"source":37},{"sampler":0,"source":38},{"sampler":0,"source":39},{"sampler":0,"source":40},{"sampler":0,"source":41},{"sampler":0,"source":42},{"sampler":0,"source":43},{"sampler":0,"source":44},{"sampler":0,"source":45},{"sampler":0,"source":46},{"sampler":0,"source":47},{"sampler":0,"source":48},{"sampler":0,"source":49},{"sampler":0,"source":50},{"sampler":0,"source":51},{"sampler":0,"source":52},{"sampler":0,"source":53},{"sampler":0,"source":54},{"sampler":0,"source":55},{"sampler":0,"source":56},{"sampler":0,"source":57},{"sampler":0,"source":58},{"sampler":0,"source":59},{"sampler":0,"source":60},{"sampler":0,"source":61}],"images":[{"mimeType":"image/png","name":"T_ai_materials_metal_b_normal","uri":"../textures/T_ai_materials_metal_b_normal.png"},{"mimeType":"image/png","name":"T_ai_materials_metal_b_albedo","uri":"../textures/T_ai_materials_metal_b_albedo.png"},{"mimeType":"image/png","name":"T_ai_materials_metal_b_rough","uri":"../textures/T_ai_materials_metal_b_rough.png"},{"mimeType":"image/png","name":"T_ai_materials_cast_iron_b_normal","uri":"../textures/T_ai_materials_cast_iron_b_normal.png"},{"mimeType":"image/png","name":"T_ai_materials_cast_iron_b_albedo","uri":"../textures/T_ai_materials_cast_iron_b_albedo.png"},{"mimeType":"image/png","name":"T_ai_materials_cast_iron_b_rough","uri":"../textures/T_ai_materials_cast_iron_b_rough.png"},{"mimeType":"image/png","name":"T_glass_normal","uri":"../textures/T_glass_normal.png"},{"mimeType":"image/png","name":"T_glass_rough","uri":"../textures/T_glass_rough.png"},{"mimeType":"image/png","name":"T_ai_materials_plywood_b_normal","uri":"../textures/T_ai_materials_plywood_b_normal.png"},{"mimeType":"image/png","name":"T_ai_materials_plywood_b_albedo","uri":"../textures/T_ai_materials_plywood_b_albedo.png"},{"mimeType":"image/png","name":"T_ai_materials_plywood_b_rough","uri":"../textures/T_ai_materials_plywood_b_rough.png"},{"mimeType":"image/png","name":"T_ai_materials_soot_b_normal","uri":"../textures/T_ai_materials_soot_b_normal.png"},{"mimeType":"image/png","name":"T_ai_materials_soot_b_albedo","uri":"../textures/T_ai_materials_soot_b_albedo.png"},{"mimeType":"image/png","name":"T_ai_materials_soot_b_rough","uri":"../textures/T_ai_materials_soot_b_rough.png"},{"mimeType":"image/png","name":"T_ai_materials_trim_b_normal","uri":"../textures/T_ai_materials_trim_b_normal.png"},{"mimeType":"image/png","name":"T_ai_materials_trim_b_albedo","uri":"../textures/T_ai_materials_trim_b_albedo.png"},{"mimeType":"image/png","name":"T_ai_materials_trim_b_rough","uri":"../textures/T_ai_materials_trim_b_rough.png"},{"mimeType":"image/png","name":"T_fx_fx_scuff_normal","uri":"../textures/T_fx_fx_scuff_normal.png"},{"mimeType":"image/png","name":"T_fx_fx_scuff","uri":"../textures/T_fx_fx_scuff.png"},{"mimeType":"image/png","name":"T_fx_fx_scuff_rough","uri":"../textures/T_fx_fx_scuff_rough.png"},{"mimeType":"image/png","name":"T_ai_materials_plaster_b_normal","uri":"../textures/T_ai_materials_plaster_b_normal.png"},{"mimeType":"image/png","name":"T_ai_materials_plaster_b_albedo","uri":"../textures/T_ai_materials_plaster_b_albedo.png"},{"mimeType":"image/png","name":"T_ai_materials_plaster_b_rough","uri":"../textures/T_ai_materials_plaster_b_rough.png"},{"mimeType":"image/png","name":"T_ai_materials_plaster_stained_b_normal","uri":"../textures/T_ai_materials_plaster_stained_b_normal.png"},{"mimeType":"image/png","name":"T_ai_materials_plaster_stained_b_albedo","uri":"../textures/T_ai_materials_plaster_stained_b_albedo.png"},{"mimeType":"image/png","name":"T_ai_materials_plaster_stained_b_rough","uri":"../textures/T_ai_materials_plaster_stained_b_rough.png"},{"mimeType":"image/png","name":"T_ai_materials_concrete_b_normal","uri":"../textures/T_ai_materials_concrete_b_normal.png"},{"mimeType":"image/png","name":"T_ai_materials_concrete_b_albedo","uri":"../textures/T_ai_materials_concrete_b_albedo.png"},{"mimeType":"image/png","name":"T_ai_materials_concrete_b_rough","uri":"../textures/T_ai_materials_concrete_b_rough.png"},{"mimeType":"image/png","name":"T_ai_materials_floor_oak_b_normal","uri":"../textures/T_ai_materials_floor_oak_b_normal.png"},{"mimeType":"image/png","name":"T_ai_materials_floor_oak_b_albedo","uri":"../textures/T_ai_materials_floor_oak_b_albedo.png"},{"mimeType":"image/png","name":"T_ai_materials_floor_oak_b_rough","uri":"../textures/T_ai_materials_floor_oak_b_rough.png"},{"mimeType":"image/png","name":"T_ai_materials_brass_bright_normal","uri":"../textures/T_ai_materials_brass_bright_normal.png"},{"mimeType":"image/png","name":"T_ai_materials_brass_bright_albedo","uri":"../textures/T_ai_materials_brass_bright_albedo.png"},{"mimeType":"image/png","name":"T_ai_materials_brass_bright_rough","uri":"../textures/T_ai_materials_brass_bright_rough.png"},{"mimeType":"image/png","name":"T_ai_materials_brass_normal","uri":"../textures/T_ai_materials_brass_normal.png"},{"mimeType":"image/png","name":"T_ai_materials_brass_albedo","uri":"../textures/T_ai_materials_brass_albedo.png"},{"mimeType":"image/png","name":"T_ai_materials_brass_rough","uri":"../textures/T_ai_materials_brass_rough.png"},{"mimeType":"image/png","name":"T_ai_materials_countertop_b_normal","uri":"../textures/T_ai_materials_countertop_b_normal.png"},{"mimeType":"image/png","name":"T_ai_materials_countertop_b_albedo","uri":"../textures/T_ai_materials_countertop_b_albedo.png"},{"mimeType":"image/png","name":"T_ai_materials_countertop_b_rough","uri":"../textures/T_ai_materials_countertop_b_rough.png"},{"mimeType":"image/png","name":"T_ai_materials_paper_b_normal","uri":"../textures/T_ai_materials_paper_b_normal.png"},{"mimeType":"image/png","name":"T_ai_materials_paper_b_albedo","uri":"../textures/T_ai_materials_paper_b_albedo.png"},{"mimeType":"image/png","name":"T_ai_materials_paper_b_rough","uri":"../textures/T_ai_materials_paper_b_rough.png"},{"mimeType":"image/png","name":"T_ai_materials_timber_b_normal","uri":"../textures/T_ai_materials_timber_b_normal.png"},{"mimeType":"image/png","name":"T_ai_materials_timber_b_albedo","uri":"../textures/T_ai_materials_timber_b_albedo.png"},{"mimeType":"image/png","name":"T_ai_materials_timber_b_rough","uri":"../textures/T_ai_materials_timber_b_rough.png"},{"mimeType":"image/png","name":"T_ai_materials_wood_dark_b_normal","uri":"../textures/T_ai_materials_wood_dark_b_normal.png"},{"mimeType":"image/png","name":"T_ai_materials_wood_dark_b_albedo","uri":"../textures/T_ai_materials_wood_dark_b_albedo.png"},{"mimeType":"image/png","name":"T_ai_materials_wood_dark_b_rough","uri":"../textures/T_ai_materials_wood_dark_b_rough.png"},{"mimeType":"image/png","name":"T_ai_materials_wainscot_b_normal","uri":"../textures/T_ai_materials_wainscot_b_normal.png"},{"mimeType":"image/png","name":"T_ai_materials_wainscot_b_albedo","uri":"../textures/T_ai_materials_wainscot_b_albedo.png"},{"mimeType":"image/png","name":"T_ai_materials_wainscot_b_rough","uri":"../textures/T_ai_materials_wainscot_b_rough.png"},{"mimeType":"image/png","name":"T_ai_materials_lacquer_red_b_normal","uri":"../textures/T_ai_materials_lacquer_red_b_normal.png"},{"mimeType":"image/png","name":"T_ai_materials_lacquer_red_b_albedo","uri":"../textures/T_ai_materials_lacquer_red_b_albedo.png"},{"mimeType":"image/png","name":"T_ai_materials_lacquer_red_b_rough","uri":"../textures/T_ai_materials_lacquer_red_b_rough.png"},{"mimeType":"image/png","name":"T_ai_materials_rubber_aged_normal","uri":"../textures/T_ai_materials_rubber_aged_normal.png"},{"mimeType":"image/png","name":"T_ai_materials_rubber_aged_albedo","uri":"../textures/T_ai_materials_rubber_aged_albedo.png"},{"mimeType":"image/png","name":"T_ai_materials_rubber_aged_rough","uri":"../textures/T_ai_materials_rubber_aged_rough.png"},{"mimeType":"image/png","name":"T_ai_materials_vinyl_oxblood_b_normal","uri":"../textures/T_ai_materials_vinyl_oxblood_b_normal.png"},{"mimeType":"image/png","name":"T_ai_materials_vinyl_oxblood_b_albedo","uri":"../textures/T_ai_materials_vinyl_oxblood_b_albedo.png"},{"mimeType":"image/png","name":"T_ai_materials_vinyl_oxblood_b_rough","uri":"../textures/T_ai_materials_vinyl_oxblood_b_rough.png"}],"samplers":[{"magFilter":9729,"minFilter":9987}]}
