{
  "accessors": [
    {
      "bufferView": 0,
      "componentType": 5123,
      "count": 36,
      "type": "SCALAR"
    },
    {
      "bufferView": 1,
      "componentType": 5123,
      "count": 108,
      "type": "SCALAR"
    },
    {
      "bufferView": 2,
      "componentType": 5123,
      "count": 288,
      "type": "SCALAR"
    },
    {
      "bufferView": 3,
      "componentType": 5123,
      "count": 72,
      "type": "SCALAR"
    },
    {
      "bufferView": 4,
      "componentType": 5123,
      "count": 6,
      "type": "SCALAR"
    },
    {
      "bufferView": 5,
      "componentType": 5123,
      "count": 180,
      "type": "SCALAR"
    },
    {
      "bufferView": 6,
      "componentType": 5123,
      "count": 324,
      "type": "SCALAR"
    },
    {
      "bufferView": 7,
      "componentType": 5123,
      "count": 144,
      "type": "SCALAR"
    },
    {
      "bufferView": 8,
      "componentType": 5123,
      "count": 12,
      "type": "SCALAR"
    },
    {
      "bufferView": 9,
      "componentType": 5123,
      "count": 396,
      "type": "SCALAR"
    },
    {
      "bufferView": 10,
      "componentType": 5123,
      "count": 252,
      "type": "SCALAR"
    },
    {
      "bufferView": 11,
      "componentType": 5123,
      "count": 216,
      "type": "SCALAR"
    },
    {
      "bufferView": 12,
      "componentType": 5123,
      "count": 684,
      "type": "SCALAR"
    },
    {
      "bufferView": 13,
      "componentType": 5126,
      "count": 48,
      "max": [
        16.739999771118164,
        2.7100000381469727,
        44.2400016784668
      ],
      "min": [
        15.420000076293945,
        2.359999895095825,
        39.36000061035156
      ],
      "type": "VEC3"
    },
    {
      "bufferView": 14,
      "componentType": 5126,
      "count": 48,
      "type": "VEC3"
    },
    {
      "bufferView": 15,
      "componentType": 5126,
      "count": 48,
      "type": "VEC2"
    },
    {
      "bufferView": 16,
      "componentType": 5126,
      "count": 400,
      "max": [
        19.21500015258789,
        0.029999999329447746,
        40.07500076293945
      ],
      "min": [
        17.854999542236328,
        0,
        39.42499923706055
      ],
      "type": "VEC3"
    },
    {
      "bufferView": 17,
      "componentType": 5126,
      "count": 400,
      "type": "VEC3"
    },
    {
      "bufferView": 18,
      "componentType": 5126,
      "count": 400,
      "type": "VEC2"
    },
    {
      "bufferView": 19,
      "componentType": 5123,
      "count": 768,
      "type": "SCALAR"
    },
    {
      "bufferView": 20,
      "componentType": 5126,
      "count": 464,
      "max": [
        19.2549991607666,
        1.590000033378601,
        40.2400016784668
      ],
      "min": [
        17.84000015258789,
        0.30000001192092896,
        39.5099983215332
      ],
      "type": "VEC3"
    },
    {
      "bufferView": 21,
      "componentType": 5126,
      "count": 464,
      "type": "VEC3"
    },
    {
      "bufferView": 22,
      "componentType": 5126,
      "count": 464,
      "type": "VEC2"
    },
    {
      "bufferView": 23,
      "componentType": 5123,
      "count": 768,
      "type": "SCALAR"
    },
    {
      "bufferView": 24,
      "componentType": 5126,
      "count": 24,
      "max": [
        23.8700008392334,
        2.740000009536743,
        43.75
      ],
      "min": [
        23.81999969482422,
        2.0199999809265137,
        39.849998474121094
      ],
      "type": "VEC3"
    },
    {
      "bufferView": 25,
      "componentType": 5126,
      "count": 24,
      "type": "VEC3"
    },
    {
      "bufferView": 26,
      "componentType": 5126,
      "count": 24,
      "type": "VEC2"
    },
    {
      "bufferView": 27,
      "componentType": 5126,
      "count": 48,
      "max": [
        19.040000915527344,
        0.550000011920929,
        40.12200164794922
      ],
      "min": [
        18.059999465942383,
        0.3799999952316284,
        40.04999923706055
      ],
      "type": "VEC3"
    },
    {
      "bufferView": 28,
      "componentType": 5126,
      "count": 48,
      "type": "VEC3"
    },
    {
      "bufferView": 29,
      "componentType": 5126,
      "count": 48,
      "type": "VEC2"
    },
    {
      "bufferView": 30,
      "componentType": 5126,
      "count": 24,
      "max": [
        16.979999542236328,
        1.5800000429153442,
        42.7400016784668
      ],
      "min": [
        16.95199966430664,
        1.3200000524520874,
        42.560001373291016
      ],
      "type": "VEC3"
    },
    {
      "bufferView": 31,
      "componentType": 5126,
      "count": 24,
      "type": "VEC3"
    },
    {
      "bufferView": 32,
      "componentType": 5126,
      "count": 24,
      "type": "VEC2"
    },
    {
      "bufferView": 33,
      "componentType": 5126,
      "count": 72,
      "max": [
        23.1200008392334,
        1.3700000047683716,
        43.529998779296875
      ],
      "min": [
        22.3799991607666,
        0.9599999785423279,
        39.3650016784668
      ],
      "type": "VEC3"
    },
    {
      "bufferView": 34,
      "componentType": 5126,
      "count": 72,
      "type": "VEC3"
    },
    {
      "bufferView": 35,
      "componentType": 5126,
      "count": 72,
      "type": "VEC2"
    },
    {
      "bufferView": 36,
      "componentType": 5126,
      "count": 24,
      "max": [
        22.479999542236328,
        1.0099999904632568,
        43.91999816894531
      ],
      "min": [
        21.8700008392334,
        0.9700000286102295,
        42.779998779296875
      ],
      "type": "VEC3"
    },
    {
      "bufferView": 37,
      "componentType": 5126,
      "count": 24,
      "type": "VEC3"
    },
    {
      "bufferView": 38,
      "componentType": 5126,
      "count": 24,
      "type": "VEC2"
    },
    {
      "bufferView": 39,
      "componentType": 5126,
      "count": 456,
      "max": [
        23.100000381469727,
        4.199999809265137,
        44.459999084472656
      ],
      "min": [
        16.579999923706055,
        0,
        39.13999938964844
      ],
      "type": "VEC3"
    },
    {
      "bufferView": 40,
      "componentType": 5126,
      "count": 456,
      "type": "VEC3"
    },
    {
      "bufferView": 41,
      "componentType": 5126,
      "count": 456,
      "type": "VEC2"
    },
    {
      "bufferView": 42,
      "componentType": 5126,
      "count": 24,
      "max": [
        26.81999969482422,
        0.009999999776482582,
        44.29999923706055
      ],
      "min": [
        24.219999313354492,
        -0.05000000074505806,
        39.29999923706055
      ],
      "type": "VEC3"
    },
    {
      "bufferView": 43,
      "componentType": 5126,
      "count": 24,
      "type": "VEC3"
    },
    {
      "bufferView": 44,
      "componentType": 5126,
      "count": 24,
      "type": "VEC2"
    },
    {
      "bufferView": 45,
      "componentType": 5126,
      "count": 48,
      "max": [
        23.149999618530273,
        1.1200000047683716,
        44
      ],
      "min": [
        18.850000381469727,
        0.9700000286102295,
        39.54999923706055
      ],
      "type": "VEC3"
    },
    {
      "bufferView": 46,
      "componentType": 5126,
      "count": 48,
      "type": "VEC3"
    },
    {
      "bufferView": 47,
      "componentType": 5126,
      "count": 48,
      "type": "VEC2"
    },
    {
      "bufferView": 48,
      "componentType": 5126,
      "count": 224,
      "max": [
        19.25,
        1.4500000476837158,
        40.191001892089844
      ],
      "min": [
        18.083999633789062,
        0.019999999552965164,
        39.45000076293945
      ],
      "type": "VEC3"
    },
    {
      "bufferView": 49,
      "componentType": 5126,
      "count": 224,
      "type": "VEC3"
    },
    {
      "bufferView": 50,
      "componentType": 5126,
      "count": 224,
      "type": "VEC2"
    },
    {
      "bufferView": 51,
      "componentType": 5123,
      "count": 420,
      "type": "SCALAR"
    },
    {
      "bufferView": 52,
      "componentType": 5126,
      "count": 24,
      "max": [
        22.440000534057617,
        1.3200000524520874,
        40.97999954223633
      ],
      "min": [
        22.100000381469727,
        1,
        40.619998931884766
      ],
      "type": "VEC3"
    },
    {
      "bufferView": 53,
      "componentType": 5126,
      "count": 24,
      "type": "VEC3"
    },
    {
      "bufferView": 54,
      "componentType": 5126,
      "count": 24,
      "type": "VEC2"
    },
    {
      "bufferView": 55,
      "componentType": 5126,
      "count": 24,
      "max": [
        18.479999542236328,
        1.6799999475479126,
        40.11000061035156
      ],
      "min": [
        17.81999969482422,
        0.019999999552965164,
        39.38999938964844
      ],
      "type": "VEC3"
    },
    {
      "bufferView": 56,
      "componentType": 5126,
      "count": 24,
      "type": "VEC3"
    },
    {
      "bufferView": 57,
      "componentType": 5126,
      "count": 24,
      "type": "VEC2"
    },
    {
      "bufferView": 58,
      "componentType": 5126,
      "count": 8,
      "max": [
        19.40760040283203,
        0.004000000189989805,
        40.35879898071289
      ],
      "min": [
        17.65760040283203,
        0.004000000189989805,
        39.28120040893555
      ],
      "type": "VEC3"
    },
    {
      "bufferView": 59,
      "componentType": 5126,
      "count": 8,
      "type": "VEC3"
    },
    {
      "bufferView": 60,
      "componentType": 5126,
      "count": 8,
      "type": "VEC2"
    },
    {
      "bufferView": 61,
      "componentType": 5126,
      "count": 168,
      "max": [
        23.985000610351562,
        3.049999952316284,
        44.2599983215332
      ],
      "min": [
        16.860000610351562,
        0.550000011920929,
        39.34000015258789
      ],
      "type": "VEC3"
    },
    {
      "bufferView": 62,
      "componentType": 5126,
      "count": 168,
      "type": "VEC3"
    },
    {
      "bufferView": 63,
      "componentType": 5126,
      "count": 168,
      "type": "VEC2"
    },
    {
      "bufferView": 64,
      "componentType": 5126,
      "count": 48,
      "max": [
        19.309999465942383,
        1.899999976158142,
        40.25
      ],
      "min": [
        17.760000228881836,
        0,
        39.38999938964844
      ],
      "type": "VEC3"
    },
    {
      "bufferView": 65,
      "componentType": 5126,
      "count": 48,
      "type": "VEC3"
    },
    {
      "bufferView": 66,
      "componentType": 5126,
      "count": 48,
      "type": "VEC2"
    },
    {
      "bufferView": 67,
      "componentType": 5126,
      "count": 24,
      "max": [
        16.799999237060547,
        3.009999990463257,
        44.18000030517578
      ],
      "min": [
        16.739999771118164,
        2.549999952316284,
        39.41999816894531
      ],
      "type": "VEC3"
    },
    {
      "bufferView": 68,
      "componentType": 5126,
      "count": 24,
      "type": "VEC3"
    },
    {
      "bufferView": 69,
      "componentType": 5126,
      "count": 24,
      "type": "VEC2"
    },
    {
      "bufferView": 70,
      "componentType": 5126,
      "count": 24,
      "max": [
        22.459999084472656,
        0.9700000286102295,
        42.41999816894531
      ],
      "min": [
        21.8799991607666,
        0.05000000074505806,
        41.18000030517578
      ],
      "type": "VEC3"
    },
    {
      "bufferView": 71,
      "componentType": 5126,
      "count": 24,
      "type": "VEC3"
    },
    {
      "bufferView": 72,
      "componentType": 5126,
      "count": 24,
      "type": "VEC2"
    },
    {
      "bufferView": 73,
      "componentType": 5126,
      "count": 216,
      "max": [
        22.450000762939453,
        3.0799999237060547,
        44.20000076293945
      ],
      "min": [
        15.399999618530273,
        0.006000000052154064,
        39.40999984741211
      ],
      "type": "VEC3"
    },
    {
      "bufferView": 74,
      "componentType": 5126,
      "count": 216,
      "type": "VEC3"
    },
    {
      "bufferView": 75,
      "componentType": 5126,
      "count": 216,
      "type": "VEC2"
    },
    {
      "bufferView": 76,
      "componentType": 5126,
      "count": 24,
      "max": [
        18.530000686645508,
        1.899999976158142,
        40.16999816894531
      ],
      "min": [
        17.770000457763672,
        1.6799999475479126,
        40.0099983215332
      ],
      "type": "VEC3"
    },
    {
      "bufferView": 77,
      "componentType": 5126,
      "count": 24,
      "type": "VEC3"
    },
    {
      "bufferView": 78,
      "componentType": 5126,
      "count": 24,
      "type": "VEC2"
    },
    {
      "bufferView": 79,
      "componentType": 5126,
      "count": 264,
      "max": [
        23.020000457763672,
        1.8600000143051147,
        43.68000030517578
      ],
      "min": [
        19.030000686645508,
        1,
        40.7599983215332
      ],
      "type": "VEC3"
    },
    {
      "bufferView": 80,
      "componentType": 5126,
      "count": 264,
      "type": "VEC3"
    },
    {
      "bufferView": 81,
      "componentType": 5126,
      "count": 264,
      "type": "VEC2"
    },
    {
      "bufferView": 82,
      "componentType": 5126,
      "count": 96,
      "max": [
        27.059999465942383,
        2,
        43.900001525878906
      ],
      "min": [
        19.1299991607666,
        0.5,
        41.619998931884766
      ],
      "type": "VEC3"
    },
    {
      "bufferView": 83,
      "componentType": 5126,
      "count": 96,
      "type": "VEC3"
    },
    {
      "bufferView": 84,
      "componentType": 5126,
      "count": 96,
      "type": "VEC2"
    },
    {
      "bufferView": 85,
      "componentType": 5126,
      "count": 144,
      "max": [
        26.81999969482422,
        3.2799999713897705,
        44.29999923706055
      ],
      "min": [
        24.219999313354492,
        0.009999999776482582,
        39.29999923706055
      ],
      "type": "VEC3"
    },
    {
      "bufferView": 86,
      "componentType": 5126,
      "count": 144,
      "type": "VEC3"
    },
    {
      "bufferView": 87,
      "componentType": 5126,
      "count": 144,
      "type": "VEC2"
    },
    {
      "bufferView": 88,
      "componentType": 5126,
      "count": 96,
      "max": [
        24,
        3.259999990463257,
        44.29999923706055
      ],
      "min": [
        23.940000534057617,
        0.009999999776482582,
        39.29999923706055
      ],
      "type": "VEC3"
    },
    {
      "bufferView": 89,
      "componentType": 5126,
      "count": 96,
      "type": "VEC3"
    },
    {
      "bufferView": 90,
      "componentType": 5126,
      "count": 96,
      "type": "VEC2"
    },
    {
      "bufferView": 91,
      "componentType": 5126,
      "count": 48,
      "max": [
        19.190000534057617,
        1.5499999523162842,
        40.1150016784668
      ],
      "min": [
        17.8799991607666,
        0.8399999737739563,
        40.04499816894531
      ],
      "type": "VEC3"
    },
    {
      "bufferView": 92,
      "componentType": 5126,
      "count": 48,
      "type": "VEC3"
    },
    {
      "bufferView": 93,
      "componentType": 5126,
      "count": 48,
      "type": "VEC2"
    },
    {
      "bufferView": 94,
      "componentType": 5126,
      "count": 148,
      "max": [
        18.826000213623047,
        1.7999999523162842,
        40.191001892089844
      ],
      "min": [
        17.760000228881836,
        0.550000011920929,
        39.4900016784668
      ],
      "type": "VEC3"
    },
    {
      "bufferView": 95,
      "componentType": 5126,
      "count": 148,
      "type": "VEC3"
    },
    {
      "bufferView": 96,
      "componentType": 5126,
      "count": 148,
      "type": "VEC2"
    },
    {
      "bufferView": 97,
      "componentType": 5123,
      "count": 264,
      "type": "SCALAR"
    },
    {
      "bufferView": 98,
      "componentType": 5126,
      "count": 24,
      "max": [
        24,
        0.009999999776482582,
        44.29999923706055
      ],
      "min": [
        17,
        -0.05000000074505806,
        39.29999923706055
      ],
      "type": "VEC3"
    },
    {
      "bufferView": 99,
      "componentType": 5126,
      "count": 24,
      "type": "VEC3"
    },
    {
      "bufferView": 100,
      "componentType": 5126,
      "count": 24,
      "type": "VEC2"
    },
    {
      "bufferView": 101,
      "componentType": 5126,
      "count": 72,
      "max": [
        23.3799991607666,
        2.1600000858306885,
        43.95000076293945
      ],
      "min": [
        23.329999923706055,
        1.3200000524520874,
        39.599998474121094
      ],
      "type": "VEC3"
    },
    {
      "bufferView": 102,
      "componentType": 5126,
      "count": 72,
      "type": "VEC3"
    },
    {
      "bufferView": 103,
      "componentType": 5126,
      "count": 72,
      "type": "VEC2"
    },
    {
      "bufferView": 104,
      "componentType": 5126,
      "count": 24,
      "max": [
        24,
        3.549999952316284,
        44.29999923706055
      ],
      "min": [
        17,
        3.299999952316284,
        39.29999923706055
      ],
      "type": "VEC3"
    },
    {
      "bufferView": 105,
      "componentType": 5126,
      "count": 24,
      "type": "VEC3"
    },
    {
      "bufferView": 106,
      "componentType": 5126,
      "count": 24,
      "type": "VEC2"
    },
    {
      "bufferView": 107,
      "componentType": 5126,
      "count": 120,
      "max": [
        24,
        3.0999999046325684,
        43.790000915527344
      ],
      "min": [
        23.93000030517578,
        2.299999952316284,
        39.810001373291016
      ],
      "type": "VEC3"
    },
    {
      "bufferView": 108,
      "componentType": 5126,
      "count": 120,
      "type": "VEC3"
    },
    {
      "bufferView": 109,
      "componentType": 5126,
      "count": 120,
      "type": "VEC2"
    },
    {
      "bufferView": 110,
      "componentType": 5126,
      "count": 192,
      "max": [
        18.559999465942383,
        0.8199999928474426,
        43.880001068115234
      ],
      "min": [
        18.15999984741211,
        0.75,
        40.91999816894531
      ],
      "type": "VEC3"
    },
    {
      "bufferView": 111,
      "componentType": 5126,
      "count": 192,
      "type": "VEC3"
    },
    {
      "bufferView": 112,
      "componentType": 5126,
      "count": 192,
      "type": "VEC2"
    },
    {
      "bufferView": 113,
      "componentType": 5126,
      "count": 72,
      "max": [
        24,
        1.100000023841858,
        44.29999923706055
      ],
      "min": [
        17,
        0.05000000074505806,
        39.29999923706055
      ],
      "type": "VEC3"
    },
    {
      "bufferView": 114,
      "componentType": 5126,
      "count": 72,
      "type": "VEC3"
    },
    {
      "bufferView": 115,
      "componentType": 5126,
      "count": 72,
      "type": "VEC2"
    },
    {
      "bufferView": 116,
      "componentType": 5126,
      "count": 264,
      "max": [
        26.760000228881836,
        2.4100000858306885,
        44.08000183105469
      ],
      "min": [
        18.90999984741211,
        0.009999999776482582,
        39.314998626708984
      ],
      "type": "VEC3"
    },
    {
      "bufferView": 117,
      "componentType": 5126,
      "count": 264,
      "type": "VEC3"
    },
    {
      "bufferView": 118,
      "componentType": 5126,
      "count": 264,
      "type": "VEC2"
    },
    {
      "bufferView": 119,
      "componentType": 5126,
      "count": 4,
      "max": [
        17.110000610351562,
        0.006000000052154064,
        44.900001525878906
      ],
      "min": [
        16.209999084472656,
        0.006000000052154064,
        43.75
      ],
      "type": "VEC3"
    },
    {
      "bufferView": 120,
      "componentType": 5126,
      "count": 4,
      "type": "VEC3"
    },
    {
      "bufferView": 121,
      "componentType": 5126,
      "count": 4,
      "type": "VEC2"
    }
  ],
  "asset": {
    "extras": {
      "orison_bin_sha256": "6c452bffc072137581e636c16ded29daa203bf1320b4ff42eac5f71a8f0e9274",
      "orison_floor01_owner_first": {
        "cell_id": "CELL_SHOP_LUNCHEONETTE",
        "collision_name_contract": [
          "-col",
          "-colonly"
        ],
        "owner_before_material": true,
        "production_asset": true,
        "rollback_monolith_loaded_simultaneously": false,
        "schema": "orison.floor01.production-cell.v1",
        "spatial_inference_used": false
      }
    },
    "generator": "Khronos glTF Blender I/O v5.2.39",
    "version": "2.0"
  },
  "bufferViews": [
    {
      "buffer": 0,
      "byteLength": 72,
      "byteOffset": 0,
      "target": 34963
    },
    {
      "buffer": 0,
      "byteLength": 216,
      "byteOffset": 72,
      "target": 34963
    },
    {
      "buffer": 0,
      "byteLength": 576,
      "byteOffset": 288,
      "target": 34963
    },
    {
      "buffer": 0,
      "byteLength": 144,
      "byteOffset": 864,
      "target": 34963
    },
    {
      "buffer": 0,
      "byteLength": 12,
      "byteOffset": 1008,
      "target": 34963
    },
    {
      "buffer": 0,
      "byteLength": 360,
      "byteOffset": 1020,
      "target": 34963
    },
    {
      "buffer": 0,
      "byteLength": 648,
      "byteOffset": 1380,
      "target": 34963
    },
    {
      "buffer": 0,
      "byteLength": 288,
      "byteOffset": 2028,
      "target": 34963
    },
    {
      "buffer": 0,
      "byteLength": 24,
      "byteOffset": 2316,
      "target": 34963
    },
    {
      "buffer": 0,
      "byteLength": 792,
      "byteOffset": 2340,
      "target": 34963
    },
    {
      "buffer": 0,
      "byteLength": 504,
      "byteOffset": 3132,
      "target": 34963
    },
    {
      "buffer": 0,
      "byteLength": 432,
      "byteOffset": 3636,
      "target": 34963
    },
    {
      "buffer": 0,
      "byteLength": 1368,
      "byteOffset": 4068,
      "target": 34963
    },
    {
      "buffer": 0,
      "byteLength": 576,
      "byteOffset": 5436,
      "target": 34962
    },
    {
      "buffer": 0,
      "byteLength": 576,
      "byteOffset": 6012,
      "target": 34962
    },
    {
      "buffer": 0,
      "byteLength": 384,
      "byteOffset": 6588,
      "target": 34962
    },
    {
      "buffer": 0,
      "byteLength": 4800,
      "byteOffset": 6972,
      "target": 34962
    },
    {
      "buffer": 0,
      "byteLength": 4800,
      "byteOffset": 11772,
      "target": 34962
    },
    {
      "buffer": 0,
      "byteLength": 3200,
      "byteOffset": 16572,
      "target": 34962
    },
    {
      "buffer": 0,
      "byteLength": 1536,
      "byteOffset": 19772,
      "target": 34963
    },
    {
      "buffer": 0,
      "byteLength": 5568,
      "byteOffset": 21308,
      "target": 34962
    },
    {
      "buffer": 0,
      "byteLength": 5568,
      "byteOffset": 26876,
      "target": 34962
    },
    {
      "buffer": 0,
      "byteLength": 3712,
      "byteOffset": 32444,
      "target": 34962
    },
    {
      "buffer": 0,
      "byteLength": 1536,
      "byteOffset": 36156,
      "target": 34963
    },
    {
      "buffer": 0,
      "byteLength": 288,
      "byteOffset": 37692,
      "target": 34962
    },
    {
      "buffer": 0,
      "byteLength": 288,
      "byteOffset": 37980,
      "target": 34962
    },
    {
      "buffer": 0,
      "byteLength": 192,
      "byteOffset": 38268,
      "target": 34962
    },
    {
      "buffer": 0,
      "byteLength": 576,
      "byteOffset": 38460,
      "target": 34962
    },
    {
      "buffer": 0,
      "byteLength": 576,
      "byteOffset": 39036,
      "target": 34962
    },
    {
      "buffer": 0,
      "byteLength": 384,
      "byteOffset": 39612,
      "target": 34962
    },
    {
      "buffer": 0,
      "byteLength": 288,
      "byteOffset": 39996,
      "target": 34962
    },
    {
      "buffer": 0,
      "byteLength": 288,
      "byteOffset": 40284,
      "target": 34962
    },
    {
      "buffer": 0,
      "byteLength": 192,
      "byteOffset": 40572,
      "target": 34962
    },
    {
      "buffer": 0,
      "byteLength": 864,
      "byteOffset": 40764,
      "target": 34962
    },
    {
      "buffer": 0,
      "byteLength": 864,
      "byteOffset": 41628,
      "target": 34962
    },
    {
      "buffer": 0,
      "byteLength": 576,
      "byteOffset": 42492,
      "target": 34962
    },
    {
      "buffer": 0,
      "byteLength": 288,
      "byteOffset": 43068,
      "target": 34962
    },
    {
      "buffer": 0,
      "byteLength": 288,
      "byteOffset": 43356,
      "target": 34962
    },
    {
      "buffer": 0,
      "byteLength": 192,
      "byteOffset": 43644,
      "target": 34962
    },
    {
      "buffer": 0,
      "byteLength": 5472,
      "byteOffset": 43836,
      "target": 34962
    },
    {
      "buffer": 0,
      "byteLength": 5472,
      "byteOffset": 49308,
      "target": 34962
    },
    {
      "buffer": 0,
      "byteLength": 3648,
      "byteOffset": 54780,
      "target": 34962
    },
    {
      "buffer": 0,
      "byteLength": 288,
      "byteOffset": 58428,
      "target": 34962
    },
    {
      "buffer": 0,
      "byteLength": 288,
      "byteOffset": 58716,
      "target": 34962
    },
    {
      "buffer": 0,
      "byteLength": 192,
      "byteOffset": 59004,
      "target": 34962
    },
    {
      "buffer": 0,
      "byteLength": 576,
      "byteOffset": 59196,
      "target": 34962
    },
    {
      "buffer": 0,
      "byteLength": 576,
      "byteOffset": 59772,
      "target": 34962
    },
    {
      "buffer": 0,
      "byteLength": 384,
      "byteOffset": 60348,
      "target": 34962
    },
    {
      "buffer": 0,
      "byteLength": 2688,
      "byteOffset": 60732,
      "target": 34962
    },
    {
      "buffer": 0,
      "byteLength": 2688,
      "byteOffset": 63420,
      "target": 34962
    },
    {
      "buffer": 0,
      "byteLength": 1792,
      "byteOffset": 66108,
      "target": 34962
    },
    {
      "buffer": 0,
      "byteLength": 840,
      "byteOffset": 67900,
      "target": 34963
    },
    {
      "buffer": 0,
      "byteLength": 288,
      "byteOffset": 68740,
      "target": 34962
    },
    {
      "buffer": 0,
      "byteLength": 288,
      "byteOffset": 69028,
      "target": 34962
    },
    {
      "buffer": 0,
      "byteLength": 192,
      "byteOffset": 69316,
      "target": 34962
    },
    {
      "buffer": 0,
      "byteLength": 288,
      "byteOffset": 69508,
      "target": 34962
    },
    {
      "buffer": 0,
      "byteLength": 288,
      "byteOffset": 69796,
      "target": 34962
    },
    {
      "buffer": 0,
      "byteLength": 192,
      "byteOffset": 70084,
      "target": 34962
    },
    {
      "buffer": 0,
      "byteLength": 96,
      "byteOffset": 70276,
      "target": 34962
    },
    {
      "buffer": 0,
      "byteLength": 96,
      "byteOffset": 70372,
      "target": 34962
    },
    {
      "buffer": 0,
      "byteLength": 64,
      "byteOffset": 70468,
      "target": 34962
    },
    {
      "buffer": 0,
      "byteLength": 2016,
      "byteOffset": 70532,
      "target": 34962
    },
    {
      "buffer": 0,
      "byteLength": 2016,
      "byteOffset": 72548,
      "target": 34962
    },
    {
      "buffer": 0,
      "byteLength": 1344,
      "byteOffset": 74564,
      "target": 34962
    },
    {
      "buffer": 0,
      "byteLength": 576,
      "byteOffset": 75908,
      "target": 34962
    },
    {
      "buffer": 0,
      "byteLength": 576,
      "byteOffset": 76484,
      "target": 34962
    },
    {
      "buffer": 0,
      "byteLength": 384,
      "byteOffset": 77060,
      "target": 34962
    },
    {
      "buffer": 0,
      "byteLength": 288,
      "byteOffset": 77444,
      "target": 34962
    },
    {
      "buffer": 0,
      "byteLength": 288,
      "byteOffset": 77732,
      "target": 34962
    },
    {
      "buffer": 0,
      "byteLength": 192,
      "byteOffset": 78020,
      "target": 34962
    },
    {
      "buffer": 0,
      "byteLength": 288,
      "byteOffset": 78212,
      "target": 34962
    },
    {
      "buffer": 0,
      "byteLength": 288,
      "byteOffset": 78500,
      "target": 34962
    },
    {
      "buffer": 0,
      "byteLength": 192,
      "byteOffset": 78788,
      "target": 34962
    },
    {
      "buffer": 0,
      "byteLength": 2592,
      "byteOffset": 78980,
      "target": 34962
    },
    {
      "buffer": 0,
      "byteLength": 2592,
      "byteOffset": 81572,
      "target": 34962
    },
    {
      "buffer": 0,
      "byteLength": 1728,
      "byteOffset": 84164,
      "target": 34962
    },
    {
      "buffer": 0,
      "byteLength": 288,
      "byteOffset": 85892,
      "target": 34962
    },
    {
      "buffer": 0,
      "byteLength": 288,
      "byteOffset": 86180,
      "target": 34962
    },
    {
      "buffer": 0,
      "byteLength": 192,
      "byteOffset": 86468,
      "target": 34962
    },
    {
      "buffer": 0,
      "byteLength": 3168,
      "byteOffset": 86660,
      "target": 34962
    },
    {
      "buffer": 0,
      "byteLength": 3168,
      "byteOffset": 89828,
      "target": 34962
    },
    {
      "buffer": 0,
      "byteLength": 2112,
      "byteOffset": 92996,
      "target": 34962
    },
    {
      "buffer": 0,
      "byteLength": 1152,
      "byteOffset": 95108,
      "target": 34962
    },
    {
      "buffer": 0,
      "byteLength": 1152,
      "byteOffset": 96260,
      "target": 34962
    },
    {
      "buffer": 0,
      "byteLength": 768,
      "byteOffset": 97412,
      "target": 34962
    },
    {
      "buffer": 0,
      "byteLength": 1728,
      "byteOffset": 98180,
      "target": 34962
    },
    {
      "buffer": 0,
      "byteLength": 1728,
      "byteOffset": 99908,
      "target": 34962
    },
    {
      "buffer": 0,
      "byteLength": 1152,
      "byteOffset": 101636,
      "target": 34962
    },
    {
      "buffer": 0,
      "byteLength": 1152,
      "byteOffset": 102788,
      "target": 34962
    },
    {
      "buffer": 0,
      "byteLength": 1152,
      "byteOffset": 103940,
      "target": 34962
    },
    {
      "buffer": 0,
      "byteLength": 768,
      "byteOffset": 105092,
      "target": 34962
    },
    {
      "buffer": 0,
      "byteLength": 576,
      "byteOffset": 105860,
      "target": 34962
    },
    {
      "buffer": 0,
      "byteLength": 576,
      "byteOffset": 106436,
      "target": 34962
    },
    {
      "buffer": 0,
      "byteLength": 384,
      "byteOffset": 107012,
      "target": 34962
    },
    {
      "buffer": 0,
      "byteLength": 1776,
      "byteOffset": 107396,
      "target": 34962
    },
    {
      "buffer": 0,
      "byteLength": 1776,
      "byteOffset": 109172,
      "target": 34962
    },
    {
      "buffer": 0,
      "byteLength": 1184,
      "byteOffset": 110948,
      "target": 34962
    },
    {
      "buffer": 0,
      "byteLength": 528,
      "byteOffset": 112132,
      "target": 34963
    },
    {
      "buffer": 0,
      "byteLength": 288,
      "byteOffset": 112660,
      "target": 34962
    },
    {
      "buffer": 0,
      "byteLength": 288,
      "byteOffset": 112948,
      "target": 34962
    },
    {
      "buffer": 0,
      "byteLength": 192,
      "byteOffset": 113236,
      "target": 34962
    },
    {
      "buffer": 0,
      "byteLength": 864,
      "byteOffset": 113428,
      "target": 34962
    },
    {
      "buffer": 0,
      "byteLength": 864,
      "byteOffset": 114292,
      "target": 34962
    },
    {
      "buffer": 0,
      "byteLength": 576,
      "byteOffset": 115156,
      "target": 34962
    },
    {
      "buffer": 0,
      "byteLength": 288,
      "byteOffset": 115732,
      "target": 34962
    },
    {
      "buffer": 0,
      "byteLength": 288,
      "byteOffset": 116020,
      "target": 34962
    },
    {
      "buffer": 0,
      "byteLength": 192,
      "byteOffset": 116308,
      "target": 34962
    },
    {
      "buffer": 0,
      "byteLength": 1440,
      "byteOffset": 116500,
      "target": 34962
    },
    {
      "buffer": 0,
      "byteLength": 1440,
      "byteOffset": 117940,
      "target": 34962
    },
    {
      "buffer": 0,
      "byteLength": 960,
      "byteOffset": 119380,
      "target": 34962
    },
    {
      "buffer": 0,
      "byteLength": 2304,
      "byteOffset": 120340,
      "target": 34962
    },
    {
      "buffer": 0,
      "byteLength": 2304,
      "byteOffset": 122644,
      "target": 34962
    },
    {
      "buffer": 0,
      "byteLength": 1536,
      "byteOffset": 124948,
      "target": 34962
    },
    {
      "buffer": 0,
      "byteLength": 864,
      "byteOffset": 126484,
      "target": 34962
    },
    {
      "buffer": 0,
      "byteLength": 864,
      "byteOffset": 127348,
      "target": 34962
    },
    {
      "buffer": 0,
      "byteLength": 576,
      "byteOffset": 128212,
      "target": 34962
    },
    {
      "buffer": 0,
      "byteLength": 3168,
      "byteOffset": 128788,
      "target": 34962
    },
    {
      "buffer": 0,
      "byteLength": 3168,
      "byteOffset": 131956,
      "target": 34962
    },
    {
      "buffer": 0,
      "byteLength": 2112,
      "byteOffset": 135124,
      "target": 34962
    },
    {
      "buffer": 0,
      "byteLength": 48,
      "byteOffset": 137236,
      "target": 34962
    },
    {
      "buffer": 0,
      "byteLength": 48,
      "byteOffset": 137284,
      "target": 34962
    },
    {
      "buffer": 0,
      "byteLength": 32,
      "byteOffset": 137332,
      "target": 34962
    }
  ],
  "buffers": [
    {
      "byteLength": 137364,
      "uri": "shop_luncheonette.bin"
    }
  ],
  "extensionsUsed": [
    "KHR_materials_specular"
  ],
  "images": [
    {
      "mimeType": "image/png",
      "name": "T_ai_materials_metal_b_normal",
      "uri": "../textures/T_ai_materials_metal_b_normal.png"
    },
    {
      "mimeType": "image/png",
      "name": "T_ai_materials_metal_b_albedo",
      "uri": "../textures/T_ai_materials_metal_b_albedo.png"
    },
    {
      "mimeType": "image/png",
      "name": "T_ai_materials_metal_b_rough",
      "uri": "../textures/T_ai_materials_metal_b_rough.png"
    },
    {
      "mimeType": "image/png",
      "name": "T_ai_materials_brass_b_normal",
      "uri": "../textures/T_ai_materials_brass_b_normal.png"
    },
    {
      "mimeType": "image/png",
      "name": "T_ai_materials_brass_b_albedo",
      "uri": "../textures/T_ai_materials_brass_b_albedo.png"
    },
    {
      "mimeType": "image/png",
      "name": "T_ai_materials_brass_b_rough",
      "uri": "../textures/T_ai_materials_brass_b_rough.png"
    },
    {
      "mimeType": "image/png",
      "name": "T_ai_materials_cast_iron_b_normal",
      "uri": "../textures/T_ai_materials_cast_iron_b_normal.png"
    },
    {
      "mimeType": "image/png",
      "name": "T_ai_materials_cast_iron_b_albedo",
      "uri": "../textures/T_ai_materials_cast_iron_b_albedo.png"
    },
    {
      "mimeType": "image/png",
      "name": "T_ai_materials_cast_iron_b_rough",
      "uri": "../textures/T_ai_materials_cast_iron_b_rough.png"
    },
    {
      "mimeType": "image/png",
      "name": "T_glass_normal",
      "uri": "../textures/T_glass_normal.png"
    },
    {
      "mimeType": "image/png",
      "name": "T_glass_rough",
      "uri": "../textures/T_glass_rough.png"
    },
    {
      "mimeType": "image/png",
      "name": "T_ai_materials_trim_b_normal",
      "uri": "../textures/T_ai_materials_trim_b_normal.png"
    },
    {
      "mimeType": "image/png",
      "name": "T_ai_materials_trim_b_albedo",
      "uri": "../textures/T_ai_materials_trim_b_albedo.png"
    },
    {
      "mimeType": "image/png",
      "name": "T_ai_materials_trim_b_rough",
      "uri": "../textures/T_ai_materials_trim_b_rough.png"
    },
    {
      "mimeType": "image/png",
      "name": "T_fx_fx_scuff_normal",
      "uri": "../textures/T_fx_fx_scuff_normal.png"
    },
    {
      "mimeType": "image/png",
      "name": "T_fx_fx_scuff",
      "uri": "../textures/T_fx_fx_scuff.png"
    },
    {
      "mimeType": "image/png",
      "name": "T_fx_fx_scuff_rough",
      "uri": "../textures/T_fx_fx_scuff_rough.png"
    },
    {
      "mimeType": "image/png",
      "name": "T_ai_materials_plaster_b_normal",
      "uri": "../textures/T_ai_materials_plaster_b_normal.png"
    },
    {
      "mimeType": "image/png",
      "name": "T_ai_materials_plaster_b_albedo",
      "uri": "../textures/T_ai_materials_plaster_b_albedo.png"
    },
    {
      "mimeType": "image/png",
      "name": "T_ai_materials_plaster_b_rough",
      "uri": "../textures/T_ai_materials_plaster_b_rough.png"
    },
    {
      "mimeType": "image/png",
      "name": "T_ai_materials_plaster_stained_b_normal",
      "uri": "../textures/T_ai_materials_plaster_stained_b_normal.png"
    },
    {
      "mimeType": "image/png",
      "name": "T_ai_materials_plaster_stained_b_albedo",
      "uri": "../textures/T_ai_materials_plaster_stained_b_albedo.png"
    },
    {
      "mimeType": "image/png",
      "name": "T_ai_materials_plaster_stained_b_rough",
      "uri": "../textures/T_ai_materials_plaster_stained_b_rough.png"
    },
    {
      "mimeType": "image/png",
      "name": "T_ai_materials_tin_ceiling_b_normal",
      "uri": "../textures/T_ai_materials_tin_ceiling_b_normal.png"
    },
    {
      "mimeType": "image/png",
      "name": "T_ai_materials_tin_ceiling_b_albedo",
      "uri": "../textures/T_ai_materials_tin_ceiling_b_albedo.png"
    },
    {
      "mimeType": "image/png",
      "name": "T_ai_materials_tin_ceiling_b_rough",
      "uri": "../textures/T_ai_materials_tin_ceiling_b_rough.png"
    },
    {
      "mimeType": "image/png",
      "name": "T_ai_materials_concrete_b_normal",
      "uri": "../textures/T_ai_materials_concrete_b_normal.png"
    },
    {
      "mimeType": "image/png",
      "name": "T_ai_materials_concrete_b_albedo",
      "uri": "../textures/T_ai_materials_concrete_b_albedo.png"
    },
    {
      "mimeType": "image/png",
      "name": "T_ai_materials_concrete_b_rough",
      "uri": "../textures/T_ai_materials_concrete_b_rough.png"
    },
    {
      "mimeType": "image/png",
      "name": "T_ai_materials_terrazzo_b_normal",
      "uri": "../textures/T_ai_materials_terrazzo_b_normal.png"
    },
    {
      "mimeType": "image/png",
      "name": "T_ai_materials_terrazzo_b_albedo",
      "uri": "../textures/T_ai_materials_terrazzo_b_albedo.png"
    },
    {
      "mimeType": "image/png",
      "name": "T_ai_materials_terrazzo_b_rough",
      "uri": "../textures/T_ai_materials_terrazzo_b_rough.png"
    },
    {
      "mimeType": "image/png",
      "name": "T_ai_materials_bakelite_black_normal",
      "uri": "../textures/T_ai_materials_bakelite_black_normal.png"
    },
    {
      "mimeType": "image/png",
      "name": "T_ai_materials_bakelite_black_albedo",
      "uri": "../textures/T_ai_materials_bakelite_black_albedo.png"
    },
    {
      "mimeType": "image/png",
      "name": "T_ai_materials_bakelite_black_rough",
      "uri": "../textures/T_ai_materials_bakelite_black_rough.png"
    },
    {
      "mimeType": "image/png",
      "name": "T_ai_materials_brass_bright_normal",
      "uri": "../textures/T_ai_materials_brass_bright_normal.png"
    },
    {
      "mimeType": "image/png",
      "name": "T_ai_materials_brass_bright_albedo",
      "uri": "../textures/T_ai_materials_brass_bright_albedo.png"
    },
    {
      "mimeType": "image/png",
      "name": "T_ai_materials_brass_bright_rough",
      "uri": "../textures/T_ai_materials_brass_bright_rough.png"
    },
    {
      "mimeType": "image/png",
      "name": "T_ai_materials_brass_normal",
      "uri": "../textures/T_ai_materials_brass_normal.png"
    },
    {
      "mimeType": "image/png",
      "name": "T_ai_materials_brass_albedo",
      "uri": "../textures/T_ai_materials_brass_albedo.png"
    },
    {
      "mimeType": "image/png",
      "name": "T_ai_materials_brass_rough",
      "uri": "../textures/T_ai_materials_brass_rough.png"
    },
    {
      "mimeType": "image/png",
      "name": "T_ai_materials_chrome_b_normal",
      "uri": "../textures/T_ai_materials_chrome_b_normal.png"
    },
    {
      "mimeType": "image/png",
      "name": "T_ai_materials_chrome_b_albedo",
      "uri": "../textures/T_ai_materials_chrome_b_albedo.png"
    },
    {
      "mimeType": "image/png",
      "name": "T_ai_materials_chrome_b_rough",
      "uri": "../textures/T_ai_materials_chrome_b_rough.png"
    },
    {
      "mimeType": "image/png",
      "name": "T_ai_materials_countertop_b_normal",
      "uri": "../textures/T_ai_materials_countertop_b_normal.png"
    },
    {
      "mimeType": "image/png",
      "name": "T_ai_materials_countertop_b_albedo",
      "uri": "../textures/T_ai_materials_countertop_b_albedo.png"
    },
    {
      "mimeType": "image/png",
      "name": "T_ai_materials_countertop_b_rough",
      "uri": "../textures/T_ai_materials_countertop_b_rough.png"
    },
    {
      "mimeType": "image/png",
      "name": "T_ai_materials_fabric_cool_b_normal",
      "uri": "../textures/T_ai_materials_fabric_cool_b_normal.png"
    },
    {
      "mimeType": "image/png",
      "name": "T_ai_materials_fabric_cool_b_albedo",
      "uri": "../textures/T_ai_materials_fabric_cool_b_albedo.png"
    },
    {
      "mimeType": "image/png",
      "name": "T_ai_materials_fabric_cool_b_rough",
      "uri": "../textures/T_ai_materials_fabric_cool_b_rough.png"
    },
    {
      "mimeType": "image/png",
      "name": "T_fx_fx_shadow",
      "uri": "../textures/T_fx_fx_shadow.png"
    },
    {
      "mimeType": "image/png",
      "name": "T_ai_materials_slab_b_normal",
      "uri": "../textures/T_ai_materials_slab_b_normal.png"
    },
    {
      "mimeType": "image/png",
      "name": "T_ai_materials_slab_b_albedo",
      "uri": "../textures/T_ai_materials_slab_b_albedo.png"
    },
    {
      "mimeType": "image/png",
      "name": "T_ai_materials_slab_b_rough",
      "uri": "../textures/T_ai_materials_slab_b_rough.png"
    },
    {
      "mimeType": "image/png",
      "name": "T_ai_materials_nickel_plated_normal",
      "uri": "../textures/T_ai_materials_nickel_plated_normal.png"
    },
    {
      "mimeType": "image/png",
      "name": "T_ai_materials_nickel_plated_albedo",
      "uri": "../textures/T_ai_materials_nickel_plated_albedo.png"
    },
    {
      "mimeType": "image/png",
      "name": "T_ai_materials_nickel_plated_rough",
      "uri": "../textures/T_ai_materials_nickel_plated_rough.png"
    },
    {
      "mimeType": "image/png",
      "name": "T_ai_materials_paper_b_normal",
      "uri": "../textures/T_ai_materials_paper_b_normal.png"
    },
    {
      "mimeType": "image/png",
      "name": "T_ai_materials_paper_b_albedo",
      "uri": "../textures/T_ai_materials_paper_b_albedo.png"
    },
    {
      "mimeType": "image/png",
      "name": "T_ai_materials_paper_b_rough",
      "uri": "../textures/T_ai_materials_paper_b_rough.png"
    },
    {
      "mimeType": "image/png",
      "name": "T_ai_materials_terracotta_b_normal",
      "uri": "../textures/T_ai_materials_terracotta_b_normal.png"
    },
    {
      "mimeType": "image/png",
      "name": "T_ai_materials_terracotta_b_albedo",
      "uri": "../textures/T_ai_materials_terracotta_b_albedo.png"
    },
    {
      "mimeType": "image/png",
      "name": "T_ai_materials_terracotta_b_rough",
      "uri": "../textures/T_ai_materials_terracotta_b_rough.png"
    },
    {
      "mimeType": "image/png",
      "name": "T_ai_materials_timber_b_normal",
      "uri": "../textures/T_ai_materials_timber_b_normal.png"
    },
    {
      "mimeType": "image/png",
      "name": "T_ai_materials_timber_b_albedo",
      "uri": "../textures/T_ai_materials_timber_b_albedo.png"
    },
    {
      "mimeType": "image/png",
      "name": "T_ai_materials_timber_b_rough",
      "uri": "../textures/T_ai_materials_timber_b_rough.png"
    },
    {
      "mimeType": "image/png",
      "name": "T_ai_materials_wood_dark_b_normal",
      "uri": "../textures/T_ai_materials_wood_dark_b_normal.png"
    },
    {
      "mimeType": "image/png",
      "name": "T_ai_materials_wood_dark_b_albedo",
      "uri": "../textures/T_ai_materials_wood_dark_b_albedo.png"
    },
    {
      "mimeType": "image/png",
      "name": "T_ai_materials_wood_dark_b_rough",
      "uri": "../textures/T_ai_materials_wood_dark_b_rough.png"
    },
    {
      "mimeType": "image/png",
      "name": "T_ai_materials_marble_lobby_b_normal",
      "uri": "../textures/T_ai_materials_marble_lobby_b_normal.png"
    },
    {
      "mimeType": "image/png",
      "name": "T_ai_materials_marble_lobby_b_albedo",
      "uri": "../textures/T_ai_materials_marble_lobby_b_albedo.png"
    },
    {
      "mimeType": "image/png",
      "name": "T_ai_materials_marble_lobby_b_rough",
      "uri": "../textures/T_ai_materials_marble_lobby_b_rough.png"
    },
    {
      "mimeType": "image/png",
      "name": "T_ai_materials_wainscot_b_normal",
      "uri": "../textures/T_ai_materials_wainscot_b_normal.png"
    },
    {
      "mimeType": "image/png",
      "name": "T_ai_materials_wainscot_b_albedo",
      "uri": "../textures/T_ai_materials_wainscot_b_albedo.png"
    },
    {
      "mimeType": "image/png",
      "name": "T_ai_materials_wainscot_b_rough",
      "uri": "../textures/T_ai_materials_wainscot_b_rough.png"
    },
    {
      "mimeType": "image/png",
      "name": "T_ai_materials_milk_glass_normal",
      "uri": "../textures/T_ai_materials_milk_glass_normal.png"
    },
    {
      "mimeType": "image/png",
      "name": "T_ai_materials_milk_glass_albedo",
      "uri": "../textures/T_ai_materials_milk_glass_albedo.png"
    },
    {
      "mimeType": "image/png",
      "name": "T_ai_materials_milk_glass_rough",
      "uri": "../textures/T_ai_materials_milk_glass_rough.png"
    },
    {
      "mimeType": "image/png",
      "name": "T_ai_materials_bakelite_b_normal",
      "uri": "../textures/T_ai_materials_bakelite_b_normal.png"
    },
    {
      "mimeType": "image/png",
      "name": "T_ai_materials_bakelite_b_albedo",
      "uri": "../textures/T_ai_materials_bakelite_b_albedo.png"
    },
    {
      "mimeType": "image/png",
      "name": "T_ai_materials_bakelite_b_rough",
      "uri": "../textures/T_ai_materials_bakelite_b_rough.png"
    },
    {
      "mimeType": "image/png",
      "name": "T_ai_materials_enamel_b_normal",
      "uri": "../textures/T_ai_materials_enamel_b_normal.png"
    },
    {
      "mimeType": "image/png",
      "name": "T_ai_materials_enamel_b_albedo",
      "uri": "../textures/T_ai_materials_enamel_b_albedo.png"
    },
    {
      "mimeType": "image/png",
      "name": "T_ai_materials_enamel_b_rough",
      "uri": "../textures/T_ai_materials_enamel_b_rough.png"
    },
    {
      "mimeType": "image/png",
      "name": "T_ai_materials_lacquer_red_b_normal",
      "uri": "../textures/T_ai_materials_lacquer_red_b_normal.png"
    },
    {
      "mimeType": "image/png",
      "name": "T_ai_materials_lacquer_red_b_albedo",
      "uri": "../textures/T_ai_materials_lacquer_red_b_albedo.png"
    },
    {
      "mimeType": "image/png",
      "name": "T_ai_materials_lacquer_red_b_rough",
      "uri": "../textures/T_ai_materials_lacquer_red_b_rough.png"
    },
    {
      "mimeType": "image/png",
      "name": "T_ai_materials_vinyl_oxblood_b_normal",
      "uri": "../textures/T_ai_materials_vinyl_oxblood_b_normal.png"
    },
    {
      "mimeType": "image/png",
      "name": "T_ai_materials_vinyl_oxblood_b_albedo",
      "uri": "../textures/T_ai_materials_vinyl_oxblood_b_albedo.png"
    },
    {
      "mimeType": "image/png",
      "name": "T_ai_materials_vinyl_oxblood_b_rough",
      "uri": "../textures/T_ai_materials_vinyl_oxblood_b_rough.png"
    },
    {
      "mimeType": "image/png",
      "name": "T_ai_materials_awning_vinyl_normal",
      "uri": "../textures/T_ai_materials_awning_vinyl_normal.png"
    },
    {
      "mimeType": "image/png",
      "name": "T_ai_materials_awning_vinyl_albedo",
      "uri": "../textures/T_ai_materials_awning_vinyl_albedo.png"
    },
    {
      "mimeType": "image/png",
      "name": "T_ai_materials_awning_vinyl_rough",
      "uri": "../textures/T_ai_materials_awning_vinyl_rough.png"
    }
  ],
  "materials": [
    {
      "name": "M_metal_b",
      "normalTexture": {
        "index": 0,
        "scale": 0.3499999940395355
      },
      "pbrMetallicRoughness": {
        "baseColorTexture": {
          "index": 1
        },
        "metallicFactor": 0.8999999761581421,
        "metallicRoughnessTexture": {
          "index": 2
        }
      }
    },
    {
      "name": "M_brass_b",
      "normalTexture": {
        "index": 3,
        "scale": 0.3499999940395355
      },
      "pbrMetallicRoughness": {
        "baseColorTexture": {
          "index": 4
        },
        "metallicFactor": 0.8500000238418579,
        "metallicRoughnessTexture": {
          "index": 5
        }
      }
    },
    {
      "name": "M_cast_iron_b",
      "normalTexture": {
        "index": 6,
        "scale": 0.3499999940395355
      },
      "pbrMetallicRoughness": {
        "baseColorTexture": {
          "index": 7
        },
        "metallicFactor": 0.3499999940395355,
        "metallicRoughnessTexture": {
          "index": 8
        }
      }
    },
    {
      "alphaMode": "BLEND",
      "doubleSided": true,
      "name": "M_glassish",
      "normalTexture": {
        "index": 9,
        "scale": 0.550000011920929
      },
      "pbrMetallicRoughness": {
        "baseColorFactor": [
          0.7599999904632568,
          0.8500000238418579,
          0.8899999856948853,
          0.1599999964237213
        ],
        "metallicFactor": 0,
        "metallicRoughnessTexture": {
          "index": 10
        }
      }
    },
    {
      "name": "M_trim_b",
      "normalTexture": {
        "index": 11,
        "scale": 0.3499999940395355
      },
      "pbrMetallicRoughness": {
        "baseColorTexture": {
          "index": 12
        },
        "metallicFactor": 0,
        "metallicRoughnessTexture": {
          "index": 13
        }
      }
    },
    {
      "alphaMode": "BLEND",
      "doubleSided": true,
      "name": "M_fx_scuff",
      "normalTexture": {
        "index": 14,
        "scale": 0.2800000011920929
      },
      "pbrMetallicRoughness": {
        "baseColorTexture": {
          "index": 15
        },
        "metallicFactor": 0,
        "metallicRoughnessTexture": {
          "index": 16
        }
      }
    },
    {
      "name": "M_plaster_b",
      "normalTexture": {
        "index": 17,
        "scale": 0.3499999940395355
      },
      "pbrMetallicRoughness": {
        "baseColorTexture": {
          "index": 18
        },
        "metallicFactor": 0,
        "metallicRoughnessTexture": {
          "index": 19
        }
      }
    },
    {
      "name": "M_plaster_stained_b",
      "normalTexture": {
        "index": 20,
        "scale": 0.3499999940395355
      },
      "pbrMetallicRoughness": {
        "baseColorTexture": {
          "index": 21
        },
        "metallicFactor": 0,
        "metallicRoughnessTexture": {
          "index": 22
        }
      }
    },
    {
      "name": "M_tin_ceiling_b",
      "normalTexture": {
        "index": 23,
        "scale": 0.3499999940395355
      },
      "pbrMetallicRoughness": {
        "baseColorTexture": {
          "index": 24
        },
        "metallicFactor": 0.07999999821186066,
        "metallicRoughnessTexture": {
          "index": 25
        }
      }
    },
    {
      "name": "M_concrete_b",
      "normalTexture": {
        "index": 26,
        "scale": 0.3499999940395355
      },
      "pbrMetallicRoughness": {
        "baseColorTexture": {
          "index": 27
        },
        "metallicFactor": 0,
        "metallicRoughnessTexture": {
          "index": 28
        }
      }
    },
    {
      "name": "M_terrazzo_b",
      "normalTexture": {
        "index": 29,
        "scale": 0.3499999940395355
      },
      "pbrMetallicRoughness": {
        "baseColorTexture": {
          "index": 30
        },
        "metallicFactor": 0,
        "metallicRoughnessTexture": {
          "index": 31
        }
      }
    },
    {
      "name": "M_bakelite_black",
      "normalTexture": {
        "index": 32,
        "scale": 0.3499999940395355
      },
      "pbrMetallicRoughness": {
        "baseColorTexture": {
          "index": 33
        },
        "metallicFactor": 0,
        "metallicRoughnessTexture": {
          "index": 34
        }
      }
    },
    {
      "name": "M_brass_bright",
      "normalTexture": {
        "index": 35,
        "scale": 0.3499999940395355
      },
      "pbrMetallicRoughness": {
        "baseColorTexture": {
          "index": 36
        },
        "metallicFactor": 0.8500000238418579,
        "metallicRoughnessTexture": {
          "index": 37
        }
      }
    },
    {
      "name": "M_brass_dull",
      "normalTexture": {
        "index": 38,
        "scale": 0.3499999940395355
      },
      "pbrMetallicRoughness": {
        "baseColorTexture": {
          "index": 39
        },
        "metallicFactor": 0.30000001192092896,
        "metallicRoughnessTexture": {
          "index": 40
        }
      }
    },
    {
      "name": "M_chrome_b",
      "normalTexture": {
        "index": 41,
        "scale": 0.3499999940395355
      },
      "pbrMetallicRoughness": {
        "baseColorTexture": {
          "index": 42
        },
        "metallicRoughnessTexture": {
          "index": 43
        }
      }
    },
    {
      "name": "M_countertop_b",
      "normalTexture": {
        "index": 44,
        "scale": 0.3499999940395355
      },
      "pbrMetallicRoughness": {
        "baseColorTexture": {
          "index": 45
        },
        "metallicFactor": 0,
        "metallicRoughnessTexture": {
          "index": 46
        }
      }
    },
    {
      "name": "M_fabric_cool_b",
      "normalTexture": {
        "index": 47,
        "scale": 0.3499999940395355
      },
      "pbrMetallicRoughness": {
        "baseColorTexture": {
          "index": 48
        },
        "metallicFactor": 0,
        "metallicRoughnessTexture": {
          "index": 49
        }
      }
    },
    {
      "alphaMode": "BLEND",
      "doubleSided": true,
      "extensions": {
        "KHR_materials_specular": {
          "specularFactor": 0
        }
      },
      "name": "M_fx_shadow",
      "pbrMetallicRoughness": {
        "baseColorTexture": {
          "index": 50
        },
        "metallicFactor": 0
      }
    },
    {
      "name": "M_slab_b",
      "normalTexture": {
        "index": 51,
        "scale": 0.3499999940395355
      },
      "pbrMetallicRoughness": {
        "baseColorTexture": {
          "index": 52
        },
        "metallicFactor": 0,
        "metallicRoughnessTexture": {
          "index": 53
        }
      }
    },
    {
      "name": "M_nickel_plated",
      "normalTexture": {
        "index": 54,
        "scale": 0.3499999940395355
      },
      "pbrMetallicRoughness": {
        "baseColorTexture": {
          "index": 55
        },
        "metallicFactor": 0.699999988079071,
        "metallicRoughnessTexture": {
          "index": 56
        }
      }
    },
    {
      "name": "M_paper_b",
      "normalTexture": {
        "index": 57,
        "scale": 0.3499999940395355
      },
      "pbrMetallicRoughness": {
        "baseColorTexture": {
          "index": 58
        },
        "metallicFactor": 0,
        "metallicRoughnessTexture": {
          "index": 59
        }
      }
    },
    {
      "name": "M_terracotta_b",
      "normalTexture": {
        "index": 60,
        "scale": 0.3499999940395355
      },
      "pbrMetallicRoughness": {
        "baseColorTexture": {
          "index": 61
        },
        "metallicFactor": 0,
        "metallicRoughnessTexture": {
          "index": 62
        }
      }
    },
    {
      "name": "M_timber_b",
      "normalTexture": {
        "index": 63,
        "scale": 0.3499999940395355
      },
      "pbrMetallicRoughness": {
        "baseColorTexture": {
          "index": 64
        },
        "metallicFactor": 0,
        "metallicRoughnessTexture": {
          "index": 65
        }
      }
    },
    {
      "name": "M_wood_dark_b",
      "normalTexture": {
        "index": 66,
        "scale": 0.3499999940395355
      },
      "pbrMetallicRoughness": {
        "baseColorTexture": {
          "index": 67
        },
        "metallicFactor": 0,
        "metallicRoughnessTexture": {
          "index": 68
        }
      }
    },
    {
      "name": "M_marble_lobby_b",
      "normalTexture": {
        "index": 69,
        "scale": 0.3499999940395355
      },
      "pbrMetallicRoughness": {
        "baseColorTexture": {
          "index": 70
        },
        "metallicFactor": 0,
        "metallicRoughnessTexture": {
          "index": 71
        }
      }
    },
    {
      "name": "M_wainscot_b",
      "normalTexture": {
        "index": 72,
        "scale": 0.3499999940395355
      },
      "pbrMetallicRoughness": {
        "baseColorTexture": {
          "index": 73
        },
        "metallicFactor": 0,
        "metallicRoughnessTexture": {
          "index": 74
        }
      }
    },
    {
      "name": "M_milk_glass",
      "normalTexture": {
        "index": 75,
        "scale": 0.3499999940395355
      },
      "pbrMetallicRoughness": {
        "baseColorTexture": {
          "index": 76
        },
        "metallicFactor": 0,
        "metallicRoughnessTexture": {
          "index": 77
        }
      }
    },
    {
      "name": "M_bakelite_b",
      "normalTexture": {
        "index": 78,
        "scale": 0.3499999940395355
      },
      "pbrMetallicRoughness": {
        "baseColorTexture": {
          "index": 79
        },
        "metallicFactor": 0,
        "metallicRoughnessTexture": {
          "index": 80
        }
      }
    },
    {
      "name": "M_enamel_b",
      "normalTexture": {
        "index": 81,
        "scale": 0.3499999940395355
      },
      "pbrMetallicRoughness": {
        "baseColorTexture": {
          "index": 82
        },
        "metallicFactor": 0,
        "metallicRoughnessTexture": {
          "index": 83
        }
      }
    },
    {
      "name": "M_lacquer_red_b",
      "normalTexture": {
        "index": 84,
        "scale": 0.3499999940395355
      },
      "pbrMetallicRoughness": {
        "baseColorTexture": {
          "index": 85
        },
        "metallicFactor": 0,
        "metallicRoughnessTexture": {
          "index": 86
        }
      }
    },
    {
      "doubleSided": true,
      "name": "M_screen",
      "pbrMetallicRoughness": {
        "baseColorFactor": [
          0.07000000029802322,
          0.07999999821186066,
          0.09000000357627869,
          1
        ],
        "metallicFactor": 0,
        "roughnessFactor": 0.25
      }
    },
    {
      "name": "M_vinyl_oxblood_b",
      "normalTexture": {
        "index": 87,
        "scale": 0.3499999940395355
      },
      "pbrMetallicRoughness": {
        "baseColorTexture": {
          "index": 88
        },
        "metallicFactor": 0,
        "metallicRoughnessTexture": {
          "index": 89
        }
      }
    },
    {
      "name": "M_awning_vinyl",
      "normalTexture": {
        "index": 90,
        "scale": 0.3499999940395355
      },
      "pbrMetallicRoughness": {
        "baseColorTexture": {
          "index": 91
        },
        "metallicFactor": 0,
        "metallicRoughnessTexture": {
          "index": 92
        }
      }
    }
  ],
  "meshes": [
    {
      "name": "F01_OWN_SHOP_LUNCHEONETTE_retail_shop_luncheonette_awning_vinyl-col",
      "primitives": [
        {
          "attributes": {
            "NORMAL": 14,
            "POSITION": 13,
            "TEXCOORD_0": 15
          },
          "indices": 3,
          "material": 32
        }
      ]
    },
    {
      "name": "F01_OWN_SHOP_LUNCHEONETTE_retail_shop_luncheonette_bakelite",
      "primitives": [
        {
          "attributes": {
            "NORMAL": 17,
            "POSITION": 16,
            "TEXCOORD_0": 18
          },
          "indices": 19,
          "material": 27
        }
      ]
    },
    {
      "name": "F01_OWN_SHOP_LUNCHEONETTE_retail_shop_luncheonette_bakelite_black",
      "primitives": [
        {
          "attributes": {
            "NORMAL": 21,
            "POSITION": 20,
            "TEXCOORD_0": 22
          },
          "indices": 23,
          "material": 11
        }
      ]
    },
    {
      "name": "F01_OWN_SHOP_LUNCHEONETTE_retail_shop_luncheonette_bakelite_black-col",
      "primitives": [
        {
          "attributes": {
            "NORMAL": 25,
            "POSITION": 24,
            "TEXCOORD_0": 26
          },
          "indices": 0,
          "material": 11
        }
      ]
    },
    {
      "name": "F01_OWN_SHOP_LUNCHEONETTE_retail_shop_luncheonette_brass",
      "primitives": [
        {
          "attributes": {
            "NORMAL": 28,
            "POSITION": 27,
            "TEXCOORD_0": 29
          },
          "indices": 3,
          "material": 1
        }
      ]
    },
    {
      "name": "F01_OWN_SHOP_LUNCHEONETTE_retail_shop_luncheonette_brass_bright-col",
      "primitives": [
        {
          "attributes": {
            "NORMAL": 31,
            "POSITION": 30,
            "TEXCOORD_0": 32
          },
          "indices": 0,
          "material": 12
        }
      ]
    },
    {
      "name": "F01_OWN_SHOP_LUNCHEONETTE_retail_shop_luncheonette_brass_dull-col",
      "primitives": [
        {
          "attributes": {
            "NORMAL": 34,
            "POSITION": 33,
            "TEXCOORD_0": 35
          },
          "indices": 1,
          "material": 13
        }
      ]
    },
    {
      "name": "F01_OWN_SHOP_LUNCHEONETTE_retail_shop_luncheonette_cast_iron-col",
      "primitives": [
        {
          "attributes": {
            "NORMAL": 37,
            "POSITION": 36,
            "TEXCOORD_0": 38
          },
          "indices": 0,
          "material": 2
        }
      ]
    },
    {
      "name": "F01_OWN_SHOP_LUNCHEONETTE_retail_shop_luncheonette_chrome-col",
      "primitives": [
        {
          "attributes": {
            "NORMAL": 40,
            "POSITION": 39,
            "TEXCOORD_0": 41
          },
          "indices": 12,
          "material": 14
        }
      ]
    },
    {
      "name": "F01_OWN_SHOP_LUNCHEONETTE_retail_shop_luncheonette_concrete-col",
      "primitives": [
        {
          "attributes": {
            "NORMAL": 43,
            "POSITION": 42,
            "TEXCOORD_0": 44
          },
          "indices": 0,
          "material": 9
        }
      ]
    },
    {
      "name": "F01_OWN_SHOP_LUNCHEONETTE_retail_shop_luncheonette_countertop-col",
      "primitives": [
        {
          "attributes": {
            "NORMAL": 46,
            "POSITION": 45,
            "TEXCOORD_0": 47
          },
          "indices": 3,
          "material": 15
        }
      ]
    },
    {
      "name": "F01_OWN_SHOP_LUNCHEONETTE_retail_shop_luncheonette_enamel",
      "primitives": [
        {
          "attributes": {
            "NORMAL": 49,
            "POSITION": 48,
            "TEXCOORD_0": 50
          },
          "indices": 51,
          "material": 28
        }
      ]
    },
    {
      "name": "F01_OWN_SHOP_LUNCHEONETTE_retail_shop_luncheonette_enamel-col",
      "primitives": [
        {
          "attributes": {
            "NORMAL": 53,
            "POSITION": 52,
            "TEXCOORD_0": 54
          },
          "indices": 0,
          "material": 28
        }
      ]
    },
    {
      "name": "F01_OWN_SHOP_LUNCHEONETTE_retail_shop_luncheonette_fabric_cool",
      "primitives": [
        {
          "attributes": {
            "NORMAL": 56,
            "POSITION": 55,
            "TEXCOORD_0": 57
          },
          "indices": 0,
          "material": 16
        }
      ]
    },
    {
      "name": "F01_OWN_SHOP_LUNCHEONETTE_retail_shop_luncheonette_fx_shadow",
      "primitives": [
        {
          "attributes": {
            "NORMAL": 59,
            "POSITION": 58,
            "TEXCOORD_0": 60
          },
          "indices": 8,
          "material": 17
        }
      ]
    },
    {
      "name": "F01_OWN_SHOP_LUNCHEONETTE_retail_shop_luncheonette_glassish-col",
      "primitives": [
        {
          "attributes": {
            "NORMAL": 62,
            "POSITION": 61,
            "TEXCOORD_0": 63
          },
          "indices": 10,
          "material": 3
        }
      ]
    },
    {
      "name": "F01_OWN_SHOP_LUNCHEONETTE_retail_shop_luncheonette_hull-colonly",
      "primitives": [
        {
          "attributes": {
            "NORMAL": 65,
            "POSITION": 64,
            "TEXCOORD_0": 66
          },
          "indices": 3,
          "material": 18
        }
      ]
    },
    {
      "name": "F01_OWN_SHOP_LUNCHEONETTE_retail_shop_luncheonette_lacquer_red-col",
      "primitives": [
        {
          "attributes": {
            "NORMAL": 68,
            "POSITION": 67,
            "TEXCOORD_0": 69
          },
          "indices": 0,
          "material": 29
        }
      ]
    },
    {
      "name": "F01_OWN_SHOP_LUNCHEONETTE_retail_shop_luncheonette_marble_lobby-col",
      "primitives": [
        {
          "attributes": {
            "NORMAL": 71,
            "POSITION": 70,
            "TEXCOORD_0": 72
          },
          "indices": 0,
          "material": 24
        }
      ]
    },
    {
      "name": "F01_OWN_SHOP_LUNCHEONETTE_retail_shop_luncheonette_metal-col",
      "primitives": [
        {
          "attributes": {
            "NORMAL": 74,
            "POSITION": 73,
            "TEXCOORD_0": 75
          },
          "indices": 6,
          "material": 0
        }
      ]
    },
    {
      "name": "F01_OWN_SHOP_LUNCHEONETTE_retail_shop_luncheonette_milk_glass",
      "primitives": [
        {
          "attributes": {
            "NORMAL": 77,
            "POSITION": 76,
            "TEXCOORD_0": 78
          },
          "indices": 0,
          "material": 26
        }
      ]
    },
    {
      "name": "F01_OWN_SHOP_LUNCHEONETTE_retail_shop_luncheonette_nickel_plated-col",
      "primitives": [
        {
          "attributes": {
            "NORMAL": 80,
            "POSITION": 79,
            "TEXCOORD_0": 81
          },
          "indices": 9,
          "material": 19
        }
      ]
    },
    {
      "name": "F01_OWN_SHOP_LUNCHEONETTE_retail_shop_luncheonette_paper-col",
      "primitives": [
        {
          "attributes": {
            "NORMAL": 83,
            "POSITION": 82,
            "TEXCOORD_0": 84
          },
          "indices": 7,
          "material": 20
        }
      ]
    },
    {
      "name": "F01_OWN_SHOP_LUNCHEONETTE_retail_shop_luncheonette_plaster-col",
      "primitives": [
        {
          "attributes": {
            "NORMAL": 86,
            "POSITION": 85,
            "TEXCOORD_0": 87
          },
          "indices": 11,
          "material": 6
        }
      ]
    },
    {
      "name": "F01_OWN_SHOP_LUNCHEONETTE_retail_shop_luncheonette_plaster_stained-col",
      "primitives": [
        {
          "attributes": {
            "NORMAL": 89,
            "POSITION": 88,
            "TEXCOORD_0": 90
          },
          "indices": 7,
          "material": 7
        }
      ]
    },
    {
      "name": "F01_OWN_SHOP_LUNCHEONETTE_retail_shop_luncheonette_screen",
      "primitives": [
        {
          "attributes": {
            "NORMAL": 92,
            "POSITION": 91,
            "TEXCOORD_0": 93
          },
          "indices": 3,
          "material": 30
        }
      ]
    },
    {
      "name": "F01_OWN_SHOP_LUNCHEONETTE_retail_shop_luncheonette_terracotta",
      "primitives": [
        {
          "attributes": {
            "NORMAL": 95,
            "POSITION": 94,
            "TEXCOORD_0": 96
          },
          "indices": 97,
          "material": 21
        }
      ]
    },
    {
      "name": "F01_OWN_SHOP_LUNCHEONETTE_retail_shop_luncheonette_terrazzo-col",
      "primitives": [
        {
          "attributes": {
            "NORMAL": 99,
            "POSITION": 98,
            "TEXCOORD_0": 100
          },
          "indices": 0,
          "material": 10
        }
      ]
    },
    {
      "name": "F01_OWN_SHOP_LUNCHEONETTE_retail_shop_luncheonette_timber-col",
      "primitives": [
        {
          "attributes": {
            "NORMAL": 102,
            "POSITION": 101,
            "TEXCOORD_0": 103
          },
          "indices": 1,
          "material": 22
        }
      ]
    },
    {
      "name": "F01_OWN_SHOP_LUNCHEONETTE_retail_shop_luncheonette_tin_ceiling-col",
      "primitives": [
        {
          "attributes": {
            "NORMAL": 105,
            "POSITION": 104,
            "TEXCOORD_0": 106
          },
          "indices": 0,
          "material": 8
        }
      ]
    },
    {
      "name": "F01_OWN_SHOP_LUNCHEONETTE_retail_shop_luncheonette_trim-col",
      "primitives": [
        {
          "attributes": {
            "NORMAL": 108,
            "POSITION": 107,
            "TEXCOORD_0": 109
          },
          "indices": 5,
          "material": 4
        }
      ]
    },
    {
      "name": "F01_OWN_SHOP_LUNCHEONETTE_retail_shop_luncheonette_vinyl_oxblood-col",
      "primitives": [
        {
          "attributes": {
            "NORMAL": 111,
            "POSITION": 110,
            "TEXCOORD_0": 112
          },
          "indices": 2,
          "material": 31
        }
      ]
    },
    {
      "name": "F01_OWN_SHOP_LUNCHEONETTE_retail_shop_luncheonette_wainscot-col",
      "primitives": [
        {
          "attributes": {
            "NORMAL": 114,
            "POSITION": 113,
            "TEXCOORD_0": 115
          },
          "indices": 1,
          "material": 25
        }
      ]
    },
    {
      "name": "F01_OWN_SHOP_LUNCHEONETTE_retail_shop_luncheonette_wood_dark-col",
      "primitives": [
        {
          "attributes": {
            "NORMAL": 117,
            "POSITION": 116,
            "TEXCOORD_0": 118
          },
          "indices": 9,
          "material": 23
        }
      ]
    },
    {
      "name": "F01_OWN_SHOP_LUNCHEONETTE_wear_fx_scuff",
      "primitives": [
        {
          "attributes": {
            "NORMAL": 120,
            "POSITION": 119,
            "TEXCOORD_0": 121
          },
          "indices": 4,
          "material": 5
        }
      ]
    }
  ],
  "nodes": [
    {
      "mesh": 0,
      "name": "F01_OWN_SHOP_LUNCHEONETTE_retail_shop_luncheonette_awning_vinyl-col"
    },
    {
      "mesh": 1,
      "name": "F01_OWN_SHOP_LUNCHEONETTE_retail_shop_luncheonette_bakelite"
    },
    {
      "mesh": 2,
      "name": "F01_OWN_SHOP_LUNCHEONETTE_retail_shop_luncheonette_bakelite_black"
    },
    {
      "mesh": 3,
      "name": "F01_OWN_SHOP_LUNCHEONETTE_retail_shop_luncheonette_bakelite_black-col"
    },
    {
      "mesh": 4,
      "name": "F01_OWN_SHOP_LUNCHEONETTE_retail_shop_luncheonette_brass"
    },
    {
      "mesh": 5,
      "name": "F01_OWN_SHOP_LUNCHEONETTE_retail_shop_luncheonette_brass_bright-col"
    },
    {
      "mesh": 6,
      "name": "F01_OWN_SHOP_LUNCHEONETTE_retail_shop_luncheonette_brass_dull-col"
    },
    {
      "mesh": 7,
      "name": "F01_OWN_SHOP_LUNCHEONETTE_retail_shop_luncheonette_cast_iron-col"
    },
    {
      "mesh": 8,
      "name": "F01_OWN_SHOP_LUNCHEONETTE_retail_shop_luncheonette_chrome-col"
    },
    {
      "mesh": 9,
      "name": "F01_OWN_SHOP_LUNCHEONETTE_retail_shop_luncheonette_concrete-col"
    },
    {
      "mesh": 10,
      "name": "F01_OWN_SHOP_LUNCHEONETTE_retail_shop_luncheonette_countertop-col"
    },
    {
      "mesh": 11,
      "name": "F01_OWN_SHOP_LUNCHEONETTE_retail_shop_luncheonette_enamel"
    },
    {
      "mesh": 12,
      "name": "F01_OWN_SHOP_LUNCHEONETTE_retail_shop_luncheonette_enamel-col"
    },
    {
      "mesh": 13,
      "name": "F01_OWN_SHOP_LUNCHEONETTE_retail_shop_luncheonette_fabric_cool"
    },
    {
      "mesh": 14,
      "name": "F01_OWN_SHOP_LUNCHEONETTE_retail_shop_luncheonette_fx_shadow"
    },
    {
      "mesh": 15,
      "name": "F01_OWN_SHOP_LUNCHEONETTE_retail_shop_luncheonette_glassish-col"
    },
    {
      "mesh": 16,
      "name": "F01_OWN_SHOP_LUNCHEONETTE_retail_shop_luncheonette_hull-colonly"
    },
    {
      "mesh": 17,
      "name": "F01_OWN_SHOP_LUNCHEONETTE_retail_shop_luncheonette_lacquer_red-col"
    },
    {
      "mesh": 18,
      "name": "F01_OWN_SHOP_LUNCHEONETTE_retail_shop_luncheonette_marble_lobby-col"
    },
    {
      "mesh": 19,
      "name": "F01_OWN_SHOP_LUNCHEONETTE_retail_shop_luncheonette_metal-col"
    },
    {
      "mesh": 20,
      "name": "F01_OWN_SHOP_LUNCHEONETTE_retail_shop_luncheonette_milk_glass"
    },
    {
      "mesh": 21,
      "name": "F01_OWN_SHOP_LUNCHEONETTE_retail_shop_luncheonette_nickel_plated-col"
    },
    {
      "mesh": 22,
      "name": "F01_OWN_SHOP_LUNCHEONETTE_retail_shop_luncheonette_paper-col"
    },
    {
      "mesh": 23,
      "name": "F01_OWN_SHOP_LUNCHEONETTE_retail_shop_luncheonette_plaster-col"
    },
    {
      "mesh": 24,
      "name": "F01_OWN_SHOP_LUNCHEONETTE_retail_shop_luncheonette_plaster_stained-col"
    },
    {
      "mesh": 25,
      "name": "F01_OWN_SHOP_LUNCHEONETTE_retail_shop_luncheonette_screen"
    },
    {
      "mesh": 26,
      "name": "F01_OWN_SHOP_LUNCHEONETTE_retail_shop_luncheonette_terracotta"
    },
    {
      "mesh": 27,
      "name": "F01_OWN_SHOP_LUNCHEONETTE_retail_shop_luncheonette_terrazzo-col"
    },
    {
      "mesh": 28,
      "name": "F01_OWN_SHOP_LUNCHEONETTE_retail_shop_luncheonette_timber-col"
    },
    {
      "mesh": 29,
      "name": "F01_OWN_SHOP_LUNCHEONETTE_retail_shop_luncheonette_tin_ceiling-col"
    },
    {
      "mesh": 30,
      "name": "F01_OWN_SHOP_LUNCHEONETTE_retail_shop_luncheonette_trim-col"
    },
    {
      "mesh": 31,
      "name": "F01_OWN_SHOP_LUNCHEONETTE_retail_shop_luncheonette_vinyl_oxblood-col"
    },
    {
      "mesh": 32,
      "name": "F01_OWN_SHOP_LUNCHEONETTE_retail_shop_luncheonette_wainscot-col"
    },
    {
      "mesh": 33,
      "name": "F01_OWN_SHOP_LUNCHEONETTE_retail_shop_luncheonette_wood_dark-col"
    },
    {
      "mesh": 34,
      "name": "F01_OWN_SHOP_LUNCHEONETTE_wear_fx_scuff"
    }
  ],
  "samplers": [
    {
      "magFilter": 9729,
      "minFilter": 9987
    }
  ],
  "scene": 0,
  "scenes": [
    {
      "name": "Scene_shop_luncheonette",
      "nodes": [
        0,
        1,
        2,
        3,
        4,
        5,
        6,
        7,
        8,
        9,
        10,
        11,
        12,
        13,
        14,
        15,
        16,
        17,
        18,
        19,
        20,
        21,
        22,
        23,
        24,
        25,
        26,
        27,
        28,
        29,
        30,
        31,
        32,
        33,
        34
      ]
    }
  ],
  "textures": [
    {
      "sampler": 0,
      "source": 0
    },
    {
      "sampler": 0,
      "source": 1
    },
    {
      "sampler": 0,
      "source": 2
    },
    {
      "sampler": 0,
      "source": 3
    },
    {
      "sampler": 0,
      "source": 4
    },
    {
      "sampler": 0,
      "source": 5
    },
    {
      "sampler": 0,
      "source": 6
    },
    {
      "sampler": 0,
      "source": 7
    },
    {
      "sampler": 0,
      "source": 8
    },
    {
      "sampler": 0,
      "source": 9
    },
    {
      "sampler": 0,
      "source": 10
    },
    {
      "sampler": 0,
      "source": 11
    },
    {
      "sampler": 0,
      "source": 12
    },
    {
      "sampler": 0,
      "source": 13
    },
    {
      "sampler": 0,
      "source": 14
    },
    {
      "sampler": 0,
      "source": 15
    },
    {
      "sampler": 0,
      "source": 16
    },
    {
      "sampler": 0,
      "source": 17
    },
    {
      "sampler": 0,
      "source": 18
    },
    {
      "sampler": 0,
      "source": 19
    },
    {
      "sampler": 0,
      "source": 20
    },
    {
      "sampler": 0,
      "source": 21
    },
    {
      "sampler": 0,
      "source": 22
    },
    {
      "sampler": 0,
      "source": 23
    },
    {
      "sampler": 0,
      "source": 24
    },
    {
      "sampler": 0,
      "source": 25
    },
    {
      "sampler": 0,
      "source": 26
    },
    {
      "sampler": 0,
      "source": 27
    },
    {
      "sampler": 0,
      "source": 28
    },
    {
      "sampler": 0,
      "source": 29
    },
    {
      "sampler": 0,
      "source": 30
    },
    {
      "sampler": 0,
      "source": 31
    },
    {
      "sampler": 0,
      "source": 32
    },
    {
      "sampler": 0,
      "source": 33
    },
    {
      "sampler": 0,
      "source": 34
    },
    {
      "sampler": 0,
      "source": 35
    },
    {
      "sampler": 0,
      "source": 36
    },
    {
      "sampler": 0,
      "source": 37
    },
    {
      "sampler": 0,
      "source": 38
    },
    {
      "sampler": 0,
      "source": 39
    },
    {
      "sampler": 0,
      "source": 40
    },
    {
      "sampler": 0,
      "source": 41
    },
    {
      "sampler": 0,
      "source": 42
    },
    {
      "sampler": 0,
      "source": 43
    },
    {
      "sampler": 0,
      "source": 44
    },
    {
      "sampler": 0,
      "source": 45
    },
    {
      "sampler": 0,
      "source": 46
    },
    {
      "sampler": 0,
      "source": 47
    },
    {
      "sampler": 0,
      "source": 48
    },
    {
      "sampler": 0,
      "source": 49
    },
    {
      "sampler": 0,
      "source": 50
    },
    {
      "sampler": 0,
      "source": 51
    },
    {
      "sampler": 0,
      "source": 52
    },
    {
      "sampler": 0,
      "source": 53
    },
    {
      "sampler": 0,
      "source": 54
    },
    {
      "sampler": 0,
      "source": 55
    },
    {
      "sampler": 0,
      "source": 56
    },
    {
      "sampler": 0,
      "source": 57
    },
    {
      "sampler": 0,
      "source": 58
    },
    {
      "sampler": 0,
      "source": 59
    },
    {
      "sampler": 0,
      "source": 60
    },
    {
      "sampler": 0,
      "source": 61
    },
    {
      "sampler": 0,
      "source": 62
    },
    {
      "sampler": 0,
      "source": 63
    },
    {
      "sampler": 0,
      "source": 64
    },
    {
      "sampler": 0,
      "source": 65
    },
    {
      "sampler": 0,
      "source": 66
    },
    {
      "sampler": 0,
      "source": 67
    },
    {
      "sampler": 0,
      "source": 68
    },
    {
      "sampler": 0,
      "source": 69
    },
    {
      "sampler": 0,
      "source": 70
    },
    {
      "sampler": 0,
      "source": 71
    },
    {
      "sampler": 0,
      "source": 72
    },
    {
      "sampler": 0,
      "source": 73
    },
    {
      "sampler": 0,
      "source": 74
    },
    {
      "sampler": 0,
      "source": 75
    },
    {
      "sampler": 0,
      "source": 76
    },
    {
      "sampler": 0,
      "source": 77
    },
    {
      "sampler": 0,
      "source": 78
    },
    {
      "sampler": 0,
      "source": 79
    },
    {
      "sampler": 0,
      "source": 80
    },
    {
      "sampler": 0,
      "source": 81
    },
    {
      "sampler": 0,
      "source": 82
    },
    {
      "sampler": 0,
      "source": 83
    },
    {
      "sampler": 0,
      "source": 84
    },
    {
      "sampler": 0,
      "source": 85
    },
    {
      "sampler": 0,
      "source": 86
    },
    {
      "sampler": 0,
      "source": 87
    },
    {
      "sampler": 0,
      "source": 88
    },
    {
      "sampler": 0,
      "source": 89
    },
    {
      "sampler": 0,
      "source": 90
    },
    {
      "sampler": 0,
      "source": 91
    },
    {
      "sampler": 0,
      "source": 92
    }
  ]
}
