{
  "accessors": [
    {
      "bufferView": 0,
      "componentType": 5123,
      "count": 360,
      "type": "SCALAR"
    },
    {
      "bufferView": 1,
      "componentType": 5123,
      "count": 36,
      "type": "SCALAR"
    },
    {
      "bufferView": 2,
      "componentType": 5123,
      "count": 108,
      "type": "SCALAR"
    },
    {
      "bufferView": 3,
      "componentType": 5123,
      "count": 72,
      "type": "SCALAR"
    },
    {
      "bufferView": 4,
      "componentType": 5123,
      "count": 6,
      "type": "SCALAR"
    },
    {
      "bufferView": 5,
      "componentType": 5123,
      "count": 180,
      "type": "SCALAR"
    },
    {
      "bufferView": 6,
      "componentType": 5123,
      "count": 144,
      "type": "SCALAR"
    },
    {
      "bufferView": 7,
      "componentType": 5123,
      "count": 252,
      "type": "SCALAR"
    },
    {
      "bufferView": 8,
      "componentType": 5123,
      "count": 216,
      "type": "SCALAR"
    },
    {
      "bufferView": 9,
      "componentType": 5126,
      "count": 48,
      "max": [
        12.579999923706055,
        2.7100000381469727,
        63.84000015258789
      ],
      "min": [
        11.260000228881836,
        2.359999895095825,
        59.560001373291016
      ],
      "type": "VEC3"
    },
    {
      "bufferView": 10,
      "componentType": 5126,
      "count": 48,
      "type": "VEC3"
    },
    {
      "bufferView": 11,
      "componentType": 5126,
      "count": 48,
      "type": "VEC2"
    },
    {
      "bufferView": 12,
      "componentType": 5126,
      "count": 24,
      "max": [
        11.04800033569336,
        1.5800000429153442,
        62.38999938964844
      ],
      "min": [
        11.020000457763672,
        1.3200000524520874,
        62.209999084472656
      ],
      "type": "VEC3"
    },
    {
      "bufferView": 13,
      "componentType": 5126,
      "count": 24,
      "type": "VEC3"
    },
    {
      "bufferView": 14,
      "componentType": 5126,
      "count": 24,
      "type": "VEC2"
    },
    {
      "bufferView": 15,
      "componentType": 5126,
      "count": 72,
      "max": [
        5.059999942779541,
        1.0299999713897705,
        63.834999084472656
      ],
      "min": [
        4.579999923706055,
        0.05000000074505806,
        59.68000030517578
      ],
      "type": "VEC3"
    },
    {
      "bufferView": 16,
      "componentType": 5126,
      "count": 72,
      "type": "VEC3"
    },
    {
      "bufferView": 17,
      "componentType": 5126,
      "count": 72,
      "type": "VEC2"
    },
    {
      "bufferView": 18,
      "componentType": 5126,
      "count": 96,
      "max": [
        11.15999984741211,
        2.0850000381469727,
        62.45000076293945
      ],
      "min": [
        11.015000343322754,
        0.5149999856948853,
        59.540000915527344
      ],
      "type": "VEC3"
    },
    {
      "bufferView": 19,
      "componentType": 5126,
      "count": 96,
      "type": "VEC3"
    },
    {
      "bufferView": 20,
      "componentType": 5126,
      "count": 96,
      "type": "VEC2"
    },
    {
      "bufferView": 21,
      "componentType": 5126,
      "count": 24,
      "max": [
        3.7799999713897705,
        0.009999999776482582,
        63.900001525878906
      ],
      "min": [
        1.1799999475479126,
        -0.05000000074505806,
        59.5
      ],
      "type": "VEC3"
    },
    {
      "bufferView": 22,
      "componentType": 5126,
      "count": 24,
      "type": "VEC3"
    },
    {
      "bufferView": 23,
      "componentType": 5126,
      "count": 24,
      "type": "VEC2"
    },
    {
      "bufferView": 24,
      "componentType": 5126,
      "count": 24,
      "max": [
        11,
        0.009999999776482582,
        63.900001525878906
      ],
      "min": [
        4,
        -0.05000000074505806,
        59.5
      ],
      "type": "VEC3"
    },
    {
      "bufferView": 25,
      "componentType": 5126,
      "count": 24,
      "type": "VEC3"
    },
    {
      "bufferView": 26,
      "componentType": 5126,
      "count": 24,
      "type": "VEC2"
    },
    {
      "bufferView": 27,
      "componentType": 5126,
      "count": 48,
      "max": [
        11.119999885559082,
        3.049999952316284,
        63.349998474121094
      ],
      "min": [
        4.014999866485596,
        0.550000011920929,
        59.58000183105469
      ],
      "type": "VEC3"
    },
    {
      "bufferView": 28,
      "componentType": 5126,
      "count": 48,
      "type": "VEC3"
    },
    {
      "bufferView": 29,
      "componentType": 5126,
      "count": 48,
      "type": "VEC2"
    },
    {
      "bufferView": 30,
      "componentType": 5126,
      "count": 168,
      "max": [
        11.420000076293945,
        4.199999809265137,
        64.05999755859375
      ],
      "min": [
        10.920000076293945,
        0,
        59.34000015258789
      ],
      "type": "VEC3"
    },
    {
      "bufferView": 31,
      "componentType": 5126,
      "count": 168,
      "type": "VEC3"
    },
    {
      "bufferView": 32,
      "componentType": 5126,
      "count": 168,
      "type": "VEC2"
    },
    {
      "bufferView": 33,
      "componentType": 5126,
      "count": 48,
      "max": [
        1.2699999809265137,
        2.5999999046325684,
        63.70000076293945
      ],
      "min": [
        1.2400000095367432,
        0.20000000298023224,
        59.70000076293945
      ],
      "type": "VEC3"
    },
    {
      "bufferView": 34,
      "componentType": 5126,
      "count": 48,
      "type": "VEC3"
    },
    {
      "bufferView": 35,
      "componentType": 5126,
      "count": 48,
      "type": "VEC2"
    },
    {
      "bufferView": 36,
      "componentType": 5126,
      "count": 72,
      "max": [
        12.600000381469727,
        2.630000114440918,
        63.790000915527344
      ],
      "min": [
        11.260000228881836,
        0.006000000052154064,
        59.599998474121094
      ],
      "type": "VEC3"
    },
    {
      "bufferView": 37,
      "componentType": 5126,
      "count": 72,
      "type": "VEC3"
    },
    {
      "bufferView": 38,
      "componentType": 5126,
      "count": 72,
      "type": "VEC2"
    },
    {
      "bufferView": 39,
      "componentType": 5126,
      "count": 24,
      "max": [
        11.140000343322754,
        2.450000047683716,
        63.86000061035156
      ],
      "min": [
        11.020000457763672,
        2.049999952316284,
        59.540000915527344
      ],
      "type": "VEC3"
    },
    {
      "bufferView": 40,
      "componentType": 5126,
      "count": 24,
      "type": "VEC3"
    },
    {
      "bufferView": 41,
      "componentType": 5126,
      "count": 24,
      "type": "VEC2"
    },
    {
      "bufferView": 42,
      "componentType": 5126,
      "count": 48,
      "max": [
        5.199999809265137,
        1.2200000286102295,
        62.040000915527344
      ],
      "min": [
        3.640000104904175,
        0.9300000071525574,
        60.27000045776367
      ],
      "type": "VEC3"
    },
    {
      "bufferView": 43,
      "componentType": 5126,
      "count": 48,
      "type": "VEC3"
    },
    {
      "bufferView": 44,
      "componentType": 5126,
      "count": 48,
      "type": "VEC2"
    },
    {
      "bufferView": 45,
      "componentType": 5126,
      "count": 24,
      "max": [
        5.119999885559082,
        1.2699999809265137,
        61.84000015258789
      ],
      "min": [
        4.949999809265137,
        1.2200000286102295,
        61.560001373291016
      ],
      "type": "VEC3"
    },
    {
      "bufferView": 46,
      "componentType": 5126,
      "count": 24,
      "type": "VEC3"
    },
    {
      "bufferView": 47,
      "componentType": 5126,
      "count": 24,
      "type": "VEC2"
    },
    {
      "bufferView": 48,
      "componentType": 5126,
      "count": 96,
      "max": [
        10,
        1.8600000143051147,
        63.900001525878906
      ],
      "min": [
        4.449999809265137,
        0.5799999833106995,
        59.5
      ],
      "type": "VEC3"
    },
    {
      "bufferView": 49,
      "componentType": 5126,
      "count": 96,
      "type": "VEC3"
    },
    {
      "bufferView": 50,
      "componentType": 5126,
      "count": 96,
      "type": "VEC2"
    },
    {
      "bufferView": 51,
      "componentType": 5126,
      "count": 144,
      "max": [
        3.7799999713897705,
        3.2799999713897705,
        63.900001525878906
      ],
      "min": [
        1.1799999475479126,
        0.009999999776482582,
        59.5
      ],
      "type": "VEC3"
    },
    {
      "bufferView": 52,
      "componentType": 5126,
      "count": 144,
      "type": "VEC3"
    },
    {
      "bufferView": 53,
      "componentType": 5126,
      "count": 144,
      "type": "VEC2"
    },
    {
      "bufferView": 54,
      "componentType": 5126,
      "count": 144,
      "max": [
        4.059999942779541,
        3.259999990463257,
        63.900001525878906
      ],
      "min": [
        4,
        0.009999999776482582,
        59.5
      ],
      "type": "VEC3"
    },
    {
      "bufferView": 55,
      "componentType": 5126,
      "count": 144,
      "type": "VEC3"
    },
    {
      "bufferView": 56,
      "componentType": 5126,
      "count": 144,
      "type": "VEC2"
    },
    {
      "bufferView": 57,
      "componentType": 5126,
      "count": 24,
      "max": [
        10.460000038146973,
        1.5700000524520874,
        62.279998779296875
      ],
      "min": [
        10.420000076293945,
        0.41999998688697815,
        59.68000030517578
      ],
      "type": "VEC3"
    },
    {
      "bufferView": 58,
      "componentType": 5126,
      "count": 24,
      "type": "VEC3"
    },
    {
      "bufferView": 59,
      "componentType": 5126,
      "count": 24,
      "type": "VEC2"
    },
    {
      "bufferView": 60,
      "componentType": 5126,
      "count": 24,
      "max": [
        11.260000228881836,
        3.009999990463257,
        63.779998779296875
      ],
      "min": [
        11.199999809265137,
        2.549999952316284,
        59.619998931884766
      ],
      "type": "VEC3"
    },
    {
      "bufferView": 61,
      "componentType": 5126,
      "count": 24,
      "type": "VEC3"
    },
    {
      "bufferView": 62,
      "componentType": 5126,
      "count": 24,
      "type": "VEC2"
    },
    {
      "bufferView": 63,
      "componentType": 5126,
      "count": 24,
      "max": [
        11,
        3.549999952316284,
        63.900001525878906
      ],
      "min": [
        4,
        3.299999952316284,
        59.5
      ],
      "type": "VEC3"
    },
    {
      "bufferView": 64,
      "componentType": 5126,
      "count": 24,
      "type": "VEC3"
    },
    {
      "bufferView": 65,
      "componentType": 5126,
      "count": 24,
      "type": "VEC2"
    },
    {
      "bufferView": 66,
      "componentType": 5126,
      "count": 120,
      "max": [
        4.070000171661377,
        3.0999999046325684,
        63.38999938964844
      ],
      "min": [
        4,
        2.299999952316284,
        60.0099983215332
      ],
      "type": "VEC3"
    },
    {
      "bufferView": 67,
      "componentType": 5126,
      "count": 120,
      "type": "VEC3"
    },
    {
      "bufferView": 68,
      "componentType": 5126,
      "count": 120,
      "type": "VEC2"
    },
    {
      "bufferView": 69,
      "componentType": 5126,
      "count": 240,
      "max": [
        4.300000190734863,
        2.9000000953674316,
        63.57428741455078
      ],
      "min": [
        4.130000114440918,
        0.05000000074505806,
        59.70000076293945
      ],
      "type": "VEC3"
    },
    {
      "bufferView": 70,
      "componentType": 5126,
      "count": 240,
      "type": "VEC3"
    },
    {
      "bufferView": 71,
      "componentType": 5126,
      "count": 240,
      "type": "VEC2"
    },
    {
      "bufferView": 72,
      "componentType": 5126,
      "count": 72,
      "max": [
        11,
        1.100000023841858,
        63.900001525878906
      ],
      "min": [
        4,
        0.05000000074505806,
        59.5
      ],
      "type": "VEC3"
    },
    {
      "bufferView": 73,
      "componentType": 5126,
      "count": 72,
      "type": "VEC3"
    },
    {
      "bufferView": 74,
      "componentType": 5126,
      "count": 72,
      "type": "VEC2"
    },
    {
      "bufferView": 75,
      "componentType": 5126,
      "count": 1128,
      "max": [
        10.819999694824219,
        2.1700000762939453,
        63.8849983215332
      ],
      "min": [
        1.5299999713897705,
        0.009999999776482582,
        59.68000030517578
      ],
      "type": "VEC3"
    },
    {
      "bufferView": 76,
      "componentType": 5126,
      "count": 1128,
      "type": "VEC3"
    },
    {
      "bufferView": 77,
      "componentType": 5126,
      "count": 1128,
      "type": "VEC2"
    },
    {
      "bufferView": 78,
      "componentType": 5123,
      "count": 1692,
      "type": "SCALAR"
    },
    {
      "bufferView": 79,
      "componentType": 5126,
      "count": 4,
      "max": [
        11.789999961853027,
        0.006000000052154064,
        63.599998474121094
      ],
      "min": [
        10.890000343322754,
        0.006000000052154064,
        62.45000076293945
      ],
      "type": "VEC3"
    },
    {
      "bufferView": 80,
      "componentType": 5126,
      "count": 4,
      "type": "VEC3"
    },
    {
      "bufferView": 81,
      "componentType": 5126,
      "count": 4,
      "type": "VEC2"
    }
  ],
  "asset": {
    "extras": {
      "orison_bin_sha256": "2aba70fa1cf9027b4725edef8e1f598b3d274e7e839a80ea502d62c9332721f4",
      "orison_floor01_owner_first": {
        "cell_id": "CELL_SHOP_FUNERAL_PARLOUR",
        "collision_name_contract": [
          "-col",
          "-colonly"
        ],
        "owner_before_material": true,
        "production_asset": true,
        "rollback_monolith_loaded_simultaneously": false,
        "schema": "orison.floor01.production-cell.v1",
        "spatial_inference_used": false
      }
    },
    "generator": "Khronos glTF Blender I/O v5.2.39",
    "version": "2.0"
  },
  "bufferViews": [
    {
      "buffer": 0,
      "byteLength": 720,
      "byteOffset": 0,
      "target": 34963
    },
    {
      "buffer": 0,
      "byteLength": 72,
      "byteOffset": 720,
      "target": 34963
    },
    {
      "buffer": 0,
      "byteLength": 216,
      "byteOffset": 792,
      "target": 34963
    },
    {
      "buffer": 0,
      "byteLength": 144,
      "byteOffset": 1008,
      "target": 34963
    },
    {
      "buffer": 0,
      "byteLength": 12,
      "byteOffset": 1152,
      "target": 34963
    },
    {
      "buffer": 0,
      "byteLength": 360,
      "byteOffset": 1164,
      "target": 34963
    },
    {
      "buffer": 0,
      "byteLength": 288,
      "byteOffset": 1524,
      "target": 34963
    },
    {
      "buffer": 0,
      "byteLength": 504,
      "byteOffset": 1812,
      "target": 34963
    },
    {
      "buffer": 0,
      "byteLength": 432,
      "byteOffset": 2316,
      "target": 34963
    },
    {
      "buffer": 0,
      "byteLength": 576,
      "byteOffset": 2748,
      "target": 34962
    },
    {
      "buffer": 0,
      "byteLength": 576,
      "byteOffset": 3324,
      "target": 34962
    },
    {
      "buffer": 0,
      "byteLength": 384,
      "byteOffset": 3900,
      "target": 34962
    },
    {
      "buffer": 0,
      "byteLength": 288,
      "byteOffset": 4284,
      "target": 34962
    },
    {
      "buffer": 0,
      "byteLength": 288,
      "byteOffset": 4572,
      "target": 34962
    },
    {
      "buffer": 0,
      "byteLength": 192,
      "byteOffset": 4860,
      "target": 34962
    },
    {
      "buffer": 0,
      "byteLength": 864,
      "byteOffset": 5052,
      "target": 34962
    },
    {
      "buffer": 0,
      "byteLength": 864,
      "byteOffset": 5916,
      "target": 34962
    },
    {
      "buffer": 0,
      "byteLength": 576,
      "byteOffset": 6780,
      "target": 34962
    },
    {
      "buffer": 0,
      "byteLength": 1152,
      "byteOffset": 7356,
      "target": 34962
    },
    {
      "buffer": 0,
      "byteLength": 1152,
      "byteOffset": 8508,
      "target": 34962
    },
    {
      "buffer": 0,
      "byteLength": 768,
      "byteOffset": 9660,
      "target": 34962
    },
    {
      "buffer": 0,
      "byteLength": 288,
      "byteOffset": 10428,
      "target": 34962
    },
    {
      "buffer": 0,
      "byteLength": 288,
      "byteOffset": 10716,
      "target": 34962
    },
    {
      "buffer": 0,
      "byteLength": 192,
      "byteOffset": 11004,
      "target": 34962
    },
    {
      "buffer": 0,
      "byteLength": 288,
      "byteOffset": 11196,
      "target": 34962
    },
    {
      "buffer": 0,
      "byteLength": 288,
      "byteOffset": 11484,
      "target": 34962
    },
    {
      "buffer": 0,
      "byteLength": 192,
      "byteOffset": 11772,
      "target": 34962
    },
    {
      "buffer": 0,
      "byteLength": 576,
      "byteOffset": 11964,
      "target": 34962
    },
    {
      "buffer": 0,
      "byteLength": 576,
      "byteOffset": 12540,
      "target": 34962
    },
    {
      "buffer": 0,
      "byteLength": 384,
      "byteOffset": 13116,
      "target": 34962
    },
    {
      "buffer": 0,
      "byteLength": 2016,
      "byteOffset": 13500,
      "target": 34962
    },
    {
      "buffer": 0,
      "byteLength": 2016,
      "byteOffset": 15516,
      "target": 34962
    },
    {
      "buffer": 0,
      "byteLength": 1344,
      "byteOffset": 17532,
      "target": 34962
    },
    {
      "buffer": 0,
      "byteLength": 576,
      "byteOffset": 18876,
      "target": 34962
    },
    {
      "buffer": 0,
      "byteLength": 576,
      "byteOffset": 19452,
      "target": 34962
    },
    {
      "buffer": 0,
      "byteLength": 384,
      "byteOffset": 20028,
      "target": 34962
    },
    {
      "buffer": 0,
      "byteLength": 864,
      "byteOffset": 20412,
      "target": 34962
    },
    {
      "buffer": 0,
      "byteLength": 864,
      "byteOffset": 21276,
      "target": 34962
    },
    {
      "buffer": 0,
      "byteLength": 576,
      "byteOffset": 22140,
      "target": 34962
    },
    {
      "buffer": 0,
      "byteLength": 288,
      "byteOffset": 22716,
      "target": 34962
    },
    {
      "buffer": 0,
      "byteLength": 288,
      "byteOffset": 23004,
      "target": 34962
    },
    {
      "buffer": 0,
      "byteLength": 192,
      "byteOffset": 23292,
      "target": 34962
    },
    {
      "buffer": 0,
      "byteLength": 576,
      "byteOffset": 23484,
      "target": 34962
    },
    {
      "buffer": 0,
      "byteLength": 576,
      "byteOffset": 24060,
      "target": 34962
    },
    {
      "buffer": 0,
      "byteLength": 384,
      "byteOffset": 24636,
      "target": 34962
    },
    {
      "buffer": 0,
      "byteLength": 288,
      "byteOffset": 25020,
      "target": 34962
    },
    {
      "buffer": 0,
      "byteLength": 288,
      "byteOffset": 25308,
      "target": 34962
    },
    {
      "buffer": 0,
      "byteLength": 192,
      "byteOffset": 25596,
      "target": 34962
    },
    {
      "buffer": 0,
      "byteLength": 1152,
      "byteOffset": 25788,
      "target": 34962
    },
    {
      "buffer": 0,
      "byteLength": 1152,
      "byteOffset": 26940,
      "target": 34962
    },
    {
      "buffer": 0,
      "byteLength": 768,
      "byteOffset": 28092,
      "target": 34962
    },
    {
      "buffer": 0,
      "byteLength": 1728,
      "byteOffset": 28860,
      "target": 34962
    },
    {
      "buffer": 0,
      "byteLength": 1728,
      "byteOffset": 30588,
      "target": 34962
    },
    {
      "buffer": 0,
      "byteLength": 1152,
      "byteOffset": 32316,
      "target": 34962
    },
    {
      "buffer": 0,
      "byteLength": 1728,
      "byteOffset": 33468,
      "target": 34962
    },
    {
      "buffer": 0,
      "byteLength": 1728,
      "byteOffset": 35196,
      "target": 34962
    },
    {
      "buffer": 0,
      "byteLength": 1152,
      "byteOffset": 36924,
      "target": 34962
    },
    {
      "buffer": 0,
      "byteLength": 288,
      "byteOffset": 38076,
      "target": 34962
    },
    {
      "buffer": 0,
      "byteLength": 288,
      "byteOffset": 38364,
      "target": 34962
    },
    {
      "buffer": 0,
      "byteLength": 192,
      "byteOffset": 38652,
      "target": 34962
    },
    {
      "buffer": 0,
      "byteLength": 288,
      "byteOffset": 38844,
      "target": 34962
    },
    {
      "buffer": 0,
      "byteLength": 288,
      "byteOffset": 39132,
      "target": 34962
    },
    {
      "buffer": 0,
      "byteLength": 192,
      "byteOffset": 39420,
      "target": 34962
    },
    {
      "buffer": 0,
      "byteLength": 288,
      "byteOffset": 39612,
      "target": 34962
    },
    {
      "buffer": 0,
      "byteLength": 288,
      "byteOffset": 39900,
      "target": 34962
    },
    {
      "buffer": 0,
      "byteLength": 192,
      "byteOffset": 40188,
      "target": 34962
    },
    {
      "buffer": 0,
      "byteLength": 1440,
      "byteOffset": 40380,
      "target": 34962
    },
    {
      "buffer": 0,
      "byteLength": 1440,
      "byteOffset": 41820,
      "target": 34962
    },
    {
      "buffer": 0,
      "byteLength": 960,
      "byteOffset": 43260,
      "target": 34962
    },
    {
      "buffer": 0,
      "byteLength": 2880,
      "byteOffset": 44220,
      "target": 34962
    },
    {
      "buffer": 0,
      "byteLength": 2880,
      "byteOffset": 47100,
      "target": 34962
    },
    {
      "buffer": 0,
      "byteLength": 1920,
      "byteOffset": 49980,
      "target": 34962
    },
    {
      "buffer": 0,
      "byteLength": 864,
      "byteOffset": 51900,
      "target": 34962
    },
    {
      "buffer": 0,
      "byteLength": 864,
      "byteOffset": 52764,
      "target": 34962
    },
    {
      "buffer": 0,
      "byteLength": 576,
      "byteOffset": 53628,
      "target": 34962
    },
    {
      "buffer": 0,
      "byteLength": 13536,
      "byteOffset": 54204,
      "target": 34962
    },
    {
      "buffer": 0,
      "byteLength": 13536,
      "byteOffset": 67740,
      "target": 34962
    },
    {
      "buffer": 0,
      "byteLength": 9024,
      "byteOffset": 81276,
      "target": 34962
    },
    {
      "buffer": 0,
      "byteLength": 3384,
      "byteOffset": 90300,
      "target": 34963
    },
    {
      "buffer": 0,
      "byteLength": 48,
      "byteOffset": 93684,
      "target": 34962
    },
    {
      "buffer": 0,
      "byteLength": 48,
      "byteOffset": 93732,
      "target": 34962
    },
    {
      "buffer": 0,
      "byteLength": 32,
      "byteOffset": 93780,
      "target": 34962
    }
  ],
  "buffers": [
    {
      "byteLength": 93812,
      "uri": "shop_funeral_parlour.bin"
    }
  ],
  "extensionsUsed": [
    "KHR_materials_specular"
  ],
  "images": [
    {
      "mimeType": "image/png",
      "name": "T_ai_materials_metal_b_normal",
      "uri": "../textures/T_ai_materials_metal_b_normal.png"
    },
    {
      "mimeType": "image/png",
      "name": "T_ai_materials_metal_b_albedo",
      "uri": "../textures/T_ai_materials_metal_b_albedo.png"
    },
    {
      "mimeType": "image/png",
      "name": "T_ai_materials_metal_b_rough",
      "uri": "../textures/T_ai_materials_metal_b_rough.png"
    },
    {
      "mimeType": "image/png",
      "name": "T_glass_normal",
      "uri": "../textures/T_glass_normal.png"
    },
    {
      "mimeType": "image/png",
      "name": "T_glass_rough",
      "uri": "../textures/T_glass_rough.png"
    },
    {
      "mimeType": "image/png",
      "name": "T_ai_materials_plywood_b_normal",
      "uri": "../textures/T_ai_materials_plywood_b_normal.png"
    },
    {
      "mimeType": "image/png",
      "name": "T_ai_materials_plywood_b_albedo",
      "uri": "../textures/T_ai_materials_plywood_b_albedo.png"
    },
    {
      "mimeType": "image/png",
      "name": "T_ai_materials_plywood_b_rough",
      "uri": "../textures/T_ai_materials_plywood_b_rough.png"
    },
    {
      "mimeType": "image/png",
      "name": "T_ai_materials_soot_b_normal",
      "uri": "../textures/T_ai_materials_soot_b_normal.png"
    },
    {
      "mimeType": "image/png",
      "name": "T_ai_materials_soot_b_albedo",
      "uri": "../textures/T_ai_materials_soot_b_albedo.png"
    },
    {
      "mimeType": "image/png",
      "name": "T_ai_materials_soot_b_rough",
      "uri": "../textures/T_ai_materials_soot_b_rough.png"
    },
    {
      "mimeType": "image/png",
      "name": "T_ai_materials_limestone_b_normal",
      "uri": "../textures/T_ai_materials_limestone_b_normal.png"
    },
    {
      "mimeType": "image/png",
      "name": "T_ai_materials_limestone_b_albedo",
      "uri": "../textures/T_ai_materials_limestone_b_albedo.png"
    },
    {
      "mimeType": "image/png",
      "name": "T_ai_materials_limestone_b_rough",
      "uri": "../textures/T_ai_materials_limestone_b_rough.png"
    },
    {
      "mimeType": "image/png",
      "name": "T_ai_materials_trim_b_normal",
      "uri": "../textures/T_ai_materials_trim_b_normal.png"
    },
    {
      "mimeType": "image/png",
      "name": "T_ai_materials_trim_b_albedo",
      "uri": "../textures/T_ai_materials_trim_b_albedo.png"
    },
    {
      "mimeType": "image/png",
      "name": "T_ai_materials_trim_b_rough",
      "uri": "../textures/T_ai_materials_trim_b_rough.png"
    },
    {
      "mimeType": "image/png",
      "name": "T_fx_fx_scuff_normal",
      "uri": "../textures/T_fx_fx_scuff_normal.png"
    },
    {
      "mimeType": "image/png",
      "name": "T_fx_fx_scuff",
      "uri": "../textures/T_fx_fx_scuff.png"
    },
    {
      "mimeType": "image/png",
      "name": "T_fx_fx_scuff_rough",
      "uri": "../textures/T_fx_fx_scuff_rough.png"
    },
    {
      "mimeType": "image/png",
      "name": "T_ai_materials_plaster_b_normal",
      "uri": "../textures/T_ai_materials_plaster_b_normal.png"
    },
    {
      "mimeType": "image/png",
      "name": "T_ai_materials_plaster_b_albedo",
      "uri": "../textures/T_ai_materials_plaster_b_albedo.png"
    },
    {
      "mimeType": "image/png",
      "name": "T_ai_materials_plaster_b_rough",
      "uri": "../textures/T_ai_materials_plaster_b_rough.png"
    },
    {
      "mimeType": "image/png",
      "name": "T_ai_materials_plaster_stained_b_normal",
      "uri": "../textures/T_ai_materials_plaster_stained_b_normal.png"
    },
    {
      "mimeType": "image/png",
      "name": "T_ai_materials_plaster_stained_b_albedo",
      "uri": "../textures/T_ai_materials_plaster_stained_b_albedo.png"
    },
    {
      "mimeType": "image/png",
      "name": "T_ai_materials_plaster_stained_b_rough",
      "uri": "../textures/T_ai_materials_plaster_stained_b_rough.png"
    },
    {
      "mimeType": "image/png",
      "name": "T_ai_materials_tin_ceiling_b_normal",
      "uri": "../textures/T_ai_materials_tin_ceiling_b_normal.png"
    },
    {
      "mimeType": "image/png",
      "name": "T_ai_materials_tin_ceiling_b_albedo",
      "uri": "../textures/T_ai_materials_tin_ceiling_b_albedo.png"
    },
    {
      "mimeType": "image/png",
      "name": "T_ai_materials_tin_ceiling_b_rough",
      "uri": "../textures/T_ai_materials_tin_ceiling_b_rough.png"
    },
    {
      "mimeType": "image/png",
      "name": "T_ai_materials_concrete_b_normal",
      "uri": "../textures/T_ai_materials_concrete_b_normal.png"
    },
    {
      "mimeType": "image/png",
      "name": "T_ai_materials_concrete_b_albedo",
      "uri": "../textures/T_ai_materials_concrete_b_albedo.png"
    },
    {
      "mimeType": "image/png",
      "name": "T_ai_materials_concrete_b_rough",
      "uri": "../textures/T_ai_materials_concrete_b_rough.png"
    },
    {
      "mimeType": "image/png",
      "name": "T_ai_materials_floor_oak_b_normal",
      "uri": "../textures/T_ai_materials_floor_oak_b_normal.png"
    },
    {
      "mimeType": "image/png",
      "name": "T_ai_materials_floor_oak_b_albedo",
      "uri": "../textures/T_ai_materials_floor_oak_b_albedo.png"
    },
    {
      "mimeType": "image/png",
      "name": "T_ai_materials_floor_oak_b_rough",
      "uri": "../textures/T_ai_materials_floor_oak_b_rough.png"
    },
    {
      "mimeType": "image/png",
      "name": "T_ai_materials_brass_bright_normal",
      "uri": "../textures/T_ai_materials_brass_bright_normal.png"
    },
    {
      "mimeType": "image/png",
      "name": "T_ai_materials_brass_bright_albedo",
      "uri": "../textures/T_ai_materials_brass_bright_albedo.png"
    },
    {
      "mimeType": "image/png",
      "name": "T_ai_materials_brass_bright_rough",
      "uri": "../textures/T_ai_materials_brass_bright_rough.png"
    },
    {
      "mimeType": "image/png",
      "name": "T_ai_materials_brass_normal",
      "uri": "../textures/T_ai_materials_brass_normal.png"
    },
    {
      "mimeType": "image/png",
      "name": "T_ai_materials_brass_albedo",
      "uri": "../textures/T_ai_materials_brass_albedo.png"
    },
    {
      "mimeType": "image/png",
      "name": "T_ai_materials_brass_rough",
      "uri": "../textures/T_ai_materials_brass_rough.png"
    },
    {
      "mimeType": "image/png",
      "name": "T_ai_materials_linen_b_normal",
      "uri": "../textures/T_ai_materials_linen_b_normal.png"
    },
    {
      "mimeType": "image/png",
      "name": "T_ai_materials_linen_b_albedo",
      "uri": "../textures/T_ai_materials_linen_b_albedo.png"
    },
    {
      "mimeType": "image/png",
      "name": "T_ai_materials_linen_b_rough",
      "uri": "../textures/T_ai_materials_linen_b_rough.png"
    },
    {
      "mimeType": "image/png",
      "name": "T_ai_materials_oak_quartered_normal",
      "uri": "../textures/T_ai_materials_oak_quartered_normal.png"
    },
    {
      "mimeType": "image/png",
      "name": "T_ai_materials_oak_quartered_albedo",
      "uri": "../textures/T_ai_materials_oak_quartered_albedo.png"
    },
    {
      "mimeType": "image/png",
      "name": "T_ai_materials_oak_quartered_rough",
      "uri": "../textures/T_ai_materials_oak_quartered_rough.png"
    },
    {
      "mimeType": "image/png",
      "name": "T_ai_materials_paper_b_normal",
      "uri": "../textures/T_ai_materials_paper_b_normal.png"
    },
    {
      "mimeType": "image/png",
      "name": "T_ai_materials_paper_b_albedo",
      "uri": "../textures/T_ai_materials_paper_b_albedo.png"
    },
    {
      "mimeType": "image/png",
      "name": "T_ai_materials_paper_b_rough",
      "uri": "../textures/T_ai_materials_paper_b_rough.png"
    },
    {
      "mimeType": "image/png",
      "name": "T_ai_materials_plant_b_normal",
      "uri": "../textures/T_ai_materials_plant_b_normal.png"
    },
    {
      "mimeType": "image/png",
      "name": "T_ai_materials_plant_b_albedo",
      "uri": "../textures/T_ai_materials_plant_b_albedo.png"
    },
    {
      "mimeType": "image/png",
      "name": "T_ai_materials_plant_b_rough",
      "uri": "../textures/T_ai_materials_plant_b_rough.png"
    },
    {
      "mimeType": "image/png",
      "name": "T_ai_materials_wood_dark_b_normal",
      "uri": "../textures/T_ai_materials_wood_dark_b_normal.png"
    },
    {
      "mimeType": "image/png",
      "name": "T_ai_materials_wood_dark_b_albedo",
      "uri": "../textures/T_ai_materials_wood_dark_b_albedo.png"
    },
    {
      "mimeType": "image/png",
      "name": "T_ai_materials_wood_dark_b_rough",
      "uri": "../textures/T_ai_materials_wood_dark_b_rough.png"
    },
    {
      "mimeType": "image/png",
      "name": "T_ai_materials_wainscot_b_normal",
      "uri": "../textures/T_ai_materials_wainscot_b_normal.png"
    },
    {
      "mimeType": "image/png",
      "name": "T_ai_materials_wainscot_b_albedo",
      "uri": "../textures/T_ai_materials_wainscot_b_albedo.png"
    },
    {
      "mimeType": "image/png",
      "name": "T_ai_materials_wainscot_b_rough",
      "uri": "../textures/T_ai_materials_wainscot_b_rough.png"
    },
    {
      "mimeType": "image/png",
      "name": "T_ai_materials_milk_glass_normal",
      "uri": "../textures/T_ai_materials_milk_glass_normal.png"
    },
    {
      "mimeType": "image/png",
      "name": "T_ai_materials_milk_glass_albedo",
      "uri": "../textures/T_ai_materials_milk_glass_albedo.png"
    },
    {
      "mimeType": "image/png",
      "name": "T_ai_materials_milk_glass_rough",
      "uri": "../textures/T_ai_materials_milk_glass_rough.png"
    },
    {
      "mimeType": "image/png",
      "name": "T_ai_materials_vinyl_oxblood_b_normal",
      "uri": "../textures/T_ai_materials_vinyl_oxblood_b_normal.png"
    },
    {
      "mimeType": "image/png",
      "name": "T_ai_materials_vinyl_oxblood_b_albedo",
      "uri": "../textures/T_ai_materials_vinyl_oxblood_b_albedo.png"
    },
    {
      "mimeType": "image/png",
      "name": "T_ai_materials_vinyl_oxblood_b_rough",
      "uri": "../textures/T_ai_materials_vinyl_oxblood_b_rough.png"
    },
    {
      "mimeType": "image/png",
      "name": "T_ai_materials_awning_vinyl_normal",
      "uri": "../textures/T_ai_materials_awning_vinyl_normal.png"
    },
    {
      "mimeType": "image/png",
      "name": "T_ai_materials_awning_vinyl_albedo",
      "uri": "../textures/T_ai_materials_awning_vinyl_albedo.png"
    },
    {
      "mimeType": "image/png",
      "name": "T_ai_materials_awning_vinyl_rough",
      "uri": "../textures/T_ai_materials_awning_vinyl_rough.png"
    },
    {
      "mimeType": "image/png",
      "name": "T_ai_materials_bronze_normal",
      "uri": "../textures/T_ai_materials_bronze_normal.png"
    },
    {
      "mimeType": "image/png",
      "name": "T_ai_materials_bronze_albedo",
      "uri": "../textures/T_ai_materials_bronze_albedo.png"
    },
    {
      "mimeType": "image/png",
      "name": "T_ai_materials_bronze_rough",
      "uri": "../textures/T_ai_materials_bronze_rough.png"
    }
  ],
  "materials": [
    {
      "name": "M_metal_b",
      "normalTexture": {
        "index": 0,
        "scale": 0.3499999940395355
      },
      "pbrMetallicRoughness": {
        "baseColorTexture": {
          "index": 1
        },
        "metallicFactor": 0.8999999761581421,
        "metallicRoughnessTexture": {
          "index": 2
        }
      }
    },
    {
      "alphaMode": "BLEND",
      "doubleSided": true,
      "name": "M_glassish",
      "normalTexture": {
        "index": 3,
        "scale": 0.550000011920929
      },
      "pbrMetallicRoughness": {
        "baseColorFactor": [
          0.7599999904632568,
          0.8500000238418579,
          0.8899999856948853,
          0.1599999964237213
        ],
        "metallicFactor": 0,
        "metallicRoughnessTexture": {
          "index": 4
        }
      }
    },
    {
      "name": "M_plywood_b",
      "normalTexture": {
        "index": 5,
        "scale": 0.3499999940395355
      },
      "pbrMetallicRoughness": {
        "baseColorTexture": {
          "index": 6
        },
        "metallicFactor": 0,
        "metallicRoughnessTexture": {
          "index": 7
        }
      }
    },
    {
      "name": "M_soot_b",
      "normalTexture": {
        "index": 8,
        "scale": 0.3499999940395355
      },
      "pbrMetallicRoughness": {
        "baseColorTexture": {
          "index": 9
        },
        "metallicFactor": 0,
        "metallicRoughnessTexture": {
          "index": 10
        }
      }
    },
    {
      "name": "M_limestone_b",
      "normalTexture": {
        "index": 11,
        "scale": 0.3499999940395355
      },
      "pbrMetallicRoughness": {
        "baseColorTexture": {
          "index": 12
        },
        "metallicFactor": 0,
        "metallicRoughnessTexture": {
          "index": 13
        }
      }
    },
    {
      "name": "M_trim_b",
      "normalTexture": {
        "index": 14,
        "scale": 0.3499999940395355
      },
      "pbrMetallicRoughness": {
        "baseColorTexture": {
          "index": 15
        },
        "metallicFactor": 0,
        "metallicRoughnessTexture": {
          "index": 16
        }
      }
    },
    {
      "alphaMode": "BLEND",
      "doubleSided": true,
      "name": "M_fx_scuff",
      "normalTexture": {
        "index": 17,
        "scale": 0.2800000011920929
      },
      "pbrMetallicRoughness": {
        "baseColorTexture": {
          "index": 18
        },
        "metallicFactor": 0,
        "metallicRoughnessTexture": {
          "index": 19
        }
      }
    },
    {
      "name": "M_plaster_b",
      "normalTexture": {
        "index": 20,
        "scale": 0.3499999940395355
      },
      "pbrMetallicRoughness": {
        "baseColorTexture": {
          "index": 21
        },
        "metallicFactor": 0,
        "metallicRoughnessTexture": {
          "index": 22
        }
      }
    },
    {
      "name": "M_plaster_stained_b",
      "normalTexture": {
        "index": 23,
        "scale": 0.3499999940395355
      },
      "pbrMetallicRoughness": {
        "baseColorTexture": {
          "index": 24
        },
        "metallicFactor": 0,
        "metallicRoughnessTexture": {
          "index": 25
        }
      }
    },
    {
      "name": "M_tin_ceiling_b",
      "normalTexture": {
        "index": 26,
        "scale": 0.3499999940395355
      },
      "pbrMetallicRoughness": {
        "baseColorTexture": {
          "index": 27
        },
        "metallicFactor": 0.07999999821186066,
        "metallicRoughnessTexture": {
          "index": 28
        }
      }
    },
    {
      "name": "M_concrete_b",
      "normalTexture": {
        "index": 29,
        "scale": 0.3499999940395355
      },
      "pbrMetallicRoughness": {
        "baseColorTexture": {
          "index": 30
        },
        "metallicFactor": 0,
        "metallicRoughnessTexture": {
          "index": 31
        }
      }
    },
    {
      "name": "M_floor_oak_b",
      "normalTexture": {
        "index": 32,
        "scale": 0.3499999940395355
      },
      "pbrMetallicRoughness": {
        "baseColorTexture": {
          "index": 33
        },
        "metallicFactor": 0,
        "metallicRoughnessTexture": {
          "index": 34
        }
      }
    },
    {
      "name": "M_brass_bright",
      "normalTexture": {
        "index": 35,
        "scale": 0.3499999940395355
      },
      "pbrMetallicRoughness": {
        "baseColorTexture": {
          "index": 36
        },
        "metallicFactor": 0.8500000238418579,
        "metallicRoughnessTexture": {
          "index": 37
        }
      }
    },
    {
      "name": "M_brass_dull",
      "normalTexture": {
        "index": 38,
        "scale": 0.3499999940395355
      },
      "pbrMetallicRoughness": {
        "baseColorTexture": {
          "index": 39
        },
        "metallicFactor": 0.30000001192092896,
        "metallicRoughnessTexture": {
          "index": 40
        }
      }
    },
    {
      "name": "M_linen_b",
      "normalTexture": {
        "index": 41,
        "scale": 0.3499999940395355
      },
      "pbrMetallicRoughness": {
        "baseColorTexture": {
          "index": 42
        },
        "metallicFactor": 0,
        "metallicRoughnessTexture": {
          "index": 43
        }
      }
    },
    {
      "name": "M_oak_quartered",
      "normalTexture": {
        "index": 44,
        "scale": 0.3499999940395355
      },
      "pbrMetallicRoughness": {
        "baseColorTexture": {
          "index": 45
        },
        "metallicFactor": 0,
        "metallicRoughnessTexture": {
          "index": 46
        }
      }
    },
    {
      "name": "M_paper_b",
      "normalTexture": {
        "index": 47,
        "scale": 0.3499999940395355
      },
      "pbrMetallicRoughness": {
        "baseColorTexture": {
          "index": 48
        },
        "metallicFactor": 0,
        "metallicRoughnessTexture": {
          "index": 49
        }
      }
    },
    {
      "name": "M_plant_b",
      "normalTexture": {
        "index": 50,
        "scale": 0.3499999940395355
      },
      "pbrMetallicRoughness": {
        "baseColorTexture": {
          "index": 51
        },
        "metallicFactor": 0,
        "metallicRoughnessTexture": {
          "index": 52
        }
      }
    },
    {
      "name": "M_wood_dark_b",
      "normalTexture": {
        "index": 53,
        "scale": 0.3499999940395355
      },
      "pbrMetallicRoughness": {
        "baseColorTexture": {
          "index": 54
        },
        "metallicFactor": 0,
        "metallicRoughnessTexture": {
          "index": 55
        }
      }
    },
    {
      "name": "M_wainscot_b",
      "normalTexture": {
        "index": 56,
        "scale": 0.3499999940395355
      },
      "pbrMetallicRoughness": {
        "baseColorTexture": {
          "index": 57
        },
        "metallicFactor": 0,
        "metallicRoughnessTexture": {
          "index": 58
        }
      }
    },
    {
      "name": "M_milk_glass",
      "normalTexture": {
        "index": 59,
        "scale": 0.3499999940395355
      },
      "pbrMetallicRoughness": {
        "baseColorTexture": {
          "index": 60
        },
        "metallicFactor": 0,
        "metallicRoughnessTexture": {
          "index": 61
        }
      }
    },
    {
      "name": "M_vinyl_oxblood_b",
      "normalTexture": {
        "index": 62,
        "scale": 0.3499999940395355
      },
      "pbrMetallicRoughness": {
        "baseColorTexture": {
          "index": 63
        },
        "metallicFactor": 0,
        "metallicRoughnessTexture": {
          "index": 64
        }
      }
    },
    {
      "name": "M_awning_vinyl",
      "normalTexture": {
        "index": 65,
        "scale": 0.3499999940395355
      },
      "pbrMetallicRoughness": {
        "baseColorTexture": {
          "index": 66
        },
        "metallicFactor": 0,
        "metallicRoughnessTexture": {
          "index": 67
        }
      }
    },
    {
      "name": "M_bronze",
      "normalTexture": {
        "index": 68,
        "scale": 0.3499999940395355
      },
      "pbrMetallicRoughness": {
        "baseColorTexture": {
          "index": 69
        },
        "metallicFactor": 0.75,
        "metallicRoughnessTexture": {
          "index": 70
        }
      }
    }
  ],
  "meshes": [
    {
      "name": "F01_OWN_SHOP_FUNERAL_PARLOUR_retail_shop_funeral_parlour_awning_vinyl-col",
      "primitives": [
        {
          "attributes": {
            "NORMAL": 10,
            "POSITION": 9,
            "TEXCOORD_0": 11
          },
          "indices": 3,
          "material": 22
        }
      ]
    },
    {
      "name": "F01_OWN_SHOP_FUNERAL_PARLOUR_retail_shop_funeral_parlour_brass_bright-col",
      "primitives": [
        {
          "attributes": {
            "NORMAL": 13,
            "POSITION": 12,
            "TEXCOORD_0": 14
          },
          "indices": 1,
          "material": 12
        }
      ]
    },
    {
      "name": "F01_OWN_SHOP_FUNERAL_PARLOUR_retail_shop_funeral_parlour_brass_dull-col",
      "primitives": [
        {
          "attributes": {
            "NORMAL": 16,
            "POSITION": 15,
            "TEXCOORD_0": 17
          },
          "indices": 2,
          "material": 13
        }
      ]
    },
    {
      "name": "F01_OWN_SHOP_FUNERAL_PARLOUR_retail_shop_funeral_parlour_bronze-col",
      "primitives": [
        {
          "attributes": {
            "NORMAL": 19,
            "POSITION": 18,
            "TEXCOORD_0": 20
          },
          "indices": 6,
          "material": 23
        }
      ]
    },
    {
      "name": "F01_OWN_SHOP_FUNERAL_PARLOUR_retail_shop_funeral_parlour_concrete-col",
      "primitives": [
        {
          "attributes": {
            "NORMAL": 22,
            "POSITION": 21,
            "TEXCOORD_0": 23
          },
          "indices": 1,
          "material": 10
        }
      ]
    },
    {
      "name": "F01_OWN_SHOP_FUNERAL_PARLOUR_retail_shop_funeral_parlour_floor_oak-col",
      "primitives": [
        {
          "attributes": {
            "NORMAL": 25,
            "POSITION": 24,
            "TEXCOORD_0": 26
          },
          "indices": 1,
          "material": 11
        }
      ]
    },
    {
      "name": "F01_OWN_SHOP_FUNERAL_PARLOUR_retail_shop_funeral_parlour_glassish-col",
      "primitives": [
        {
          "attributes": {
            "NORMAL": 28,
            "POSITION": 27,
            "TEXCOORD_0": 29
          },
          "indices": 3,
          "material": 1
        }
      ]
    },
    {
      "name": "F01_OWN_SHOP_FUNERAL_PARLOUR_retail_shop_funeral_parlour_limestone-col",
      "primitives": [
        {
          "attributes": {
            "NORMAL": 31,
            "POSITION": 30,
            "TEXCOORD_0": 32
          },
          "indices": 7,
          "material": 4
        }
      ]
    },
    {
      "name": "F01_OWN_SHOP_FUNERAL_PARLOUR_retail_shop_funeral_parlour_linen-col",
      "primitives": [
        {
          "attributes": {
            "NORMAL": 34,
            "POSITION": 33,
            "TEXCOORD_0": 35
          },
          "indices": 3,
          "material": 14
        }
      ]
    },
    {
      "name": "F01_OWN_SHOP_FUNERAL_PARLOUR_retail_shop_funeral_parlour_metal-col",
      "primitives": [
        {
          "attributes": {
            "NORMAL": 37,
            "POSITION": 36,
            "TEXCOORD_0": 38
          },
          "indices": 2,
          "material": 0
        }
      ]
    },
    {
      "name": "F01_OWN_SHOP_FUNERAL_PARLOUR_retail_shop_funeral_parlour_milk_glass-col",
      "primitives": [
        {
          "attributes": {
            "NORMAL": 40,
            "POSITION": 39,
            "TEXCOORD_0": 41
          },
          "indices": 1,
          "material": 20
        }
      ]
    },
    {
      "name": "F01_OWN_SHOP_FUNERAL_PARLOUR_retail_shop_funeral_parlour_oak_quartered-col",
      "primitives": [
        {
          "attributes": {
            "NORMAL": 43,
            "POSITION": 42,
            "TEXCOORD_0": 44
          },
          "indices": 3,
          "material": 15
        }
      ]
    },
    {
      "name": "F01_OWN_SHOP_FUNERAL_PARLOUR_retail_shop_funeral_parlour_paper-col",
      "primitives": [
        {
          "attributes": {
            "NORMAL": 46,
            "POSITION": 45,
            "TEXCOORD_0": 47
          },
          "indices": 1,
          "material": 16
        }
      ]
    },
    {
      "name": "F01_OWN_SHOP_FUNERAL_PARLOUR_retail_shop_funeral_parlour_plant-col",
      "primitives": [
        {
          "attributes": {
            "NORMAL": 49,
            "POSITION": 48,
            "TEXCOORD_0": 50
          },
          "indices": 6,
          "material": 17
        }
      ]
    },
    {
      "name": "F01_OWN_SHOP_FUNERAL_PARLOUR_retail_shop_funeral_parlour_plaster-col",
      "primitives": [
        {
          "attributes": {
            "NORMAL": 52,
            "POSITION": 51,
            "TEXCOORD_0": 53
          },
          "indices": 8,
          "material": 7
        }
      ]
    },
    {
      "name": "F01_OWN_SHOP_FUNERAL_PARLOUR_retail_shop_funeral_parlour_plaster_stained-col",
      "primitives": [
        {
          "attributes": {
            "NORMAL": 55,
            "POSITION": 54,
            "TEXCOORD_0": 56
          },
          "indices": 8,
          "material": 8
        }
      ]
    },
    {
      "name": "F01_OWN_SHOP_FUNERAL_PARLOUR_retail_shop_funeral_parlour_plywood-col",
      "primitives": [
        {
          "attributes": {
            "NORMAL": 58,
            "POSITION": 57,
            "TEXCOORD_0": 59
          },
          "indices": 1,
          "material": 2
        }
      ]
    },
    {
      "name": "F01_OWN_SHOP_FUNERAL_PARLOUR_retail_shop_funeral_parlour_soot-col",
      "primitives": [
        {
          "attributes": {
            "NORMAL": 61,
            "POSITION": 60,
            "TEXCOORD_0": 62
          },
          "indices": 1,
          "material": 3
        }
      ]
    },
    {
      "name": "F01_OWN_SHOP_FUNERAL_PARLOUR_retail_shop_funeral_parlour_tin_ceiling-col",
      "primitives": [
        {
          "attributes": {
            "NORMAL": 64,
            "POSITION": 63,
            "TEXCOORD_0": 65
          },
          "indices": 1,
          "material": 9
        }
      ]
    },
    {
      "name": "F01_OWN_SHOP_FUNERAL_PARLOUR_retail_shop_funeral_parlour_trim-col",
      "primitives": [
        {
          "attributes": {
            "NORMAL": 67,
            "POSITION": 66,
            "TEXCOORD_0": 68
          },
          "indices": 5,
          "material": 5
        }
      ]
    },
    {
      "name": "F01_OWN_SHOP_FUNERAL_PARLOUR_retail_shop_funeral_parlour_vinyl_oxblood-col",
      "primitives": [
        {
          "attributes": {
            "NORMAL": 70,
            "POSITION": 69,
            "TEXCOORD_0": 71
          },
          "indices": 0,
          "material": 21
        }
      ]
    },
    {
      "name": "F01_OWN_SHOP_FUNERAL_PARLOUR_retail_shop_funeral_parlour_wainscot-col",
      "primitives": [
        {
          "attributes": {
            "NORMAL": 73,
            "POSITION": 72,
            "TEXCOORD_0": 74
          },
          "indices": 2,
          "material": 19
        }
      ]
    },
    {
      "name": "F01_OWN_SHOP_FUNERAL_PARLOUR_retail_shop_funeral_parlour_wood_dark-col",
      "primitives": [
        {
          "attributes": {
            "NORMAL": 76,
            "POSITION": 75,
            "TEXCOORD_0": 77
          },
          "indices": 78,
          "material": 18
        }
      ]
    },
    {
      "name": "F01_OWN_SHOP_FUNERAL_PARLOUR_wear_fx_scuff",
      "primitives": [
        {
          "attributes": {
            "NORMAL": 80,
            "POSITION": 79,
            "TEXCOORD_0": 81
          },
          "indices": 4,
          "material": 6
        }
      ]
    }
  ],
  "nodes": [
    {
      "mesh": 0,
      "name": "F01_OWN_SHOP_FUNERAL_PARLOUR_retail_shop_funeral_parlour_awning_vinyl-col"
    },
    {
      "mesh": 1,
      "name": "F01_OWN_SHOP_FUNERAL_PARLOUR_retail_shop_funeral_parlour_brass_bright-col"
    },
    {
      "mesh": 2,
      "name": "F01_OWN_SHOP_FUNERAL_PARLOUR_retail_shop_funeral_parlour_brass_dull-col"
    },
    {
      "mesh": 3,
      "name": "F01_OWN_SHOP_FUNERAL_PARLOUR_retail_shop_funeral_parlour_bronze-col"
    },
    {
      "mesh": 4,
      "name": "F01_OWN_SHOP_FUNERAL_PARLOUR_retail_shop_funeral_parlour_concrete-col"
    },
    {
      "mesh": 5,
      "name": "F01_OWN_SHOP_FUNERAL_PARLOUR_retail_shop_funeral_parlour_floor_oak-col"
    },
    {
      "mesh": 6,
      "name": "F01_OWN_SHOP_FUNERAL_PARLOUR_retail_shop_funeral_parlour_glassish-col"
    },
    {
      "mesh": 7,
      "name": "F01_OWN_SHOP_FUNERAL_PARLOUR_retail_shop_funeral_parlour_limestone-col"
    },
    {
      "mesh": 8,
      "name": "F01_OWN_SHOP_FUNERAL_PARLOUR_retail_shop_funeral_parlour_linen-col"
    },
    {
      "mesh": 9,
      "name": "F01_OWN_SHOP_FUNERAL_PARLOUR_retail_shop_funeral_parlour_metal-col"
    },
    {
      "mesh": 10,
      "name": "F01_OWN_SHOP_FUNERAL_PARLOUR_retail_shop_funeral_parlour_milk_glass-col"
    },
    {
      "mesh": 11,
      "name": "F01_OWN_SHOP_FUNERAL_PARLOUR_retail_shop_funeral_parlour_oak_quartered-col"
    },
    {
      "mesh": 12,
      "name": "F01_OWN_SHOP_FUNERAL_PARLOUR_retail_shop_funeral_parlour_paper-col"
    },
    {
      "mesh": 13,
      "name": "F01_OWN_SHOP_FUNERAL_PARLOUR_retail_shop_funeral_parlour_plant-col"
    },
    {
      "mesh": 14,
      "name": "F01_OWN_SHOP_FUNERAL_PARLOUR_retail_shop_funeral_parlour_plaster-col"
    },
    {
      "mesh": 15,
      "name": "F01_OWN_SHOP_FUNERAL_PARLOUR_retail_shop_funeral_parlour_plaster_stained-col"
    },
    {
      "mesh": 16,
      "name": "F01_OWN_SHOP_FUNERAL_PARLOUR_retail_shop_funeral_parlour_plywood-col"
    },
    {
      "mesh": 17,
      "name": "F01_OWN_SHOP_FUNERAL_PARLOUR_retail_shop_funeral_parlour_soot-col"
    },
    {
      "mesh": 18,
      "name": "F01_OWN_SHOP_FUNERAL_PARLOUR_retail_shop_funeral_parlour_tin_ceiling-col"
    },
    {
      "mesh": 19,
      "name": "F01_OWN_SHOP_FUNERAL_PARLOUR_retail_shop_funeral_parlour_trim-col"
    },
    {
      "mesh": 20,
      "name": "F01_OWN_SHOP_FUNERAL_PARLOUR_retail_shop_funeral_parlour_vinyl_oxblood-col"
    },
    {
      "mesh": 21,
      "name": "F01_OWN_SHOP_FUNERAL_PARLOUR_retail_shop_funeral_parlour_wainscot-col"
    },
    {
      "mesh": 22,
      "name": "F01_OWN_SHOP_FUNERAL_PARLOUR_retail_shop_funeral_parlour_wood_dark-col"
    },
    {
      "mesh": 23,
      "name": "F01_OWN_SHOP_FUNERAL_PARLOUR_wear_fx_scuff"
    }
  ],
  "samplers": [
    {
      "magFilter": 9729,
      "minFilter": 9987
    }
  ],
  "scene": 0,
  "scenes": [
    {
      "name": "Scene_shop_funeral_parlour",
      "nodes": [
        0,
        1,
        2,
        3,
        4,
        5,
        6,
        7,
        8,
        9,
        10,
        11,
        12,
        13,
        14,
        15,
        16,
        17,
        18,
        19,
        20,
        21,
        22,
        23
      ]
    }
  ],
  "textures": [
    {
      "sampler": 0,
      "source": 0
    },
    {
      "sampler": 0,
      "source": 1
    },
    {
      "sampler": 0,
      "source": 2
    },
    {
      "sampler": 0,
      "source": 3
    },
    {
      "sampler": 0,
      "source": 4
    },
    {
      "sampler": 0,
      "source": 5
    },
    {
      "sampler": 0,
      "source": 6
    },
    {
      "sampler": 0,
      "source": 7
    },
    {
      "sampler": 0,
      "source": 8
    },
    {
      "sampler": 0,
      "source": 9
    },
    {
      "sampler": 0,
      "source": 10
    },
    {
      "sampler": 0,
      "source": 11
    },
    {
      "sampler": 0,
      "source": 12
    },
    {
      "sampler": 0,
      "source": 13
    },
    {
      "sampler": 0,
      "source": 14
    },
    {
      "sampler": 0,
      "source": 15
    },
    {
      "sampler": 0,
      "source": 16
    },
    {
      "sampler": 0,
      "source": 17
    },
    {
      "sampler": 0,
      "source": 18
    },
    {
      "sampler": 0,
      "source": 19
    },
    {
      "sampler": 0,
      "source": 20
    },
    {
      "sampler": 0,
      "source": 21
    },
    {
      "sampler": 0,
      "source": 22
    },
    {
      "sampler": 0,
      "source": 23
    },
    {
      "sampler": 0,
      "source": 24
    },
    {
      "sampler": 0,
      "source": 25
    },
    {
      "sampler": 0,
      "source": 26
    },
    {
      "sampler": 0,
      "source": 27
    },
    {
      "sampler": 0,
      "source": 28
    },
    {
      "sampler": 0,
      "source": 29
    },
    {
      "sampler": 0,
      "source": 30
    },
    {
      "sampler": 0,
      "source": 31
    },
    {
      "sampler": 0,
      "source": 32
    },
    {
      "sampler": 0,
      "source": 33
    },
    {
      "sampler": 0,
      "source": 34
    },
    {
      "sampler": 0,
      "source": 35
    },
    {
      "sampler": 0,
      "source": 36
    },
    {
      "sampler": 0,
      "source": 37
    },
    {
      "sampler": 0,
      "source": 38
    },
    {
      "sampler": 0,
      "source": 39
    },
    {
      "sampler": 0,
      "source": 40
    },
    {
      "sampler": 0,
      "source": 41
    },
    {
      "sampler": 0,
      "source": 42
    },
    {
      "sampler": 0,
      "source": 43
    },
    {
      "sampler": 0,
      "source": 44
    },
    {
      "sampler": 0,
      "source": 45
    },
    {
      "sampler": 0,
      "source": 46
    },
    {
      "sampler": 0,
      "source": 47
    },
    {
      "sampler": 0,
      "source": 48
    },
    {
      "sampler": 0,
      "source": 49
    },
    {
      "sampler": 0,
      "source": 50
    },
    {
      "sampler": 0,
      "source": 51
    },
    {
      "sampler": 0,
      "source": 52
    },
    {
      "sampler": 0,
      "source": 53
    },
    {
      "sampler": 0,
      "source": 54
    },
    {
      "sampler": 0,
      "source": 55
    },
    {
      "sampler": 0,
      "source": 56
    },
    {
      "sampler": 0,
      "source": 57
    },
    {
      "sampler": 0,
      "source": 58
    },
    {
      "sampler": 0,
      "source": 59
    },
    {
      "sampler": 0,
      "source": 60
    },
    {
      "sampler": 0,
      "source": 61
    },
    {
      "sampler": 0,
      "source": 62
    },
    {
      "sampler": 0,
      "source": 63
    },
    {
      "sampler": 0,
      "source": 64
    },
    {
      "sampler": 0,
      "source": 65
    },
    {
      "sampler": 0,
      "source": 66
    },
    {
      "sampler": 0,
      "source": 67
    },
    {
      "sampler": 0,
      "source": 68
    },
    {
      "sampler": 0,
      "source": 69
    },
    {
      "sampler": 0,
      "source": 70
    }
  ]
}
