{
  "accessors": [
    {
      "bufferView": 0,
      "componentType": 5123,
      "count": 36,
      "type": "SCALAR"
    },
    {
      "bufferView": 1,
      "componentType": 5123,
      "count": 108,
      "type": "SCALAR"
    },
    {
      "bufferView": 2,
      "componentType": 5123,
      "count": 72,
      "type": "SCALAR"
    },
    {
      "bufferView": 3,
      "componentType": 5123,
      "count": 6,
      "type": "SCALAR"
    },
    {
      "bufferView": 4,
      "componentType": 5123,
      "count": 432,
      "type": "SCALAR"
    },
    {
      "bufferView": 5,
      "componentType": 5123,
      "count": 180,
      "type": "SCALAR"
    },
    {
      "bufferView": 6,
      "componentType": 5123,
      "count": 504,
      "type": "SCALAR"
    },
    {
      "bufferView": 7,
      "componentType": 5123,
      "count": 252,
      "type": "SCALAR"
    },
    {
      "bufferView": 8,
      "componentType": 5123,
      "count": 216,
      "type": "SCALAR"
    },
    {
      "bufferView": 9,
      "componentType": 5123,
      "count": 684,
      "type": "SCALAR"
    },
    {
      "bufferView": 10,
      "componentType": 5126,
      "count": 48,
      "max": [
        12.579999923706055,
        2.7100000381469727,
        44.63999938964844
      ],
      "min": [
        11.260000228881836,
        2.359999895095825,
        39.36000061035156
      ],
      "type": "VEC3"
    },
    {
      "bufferView": 11,
      "componentType": 5126,
      "count": 48,
      "type": "VEC3"
    },
    {
      "bufferView": 12,
      "componentType": 5126,
      "count": 48,
      "type": "VEC2"
    },
    {
      "bufferView": 13,
      "componentType": 5126,
      "count": 200,
      "max": [
        7.894999980926514,
        0.029999999329447746,
        44.57500076293945
      ],
      "min": [
        7.304999828338623,
        0,
        43.92499923706055
      ],
      "type": "VEC3"
    },
    {
      "bufferView": 14,
      "componentType": 5126,
      "count": 200,
      "type": "VEC3"
    },
    {
      "bufferView": 15,
      "componentType": 5126,
      "count": 200,
      "type": "VEC2"
    },
    {
      "bufferView": 16,
      "componentType": 5123,
      "count": 384,
      "type": "SCALAR"
    },
    {
      "bufferView": 17,
      "componentType": 5126,
      "count": 232,
      "max": [
        7.909999847412109,
        1.5199999809265137,
        44.4900016784668
      ],
      "min": [
        7.264999866485596,
        0.30000001192092896,
        43.7599983215332
      ],
      "type": "VEC3"
    },
    {
      "bufferView": 18,
      "componentType": 5126,
      "count": 232,
      "type": "VEC3"
    },
    {
      "bufferView": 19,
      "componentType": 5126,
      "count": 232,
      "type": "VEC2"
    },
    {
      "bufferView": 20,
      "componentType": 5123,
      "count": 384,
      "type": "SCALAR"
    },
    {
      "bufferView": 21,
      "componentType": 5126,
      "count": 24,
      "max": [
        11.260000228881836,
        3.009999990463257,
        44.58000183105469
      ],
      "min": [
        11.199999809265137,
        2.549999952316284,
        39.41999816894531
      ],
      "type": "VEC3"
    },
    {
      "bufferView": 22,
      "componentType": 5126,
      "count": 24,
      "type": "VEC3"
    },
    {
      "bufferView": 23,
      "componentType": 5126,
      "count": 24,
      "type": "VEC2"
    },
    {
      "bufferView": 24,
      "componentType": 5126,
      "count": 24,
      "max": [
        7.690000057220459,
        0.550000011920929,
        43.88999938964844
      ],
      "min": [
        7.510000228881836,
        0.3799999952316284,
        43.87799835205078
      ],
      "type": "VEC3"
    },
    {
      "bufferView": 25,
      "componentType": 5126,
      "count": 24,
      "type": "VEC3"
    },
    {
      "bufferView": 26,
      "componentType": 5126,
      "count": 24,
      "type": "VEC2"
    },
    {
      "bufferView": 27,
      "componentType": 5126,
      "count": 24,
      "max": [
        11.04800033569336,
        1.5800000429153442,
        43.189998626708984
      ],
      "min": [
        11.020000457763672,
        1.3200000524520874,
        43.0099983215332
      ],
      "type": "VEC3"
    },
    {
      "bufferView": 28,
      "componentType": 5126,
      "count": 24,
      "type": "VEC3"
    },
    {
      "bufferView": 29,
      "componentType": 5126,
      "count": 24,
      "type": "VEC2"
    },
    {
      "bufferView": 30,
      "componentType": 5126,
      "count": 24,
      "max": [
        4.940000057220459,
        1.0299999713897705,
        44.6349983215332
      ],
      "min": [
        4.880000114440918,
        0.9599999785423279,
        44.595001220703125
      ],
      "type": "VEC3"
    },
    {
      "bufferView": 31,
      "componentType": 5126,
      "count": 24,
      "type": "VEC3"
    },
    {
      "bufferView": 32,
      "componentType": 5126,
      "count": 24,
      "type": "VEC2"
    },
    {
      "bufferView": 33,
      "componentType": 5126,
      "count": 144,
      "max": [
        7.460000038146973,
        1.0399999618530273,
        42.43000030517578
      ],
      "min": [
        4.78000020980835,
        0.009999999776482582,
        40.15999984741211
      ],
      "type": "VEC3"
    },
    {
      "bufferView": 34,
      "componentType": 5126,
      "count": 144,
      "type": "VEC3"
    },
    {
      "bufferView": 35,
      "componentType": 5126,
      "count": 144,
      "type": "VEC2"
    },
    {
      "bufferView": 36,
      "componentType": 5126,
      "count": 24,
      "max": [
        8.359999656677246,
        2.0899999141693115,
        44.29999923706055
      ],
      "min": [
        8.300000190734863,
        2.049999952316284,
        39.70000076293945
      ],
      "type": "VEC3"
    },
    {
      "bufferView": 37,
      "componentType": 5126,
      "count": 24,
      "type": "VEC3"
    },
    {
      "bufferView": 38,
      "componentType": 5126,
      "count": 24,
      "type": "VEC2"
    },
    {
      "bufferView": 39,
      "componentType": 5126,
      "count": 24,
      "max": [
        3.7799999713897705,
        0.009999999776482582,
        44.70000076293945
      ],
      "min": [
        1.1799999475479126,
        -0.05000000074505806,
        39.29999923706055
      ],
      "type": "VEC3"
    },
    {
      "bufferView": 40,
      "componentType": 5126,
      "count": 24,
      "type": "VEC3"
    },
    {
      "bufferView": 41,
      "componentType": 5126,
      "count": 24,
      "type": "VEC2"
    },
    {
      "bufferView": 42,
      "componentType": 5126,
      "count": 24,
      "max": [
        10.359999656677246,
        1.0499999523162842,
        43.13999938964844
      ],
      "min": [
        9.65999984741211,
        1,
        39.31999969482422
      ],
      "type": "VEC3"
    },
    {
      "bufferView": 43,
      "componentType": 5126,
      "count": 24,
      "type": "VEC3"
    },
    {
      "bufferView": 44,
      "componentType": 5126,
      "count": 24,
      "type": "VEC2"
    },
    {
      "bufferView": 45,
      "componentType": 5126,
      "count": 100,
      "max": [
        7.665999889373779,
        1.034999966621399,
        43.840999603271484
      ],
      "min": [
        7.513999938964844,
        1.0199999809265137,
        43.808998107910156
      ],
      "type": "VEC3"
    },
    {
      "bufferView": 46,
      "componentType": 5126,
      "count": 100,
      "type": "VEC3"
    },
    {
      "bufferView": 47,
      "componentType": 5126,
      "count": 100,
      "type": "VEC2"
    },
    {
      "bufferView": 48,
      "componentType": 5123,
      "count": 192,
      "type": "SCALAR"
    },
    {
      "bufferView": 49,
      "componentType": 5126,
      "count": 4,
      "max": [
        8.092399597167969,
        0.004000000189989805,
        44.71879959106445
      ],
      "min": [
        7.107600212097168,
        0.004000000189989805,
        43.64120101928711
      ],
      "type": "VEC3"
    },
    {
      "bufferView": 50,
      "componentType": 5126,
      "count": 4,
      "type": "VEC3"
    },
    {
      "bufferView": 51,
      "componentType": 5126,
      "count": 4,
      "type": "VEC2"
    },
    {
      "bufferView": 52,
      "componentType": 5126,
      "count": 72,
      "max": [
        11.140000343322754,
        3.049999952316284,
        44.65999984741211
      ],
      "min": [
        4.014999866485596,
        0.550000011920929,
        39.34000015258789
      ],
      "type": "VEC3"
    },
    {
      "bufferView": 53,
      "componentType": 5126,
      "count": 72,
      "type": "VEC3"
    },
    {
      "bufferView": 54,
      "componentType": 5126,
      "count": 72,
      "type": "VEC2"
    },
    {
      "bufferView": 55,
      "componentType": 5126,
      "count": 24,
      "max": [
        7.989999771118164,
        1.8300000429153442,
        44.61000061035156
      ],
      "min": [
        7.210000038146973,
        0,
        43.75
      ],
      "type": "VEC3"
    },
    {
      "bufferView": 56,
      "componentType": 5126,
      "count": 24,
      "type": "VEC3"
    },
    {
      "bufferView": 57,
      "componentType": 5126,
      "count": 24,
      "type": "VEC2"
    },
    {
      "bufferView": 58,
      "componentType": 5126,
      "count": 576,
      "max": [
        8.59000015258789,
        2.609999895095825,
        44.619998931884766
      ],
      "min": [
        4.179999828338623,
        0.36000001430511475,
        39.599998474121094
      ],
      "type": "VEC3"
    },
    {
      "bufferView": 59,
      "componentType": 5126,
      "count": 576,
      "type": "VEC3"
    },
    {
      "bufferView": 60,
      "componentType": 5126,
      "count": 576,
      "type": "VEC2"
    },
    {
      "bufferView": 61,
      "componentType": 5123,
      "count": 864,
      "type": "SCALAR"
    },
    {
      "bufferView": 62,
      "componentType": 5126,
      "count": 24,
      "max": [
        7.929999828338623,
        1.8300000429153442,
        44.61000061035156
      ],
      "min": [
        7.269999980926514,
        0.019999999552965164,
        43.88999938964844
      ],
      "type": "VEC3"
    },
    {
      "bufferView": 63,
      "componentType": 5126,
      "count": 24,
      "type": "VEC3"
    },
    {
      "bufferView": 64,
      "componentType": 5126,
      "count": 24,
      "type": "VEC2"
    },
    {
      "bufferView": 65,
      "componentType": 5126,
      "count": 144,
      "max": [
        12.600000381469727,
        2.630000114440918,
        44.59000015258789
      ],
      "min": [
        4.480000019073486,
        0.006000000052154064,
        39.36000061035156
      ],
      "type": "VEC3"
    },
    {
      "bufferView": 66,
      "componentType": 5126,
      "count": 144,
      "type": "VEC3"
    },
    {
      "bufferView": 67,
      "componentType": 5126,
      "count": 144,
      "type": "VEC2"
    },
    {
      "bufferView": 68,
      "componentType": 5126,
      "count": 24,
      "max": [
        7.909999847412109,
        1.809999942779541,
        43.939998626708984
      ],
      "min": [
        7.289999961853027,
        1.6699999570846558,
        43.86000061035156
      ],
      "type": "VEC3"
    },
    {
      "bufferView": 69,
      "componentType": 5126,
      "count": 24,
      "type": "VEC3"
    },
    {
      "bufferView": 70,
      "componentType": 5126,
      "count": 24,
      "type": "VEC2"
    },
    {
      "bufferView": 71,
      "componentType": 5126,
      "count": 1056,
      "max": [
        10.140000343322754,
        2.609999895095825,
        44.3849983215332
      ],
      "min": [
        1.2599999904632568,
        0.36000001430511475,
        39.599998474121094
      ],
      "type": "VEC3"
    },
    {
      "bufferView": 72,
      "componentType": 5126,
      "count": 1056,
      "type": "VEC3"
    },
    {
      "bufferView": 73,
      "componentType": 5126,
      "count": 1056,
      "type": "VEC2"
    },
    {
      "bufferView": 74,
      "componentType": 5123,
      "count": 1584,
      "type": "SCALAR"
    },
    {
      "bufferView": 75,
      "componentType": 5126,
      "count": 168,
      "max": [
        11,
        3.549999952316284,
        44.70000076293945
      ],
      "min": [
        1.1799999475479126,
        0.009999999776482582,
        39.29999923706055
      ],
      "type": "VEC3"
    },
    {
      "bufferView": 76,
      "componentType": 5126,
      "count": 168,
      "type": "VEC3"
    },
    {
      "bufferView": 77,
      "componentType": 5126,
      "count": 168,
      "type": "VEC2"
    },
    {
      "bufferView": 78,
      "componentType": 5126,
      "count": 336,
      "max": [
        11.420000076293945,
        4.199999809265137,
        44.86000061035156
      ],
      "min": [
        4,
        0,
        39.13999938964844
      ],
      "type": "VEC3"
    },
    {
      "bufferView": 79,
      "componentType": 5126,
      "count": 336,
      "type": "VEC3"
    },
    {
      "bufferView": 80,
      "componentType": 5126,
      "count": 336,
      "type": "VEC2"
    },
    {
      "bufferView": 81,
      "componentType": 5126,
      "count": 24,
      "max": [
        10.460000038146973,
        1.5700000524520874,
        43.08000183105469
      ],
      "min": [
        10.420000076293945,
        0.41999998688697815,
        39.47999954223633
      ],
      "type": "VEC3"
    },
    {
      "bufferView": 82,
      "componentType": 5126,
      "count": 24,
      "type": "VEC3"
    },
    {
      "bufferView": 83,
      "componentType": 5126,
      "count": 24,
      "type": "VEC2"
    },
    {
      "bufferView": 84,
      "componentType": 5126,
      "count": 24,
      "max": [
        11,
        0.009999999776482582,
        44.70000076293945
      ],
      "min": [
        4,
        -0.05000000074505806,
        39.29999923706055
      ],
      "type": "VEC3"
    },
    {
      "bufferView": 85,
      "componentType": 5126,
      "count": 24,
      "type": "VEC3"
    },
    {
      "bufferView": 86,
      "componentType": 5126,
      "count": 24,
      "type": "VEC2"
    },
    {
      "bufferView": 87,
      "componentType": 5126,
      "count": 48,
      "max": [
        7.400000095367432,
        1.0499999523162842,
        40.220001220703125
      ],
      "min": [
        7.039999961853027,
        0.8999999761581421,
        39.34000015258789
      ],
      "type": "VEC3"
    },
    {
      "bufferView": 88,
      "componentType": 5126,
      "count": 48,
      "type": "VEC3"
    },
    {
      "bufferView": 89,
      "componentType": 5126,
      "count": 48,
      "type": "VEC2"
    },
    {
      "bufferView": 90,
      "componentType": 5126,
      "count": 24,
      "max": [
        7.869999885559082,
        1.4800000190734863,
        43.89500045776367
      ],
      "min": [
        7.329999923706055,
        1.100000023841858,
        43.8849983215332
      ],
      "type": "VEC3"
    },
    {
      "bufferView": 91,
      "componentType": 5126,
      "count": 24,
      "type": "VEC3"
    },
    {
      "bufferView": 92,
      "componentType": 5126,
      "count": 24,
      "type": "VEC2"
    },
    {
      "bufferView": 93,
      "componentType": 5126,
      "count": 50,
      "max": [
        7.785999774932861,
        1.034999966621399,
        43.840999603271484
      ],
      "min": [
        7.754000186920166,
        1.0199999809265137,
        43.808998107910156
      ],
      "type": "VEC3"
    },
    {
      "bufferView": 94,
      "componentType": 5126,
      "count": 50,
      "type": "VEC3"
    },
    {
      "bufferView": 95,
      "componentType": 5126,
      "count": 50,
      "type": "VEC2"
    },
    {
      "bufferView": 96,
      "componentType": 5123,
      "count": 96,
      "type": "SCALAR"
    },
    {
      "bufferView": 97,
      "componentType": 5126,
      "count": 456,
      "max": [
        10.119999885559082,
        2.625,
        44.599998474121094
      ],
      "min": [
        4.119999885559082,
        0.009999999776482582,
        39.400001525878906
      ],
      "type": "VEC3"
    },
    {
      "bufferView": 98,
      "componentType": 5126,
      "count": 456,
      "type": "VEC3"
    },
    {
      "bufferView": 99,
      "componentType": 5126,
      "count": 456,
      "type": "VEC2"
    },
    {
      "bufferView": 100,
      "componentType": 5126,
      "count": 120,
      "max": [
        4.070000171661377,
        3.0999999046325684,
        44.189998626708984
      ],
      "min": [
        4,
        2.299999952316284,
        39.810001373291016
      ],
      "type": "VEC3"
    },
    {
      "bufferView": 101,
      "componentType": 5126,
      "count": 120,
      "type": "VEC3"
    },
    {
      "bufferView": 102,
      "componentType": 5126,
      "count": 120,
      "type": "VEC2"
    },
    {
      "bufferView": 103,
      "componentType": 5126,
      "count": 72,
      "max": [
        11,
        1.100000023841858,
        44.70000076293945
      ],
      "min": [
        4,
        0.05000000074505806,
        39.29999923706055
      ],
      "type": "VEC3"
    },
    {
      "bufferView": 104,
      "componentType": 5126,
      "count": 72,
      "type": "VEC3"
    },
    {
      "bufferView": 105,
      "componentType": 5126,
      "count": 72,
      "type": "VEC2"
    },
    {
      "bufferView": 106,
      "componentType": 5126,
      "count": 288,
      "max": [
        10.819999694824219,
        2.4100000858306885,
        44.685001373291016
      ],
      "min": [
        1.2400000095367432,
        0.009999999776482582,
        39.349998474121094
      ],
      "type": "VEC3"
    },
    {
      "bufferView": 107,
      "componentType": 5126,
      "count": 288,
      "type": "VEC3"
    },
    {
      "bufferView": 108,
      "componentType": 5126,
      "count": 288,
      "type": "VEC2"
    },
    {
      "bufferView": 109,
      "componentType": 5126,
      "count": 48,
      "max": [
        6.519999980926514,
        0.7900000214576721,
        40.119998931884766
      ],
      "min": [
        4.920000076293945,
        0.009999999776482582,
        39.400001525878906
      ],
      "type": "VEC3"
    },
    {
      "bufferView": 110,
      "componentType": 5126,
      "count": 48,
      "type": "VEC3"
    },
    {
      "bufferView": 111,
      "componentType": 5126,
      "count": 48,
      "type": "VEC2"
    },
    {
      "bufferView": 112,
      "componentType": 5126,
      "count": 4,
      "max": [
        11.789999961853027,
        0.006000000052154064,
        44.400001525878906
      ],
      "min": [
        10.890000343322754,
        0.006000000052154064,
        43.25
      ],
      "type": "VEC3"
    },
    {
      "bufferView": 113,
      "componentType": 5126,
      "count": 4,
      "type": "VEC3"
    },
    {
      "bufferView": 114,
      "componentType": 5126,
      "count": 4,
      "type": "VEC2"
    }
  ],
  "asset": {
    "extras": {
      "orison_bin_sha256": "3147958516513b9d8ac0bed0150eff8037b0e6e0371a1c737ab61175bfc960f4",
      "orison_floor01_owner_first": {
        "cell_id": "CELL_SHOP_MODEL_LAUNDRY",
        "collision_name_contract": [
          "-col",
          "-colonly"
        ],
        "owner_before_material": true,
        "production_asset": true,
        "rollback_monolith_loaded_simultaneously": false,
        "schema": "orison.floor01.production-cell.v1",
        "spatial_inference_used": false
      }
    },
    "generator": "Khronos glTF Blender I/O v5.2.39",
    "version": "2.0"
  },
  "bufferViews": [
    {
      "buffer": 0,
      "byteLength": 72,
      "byteOffset": 0,
      "target": 34963
    },
    {
      "buffer": 0,
      "byteLength": 216,
      "byteOffset": 72,
      "target": 34963
    },
    {
      "buffer": 0,
      "byteLength": 144,
      "byteOffset": 288,
      "target": 34963
    },
    {
      "buffer": 0,
      "byteLength": 12,
      "byteOffset": 432,
      "target": 34963
    },
    {
      "buffer": 0,
      "byteLength": 864,
      "byteOffset": 444,
      "target": 34963
    },
    {
      "buffer": 0,
      "byteLength": 360,
      "byteOffset": 1308,
      "target": 34963
    },
    {
      "buffer": 0,
      "byteLength": 1008,
      "byteOffset": 1668,
      "target": 34963
    },
    {
      "buffer": 0,
      "byteLength": 504,
      "byteOffset": 2676,
      "target": 34963
    },
    {
      "buffer": 0,
      "byteLength": 432,
      "byteOffset": 3180,
      "target": 34963
    },
    {
      "buffer": 0,
      "byteLength": 1368,
      "byteOffset": 3612,
      "target": 34963
    },
    {
      "buffer": 0,
      "byteLength": 576,
      "byteOffset": 4980,
      "target": 34962
    },
    {
      "buffer": 0,
      "byteLength": 576,
      "byteOffset": 5556,
      "target": 34962
    },
    {
      "buffer": 0,
      "byteLength": 384,
      "byteOffset": 6132,
      "target": 34962
    },
    {
      "buffer": 0,
      "byteLength": 2400,
      "byteOffset": 6516,
      "target": 34962
    },
    {
      "buffer": 0,
      "byteLength": 2400,
      "byteOffset": 8916,
      "target": 34962
    },
    {
      "buffer": 0,
      "byteLength": 1600,
      "byteOffset": 11316,
      "target": 34962
    },
    {
      "buffer": 0,
      "byteLength": 768,
      "byteOffset": 12916,
      "target": 34963
    },
    {
      "buffer": 0,
      "byteLength": 2784,
      "byteOffset": 13684,
      "target": 34962
    },
    {
      "buffer": 0,
      "byteLength": 2784,
      "byteOffset": 16468,
      "target": 34962
    },
    {
      "buffer": 0,
      "byteLength": 1856,
      "byteOffset": 19252,
      "target": 34962
    },
    {
      "buffer": 0,
      "byteLength": 768,
      "byteOffset": 21108,
      "target": 34963
    },
    {
      "buffer": 0,
      "byteLength": 288,
      "byteOffset": 21876,
      "target": 34962
    },
    {
      "buffer": 0,
      "byteLength": 288,
      "byteOffset": 22164,
      "target": 34962
    },
    {
      "buffer": 0,
      "byteLength": 192,
      "byteOffset": 22452,
      "target": 34962
    },
    {
      "buffer": 0,
      "byteLength": 288,
      "byteOffset": 22644,
      "target": 34962
    },
    {
      "buffer": 0,
      "byteLength": 288,
      "byteOffset": 22932,
      "target": 34962
    },
    {
      "buffer": 0,
      "byteLength": 192,
      "byteOffset": 23220,
      "target": 34962
    },
    {
      "buffer": 0,
      "byteLength": 288,
      "byteOffset": 23412,
      "target": 34962
    },
    {
      "buffer": 0,
      "byteLength": 288,
      "byteOffset": 23700,
      "target": 34962
    },
    {
      "buffer": 0,
      "byteLength": 192,
      "byteOffset": 23988,
      "target": 34962
    },
    {
      "buffer": 0,
      "byteLength": 288,
      "byteOffset": 24180,
      "target": 34962
    },
    {
      "buffer": 0,
      "byteLength": 288,
      "byteOffset": 24468,
      "target": 34962
    },
    {
      "buffer": 0,
      "byteLength": 192,
      "byteOffset": 24756,
      "target": 34962
    },
    {
      "buffer": 0,
      "byteLength": 1728,
      "byteOffset": 24948,
      "target": 34962
    },
    {
      "buffer": 0,
      "byteLength": 1728,
      "byteOffset": 26676,
      "target": 34962
    },
    {
      "buffer": 0,
      "byteLength": 1152,
      "byteOffset": 28404,
      "target": 34962
    },
    {
      "buffer": 0,
      "byteLength": 288,
      "byteOffset": 29556,
      "target": 34962
    },
    {
      "buffer": 0,
      "byteLength": 288,
      "byteOffset": 29844,
      "target": 34962
    },
    {
      "buffer": 0,
      "byteLength": 192,
      "byteOffset": 30132,
      "target": 34962
    },
    {
      "buffer": 0,
      "byteLength": 288,
      "byteOffset": 30324,
      "target": 34962
    },
    {
      "buffer": 0,
      "byteLength": 288,
      "byteOffset": 30612,
      "target": 34962
    },
    {
      "buffer": 0,
      "byteLength": 192,
      "byteOffset": 30900,
      "target": 34962
    },
    {
      "buffer": 0,
      "byteLength": 288,
      "byteOffset": 31092,
      "target": 34962
    },
    {
      "buffer": 0,
      "byteLength": 288,
      "byteOffset": 31380,
      "target": 34962
    },
    {
      "buffer": 0,
      "byteLength": 192,
      "byteOffset": 31668,
      "target": 34962
    },
    {
      "buffer": 0,
      "byteLength": 1200,
      "byteOffset": 31860,
      "target": 34962
    },
    {
      "buffer": 0,
      "byteLength": 1200,
      "byteOffset": 33060,
      "target": 34962
    },
    {
      "buffer": 0,
      "byteLength": 800,
      "byteOffset": 34260,
      "target": 34962
    },
    {
      "buffer": 0,
      "byteLength": 384,
      "byteOffset": 35060,
      "target": 34963
    },
    {
      "buffer": 0,
      "byteLength": 48,
      "byteOffset": 35444,
      "target": 34962
    },
    {
      "buffer": 0,
      "byteLength": 48,
      "byteOffset": 35492,
      "target": 34962
    },
    {
      "buffer": 0,
      "byteLength": 32,
      "byteOffset": 35540,
      "target": 34962
    },
    {
      "buffer": 0,
      "byteLength": 864,
      "byteOffset": 35572,
      "target": 34962
    },
    {
      "buffer": 0,
      "byteLength": 864,
      "byteOffset": 36436,
      "target": 34962
    },
    {
      "buffer": 0,
      "byteLength": 576,
      "byteOffset": 37300,
      "target": 34962
    },
    {
      "buffer": 0,
      "byteLength": 288,
      "byteOffset": 37876,
      "target": 34962
    },
    {
      "buffer": 0,
      "byteLength": 288,
      "byteOffset": 38164,
      "target": 34962
    },
    {
      "buffer": 0,
      "byteLength": 192,
      "byteOffset": 38452,
      "target": 34962
    },
    {
      "buffer": 0,
      "byteLength": 6912,
      "byteOffset": 38644,
      "target": 34962
    },
    {
      "buffer": 0,
      "byteLength": 6912,
      "byteOffset": 45556,
      "target": 34962
    },
    {
      "buffer": 0,
      "byteLength": 4608,
      "byteOffset": 52468,
      "target": 34962
    },
    {
      "buffer": 0,
      "byteLength": 1728,
      "byteOffset": 57076,
      "target": 34963
    },
    {
      "buffer": 0,
      "byteLength": 288,
      "byteOffset": 58804,
      "target": 34962
    },
    {
      "buffer": 0,
      "byteLength": 288,
      "byteOffset": 59092,
      "target": 34962
    },
    {
      "buffer": 0,
      "byteLength": 192,
      "byteOffset": 59380,
      "target": 34962
    },
    {
      "buffer": 0,
      "byteLength": 1728,
      "byteOffset": 59572,
      "target": 34962
    },
    {
      "buffer": 0,
      "byteLength": 1728,
      "byteOffset": 61300,
      "target": 34962
    },
    {
      "buffer": 0,
      "byteLength": 1152,
      "byteOffset": 63028,
      "target": 34962
    },
    {
      "buffer": 0,
      "byteLength": 288,
      "byteOffset": 64180,
      "target": 34962
    },
    {
      "buffer": 0,
      "byteLength": 288,
      "byteOffset": 64468,
      "target": 34962
    },
    {
      "buffer": 0,
      "byteLength": 192,
      "byteOffset": 64756,
      "target": 34962
    },
    {
      "buffer": 0,
      "byteLength": 12672,
      "byteOffset": 64948,
      "target": 34962
    },
    {
      "buffer": 0,
      "byteLength": 12672,
      "byteOffset": 77620,
      "target": 34962
    },
    {
      "buffer": 0,
      "byteLength": 8448,
      "byteOffset": 90292,
      "target": 34962
    },
    {
      "buffer": 0,
      "byteLength": 3168,
      "byteOffset": 98740,
      "target": 34963
    },
    {
      "buffer": 0,
      "byteLength": 2016,
      "byteOffset": 101908,
      "target": 34962
    },
    {
      "buffer": 0,
      "byteLength": 2016,
      "byteOffset": 103924,
      "target": 34962
    },
    {
      "buffer": 0,
      "byteLength": 1344,
      "byteOffset": 105940,
      "target": 34962
    },
    {
      "buffer": 0,
      "byteLength": 4032,
      "byteOffset": 107284,
      "target": 34962
    },
    {
      "buffer": 0,
      "byteLength": 4032,
      "byteOffset": 111316,
      "target": 34962
    },
    {
      "buffer": 0,
      "byteLength": 2688,
      "byteOffset": 115348,
      "target": 34962
    },
    {
      "buffer": 0,
      "byteLength": 288,
      "byteOffset": 118036,
      "target": 34962
    },
    {
      "buffer": 0,
      "byteLength": 288,
      "byteOffset": 118324,
      "target": 34962
    },
    {
      "buffer": 0,
      "byteLength": 192,
      "byteOffset": 118612,
      "target": 34962
    },
    {
      "buffer": 0,
      "byteLength": 288,
      "byteOffset": 118804,
      "target": 34962
    },
    {
      "buffer": 0,
      "byteLength": 288,
      "byteOffset": 119092,
      "target": 34962
    },
    {
      "buffer": 0,
      "byteLength": 192,
      "byteOffset": 119380,
      "target": 34962
    },
    {
      "buffer": 0,
      "byteLength": 576,
      "byteOffset": 119572,
      "target": 34962
    },
    {
      "buffer": 0,
      "byteLength": 576,
      "byteOffset": 120148,
      "target": 34962
    },
    {
      "buffer": 0,
      "byteLength": 384,
      "byteOffset": 120724,
      "target": 34962
    },
    {
      "buffer": 0,
      "byteLength": 288,
      "byteOffset": 121108,
      "target": 34962
    },
    {
      "buffer": 0,
      "byteLength": 288,
      "byteOffset": 121396,
      "target": 34962
    },
    {
      "buffer": 0,
      "byteLength": 192,
      "byteOffset": 121684,
      "target": 34962
    },
    {
      "buffer": 0,
      "byteLength": 600,
      "byteOffset": 121876,
      "target": 34962
    },
    {
      "buffer": 0,
      "byteLength": 600,
      "byteOffset": 122476,
      "target": 34962
    },
    {
      "buffer": 0,
      "byteLength": 400,
      "byteOffset": 123076,
      "target": 34962
    },
    {
      "buffer": 0,
      "byteLength": 192,
      "byteOffset": 123476,
      "target": 34963
    },
    {
      "buffer": 0,
      "byteLength": 5472,
      "byteOffset": 123668,
      "target": 34962
    },
    {
      "buffer": 0,
      "byteLength": 5472,
      "byteOffset": 129140,
      "target": 34962
    },
    {
      "buffer": 0,
      "byteLength": 3648,
      "byteOffset": 134612,
      "target": 34962
    },
    {
      "buffer": 0,
      "byteLength": 1440,
      "byteOffset": 138260,
      "target": 34962
    },
    {
      "buffer": 0,
      "byteLength": 1440,
      "byteOffset": 139700,
      "target": 34962
    },
    {
      "buffer": 0,
      "byteLength": 960,
      "byteOffset": 141140,
      "target": 34962
    },
    {
      "buffer": 0,
      "byteLength": 864,
      "byteOffset": 142100,
      "target": 34962
    },
    {
      "buffer": 0,
      "byteLength": 864,
      "byteOffset": 142964,
      "target": 34962
    },
    {
      "buffer": 0,
      "byteLength": 576,
      "byteOffset": 143828,
      "target": 34962
    },
    {
      "buffer": 0,
      "byteLength": 3456,
      "byteOffset": 144404,
      "target": 34962
    },
    {
      "buffer": 0,
      "byteLength": 3456,
      "byteOffset": 147860,
      "target": 34962
    },
    {
      "buffer": 0,
      "byteLength": 2304,
      "byteOffset": 151316,
      "target": 34962
    },
    {
      "buffer": 0,
      "byteLength": 576,
      "byteOffset": 153620,
      "target": 34962
    },
    {
      "buffer": 0,
      "byteLength": 576,
      "byteOffset": 154196,
      "target": 34962
    },
    {
      "buffer": 0,
      "byteLength": 384,
      "byteOffset": 154772,
      "target": 34962
    },
    {
      "buffer": 0,
      "byteLength": 48,
      "byteOffset": 155156,
      "target": 34962
    },
    {
      "buffer": 0,
      "byteLength": 48,
      "byteOffset": 155204,
      "target": 34962
    },
    {
      "buffer": 0,
      "byteLength": 32,
      "byteOffset": 155252,
      "target": 34962
    }
  ],
  "buffers": [
    {
      "byteLength": 155284,
      "uri": "shop_model_laundry.bin"
    }
  ],
  "extensionsUsed": [
    "KHR_materials_specular"
  ],
  "images": [
    {
      "mimeType": "image/png",
      "name": "T_ai_materials_metal_b_normal",
      "uri": "../textures/T_ai_materials_metal_b_normal.png"
    },
    {
      "mimeType": "image/png",
      "name": "T_ai_materials_metal_b_albedo",
      "uri": "../textures/T_ai_materials_metal_b_albedo.png"
    },
    {
      "mimeType": "image/png",
      "name": "T_ai_materials_metal_b_rough",
      "uri": "../textures/T_ai_materials_metal_b_rough.png"
    },
    {
      "mimeType": "image/png",
      "name": "T_ai_materials_brass_b_normal",
      "uri": "../textures/T_ai_materials_brass_b_normal.png"
    },
    {
      "mimeType": "image/png",
      "name": "T_ai_materials_brass_b_albedo",
      "uri": "../textures/T_ai_materials_brass_b_albedo.png"
    },
    {
      "mimeType": "image/png",
      "name": "T_ai_materials_brass_b_rough",
      "uri": "../textures/T_ai_materials_brass_b_rough.png"
    },
    {
      "mimeType": "image/png",
      "name": "T_ai_materials_cast_iron_b_normal",
      "uri": "../textures/T_ai_materials_cast_iron_b_normal.png"
    },
    {
      "mimeType": "image/png",
      "name": "T_ai_materials_cast_iron_b_albedo",
      "uri": "../textures/T_ai_materials_cast_iron_b_albedo.png"
    },
    {
      "mimeType": "image/png",
      "name": "T_ai_materials_cast_iron_b_rough",
      "uri": "../textures/T_ai_materials_cast_iron_b_rough.png"
    },
    {
      "mimeType": "image/png",
      "name": "T_glass_normal",
      "uri": "../textures/T_glass_normal.png"
    },
    {
      "mimeType": "image/png",
      "name": "T_glass_rough",
      "uri": "../textures/T_glass_rough.png"
    },
    {
      "mimeType": "image/png",
      "name": "T_ai_materials_plywood_b_normal",
      "uri": "../textures/T_ai_materials_plywood_b_normal.png"
    },
    {
      "mimeType": "image/png",
      "name": "T_ai_materials_plywood_b_albedo",
      "uri": "../textures/T_ai_materials_plywood_b_albedo.png"
    },
    {
      "mimeType": "image/png",
      "name": "T_ai_materials_plywood_b_rough",
      "uri": "../textures/T_ai_materials_plywood_b_rough.png"
    },
    {
      "mimeType": "image/png",
      "name": "T_ai_materials_trim_b_normal",
      "uri": "../textures/T_ai_materials_trim_b_normal.png"
    },
    {
      "mimeType": "image/png",
      "name": "T_ai_materials_trim_b_albedo",
      "uri": "../textures/T_ai_materials_trim_b_albedo.png"
    },
    {
      "mimeType": "image/png",
      "name": "T_ai_materials_trim_b_rough",
      "uri": "../textures/T_ai_materials_trim_b_rough.png"
    },
    {
      "mimeType": "image/png",
      "name": "T_fx_fx_scuff_normal",
      "uri": "../textures/T_fx_fx_scuff_normal.png"
    },
    {
      "mimeType": "image/png",
      "name": "T_fx_fx_scuff",
      "uri": "../textures/T_fx_fx_scuff.png"
    },
    {
      "mimeType": "image/png",
      "name": "T_fx_fx_scuff_rough",
      "uri": "../textures/T_fx_fx_scuff_rough.png"
    },
    {
      "mimeType": "image/png",
      "name": "T_ai_materials_plaster_b_normal",
      "uri": "../textures/T_ai_materials_plaster_b_normal.png"
    },
    {
      "mimeType": "image/png",
      "name": "T_ai_materials_plaster_b_albedo",
      "uri": "../textures/T_ai_materials_plaster_b_albedo.png"
    },
    {
      "mimeType": "image/png",
      "name": "T_ai_materials_plaster_b_rough",
      "uri": "../textures/T_ai_materials_plaster_b_rough.png"
    },
    {
      "mimeType": "image/png",
      "name": "T_ai_materials_plaster_stained_b_normal",
      "uri": "../textures/T_ai_materials_plaster_stained_b_normal.png"
    },
    {
      "mimeType": "image/png",
      "name": "T_ai_materials_plaster_stained_b_albedo",
      "uri": "../textures/T_ai_materials_plaster_stained_b_albedo.png"
    },
    {
      "mimeType": "image/png",
      "name": "T_ai_materials_plaster_stained_b_rough",
      "uri": "../textures/T_ai_materials_plaster_stained_b_rough.png"
    },
    {
      "mimeType": "image/png",
      "name": "T_ai_materials_concrete_b_normal",
      "uri": "../textures/T_ai_materials_concrete_b_normal.png"
    },
    {
      "mimeType": "image/png",
      "name": "T_ai_materials_concrete_b_albedo",
      "uri": "../textures/T_ai_materials_concrete_b_albedo.png"
    },
    {
      "mimeType": "image/png",
      "name": "T_ai_materials_concrete_b_rough",
      "uri": "../textures/T_ai_materials_concrete_b_rough.png"
    },
    {
      "mimeType": "image/png",
      "name": "T_ai_materials_bakelite_black_normal",
      "uri": "../textures/T_ai_materials_bakelite_black_normal.png"
    },
    {
      "mimeType": "image/png",
      "name": "T_ai_materials_bakelite_black_albedo",
      "uri": "../textures/T_ai_materials_bakelite_black_albedo.png"
    },
    {
      "mimeType": "image/png",
      "name": "T_ai_materials_bakelite_black_rough",
      "uri": "../textures/T_ai_materials_bakelite_black_rough.png"
    },
    {
      "mimeType": "image/png",
      "name": "T_library_furniture_book_teal_normal",
      "uri": "../textures/T_library_furniture_book_teal_normal.png"
    },
    {
      "mimeType": "image/png",
      "name": "T_library_furniture_book_teal_albedo",
      "uri": "../textures/T_library_furniture_book_teal_albedo.png"
    },
    {
      "mimeType": "image/png",
      "name": "T_library_furniture_book_teal_rough",
      "uri": "../textures/T_library_furniture_book_teal_rough.png"
    },
    {
      "mimeType": "image/png",
      "name": "T_ai_materials_brass_bright_normal",
      "uri": "../textures/T_ai_materials_brass_bright_normal.png"
    },
    {
      "mimeType": "image/png",
      "name": "T_ai_materials_brass_bright_albedo",
      "uri": "../textures/T_ai_materials_brass_bright_albedo.png"
    },
    {
      "mimeType": "image/png",
      "name": "T_ai_materials_brass_bright_rough",
      "uri": "../textures/T_ai_materials_brass_bright_rough.png"
    },
    {
      "mimeType": "image/png",
      "name": "T_ai_materials_brass_normal",
      "uri": "../textures/T_ai_materials_brass_normal.png"
    },
    {
      "mimeType": "image/png",
      "name": "T_ai_materials_brass_albedo",
      "uri": "../textures/T_ai_materials_brass_albedo.png"
    },
    {
      "mimeType": "image/png",
      "name": "T_ai_materials_brass_rough",
      "uri": "../textures/T_ai_materials_brass_rough.png"
    },
    {
      "mimeType": "image/png",
      "name": "T_ai_materials_chrome_b_normal",
      "uri": "../textures/T_ai_materials_chrome_b_normal.png"
    },
    {
      "mimeType": "image/png",
      "name": "T_ai_materials_chrome_b_albedo",
      "uri": "../textures/T_ai_materials_chrome_b_albedo.png"
    },
    {
      "mimeType": "image/png",
      "name": "T_ai_materials_chrome_b_rough",
      "uri": "../textures/T_ai_materials_chrome_b_rough.png"
    },
    {
      "mimeType": "image/png",
      "name": "T_ai_materials_countertop_b_normal",
      "uri": "../textures/T_ai_materials_countertop_b_normal.png"
    },
    {
      "mimeType": "image/png",
      "name": "T_ai_materials_countertop_b_albedo",
      "uri": "../textures/T_ai_materials_countertop_b_albedo.png"
    },
    {
      "mimeType": "image/png",
      "name": "T_ai_materials_countertop_b_rough",
      "uri": "../textures/T_ai_materials_countertop_b_rough.png"
    },
    {
      "mimeType": "image/png",
      "name": "T_fx_fx_shadow",
      "uri": "../textures/T_fx_fx_shadow.png"
    },
    {
      "mimeType": "image/png",
      "name": "T_ai_materials_slab_b_normal",
      "uri": "../textures/T_ai_materials_slab_b_normal.png"
    },
    {
      "mimeType": "image/png",
      "name": "T_ai_materials_slab_b_albedo",
      "uri": "../textures/T_ai_materials_slab_b_albedo.png"
    },
    {
      "mimeType": "image/png",
      "name": "T_ai_materials_slab_b_rough",
      "uri": "../textures/T_ai_materials_slab_b_rough.png"
    },
    {
      "mimeType": "image/png",
      "name": "T_ai_materials_linen_b_normal",
      "uri": "../textures/T_ai_materials_linen_b_normal.png"
    },
    {
      "mimeType": "image/png",
      "name": "T_ai_materials_linen_b_albedo",
      "uri": "../textures/T_ai_materials_linen_b_albedo.png"
    },
    {
      "mimeType": "image/png",
      "name": "T_ai_materials_linen_b_rough",
      "uri": "../textures/T_ai_materials_linen_b_rough.png"
    },
    {
      "mimeType": "image/png",
      "name": "T_ai_materials_paper_b_normal",
      "uri": "../textures/T_ai_materials_paper_b_normal.png"
    },
    {
      "mimeType": "image/png",
      "name": "T_ai_materials_paper_b_albedo",
      "uri": "../textures/T_ai_materials_paper_b_albedo.png"
    },
    {
      "mimeType": "image/png",
      "name": "T_ai_materials_paper_b_rough",
      "uri": "../textures/T_ai_materials_paper_b_rough.png"
    },
    {
      "mimeType": "image/png",
      "name": "T_ai_materials_terracotta_b_normal",
      "uri": "../textures/T_ai_materials_terracotta_b_normal.png"
    },
    {
      "mimeType": "image/png",
      "name": "T_ai_materials_terracotta_b_albedo",
      "uri": "../textures/T_ai_materials_terracotta_b_albedo.png"
    },
    {
      "mimeType": "image/png",
      "name": "T_ai_materials_terracotta_b_rough",
      "uri": "../textures/T_ai_materials_terracotta_b_rough.png"
    },
    {
      "mimeType": "image/png",
      "name": "T_ai_materials_timber_b_normal",
      "uri": "../textures/T_ai_materials_timber_b_normal.png"
    },
    {
      "mimeType": "image/png",
      "name": "T_ai_materials_timber_b_albedo",
      "uri": "../textures/T_ai_materials_timber_b_albedo.png"
    },
    {
      "mimeType": "image/png",
      "name": "T_ai_materials_timber_b_rough",
      "uri": "../textures/T_ai_materials_timber_b_rough.png"
    },
    {
      "mimeType": "image/png",
      "name": "T_ai_materials_wood_dark_b_normal",
      "uri": "../textures/T_ai_materials_wood_dark_b_normal.png"
    },
    {
      "mimeType": "image/png",
      "name": "T_ai_materials_wood_dark_b_albedo",
      "uri": "../textures/T_ai_materials_wood_dark_b_albedo.png"
    },
    {
      "mimeType": "image/png",
      "name": "T_ai_materials_wood_dark_b_rough",
      "uri": "../textures/T_ai_materials_wood_dark_b_rough.png"
    },
    {
      "mimeType": "image/png",
      "name": "T_ai_materials_wainscot_b_normal",
      "uri": "../textures/T_ai_materials_wainscot_b_normal.png"
    },
    {
      "mimeType": "image/png",
      "name": "T_ai_materials_wainscot_b_albedo",
      "uri": "../textures/T_ai_materials_wainscot_b_albedo.png"
    },
    {
      "mimeType": "image/png",
      "name": "T_ai_materials_wainscot_b_rough",
      "uri": "../textures/T_ai_materials_wainscot_b_rough.png"
    },
    {
      "mimeType": "image/png",
      "name": "T_ai_materials_milk_glass_normal",
      "uri": "../textures/T_ai_materials_milk_glass_normal.png"
    },
    {
      "mimeType": "image/png",
      "name": "T_ai_materials_milk_glass_albedo",
      "uri": "../textures/T_ai_materials_milk_glass_albedo.png"
    },
    {
      "mimeType": "image/png",
      "name": "T_ai_materials_milk_glass_rough",
      "uri": "../textures/T_ai_materials_milk_glass_rough.png"
    },
    {
      "mimeType": "image/png",
      "name": "T_ai_materials_bakelite_b_normal",
      "uri": "../textures/T_ai_materials_bakelite_b_normal.png"
    },
    {
      "mimeType": "image/png",
      "name": "T_ai_materials_bakelite_b_albedo",
      "uri": "../textures/T_ai_materials_bakelite_b_albedo.png"
    },
    {
      "mimeType": "image/png",
      "name": "T_ai_materials_bakelite_b_rough",
      "uri": "../textures/T_ai_materials_bakelite_b_rough.png"
    },
    {
      "mimeType": "image/png",
      "name": "T_ai_materials_enamel_b_normal",
      "uri": "../textures/T_ai_materials_enamel_b_normal.png"
    },
    {
      "mimeType": "image/png",
      "name": "T_ai_materials_enamel_b_albedo",
      "uri": "../textures/T_ai_materials_enamel_b_albedo.png"
    },
    {
      "mimeType": "image/png",
      "name": "T_ai_materials_enamel_b_rough",
      "uri": "../textures/T_ai_materials_enamel_b_rough.png"
    },
    {
      "mimeType": "image/png",
      "name": "T_ai_materials_rubber_aged_normal",
      "uri": "../textures/T_ai_materials_rubber_aged_normal.png"
    },
    {
      "mimeType": "image/png",
      "name": "T_ai_materials_rubber_aged_albedo",
      "uri": "../textures/T_ai_materials_rubber_aged_albedo.png"
    },
    {
      "mimeType": "image/png",
      "name": "T_ai_materials_rubber_aged_rough",
      "uri": "../textures/T_ai_materials_rubber_aged_rough.png"
    },
    {
      "mimeType": "image/png",
      "name": "T_ai_materials_quarry_tile_b_normal",
      "uri": "../textures/T_ai_materials_quarry_tile_b_normal.png"
    },
    {
      "mimeType": "image/png",
      "name": "T_ai_materials_quarry_tile_b_albedo",
      "uri": "../textures/T_ai_materials_quarry_tile_b_albedo.png"
    },
    {
      "mimeType": "image/png",
      "name": "T_ai_materials_quarry_tile_b_rough",
      "uri": "../textures/T_ai_materials_quarry_tile_b_rough.png"
    },
    {
      "mimeType": "image/png",
      "name": "T_ai_materials_awning_vinyl_normal",
      "uri": "../textures/T_ai_materials_awning_vinyl_normal.png"
    },
    {
      "mimeType": "image/png",
      "name": "T_ai_materials_awning_vinyl_albedo",
      "uri": "../textures/T_ai_materials_awning_vinyl_albedo.png"
    },
    {
      "mimeType": "image/png",
      "name": "T_ai_materials_awning_vinyl_rough",
      "uri": "../textures/T_ai_materials_awning_vinyl_rough.png"
    },
    {
      "mimeType": "image/png",
      "name": "T_ai_materials_zinc_liner_normal",
      "uri": "../textures/T_ai_materials_zinc_liner_normal.png"
    },
    {
      "mimeType": "image/png",
      "name": "T_ai_materials_zinc_liner_albedo",
      "uri": "../textures/T_ai_materials_zinc_liner_albedo.png"
    },
    {
      "mimeType": "image/png",
      "name": "T_ai_materials_zinc_liner_rough",
      "uri": "../textures/T_ai_materials_zinc_liner_rough.png"
    }
  ],
  "materials": [
    {
      "name": "M_metal_b",
      "normalTexture": {
        "index": 0,
        "scale": 0.3499999940395355
      },
      "pbrMetallicRoughness": {
        "baseColorTexture": {
          "index": 1
        },
        "metallicFactor": 0.8999999761581421,
        "metallicRoughnessTexture": {
          "index": 2
        }
      }
    },
    {
      "name": "M_brass_b",
      "normalTexture": {
        "index": 3,
        "scale": 0.3499999940395355
      },
      "pbrMetallicRoughness": {
        "baseColorTexture": {
          "index": 4
        },
        "metallicFactor": 0.8500000238418579,
        "metallicRoughnessTexture": {
          "index": 5
        }
      }
    },
    {
      "name": "M_cast_iron_b",
      "normalTexture": {
        "index": 6,
        "scale": 0.3499999940395355
      },
      "pbrMetallicRoughness": {
        "baseColorTexture": {
          "index": 7
        },
        "metallicFactor": 0.3499999940395355,
        "metallicRoughnessTexture": {
          "index": 8
        }
      }
    },
    {
      "alphaMode": "BLEND",
      "doubleSided": true,
      "name": "M_glassish",
      "normalTexture": {
        "index": 9,
        "scale": 0.550000011920929
      },
      "pbrMetallicRoughness": {
        "baseColorFactor": [
          0.7599999904632568,
          0.8500000238418579,
          0.8899999856948853,
          0.1599999964237213
        ],
        "metallicFactor": 0,
        "metallicRoughnessTexture": {
          "index": 10
        }
      }
    },
    {
      "name": "M_plywood_b",
      "normalTexture": {
        "index": 11,
        "scale": 0.3499999940395355
      },
      "pbrMetallicRoughness": {
        "baseColorTexture": {
          "index": 12
        },
        "metallicFactor": 0,
        "metallicRoughnessTexture": {
          "index": 13
        }
      }
    },
    {
      "name": "M_trim_b",
      "normalTexture": {
        "index": 14,
        "scale": 0.3499999940395355
      },
      "pbrMetallicRoughness": {
        "baseColorTexture": {
          "index": 15
        },
        "metallicFactor": 0,
        "metallicRoughnessTexture": {
          "index": 16
        }
      }
    },
    {
      "alphaMode": "BLEND",
      "doubleSided": true,
      "name": "M_fx_scuff",
      "normalTexture": {
        "index": 17,
        "scale": 0.2800000011920929
      },
      "pbrMetallicRoughness": {
        "baseColorTexture": {
          "index": 18
        },
        "metallicFactor": 0,
        "metallicRoughnessTexture": {
          "index": 19
        }
      }
    },
    {
      "name": "M_plaster_b",
      "normalTexture": {
        "index": 20,
        "scale": 0.3499999940395355
      },
      "pbrMetallicRoughness": {
        "baseColorTexture": {
          "index": 21
        },
        "metallicFactor": 0,
        "metallicRoughnessTexture": {
          "index": 22
        }
      }
    },
    {
      "name": "M_plaster_stained_b",
      "normalTexture": {
        "index": 23,
        "scale": 0.3499999940395355
      },
      "pbrMetallicRoughness": {
        "baseColorTexture": {
          "index": 24
        },
        "metallicFactor": 0,
        "metallicRoughnessTexture": {
          "index": 25
        }
      }
    },
    {
      "name": "M_concrete_b",
      "normalTexture": {
        "index": 26,
        "scale": 0.3499999940395355
      },
      "pbrMetallicRoughness": {
        "baseColorTexture": {
          "index": 27
        },
        "metallicFactor": 0,
        "metallicRoughnessTexture": {
          "index": 28
        }
      }
    },
    {
      "name": "M_bakelite_black",
      "normalTexture": {
        "index": 29,
        "scale": 0.3499999940395355
      },
      "pbrMetallicRoughness": {
        "baseColorTexture": {
          "index": 30
        },
        "metallicFactor": 0,
        "metallicRoughnessTexture": {
          "index": 31
        }
      }
    },
    {
      "name": "M_book_teal",
      "normalTexture": {
        "index": 32,
        "scale": 0.3499999940395355
      },
      "pbrMetallicRoughness": {
        "baseColorTexture": {
          "index": 33
        },
        "metallicFactor": 0,
        "metallicRoughnessTexture": {
          "index": 34
        }
      }
    },
    {
      "name": "M_brass_bright",
      "normalTexture": {
        "index": 35,
        "scale": 0.3499999940395355
      },
      "pbrMetallicRoughness": {
        "baseColorTexture": {
          "index": 36
        },
        "metallicFactor": 0.8500000238418579,
        "metallicRoughnessTexture": {
          "index": 37
        }
      }
    },
    {
      "name": "M_brass_dull",
      "normalTexture": {
        "index": 38,
        "scale": 0.3499999940395355
      },
      "pbrMetallicRoughness": {
        "baseColorTexture": {
          "index": 39
        },
        "metallicFactor": 0.30000001192092896,
        "metallicRoughnessTexture": {
          "index": 40
        }
      }
    },
    {
      "name": "M_chrome_b",
      "normalTexture": {
        "index": 41,
        "scale": 0.3499999940395355
      },
      "pbrMetallicRoughness": {
        "baseColorTexture": {
          "index": 42
        },
        "metallicRoughnessTexture": {
          "index": 43
        }
      }
    },
    {
      "name": "M_countertop_b",
      "normalTexture": {
        "index": 44,
        "scale": 0.3499999940395355
      },
      "pbrMetallicRoughness": {
        "baseColorTexture": {
          "index": 45
        },
        "metallicFactor": 0,
        "metallicRoughnessTexture": {
          "index": 46
        }
      }
    },
    {
      "alphaMode": "BLEND",
      "doubleSided": true,
      "extensions": {
        "KHR_materials_specular": {
          "specularFactor": 0
        }
      },
      "name": "M_fx_shadow",
      "pbrMetallicRoughness": {
        "baseColorTexture": {
          "index": 47
        },
        "metallicFactor": 0
      }
    },
    {
      "name": "M_slab_b",
      "normalTexture": {
        "index": 48,
        "scale": 0.3499999940395355
      },
      "pbrMetallicRoughness": {
        "baseColorTexture": {
          "index": 49
        },
        "metallicFactor": 0,
        "metallicRoughnessTexture": {
          "index": 50
        }
      }
    },
    {
      "name": "M_linen_b",
      "normalTexture": {
        "index": 51,
        "scale": 0.3499999940395355
      },
      "pbrMetallicRoughness": {
        "baseColorTexture": {
          "index": 52
        },
        "metallicFactor": 0,
        "metallicRoughnessTexture": {
          "index": 53
        }
      }
    },
    {
      "name": "M_paper_b",
      "normalTexture": {
        "index": 54,
        "scale": 0.3499999940395355
      },
      "pbrMetallicRoughness": {
        "baseColorTexture": {
          "index": 55
        },
        "metallicFactor": 0,
        "metallicRoughnessTexture": {
          "index": 56
        }
      }
    },
    {
      "name": "M_terracotta_b",
      "normalTexture": {
        "index": 57,
        "scale": 0.3499999940395355
      },
      "pbrMetallicRoughness": {
        "baseColorTexture": {
          "index": 58
        },
        "metallicFactor": 0,
        "metallicRoughnessTexture": {
          "index": 59
        }
      }
    },
    {
      "name": "M_timber_b",
      "normalTexture": {
        "index": 60,
        "scale": 0.3499999940395355
      },
      "pbrMetallicRoughness": {
        "baseColorTexture": {
          "index": 61
        },
        "metallicFactor": 0,
        "metallicRoughnessTexture": {
          "index": 62
        }
      }
    },
    {
      "name": "M_wood_dark_b",
      "normalTexture": {
        "index": 63,
        "scale": 0.3499999940395355
      },
      "pbrMetallicRoughness": {
        "baseColorTexture": {
          "index": 64
        },
        "metallicFactor": 0,
        "metallicRoughnessTexture": {
          "index": 65
        }
      }
    },
    {
      "name": "M_wainscot_b",
      "normalTexture": {
        "index": 66,
        "scale": 0.3499999940395355
      },
      "pbrMetallicRoughness": {
        "baseColorTexture": {
          "index": 67
        },
        "metallicFactor": 0,
        "metallicRoughnessTexture": {
          "index": 68
        }
      }
    },
    {
      "name": "M_milk_glass",
      "normalTexture": {
        "index": 69,
        "scale": 0.3499999940395355
      },
      "pbrMetallicRoughness": {
        "baseColorTexture": {
          "index": 70
        },
        "metallicFactor": 0,
        "metallicRoughnessTexture": {
          "index": 71
        }
      }
    },
    {
      "name": "M_bakelite_b",
      "normalTexture": {
        "index": 72,
        "scale": 0.3499999940395355
      },
      "pbrMetallicRoughness": {
        "baseColorTexture": {
          "index": 73
        },
        "metallicFactor": 0,
        "metallicRoughnessTexture": {
          "index": 74
        }
      }
    },
    {
      "name": "M_enamel_b",
      "normalTexture": {
        "index": 75,
        "scale": 0.3499999940395355
      },
      "pbrMetallicRoughness": {
        "baseColorTexture": {
          "index": 76
        },
        "metallicFactor": 0,
        "metallicRoughnessTexture": {
          "index": 77
        }
      }
    },
    {
      "name": "M_rubber_aged",
      "normalTexture": {
        "index": 78,
        "scale": 0.3499999940395355
      },
      "pbrMetallicRoughness": {
        "baseColorTexture": {
          "index": 79
        },
        "metallicFactor": 0,
        "metallicRoughnessTexture": {
          "index": 80
        }
      }
    },
    {
      "doubleSided": true,
      "name": "M_screen",
      "pbrMetallicRoughness": {
        "baseColorFactor": [
          0.07000000029802322,
          0.07999999821186066,
          0.09000000357627869,
          1
        ],
        "metallicFactor": 0,
        "roughnessFactor": 0.25
      }
    },
    {
      "name": "M_quarry_tile_b",
      "normalTexture": {
        "index": 81,
        "scale": 0.3499999940395355
      },
      "pbrMetallicRoughness": {
        "baseColorTexture": {
          "index": 82
        },
        "metallicFactor": 0,
        "metallicRoughnessTexture": {
          "index": 83
        }
      }
    },
    {
      "name": "M_awning_vinyl",
      "normalTexture": {
        "index": 84,
        "scale": 0.3499999940395355
      },
      "pbrMetallicRoughness": {
        "baseColorTexture": {
          "index": 85
        },
        "metallicFactor": 0,
        "metallicRoughnessTexture": {
          "index": 86
        }
      }
    },
    {
      "name": "M_zinc_liner",
      "normalTexture": {
        "index": 87,
        "scale": 0.3499999940395355
      },
      "pbrMetallicRoughness": {
        "baseColorTexture": {
          "index": 88
        },
        "metallicFactor": 0.11999999731779099,
        "metallicRoughnessTexture": {
          "index": 89
        }
      }
    }
  ],
  "meshes": [
    {
      "name": "F01_OWN_SHOP_MODEL_LAUNDRY_retail_shop_model_laundry_awning_vinyl-col",
      "primitives": [
        {
          "attributes": {
            "NORMAL": 11,
            "POSITION": 10,
            "TEXCOORD_0": 12
          },
          "indices": 2,
          "material": 30
        }
      ]
    },
    {
      "name": "F01_OWN_SHOP_MODEL_LAUNDRY_retail_shop_model_laundry_bakelite",
      "primitives": [
        {
          "attributes": {
            "NORMAL": 14,
            "POSITION": 13,
            "TEXCOORD_0": 15
          },
          "indices": 16,
          "material": 25
        }
      ]
    },
    {
      "name": "F01_OWN_SHOP_MODEL_LAUNDRY_retail_shop_model_laundry_bakelite_black",
      "primitives": [
        {
          "attributes": {
            "NORMAL": 18,
            "POSITION": 17,
            "TEXCOORD_0": 19
          },
          "indices": 20,
          "material": 10
        }
      ]
    },
    {
      "name": "F01_OWN_SHOP_MODEL_LAUNDRY_retail_shop_model_laundry_book_teal-col",
      "primitives": [
        {
          "attributes": {
            "NORMAL": 22,
            "POSITION": 21,
            "TEXCOORD_0": 23
          },
          "indices": 0,
          "material": 11
        }
      ]
    },
    {
      "name": "F01_OWN_SHOP_MODEL_LAUNDRY_retail_shop_model_laundry_brass",
      "primitives": [
        {
          "attributes": {
            "NORMAL": 25,
            "POSITION": 24,
            "TEXCOORD_0": 26
          },
          "indices": 0,
          "material": 1
        }
      ]
    },
    {
      "name": "F01_OWN_SHOP_MODEL_LAUNDRY_retail_shop_model_laundry_brass_bright-col",
      "primitives": [
        {
          "attributes": {
            "NORMAL": 28,
            "POSITION": 27,
            "TEXCOORD_0": 29
          },
          "indices": 0,
          "material": 12
        }
      ]
    },
    {
      "name": "F01_OWN_SHOP_MODEL_LAUNDRY_retail_shop_model_laundry_brass_dull-col",
      "primitives": [
        {
          "attributes": {
            "NORMAL": 31,
            "POSITION": 30,
            "TEXCOORD_0": 32
          },
          "indices": 0,
          "material": 13
        }
      ]
    },
    {
      "name": "F01_OWN_SHOP_MODEL_LAUNDRY_retail_shop_model_laundry_cast_iron-col",
      "primitives": [
        {
          "attributes": {
            "NORMAL": 34,
            "POSITION": 33,
            "TEXCOORD_0": 35
          },
          "indices": 8,
          "material": 2
        }
      ]
    },
    {
      "name": "F01_OWN_SHOP_MODEL_LAUNDRY_retail_shop_model_laundry_chrome-col",
      "primitives": [
        {
          "attributes": {
            "NORMAL": 37,
            "POSITION": 36,
            "TEXCOORD_0": 38
          },
          "indices": 0,
          "material": 14
        }
      ]
    },
    {
      "name": "F01_OWN_SHOP_MODEL_LAUNDRY_retail_shop_model_laundry_concrete-col",
      "primitives": [
        {
          "attributes": {
            "NORMAL": 40,
            "POSITION": 39,
            "TEXCOORD_0": 41
          },
          "indices": 0,
          "material": 9
        }
      ]
    },
    {
      "name": "F01_OWN_SHOP_MODEL_LAUNDRY_retail_shop_model_laundry_countertop-col",
      "primitives": [
        {
          "attributes": {
            "NORMAL": 43,
            "POSITION": 42,
            "TEXCOORD_0": 44
          },
          "indices": 0,
          "material": 15
        }
      ]
    },
    {
      "name": "F01_OWN_SHOP_MODEL_LAUNDRY_retail_shop_model_laundry_enamel",
      "primitives": [
        {
          "attributes": {
            "NORMAL": 46,
            "POSITION": 45,
            "TEXCOORD_0": 47
          },
          "indices": 48,
          "material": 26
        }
      ]
    },
    {
      "name": "F01_OWN_SHOP_MODEL_LAUNDRY_retail_shop_model_laundry_fx_shadow",
      "primitives": [
        {
          "attributes": {
            "NORMAL": 50,
            "POSITION": 49,
            "TEXCOORD_0": 51
          },
          "indices": 3,
          "material": 16
        }
      ]
    },
    {
      "name": "F01_OWN_SHOP_MODEL_LAUNDRY_retail_shop_model_laundry_glassish-col",
      "primitives": [
        {
          "attributes": {
            "NORMAL": 53,
            "POSITION": 52,
            "TEXCOORD_0": 54
          },
          "indices": 1,
          "material": 3
        }
      ]
    },
    {
      "name": "F01_OWN_SHOP_MODEL_LAUNDRY_retail_shop_model_laundry_hull-colonly",
      "primitives": [
        {
          "attributes": {
            "NORMAL": 56,
            "POSITION": 55,
            "TEXCOORD_0": 57
          },
          "indices": 0,
          "material": 17
        }
      ]
    },
    {
      "name": "F01_OWN_SHOP_MODEL_LAUNDRY_retail_shop_model_laundry_linen-col",
      "primitives": [
        {
          "attributes": {
            "NORMAL": 59,
            "POSITION": 58,
            "TEXCOORD_0": 60
          },
          "indices": 61,
          "material": 18
        }
      ]
    },
    {
      "name": "F01_OWN_SHOP_MODEL_LAUNDRY_retail_shop_model_laundry_metal",
      "primitives": [
        {
          "attributes": {
            "NORMAL": 63,
            "POSITION": 62,
            "TEXCOORD_0": 64
          },
          "indices": 0,
          "material": 0
        }
      ]
    },
    {
      "name": "F01_OWN_SHOP_MODEL_LAUNDRY_retail_shop_model_laundry_metal-col",
      "primitives": [
        {
          "attributes": {
            "NORMAL": 66,
            "POSITION": 65,
            "TEXCOORD_0": 67
          },
          "indices": 8,
          "material": 0
        }
      ]
    },
    {
      "name": "F01_OWN_SHOP_MODEL_LAUNDRY_retail_shop_model_laundry_milk_glass",
      "primitives": [
        {
          "attributes": {
            "NORMAL": 69,
            "POSITION": 68,
            "TEXCOORD_0": 70
          },
          "indices": 0,
          "material": 24
        }
      ]
    },
    {
      "name": "F01_OWN_SHOP_MODEL_LAUNDRY_retail_shop_model_laundry_paper-col",
      "primitives": [
        {
          "attributes": {
            "NORMAL": 72,
            "POSITION": 71,
            "TEXCOORD_0": 73
          },
          "indices": 74,
          "material": 19
        }
      ]
    },
    {
      "name": "F01_OWN_SHOP_MODEL_LAUNDRY_retail_shop_model_laundry_plaster-col",
      "primitives": [
        {
          "attributes": {
            "NORMAL": 76,
            "POSITION": 75,
            "TEXCOORD_0": 77
          },
          "indices": 7,
          "material": 7
        }
      ]
    },
    {
      "name": "F01_OWN_SHOP_MODEL_LAUNDRY_retail_shop_model_laundry_plaster_stained-col",
      "primitives": [
        {
          "attributes": {
            "NORMAL": 79,
            "POSITION": 78,
            "TEXCOORD_0": 80
          },
          "indices": 6,
          "material": 8
        }
      ]
    },
    {
      "name": "F01_OWN_SHOP_MODEL_LAUNDRY_retail_shop_model_laundry_plywood-col",
      "primitives": [
        {
          "attributes": {
            "NORMAL": 82,
            "POSITION": 81,
            "TEXCOORD_0": 83
          },
          "indices": 0,
          "material": 4
        }
      ]
    },
    {
      "name": "F01_OWN_SHOP_MODEL_LAUNDRY_retail_shop_model_laundry_quarry_tile-col",
      "primitives": [
        {
          "attributes": {
            "NORMAL": 85,
            "POSITION": 84,
            "TEXCOORD_0": 86
          },
          "indices": 0,
          "material": 29
        }
      ]
    },
    {
      "name": "F01_OWN_SHOP_MODEL_LAUNDRY_retail_shop_model_laundry_rubber_aged-col",
      "primitives": [
        {
          "attributes": {
            "NORMAL": 88,
            "POSITION": 87,
            "TEXCOORD_0": 89
          },
          "indices": 2,
          "material": 27
        }
      ]
    },
    {
      "name": "F01_OWN_SHOP_MODEL_LAUNDRY_retail_shop_model_laundry_screen",
      "primitives": [
        {
          "attributes": {
            "NORMAL": 91,
            "POSITION": 90,
            "TEXCOORD_0": 92
          },
          "indices": 0,
          "material": 28
        }
      ]
    },
    {
      "name": "F01_OWN_SHOP_MODEL_LAUNDRY_retail_shop_model_laundry_terracotta",
      "primitives": [
        {
          "attributes": {
            "NORMAL": 94,
            "POSITION": 93,
            "TEXCOORD_0": 95
          },
          "indices": 96,
          "material": 20
        }
      ]
    },
    {
      "name": "F01_OWN_SHOP_MODEL_LAUNDRY_retail_shop_model_laundry_timber-col",
      "primitives": [
        {
          "attributes": {
            "NORMAL": 98,
            "POSITION": 97,
            "TEXCOORD_0": 99
          },
          "indices": 9,
          "material": 21
        }
      ]
    },
    {
      "name": "F01_OWN_SHOP_MODEL_LAUNDRY_retail_shop_model_laundry_trim-col",
      "primitives": [
        {
          "attributes": {
            "NORMAL": 101,
            "POSITION": 100,
            "TEXCOORD_0": 102
          },
          "indices": 5,
          "material": 5
        }
      ]
    },
    {
      "name": "F01_OWN_SHOP_MODEL_LAUNDRY_retail_shop_model_laundry_wainscot-col",
      "primitives": [
        {
          "attributes": {
            "NORMAL": 104,
            "POSITION": 103,
            "TEXCOORD_0": 105
          },
          "indices": 1,
          "material": 23
        }
      ]
    },
    {
      "name": "F01_OWN_SHOP_MODEL_LAUNDRY_retail_shop_model_laundry_wood_dark-col",
      "primitives": [
        {
          "attributes": {
            "NORMAL": 107,
            "POSITION": 106,
            "TEXCOORD_0": 108
          },
          "indices": 4,
          "material": 22
        }
      ]
    },
    {
      "name": "F01_OWN_SHOP_MODEL_LAUNDRY_retail_shop_model_laundry_zinc_liner-col",
      "primitives": [
        {
          "attributes": {
            "NORMAL": 110,
            "POSITION": 109,
            "TEXCOORD_0": 111
          },
          "indices": 2,
          "material": 31
        }
      ]
    },
    {
      "name": "F01_OWN_SHOP_MODEL_LAUNDRY_wear_fx_scuff",
      "primitives": [
        {
          "attributes": {
            "NORMAL": 113,
            "POSITION": 112,
            "TEXCOORD_0": 114
          },
          "indices": 3,
          "material": 6
        }
      ]
    }
  ],
  "nodes": [
    {
      "mesh": 0,
      "name": "F01_OWN_SHOP_MODEL_LAUNDRY_retail_shop_model_laundry_awning_vinyl-col"
    },
    {
      "mesh": 1,
      "name": "F01_OWN_SHOP_MODEL_LAUNDRY_retail_shop_model_laundry_bakelite"
    },
    {
      "mesh": 2,
      "name": "F01_OWN_SHOP_MODEL_LAUNDRY_retail_shop_model_laundry_bakelite_black"
    },
    {
      "mesh": 3,
      "name": "F01_OWN_SHOP_MODEL_LAUNDRY_retail_shop_model_laundry_book_teal-col"
    },
    {
      "mesh": 4,
      "name": "F01_OWN_SHOP_MODEL_LAUNDRY_retail_shop_model_laundry_brass"
    },
    {
      "mesh": 5,
      "name": "F01_OWN_SHOP_MODEL_LAUNDRY_retail_shop_model_laundry_brass_bright-col"
    },
    {
      "mesh": 6,
      "name": "F01_OWN_SHOP_MODEL_LAUNDRY_retail_shop_model_laundry_brass_dull-col"
    },
    {
      "mesh": 7,
      "name": "F01_OWN_SHOP_MODEL_LAUNDRY_retail_shop_model_laundry_cast_iron-col"
    },
    {
      "mesh": 8,
      "name": "F01_OWN_SHOP_MODEL_LAUNDRY_retail_shop_model_laundry_chrome-col"
    },
    {
      "mesh": 9,
      "name": "F01_OWN_SHOP_MODEL_LAUNDRY_retail_shop_model_laundry_concrete-col"
    },
    {
      "mesh": 10,
      "name": "F01_OWN_SHOP_MODEL_LAUNDRY_retail_shop_model_laundry_countertop-col"
    },
    {
      "mesh": 11,
      "name": "F01_OWN_SHOP_MODEL_LAUNDRY_retail_shop_model_laundry_enamel"
    },
    {
      "mesh": 12,
      "name": "F01_OWN_SHOP_MODEL_LAUNDRY_retail_shop_model_laundry_fx_shadow"
    },
    {
      "mesh": 13,
      "name": "F01_OWN_SHOP_MODEL_LAUNDRY_retail_shop_model_laundry_glassish-col"
    },
    {
      "mesh": 14,
      "name": "F01_OWN_SHOP_MODEL_LAUNDRY_retail_shop_model_laundry_hull-colonly"
    },
    {
      "mesh": 15,
      "name": "F01_OWN_SHOP_MODEL_LAUNDRY_retail_shop_model_laundry_linen-col"
    },
    {
      "mesh": 16,
      "name": "F01_OWN_SHOP_MODEL_LAUNDRY_retail_shop_model_laundry_metal"
    },
    {
      "mesh": 17,
      "name": "F01_OWN_SHOP_MODEL_LAUNDRY_retail_shop_model_laundry_metal-col"
    },
    {
      "mesh": 18,
      "name": "F01_OWN_SHOP_MODEL_LAUNDRY_retail_shop_model_laundry_milk_glass"
    },
    {
      "mesh": 19,
      "name": "F01_OWN_SHOP_MODEL_LAUNDRY_retail_shop_model_laundry_paper-col"
    },
    {
      "mesh": 20,
      "name": "F01_OWN_SHOP_MODEL_LAUNDRY_retail_shop_model_laundry_plaster-col"
    },
    {
      "mesh": 21,
      "name": "F01_OWN_SHOP_MODEL_LAUNDRY_retail_shop_model_laundry_plaster_stained-col"
    },
    {
      "mesh": 22,
      "name": "F01_OWN_SHOP_MODEL_LAUNDRY_retail_shop_model_laundry_plywood-col"
    },
    {
      "mesh": 23,
      "name": "F01_OWN_SHOP_MODEL_LAUNDRY_retail_shop_model_laundry_quarry_tile-col"
    },
    {
      "mesh": 24,
      "name": "F01_OWN_SHOP_MODEL_LAUNDRY_retail_shop_model_laundry_rubber_aged-col"
    },
    {
      "mesh": 25,
      "name": "F01_OWN_SHOP_MODEL_LAUNDRY_retail_shop_model_laundry_screen"
    },
    {
      "mesh": 26,
      "name": "F01_OWN_SHOP_MODEL_LAUNDRY_retail_shop_model_laundry_terracotta"
    },
    {
      "mesh": 27,
      "name": "F01_OWN_SHOP_MODEL_LAUNDRY_retail_shop_model_laundry_timber-col"
    },
    {
      "mesh": 28,
      "name": "F01_OWN_SHOP_MODEL_LAUNDRY_retail_shop_model_laundry_trim-col"
    },
    {
      "mesh": 29,
      "name": "F01_OWN_SHOP_MODEL_LAUNDRY_retail_shop_model_laundry_wainscot-col"
    },
    {
      "mesh": 30,
      "name": "F01_OWN_SHOP_MODEL_LAUNDRY_retail_shop_model_laundry_wood_dark-col"
    },
    {
      "mesh": 31,
      "name": "F01_OWN_SHOP_MODEL_LAUNDRY_retail_shop_model_laundry_zinc_liner-col"
    },
    {
      "mesh": 32,
      "name": "F01_OWN_SHOP_MODEL_LAUNDRY_wear_fx_scuff"
    }
  ],
  "samplers": [
    {
      "magFilter": 9729,
      "minFilter": 9987
    }
  ],
  "scene": 0,
  "scenes": [
    {
      "name": "Scene_shop_model_laundry",
      "nodes": [
        0,
        1,
        2,
        3,
        4,
        5,
        6,
        7,
        8,
        9,
        10,
        11,
        12,
        13,
        14,
        15,
        16,
        17,
        18,
        19,
        20,
        21,
        22,
        23,
        24,
        25,
        26,
        27,
        28,
        29,
        30,
        31,
        32
      ]
    }
  ],
  "textures": [
    {
      "sampler": 0,
      "source": 0
    },
    {
      "sampler": 0,
      "source": 1
    },
    {
      "sampler": 0,
      "source": 2
    },
    {
      "sampler": 0,
      "source": 3
    },
    {
      "sampler": 0,
      "source": 4
    },
    {
      "sampler": 0,
      "source": 5
    },
    {
      "sampler": 0,
      "source": 6
    },
    {
      "sampler": 0,
      "source": 7
    },
    {
      "sampler": 0,
      "source": 8
    },
    {
      "sampler": 0,
      "source": 9
    },
    {
      "sampler": 0,
      "source": 10
    },
    {
      "sampler": 0,
      "source": 11
    },
    {
      "sampler": 0,
      "source": 12
    },
    {
      "sampler": 0,
      "source": 13
    },
    {
      "sampler": 0,
      "source": 14
    },
    {
      "sampler": 0,
      "source": 15
    },
    {
      "sampler": 0,
      "source": 16
    },
    {
      "sampler": 0,
      "source": 17
    },
    {
      "sampler": 0,
      "source": 18
    },
    {
      "sampler": 0,
      "source": 19
    },
    {
      "sampler": 0,
      "source": 20
    },
    {
      "sampler": 0,
      "source": 21
    },
    {
      "sampler": 0,
      "source": 22
    },
    {
      "sampler": 0,
      "source": 23
    },
    {
      "sampler": 0,
      "source": 24
    },
    {
      "sampler": 0,
      "source": 25
    },
    {
      "sampler": 0,
      "source": 26
    },
    {
      "sampler": 0,
      "source": 27
    },
    {
      "sampler": 0,
      "source": 28
    },
    {
      "sampler": 0,
      "source": 29
    },
    {
      "sampler": 0,
      "source": 30
    },
    {
      "sampler": 0,
      "source": 31
    },
    {
      "sampler": 0,
      "source": 32
    },
    {
      "sampler": 0,
      "source": 33
    },
    {
      "sampler": 0,
      "source": 34
    },
    {
      "sampler": 0,
      "source": 35
    },
    {
      "sampler": 0,
      "source": 36
    },
    {
      "sampler": 0,
      "source": 37
    },
    {
      "sampler": 0,
      "source": 38
    },
    {
      "sampler": 0,
      "source": 39
    },
    {
      "sampler": 0,
      "source": 40
    },
    {
      "sampler": 0,
      "source": 41
    },
    {
      "sampler": 0,
      "source": 42
    },
    {
      "sampler": 0,
      "source": 43
    },
    {
      "sampler": 0,
      "source": 44
    },
    {
      "sampler": 0,
      "source": 45
    },
    {
      "sampler": 0,
      "source": 46
    },
    {
      "sampler": 0,
      "source": 47
    },
    {
      "sampler": 0,
      "source": 48
    },
    {
      "sampler": 0,
      "source": 49
    },
    {
      "sampler": 0,
      "source": 50
    },
    {
      "sampler": 0,
      "source": 51
    },
    {
      "sampler": 0,
      "source": 52
    },
    {
      "sampler": 0,
      "source": 53
    },
    {
      "sampler": 0,
      "source": 54
    },
    {
      "sampler": 0,
      "source": 55
    },
    {
      "sampler": 0,
      "source": 56
    },
    {
      "sampler": 0,
      "source": 57
    },
    {
      "sampler": 0,
      "source": 58
    },
    {
      "sampler": 0,
      "source": 59
    },
    {
      "sampler": 0,
      "source": 60
    },
    {
      "sampler": 0,
      "source": 61
    },
    {
      "sampler": 0,
      "source": 62
    },
    {
      "sampler": 0,
      "source": 63
    },
    {
      "sampler": 0,
      "source": 64
    },
    {
      "sampler": 0,
      "source": 65
    },
    {
      "sampler": 0,
      "source": 66
    },
    {
      "sampler": 0,
      "source": 67
    },
    {
      "sampler": 0,
      "source": 68
    },
    {
      "sampler": 0,
      "source": 69
    },
    {
      "sampler": 0,
      "source": 70
    },
    {
      "sampler": 0,
      "source": 71
    },
    {
      "sampler": 0,
      "source": 72
    },
    {
      "sampler": 0,
      "source": 73
    },
    {
      "sampler": 0,
      "source": 74
    },
    {
      "sampler": 0,
      "source": 75
    },
    {
      "sampler": 0,
      "source": 76
    },
    {
      "sampler": 0,
      "source": 77
    },
    {
      "sampler": 0,
      "source": 78
    },
    {
      "sampler": 0,
      "source": 79
    },
    {
      "sampler": 0,
      "source": 80
    },
    {
      "sampler": 0,
      "source": 81
    },
    {
      "sampler": 0,
      "source": 82
    },
    {
      "sampler": 0,
      "source": 83
    },
    {
      "sampler": 0,
      "source": 84
    },
    {
      "sampler": 0,
      "source": 85
    },
    {
      "sampler": 0,
      "source": 86
    },
    {
      "sampler": 0,
      "source": 87
    },
    {
      "sampler": 0,
      "source": 88
    },
    {
      "sampler": 0,
      "source": 89
    }
  ]
}
