{
  "accessors": [
    {
      "bufferView": 0,
      "componentType": 5123,
      "count": 36,
      "type": "SCALAR"
    },
    {
      "bufferView": 1,
      "componentType": 5123,
      "count": 108,
      "type": "SCALAR"
    },
    {
      "bufferView": 2,
      "componentType": 5123,
      "count": 288,
      "type": "SCALAR"
    },
    {
      "bufferView": 3,
      "componentType": 5123,
      "count": 72,
      "type": "SCALAR"
    },
    {
      "bufferView": 4,
      "componentType": 5123,
      "count": 756,
      "type": "SCALAR"
    },
    {
      "bufferView": 5,
      "componentType": 5123,
      "count": 6,
      "type": "SCALAR"
    },
    {
      "bufferView": 6,
      "componentType": 5123,
      "count": 720,
      "type": "SCALAR"
    },
    {
      "bufferView": 7,
      "componentType": 5123,
      "count": 504,
      "type": "SCALAR"
    },
    {
      "bufferView": 8,
      "componentType": 5123,
      "count": 216,
      "type": "SCALAR"
    },
    {
      "bufferView": 9,
      "componentType": 5126,
      "count": 4,
      "max": [
        16.277925491333008,
        0.004000000189989805,
        11.596653938293457
      ],
      "min": [
        15.622075080871582,
        0.004000000189989805,
        11.00334644317627
      ],
      "type": "VEC3"
    },
    {
      "bufferView": 10,
      "componentType": 5126,
      "count": 4,
      "type": "VEC3"
    },
    {
      "bufferView": 11,
      "componentType": 5126,
      "count": 4,
      "type": "VEC2"
    },
    {
      "bufferView": 12,
      "componentType": 5126,
      "count": 517,
      "max": [
        16.022907257080078,
        0.2384684681892395,
        2.2736306190490723
      ],
      "min": [
        15.680644035339355,
        0,
        2.1113924980163574
      ],
      "type": "VEC3"
    },
    {
      "bufferView": 13,
      "componentType": 5126,
      "count": 517,
      "type": "VEC3"
    },
    {
      "bufferView": 14,
      "componentType": 5126,
      "count": 517,
      "type": "VEC2"
    },
    {
      "bufferView": 15,
      "componentType": 5123,
      "count": 864,
      "type": "SCALAR"
    },
    {
      "bufferView": 16,
      "componentType": 5126,
      "count": 24,
      "max": [
        16.191795349121094,
        0.33000001311302185,
        11.514837265014648
      ],
      "min": [
        15.70820426940918,
        0,
        11.085163116455078
      ],
      "type": "VEC3"
    },
    {
      "bufferView": 17,
      "componentType": 5126,
      "count": 24,
      "type": "VEC3"
    },
    {
      "bufferView": 18,
      "componentType": 5126,
      "count": 24,
      "type": "VEC2"
    },
    {
      "bufferView": 19,
      "componentType": 5123,
      "count": 36,
      "type": "SCALAR"
    },
    {
      "bufferView": 20,
      "componentType": 5126,
      "count": 144,
      "max": [
        17.91244125366211,
        0.042500000447034836,
        10.751236915588379
      ],
      "min": [
        17.69829750061035,
        0,
        10.452013969421387
      ],
      "type": "VEC3"
    },
    {
      "bufferView": 21,
      "componentType": 5126,
      "count": 144,
      "type": "VEC3"
    },
    {
      "bufferView": 22,
      "componentType": 5126,
      "count": 144,
      "type": "VEC2"
    },
    {
      "bufferView": 23,
      "componentType": 5126,
      "count": 24,
      "max": [
        16.156213760375977,
        0.22759759426116943,
        11.479255676269531
      ],
      "min": [
        15.743785858154297,
        0.019999999552965164,
        11.120744705200195
      ],
      "type": "VEC3"
    },
    {
      "bufferView": 24,
      "componentType": 5126,
      "count": 24,
      "type": "VEC3"
    },
    {
      "bufferView": 25,
      "componentType": 5126,
      "count": 24,
      "type": "VEC2"
    },
    {
      "bufferView": 26,
      "componentType": 5126,
      "count": 168,
      "max": [
        16.20255470275879,
        0.33000001311302185,
        11.523309707641602
      ],
      "min": [
        15.697444915771484,
        0,
        11.076689720153809
      ],
      "type": "VEC3"
    },
    {
      "bufferView": 27,
      "componentType": 5126,
      "count": 168,
      "type": "VEC3"
    },
    {
      "bufferView": 28,
      "componentType": 5126,
      "count": 168,
      "type": "VEC2"
    },
    {
      "bufferView": 29,
      "componentType": 5123,
      "count": 252,
      "type": "SCALAR"
    },
    {
      "bufferView": 30,
      "componentType": 5126,
      "count": 24,
      "max": [
        19.600000381469727,
        2.6500000953674316,
        13.100000381469727
      ],
      "min": [
        15.199999809265137,
        2.549999952316284,
        11.949999809265137
      ],
      "type": "VEC3"
    },
    {
      "bufferView": 31,
      "componentType": 5126,
      "count": 24,
      "type": "VEC3"
    },
    {
      "bufferView": 32,
      "componentType": 5126,
      "count": 24,
      "type": "VEC2"
    },
    {
      "bufferView": 33,
      "componentType": 5126,
      "count": 504,
      "max": [
        19.176677703857422,
        1.834976315498352,
        10.899999618530273
      ],
      "min": [
        15.529034614562988,
        0.48500001430511475,
        3.664952278137207
      ],
      "type": "VEC3"
    },
    {
      "bufferView": 34,
      "componentType": 5126,
      "count": 504,
      "type": "VEC3"
    },
    {
      "bufferView": 35,
      "componentType": 5126,
      "count": 504,
      "type": "VEC2"
    },
    {
      "bufferView": 36,
      "componentType": 5126,
      "count": 456,
      "max": [
        19.167438507080078,
        1.8321524858474731,
        10.75
      ],
      "min": [
        15.522327423095703,
        0.48500001430511475,
        3.654470443725586
      ],
      "type": "VEC3"
    },
    {
      "bufferView": 37,
      "componentType": 5126,
      "count": 456,
      "type": "VEC3"
    },
    {
      "bufferView": 38,
      "componentType": 5126,
      "count": 456,
      "type": "VEC2"
    },
    {
      "bufferView": 39,
      "componentType": 5123,
      "count": 684,
      "type": "SCALAR"
    },
    {
      "bufferView": 40,
      "componentType": 5126,
      "count": 24,
      "max": [
        19.549999237060547,
        2.619999885559082,
        12.020000457763672
      ],
      "min": [
        15.25,
        2.200000047683716,
        11.9399995803833
      ],
      "type": "VEC3"
    },
    {
      "bufferView": 41,
      "componentType": 5126,
      "count": 24,
      "type": "VEC3"
    },
    {
      "bufferView": 42,
      "componentType": 5126,
      "count": 24,
      "type": "VEC2"
    },
    {
      "bufferView": 43,
      "componentType": 5126,
      "count": 24,
      "max": [
        18.049999237060547,
        1,
        11.050000190734863
      ],
      "min": [
        16.799999237060547,
        0.949999988079071,
        10.300000190734863
      ],
      "type": "VEC3"
    },
    {
      "bufferView": 44,
      "componentType": 5126,
      "count": 24,
      "type": "VEC3"
    },
    {
      "bufferView": 45,
      "componentType": 5126,
      "count": 24,
      "type": "VEC2"
    },
    {
      "bufferView": 46,
      "componentType": 5126,
      "count": 336,
      "max": [
        19.20764923095703,
        1.84046471118927,
        9.297882080078125
      ],
      "min": [
        15.526543617248535,
        0.48500001430511475,
        4.188258647918701
      ],
      "type": "VEC3"
    },
    {
      "bufferView": 47,
      "componentType": 5126,
      "count": 336,
      "type": "VEC3"
    },
    {
      "bufferView": 48,
      "componentType": 5126,
      "count": 336,
      "type": "VEC2"
    },
    {
      "bufferView": 49,
      "componentType": 5126,
      "count": 336,
      "max": [
        19.15162467956543,
        1.7764071226119995,
        10.75
      ],
      "min": [
        15.523388862609863,
        0.48500001430511475,
        3.2377946376800537
      ],
      "type": "VEC3"
    },
    {
      "bufferView": 50,
      "componentType": 5126,
      "count": 336,
      "type": "VEC3"
    },
    {
      "bufferView": 51,
      "componentType": 5126,
      "count": 336,
      "type": "VEC2"
    },
    {
      "bufferView": 52,
      "componentType": 5126,
      "count": 48,
      "max": [
        18.579999923706055,
        2.5999999046325684,
        11.960000038146973
      ],
      "min": [
        15.300000190734863,
        0.550000011920929,
        1.7000000476837158
      ],
      "type": "VEC3"
    },
    {
      "bufferView": 53,
      "componentType": 5126,
      "count": 48,
      "type": "VEC3"
    },
    {
      "bufferView": 54,
      "componentType": 5126,
      "count": 48,
      "type": "VEC2"
    },
    {
      "bufferView": 55,
      "componentType": 5126,
      "count": 24,
      "max": [
        19.600000381469727,
        0.05000000074505806,
        12
      ],
      "min": [
        15.199999809265137,
        0,
        1.2999999523162842
      ],
      "type": "VEC3"
    },
    {
      "bufferView": 56,
      "componentType": 5126,
      "count": 24,
      "type": "VEC3"
    },
    {
      "bufferView": 57,
      "componentType": 5126,
      "count": 24,
      "type": "VEC2"
    },
    {
      "bufferView": 58,
      "componentType": 5126,
      "count": 48,
      "max": [
        19.600000381469727,
        2.9600000381469727,
        12.100000381469727
      ],
      "min": [
        15.199999809265137,
        0,
        1.600000023841858
      ],
      "type": "VEC3"
    },
    {
      "bufferView": 59,
      "componentType": 5126,
      "count": 48,
      "type": "VEC3"
    },
    {
      "bufferView": 60,
      "componentType": 5126,
      "count": 48,
      "type": "VEC2"
    },
    {
      "bufferView": 61,
      "componentType": 5126,
      "count": 336,
      "max": [
        19.256044387817383,
        1.8403282165527344,
        10.75
      ],
      "min": [
        15.534893035888672,
        0.5849999785423279,
        3.1860125064849854
      ],
      "type": "VEC3"
    },
    {
      "bufferView": 62,
      "componentType": 5126,
      "count": 336,
      "type": "VEC3"
    },
    {
      "bufferView": 63,
      "componentType": 5126,
      "count": 336,
      "type": "VEC2"
    },
    {
      "bufferView": 64,
      "componentType": 5126,
      "count": 24,
      "max": [
        19.600000381469727,
        3.549999952316284,
        12
      ],
      "min": [
        15.199999809265137,
        3.200000047683716,
        1.2999999523162842
      ],
      "type": "VEC3"
    },
    {
      "bufferView": 65,
      "componentType": 5126,
      "count": 24,
      "type": "VEC3"
    },
    {
      "bufferView": 66,
      "componentType": 5126,
      "count": 24,
      "type": "VEC2"
    },
    {
      "bufferView": 67,
      "componentType": 5126,
      "count": 72,
      "max": [
        19.600000381469727,
        3.200000047683716,
        12
      ],
      "min": [
        15.199999809265137,
        0,
        1.2999999523162842
      ],
      "type": "VEC3"
    },
    {
      "bufferView": 68,
      "componentType": 5126,
      "count": 72,
      "type": "VEC3"
    },
    {
      "bufferView": 69,
      "componentType": 5126,
      "count": 72,
      "type": "VEC2"
    },
    {
      "bufferView": 70,
      "componentType": 5126,
      "count": 720,
      "max": [
        19.299999237060547,
        1.75,
        10.899999618530273
      ],
      "min": [
        15.5,
        0.05000000074505806,
        3
      ],
      "type": "VEC3"
    },
    {
      "bufferView": 71,
      "componentType": 5126,
      "count": 720,
      "type": "VEC3"
    },
    {
      "bufferView": 72,
      "componentType": 5126,
      "count": 720,
      "type": "VEC2"
    },
    {
      "bufferView": 73,
      "componentType": 5123,
      "count": 1080,
      "type": "SCALAR"
    },
    {
      "bufferView": 74,
      "componentType": 5126,
      "count": 480,
      "max": [
        19.239030838012695,
        1.8092999458312988,
        10.261192321777344
      ],
      "min": [
        15.538057327270508,
        0.48500001430511475,
        3.21566104888916
      ],
      "type": "VEC3"
    },
    {
      "bufferView": 75,
      "componentType": 5126,
      "count": 480,
      "type": "VEC3"
    },
    {
      "bufferView": 76,
      "componentType": 5126,
      "count": 480,
      "type": "VEC2"
    },
    {
      "bufferView": 77,
      "componentType": 5126,
      "count": 192,
      "max": [
        19.600000381469727,
        3.200000047683716,
        12.020000457763672
      ],
      "min": [
        15.199999809265137,
        0,
        10.350000381469727
      ],
      "type": "VEC3"
    },
    {
      "bufferView": 78,
      "componentType": 5126,
      "count": 192,
      "type": "VEC3"
    },
    {
      "bufferView": 79,
      "componentType": 5126,
      "count": 192,
      "type": "VEC2"
    },
    {
      "bufferView": 80,
      "componentType": 5126,
      "count": 4,
      "max": [
        19.200000762939453,
        0.006000000052154064,
        12.369999885559082
      ],
      "min": [
        18.100000381469727,
        0.006000000052154064,
        11.470000267028809
      ],
      "type": "VEC3"
    },
    {
      "bufferView": 81,
      "componentType": 5126,
      "count": 4,
      "type": "VEC3"
    },
    {
      "bufferView": 82,
      "componentType": 5126,
      "count": 4,
      "type": "VEC2"
    }
  ],
  "asset": {
    "extras": {
      "orison_bin_sha256": "639c74a18a499d042af8a44f6a11b70fc739e5ba81382a1769788990b4fa67aa",
      "orison_floor01_owner_first": {
        "cell_id": "CELL_SHOP_BODEGA",
        "collision_name_contract": [
          "-col",
          "-colonly"
        ],
        "owner_before_material": true,
        "production_asset": true,
        "rollback_monolith_loaded_simultaneously": false,
        "schema": "orison.floor01.production-cell.v1",
        "spatial_inference_used": false
      }
    },
    "generator": "Khronos glTF Blender I/O v5.2.39",
    "version": "2.0"
  },
  "bufferViews": [
    {
      "buffer": 0,
      "byteLength": 72,
      "byteOffset": 0,
      "target": 34963
    },
    {
      "buffer": 0,
      "byteLength": 216,
      "byteOffset": 72,
      "target": 34963
    },
    {
      "buffer": 0,
      "byteLength": 576,
      "byteOffset": 288,
      "target": 34963
    },
    {
      "buffer": 0,
      "byteLength": 144,
      "byteOffset": 864,
      "target": 34963
    },
    {
      "buffer": 0,
      "byteLength": 1512,
      "byteOffset": 1008,
      "target": 34963
    },
    {
      "buffer": 0,
      "byteLength": 12,
      "byteOffset": 2520,
      "target": 34963
    },
    {
      "buffer": 0,
      "byteLength": 1440,
      "byteOffset": 2532,
      "target": 34963
    },
    {
      "buffer": 0,
      "byteLength": 1008,
      "byteOffset": 3972,
      "target": 34963
    },
    {
      "buffer": 0,
      "byteLength": 432,
      "byteOffset": 4980,
      "target": 34963
    },
    {
      "buffer": 0,
      "byteLength": 48,
      "byteOffset": 5412,
      "target": 34962
    },
    {
      "buffer": 0,
      "byteLength": 48,
      "byteOffset": 5460,
      "target": 34962
    },
    {
      "buffer": 0,
      "byteLength": 32,
      "byteOffset": 5508,
      "target": 34962
    },
    {
      "buffer": 0,
      "byteLength": 6204,
      "byteOffset": 5540,
      "target": 34962
    },
    {
      "buffer": 0,
      "byteLength": 6204,
      "byteOffset": 11744,
      "target": 34962
    },
    {
      "buffer": 0,
      "byteLength": 4136,
      "byteOffset": 17948,
      "target": 34962
    },
    {
      "buffer": 0,
      "byteLength": 1728,
      "byteOffset": 22084,
      "target": 34963
    },
    {
      "buffer": 0,
      "byteLength": 288,
      "byteOffset": 23812,
      "target": 34962
    },
    {
      "buffer": 0,
      "byteLength": 288,
      "byteOffset": 24100,
      "target": 34962
    },
    {
      "buffer": 0,
      "byteLength": 192,
      "byteOffset": 24388,
      "target": 34962
    },
    {
      "buffer": 0,
      "byteLength": 72,
      "byteOffset": 24580,
      "target": 34963
    },
    {
      "buffer": 0,
      "byteLength": 1728,
      "byteOffset": 24652,
      "target": 34962
    },
    {
      "buffer": 0,
      "byteLength": 1728,
      "byteOffset": 26380,
      "target": 34962
    },
    {
      "buffer": 0,
      "byteLength": 1152,
      "byteOffset": 28108,
      "target": 34962
    },
    {
      "buffer": 0,
      "byteLength": 288,
      "byteOffset": 29260,
      "target": 34962
    },
    {
      "buffer": 0,
      "byteLength": 288,
      "byteOffset": 29548,
      "target": 34962
    },
    {
      "buffer": 0,
      "byteLength": 192,
      "byteOffset": 29836,
      "target": 34962
    },
    {
      "buffer": 0,
      "byteLength": 2016,
      "byteOffset": 30028,
      "target": 34962
    },
    {
      "buffer": 0,
      "byteLength": 2016,
      "byteOffset": 32044,
      "target": 34962
    },
    {
      "buffer": 0,
      "byteLength": 1344,
      "byteOffset": 34060,
      "target": 34962
    },
    {
      "buffer": 0,
      "byteLength": 504,
      "byteOffset": 35404,
      "target": 34963
    },
    {
      "buffer": 0,
      "byteLength": 288,
      "byteOffset": 35908,
      "target": 34962
    },
    {
      "buffer": 0,
      "byteLength": 288,
      "byteOffset": 36196,
      "target": 34962
    },
    {
      "buffer": 0,
      "byteLength": 192,
      "byteOffset": 36484,
      "target": 34962
    },
    {
      "buffer": 0,
      "byteLength": 6048,
      "byteOffset": 36676,
      "target": 34962
    },
    {
      "buffer": 0,
      "byteLength": 6048,
      "byteOffset": 42724,
      "target": 34962
    },
    {
      "buffer": 0,
      "byteLength": 4032,
      "byteOffset": 48772,
      "target": 34962
    },
    {
      "buffer": 0,
      "byteLength": 5472,
      "byteOffset": 52804,
      "target": 34962
    },
    {
      "buffer": 0,
      "byteLength": 5472,
      "byteOffset": 58276,
      "target": 34962
    },
    {
      "buffer": 0,
      "byteLength": 3648,
      "byteOffset": 63748,
      "target": 34962
    },
    {
      "buffer": 0,
      "byteLength": 1368,
      "byteOffset": 67396,
      "target": 34963
    },
    {
      "buffer": 0,
      "byteLength": 288,
      "byteOffset": 68764,
      "target": 34962
    },
    {
      "buffer": 0,
      "byteLength": 288,
      "byteOffset": 69052,
      "target": 34962
    },
    {
      "buffer": 0,
      "byteLength": 192,
      "byteOffset": 69340,
      "target": 34962
    },
    {
      "buffer": 0,
      "byteLength": 288,
      "byteOffset": 69532,
      "target": 34962
    },
    {
      "buffer": 0,
      "byteLength": 288,
      "byteOffset": 69820,
      "target": 34962
    },
    {
      "buffer": 0,
      "byteLength": 192,
      "byteOffset": 70108,
      "target": 34962
    },
    {
      "buffer": 0,
      "byteLength": 4032,
      "byteOffset": 70300,
      "target": 34962
    },
    {
      "buffer": 0,
      "byteLength": 4032,
      "byteOffset": 74332,
      "target": 34962
    },
    {
      "buffer": 0,
      "byteLength": 2688,
      "byteOffset": 78364,
      "target": 34962
    },
    {
      "buffer": 0,
      "byteLength": 4032,
      "byteOffset": 81052,
      "target": 34962
    },
    {
      "buffer": 0,
      "byteLength": 4032,
      "byteOffset": 85084,
      "target": 34962
    },
    {
      "buffer": 0,
      "byteLength": 2688,
      "byteOffset": 89116,
      "target": 34962
    },
    {
      "buffer": 0,
      "byteLength": 576,
      "byteOffset": 91804,
      "target": 34962
    },
    {
      "buffer": 0,
      "byteLength": 576,
      "byteOffset": 92380,
      "target": 34962
    },
    {
      "buffer": 0,
      "byteLength": 384,
      "byteOffset": 92956,
      "target": 34962
    },
    {
      "buffer": 0,
      "byteLength": 288,
      "byteOffset": 93340,
      "target": 34962
    },
    {
      "buffer": 0,
      "byteLength": 288,
      "byteOffset": 93628,
      "target": 34962
    },
    {
      "buffer": 0,
      "byteLength": 192,
      "byteOffset": 93916,
      "target": 34962
    },
    {
      "buffer": 0,
      "byteLength": 576,
      "byteOffset": 94108,
      "target": 34962
    },
    {
      "buffer": 0,
      "byteLength": 576,
      "byteOffset": 94684,
      "target": 34962
    },
    {
      "buffer": 0,
      "byteLength": 384,
      "byteOffset": 95260,
      "target": 34962
    },
    {
      "buffer": 0,
      "byteLength": 4032,
      "byteOffset": 95644,
      "target": 34962
    },
    {
      "buffer": 0,
      "byteLength": 4032,
      "byteOffset": 99676,
      "target": 34962
    },
    {
      "buffer": 0,
      "byteLength": 2688,
      "byteOffset": 103708,
      "target": 34962
    },
    {
      "buffer": 0,
      "byteLength": 288,
      "byteOffset": 106396,
      "target": 34962
    },
    {
      "buffer": 0,
      "byteLength": 288,
      "byteOffset": 106684,
      "target": 34962
    },
    {
      "buffer": 0,
      "byteLength": 192,
      "byteOffset": 106972,
      "target": 34962
    },
    {
      "buffer": 0,
      "byteLength": 864,
      "byteOffset": 107164,
      "target": 34962
    },
    {
      "buffer": 0,
      "byteLength": 864,
      "byteOffset": 108028,
      "target": 34962
    },
    {
      "buffer": 0,
      "byteLength": 576,
      "byteOffset": 108892,
      "target": 34962
    },
    {
      "buffer": 0,
      "byteLength": 8640,
      "byteOffset": 109468,
      "target": 34962
    },
    {
      "buffer": 0,
      "byteLength": 8640,
      "byteOffset": 118108,
      "target": 34962
    },
    {
      "buffer": 0,
      "byteLength": 5760,
      "byteOffset": 126748,
      "target": 34962
    },
    {
      "buffer": 0,
      "byteLength": 2160,
      "byteOffset": 132508,
      "target": 34963
    },
    {
      "buffer": 0,
      "byteLength": 5760,
      "byteOffset": 134668,
      "target": 34962
    },
    {
      "buffer": 0,
      "byteLength": 5760,
      "byteOffset": 140428,
      "target": 34962
    },
    {
      "buffer": 0,
      "byteLength": 3840,
      "byteOffset": 146188,
      "target": 34962
    },
    {
      "buffer": 0,
      "byteLength": 2304,
      "byteOffset": 150028,
      "target": 34962
    },
    {
      "buffer": 0,
      "byteLength": 2304,
      "byteOffset": 152332,
      "target": 34962
    },
    {
      "buffer": 0,
      "byteLength": 1536,
      "byteOffset": 154636,
      "target": 34962
    },
    {
      "buffer": 0,
      "byteLength": 48,
      "byteOffset": 156172,
      "target": 34962
    },
    {
      "buffer": 0,
      "byteLength": 48,
      "byteOffset": 156220,
      "target": 34962
    },
    {
      "buffer": 0,
      "byteLength": 32,
      "byteOffset": 156268,
      "target": 34962
    }
  ],
  "buffers": [
    {
      "byteLength": 156300,
      "uri": "shop_bodega.bin"
    }
  ],
  "extensionsUsed": [
    "KHR_materials_specular"
  ],
  "images": [
    {
      "mimeType": "image/png",
      "name": "T_ai_materials_metal_b_normal",
      "uri": "../textures/T_ai_materials_metal_b_normal.png"
    },
    {
      "mimeType": "image/png",
      "name": "T_ai_materials_metal_b_albedo",
      "uri": "../textures/T_ai_materials_metal_b_albedo.png"
    },
    {
      "mimeType": "image/png",
      "name": "T_ai_materials_metal_b_rough",
      "uri": "../textures/T_ai_materials_metal_b_rough.png"
    },
    {
      "mimeType": "image/png",
      "name": "T_ai_materials_brass_b_normal",
      "uri": "../textures/T_ai_materials_brass_b_normal.png"
    },
    {
      "mimeType": "image/png",
      "name": "T_ai_materials_brass_b_albedo",
      "uri": "../textures/T_ai_materials_brass_b_albedo.png"
    },
    {
      "mimeType": "image/png",
      "name": "T_ai_materials_brass_b_rough",
      "uri": "../textures/T_ai_materials_brass_b_rough.png"
    },
    {
      "mimeType": "image/png",
      "name": "T_glass_normal",
      "uri": "../textures/T_glass_normal.png"
    },
    {
      "mimeType": "image/png",
      "name": "T_glass_rough",
      "uri": "../textures/T_glass_rough.png"
    },
    {
      "mimeType": "image/png",
      "name": "T_ai_materials_soot_b_normal",
      "uri": "../textures/T_ai_materials_soot_b_normal.png"
    },
    {
      "mimeType": "image/png",
      "name": "T_ai_materials_soot_b_albedo",
      "uri": "../textures/T_ai_materials_soot_b_albedo.png"
    },
    {
      "mimeType": "image/png",
      "name": "T_ai_materials_soot_b_rough",
      "uri": "../textures/T_ai_materials_soot_b_rough.png"
    },
    {
      "mimeType": "image/png",
      "name": "T_fx_fx_scuff_normal",
      "uri": "../textures/T_fx_fx_scuff_normal.png"
    },
    {
      "mimeType": "image/png",
      "name": "T_fx_fx_scuff",
      "uri": "../textures/T_fx_fx_scuff.png"
    },
    {
      "mimeType": "image/png",
      "name": "T_fx_fx_scuff_rough",
      "uri": "../textures/T_fx_fx_scuff_rough.png"
    },
    {
      "mimeType": "image/png",
      "name": "T_ai_materials_plaster_b_normal",
      "uri": "../textures/T_ai_materials_plaster_b_normal.png"
    },
    {
      "mimeType": "image/png",
      "name": "T_ai_materials_plaster_b_albedo",
      "uri": "../textures/T_ai_materials_plaster_b_albedo.png"
    },
    {
      "mimeType": "image/png",
      "name": "T_ai_materials_plaster_b_rough",
      "uri": "../textures/T_ai_materials_plaster_b_rough.png"
    },
    {
      "mimeType": "image/png",
      "name": "T_ai_materials_plaster_stained_b_normal",
      "uri": "../textures/T_ai_materials_plaster_stained_b_normal.png"
    },
    {
      "mimeType": "image/png",
      "name": "T_ai_materials_plaster_stained_b_albedo",
      "uri": "../textures/T_ai_materials_plaster_stained_b_albedo.png"
    },
    {
      "mimeType": "image/png",
      "name": "T_ai_materials_plaster_stained_b_rough",
      "uri": "../textures/T_ai_materials_plaster_stained_b_rough.png"
    },
    {
      "mimeType": "image/png",
      "name": "T_ai_materials_chrome_b_normal",
      "uri": "../textures/T_ai_materials_chrome_b_normal.png"
    },
    {
      "mimeType": "image/png",
      "name": "T_ai_materials_chrome_b_albedo",
      "uri": "../textures/T_ai_materials_chrome_b_albedo.png"
    },
    {
      "mimeType": "image/png",
      "name": "T_ai_materials_chrome_b_rough",
      "uri": "../textures/T_ai_materials_chrome_b_rough.png"
    },
    {
      "mimeType": "image/png",
      "name": "T_ai_materials_countertop_b_normal",
      "uri": "../textures/T_ai_materials_countertop_b_normal.png"
    },
    {
      "mimeType": "image/png",
      "name": "T_ai_materials_countertop_b_albedo",
      "uri": "../textures/T_ai_materials_countertop_b_albedo.png"
    },
    {
      "mimeType": "image/png",
      "name": "T_ai_materials_countertop_b_rough",
      "uri": "../textures/T_ai_materials_countertop_b_rough.png"
    },
    {
      "mimeType": "image/png",
      "name": "T_ai_materials_fabric_green_b_normal",
      "uri": "../textures/T_ai_materials_fabric_green_b_normal.png"
    },
    {
      "mimeType": "image/png",
      "name": "T_ai_materials_fabric_green_b_albedo",
      "uri": "../textures/T_ai_materials_fabric_green_b_albedo.png"
    },
    {
      "mimeType": "image/png",
      "name": "T_ai_materials_fabric_green_b_rough",
      "uri": "../textures/T_ai_materials_fabric_green_b_rough.png"
    },
    {
      "mimeType": "image/png",
      "name": "T_fx_fx_shadow",
      "uri": "../textures/T_fx_fx_shadow.png"
    },
    {
      "mimeType": "image/png",
      "name": "T_ai_materials_slab_b_normal",
      "uri": "../textures/T_ai_materials_slab_b_normal.png"
    },
    {
      "mimeType": "image/png",
      "name": "T_ai_materials_slab_b_albedo",
      "uri": "../textures/T_ai_materials_slab_b_albedo.png"
    },
    {
      "mimeType": "image/png",
      "name": "T_ai_materials_slab_b_rough",
      "uri": "../textures/T_ai_materials_slab_b_rough.png"
    },
    {
      "mimeType": "image/png",
      "name": "T_ai_materials_paper_b_normal",
      "uri": "../textures/T_ai_materials_paper_b_normal.png"
    },
    {
      "mimeType": "image/png",
      "name": "T_ai_materials_paper_b_albedo",
      "uri": "../textures/T_ai_materials_paper_b_albedo.png"
    },
    {
      "mimeType": "image/png",
      "name": "T_ai_materials_paper_b_rough",
      "uri": "../textures/T_ai_materials_paper_b_rough.png"
    },
    {
      "mimeType": "image/png",
      "name": "T_ai_materials_terracotta_b_normal",
      "uri": "../textures/T_ai_materials_terracotta_b_normal.png"
    },
    {
      "mimeType": "image/png",
      "name": "T_ai_materials_terracotta_b_albedo",
      "uri": "../textures/T_ai_materials_terracotta_b_albedo.png"
    },
    {
      "mimeType": "image/png",
      "name": "T_ai_materials_terracotta_b_rough",
      "uri": "../textures/T_ai_materials_terracotta_b_rough.png"
    },
    {
      "mimeType": "image/png",
      "name": "T_ai_materials_timber_b_normal",
      "uri": "../textures/T_ai_materials_timber_b_normal.png"
    },
    {
      "mimeType": "image/png",
      "name": "T_ai_materials_timber_b_albedo",
      "uri": "../textures/T_ai_materials_timber_b_albedo.png"
    },
    {
      "mimeType": "image/png",
      "name": "T_ai_materials_timber_b_rough",
      "uri": "../textures/T_ai_materials_timber_b_rough.png"
    },
    {
      "mimeType": "image/png",
      "name": "T_ai_materials_wood_dark_b_normal",
      "uri": "../textures/T_ai_materials_wood_dark_b_normal.png"
    },
    {
      "mimeType": "image/png",
      "name": "T_ai_materials_wood_dark_b_albedo",
      "uri": "../textures/T_ai_materials_wood_dark_b_albedo.png"
    },
    {
      "mimeType": "image/png",
      "name": "T_ai_materials_wood_dark_b_rough",
      "uri": "../textures/T_ai_materials_wood_dark_b_rough.png"
    },
    {
      "mimeType": "image/png",
      "name": "T_ai_materials_linoleum_b_normal",
      "uri": "../textures/T_ai_materials_linoleum_b_normal.png"
    },
    {
      "mimeType": "image/png",
      "name": "T_ai_materials_linoleum_b_albedo",
      "uri": "../textures/T_ai_materials_linoleum_b_albedo.png"
    },
    {
      "mimeType": "image/png",
      "name": "T_ai_materials_linoleum_b_rough",
      "uri": "../textures/T_ai_materials_linoleum_b_rough.png"
    },
    {
      "mimeType": "image/png",
      "name": "T_ai_materials_bakelite_b_normal",
      "uri": "../textures/T_ai_materials_bakelite_b_normal.png"
    },
    {
      "mimeType": "image/png",
      "name": "T_ai_materials_bakelite_b_albedo",
      "uri": "../textures/T_ai_materials_bakelite_b_albedo.png"
    },
    {
      "mimeType": "image/png",
      "name": "T_ai_materials_bakelite_b_rough",
      "uri": "../textures/T_ai_materials_bakelite_b_rough.png"
    },
    {
      "mimeType": "image/png",
      "name": "T_ai_materials_enamel_b_normal",
      "uri": "../textures/T_ai_materials_enamel_b_normal.png"
    },
    {
      "mimeType": "image/png",
      "name": "T_ai_materials_enamel_b_albedo",
      "uri": "../textures/T_ai_materials_enamel_b_albedo.png"
    },
    {
      "mimeType": "image/png",
      "name": "T_ai_materials_enamel_b_rough",
      "uri": "../textures/T_ai_materials_enamel_b_rough.png"
    },
    {
      "mimeType": "image/png",
      "name": "T_ai_materials_safety_orange_b_normal",
      "uri": "../textures/T_ai_materials_safety_orange_b_normal.png"
    },
    {
      "mimeType": "image/png",
      "name": "T_ai_materials_safety_orange_b_albedo",
      "uri": "../textures/T_ai_materials_safety_orange_b_albedo.png"
    },
    {
      "mimeType": "image/png",
      "name": "T_ai_materials_safety_orange_b_rough",
      "uri": "../textures/T_ai_materials_safety_orange_b_rough.png"
    },
    {
      "mimeType": "image/png",
      "name": "T_ai_materials_awning_vinyl_normal",
      "uri": "../textures/T_ai_materials_awning_vinyl_normal.png"
    },
    {
      "mimeType": "image/png",
      "name": "T_ai_materials_awning_vinyl_albedo",
      "uri": "../textures/T_ai_materials_awning_vinyl_albedo.png"
    },
    {
      "mimeType": "image/png",
      "name": "T_ai_materials_awning_vinyl_rough",
      "uri": "../textures/T_ai_materials_awning_vinyl_rough.png"
    }
  ],
  "materials": [
    {
      "name": "M_metal_b",
      "normalTexture": {
        "index": 0,
        "scale": 0.3499999940395355
      },
      "pbrMetallicRoughness": {
        "baseColorTexture": {
          "index": 1
        },
        "metallicFactor": 0.8999999761581421,
        "metallicRoughnessTexture": {
          "index": 2
        }
      }
    },
    {
      "name": "M_brass_b",
      "normalTexture": {
        "index": 3,
        "scale": 0.3499999940395355
      },
      "pbrMetallicRoughness": {
        "baseColorTexture": {
          "index": 4
        },
        "metallicFactor": 0.8500000238418579,
        "metallicRoughnessTexture": {
          "index": 5
        }
      }
    },
    {
      "alphaMode": "BLEND",
      "doubleSided": true,
      "name": "M_glassish",
      "normalTexture": {
        "index": 6,
        "scale": 0.550000011920929
      },
      "pbrMetallicRoughness": {
        "baseColorFactor": [
          0.7599999904632568,
          0.8500000238418579,
          0.8899999856948853,
          0.1599999964237213
        ],
        "metallicFactor": 0,
        "metallicRoughnessTexture": {
          "index": 7
        }
      }
    },
    {
      "name": "M_soot_b",
      "normalTexture": {
        "index": 8,
        "scale": 0.3499999940395355
      },
      "pbrMetallicRoughness": {
        "baseColorTexture": {
          "index": 9
        },
        "metallicFactor": 0,
        "metallicRoughnessTexture": {
          "index": 10
        }
      }
    },
    {
      "alphaMode": "BLEND",
      "doubleSided": true,
      "name": "M_fx_scuff",
      "normalTexture": {
        "index": 11,
        "scale": 0.2800000011920929
      },
      "pbrMetallicRoughness": {
        "baseColorTexture": {
          "index": 12
        },
        "metallicFactor": 0,
        "metallicRoughnessTexture": {
          "index": 13
        }
      }
    },
    {
      "name": "M_plaster_b",
      "normalTexture": {
        "index": 14,
        "scale": 0.3499999940395355
      },
      "pbrMetallicRoughness": {
        "baseColorTexture": {
          "index": 15
        },
        "metallicFactor": 0,
        "metallicRoughnessTexture": {
          "index": 16
        }
      }
    },
    {
      "name": "M_plaster_stained_b",
      "normalTexture": {
        "index": 17,
        "scale": 0.3499999940395355
      },
      "pbrMetallicRoughness": {
        "baseColorTexture": {
          "index": 18
        },
        "metallicFactor": 0,
        "metallicRoughnessTexture": {
          "index": 19
        }
      }
    },
    {
      "name": "M_chrome_b",
      "normalTexture": {
        "index": 20,
        "scale": 0.3499999940395355
      },
      "pbrMetallicRoughness": {
        "baseColorTexture": {
          "index": 21
        },
        "metallicRoughnessTexture": {
          "index": 22
        }
      }
    },
    {
      "name": "M_countertop_b",
      "normalTexture": {
        "index": 23,
        "scale": 0.3499999940395355
      },
      "pbrMetallicRoughness": {
        "baseColorTexture": {
          "index": 24
        },
        "metallicFactor": 0,
        "metallicRoughnessTexture": {
          "index": 25
        }
      }
    },
    {
      "name": "M_fabric_green_b",
      "normalTexture": {
        "index": 26,
        "scale": 0.3499999940395355
      },
      "pbrMetallicRoughness": {
        "baseColorTexture": {
          "index": 27
        },
        "metallicFactor": 0,
        "metallicRoughnessTexture": {
          "index": 28
        }
      }
    },
    {
      "alphaMode": "BLEND",
      "doubleSided": true,
      "extensions": {
        "KHR_materials_specular": {
          "specularFactor": 0
        }
      },
      "name": "M_fx_shadow",
      "pbrMetallicRoughness": {
        "baseColorTexture": {
          "index": 29
        },
        "metallicFactor": 0
      }
    },
    {
      "name": "M_slab_b",
      "normalTexture": {
        "index": 30,
        "scale": 0.3499999940395355
      },
      "pbrMetallicRoughness": {
        "baseColorTexture": {
          "index": 31
        },
        "metallicFactor": 0,
        "metallicRoughnessTexture": {
          "index": 32
        }
      }
    },
    {
      "name": "M_paper_b",
      "normalTexture": {
        "index": 33,
        "scale": 0.3499999940395355
      },
      "pbrMetallicRoughness": {
        "baseColorTexture": {
          "index": 34
        },
        "metallicFactor": 0,
        "metallicRoughnessTexture": {
          "index": 35
        }
      }
    },
    {
      "name": "M_terracotta_b",
      "normalTexture": {
        "index": 36,
        "scale": 0.3499999940395355
      },
      "pbrMetallicRoughness": {
        "baseColorTexture": {
          "index": 37
        },
        "metallicFactor": 0,
        "metallicRoughnessTexture": {
          "index": 38
        }
      }
    },
    {
      "name": "M_timber_b",
      "normalTexture": {
        "index": 39,
        "scale": 0.3499999940395355
      },
      "pbrMetallicRoughness": {
        "baseColorTexture": {
          "index": 40
        },
        "metallicFactor": 0,
        "metallicRoughnessTexture": {
          "index": 41
        }
      }
    },
    {
      "name": "M_wood_dark_b",
      "normalTexture": {
        "index": 42,
        "scale": 0.3499999940395355
      },
      "pbrMetallicRoughness": {
        "baseColorTexture": {
          "index": 43
        },
        "metallicFactor": 0,
        "metallicRoughnessTexture": {
          "index": 44
        }
      }
    },
    {
      "name": "M_linoleum_b",
      "normalTexture": {
        "index": 45,
        "scale": 0.3499999940395355
      },
      "pbrMetallicRoughness": {
        "baseColorTexture": {
          "index": 46
        },
        "metallicFactor": 0,
        "metallicRoughnessTexture": {
          "index": 47
        }
      }
    },
    {
      "name": "M_bakelite_b",
      "normalTexture": {
        "index": 48,
        "scale": 0.3499999940395355
      },
      "pbrMetallicRoughness": {
        "baseColorTexture": {
          "index": 49
        },
        "metallicFactor": 0,
        "metallicRoughnessTexture": {
          "index": 50
        }
      }
    },
    {
      "name": "M_enamel_b",
      "normalTexture": {
        "index": 51,
        "scale": 0.3499999940395355
      },
      "pbrMetallicRoughness": {
        "baseColorTexture": {
          "index": 52
        },
        "metallicFactor": 0,
        "metallicRoughnessTexture": {
          "index": 53
        }
      }
    },
    {
      "name": "M_safety_orange_b",
      "normalTexture": {
        "index": 54,
        "scale": 0.3499999940395355
      },
      "pbrMetallicRoughness": {
        "baseColorTexture": {
          "index": 55
        },
        "metallicFactor": 0,
        "metallicRoughnessTexture": {
          "index": 56
        }
      }
    },
    {
      "name": "M_awning_vinyl",
      "normalTexture": {
        "index": 57,
        "scale": 0.3499999940395355
      },
      "pbrMetallicRoughness": {
        "baseColorTexture": {
          "index": 58
        },
        "metallicFactor": 0,
        "metallicRoughnessTexture": {
          "index": 59
        }
      }
    }
  ],
  "meshes": [
    {
      "name": "F01_OWN_SHOP_BODEGA_furnish_fx_shadow",
      "primitives": [
        {
          "attributes": {
            "NORMAL": 10,
            "POSITION": 9,
            "TEXCOORD_0": 11
          },
          "indices": 5,
          "material": 10
        }
      ]
    },
    {
      "name": "F01_OWN_SHOP_BODEGA_furnish_glassish",
      "primitives": [
        {
          "attributes": {
            "NORMAL": 13,
            "POSITION": 12,
            "TEXCOORD_0": 14
          },
          "indices": 15,
          "material": 2
        }
      ]
    },
    {
      "name": "F01_OWN_SHOP_BODEGA_furnish_hull-colonly",
      "primitives": [
        {
          "attributes": {
            "NORMAL": 17,
            "POSITION": 16,
            "TEXCOORD_0": 18
          },
          "indices": 19,
          "material": 11
        }
      ]
    },
    {
      "name": "F01_OWN_SHOP_BODEGA_furnish_paper",
      "primitives": [
        {
          "attributes": {
            "NORMAL": 21,
            "POSITION": 20,
            "TEXCOORD_0": 22
          },
          "indices": 8,
          "material": 12
        }
      ]
    },
    {
      "name": "F01_OWN_SHOP_BODEGA_furnish_soot",
      "primitives": [
        {
          "attributes": {
            "NORMAL": 24,
            "POSITION": 23,
            "TEXCOORD_0": 25
          },
          "indices": 19,
          "material": 3
        }
      ]
    },
    {
      "name": "F01_OWN_SHOP_BODEGA_furnish_timber",
      "primitives": [
        {
          "attributes": {
            "NORMAL": 27,
            "POSITION": 26,
            "TEXCOORD_0": 28
          },
          "indices": 29,
          "material": 14
        }
      ]
    },
    {
      "name": "F01_OWN_SHOP_BODEGA_retail_bod_awning_vinyl-col",
      "primitives": [
        {
          "attributes": {
            "NORMAL": 31,
            "POSITION": 30,
            "TEXCOORD_0": 32
          },
          "indices": 0,
          "material": 20
        }
      ]
    },
    {
      "name": "F01_OWN_SHOP_BODEGA_retail_bod_bakelite-col",
      "primitives": [
        {
          "attributes": {
            "NORMAL": 34,
            "POSITION": 33,
            "TEXCOORD_0": 35
          },
          "indices": 4,
          "material": 17
        }
      ]
    },
    {
      "name": "F01_OWN_SHOP_BODEGA_retail_bod_brass-col",
      "primitives": [
        {
          "attributes": {
            "NORMAL": 37,
            "POSITION": 36,
            "TEXCOORD_0": 38
          },
          "indices": 39,
          "material": 1
        }
      ]
    },
    {
      "name": "F01_OWN_SHOP_BODEGA_retail_bod_chrome-col",
      "primitives": [
        {
          "attributes": {
            "NORMAL": 41,
            "POSITION": 40,
            "TEXCOORD_0": 42
          },
          "indices": 0,
          "material": 7
        }
      ]
    },
    {
      "name": "F01_OWN_SHOP_BODEGA_retail_bod_countertop-col",
      "primitives": [
        {
          "attributes": {
            "NORMAL": 44,
            "POSITION": 43,
            "TEXCOORD_0": 45
          },
          "indices": 0,
          "material": 8
        }
      ]
    },
    {
      "name": "F01_OWN_SHOP_BODEGA_retail_bod_enamel-col",
      "primitives": [
        {
          "attributes": {
            "NORMAL": 47,
            "POSITION": 46,
            "TEXCOORD_0": 48
          },
          "indices": 7,
          "material": 18
        }
      ]
    },
    {
      "name": "F01_OWN_SHOP_BODEGA_retail_bod_fabric_green-col",
      "primitives": [
        {
          "attributes": {
            "NORMAL": 50,
            "POSITION": 49,
            "TEXCOORD_0": 51
          },
          "indices": 7,
          "material": 9
        }
      ]
    },
    {
      "name": "F01_OWN_SHOP_BODEGA_retail_bod_glassish-col",
      "primitives": [
        {
          "attributes": {
            "NORMAL": 53,
            "POSITION": 52,
            "TEXCOORD_0": 54
          },
          "indices": 3,
          "material": 2
        }
      ]
    },
    {
      "name": "F01_OWN_SHOP_BODEGA_retail_bod_linoleum-col",
      "primitives": [
        {
          "attributes": {
            "NORMAL": 56,
            "POSITION": 55,
            "TEXCOORD_0": 57
          },
          "indices": 0,
          "material": 16
        }
      ]
    },
    {
      "name": "F01_OWN_SHOP_BODEGA_retail_bod_metal-col",
      "primitives": [
        {
          "attributes": {
            "NORMAL": 59,
            "POSITION": 58,
            "TEXCOORD_0": 60
          },
          "indices": 3,
          "material": 0
        }
      ]
    },
    {
      "name": "F01_OWN_SHOP_BODEGA_retail_bod_paper-col",
      "primitives": [
        {
          "attributes": {
            "NORMAL": 62,
            "POSITION": 61,
            "TEXCOORD_0": 63
          },
          "indices": 7,
          "material": 12
        }
      ]
    },
    {
      "name": "F01_OWN_SHOP_BODEGA_retail_bod_plaster-col",
      "primitives": [
        {
          "attributes": {
            "NORMAL": 65,
            "POSITION": 64,
            "TEXCOORD_0": 66
          },
          "indices": 0,
          "material": 5
        }
      ]
    },
    {
      "name": "F01_OWN_SHOP_BODEGA_retail_bod_plaster_stained-col",
      "primitives": [
        {
          "attributes": {
            "NORMAL": 68,
            "POSITION": 67,
            "TEXCOORD_0": 69
          },
          "indices": 1,
          "material": 6
        }
      ]
    },
    {
      "name": "F01_OWN_SHOP_BODEGA_retail_bod_safety_orange-col",
      "primitives": [
        {
          "attributes": {
            "NORMAL": 71,
            "POSITION": 70,
            "TEXCOORD_0": 72
          },
          "indices": 73,
          "material": 19
        }
      ]
    },
    {
      "name": "F01_OWN_SHOP_BODEGA_retail_bod_terracotta-col",
      "primitives": [
        {
          "attributes": {
            "NORMAL": 75,
            "POSITION": 74,
            "TEXCOORD_0": 76
          },
          "indices": 6,
          "material": 13
        }
      ]
    },
    {
      "name": "F01_OWN_SHOP_BODEGA_retail_bod_wood_dark-col",
      "primitives": [
        {
          "attributes": {
            "NORMAL": 78,
            "POSITION": 77,
            "TEXCOORD_0": 79
          },
          "indices": 2,
          "material": 15
        }
      ]
    },
    {
      "name": "F01_OWN_SHOP_BODEGA_wear_fx_scuff",
      "primitives": [
        {
          "attributes": {
            "NORMAL": 81,
            "POSITION": 80,
            "TEXCOORD_0": 82
          },
          "indices": 5,
          "material": 4
        }
      ]
    }
  ],
  "nodes": [
    {
      "mesh": 0,
      "name": "F01_OWN_SHOP_BODEGA_furnish_fx_shadow"
    },
    {
      "mesh": 1,
      "name": "F01_OWN_SHOP_BODEGA_furnish_glassish"
    },
    {
      "mesh": 2,
      "name": "F01_OWN_SHOP_BODEGA_furnish_hull-colonly"
    },
    {
      "mesh": 3,
      "name": "F01_OWN_SHOP_BODEGA_furnish_paper"
    },
    {
      "mesh": 4,
      "name": "F01_OWN_SHOP_BODEGA_furnish_soot"
    },
    {
      "mesh": 5,
      "name": "F01_OWN_SHOP_BODEGA_furnish_timber"
    },
    {
      "mesh": 6,
      "name": "F01_OWN_SHOP_BODEGA_retail_bod_awning_vinyl-col"
    },
    {
      "mesh": 7,
      "name": "F01_OWN_SHOP_BODEGA_retail_bod_bakelite-col"
    },
    {
      "mesh": 8,
      "name": "F01_OWN_SHOP_BODEGA_retail_bod_brass-col"
    },
    {
      "mesh": 9,
      "name": "F01_OWN_SHOP_BODEGA_retail_bod_chrome-col"
    },
    {
      "mesh": 10,
      "name": "F01_OWN_SHOP_BODEGA_retail_bod_countertop-col"
    },
    {
      "mesh": 11,
      "name": "F01_OWN_SHOP_BODEGA_retail_bod_enamel-col"
    },
    {
      "mesh": 12,
      "name": "F01_OWN_SHOP_BODEGA_retail_bod_fabric_green-col"
    },
    {
      "mesh": 13,
      "name": "F01_OWN_SHOP_BODEGA_retail_bod_glassish-col"
    },
    {
      "mesh": 14,
      "name": "F01_OWN_SHOP_BODEGA_retail_bod_linoleum-col"
    },
    {
      "mesh": 15,
      "name": "F01_OWN_SHOP_BODEGA_retail_bod_metal-col"
    },
    {
      "mesh": 16,
      "name": "F01_OWN_SHOP_BODEGA_retail_bod_paper-col"
    },
    {
      "mesh": 17,
      "name": "F01_OWN_SHOP_BODEGA_retail_bod_plaster-col"
    },
    {
      "mesh": 18,
      "name": "F01_OWN_SHOP_BODEGA_retail_bod_plaster_stained-col"
    },
    {
      "mesh": 19,
      "name": "F01_OWN_SHOP_BODEGA_retail_bod_safety_orange-col"
    },
    {
      "mesh": 20,
      "name": "F01_OWN_SHOP_BODEGA_retail_bod_terracotta-col"
    },
    {
      "mesh": 21,
      "name": "F01_OWN_SHOP_BODEGA_retail_bod_wood_dark-col"
    },
    {
      "mesh": 22,
      "name": "F01_OWN_SHOP_BODEGA_wear_fx_scuff"
    }
  ],
  "samplers": [
    {
      "magFilter": 9729,
      "minFilter": 9987
    }
  ],
  "scene": 0,
  "scenes": [
    {
      "name": "Scene_shop_bodega",
      "nodes": [
        0,
        1,
        2,
        3,
        4,
        5,
        6,
        7,
        8,
        9,
        10,
        11,
        12,
        13,
        14,
        15,
        16,
        17,
        18,
        19,
        20,
        21,
        22
      ]
    }
  ],
  "textures": [
    {
      "sampler": 0,
      "source": 0
    },
    {
      "sampler": 0,
      "source": 1
    },
    {
      "sampler": 0,
      "source": 2
    },
    {
      "sampler": 0,
      "source": 3
    },
    {
      "sampler": 0,
      "source": 4
    },
    {
      "sampler": 0,
      "source": 5
    },
    {
      "sampler": 0,
      "source": 6
    },
    {
      "sampler": 0,
      "source": 7
    },
    {
      "sampler": 0,
      "source": 8
    },
    {
      "sampler": 0,
      "source": 9
    },
    {
      "sampler": 0,
      "source": 10
    },
    {
      "sampler": 0,
      "source": 11
    },
    {
      "sampler": 0,
      "source": 12
    },
    {
      "sampler": 0,
      "source": 13
    },
    {
      "sampler": 0,
      "source": 14
    },
    {
      "sampler": 0,
      "source": 15
    },
    {
      "sampler": 0,
      "source": 16
    },
    {
      "sampler": 0,
      "source": 17
    },
    {
      "sampler": 0,
      "source": 18
    },
    {
      "sampler": 0,
      "source": 19
    },
    {
      "sampler": 0,
      "source": 20
    },
    {
      "sampler": 0,
      "source": 21
    },
    {
      "sampler": 0,
      "source": 22
    },
    {
      "sampler": 0,
      "source": 23
    },
    {
      "sampler": 0,
      "source": 24
    },
    {
      "sampler": 0,
      "source": 25
    },
    {
      "sampler": 0,
      "source": 26
    },
    {
      "sampler": 0,
      "source": 27
    },
    {
      "sampler": 0,
      "source": 28
    },
    {
      "sampler": 0,
      "source": 29
    },
    {
      "sampler": 0,
      "source": 30
    },
    {
      "sampler": 0,
      "source": 31
    },
    {
      "sampler": 0,
      "source": 32
    },
    {
      "sampler": 0,
      "source": 33
    },
    {
      "sampler": 0,
      "source": 34
    },
    {
      "sampler": 0,
      "source": 35
    },
    {
      "sampler": 0,
      "source": 36
    },
    {
      "sampler": 0,
      "source": 37
    },
    {
      "sampler": 0,
      "source": 38
    },
    {
      "sampler": 0,
      "source": 39
    },
    {
      "sampler": 0,
      "source": 40
    },
    {
      "sampler": 0,
      "source": 41
    },
    {
      "sampler": 0,
      "source": 42
    },
    {
      "sampler": 0,
      "source": 43
    },
    {
      "sampler": 0,
      "source": 44
    },
    {
      "sampler": 0,
      "source": 45
    },
    {
      "sampler": 0,
      "source": 46
    },
    {
      "sampler": 0,
      "source": 47
    },
    {
      "sampler": 0,
      "source": 48
    },
    {
      "sampler": 0,
      "source": 49
    },
    {
      "sampler": 0,
      "source": 50
    },
    {
      "sampler": 0,
      "source": 51
    },
    {
      "sampler": 0,
      "source": 52
    },
    {
      "sampler": 0,
      "source": 53
    },
    {
      "sampler": 0,
      "source": 54
    },
    {
      "sampler": 0,
      "source": 55
    },
    {
      "sampler": 0,
      "source": 56
    },
    {
      "sampler": 0,
      "source": 57
    },
    {
      "sampler": 0,
      "source": 58
    },
    {
      "sampler": 0,
      "source": 59
    }
  ]
}
