{
  "accessors": [
    {
      "bufferView": 0,
      "componentType": 5123,
      "count": 36,
      "type": "SCALAR"
    },
    {
      "bufferView": 1,
      "componentType": 5123,
      "count": 108,
      "type": "SCALAR"
    },
    {
      "bufferView": 2,
      "componentType": 5123,
      "count": 72,
      "type": "SCALAR"
    },
    {
      "bufferView": 3,
      "componentType": 5123,
      "count": 6,
      "type": "SCALAR"
    },
    {
      "bufferView": 4,
      "componentType": 5123,
      "count": 180,
      "type": "SCALAR"
    },
    {
      "bufferView": 5,
      "componentType": 5123,
      "count": 144,
      "type": "SCALAR"
    },
    {
      "bufferView": 6,
      "componentType": 5123,
      "count": 396,
      "type": "SCALAR"
    },
    {
      "bufferView": 7,
      "componentType": 5123,
      "count": 252,
      "type": "SCALAR"
    },
    {
      "bufferView": 8,
      "componentType": 5123,
      "count": 216,
      "type": "SCALAR"
    },
    {
      "bufferView": 9,
      "componentType": 5123,
      "count": 468,
      "type": "SCALAR"
    },
    {
      "bufferView": 10,
      "componentType": 5126,
      "count": 48,
      "max": [
        16.739999771118164,
        2.7100000381469727,
        63.84000015258789
      ],
      "min": [
        15.420000076293945,
        2.359999895095825,
        58.959999084472656
      ],
      "type": "VEC3"
    },
    {
      "bufferView": 11,
      "componentType": 5126,
      "count": 48,
      "type": "VEC3"
    },
    {
      "bufferView": 12,
      "componentType": 5126,
      "count": 48,
      "type": "VEC2"
    },
    {
      "bufferView": 13,
      "componentType": 5126,
      "count": 200,
      "max": [
        21.7450008392334,
        0.029999999329447746,
        59.67499923706055
      ],
      "min": [
        21.155000686645508,
        0,
        59.025001525878906
      ],
      "type": "VEC3"
    },
    {
      "bufferView": 14,
      "componentType": 5126,
      "count": 200,
      "type": "VEC3"
    },
    {
      "bufferView": 15,
      "componentType": 5126,
      "count": 200,
      "type": "VEC2"
    },
    {
      "bufferView": 16,
      "componentType": 5123,
      "count": 384,
      "type": "SCALAR"
    },
    {
      "bufferView": 17,
      "componentType": 5126,
      "count": 232,
      "max": [
        21.78499984741211,
        1.4199999570846558,
        59.84000015258789
      ],
      "min": [
        21.139999389648438,
        0.30000001192092896,
        59.11000061035156
      ],
      "type": "VEC3"
    },
    {
      "bufferView": 18,
      "componentType": 5126,
      "count": 232,
      "type": "VEC3"
    },
    {
      "bufferView": 19,
      "componentType": 5126,
      "count": 232,
      "type": "VEC2"
    },
    {
      "bufferView": 20,
      "componentType": 5123,
      "count": 384,
      "type": "SCALAR"
    },
    {
      "bufferView": 21,
      "componentType": 5126,
      "count": 72,
      "max": [
        17.700000762939453,
        0.8999999761581421,
        62.08000183105469
      ],
      "min": [
        17.360000610351562,
        0.47999998927116394,
        60.29999923706055
      ],
      "type": "VEC3"
    },
    {
      "bufferView": 22,
      "componentType": 5126,
      "count": 72,
      "type": "VEC3"
    },
    {
      "bufferView": 23,
      "componentType": 5126,
      "count": 72,
      "type": "VEC2"
    },
    {
      "bufferView": 24,
      "componentType": 5126,
      "count": 120,
      "max": [
        21.549999237060547,
        1.6299999952316284,
        63.810001373291016
      ],
      "min": [
        19.170000076293945,
        0.5899999737739563,
        63.540000915527344
      ],
      "type": "VEC3"
    },
    {
      "bufferView": 25,
      "componentType": 5126,
      "count": 120,
      "type": "VEC3"
    },
    {
      "bufferView": 26,
      "componentType": 5126,
      "count": 120,
      "type": "VEC2"
    },
    {
      "bufferView": 27,
      "componentType": 5126,
      "count": 120,
      "max": [
        21.549999237060547,
        1.6299999952316284,
        63.810001373291016
      ],
      "min": [
        19.170000076293945,
        0.5899999737739563,
        63.540000915527344
      ],
      "type": "VEC3"
    },
    {
      "bufferView": 28,
      "componentType": 5126,
      "count": 120,
      "type": "VEC3"
    },
    {
      "bufferView": 29,
      "componentType": 5126,
      "count": 120,
      "type": "VEC2"
    },
    {
      "bufferView": 30,
      "componentType": 5126,
      "count": 24,
      "max": [
        21.540000915527344,
        0.550000011920929,
        59.72200012207031
      ],
      "min": [
        21.360000610351562,
        0.3799999952316284,
        59.709999084472656
      ],
      "type": "VEC3"
    },
    {
      "bufferView": 31,
      "componentType": 5126,
      "count": 24,
      "type": "VEC3"
    },
    {
      "bufferView": 32,
      "componentType": 5126,
      "count": 24,
      "type": "VEC2"
    },
    {
      "bufferView": 33,
      "componentType": 5126,
      "count": 24,
      "max": [
        16.979999542236328,
        1.5800000429153442,
        62.34000015258789
      ],
      "min": [
        16.95199966430664,
        1.3200000524520874,
        62.15999984741211
      ],
      "type": "VEC3"
    },
    {
      "bufferView": 34,
      "componentType": 5126,
      "count": 24,
      "type": "VEC3"
    },
    {
      "bufferView": 35,
      "componentType": 5126,
      "count": 24,
      "type": "VEC2"
    },
    {
      "bufferView": 36,
      "componentType": 5126,
      "count": 120,
      "max": [
        22.1200008392334,
        1.4500000476837158,
        62.439998626708984
      ],
      "min": [
        17.239999771118164,
        0.5799999833106995,
        58.96500015258789
      ],
      "type": "VEC3"
    },
    {
      "bufferView": 37,
      "componentType": 5126,
      "count": 120,
      "type": "VEC3"
    },
    {
      "bufferView": 38,
      "componentType": 5126,
      "count": 120,
      "type": "VEC2"
    },
    {
      "bufferView": 39,
      "componentType": 5126,
      "count": 72,
      "max": [
        22.600000381469727,
        2.240000009536743,
        62.27000045776367
      ],
      "min": [
        22.260000228881836,
        1.6200000047683716,
        60.529998779296875
      ],
      "type": "VEC3"
    },
    {
      "bufferView": 40,
      "componentType": 5126,
      "count": 72,
      "type": "VEC3"
    },
    {
      "bufferView": 41,
      "componentType": 5126,
      "count": 72,
      "type": "VEC2"
    },
    {
      "bufferView": 42,
      "componentType": 5126,
      "count": 24,
      "max": [
        21.780000686645508,
        1.7200000286102295,
        59.709999084472656
      ],
      "min": [
        21.1200008392334,
        0.019999999552965164,
        58.9900016784668
      ],
      "type": "VEC3"
    },
    {
      "bufferView": 43,
      "componentType": 5126,
      "count": 24,
      "type": "VEC3"
    },
    {
      "bufferView": 44,
      "componentType": 5126,
      "count": 24,
      "type": "VEC2"
    },
    {
      "bufferView": 45,
      "componentType": 5126,
      "count": 24,
      "max": [
        26.81999969482422,
        0.009999999776482582,
        63.900001525878906
      ],
      "min": [
        24.219999313354492,
        -0.05000000074505806,
        58.900001525878906
      ],
      "type": "VEC3"
    },
    {
      "bufferView": 46,
      "componentType": 5126,
      "count": 24,
      "type": "VEC3"
    },
    {
      "bufferView": 47,
      "componentType": 5126,
      "count": 24,
      "type": "VEC2"
    },
    {
      "bufferView": 48,
      "componentType": 5126,
      "count": 100,
      "max": [
        21.535999298095703,
        0.9850000143051147,
        59.79100036621094
      ],
      "min": [
        21.384000778198242,
        0.9700000286102295,
        59.75899887084961
      ],
      "type": "VEC3"
    },
    {
      "bufferView": 49,
      "componentType": 5126,
      "count": 100,
      "type": "VEC3"
    },
    {
      "bufferView": 50,
      "componentType": 5126,
      "count": 100,
      "type": "VEC2"
    },
    {
      "bufferView": 51,
      "componentType": 5123,
      "count": 192,
      "type": "SCALAR"
    },
    {
      "bufferView": 52,
      "componentType": 5126,
      "count": 120,
      "max": [
        21.979999542236328,
        0.949999988079071,
        62.119998931884766
      ],
      "min": [
        20.700000762939453,
        0.05000000074505806,
        59.68000030517578
      ],
      "type": "VEC3"
    },
    {
      "bufferView": 53,
      "componentType": 5126,
      "count": 120,
      "type": "VEC3"
    },
    {
      "bufferView": 54,
      "componentType": 5126,
      "count": 120,
      "type": "VEC2"
    },
    {
      "bufferView": 55,
      "componentType": 5126,
      "count": 24,
      "max": [
        16.799999237060547,
        3.009999990463257,
        63.779998779296875
      ],
      "min": [
        16.739999771118164,
        2.549999952316284,
        59.02000045776367
      ],
      "type": "VEC3"
    },
    {
      "bufferView": 56,
      "componentType": 5126,
      "count": 24,
      "type": "VEC3"
    },
    {
      "bufferView": 57,
      "componentType": 5126,
      "count": 24,
      "type": "VEC2"
    },
    {
      "bufferView": 58,
      "componentType": 5126,
      "count": 4,
      "max": [
        21.942399978637695,
        0.004000000189989805,
        59.95880126953125
      ],
      "min": [
        20.957599639892578,
        0.004000000189989805,
        58.88119888305664
      ],
      "type": "VEC3"
    },
    {
      "bufferView": 59,
      "componentType": 5126,
      "count": 4,
      "type": "VEC3"
    },
    {
      "bufferView": 60,
      "componentType": 5126,
      "count": 4,
      "type": "VEC2"
    },
    {
      "bufferView": 61,
      "componentType": 5126,
      "count": 96,
      "max": [
        22.985000610351562,
        3.049999952316284,
        63.86000061035156
      ],
      "min": [
        16.860000610351562,
        0.550000011920929,
        58.939998626708984
      ],
      "type": "VEC3"
    },
    {
      "bufferView": 62,
      "componentType": 5126,
      "count": 96,
      "type": "VEC3"
    },
    {
      "bufferView": 63,
      "componentType": 5126,
      "count": 96,
      "type": "VEC2"
    },
    {
      "bufferView": 64,
      "componentType": 5126,
      "count": 24,
      "max": [
        21.84000015258789,
        1.7200000286102295,
        59.849998474121094
      ],
      "min": [
        21.059999465942383,
        0,
        58.9900016784668
      ],
      "type": "VEC3"
    },
    {
      "bufferView": 65,
      "componentType": 5126,
      "count": 24,
      "type": "VEC3"
    },
    {
      "bufferView": 66,
      "componentType": 5126,
      "count": 24,
      "type": "VEC2"
    },
    {
      "bufferView": 67,
      "componentType": 5126,
      "count": 144,
      "max": [
        22.8700008392334,
        2.359999895095825,
        63.810001373291016
      ],
      "min": [
        19.170000076293945,
        0.5899999737739563,
        59.599998474121094
      ],
      "type": "VEC3"
    },
    {
      "bufferView": 68,
      "componentType": 5126,
      "count": 144,
      "type": "VEC3"
    },
    {
      "bufferView": 69,
      "componentType": 5126,
      "count": 144,
      "type": "VEC2"
    },
    {
      "bufferView": 70,
      "componentType": 5126,
      "count": 24,
      "max": [
        23,
        0.009999999776482582,
        63.900001525878906
      ],
      "min": [
        17,
        -0.05000000074505806,
        58.900001525878906
      ],
      "type": "VEC3"
    },
    {
      "bufferView": 71,
      "componentType": 5126,
      "count": 24,
      "type": "VEC3"
    },
    {
      "bufferView": 72,
      "componentType": 5126,
      "count": 24,
      "type": "VEC2"
    },
    {
      "bufferView": 73,
      "componentType": 5126,
      "count": 168,
      "max": [
        22.579999923706055,
        2.630000114440918,
        63.79999923706055
      ],
      "min": [
        15.399999618530273,
        0.006000000052154064,
        59.0099983215332
      ],
      "type": "VEC3"
    },
    {
      "bufferView": 74,
      "componentType": 5126,
      "count": 168,
      "type": "VEC3"
    },
    {
      "bufferView": 75,
      "componentType": 5126,
      "count": 168,
      "type": "VEC2"
    },
    {
      "bufferView": 76,
      "componentType": 5126,
      "count": 24,
      "max": [
        21.760000228881836,
        1.7000000476837158,
        59.7400016784668
      ],
      "min": [
        21.139999389648438,
        1.559999942779541,
        59.65999984741211
      ],
      "type": "VEC3"
    },
    {
      "bufferView": 77,
      "componentType": 5126,
      "count": 24,
      "type": "VEC3"
    },
    {
      "bufferView": 78,
      "componentType": 5126,
      "count": 24,
      "type": "VEC2"
    },
    {
      "bufferView": 79,
      "componentType": 5126,
      "count": 168,
      "max": [
        21.959999084472656,
        2.0850000381469727,
        62.400001525878906
      ],
      "min": [
        16.84000015258789,
        0.07999999821186066,
        58.939998626708984
      ],
      "type": "VEC3"
    },
    {
      "bufferView": 80,
      "componentType": 5126,
      "count": 168,
      "type": "VEC3"
    },
    {
      "bufferView": 81,
      "componentType": 5126,
      "count": 168,
      "type": "VEC2"
    },
    {
      "bufferView": 82,
      "componentType": 5126,
      "count": 264,
      "max": [
        27.059999465942383,
        2.2799999713897705,
        63.5
      ],
      "min": [
        18.1200008392334,
        0.5,
        61.220001220703125
      ],
      "type": "VEC3"
    },
    {
      "bufferView": 83,
      "componentType": 5126,
      "count": 264,
      "type": "VEC3"
    },
    {
      "bufferView": 84,
      "componentType": 5126,
      "count": 264,
      "type": "VEC2"
    },
    {
      "bufferView": 85,
      "componentType": 5126,
      "count": 144,
      "max": [
        26.81999969482422,
        3.2799999713897705,
        63.900001525878906
      ],
      "min": [
        24.219999313354492,
        0.009999999776482582,
        58.900001525878906
      ],
      "type": "VEC3"
    },
    {
      "bufferView": 86,
      "componentType": 5126,
      "count": 144,
      "type": "VEC3"
    },
    {
      "bufferView": 87,
      "componentType": 5126,
      "count": 144,
      "type": "VEC2"
    },
    {
      "bufferView": 88,
      "componentType": 5126,
      "count": 264,
      "max": [
        23,
        4.199999809265137,
        64.05999755859375
      ],
      "min": [
        16.579999923706055,
        0,
        58.7400016784668
      ],
      "type": "VEC3"
    },
    {
      "bufferView": 89,
      "componentType": 5126,
      "count": 264,
      "type": "VEC3"
    },
    {
      "bufferView": 90,
      "componentType": 5126,
      "count": 264,
      "type": "VEC2"
    },
    {
      "bufferView": 91,
      "componentType": 5126,
      "count": 24,
      "max": [
        17.579999923706055,
        1.5700000524520874,
        62.279998779296875
      ],
      "min": [
        17.540000915527344,
        0.41999998688697815,
        59.08000183105469
      ],
      "type": "VEC3"
    },
    {
      "bufferView": 92,
      "componentType": 5126,
      "count": 24,
      "type": "VEC3"
    },
    {
      "bufferView": 93,
      "componentType": 5126,
      "count": 24,
      "type": "VEC2"
    },
    {
      "bufferView": 94,
      "componentType": 5126,
      "count": 24,
      "max": [
        21.719999313354492,
        1.3799999952316284,
        59.71500015258789
      ],
      "min": [
        21.18000030517578,
        1.0199999809265137,
        59.70500183105469
      ],
      "type": "VEC3"
    },
    {
      "bufferView": 95,
      "componentType": 5126,
      "count": 24,
      "type": "VEC3"
    },
    {
      "bufferView": 96,
      "componentType": 5126,
      "count": 24,
      "type": "VEC2"
    },
    {
      "bufferView": 97,
      "componentType": 5126,
      "count": 50,
      "max": [
        21.29599952697754,
        0.9850000143051147,
        59.79100036621094
      ],
      "min": [
        21.263999938964844,
        0.9700000286102295,
        59.75899887084961
      ],
      "type": "VEC3"
    },
    {
      "bufferView": 98,
      "componentType": 5126,
      "count": 50,
      "type": "VEC3"
    },
    {
      "bufferView": 99,
      "componentType": 5126,
      "count": 50,
      "type": "VEC2"
    },
    {
      "bufferView": 100,
      "componentType": 5123,
      "count": 96,
      "type": "SCALAR"
    },
    {
      "bufferView": 101,
      "componentType": 5126,
      "count": 264,
      "max": [
        22.8799991607666,
        2.3499999046325684,
        63.849998474121094
      ],
      "min": [
        19.200000762939453,
        0.05000000074505806,
        59.130001068115234
      ],
      "type": "VEC3"
    },
    {
      "bufferView": 102,
      "componentType": 5126,
      "count": 264,
      "type": "VEC3"
    },
    {
      "bufferView": 103,
      "componentType": 5126,
      "count": 264,
      "type": "VEC2"
    },
    {
      "bufferView": 104,
      "componentType": 5126,
      "count": 24,
      "max": [
        23,
        3.549999952316284,
        63.900001525878906
      ],
      "min": [
        17,
        3.299999952316284,
        58.900001525878906
      ],
      "type": "VEC3"
    },
    {
      "bufferView": 105,
      "componentType": 5126,
      "count": 24,
      "type": "VEC3"
    },
    {
      "bufferView": 106,
      "componentType": 5126,
      "count": 24,
      "type": "VEC2"
    },
    {
      "bufferView": 107,
      "componentType": 5126,
      "count": 120,
      "max": [
        23,
        3.0999999046325684,
        63.38999938964844
      ],
      "min": [
        22.93000030517578,
        2.299999952316284,
        59.40999984741211
      ],
      "type": "VEC3"
    },
    {
      "bufferView": 108,
      "componentType": 5126,
      "count": 120,
      "type": "VEC3"
    },
    {
      "bufferView": 109,
      "componentType": 5126,
      "count": 120,
      "type": "VEC2"
    },
    {
      "bufferView": 110,
      "componentType": 5126,
      "count": 72,
      "max": [
        23,
        1.100000023841858,
        63.900001525878906
      ],
      "min": [
        17,
        0.05000000074505806,
        58.900001525878906
      ],
      "type": "VEC3"
    },
    {
      "bufferView": 111,
      "componentType": 5126,
      "count": 72,
      "type": "VEC3"
    },
    {
      "bufferView": 112,
      "componentType": 5126,
      "count": 72,
      "type": "VEC2"
    },
    {
      "bufferView": 113,
      "componentType": 5126,
      "count": 312,
      "max": [
        26.760000228881836,
        2.4100000858306885,
        63.68000030517578
      ],
      "min": [
        17.18000030517578,
        0.009999999776482582,
        58.915000915527344
      ],
      "type": "VEC3"
    },
    {
      "bufferView": 114,
      "componentType": 5126,
      "count": 312,
      "type": "VEC3"
    },
    {
      "bufferView": 115,
      "componentType": 5126,
      "count": 312,
      "type": "VEC2"
    },
    {
      "bufferView": 116,
      "componentType": 5126,
      "count": 4,
      "max": [
        17.110000610351562,
        0.006000000052154064,
        64.5
      ],
      "min": [
        16.209999084472656,
        0.006000000052154064,
        63.349998474121094
      ],
      "type": "VEC3"
    },
    {
      "bufferView": 117,
      "componentType": 5126,
      "count": 4,
      "type": "VEC3"
    },
    {
      "bufferView": 118,
      "componentType": 5126,
      "count": 4,
      "type": "VEC2"
    }
  ],
  "asset": {
    "extras": {
      "orison_bin_sha256": "518a8a727adbf5925b0e1968aefe0da1af592383b37ae387d9206de927973705",
      "orison_floor01_owner_first": {
        "cell_id": "CELL_SHOP_PHOTO_SUPPLIES",
        "collision_name_contract": [
          "-col",
          "-colonly"
        ],
        "owner_before_material": true,
        "production_asset": true,
        "rollback_monolith_loaded_simultaneously": false,
        "schema": "orison.floor01.production-cell.v1",
        "spatial_inference_used": false
      }
    },
    "generator": "Khronos glTF Blender I/O v5.2.39",
    "version": "2.0"
  },
  "bufferViews": [
    {
      "buffer": 0,
      "byteLength": 72,
      "byteOffset": 0,
      "target": 34963
    },
    {
      "buffer": 0,
      "byteLength": 216,
      "byteOffset": 72,
      "target": 34963
    },
    {
      "buffer": 0,
      "byteLength": 144,
      "byteOffset": 288,
      "target": 34963
    },
    {
      "buffer": 0,
      "byteLength": 12,
      "byteOffset": 432,
      "target": 34963
    },
    {
      "buffer": 0,
      "byteLength": 360,
      "byteOffset": 444,
      "target": 34963
    },
    {
      "buffer": 0,
      "byteLength": 288,
      "byteOffset": 804,
      "target": 34963
    },
    {
      "buffer": 0,
      "byteLength": 792,
      "byteOffset": 1092,
      "target": 34963
    },
    {
      "buffer": 0,
      "byteLength": 504,
      "byteOffset": 1884,
      "target": 34963
    },
    {
      "buffer": 0,
      "byteLength": 432,
      "byteOffset": 2388,
      "target": 34963
    },
    {
      "buffer": 0,
      "byteLength": 936,
      "byteOffset": 2820,
      "target": 34963
    },
    {
      "buffer": 0,
      "byteLength": 576,
      "byteOffset": 3756,
      "target": 34962
    },
    {
      "buffer": 0,
      "byteLength": 576,
      "byteOffset": 4332,
      "target": 34962
    },
    {
      "buffer": 0,
      "byteLength": 384,
      "byteOffset": 4908,
      "target": 34962
    },
    {
      "buffer": 0,
      "byteLength": 2400,
      "byteOffset": 5292,
      "target": 34962
    },
    {
      "buffer": 0,
      "byteLength": 2400,
      "byteOffset": 7692,
      "target": 34962
    },
    {
      "buffer": 0,
      "byteLength": 1600,
      "byteOffset": 10092,
      "target": 34962
    },
    {
      "buffer": 0,
      "byteLength": 768,
      "byteOffset": 11692,
      "target": 34963
    },
    {
      "buffer": 0,
      "byteLength": 2784,
      "byteOffset": 12460,
      "target": 34962
    },
    {
      "buffer": 0,
      "byteLength": 2784,
      "byteOffset": 15244,
      "target": 34962
    },
    {
      "buffer": 0,
      "byteLength": 1856,
      "byteOffset": 18028,
      "target": 34962
    },
    {
      "buffer": 0,
      "byteLength": 768,
      "byteOffset": 19884,
      "target": 34963
    },
    {
      "buffer": 0,
      "byteLength": 864,
      "byteOffset": 20652,
      "target": 34962
    },
    {
      "buffer": 0,
      "byteLength": 864,
      "byteOffset": 21516,
      "target": 34962
    },
    {
      "buffer": 0,
      "byteLength": 576,
      "byteOffset": 22380,
      "target": 34962
    },
    {
      "buffer": 0,
      "byteLength": 1440,
      "byteOffset": 22956,
      "target": 34962
    },
    {
      "buffer": 0,
      "byteLength": 1440,
      "byteOffset": 24396,
      "target": 34962
    },
    {
      "buffer": 0,
      "byteLength": 960,
      "byteOffset": 25836,
      "target": 34962
    },
    {
      "buffer": 0,
      "byteLength": 1440,
      "byteOffset": 26796,
      "target": 34962
    },
    {
      "buffer": 0,
      "byteLength": 1440,
      "byteOffset": 28236,
      "target": 34962
    },
    {
      "buffer": 0,
      "byteLength": 960,
      "byteOffset": 29676,
      "target": 34962
    },
    {
      "buffer": 0,
      "byteLength": 288,
      "byteOffset": 30636,
      "target": 34962
    },
    {
      "buffer": 0,
      "byteLength": 288,
      "byteOffset": 30924,
      "target": 34962
    },
    {
      "buffer": 0,
      "byteLength": 192,
      "byteOffset": 31212,
      "target": 34962
    },
    {
      "buffer": 0,
      "byteLength": 288,
      "byteOffset": 31404,
      "target": 34962
    },
    {
      "buffer": 0,
      "byteLength": 288,
      "byteOffset": 31692,
      "target": 34962
    },
    {
      "buffer": 0,
      "byteLength": 192,
      "byteOffset": 31980,
      "target": 34962
    },
    {
      "buffer": 0,
      "byteLength": 1440,
      "byteOffset": 32172,
      "target": 34962
    },
    {
      "buffer": 0,
      "byteLength": 1440,
      "byteOffset": 33612,
      "target": 34962
    },
    {
      "buffer": 0,
      "byteLength": 960,
      "byteOffset": 35052,
      "target": 34962
    },
    {
      "buffer": 0,
      "byteLength": 864,
      "byteOffset": 36012,
      "target": 34962
    },
    {
      "buffer": 0,
      "byteLength": 864,
      "byteOffset": 36876,
      "target": 34962
    },
    {
      "buffer": 0,
      "byteLength": 576,
      "byteOffset": 37740,
      "target": 34962
    },
    {
      "buffer": 0,
      "byteLength": 288,
      "byteOffset": 38316,
      "target": 34962
    },
    {
      "buffer": 0,
      "byteLength": 288,
      "byteOffset": 38604,
      "target": 34962
    },
    {
      "buffer": 0,
      "byteLength": 192,
      "byteOffset": 38892,
      "target": 34962
    },
    {
      "buffer": 0,
      "byteLength": 288,
      "byteOffset": 39084,
      "target": 34962
    },
    {
      "buffer": 0,
      "byteLength": 288,
      "byteOffset": 39372,
      "target": 34962
    },
    {
      "buffer": 0,
      "byteLength": 192,
      "byteOffset": 39660,
      "target": 34962
    },
    {
      "buffer": 0,
      "byteLength": 1200,
      "byteOffset": 39852,
      "target": 34962
    },
    {
      "buffer": 0,
      "byteLength": 1200,
      "byteOffset": 41052,
      "target": 34962
    },
    {
      "buffer": 0,
      "byteLength": 800,
      "byteOffset": 42252,
      "target": 34962
    },
    {
      "buffer": 0,
      "byteLength": 384,
      "byteOffset": 43052,
      "target": 34963
    },
    {
      "buffer": 0,
      "byteLength": 1440,
      "byteOffset": 43436,
      "target": 34962
    },
    {
      "buffer": 0,
      "byteLength": 1440,
      "byteOffset": 44876,
      "target": 34962
    },
    {
      "buffer": 0,
      "byteLength": 960,
      "byteOffset": 46316,
      "target": 34962
    },
    {
      "buffer": 0,
      "byteLength": 288,
      "byteOffset": 47276,
      "target": 34962
    },
    {
      "buffer": 0,
      "byteLength": 288,
      "byteOffset": 47564,
      "target": 34962
    },
    {
      "buffer": 0,
      "byteLength": 192,
      "byteOffset": 47852,
      "target": 34962
    },
    {
      "buffer": 0,
      "byteLength": 48,
      "byteOffset": 48044,
      "target": 34962
    },
    {
      "buffer": 0,
      "byteLength": 48,
      "byteOffset": 48092,
      "target": 34962
    },
    {
      "buffer": 0,
      "byteLength": 32,
      "byteOffset": 48140,
      "target": 34962
    },
    {
      "buffer": 0,
      "byteLength": 1152,
      "byteOffset": 48172,
      "target": 34962
    },
    {
      "buffer": 0,
      "byteLength": 1152,
      "byteOffset": 49324,
      "target": 34962
    },
    {
      "buffer": 0,
      "byteLength": 768,
      "byteOffset": 50476,
      "target": 34962
    },
    {
      "buffer": 0,
      "byteLength": 288,
      "byteOffset": 51244,
      "target": 34962
    },
    {
      "buffer": 0,
      "byteLength": 288,
      "byteOffset": 51532,
      "target": 34962
    },
    {
      "buffer": 0,
      "byteLength": 192,
      "byteOffset": 51820,
      "target": 34962
    },
    {
      "buffer": 0,
      "byteLength": 1728,
      "byteOffset": 52012,
      "target": 34962
    },
    {
      "buffer": 0,
      "byteLength": 1728,
      "byteOffset": 53740,
      "target": 34962
    },
    {
      "buffer": 0,
      "byteLength": 1152,
      "byteOffset": 55468,
      "target": 34962
    },
    {
      "buffer": 0,
      "byteLength": 288,
      "byteOffset": 56620,
      "target": 34962
    },
    {
      "buffer": 0,
      "byteLength": 288,
      "byteOffset": 56908,
      "target": 34962
    },
    {
      "buffer": 0,
      "byteLength": 192,
      "byteOffset": 57196,
      "target": 34962
    },
    {
      "buffer": 0,
      "byteLength": 2016,
      "byteOffset": 57388,
      "target": 34962
    },
    {
      "buffer": 0,
      "byteLength": 2016,
      "byteOffset": 59404,
      "target": 34962
    },
    {
      "buffer": 0,
      "byteLength": 1344,
      "byteOffset": 61420,
      "target": 34962
    },
    {
      "buffer": 0,
      "byteLength": 288,
      "byteOffset": 62764,
      "target": 34962
    },
    {
      "buffer": 0,
      "byteLength": 288,
      "byteOffset": 63052,
      "target": 34962
    },
    {
      "buffer": 0,
      "byteLength": 192,
      "byteOffset": 63340,
      "target": 34962
    },
    {
      "buffer": 0,
      "byteLength": 2016,
      "byteOffset": 63532,
      "target": 34962
    },
    {
      "buffer": 0,
      "byteLength": 2016,
      "byteOffset": 65548,
      "target": 34962
    },
    {
      "buffer": 0,
      "byteLength": 1344,
      "byteOffset": 67564,
      "target": 34962
    },
    {
      "buffer": 0,
      "byteLength": 3168,
      "byteOffset": 68908,
      "target": 34962
    },
    {
      "buffer": 0,
      "byteLength": 3168,
      "byteOffset": 72076,
      "target": 34962
    },
    {
      "buffer": 0,
      "byteLength": 2112,
      "byteOffset": 75244,
      "target": 34962
    },
    {
      "buffer": 0,
      "byteLength": 1728,
      "byteOffset": 77356,
      "target": 34962
    },
    {
      "buffer": 0,
      "byteLength": 1728,
      "byteOffset": 79084,
      "target": 34962
    },
    {
      "buffer": 0,
      "byteLength": 1152,
      "byteOffset": 80812,
      "target": 34962
    },
    {
      "buffer": 0,
      "byteLength": 3168,
      "byteOffset": 81964,
      "target": 34962
    },
    {
      "buffer": 0,
      "byteLength": 3168,
      "byteOffset": 85132,
      "target": 34962
    },
    {
      "buffer": 0,
      "byteLength": 2112,
      "byteOffset": 88300,
      "target": 34962
    },
    {
      "buffer": 0,
      "byteLength": 288,
      "byteOffset": 90412,
      "target": 34962
    },
    {
      "buffer": 0,
      "byteLength": 288,
      "byteOffset": 90700,
      "target": 34962
    },
    {
      "buffer": 0,
      "byteLength": 192,
      "byteOffset": 90988,
      "target": 34962
    },
    {
      "buffer": 0,
      "byteLength": 288,
      "byteOffset": 91180,
      "target": 34962
    },
    {
      "buffer": 0,
      "byteLength": 288,
      "byteOffset": 91468,
      "target": 34962
    },
    {
      "buffer": 0,
      "byteLength": 192,
      "byteOffset": 91756,
      "target": 34962
    },
    {
      "buffer": 0,
      "byteLength": 600,
      "byteOffset": 91948,
      "target": 34962
    },
    {
      "buffer": 0,
      "byteLength": 600,
      "byteOffset": 92548,
      "target": 34962
    },
    {
      "buffer": 0,
      "byteLength": 400,
      "byteOffset": 93148,
      "target": 34962
    },
    {
      "buffer": 0,
      "byteLength": 192,
      "byteOffset": 93548,
      "target": 34963
    },
    {
      "buffer": 0,
      "byteLength": 3168,
      "byteOffset": 93740,
      "target": 34962
    },
    {
      "buffer": 0,
      "byteLength": 3168,
      "byteOffset": 96908,
      "target": 34962
    },
    {
      "buffer": 0,
      "byteLength": 2112,
      "byteOffset": 100076,
      "target": 34962
    },
    {
      "buffer": 0,
      "byteLength": 288,
      "byteOffset": 102188,
      "target": 34962
    },
    {
      "buffer": 0,
      "byteLength": 288,
      "byteOffset": 102476,
      "target": 34962
    },
    {
      "buffer": 0,
      "byteLength": 192,
      "byteOffset": 102764,
      "target": 34962
    },
    {
      "buffer": 0,
      "byteLength": 1440,
      "byteOffset": 102956,
      "target": 34962
    },
    {
      "buffer": 0,
      "byteLength": 1440,
      "byteOffset": 104396,
      "target": 34962
    },
    {
      "buffer": 0,
      "byteLength": 960,
      "byteOffset": 105836,
      "target": 34962
    },
    {
      "buffer": 0,
      "byteLength": 864,
      "byteOffset": 106796,
      "target": 34962
    },
    {
      "buffer": 0,
      "byteLength": 864,
      "byteOffset": 107660,
      "target": 34962
    },
    {
      "buffer": 0,
      "byteLength": 576,
      "byteOffset": 108524,
      "target": 34962
    },
    {
      "buffer": 0,
      "byteLength": 3744,
      "byteOffset": 109100,
      "target": 34962
    },
    {
      "buffer": 0,
      "byteLength": 3744,
      "byteOffset": 112844,
      "target": 34962
    },
    {
      "buffer": 0,
      "byteLength": 2496,
      "byteOffset": 116588,
      "target": 34962
    },
    {
      "buffer": 0,
      "byteLength": 48,
      "byteOffset": 119084,
      "target": 34962
    },
    {
      "buffer": 0,
      "byteLength": 48,
      "byteOffset": 119132,
      "target": 34962
    },
    {
      "buffer": 0,
      "byteLength": 32,
      "byteOffset": 119180,
      "target": 34962
    }
  ],
  "buffers": [
    {
      "byteLength": 119212,
      "uri": "shop_photo_supplies.bin"
    }
  ],
  "extensionsUsed": [
    "KHR_materials_specular"
  ],
  "images": [
    {
      "mimeType": "image/png",
      "name": "T_ai_materials_metal_b_normal",
      "uri": "../textures/T_ai_materials_metal_b_normal.png"
    },
    {
      "mimeType": "image/png",
      "name": "T_ai_materials_metal_b_albedo",
      "uri": "../textures/T_ai_materials_metal_b_albedo.png"
    },
    {
      "mimeType": "image/png",
      "name": "T_ai_materials_metal_b_rough",
      "uri": "../textures/T_ai_materials_metal_b_rough.png"
    },
    {
      "mimeType": "image/png",
      "name": "T_ai_materials_brass_b_normal",
      "uri": "../textures/T_ai_materials_brass_b_normal.png"
    },
    {
      "mimeType": "image/png",
      "name": "T_ai_materials_brass_b_albedo",
      "uri": "../textures/T_ai_materials_brass_b_albedo.png"
    },
    {
      "mimeType": "image/png",
      "name": "T_ai_materials_brass_b_rough",
      "uri": "../textures/T_ai_materials_brass_b_rough.png"
    },
    {
      "mimeType": "image/png",
      "name": "T_ai_materials_cast_iron_b_normal",
      "uri": "../textures/T_ai_materials_cast_iron_b_normal.png"
    },
    {
      "mimeType": "image/png",
      "name": "T_ai_materials_cast_iron_b_albedo",
      "uri": "../textures/T_ai_materials_cast_iron_b_albedo.png"
    },
    {
      "mimeType": "image/png",
      "name": "T_ai_materials_cast_iron_b_rough",
      "uri": "../textures/T_ai_materials_cast_iron_b_rough.png"
    },
    {
      "mimeType": "image/png",
      "name": "T_glass_normal",
      "uri": "../textures/T_glass_normal.png"
    },
    {
      "mimeType": "image/png",
      "name": "T_glass_rough",
      "uri": "../textures/T_glass_rough.png"
    },
    {
      "mimeType": "image/png",
      "name": "T_ai_materials_plywood_b_normal",
      "uri": "../textures/T_ai_materials_plywood_b_normal.png"
    },
    {
      "mimeType": "image/png",
      "name": "T_ai_materials_plywood_b_albedo",
      "uri": "../textures/T_ai_materials_plywood_b_albedo.png"
    },
    {
      "mimeType": "image/png",
      "name": "T_ai_materials_plywood_b_rough",
      "uri": "../textures/T_ai_materials_plywood_b_rough.png"
    },
    {
      "mimeType": "image/png",
      "name": "T_ai_materials_trim_b_normal",
      "uri": "../textures/T_ai_materials_trim_b_normal.png"
    },
    {
      "mimeType": "image/png",
      "name": "T_ai_materials_trim_b_albedo",
      "uri": "../textures/T_ai_materials_trim_b_albedo.png"
    },
    {
      "mimeType": "image/png",
      "name": "T_ai_materials_trim_b_rough",
      "uri": "../textures/T_ai_materials_trim_b_rough.png"
    },
    {
      "mimeType": "image/png",
      "name": "T_fx_fx_scuff_normal",
      "uri": "../textures/T_fx_fx_scuff_normal.png"
    },
    {
      "mimeType": "image/png",
      "name": "T_fx_fx_scuff",
      "uri": "../textures/T_fx_fx_scuff.png"
    },
    {
      "mimeType": "image/png",
      "name": "T_fx_fx_scuff_rough",
      "uri": "../textures/T_fx_fx_scuff_rough.png"
    },
    {
      "mimeType": "image/png",
      "name": "T_ai_materials_plaster_b_normal",
      "uri": "../textures/T_ai_materials_plaster_b_normal.png"
    },
    {
      "mimeType": "image/png",
      "name": "T_ai_materials_plaster_b_albedo",
      "uri": "../textures/T_ai_materials_plaster_b_albedo.png"
    },
    {
      "mimeType": "image/png",
      "name": "T_ai_materials_plaster_b_rough",
      "uri": "../textures/T_ai_materials_plaster_b_rough.png"
    },
    {
      "mimeType": "image/png",
      "name": "T_ai_materials_plaster_stained_b_normal",
      "uri": "../textures/T_ai_materials_plaster_stained_b_normal.png"
    },
    {
      "mimeType": "image/png",
      "name": "T_ai_materials_plaster_stained_b_albedo",
      "uri": "../textures/T_ai_materials_plaster_stained_b_albedo.png"
    },
    {
      "mimeType": "image/png",
      "name": "T_ai_materials_plaster_stained_b_rough",
      "uri": "../textures/T_ai_materials_plaster_stained_b_rough.png"
    },
    {
      "mimeType": "image/png",
      "name": "T_ai_materials_tin_ceiling_b_normal",
      "uri": "../textures/T_ai_materials_tin_ceiling_b_normal.png"
    },
    {
      "mimeType": "image/png",
      "name": "T_ai_materials_tin_ceiling_b_albedo",
      "uri": "../textures/T_ai_materials_tin_ceiling_b_albedo.png"
    },
    {
      "mimeType": "image/png",
      "name": "T_ai_materials_tin_ceiling_b_rough",
      "uri": "../textures/T_ai_materials_tin_ceiling_b_rough.png"
    },
    {
      "mimeType": "image/png",
      "name": "T_ai_materials_concrete_b_normal",
      "uri": "../textures/T_ai_materials_concrete_b_normal.png"
    },
    {
      "mimeType": "image/png",
      "name": "T_ai_materials_concrete_b_albedo",
      "uri": "../textures/T_ai_materials_concrete_b_albedo.png"
    },
    {
      "mimeType": "image/png",
      "name": "T_ai_materials_concrete_b_rough",
      "uri": "../textures/T_ai_materials_concrete_b_rough.png"
    },
    {
      "mimeType": "image/png",
      "name": "T_ai_materials_bakelite_black_normal",
      "uri": "../textures/T_ai_materials_bakelite_black_normal.png"
    },
    {
      "mimeType": "image/png",
      "name": "T_ai_materials_bakelite_black_albedo",
      "uri": "../textures/T_ai_materials_bakelite_black_albedo.png"
    },
    {
      "mimeType": "image/png",
      "name": "T_ai_materials_bakelite_black_rough",
      "uri": "../textures/T_ai_materials_bakelite_black_rough.png"
    },
    {
      "mimeType": "image/png",
      "name": "T_library_furniture_book_ochre_normal",
      "uri": "../textures/T_library_furniture_book_ochre_normal.png"
    },
    {
      "mimeType": "image/png",
      "name": "T_library_furniture_book_ochre_albedo",
      "uri": "../textures/T_library_furniture_book_ochre_albedo.png"
    },
    {
      "mimeType": "image/png",
      "name": "T_library_furniture_book_ochre_rough",
      "uri": "../textures/T_library_furniture_book_ochre_rough.png"
    },
    {
      "mimeType": "image/png",
      "name": "T_library_furniture_book_teal_normal",
      "uri": "../textures/T_library_furniture_book_teal_normal.png"
    },
    {
      "mimeType": "image/png",
      "name": "T_library_furniture_book_teal_albedo",
      "uri": "../textures/T_library_furniture_book_teal_albedo.png"
    },
    {
      "mimeType": "image/png",
      "name": "T_library_furniture_book_teal_rough",
      "uri": "../textures/T_library_furniture_book_teal_rough.png"
    },
    {
      "mimeType": "image/png",
      "name": "T_ai_materials_brass_bright_normal",
      "uri": "../textures/T_ai_materials_brass_bright_normal.png"
    },
    {
      "mimeType": "image/png",
      "name": "T_ai_materials_brass_bright_albedo",
      "uri": "../textures/T_ai_materials_brass_bright_albedo.png"
    },
    {
      "mimeType": "image/png",
      "name": "T_ai_materials_brass_bright_rough",
      "uri": "../textures/T_ai_materials_brass_bright_rough.png"
    },
    {
      "mimeType": "image/png",
      "name": "T_ai_materials_brass_normal",
      "uri": "../textures/T_ai_materials_brass_normal.png"
    },
    {
      "mimeType": "image/png",
      "name": "T_ai_materials_brass_albedo",
      "uri": "../textures/T_ai_materials_brass_albedo.png"
    },
    {
      "mimeType": "image/png",
      "name": "T_ai_materials_brass_rough",
      "uri": "../textures/T_ai_materials_brass_rough.png"
    },
    {
      "mimeType": "image/png",
      "name": "T_ai_materials_chrome_b_normal",
      "uri": "../textures/T_ai_materials_chrome_b_normal.png"
    },
    {
      "mimeType": "image/png",
      "name": "T_ai_materials_chrome_b_albedo",
      "uri": "../textures/T_ai_materials_chrome_b_albedo.png"
    },
    {
      "mimeType": "image/png",
      "name": "T_ai_materials_chrome_b_rough",
      "uri": "../textures/T_ai_materials_chrome_b_rough.png"
    },
    {
      "mimeType": "image/png",
      "name": "T_fx_fx_shadow",
      "uri": "../textures/T_fx_fx_shadow.png"
    },
    {
      "mimeType": "image/png",
      "name": "T_ai_materials_slab_b_normal",
      "uri": "../textures/T_ai_materials_slab_b_normal.png"
    },
    {
      "mimeType": "image/png",
      "name": "T_ai_materials_slab_b_albedo",
      "uri": "../textures/T_ai_materials_slab_b_albedo.png"
    },
    {
      "mimeType": "image/png",
      "name": "T_ai_materials_slab_b_rough",
      "uri": "../textures/T_ai_materials_slab_b_rough.png"
    },
    {
      "mimeType": "image/png",
      "name": "T_ai_materials_nickel_plated_normal",
      "uri": "../textures/T_ai_materials_nickel_plated_normal.png"
    },
    {
      "mimeType": "image/png",
      "name": "T_ai_materials_nickel_plated_albedo",
      "uri": "../textures/T_ai_materials_nickel_plated_albedo.png"
    },
    {
      "mimeType": "image/png",
      "name": "T_ai_materials_nickel_plated_rough",
      "uri": "../textures/T_ai_materials_nickel_plated_rough.png"
    },
    {
      "mimeType": "image/png",
      "name": "T_ai_materials_paper_b_normal",
      "uri": "../textures/T_ai_materials_paper_b_normal.png"
    },
    {
      "mimeType": "image/png",
      "name": "T_ai_materials_paper_b_albedo",
      "uri": "../textures/T_ai_materials_paper_b_albedo.png"
    },
    {
      "mimeType": "image/png",
      "name": "T_ai_materials_paper_b_rough",
      "uri": "../textures/T_ai_materials_paper_b_rough.png"
    },
    {
      "mimeType": "image/png",
      "name": "T_ai_materials_terracotta_b_normal",
      "uri": "../textures/T_ai_materials_terracotta_b_normal.png"
    },
    {
      "mimeType": "image/png",
      "name": "T_ai_materials_terracotta_b_albedo",
      "uri": "../textures/T_ai_materials_terracotta_b_albedo.png"
    },
    {
      "mimeType": "image/png",
      "name": "T_ai_materials_terracotta_b_rough",
      "uri": "../textures/T_ai_materials_terracotta_b_rough.png"
    },
    {
      "mimeType": "image/png",
      "name": "T_ai_materials_timber_b_normal",
      "uri": "../textures/T_ai_materials_timber_b_normal.png"
    },
    {
      "mimeType": "image/png",
      "name": "T_ai_materials_timber_b_albedo",
      "uri": "../textures/T_ai_materials_timber_b_albedo.png"
    },
    {
      "mimeType": "image/png",
      "name": "T_ai_materials_timber_b_rough",
      "uri": "../textures/T_ai_materials_timber_b_rough.png"
    },
    {
      "mimeType": "image/png",
      "name": "T_ai_materials_wood_dark_b_normal",
      "uri": "../textures/T_ai_materials_wood_dark_b_normal.png"
    },
    {
      "mimeType": "image/png",
      "name": "T_ai_materials_wood_dark_b_albedo",
      "uri": "../textures/T_ai_materials_wood_dark_b_albedo.png"
    },
    {
      "mimeType": "image/png",
      "name": "T_ai_materials_wood_dark_b_rough",
      "uri": "../textures/T_ai_materials_wood_dark_b_rough.png"
    },
    {
      "mimeType": "image/png",
      "name": "T_ai_materials_linoleum_b_normal",
      "uri": "../textures/T_ai_materials_linoleum_b_normal.png"
    },
    {
      "mimeType": "image/png",
      "name": "T_ai_materials_linoleum_b_albedo",
      "uri": "../textures/T_ai_materials_linoleum_b_albedo.png"
    },
    {
      "mimeType": "image/png",
      "name": "T_ai_materials_linoleum_b_rough",
      "uri": "../textures/T_ai_materials_linoleum_b_rough.png"
    },
    {
      "mimeType": "image/png",
      "name": "T_ai_materials_wainscot_b_normal",
      "uri": "../textures/T_ai_materials_wainscot_b_normal.png"
    },
    {
      "mimeType": "image/png",
      "name": "T_ai_materials_wainscot_b_albedo",
      "uri": "../textures/T_ai_materials_wainscot_b_albedo.png"
    },
    {
      "mimeType": "image/png",
      "name": "T_ai_materials_wainscot_b_rough",
      "uri": "../textures/T_ai_materials_wainscot_b_rough.png"
    },
    {
      "mimeType": "image/png",
      "name": "T_ai_materials_milk_glass_normal",
      "uri": "../textures/T_ai_materials_milk_glass_normal.png"
    },
    {
      "mimeType": "image/png",
      "name": "T_ai_materials_milk_glass_albedo",
      "uri": "../textures/T_ai_materials_milk_glass_albedo.png"
    },
    {
      "mimeType": "image/png",
      "name": "T_ai_materials_milk_glass_rough",
      "uri": "../textures/T_ai_materials_milk_glass_rough.png"
    },
    {
      "mimeType": "image/png",
      "name": "T_ai_materials_bakelite_b_normal",
      "uri": "../textures/T_ai_materials_bakelite_b_normal.png"
    },
    {
      "mimeType": "image/png",
      "name": "T_ai_materials_bakelite_b_albedo",
      "uri": "../textures/T_ai_materials_bakelite_b_albedo.png"
    },
    {
      "mimeType": "image/png",
      "name": "T_ai_materials_bakelite_b_rough",
      "uri": "../textures/T_ai_materials_bakelite_b_rough.png"
    },
    {
      "mimeType": "image/png",
      "name": "T_ai_materials_enamel_b_normal",
      "uri": "../textures/T_ai_materials_enamel_b_normal.png"
    },
    {
      "mimeType": "image/png",
      "name": "T_ai_materials_enamel_b_albedo",
      "uri": "../textures/T_ai_materials_enamel_b_albedo.png"
    },
    {
      "mimeType": "image/png",
      "name": "T_ai_materials_enamel_b_rough",
      "uri": "../textures/T_ai_materials_enamel_b_rough.png"
    },
    {
      "mimeType": "image/png",
      "name": "T_ai_materials_felt_violet_b_normal",
      "uri": "../textures/T_ai_materials_felt_violet_b_normal.png"
    },
    {
      "mimeType": "image/png",
      "name": "T_ai_materials_felt_violet_b_albedo",
      "uri": "../textures/T_ai_materials_felt_violet_b_albedo.png"
    },
    {
      "mimeType": "image/png",
      "name": "T_ai_materials_felt_violet_b_rough",
      "uri": "../textures/T_ai_materials_felt_violet_b_rough.png"
    },
    {
      "mimeType": "image/png",
      "name": "T_ai_materials_lacquer_red_b_normal",
      "uri": "../textures/T_ai_materials_lacquer_red_b_normal.png"
    },
    {
      "mimeType": "image/png",
      "name": "T_ai_materials_lacquer_red_b_albedo",
      "uri": "../textures/T_ai_materials_lacquer_red_b_albedo.png"
    },
    {
      "mimeType": "image/png",
      "name": "T_ai_materials_lacquer_red_b_rough",
      "uri": "../textures/T_ai_materials_lacquer_red_b_rough.png"
    },
    {
      "mimeType": "image/png",
      "name": "T_ai_materials_awning_vinyl_normal",
      "uri": "../textures/T_ai_materials_awning_vinyl_normal.png"
    },
    {
      "mimeType": "image/png",
      "name": "T_ai_materials_awning_vinyl_albedo",
      "uri": "../textures/T_ai_materials_awning_vinyl_albedo.png"
    },
    {
      "mimeType": "image/png",
      "name": "T_ai_materials_awning_vinyl_rough",
      "uri": "../textures/T_ai_materials_awning_vinyl_rough.png"
    }
  ],
  "materials": [
    {
      "name": "M_metal_b",
      "normalTexture": {
        "index": 0,
        "scale": 0.3499999940395355
      },
      "pbrMetallicRoughness": {
        "baseColorTexture": {
          "index": 1
        },
        "metallicFactor": 0.8999999761581421,
        "metallicRoughnessTexture": {
          "index": 2
        }
      }
    },
    {
      "name": "M_brass_b",
      "normalTexture": {
        "index": 3,
        "scale": 0.3499999940395355
      },
      "pbrMetallicRoughness": {
        "baseColorTexture": {
          "index": 4
        },
        "metallicFactor": 0.8500000238418579,
        "metallicRoughnessTexture": {
          "index": 5
        }
      }
    },
    {
      "name": "M_cast_iron_b",
      "normalTexture": {
        "index": 6,
        "scale": 0.3499999940395355
      },
      "pbrMetallicRoughness": {
        "baseColorTexture": {
          "index": 7
        },
        "metallicFactor": 0.3499999940395355,
        "metallicRoughnessTexture": {
          "index": 8
        }
      }
    },
    {
      "alphaMode": "BLEND",
      "doubleSided": true,
      "name": "M_glassish",
      "normalTexture": {
        "index": 9,
        "scale": 0.550000011920929
      },
      "pbrMetallicRoughness": {
        "baseColorFactor": [
          0.7599999904632568,
          0.8500000238418579,
          0.8899999856948853,
          0.1599999964237213
        ],
        "metallicFactor": 0,
        "metallicRoughnessTexture": {
          "index": 10
        }
      }
    },
    {
      "name": "M_plywood_b",
      "normalTexture": {
        "index": 11,
        "scale": 0.3499999940395355
      },
      "pbrMetallicRoughness": {
        "baseColorTexture": {
          "index": 12
        },
        "metallicFactor": 0,
        "metallicRoughnessTexture": {
          "index": 13
        }
      }
    },
    {
      "name": "M_trim_b",
      "normalTexture": {
        "index": 14,
        "scale": 0.3499999940395355
      },
      "pbrMetallicRoughness": {
        "baseColorTexture": {
          "index": 15
        },
        "metallicFactor": 0,
        "metallicRoughnessTexture": {
          "index": 16
        }
      }
    },
    {
      "alphaMode": "BLEND",
      "doubleSided": true,
      "name": "M_fx_scuff",
      "normalTexture": {
        "index": 17,
        "scale": 0.2800000011920929
      },
      "pbrMetallicRoughness": {
        "baseColorTexture": {
          "index": 18
        },
        "metallicFactor": 0,
        "metallicRoughnessTexture": {
          "index": 19
        }
      }
    },
    {
      "name": "M_plaster_b",
      "normalTexture": {
        "index": 20,
        "scale": 0.3499999940395355
      },
      "pbrMetallicRoughness": {
        "baseColorTexture": {
          "index": 21
        },
        "metallicFactor": 0,
        "metallicRoughnessTexture": {
          "index": 22
        }
      }
    },
    {
      "name": "M_plaster_stained_b",
      "normalTexture": {
        "index": 23,
        "scale": 0.3499999940395355
      },
      "pbrMetallicRoughness": {
        "baseColorTexture": {
          "index": 24
        },
        "metallicFactor": 0,
        "metallicRoughnessTexture": {
          "index": 25
        }
      }
    },
    {
      "name": "M_tin_ceiling_b",
      "normalTexture": {
        "index": 26,
        "scale": 0.3499999940395355
      },
      "pbrMetallicRoughness": {
        "baseColorTexture": {
          "index": 27
        },
        "metallicFactor": 0.07999999821186066,
        "metallicRoughnessTexture": {
          "index": 28
        }
      }
    },
    {
      "name": "M_concrete_b",
      "normalTexture": {
        "index": 29,
        "scale": 0.3499999940395355
      },
      "pbrMetallicRoughness": {
        "baseColorTexture": {
          "index": 30
        },
        "metallicFactor": 0,
        "metallicRoughnessTexture": {
          "index": 31
        }
      }
    },
    {
      "name": "M_bakelite_black",
      "normalTexture": {
        "index": 32,
        "scale": 0.3499999940395355
      },
      "pbrMetallicRoughness": {
        "baseColorTexture": {
          "index": 33
        },
        "metallicFactor": 0,
        "metallicRoughnessTexture": {
          "index": 34
        }
      }
    },
    {
      "name": "M_book_ochre",
      "normalTexture": {
        "index": 35,
        "scale": 0.3499999940395355
      },
      "pbrMetallicRoughness": {
        "baseColorTexture": {
          "index": 36
        },
        "metallicFactor": 0,
        "metallicRoughnessTexture": {
          "index": 37
        }
      }
    },
    {
      "name": "M_book_teal",
      "normalTexture": {
        "index": 38,
        "scale": 0.3499999940395355
      },
      "pbrMetallicRoughness": {
        "baseColorTexture": {
          "index": 39
        },
        "metallicFactor": 0,
        "metallicRoughnessTexture": {
          "index": 40
        }
      }
    },
    {
      "name": "M_brass_bright",
      "normalTexture": {
        "index": 41,
        "scale": 0.3499999940395355
      },
      "pbrMetallicRoughness": {
        "baseColorTexture": {
          "index": 42
        },
        "metallicFactor": 0.8500000238418579,
        "metallicRoughnessTexture": {
          "index": 43
        }
      }
    },
    {
      "name": "M_brass_dull",
      "normalTexture": {
        "index": 44,
        "scale": 0.3499999940395355
      },
      "pbrMetallicRoughness": {
        "baseColorTexture": {
          "index": 45
        },
        "metallicFactor": 0.30000001192092896,
        "metallicRoughnessTexture": {
          "index": 46
        }
      }
    },
    {
      "name": "M_chrome_b",
      "normalTexture": {
        "index": 47,
        "scale": 0.3499999940395355
      },
      "pbrMetallicRoughness": {
        "baseColorTexture": {
          "index": 48
        },
        "metallicRoughnessTexture": {
          "index": 49
        }
      }
    },
    {
      "alphaMode": "BLEND",
      "doubleSided": true,
      "extensions": {
        "KHR_materials_specular": {
          "specularFactor": 0
        }
      },
      "name": "M_fx_shadow",
      "pbrMetallicRoughness": {
        "baseColorTexture": {
          "index": 50
        },
        "metallicFactor": 0
      }
    },
    {
      "name": "M_slab_b",
      "normalTexture": {
        "index": 51,
        "scale": 0.3499999940395355
      },
      "pbrMetallicRoughness": {
        "baseColorTexture": {
          "index": 52
        },
        "metallicFactor": 0,
        "metallicRoughnessTexture": {
          "index": 53
        }
      }
    },
    {
      "name": "M_nickel_plated",
      "normalTexture": {
        "index": 54,
        "scale": 0.3499999940395355
      },
      "pbrMetallicRoughness": {
        "baseColorTexture": {
          "index": 55
        },
        "metallicFactor": 0.699999988079071,
        "metallicRoughnessTexture": {
          "index": 56
        }
      }
    },
    {
      "name": "M_paper_b",
      "normalTexture": {
        "index": 57,
        "scale": 0.3499999940395355
      },
      "pbrMetallicRoughness": {
        "baseColorTexture": {
          "index": 58
        },
        "metallicFactor": 0,
        "metallicRoughnessTexture": {
          "index": 59
        }
      }
    },
    {
      "name": "M_terracotta_b",
      "normalTexture": {
        "index": 60,
        "scale": 0.3499999940395355
      },
      "pbrMetallicRoughness": {
        "baseColorTexture": {
          "index": 61
        },
        "metallicFactor": 0,
        "metallicRoughnessTexture": {
          "index": 62
        }
      }
    },
    {
      "name": "M_timber_b",
      "normalTexture": {
        "index": 63,
        "scale": 0.3499999940395355
      },
      "pbrMetallicRoughness": {
        "baseColorTexture": {
          "index": 64
        },
        "metallicFactor": 0,
        "metallicRoughnessTexture": {
          "index": 65
        }
      }
    },
    {
      "name": "M_wood_dark_b",
      "normalTexture": {
        "index": 66,
        "scale": 0.3499999940395355
      },
      "pbrMetallicRoughness": {
        "baseColorTexture": {
          "index": 67
        },
        "metallicFactor": 0,
        "metallicRoughnessTexture": {
          "index": 68
        }
      }
    },
    {
      "name": "M_linoleum_b",
      "normalTexture": {
        "index": 69,
        "scale": 0.3499999940395355
      },
      "pbrMetallicRoughness": {
        "baseColorTexture": {
          "index": 70
        },
        "metallicFactor": 0,
        "metallicRoughnessTexture": {
          "index": 71
        }
      }
    },
    {
      "name": "M_wainscot_b",
      "normalTexture": {
        "index": 72,
        "scale": 0.3499999940395355
      },
      "pbrMetallicRoughness": {
        "baseColorTexture": {
          "index": 73
        },
        "metallicFactor": 0,
        "metallicRoughnessTexture": {
          "index": 74
        }
      }
    },
    {
      "name": "M_milk_glass",
      "normalTexture": {
        "index": 75,
        "scale": 0.3499999940395355
      },
      "pbrMetallicRoughness": {
        "baseColorTexture": {
          "index": 76
        },
        "metallicFactor": 0,
        "metallicRoughnessTexture": {
          "index": 77
        }
      }
    },
    {
      "name": "M_bakelite_b",
      "normalTexture": {
        "index": 78,
        "scale": 0.3499999940395355
      },
      "pbrMetallicRoughness": {
        "baseColorTexture": {
          "index": 79
        },
        "metallicFactor": 0,
        "metallicRoughnessTexture": {
          "index": 80
        }
      }
    },
    {
      "name": "M_enamel_b",
      "normalTexture": {
        "index": 81,
        "scale": 0.3499999940395355
      },
      "pbrMetallicRoughness": {
        "baseColorTexture": {
          "index": 82
        },
        "metallicFactor": 0,
        "metallicRoughnessTexture": {
          "index": 83
        }
      }
    },
    {
      "name": "M_felt_violet_b",
      "normalTexture": {
        "index": 84,
        "scale": 0.3499999940395355
      },
      "pbrMetallicRoughness": {
        "baseColorTexture": {
          "index": 85
        },
        "metallicFactor": 0,
        "metallicRoughnessTexture": {
          "index": 86
        }
      }
    },
    {
      "name": "M_lacquer_red_b",
      "normalTexture": {
        "index": 87,
        "scale": 0.3499999940395355
      },
      "pbrMetallicRoughness": {
        "baseColorTexture": {
          "index": 88
        },
        "metallicFactor": 0,
        "metallicRoughnessTexture": {
          "index": 89
        }
      }
    },
    {
      "doubleSided": true,
      "name": "M_screen",
      "pbrMetallicRoughness": {
        "baseColorFactor": [
          0.07000000029802322,
          0.07999999821186066,
          0.09000000357627869,
          1
        ],
        "metallicFactor": 0,
        "roughnessFactor": 0.25
      }
    },
    {
      "name": "M_awning_vinyl",
      "normalTexture": {
        "index": 90,
        "scale": 0.3499999940395355
      },
      "pbrMetallicRoughness": {
        "baseColorTexture": {
          "index": 91
        },
        "metallicFactor": 0,
        "metallicRoughnessTexture": {
          "index": 92
        }
      }
    }
  ],
  "meshes": [
    {
      "name": "F01_OWN_SHOP_PHOTO_SUPPLIES_retail_shop_photo_supplies_awning_vinyl-col",
      "primitives": [
        {
          "attributes": {
            "NORMAL": 11,
            "POSITION": 10,
            "TEXCOORD_0": 12
          },
          "indices": 2,
          "material": 32
        }
      ]
    },
    {
      "name": "F01_OWN_SHOP_PHOTO_SUPPLIES_retail_shop_photo_supplies_bakelite",
      "primitives": [
        {
          "attributes": {
            "NORMAL": 14,
            "POSITION": 13,
            "TEXCOORD_0": 15
          },
          "indices": 16,
          "material": 27
        }
      ]
    },
    {
      "name": "F01_OWN_SHOP_PHOTO_SUPPLIES_retail_shop_photo_supplies_bakelite_black",
      "primitives": [
        {
          "attributes": {
            "NORMAL": 18,
            "POSITION": 17,
            "TEXCOORD_0": 19
          },
          "indices": 20,
          "material": 11
        }
      ]
    },
    {
      "name": "F01_OWN_SHOP_PHOTO_SUPPLIES_retail_shop_photo_supplies_bakelite_black-col",
      "primitives": [
        {
          "attributes": {
            "NORMAL": 22,
            "POSITION": 21,
            "TEXCOORD_0": 23
          },
          "indices": 1,
          "material": 11
        }
      ]
    },
    {
      "name": "F01_OWN_SHOP_PHOTO_SUPPLIES_retail_shop_photo_supplies_book_ochre-col",
      "primitives": [
        {
          "attributes": {
            "NORMAL": 25,
            "POSITION": 24,
            "TEXCOORD_0": 26
          },
          "indices": 4,
          "material": 12
        }
      ]
    },
    {
      "name": "F01_OWN_SHOP_PHOTO_SUPPLIES_retail_shop_photo_supplies_book_teal-col",
      "primitives": [
        {
          "attributes": {
            "NORMAL": 28,
            "POSITION": 27,
            "TEXCOORD_0": 29
          },
          "indices": 4,
          "material": 13
        }
      ]
    },
    {
      "name": "F01_OWN_SHOP_PHOTO_SUPPLIES_retail_shop_photo_supplies_brass",
      "primitives": [
        {
          "attributes": {
            "NORMAL": 31,
            "POSITION": 30,
            "TEXCOORD_0": 32
          },
          "indices": 0,
          "material": 1
        }
      ]
    },
    {
      "name": "F01_OWN_SHOP_PHOTO_SUPPLIES_retail_shop_photo_supplies_brass_bright-col",
      "primitives": [
        {
          "attributes": {
            "NORMAL": 34,
            "POSITION": 33,
            "TEXCOORD_0": 35
          },
          "indices": 0,
          "material": 14
        }
      ]
    },
    {
      "name": "F01_OWN_SHOP_PHOTO_SUPPLIES_retail_shop_photo_supplies_brass_dull-col",
      "primitives": [
        {
          "attributes": {
            "NORMAL": 37,
            "POSITION": 36,
            "TEXCOORD_0": 38
          },
          "indices": 4,
          "material": 15
        }
      ]
    },
    {
      "name": "F01_OWN_SHOP_PHOTO_SUPPLIES_retail_shop_photo_supplies_cast_iron-col",
      "primitives": [
        {
          "attributes": {
            "NORMAL": 40,
            "POSITION": 39,
            "TEXCOORD_0": 41
          },
          "indices": 1,
          "material": 2
        }
      ]
    },
    {
      "name": "F01_OWN_SHOP_PHOTO_SUPPLIES_retail_shop_photo_supplies_chrome",
      "primitives": [
        {
          "attributes": {
            "NORMAL": 43,
            "POSITION": 42,
            "TEXCOORD_0": 44
          },
          "indices": 0,
          "material": 16
        }
      ]
    },
    {
      "name": "F01_OWN_SHOP_PHOTO_SUPPLIES_retail_shop_photo_supplies_concrete-col",
      "primitives": [
        {
          "attributes": {
            "NORMAL": 46,
            "POSITION": 45,
            "TEXCOORD_0": 47
          },
          "indices": 0,
          "material": 10
        }
      ]
    },
    {
      "name": "F01_OWN_SHOP_PHOTO_SUPPLIES_retail_shop_photo_supplies_enamel",
      "primitives": [
        {
          "attributes": {
            "NORMAL": 49,
            "POSITION": 48,
            "TEXCOORD_0": 50
          },
          "indices": 51,
          "material": 28
        }
      ]
    },
    {
      "name": "F01_OWN_SHOP_PHOTO_SUPPLIES_retail_shop_photo_supplies_enamel-col",
      "primitives": [
        {
          "attributes": {
            "NORMAL": 53,
            "POSITION": 52,
            "TEXCOORD_0": 54
          },
          "indices": 4,
          "material": 28
        }
      ]
    },
    {
      "name": "F01_OWN_SHOP_PHOTO_SUPPLIES_retail_shop_photo_supplies_felt_violet-col",
      "primitives": [
        {
          "attributes": {
            "NORMAL": 56,
            "POSITION": 55,
            "TEXCOORD_0": 57
          },
          "indices": 0,
          "material": 29
        }
      ]
    },
    {
      "name": "F01_OWN_SHOP_PHOTO_SUPPLIES_retail_shop_photo_supplies_fx_shadow",
      "primitives": [
        {
          "attributes": {
            "NORMAL": 59,
            "POSITION": 58,
            "TEXCOORD_0": 60
          },
          "indices": 3,
          "material": 17
        }
      ]
    },
    {
      "name": "F01_OWN_SHOP_PHOTO_SUPPLIES_retail_shop_photo_supplies_glassish-col",
      "primitives": [
        {
          "attributes": {
            "NORMAL": 62,
            "POSITION": 61,
            "TEXCOORD_0": 63
          },
          "indices": 5,
          "material": 3
        }
      ]
    },
    {
      "name": "F01_OWN_SHOP_PHOTO_SUPPLIES_retail_shop_photo_supplies_hull-colonly",
      "primitives": [
        {
          "attributes": {
            "NORMAL": 65,
            "POSITION": 64,
            "TEXCOORD_0": 66
          },
          "indices": 0,
          "material": 18
        }
      ]
    },
    {
      "name": "F01_OWN_SHOP_PHOTO_SUPPLIES_retail_shop_photo_supplies_lacquer_red-col",
      "primitives": [
        {
          "attributes": {
            "NORMAL": 68,
            "POSITION": 67,
            "TEXCOORD_0": 69
          },
          "indices": 8,
          "material": 30
        }
      ]
    },
    {
      "name": "F01_OWN_SHOP_PHOTO_SUPPLIES_retail_shop_photo_supplies_linoleum-col",
      "primitives": [
        {
          "attributes": {
            "NORMAL": 71,
            "POSITION": 70,
            "TEXCOORD_0": 72
          },
          "indices": 0,
          "material": 24
        }
      ]
    },
    {
      "name": "F01_OWN_SHOP_PHOTO_SUPPLIES_retail_shop_photo_supplies_metal-col",
      "primitives": [
        {
          "attributes": {
            "NORMAL": 74,
            "POSITION": 73,
            "TEXCOORD_0": 75
          },
          "indices": 7,
          "material": 0
        }
      ]
    },
    {
      "name": "F01_OWN_SHOP_PHOTO_SUPPLIES_retail_shop_photo_supplies_milk_glass",
      "primitives": [
        {
          "attributes": {
            "NORMAL": 77,
            "POSITION": 76,
            "TEXCOORD_0": 78
          },
          "indices": 0,
          "material": 26
        }
      ]
    },
    {
      "name": "F01_OWN_SHOP_PHOTO_SUPPLIES_retail_shop_photo_supplies_nickel_plated-col",
      "primitives": [
        {
          "attributes": {
            "NORMAL": 80,
            "POSITION": 79,
            "TEXCOORD_0": 81
          },
          "indices": 7,
          "material": 19
        }
      ]
    },
    {
      "name": "F01_OWN_SHOP_PHOTO_SUPPLIES_retail_shop_photo_supplies_paper-col",
      "primitives": [
        {
          "attributes": {
            "NORMAL": 83,
            "POSITION": 82,
            "TEXCOORD_0": 84
          },
          "indices": 6,
          "material": 20
        }
      ]
    },
    {
      "name": "F01_OWN_SHOP_PHOTO_SUPPLIES_retail_shop_photo_supplies_plaster-col",
      "primitives": [
        {
          "attributes": {
            "NORMAL": 86,
            "POSITION": 85,
            "TEXCOORD_0": 87
          },
          "indices": 8,
          "material": 7
        }
      ]
    },
    {
      "name": "F01_OWN_SHOP_PHOTO_SUPPLIES_retail_shop_photo_supplies_plaster_stained-col",
      "primitives": [
        {
          "attributes": {
            "NORMAL": 89,
            "POSITION": 88,
            "TEXCOORD_0": 90
          },
          "indices": 6,
          "material": 8
        }
      ]
    },
    {
      "name": "F01_OWN_SHOP_PHOTO_SUPPLIES_retail_shop_photo_supplies_plywood-col",
      "primitives": [
        {
          "attributes": {
            "NORMAL": 92,
            "POSITION": 91,
            "TEXCOORD_0": 93
          },
          "indices": 0,
          "material": 4
        }
      ]
    },
    {
      "name": "F01_OWN_SHOP_PHOTO_SUPPLIES_retail_shop_photo_supplies_screen",
      "primitives": [
        {
          "attributes": {
            "NORMAL": 95,
            "POSITION": 94,
            "TEXCOORD_0": 96
          },
          "indices": 0,
          "material": 31
        }
      ]
    },
    {
      "name": "F01_OWN_SHOP_PHOTO_SUPPLIES_retail_shop_photo_supplies_terracotta",
      "primitives": [
        {
          "attributes": {
            "NORMAL": 98,
            "POSITION": 97,
            "TEXCOORD_0": 99
          },
          "indices": 100,
          "material": 21
        }
      ]
    },
    {
      "name": "F01_OWN_SHOP_PHOTO_SUPPLIES_retail_shop_photo_supplies_timber-col",
      "primitives": [
        {
          "attributes": {
            "NORMAL": 102,
            "POSITION": 101,
            "TEXCOORD_0": 103
          },
          "indices": 6,
          "material": 22
        }
      ]
    },
    {
      "name": "F01_OWN_SHOP_PHOTO_SUPPLIES_retail_shop_photo_supplies_tin_ceiling-col",
      "primitives": [
        {
          "attributes": {
            "NORMAL": 105,
            "POSITION": 104,
            "TEXCOORD_0": 106
          },
          "indices": 0,
          "material": 9
        }
      ]
    },
    {
      "name": "F01_OWN_SHOP_PHOTO_SUPPLIES_retail_shop_photo_supplies_trim-col",
      "primitives": [
        {
          "attributes": {
            "NORMAL": 108,
            "POSITION": 107,
            "TEXCOORD_0": 109
          },
          "indices": 4,
          "material": 5
        }
      ]
    },
    {
      "name": "F01_OWN_SHOP_PHOTO_SUPPLIES_retail_shop_photo_supplies_wainscot-col",
      "primitives": [
        {
          "attributes": {
            "NORMAL": 111,
            "POSITION": 110,
            "TEXCOORD_0": 112
          },
          "indices": 1,
          "material": 25
        }
      ]
    },
    {
      "name": "F01_OWN_SHOP_PHOTO_SUPPLIES_retail_shop_photo_supplies_wood_dark-col",
      "primitives": [
        {
          "attributes": {
            "NORMAL": 114,
            "POSITION": 113,
            "TEXCOORD_0": 115
          },
          "indices": 9,
          "material": 23
        }
      ]
    },
    {
      "name": "F01_OWN_SHOP_PHOTO_SUPPLIES_wear_fx_scuff",
      "primitives": [
        {
          "attributes": {
            "NORMAL": 117,
            "POSITION": 116,
            "TEXCOORD_0": 118
          },
          "indices": 3,
          "material": 6
        }
      ]
    }
  ],
  "nodes": [
    {
      "mesh": 0,
      "name": "F01_OWN_SHOP_PHOTO_SUPPLIES_retail_shop_photo_supplies_awning_vinyl-col"
    },
    {
      "mesh": 1,
      "name": "F01_OWN_SHOP_PHOTO_SUPPLIES_retail_shop_photo_supplies_bakelite"
    },
    {
      "mesh": 2,
      "name": "F01_OWN_SHOP_PHOTO_SUPPLIES_retail_shop_photo_supplies_bakelite_black"
    },
    {
      "mesh": 3,
      "name": "F01_OWN_SHOP_PHOTO_SUPPLIES_retail_shop_photo_supplies_bakelite_black-col"
    },
    {
      "mesh": 4,
      "name": "F01_OWN_SHOP_PHOTO_SUPPLIES_retail_shop_photo_supplies_book_ochre-col"
    },
    {
      "mesh": 5,
      "name": "F01_OWN_SHOP_PHOTO_SUPPLIES_retail_shop_photo_supplies_book_teal-col"
    },
    {
      "mesh": 6,
      "name": "F01_OWN_SHOP_PHOTO_SUPPLIES_retail_shop_photo_supplies_brass"
    },
    {
      "mesh": 7,
      "name": "F01_OWN_SHOP_PHOTO_SUPPLIES_retail_shop_photo_supplies_brass_bright-col"
    },
    {
      "mesh": 8,
      "name": "F01_OWN_SHOP_PHOTO_SUPPLIES_retail_shop_photo_supplies_brass_dull-col"
    },
    {
      "mesh": 9,
      "name": "F01_OWN_SHOP_PHOTO_SUPPLIES_retail_shop_photo_supplies_cast_iron-col"
    },
    {
      "mesh": 10,
      "name": "F01_OWN_SHOP_PHOTO_SUPPLIES_retail_shop_photo_supplies_chrome"
    },
    {
      "mesh": 11,
      "name": "F01_OWN_SHOP_PHOTO_SUPPLIES_retail_shop_photo_supplies_concrete-col"
    },
    {
      "mesh": 12,
      "name": "F01_OWN_SHOP_PHOTO_SUPPLIES_retail_shop_photo_supplies_enamel"
    },
    {
      "mesh": 13,
      "name": "F01_OWN_SHOP_PHOTO_SUPPLIES_retail_shop_photo_supplies_enamel-col"
    },
    {
      "mesh": 14,
      "name": "F01_OWN_SHOP_PHOTO_SUPPLIES_retail_shop_photo_supplies_felt_violet-col"
    },
    {
      "mesh": 15,
      "name": "F01_OWN_SHOP_PHOTO_SUPPLIES_retail_shop_photo_supplies_fx_shadow"
    },
    {
      "mesh": 16,
      "name": "F01_OWN_SHOP_PHOTO_SUPPLIES_retail_shop_photo_supplies_glassish-col"
    },
    {
      "mesh": 17,
      "name": "F01_OWN_SHOP_PHOTO_SUPPLIES_retail_shop_photo_supplies_hull-colonly"
    },
    {
      "mesh": 18,
      "name": "F01_OWN_SHOP_PHOTO_SUPPLIES_retail_shop_photo_supplies_lacquer_red-col"
    },
    {
      "mesh": 19,
      "name": "F01_OWN_SHOP_PHOTO_SUPPLIES_retail_shop_photo_supplies_linoleum-col"
    },
    {
      "mesh": 20,
      "name": "F01_OWN_SHOP_PHOTO_SUPPLIES_retail_shop_photo_supplies_metal-col"
    },
    {
      "mesh": 21,
      "name": "F01_OWN_SHOP_PHOTO_SUPPLIES_retail_shop_photo_supplies_milk_glass"
    },
    {
      "mesh": 22,
      "name": "F01_OWN_SHOP_PHOTO_SUPPLIES_retail_shop_photo_supplies_nickel_plated-col"
    },
    {
      "mesh": 23,
      "name": "F01_OWN_SHOP_PHOTO_SUPPLIES_retail_shop_photo_supplies_paper-col"
    },
    {
      "mesh": 24,
      "name": "F01_OWN_SHOP_PHOTO_SUPPLIES_retail_shop_photo_supplies_plaster-col"
    },
    {
      "mesh": 25,
      "name": "F01_OWN_SHOP_PHOTO_SUPPLIES_retail_shop_photo_supplies_plaster_stained-col"
    },
    {
      "mesh": 26,
      "name": "F01_OWN_SHOP_PHOTO_SUPPLIES_retail_shop_photo_supplies_plywood-col"
    },
    {
      "mesh": 27,
      "name": "F01_OWN_SHOP_PHOTO_SUPPLIES_retail_shop_photo_supplies_screen"
    },
    {
      "mesh": 28,
      "name": "F01_OWN_SHOP_PHOTO_SUPPLIES_retail_shop_photo_supplies_terracotta"
    },
    {
      "mesh": 29,
      "name": "F01_OWN_SHOP_PHOTO_SUPPLIES_retail_shop_photo_supplies_timber-col"
    },
    {
      "mesh": 30,
      "name": "F01_OWN_SHOP_PHOTO_SUPPLIES_retail_shop_photo_supplies_tin_ceiling-col"
    },
    {
      "mesh": 31,
      "name": "F01_OWN_SHOP_PHOTO_SUPPLIES_retail_shop_photo_supplies_trim-col"
    },
    {
      "mesh": 32,
      "name": "F01_OWN_SHOP_PHOTO_SUPPLIES_retail_shop_photo_supplies_wainscot-col"
    },
    {
      "mesh": 33,
      "name": "F01_OWN_SHOP_PHOTO_SUPPLIES_retail_shop_photo_supplies_wood_dark-col"
    },
    {
      "mesh": 34,
      "name": "F01_OWN_SHOP_PHOTO_SUPPLIES_wear_fx_scuff"
    }
  ],
  "samplers": [
    {
      "magFilter": 9729,
      "minFilter": 9987
    }
  ],
  "scene": 0,
  "scenes": [
    {
      "name": "Scene_shop_photo_supplies",
      "nodes": [
        0,
        1,
        2,
        3,
        4,
        5,
        6,
        7,
        8,
        9,
        10,
        11,
        12,
        13,
        14,
        15,
        16,
        17,
        18,
        19,
        20,
        21,
        22,
        23,
        24,
        25,
        26,
        27,
        28,
        29,
        30,
        31,
        32,
        33,
        34
      ]
    }
  ],
  "textures": [
    {
      "sampler": 0,
      "source": 0
    },
    {
      "sampler": 0,
      "source": 1
    },
    {
      "sampler": 0,
      "source": 2
    },
    {
      "sampler": 0,
      "source": 3
    },
    {
      "sampler": 0,
      "source": 4
    },
    {
      "sampler": 0,
      "source": 5
    },
    {
      "sampler": 0,
      "source": 6
    },
    {
      "sampler": 0,
      "source": 7
    },
    {
      "sampler": 0,
      "source": 8
    },
    {
      "sampler": 0,
      "source": 9
    },
    {
      "sampler": 0,
      "source": 10
    },
    {
      "sampler": 0,
      "source": 11
    },
    {
      "sampler": 0,
      "source": 12
    },
    {
      "sampler": 0,
      "source": 13
    },
    {
      "sampler": 0,
      "source": 14
    },
    {
      "sampler": 0,
      "source": 15
    },
    {
      "sampler": 0,
      "source": 16
    },
    {
      "sampler": 0,
      "source": 17
    },
    {
      "sampler": 0,
      "source": 18
    },
    {
      "sampler": 0,
      "source": 19
    },
    {
      "sampler": 0,
      "source": 20
    },
    {
      "sampler": 0,
      "source": 21
    },
    {
      "sampler": 0,
      "source": 22
    },
    {
      "sampler": 0,
      "source": 23
    },
    {
      "sampler": 0,
      "source": 24
    },
    {
      "sampler": 0,
      "source": 25
    },
    {
      "sampler": 0,
      "source": 26
    },
    {
      "sampler": 0,
      "source": 27
    },
    {
      "sampler": 0,
      "source": 28
    },
    {
      "sampler": 0,
      "source": 29
    },
    {
      "sampler": 0,
      "source": 30
    },
    {
      "sampler": 0,
      "source": 31
    },
    {
      "sampler": 0,
      "source": 32
    },
    {
      "sampler": 0,
      "source": 33
    },
    {
      "sampler": 0,
      "source": 34
    },
    {
      "sampler": 0,
      "source": 35
    },
    {
      "sampler": 0,
      "source": 36
    },
    {
      "sampler": 0,
      "source": 37
    },
    {
      "sampler": 0,
      "source": 38
    },
    {
      "sampler": 0,
      "source": 39
    },
    {
      "sampler": 0,
      "source": 40
    },
    {
      "sampler": 0,
      "source": 41
    },
    {
      "sampler": 0,
      "source": 42
    },
    {
      "sampler": 0,
      "source": 43
    },
    {
      "sampler": 0,
      "source": 44
    },
    {
      "sampler": 0,
      "source": 45
    },
    {
      "sampler": 0,
      "source": 46
    },
    {
      "sampler": 0,
      "source": 47
    },
    {
      "sampler": 0,
      "source": 48
    },
    {
      "sampler": 0,
      "source": 49
    },
    {
      "sampler": 0,
      "source": 50
    },
    {
      "sampler": 0,
      "source": 51
    },
    {
      "sampler": 0,
      "source": 52
    },
    {
      "sampler": 0,
      "source": 53
    },
    {
      "sampler": 0,
      "source": 54
    },
    {
      "sampler": 0,
      "source": 55
    },
    {
      "sampler": 0,
      "source": 56
    },
    {
      "sampler": 0,
      "source": 57
    },
    {
      "sampler": 0,
      "source": 58
    },
    {
      "sampler": 0,
      "source": 59
    },
    {
      "sampler": 0,
      "source": 60
    },
    {
      "sampler": 0,
      "source": 61
    },
    {
      "sampler": 0,
      "source": 62
    },
    {
      "sampler": 0,
      "source": 63
    },
    {
      "sampler": 0,
      "source": 64
    },
    {
      "sampler": 0,
      "source": 65
    },
    {
      "sampler": 0,
      "source": 66
    },
    {
      "sampler": 0,
      "source": 67
    },
    {
      "sampler": 0,
      "source": 68
    },
    {
      "sampler": 0,
      "source": 69
    },
    {
      "sampler": 0,
      "source": 70
    },
    {
      "sampler": 0,
      "source": 71
    },
    {
      "sampler": 0,
      "source": 72
    },
    {
      "sampler": 0,
      "source": 73
    },
    {
      "sampler": 0,
      "source": 74
    },
    {
      "sampler": 0,
      "source": 75
    },
    {
      "sampler": 0,
      "source": 76
    },
    {
      "sampler": 0,
      "source": 77
    },
    {
      "sampler": 0,
      "source": 78
    },
    {
      "sampler": 0,
      "source": 79
    },
    {
      "sampler": 0,
      "source": 80
    },
    {
      "sampler": 0,
      "source": 81
    },
    {
      "sampler": 0,
      "source": 82
    },
    {
      "sampler": 0,
      "source": 83
    },
    {
      "sampler": 0,
      "source": 84
    },
    {
      "sampler": 0,
      "source": 85
    },
    {
      "sampler": 0,
      "source": 86
    },
    {
      "sampler": 0,
      "source": 87
    },
    {
      "sampler": 0,
      "source": 88
    },
    {
      "sampler": 0,
      "source": 89
    },
    {
      "sampler": 0,
      "source": 90
    },
    {
      "sampler": 0,
      "source": 91
    },
    {
      "sampler": 0,
      "source": 92
    }
  ]
}
