{
  "accessors": [
    {
      "bufferView": 0,
      "componentType": 5123,
      "count": 36,
      "type": "SCALAR"
    },
    {
      "bufferView": 1,
      "componentType": 5123,
      "count": 108,
      "type": "SCALAR"
    },
    {
      "bufferView": 2,
      "componentType": 5123,
      "count": 6,
      "type": "SCALAR"
    },
    {
      "bufferView": 3,
      "componentType": 5123,
      "count": 432,
      "type": "SCALAR"
    },
    {
      "bufferView": 4,
      "componentType": 5123,
      "count": 180,
      "type": "SCALAR"
    },
    {
      "bufferView": 5,
      "componentType": 5123,
      "count": 144,
      "type": "SCALAR"
    },
    {
      "bufferView": 6,
      "componentType": 5123,
      "count": 252,
      "type": "SCALAR"
    },
    {
      "bufferView": 7,
      "componentType": 5123,
      "count": 216,
      "type": "SCALAR"
    },
    {
      "bufferView": 8,
      "componentType": 5123,
      "count": 540,
      "type": "SCALAR"
    },
    {
      "bufferView": 9,
      "componentType": 5123,
      "count": 468,
      "type": "SCALAR"
    },
    {
      "bufferView": 10,
      "componentType": 5123,
      "count": 828,
      "type": "SCALAR"
    },
    {
      "bufferView": 11,
      "componentType": 5123,
      "count": 384,
      "type": "SCALAR"
    },
    {
      "bufferView": 12,
      "componentType": 5123,
      "count": 384,
      "type": "SCALAR"
    },
    {
      "bufferView": 13,
      "componentType": 5123,
      "count": 192,
      "type": "SCALAR"
    },
    {
      "bufferView": 14,
      "componentType": 5126,
      "count": 200,
      "max": [
        18.844999313354492,
        0.029999999329447746,
        55.345001220703125
      ],
      "min": [
        18.2549991607666,
        0,
        54.69499969482422
      ],
      "type": "VEC3"
    },
    {
      "bufferView": 15,
      "componentType": 5126,
      "count": 200,
      "type": "VEC3"
    },
    {
      "bufferView": 16,
      "componentType": 5126,
      "count": 200,
      "type": "VEC2"
    },
    {
      "bufferView": 17,
      "componentType": 5126,
      "count": 232,
      "max": [
        18.860000610351562,
        1.590000033378601,
        55.2599983215332
      ],
      "min": [
        18.21500015258789,
        0.30000001192092896,
        54.529998779296875
      ],
      "type": "VEC3"
    },
    {
      "bufferView": 18,
      "componentType": 5126,
      "count": 232,
      "type": "VEC3"
    },
    {
      "bufferView": 19,
      "componentType": 5126,
      "count": 232,
      "type": "VEC2"
    },
    {
      "bufferView": 20,
      "componentType": 5126,
      "count": 24,
      "max": [
        21.760000228881836,
        1.2599999904632568,
        53.02000045776367
      ],
      "min": [
        21.600000381469727,
        1.2000000476837158,
        52.880001068115234
      ],
      "type": "VEC3"
    },
    {
      "bufferView": 21,
      "componentType": 5126,
      "count": 24,
      "type": "VEC3"
    },
    {
      "bufferView": 22,
      "componentType": 5126,
      "count": 24,
      "type": "VEC2"
    },
    {
      "bufferView": 23,
      "componentType": 5126,
      "count": 24,
      "max": [
        18.639999389648438,
        0.550000011920929,
        54.65999984741211
      ],
      "min": [
        18.459999084472656,
        0.3799999952316284,
        54.64799880981445
      ],
      "type": "VEC3"
    },
    {
      "bufferView": 24,
      "componentType": 5126,
      "count": 24,
      "type": "VEC3"
    },
    {
      "bufferView": 25,
      "componentType": 5126,
      "count": 24,
      "type": "VEC2"
    },
    {
      "bufferView": 26,
      "componentType": 5126,
      "count": 72,
      "max": [
        16.979999542236328,
        3.4200000762939453,
        55.380001068115234
      ],
      "min": [
        15.699999809265137,
        1.3200000524520874,
        51.220001220703125
      ],
      "type": "VEC3"
    },
    {
      "bufferView": 27,
      "componentType": 5126,
      "count": 72,
      "type": "VEC3"
    },
    {
      "bufferView": 28,
      "componentType": 5126,
      "count": 72,
      "type": "VEC2"
    },
    {
      "bufferView": 29,
      "componentType": 5126,
      "count": 312,
      "max": [
        22.1200008392334,
        2.5399999618530273,
        55.47999954223633
      ],
      "min": [
        18.360000610351562,
        0.9599999785423279,
        51.119998931884766
      ],
      "type": "VEC3"
    },
    {
      "bufferView": 30,
      "componentType": 5126,
      "count": 312,
      "type": "VEC3"
    },
    {
      "bufferView": 31,
      "componentType": 5126,
      "count": 312,
      "type": "VEC2"
    },
    {
      "bufferView": 32,
      "componentType": 5126,
      "count": 24,
      "max": [
        22,
        2.130000114440918,
        54.79999923706055
      ],
      "min": [
        21.940000534057617,
        1.1799999475479126,
        51.79999923706055
      ],
      "type": "VEC3"
    },
    {
      "bufferView": 33,
      "componentType": 5126,
      "count": 24,
      "type": "VEC3"
    },
    {
      "bufferView": 34,
      "componentType": 5126,
      "count": 24,
      "type": "VEC2"
    },
    {
      "bufferView": 35,
      "componentType": 5126,
      "count": 96,
      "max": [
        16.985000610351562,
        2.0850000381469727,
        55.459999084472656
      ],
      "min": [
        16.84000015258789,
        0.5149999856948853,
        52.54999923706055
      ],
      "type": "VEC3"
    },
    {
      "bufferView": 36,
      "componentType": 5126,
      "count": 96,
      "type": "VEC3"
    },
    {
      "bufferView": 37,
      "componentType": 5126,
      "count": 96,
      "type": "VEC2"
    },
    {
      "bufferView": 38,
      "componentType": 5126,
      "count": 24,
      "max": [
        22.5,
        1.1299999952316284,
        52.220001220703125
      ],
      "min": [
        21.719999313354492,
        0.05000000074505806,
        51.380001068115234
      ],
      "type": "VEC3"
    },
    {
      "bufferView": 39,
      "componentType": 5126,
      "count": 24,
      "type": "VEC3"
    },
    {
      "bufferView": 40,
      "componentType": 5126,
      "count": 24,
      "type": "VEC2"
    },
    {
      "bufferView": 41,
      "componentType": 5126,
      "count": 168,
      "max": [
        17.079999923706055,
        4.199999809265137,
        55.65999984741211
      ],
      "min": [
        16.579999923706055,
        0,
        50.939998626708984
      ],
      "type": "VEC3"
    },
    {
      "bufferView": 42,
      "componentType": 5126,
      "count": 168,
      "type": "VEC3"
    },
    {
      "bufferView": 43,
      "componentType": 5126,
      "count": 168,
      "type": "VEC2"
    },
    {
      "bufferView": 44,
      "componentType": 5126,
      "count": 24,
      "max": [
        26.81999969482422,
        0.009999999776482582,
        55.5
      ],
      "min": [
        24.219999313354492,
        -0.05000000074505806,
        51.099998474121094
      ],
      "type": "VEC3"
    },
    {
      "bufferView": 45,
      "componentType": 5126,
      "count": 24,
      "type": "VEC3"
    },
    {
      "bufferView": 46,
      "componentType": 5126,
      "count": 24,
      "type": "VEC2"
    },
    {
      "bufferView": 47,
      "componentType": 5126,
      "count": 24,
      "max": [
        22.299999237060547,
        1.1799999475479126,
        54.84000015258789
      ],
      "min": [
        21.600000381469727,
        1.1299999952316284,
        51.7599983215332
      ],
      "type": "VEC3"
    },
    {
      "bufferView": 48,
      "componentType": 5126,
      "count": 24,
      "type": "VEC3"
    },
    {
      "bufferView": 49,
      "componentType": 5126,
      "count": 24,
      "type": "VEC2"
    },
    {
      "bufferView": 50,
      "componentType": 5126,
      "count": 100,
      "max": [
        18.615999221801758,
        1.0750000476837158,
        54.611000061035156
      ],
      "min": [
        18.464000701904297,
        1.059999942779541,
        54.57899856567383
      ],
      "type": "VEC3"
    },
    {
      "bufferView": 51,
      "componentType": 5126,
      "count": 100,
      "type": "VEC3"
    },
    {
      "bufferView": 52,
      "componentType": 5126,
      "count": 100,
      "type": "VEC2"
    },
    {
      "bufferView": 53,
      "componentType": 5126,
      "count": 24,
      "max": [
        22.3799991607666,
        1.399999976158142,
        53.220001220703125
      ],
      "min": [
        21.81999969482422,
        0.8600000143051147,
        52.58000183105469
      ],
      "type": "VEC3"
    },
    {
      "bufferView": 54,
      "componentType": 5126,
      "count": 24,
      "type": "VEC3"
    },
    {
      "bufferView": 55,
      "componentType": 5126,
      "count": 24,
      "type": "VEC2"
    },
    {
      "bufferView": 56,
      "componentType": 5126,
      "count": 24,
      "max": [
        18.8799991607666,
        1.6799999475479126,
        55.380001068115234
      ],
      "min": [
        18.219999313354492,
        0.019999999552965164,
        54.65999984741211
      ],
      "type": "VEC3"
    },
    {
      "bufferView": 57,
      "componentType": 5126,
      "count": 24,
      "type": "VEC3"
    },
    {
      "bufferView": 58,
      "componentType": 5126,
      "count": 24,
      "type": "VEC2"
    },
    {
      "bufferView": 59,
      "componentType": 5126,
      "count": 24,
      "max": [
        22.450000762939453,
        2.440000057220459,
        51.880001068115234
      ],
      "min": [
        21.940000534057617,
        1.4199999570846558,
        51.380001068115234
      ],
      "type": "VEC3"
    },
    {
      "bufferView": 60,
      "componentType": 5126,
      "count": 24,
      "type": "VEC3"
    },
    {
      "bufferView": 61,
      "componentType": 5126,
      "count": 24,
      "type": "VEC2"
    },
    {
      "bufferView": 62,
      "componentType": 5126,
      "count": 24,
      "max": [
        23,
        0.009999999776482582,
        55.5
      ],
      "min": [
        17,
        -0.05000000074505806,
        51.099998474121094
      ],
      "type": "VEC3"
    },
    {
      "bufferView": 63,
      "componentType": 5126,
      "count": 24,
      "type": "VEC3"
    },
    {
      "bufferView": 64,
      "componentType": 5126,
      "count": 24,
      "type": "VEC2"
    },
    {
      "bufferView": 65,
      "componentType": 5126,
      "count": 4,
      "max": [
        19.042400360107422,
        0.004000000189989805,
        55.488800048828125
      ],
      "min": [
        18.057600021362305,
        0.004000000189989805,
        54.41120147705078
      ],
      "type": "VEC3"
    },
    {
      "bufferView": 66,
      "componentType": 5126,
      "count": 4,
      "type": "VEC3"
    },
    {
      "bufferView": 67,
      "componentType": 5126,
      "count": 4,
      "type": "VEC2"
    },
    {
      "bufferView": 68,
      "componentType": 5126,
      "count": 120,
      "max": [
        22.985000610351562,
        3.049999952316284,
        55.459999084472656
      ],
      "min": [
        16.860000610351562,
        0.550000011920929,
        51.13999938964844
      ],
      "type": "VEC3"
    },
    {
      "bufferView": 69,
      "componentType": 5126,
      "count": 120,
      "type": "VEC3"
    },
    {
      "bufferView": 70,
      "componentType": 5126,
      "count": 120,
      "type": "VEC2"
    },
    {
      "bufferView": 71,
      "componentType": 5126,
      "count": 24,
      "max": [
        18.940000534057617,
        1.899999976158142,
        55.380001068115234
      ],
      "min": [
        18.15999984741211,
        0,
        54.52000045776367
      ],
      "type": "VEC3"
    },
    {
      "bufferView": 72,
      "componentType": 5126,
      "count": 24,
      "type": "VEC3"
    },
    {
      "bufferView": 73,
      "componentType": 5126,
      "count": 24,
      "type": "VEC2"
    },
    {
      "bufferView": 74,
      "componentType": 5126,
      "count": 288,
      "max": [
        22.799999237060547,
        2.309999942779541,
        54.939998626708984
      ],
      "min": [
        22.510000228881836,
        0.3199999928474426,
        51.6966667175293
      ],
      "type": "VEC3"
    },
    {
      "bufferView": 75,
      "componentType": 5126,
      "count": 288,
      "type": "VEC3"
    },
    {
      "bufferView": 76,
      "componentType": 5126,
      "count": 288,
      "type": "VEC2"
    },
    {
      "bufferView": 77,
      "componentType": 5126,
      "count": 24,
      "max": [
        16.739999771118164,
        3.4700000286102295,
        55.20000076293945
      ],
      "min": [
        15.680000305175781,
        3.4200000762939453,
        55.08000183105469
      ],
      "type": "VEC3"
    },
    {
      "bufferView": 78,
      "componentType": 5126,
      "count": 24,
      "type": "VEC3"
    },
    {
      "bufferView": 79,
      "componentType": 5126,
      "count": 24,
      "type": "VEC2"
    },
    {
      "bufferView": 80,
      "componentType": 5126,
      "count": 24,
      "max": [
        18.93000030517578,
        1.899999976158142,
        54.7599983215332
      ],
      "min": [
        18.170000076293945,
        1.6799999475479126,
        54.599998474121094
      ],
      "type": "VEC3"
    },
    {
      "bufferView": 81,
      "componentType": 5126,
      "count": 24,
      "type": "VEC3"
    },
    {
      "bufferView": 82,
      "componentType": 5126,
      "count": 24,
      "type": "VEC2"
    },
    {
      "bufferView": 83,
      "componentType": 5126,
      "count": 360,
      "max": [
        27.059999465942383,
        2.309999942779541,
        55.099998474121094
      ],
      "min": [
        21.420000076293945,
        0.3199999928474426,
        51.6966667175293
      ],
      "type": "VEC3"
    },
    {
      "bufferView": 84,
      "componentType": 5126,
      "count": 360,
      "type": "VEC3"
    },
    {
      "bufferView": 85,
      "componentType": 5126,
      "count": 360,
      "type": "VEC2"
    },
    {
      "bufferView": 86,
      "componentType": 5126,
      "count": 144,
      "max": [
        26.81999969482422,
        3.2799999713897705,
        55.5
      ],
      "min": [
        24.219999313354492,
        0.009999999776482582,
        51.099998474121094
      ],
      "type": "VEC3"
    },
    {
      "bufferView": 87,
      "componentType": 5126,
      "count": 144,
      "type": "VEC3"
    },
    {
      "bufferView": 88,
      "componentType": 5126,
      "count": 144,
      "type": "VEC2"
    },
    {
      "bufferView": 89,
      "componentType": 5126,
      "count": 96,
      "max": [
        23,
        3.259999990463257,
        55.5
      ],
      "min": [
        22.940000534057617,
        0.009999999776482582,
        51.099998474121094
      ],
      "type": "VEC3"
    },
    {
      "bufferView": 90,
      "componentType": 5126,
      "count": 96,
      "type": "VEC3"
    },
    {
      "bufferView": 91,
      "componentType": 5126,
      "count": 96,
      "type": "VEC2"
    },
    {
      "bufferView": 92,
      "componentType": 5126,
      "count": 24,
      "max": [
        17.579999923706055,
        1.5700000524520874,
        55.31999969482422
      ],
      "min": [
        17.540000915527344,
        0.41999998688697815,
        52.720001220703125
      ],
      "type": "VEC3"
    },
    {
      "bufferView": 93,
      "componentType": 5126,
      "count": 24,
      "type": "VEC3"
    },
    {
      "bufferView": 94,
      "componentType": 5126,
      "count": 24,
      "type": "VEC2"
    },
    {
      "bufferView": 95,
      "componentType": 5126,
      "count": 24,
      "max": [
        18.81999969482422,
        1.5499999523162842,
        54.665000915527344
      ],
      "min": [
        18.280000686645508,
        1.1399999856948853,
        54.654998779296875
      ],
      "type": "VEC3"
    },
    {
      "bufferView": 96,
      "componentType": 5126,
      "count": 24,
      "type": "VEC3"
    },
    {
      "bufferView": 97,
      "componentType": 5126,
      "count": 24,
      "type": "VEC2"
    },
    {
      "bufferView": 98,
      "componentType": 5126,
      "count": 98,
      "max": [
        18.940000534057617,
        1.7999999523162842,
        55.279998779296875
      ],
      "min": [
        18.15999984741211,
        0.550000011920929,
        54.57899856567383
      ],
      "type": "VEC3"
    },
    {
      "bufferView": 99,
      "componentType": 5126,
      "count": 98,
      "type": "VEC3"
    },
    {
      "bufferView": 100,
      "componentType": 5126,
      "count": 98,
      "type": "VEC2"
    },
    {
      "bufferView": 101,
      "componentType": 5123,
      "count": 168,
      "type": "SCALAR"
    },
    {
      "bufferView": 102,
      "componentType": 5126,
      "count": 96,
      "max": [
        22.860000610351562,
        1.965000033378601,
        55.04999923706055
      ],
      "min": [
        22.459999084472656,
        0.25999999046325684,
        51.54999923706055
      ],
      "type": "VEC3"
    },
    {
      "bufferView": 103,
      "componentType": 5126,
      "count": 96,
      "type": "VEC3"
    },
    {
      "bufferView": 104,
      "componentType": 5126,
      "count": 96,
      "type": "VEC2"
    },
    {
      "bufferView": 105,
      "componentType": 5126,
      "count": 24,
      "max": [
        23,
        3.549999952316284,
        55.5
      ],
      "min": [
        17,
        3.299999952316284,
        51.099998474121094
      ],
      "type": "VEC3"
    },
    {
      "bufferView": 106,
      "componentType": 5126,
      "count": 24,
      "type": "VEC3"
    },
    {
      "bufferView": 107,
      "componentType": 5126,
      "count": 24,
      "type": "VEC2"
    },
    {
      "bufferView": 108,
      "componentType": 5126,
      "count": 120,
      "max": [
        23,
        3.0999999046325684,
        54.9900016784668
      ],
      "min": [
        22.93000030517578,
        2.299999952316284,
        51.61000061035156
      ],
      "type": "VEC3"
    },
    {
      "bufferView": 109,
      "componentType": 5126,
      "count": 120,
      "type": "VEC3"
    },
    {
      "bufferView": 110,
      "componentType": 5126,
      "count": 120,
      "type": "VEC2"
    },
    {
      "bufferView": 111,
      "componentType": 5126,
      "count": 72,
      "max": [
        23,
        1.100000023841858,
        55.5
      ],
      "min": [
        17,
        0.05000000074505806,
        51.099998474121094
      ],
      "type": "VEC3"
    },
    {
      "bufferView": 112,
      "componentType": 5126,
      "count": 72,
      "type": "VEC3"
    },
    {
      "bufferView": 113,
      "componentType": 5126,
      "count": 72,
      "type": "VEC2"
    },
    {
      "bufferView": 114,
      "componentType": 5126,
      "count": 552,
      "max": [
        26.760000228881836,
        2.5399999618530273,
        55.45000076293945
      ],
      "min": [
        17.18000030517578,
        0.009999999776482582,
        51.1150016784668
      ],
      "type": "VEC3"
    },
    {
      "bufferView": 115,
      "componentType": 5126,
      "count": 552,
      "type": "VEC3"
    },
    {
      "bufferView": 116,
      "componentType": 5126,
      "count": 552,
      "type": "VEC2"
    },
    {
      "bufferView": 117,
      "componentType": 5126,
      "count": 4,
      "max": [
        17.110000610351562,
        0.006000000052154064,
        53.5
      ],
      "min": [
        16.209999084472656,
        0.006000000052154064,
        52.349998474121094
      ],
      "type": "VEC3"
    },
    {
      "bufferView": 118,
      "componentType": 5126,
      "count": 4,
      "type": "VEC3"
    },
    {
      "bufferView": 119,
      "componentType": 5126,
      "count": 4,
      "type": "VEC2"
    }
  ],
  "asset": {
    "extras": {
      "orison_bin_sha256": "98f78900ca59f236d1bc55ece6c94825c4abe942c057586001d272a62c75bdff",
      "orison_floor01_owner_first": {
        "cell_id": "CELL_SHOP_PAWNBROKER",
        "collision_name_contract": [
          "-col",
          "-colonly"
        ],
        "owner_before_material": true,
        "production_asset": true,
        "rollback_monolith_loaded_simultaneously": false,
        "schema": "orison.floor01.production-cell.v1",
        "spatial_inference_used": false
      }
    },
    "generator": "Khronos glTF Blender I/O v5.2.39",
    "version": "2.0"
  },
  "bufferViews": [
    {
      "buffer": 0,
      "byteLength": 72,
      "byteOffset": 0,
      "target": 34963
    },
    {
      "buffer": 0,
      "byteLength": 216,
      "byteOffset": 72,
      "target": 34963
    },
    {
      "buffer": 0,
      "byteLength": 12,
      "byteOffset": 288,
      "target": 34963
    },
    {
      "buffer": 0,
      "byteLength": 864,
      "byteOffset": 300,
      "target": 34963
    },
    {
      "buffer": 0,
      "byteLength": 360,
      "byteOffset": 1164,
      "target": 34963
    },
    {
      "buffer": 0,
      "byteLength": 288,
      "byteOffset": 1524,
      "target": 34963
    },
    {
      "buffer": 0,
      "byteLength": 504,
      "byteOffset": 1812,
      "target": 34963
    },
    {
      "buffer": 0,
      "byteLength": 432,
      "byteOffset": 2316,
      "target": 34963
    },
    {
      "buffer": 0,
      "byteLength": 1080,
      "byteOffset": 2748,
      "target": 34963
    },
    {
      "buffer": 0,
      "byteLength": 936,
      "byteOffset": 3828,
      "target": 34963
    },
    {
      "buffer": 0,
      "byteLength": 1656,
      "byteOffset": 4764,
      "target": 34963
    },
    {
      "buffer": 0,
      "byteLength": 768,
      "byteOffset": 6420,
      "target": 34963
    },
    {
      "buffer": 0,
      "byteLength": 768,
      "byteOffset": 7188,
      "target": 34963
    },
    {
      "buffer": 0,
      "byteLength": 384,
      "byteOffset": 7956,
      "target": 34963
    },
    {
      "buffer": 0,
      "byteLength": 2400,
      "byteOffset": 8340,
      "target": 34962
    },
    {
      "buffer": 0,
      "byteLength": 2400,
      "byteOffset": 10740,
      "target": 34962
    },
    {
      "buffer": 0,
      "byteLength": 1600,
      "byteOffset": 13140,
      "target": 34962
    },
    {
      "buffer": 0,
      "byteLength": 2784,
      "byteOffset": 14740,
      "target": 34962
    },
    {
      "buffer": 0,
      "byteLength": 2784,
      "byteOffset": 17524,
      "target": 34962
    },
    {
      "buffer": 0,
      "byteLength": 1856,
      "byteOffset": 20308,
      "target": 34962
    },
    {
      "buffer": 0,
      "byteLength": 288,
      "byteOffset": 22164,
      "target": 34962
    },
    {
      "buffer": 0,
      "byteLength": 288,
      "byteOffset": 22452,
      "target": 34962
    },
    {
      "buffer": 0,
      "byteLength": 192,
      "byteOffset": 22740,
      "target": 34962
    },
    {
      "buffer": 0,
      "byteLength": 288,
      "byteOffset": 22932,
      "target": 34962
    },
    {
      "buffer": 0,
      "byteLength": 288,
      "byteOffset": 23220,
      "target": 34962
    },
    {
      "buffer": 0,
      "byteLength": 192,
      "byteOffset": 23508,
      "target": 34962
    },
    {
      "buffer": 0,
      "byteLength": 864,
      "byteOffset": 23700,
      "target": 34962
    },
    {
      "buffer": 0,
      "byteLength": 864,
      "byteOffset": 24564,
      "target": 34962
    },
    {
      "buffer": 0,
      "byteLength": 576,
      "byteOffset": 25428,
      "target": 34962
    },
    {
      "buffer": 0,
      "byteLength": 3744,
      "byteOffset": 26004,
      "target": 34962
    },
    {
      "buffer": 0,
      "byteLength": 3744,
      "byteOffset": 29748,
      "target": 34962
    },
    {
      "buffer": 0,
      "byteLength": 2496,
      "byteOffset": 33492,
      "target": 34962
    },
    {
      "buffer": 0,
      "byteLength": 288,
      "byteOffset": 35988,
      "target": 34962
    },
    {
      "buffer": 0,
      "byteLength": 288,
      "byteOffset": 36276,
      "target": 34962
    },
    {
      "buffer": 0,
      "byteLength": 192,
      "byteOffset": 36564,
      "target": 34962
    },
    {
      "buffer": 0,
      "byteLength": 1152,
      "byteOffset": 36756,
      "target": 34962
    },
    {
      "buffer": 0,
      "byteLength": 1152,
      "byteOffset": 37908,
      "target": 34962
    },
    {
      "buffer": 0,
      "byteLength": 768,
      "byteOffset": 39060,
      "target": 34962
    },
    {
      "buffer": 0,
      "byteLength": 288,
      "byteOffset": 39828,
      "target": 34962
    },
    {
      "buffer": 0,
      "byteLength": 288,
      "byteOffset": 40116,
      "target": 34962
    },
    {
      "buffer": 0,
      "byteLength": 192,
      "byteOffset": 40404,
      "target": 34962
    },
    {
      "buffer": 0,
      "byteLength": 2016,
      "byteOffset": 40596,
      "target": 34962
    },
    {
      "buffer": 0,
      "byteLength": 2016,
      "byteOffset": 42612,
      "target": 34962
    },
    {
      "buffer": 0,
      "byteLength": 1344,
      "byteOffset": 44628,
      "target": 34962
    },
    {
      "buffer": 0,
      "byteLength": 288,
      "byteOffset": 45972,
      "target": 34962
    },
    {
      "buffer": 0,
      "byteLength": 288,
      "byteOffset": 46260,
      "target": 34962
    },
    {
      "buffer": 0,
      "byteLength": 192,
      "byteOffset": 46548,
      "target": 34962
    },
    {
      "buffer": 0,
      "byteLength": 288,
      "byteOffset": 46740,
      "target": 34962
    },
    {
      "buffer": 0,
      "byteLength": 288,
      "byteOffset": 47028,
      "target": 34962
    },
    {
      "buffer": 0,
      "byteLength": 192,
      "byteOffset": 47316,
      "target": 34962
    },
    {
      "buffer": 0,
      "byteLength": 1200,
      "byteOffset": 47508,
      "target": 34962
    },
    {
      "buffer": 0,
      "byteLength": 1200,
      "byteOffset": 48708,
      "target": 34962
    },
    {
      "buffer": 0,
      "byteLength": 800,
      "byteOffset": 49908,
      "target": 34962
    },
    {
      "buffer": 0,
      "byteLength": 288,
      "byteOffset": 50708,
      "target": 34962
    },
    {
      "buffer": 0,
      "byteLength": 288,
      "byteOffset": 50996,
      "target": 34962
    },
    {
      "buffer": 0,
      "byteLength": 192,
      "byteOffset": 51284,
      "target": 34962
    },
    {
      "buffer": 0,
      "byteLength": 288,
      "byteOffset": 51476,
      "target": 34962
    },
    {
      "buffer": 0,
      "byteLength": 288,
      "byteOffset": 51764,
      "target": 34962
    },
    {
      "buffer": 0,
      "byteLength": 192,
      "byteOffset": 52052,
      "target": 34962
    },
    {
      "buffer": 0,
      "byteLength": 288,
      "byteOffset": 52244,
      "target": 34962
    },
    {
      "buffer": 0,
      "byteLength": 288,
      "byteOffset": 52532,
      "target": 34962
    },
    {
      "buffer": 0,
      "byteLength": 192,
      "byteOffset": 52820,
      "target": 34962
    },
    {
      "buffer": 0,
      "byteLength": 288,
      "byteOffset": 53012,
      "target": 34962
    },
    {
      "buffer": 0,
      "byteLength": 288,
      "byteOffset": 53300,
      "target": 34962
    },
    {
      "buffer": 0,
      "byteLength": 192,
      "byteOffset": 53588,
      "target": 34962
    },
    {
      "buffer": 0,
      "byteLength": 48,
      "byteOffset": 53780,
      "target": 34962
    },
    {
      "buffer": 0,
      "byteLength": 48,
      "byteOffset": 53828,
      "target": 34962
    },
    {
      "buffer": 0,
      "byteLength": 32,
      "byteOffset": 53876,
      "target": 34962
    },
    {
      "buffer": 0,
      "byteLength": 1440,
      "byteOffset": 53908,
      "target": 34962
    },
    {
      "buffer": 0,
      "byteLength": 1440,
      "byteOffset": 55348,
      "target": 34962
    },
    {
      "buffer": 0,
      "byteLength": 960,
      "byteOffset": 56788,
      "target": 34962
    },
    {
      "buffer": 0,
      "byteLength": 288,
      "byteOffset": 57748,
      "target": 34962
    },
    {
      "buffer": 0,
      "byteLength": 288,
      "byteOffset": 58036,
      "target": 34962
    },
    {
      "buffer": 0,
      "byteLength": 192,
      "byteOffset": 58324,
      "target": 34962
    },
    {
      "buffer": 0,
      "byteLength": 3456,
      "byteOffset": 58516,
      "target": 34962
    },
    {
      "buffer": 0,
      "byteLength": 3456,
      "byteOffset": 61972,
      "target": 34962
    },
    {
      "buffer": 0,
      "byteLength": 2304,
      "byteOffset": 65428,
      "target": 34962
    },
    {
      "buffer": 0,
      "byteLength": 288,
      "byteOffset": 67732,
      "target": 34962
    },
    {
      "buffer": 0,
      "byteLength": 288,
      "byteOffset": 68020,
      "target": 34962
    },
    {
      "buffer": 0,
      "byteLength": 192,
      "byteOffset": 68308,
      "target": 34962
    },
    {
      "buffer": 0,
      "byteLength": 288,
      "byteOffset": 68500,
      "target": 34962
    },
    {
      "buffer": 0,
      "byteLength": 288,
      "byteOffset": 68788,
      "target": 34962
    },
    {
      "buffer": 0,
      "byteLength": 192,
      "byteOffset": 69076,
      "target": 34962
    },
    {
      "buffer": 0,
      "byteLength": 4320,
      "byteOffset": 69268,
      "target": 34962
    },
    {
      "buffer": 0,
      "byteLength": 4320,
      "byteOffset": 73588,
      "target": 34962
    },
    {
      "buffer": 0,
      "byteLength": 2880,
      "byteOffset": 77908,
      "target": 34962
    },
    {
      "buffer": 0,
      "byteLength": 1728,
      "byteOffset": 80788,
      "target": 34962
    },
    {
      "buffer": 0,
      "byteLength": 1728,
      "byteOffset": 82516,
      "target": 34962
    },
    {
      "buffer": 0,
      "byteLength": 1152,
      "byteOffset": 84244,
      "target": 34962
    },
    {
      "buffer": 0,
      "byteLength": 1152,
      "byteOffset": 85396,
      "target": 34962
    },
    {
      "buffer": 0,
      "byteLength": 1152,
      "byteOffset": 86548,
      "target": 34962
    },
    {
      "buffer": 0,
      "byteLength": 768,
      "byteOffset": 87700,
      "target": 34962
    },
    {
      "buffer": 0,
      "byteLength": 288,
      "byteOffset": 88468,
      "target": 34962
    },
    {
      "buffer": 0,
      "byteLength": 288,
      "byteOffset": 88756,
      "target": 34962
    },
    {
      "buffer": 0,
      "byteLength": 192,
      "byteOffset": 89044,
      "target": 34962
    },
    {
      "buffer": 0,
      "byteLength": 288,
      "byteOffset": 89236,
      "target": 34962
    },
    {
      "buffer": 0,
      "byteLength": 288,
      "byteOffset": 89524,
      "target": 34962
    },
    {
      "buffer": 0,
      "byteLength": 192,
      "byteOffset": 89812,
      "target": 34962
    },
    {
      "buffer": 0,
      "byteLength": 1176,
      "byteOffset": 90004,
      "target": 34962
    },
    {
      "buffer": 0,
      "byteLength": 1176,
      "byteOffset": 91180,
      "target": 34962
    },
    {
      "buffer": 0,
      "byteLength": 784,
      "byteOffset": 92356,
      "target": 34962
    },
    {
      "buffer": 0,
      "byteLength": 336,
      "byteOffset": 93140,
      "target": 34963
    },
    {
      "buffer": 0,
      "byteLength": 1152,
      "byteOffset": 93476,
      "target": 34962
    },
    {
      "buffer": 0,
      "byteLength": 1152,
      "byteOffset": 94628,
      "target": 34962
    },
    {
      "buffer": 0,
      "byteLength": 768,
      "byteOffset": 95780,
      "target": 34962
    },
    {
      "buffer": 0,
      "byteLength": 288,
      "byteOffset": 96548,
      "target": 34962
    },
    {
      "buffer": 0,
      "byteLength": 288,
      "byteOffset": 96836,
      "target": 34962
    },
    {
      "buffer": 0,
      "byteLength": 192,
      "byteOffset": 97124,
      "target": 34962
    },
    {
      "buffer": 0,
      "byteLength": 1440,
      "byteOffset": 97316,
      "target": 34962
    },
    {
      "buffer": 0,
      "byteLength": 1440,
      "byteOffset": 98756,
      "target": 34962
    },
    {
      "buffer": 0,
      "byteLength": 960,
      "byteOffset": 100196,
      "target": 34962
    },
    {
      "buffer": 0,
      "byteLength": 864,
      "byteOffset": 101156,
      "target": 34962
    },
    {
      "buffer": 0,
      "byteLength": 864,
      "byteOffset": 102020,
      "target": 34962
    },
    {
      "buffer": 0,
      "byteLength": 576,
      "byteOffset": 102884,
      "target": 34962
    },
    {
      "buffer": 0,
      "byteLength": 6624,
      "byteOffset": 103460,
      "target": 34962
    },
    {
      "buffer": 0,
      "byteLength": 6624,
      "byteOffset": 110084,
      "target": 34962
    },
    {
      "buffer": 0,
      "byteLength": 4416,
      "byteOffset": 116708,
      "target": 34962
    },
    {
      "buffer": 0,
      "byteLength": 48,
      "byteOffset": 121124,
      "target": 34962
    },
    {
      "buffer": 0,
      "byteLength": 48,
      "byteOffset": 121172,
      "target": 34962
    },
    {
      "buffer": 0,
      "byteLength": 32,
      "byteOffset": 121220,
      "target": 34962
    }
  ],
  "buffers": [
    {
      "byteLength": 121252,
      "uri": "shop_pawnbroker.bin"
    }
  ],
  "extensionsUsed": [
    "KHR_materials_specular"
  ],
  "images": [
    {
      "mimeType": "image/png",
      "name": "T_ai_materials_metal_b_normal",
      "uri": "../textures/T_ai_materials_metal_b_normal.png"
    },
    {
      "mimeType": "image/png",
      "name": "T_ai_materials_metal_b_albedo",
      "uri": "../textures/T_ai_materials_metal_b_albedo.png"
    },
    {
      "mimeType": "image/png",
      "name": "T_ai_materials_metal_b_rough",
      "uri": "../textures/T_ai_materials_metal_b_rough.png"
    },
    {
      "mimeType": "image/png",
      "name": "T_ai_materials_brass_b_normal",
      "uri": "../textures/T_ai_materials_brass_b_normal.png"
    },
    {
      "mimeType": "image/png",
      "name": "T_ai_materials_brass_b_albedo",
      "uri": "../textures/T_ai_materials_brass_b_albedo.png"
    },
    {
      "mimeType": "image/png",
      "name": "T_ai_materials_brass_b_rough",
      "uri": "../textures/T_ai_materials_brass_b_rough.png"
    },
    {
      "mimeType": "image/png",
      "name": "T_ai_materials_cast_iron_b_normal",
      "uri": "../textures/T_ai_materials_cast_iron_b_normal.png"
    },
    {
      "mimeType": "image/png",
      "name": "T_ai_materials_cast_iron_b_albedo",
      "uri": "../textures/T_ai_materials_cast_iron_b_albedo.png"
    },
    {
      "mimeType": "image/png",
      "name": "T_ai_materials_cast_iron_b_rough",
      "uri": "../textures/T_ai_materials_cast_iron_b_rough.png"
    },
    {
      "mimeType": "image/png",
      "name": "T_glass_normal",
      "uri": "../textures/T_glass_normal.png"
    },
    {
      "mimeType": "image/png",
      "name": "T_glass_rough",
      "uri": "../textures/T_glass_rough.png"
    },
    {
      "mimeType": "image/png",
      "name": "T_ai_materials_plywood_b_normal",
      "uri": "../textures/T_ai_materials_plywood_b_normal.png"
    },
    {
      "mimeType": "image/png",
      "name": "T_ai_materials_plywood_b_albedo",
      "uri": "../textures/T_ai_materials_plywood_b_albedo.png"
    },
    {
      "mimeType": "image/png",
      "name": "T_ai_materials_plywood_b_rough",
      "uri": "../textures/T_ai_materials_plywood_b_rough.png"
    },
    {
      "mimeType": "image/png",
      "name": "T_ai_materials_trim_b_normal",
      "uri": "../textures/T_ai_materials_trim_b_normal.png"
    },
    {
      "mimeType": "image/png",
      "name": "T_ai_materials_trim_b_albedo",
      "uri": "../textures/T_ai_materials_trim_b_albedo.png"
    },
    {
      "mimeType": "image/png",
      "name": "T_ai_materials_trim_b_rough",
      "uri": "../textures/T_ai_materials_trim_b_rough.png"
    },
    {
      "mimeType": "image/png",
      "name": "T_ai_materials_common_brick_b_normal",
      "uri": "../textures/T_ai_materials_common_brick_b_normal.png"
    },
    {
      "mimeType": "image/png",
      "name": "T_ai_materials_common_brick_b_albedo",
      "uri": "../textures/T_ai_materials_common_brick_b_albedo.png"
    },
    {
      "mimeType": "image/png",
      "name": "T_ai_materials_common_brick_b_rough",
      "uri": "../textures/T_ai_materials_common_brick_b_rough.png"
    },
    {
      "mimeType": "image/png",
      "name": "T_fx_fx_scuff_normal",
      "uri": "../textures/T_fx_fx_scuff_normal.png"
    },
    {
      "mimeType": "image/png",
      "name": "T_fx_fx_scuff",
      "uri": "../textures/T_fx_fx_scuff.png"
    },
    {
      "mimeType": "image/png",
      "name": "T_fx_fx_scuff_rough",
      "uri": "../textures/T_fx_fx_scuff_rough.png"
    },
    {
      "mimeType": "image/png",
      "name": "T_ai_materials_plaster_b_normal",
      "uri": "../textures/T_ai_materials_plaster_b_normal.png"
    },
    {
      "mimeType": "image/png",
      "name": "T_ai_materials_plaster_b_albedo",
      "uri": "../textures/T_ai_materials_plaster_b_albedo.png"
    },
    {
      "mimeType": "image/png",
      "name": "T_ai_materials_plaster_b_rough",
      "uri": "../textures/T_ai_materials_plaster_b_rough.png"
    },
    {
      "mimeType": "image/png",
      "name": "T_ai_materials_plaster_stained_b_normal",
      "uri": "../textures/T_ai_materials_plaster_stained_b_normal.png"
    },
    {
      "mimeType": "image/png",
      "name": "T_ai_materials_plaster_stained_b_albedo",
      "uri": "../textures/T_ai_materials_plaster_stained_b_albedo.png"
    },
    {
      "mimeType": "image/png",
      "name": "T_ai_materials_plaster_stained_b_rough",
      "uri": "../textures/T_ai_materials_plaster_stained_b_rough.png"
    },
    {
      "mimeType": "image/png",
      "name": "T_ai_materials_tin_ceiling_b_normal",
      "uri": "../textures/T_ai_materials_tin_ceiling_b_normal.png"
    },
    {
      "mimeType": "image/png",
      "name": "T_ai_materials_tin_ceiling_b_albedo",
      "uri": "../textures/T_ai_materials_tin_ceiling_b_albedo.png"
    },
    {
      "mimeType": "image/png",
      "name": "T_ai_materials_tin_ceiling_b_rough",
      "uri": "../textures/T_ai_materials_tin_ceiling_b_rough.png"
    },
    {
      "mimeType": "image/png",
      "name": "T_ai_materials_concrete_b_normal",
      "uri": "../textures/T_ai_materials_concrete_b_normal.png"
    },
    {
      "mimeType": "image/png",
      "name": "T_ai_materials_concrete_b_albedo",
      "uri": "../textures/T_ai_materials_concrete_b_albedo.png"
    },
    {
      "mimeType": "image/png",
      "name": "T_ai_materials_concrete_b_rough",
      "uri": "../textures/T_ai_materials_concrete_b_rough.png"
    },
    {
      "mimeType": "image/png",
      "name": "T_ai_materials_floor_oak_b_normal",
      "uri": "../textures/T_ai_materials_floor_oak_b_normal.png"
    },
    {
      "mimeType": "image/png",
      "name": "T_ai_materials_floor_oak_b_albedo",
      "uri": "../textures/T_ai_materials_floor_oak_b_albedo.png"
    },
    {
      "mimeType": "image/png",
      "name": "T_ai_materials_floor_oak_b_rough",
      "uri": "../textures/T_ai_materials_floor_oak_b_rough.png"
    },
    {
      "mimeType": "image/png",
      "name": "T_ai_materials_bakelite_black_normal",
      "uri": "../textures/T_ai_materials_bakelite_black_normal.png"
    },
    {
      "mimeType": "image/png",
      "name": "T_ai_materials_bakelite_black_albedo",
      "uri": "../textures/T_ai_materials_bakelite_black_albedo.png"
    },
    {
      "mimeType": "image/png",
      "name": "T_ai_materials_bakelite_black_rough",
      "uri": "../textures/T_ai_materials_bakelite_black_rough.png"
    },
    {
      "mimeType": "image/png",
      "name": "T_ai_materials_brass_bright_normal",
      "uri": "../textures/T_ai_materials_brass_bright_normal.png"
    },
    {
      "mimeType": "image/png",
      "name": "T_ai_materials_brass_bright_albedo",
      "uri": "../textures/T_ai_materials_brass_bright_albedo.png"
    },
    {
      "mimeType": "image/png",
      "name": "T_ai_materials_brass_bright_rough",
      "uri": "../textures/T_ai_materials_brass_bright_rough.png"
    },
    {
      "mimeType": "image/png",
      "name": "T_ai_materials_brass_normal",
      "uri": "../textures/T_ai_materials_brass_normal.png"
    },
    {
      "mimeType": "image/png",
      "name": "T_ai_materials_brass_albedo",
      "uri": "../textures/T_ai_materials_brass_albedo.png"
    },
    {
      "mimeType": "image/png",
      "name": "T_ai_materials_brass_rough",
      "uri": "../textures/T_ai_materials_brass_rough.png"
    },
    {
      "mimeType": "image/png",
      "name": "T_ai_materials_countertop_b_normal",
      "uri": "../textures/T_ai_materials_countertop_b_normal.png"
    },
    {
      "mimeType": "image/png",
      "name": "T_ai_materials_countertop_b_albedo",
      "uri": "../textures/T_ai_materials_countertop_b_albedo.png"
    },
    {
      "mimeType": "image/png",
      "name": "T_ai_materials_countertop_b_rough",
      "uri": "../textures/T_ai_materials_countertop_b_rough.png"
    },
    {
      "mimeType": "image/png",
      "name": "T_ai_materials_fabric_cool_b_normal",
      "uri": "../textures/T_ai_materials_fabric_cool_b_normal.png"
    },
    {
      "mimeType": "image/png",
      "name": "T_ai_materials_fabric_cool_b_albedo",
      "uri": "../textures/T_ai_materials_fabric_cool_b_albedo.png"
    },
    {
      "mimeType": "image/png",
      "name": "T_ai_materials_fabric_cool_b_rough",
      "uri": "../textures/T_ai_materials_fabric_cool_b_rough.png"
    },
    {
      "mimeType": "image/png",
      "name": "T_ai_materials_fabric_warm_b_normal",
      "uri": "../textures/T_ai_materials_fabric_warm_b_normal.png"
    },
    {
      "mimeType": "image/png",
      "name": "T_ai_materials_fabric_warm_b_albedo",
      "uri": "../textures/T_ai_materials_fabric_warm_b_albedo.png"
    },
    {
      "mimeType": "image/png",
      "name": "T_ai_materials_fabric_warm_b_rough",
      "uri": "../textures/T_ai_materials_fabric_warm_b_rough.png"
    },
    {
      "mimeType": "image/png",
      "name": "T_fx_fx_shadow",
      "uri": "../textures/T_fx_fx_shadow.png"
    },
    {
      "mimeType": "image/png",
      "name": "T_ai_materials_slab_b_normal",
      "uri": "../textures/T_ai_materials_slab_b_normal.png"
    },
    {
      "mimeType": "image/png",
      "name": "T_ai_materials_slab_b_albedo",
      "uri": "../textures/T_ai_materials_slab_b_albedo.png"
    },
    {
      "mimeType": "image/png",
      "name": "T_ai_materials_slab_b_rough",
      "uri": "../textures/T_ai_materials_slab_b_rough.png"
    },
    {
      "mimeType": "image/png",
      "name": "T_ai_materials_linen_b_normal",
      "uri": "../textures/T_ai_materials_linen_b_normal.png"
    },
    {
      "mimeType": "image/png",
      "name": "T_ai_materials_linen_b_albedo",
      "uri": "../textures/T_ai_materials_linen_b_albedo.png"
    },
    {
      "mimeType": "image/png",
      "name": "T_ai_materials_linen_b_rough",
      "uri": "../textures/T_ai_materials_linen_b_rough.png"
    },
    {
      "mimeType": "image/png",
      "name": "T_ai_materials_paper_b_normal",
      "uri": "../textures/T_ai_materials_paper_b_normal.png"
    },
    {
      "mimeType": "image/png",
      "name": "T_ai_materials_paper_b_albedo",
      "uri": "../textures/T_ai_materials_paper_b_albedo.png"
    },
    {
      "mimeType": "image/png",
      "name": "T_ai_materials_paper_b_rough",
      "uri": "../textures/T_ai_materials_paper_b_rough.png"
    },
    {
      "mimeType": "image/png",
      "name": "T_ai_materials_terracotta_b_normal",
      "uri": "../textures/T_ai_materials_terracotta_b_normal.png"
    },
    {
      "mimeType": "image/png",
      "name": "T_ai_materials_terracotta_b_albedo",
      "uri": "../textures/T_ai_materials_terracotta_b_albedo.png"
    },
    {
      "mimeType": "image/png",
      "name": "T_ai_materials_terracotta_b_rough",
      "uri": "../textures/T_ai_materials_terracotta_b_rough.png"
    },
    {
      "mimeType": "image/png",
      "name": "T_ai_materials_timber_b_normal",
      "uri": "../textures/T_ai_materials_timber_b_normal.png"
    },
    {
      "mimeType": "image/png",
      "name": "T_ai_materials_timber_b_albedo",
      "uri": "../textures/T_ai_materials_timber_b_albedo.png"
    },
    {
      "mimeType": "image/png",
      "name": "T_ai_materials_timber_b_rough",
      "uri": "../textures/T_ai_materials_timber_b_rough.png"
    },
    {
      "mimeType": "image/png",
      "name": "T_ai_materials_wood_dark_b_normal",
      "uri": "../textures/T_ai_materials_wood_dark_b_normal.png"
    },
    {
      "mimeType": "image/png",
      "name": "T_ai_materials_wood_dark_b_albedo",
      "uri": "../textures/T_ai_materials_wood_dark_b_albedo.png"
    },
    {
      "mimeType": "image/png",
      "name": "T_ai_materials_wood_dark_b_rough",
      "uri": "../textures/T_ai_materials_wood_dark_b_rough.png"
    },
    {
      "mimeType": "image/png",
      "name": "T_ai_materials_wainscot_b_normal",
      "uri": "../textures/T_ai_materials_wainscot_b_normal.png"
    },
    {
      "mimeType": "image/png",
      "name": "T_ai_materials_wainscot_b_albedo",
      "uri": "../textures/T_ai_materials_wainscot_b_albedo.png"
    },
    {
      "mimeType": "image/png",
      "name": "T_ai_materials_wainscot_b_rough",
      "uri": "../textures/T_ai_materials_wainscot_b_rough.png"
    },
    {
      "mimeType": "image/png",
      "name": "T_ai_materials_milk_glass_normal",
      "uri": "../textures/T_ai_materials_milk_glass_normal.png"
    },
    {
      "mimeType": "image/png",
      "name": "T_ai_materials_milk_glass_albedo",
      "uri": "../textures/T_ai_materials_milk_glass_albedo.png"
    },
    {
      "mimeType": "image/png",
      "name": "T_ai_materials_milk_glass_rough",
      "uri": "../textures/T_ai_materials_milk_glass_rough.png"
    },
    {
      "mimeType": "image/png",
      "name": "T_ai_materials_bakelite_b_normal",
      "uri": "../textures/T_ai_materials_bakelite_b_normal.png"
    },
    {
      "mimeType": "image/png",
      "name": "T_ai_materials_bakelite_b_albedo",
      "uri": "../textures/T_ai_materials_bakelite_b_albedo.png"
    },
    {
      "mimeType": "image/png",
      "name": "T_ai_materials_bakelite_b_rough",
      "uri": "../textures/T_ai_materials_bakelite_b_rough.png"
    },
    {
      "mimeType": "image/png",
      "name": "T_ai_materials_brass_mesh_normal",
      "uri": "../textures/T_ai_materials_brass_mesh_normal.png"
    },
    {
      "mimeType": "image/png",
      "name": "T_ai_materials_brass_mesh_albedo",
      "uri": "../textures/T_ai_materials_brass_mesh_albedo.png"
    },
    {
      "mimeType": "image/png",
      "name": "T_ai_materials_brass_mesh_rough",
      "uri": "../textures/T_ai_materials_brass_mesh_rough.png"
    },
    {
      "mimeType": "image/png",
      "name": "T_ai_materials_enamel_b_normal",
      "uri": "../textures/T_ai_materials_enamel_b_normal.png"
    },
    {
      "mimeType": "image/png",
      "name": "T_ai_materials_enamel_b_albedo",
      "uri": "../textures/T_ai_materials_enamel_b_albedo.png"
    },
    {
      "mimeType": "image/png",
      "name": "T_ai_materials_enamel_b_rough",
      "uri": "../textures/T_ai_materials_enamel_b_rough.png"
    },
    {
      "mimeType": "image/png",
      "name": "T_ai_materials_bronze_normal",
      "uri": "../textures/T_ai_materials_bronze_normal.png"
    },
    {
      "mimeType": "image/png",
      "name": "T_ai_materials_bronze_albedo",
      "uri": "../textures/T_ai_materials_bronze_albedo.png"
    },
    {
      "mimeType": "image/png",
      "name": "T_ai_materials_bronze_rough",
      "uri": "../textures/T_ai_materials_bronze_rough.png"
    }
  ],
  "materials": [
    {
      "name": "M_metal_b",
      "normalTexture": {
        "index": 0,
        "scale": 0.3499999940395355
      },
      "pbrMetallicRoughness": {
        "baseColorTexture": {
          "index": 1
        },
        "metallicFactor": 0.8999999761581421,
        "metallicRoughnessTexture": {
          "index": 2
        }
      }
    },
    {
      "name": "M_brass_b",
      "normalTexture": {
        "index": 3,
        "scale": 0.3499999940395355
      },
      "pbrMetallicRoughness": {
        "baseColorTexture": {
          "index": 4
        },
        "metallicFactor": 0.8500000238418579,
        "metallicRoughnessTexture": {
          "index": 5
        }
      }
    },
    {
      "name": "M_cast_iron_b",
      "normalTexture": {
        "index": 6,
        "scale": 0.3499999940395355
      },
      "pbrMetallicRoughness": {
        "baseColorTexture": {
          "index": 7
        },
        "metallicFactor": 0.3499999940395355,
        "metallicRoughnessTexture": {
          "index": 8
        }
      }
    },
    {
      "alphaMode": "BLEND",
      "doubleSided": true,
      "name": "M_glassish",
      "normalTexture": {
        "index": 9,
        "scale": 0.550000011920929
      },
      "pbrMetallicRoughness": {
        "baseColorFactor": [
          0.7599999904632568,
          0.8500000238418579,
          0.8899999856948853,
          0.1599999964237213
        ],
        "metallicFactor": 0,
        "metallicRoughnessTexture": {
          "index": 10
        }
      }
    },
    {
      "name": "M_plywood_b",
      "normalTexture": {
        "index": 11,
        "scale": 0.3499999940395355
      },
      "pbrMetallicRoughness": {
        "baseColorTexture": {
          "index": 12
        },
        "metallicFactor": 0,
        "metallicRoughnessTexture": {
          "index": 13
        }
      }
    },
    {
      "name": "M_trim_b",
      "normalTexture": {
        "index": 14,
        "scale": 0.3499999940395355
      },
      "pbrMetallicRoughness": {
        "baseColorTexture": {
          "index": 15
        },
        "metallicFactor": 0,
        "metallicRoughnessTexture": {
          "index": 16
        }
      }
    },
    {
      "name": "M_common_brick_b",
      "normalTexture": {
        "index": 17,
        "scale": 0.3499999940395355
      },
      "pbrMetallicRoughness": {
        "baseColorTexture": {
          "index": 18
        },
        "metallicFactor": 0,
        "metallicRoughnessTexture": {
          "index": 19
        }
      }
    },
    {
      "alphaMode": "BLEND",
      "doubleSided": true,
      "name": "M_fx_scuff",
      "normalTexture": {
        "index": 20,
        "scale": 0.2800000011920929
      },
      "pbrMetallicRoughness": {
        "baseColorTexture": {
          "index": 21
        },
        "metallicFactor": 0,
        "metallicRoughnessTexture": {
          "index": 22
        }
      }
    },
    {
      "name": "M_plaster_b",
      "normalTexture": {
        "index": 23,
        "scale": 0.3499999940395355
      },
      "pbrMetallicRoughness": {
        "baseColorTexture": {
          "index": 24
        },
        "metallicFactor": 0,
        "metallicRoughnessTexture": {
          "index": 25
        }
      }
    },
    {
      "name": "M_plaster_stained_b",
      "normalTexture": {
        "index": 26,
        "scale": 0.3499999940395355
      },
      "pbrMetallicRoughness": {
        "baseColorTexture": {
          "index": 27
        },
        "metallicFactor": 0,
        "metallicRoughnessTexture": {
          "index": 28
        }
      }
    },
    {
      "name": "M_tin_ceiling_b",
      "normalTexture": {
        "index": 29,
        "scale": 0.3499999940395355
      },
      "pbrMetallicRoughness": {
        "baseColorTexture": {
          "index": 30
        },
        "metallicFactor": 0.07999999821186066,
        "metallicRoughnessTexture": {
          "index": 31
        }
      }
    },
    {
      "name": "M_concrete_b",
      "normalTexture": {
        "index": 32,
        "scale": 0.3499999940395355
      },
      "pbrMetallicRoughness": {
        "baseColorTexture": {
          "index": 33
        },
        "metallicFactor": 0,
        "metallicRoughnessTexture": {
          "index": 34
        }
      }
    },
    {
      "name": "M_floor_oak_b",
      "normalTexture": {
        "index": 35,
        "scale": 0.3499999940395355
      },
      "pbrMetallicRoughness": {
        "baseColorTexture": {
          "index": 36
        },
        "metallicFactor": 0,
        "metallicRoughnessTexture": {
          "index": 37
        }
      }
    },
    {
      "name": "M_bakelite_black",
      "normalTexture": {
        "index": 38,
        "scale": 0.3499999940395355
      },
      "pbrMetallicRoughness": {
        "baseColorTexture": {
          "index": 39
        },
        "metallicFactor": 0,
        "metallicRoughnessTexture": {
          "index": 40
        }
      }
    },
    {
      "name": "M_brass_bright",
      "normalTexture": {
        "index": 41,
        "scale": 0.3499999940395355
      },
      "pbrMetallicRoughness": {
        "baseColorTexture": {
          "index": 42
        },
        "metallicFactor": 0.8500000238418579,
        "metallicRoughnessTexture": {
          "index": 43
        }
      }
    },
    {
      "name": "M_brass_dull",
      "normalTexture": {
        "index": 44,
        "scale": 0.3499999940395355
      },
      "pbrMetallicRoughness": {
        "baseColorTexture": {
          "index": 45
        },
        "metallicFactor": 0.30000001192092896,
        "metallicRoughnessTexture": {
          "index": 46
        }
      }
    },
    {
      "name": "M_countertop_b",
      "normalTexture": {
        "index": 47,
        "scale": 0.3499999940395355
      },
      "pbrMetallicRoughness": {
        "baseColorTexture": {
          "index": 48
        },
        "metallicFactor": 0,
        "metallicRoughnessTexture": {
          "index": 49
        }
      }
    },
    {
      "name": "M_fabric_cool_b",
      "normalTexture": {
        "index": 50,
        "scale": 0.3499999940395355
      },
      "pbrMetallicRoughness": {
        "baseColorTexture": {
          "index": 51
        },
        "metallicFactor": 0,
        "metallicRoughnessTexture": {
          "index": 52
        }
      }
    },
    {
      "name": "M_fabric_warm_b",
      "normalTexture": {
        "index": 53,
        "scale": 0.3499999940395355
      },
      "pbrMetallicRoughness": {
        "baseColorTexture": {
          "index": 54
        },
        "metallicFactor": 0,
        "metallicRoughnessTexture": {
          "index": 55
        }
      }
    },
    {
      "alphaMode": "BLEND",
      "doubleSided": true,
      "extensions": {
        "KHR_materials_specular": {
          "specularFactor": 0
        }
      },
      "name": "M_fx_shadow",
      "pbrMetallicRoughness": {
        "baseColorTexture": {
          "index": 56
        },
        "metallicFactor": 0
      }
    },
    {
      "name": "M_slab_b",
      "normalTexture": {
        "index": 57,
        "scale": 0.3499999940395355
      },
      "pbrMetallicRoughness": {
        "baseColorTexture": {
          "index": 58
        },
        "metallicFactor": 0,
        "metallicRoughnessTexture": {
          "index": 59
        }
      }
    },
    {
      "name": "M_linen_b",
      "normalTexture": {
        "index": 60,
        "scale": 0.3499999940395355
      },
      "pbrMetallicRoughness": {
        "baseColorTexture": {
          "index": 61
        },
        "metallicFactor": 0,
        "metallicRoughnessTexture": {
          "index": 62
        }
      }
    },
    {
      "name": "M_paper_b",
      "normalTexture": {
        "index": 63,
        "scale": 0.3499999940395355
      },
      "pbrMetallicRoughness": {
        "baseColorTexture": {
          "index": 64
        },
        "metallicFactor": 0,
        "metallicRoughnessTexture": {
          "index": 65
        }
      }
    },
    {
      "name": "M_terracotta_b",
      "normalTexture": {
        "index": 66,
        "scale": 0.3499999940395355
      },
      "pbrMetallicRoughness": {
        "baseColorTexture": {
          "index": 67
        },
        "metallicFactor": 0,
        "metallicRoughnessTexture": {
          "index": 68
        }
      }
    },
    {
      "name": "M_timber_b",
      "normalTexture": {
        "index": 69,
        "scale": 0.3499999940395355
      },
      "pbrMetallicRoughness": {
        "baseColorTexture": {
          "index": 70
        },
        "metallicFactor": 0,
        "metallicRoughnessTexture": {
          "index": 71
        }
      }
    },
    {
      "name": "M_wood_dark_b",
      "normalTexture": {
        "index": 72,
        "scale": 0.3499999940395355
      },
      "pbrMetallicRoughness": {
        "baseColorTexture": {
          "index": 73
        },
        "metallicFactor": 0,
        "metallicRoughnessTexture": {
          "index": 74
        }
      }
    },
    {
      "name": "M_wainscot_b",
      "normalTexture": {
        "index": 75,
        "scale": 0.3499999940395355
      },
      "pbrMetallicRoughness": {
        "baseColorTexture": {
          "index": 76
        },
        "metallicFactor": 0,
        "metallicRoughnessTexture": {
          "index": 77
        }
      }
    },
    {
      "name": "M_milk_glass",
      "normalTexture": {
        "index": 78,
        "scale": 0.3499999940395355
      },
      "pbrMetallicRoughness": {
        "baseColorTexture": {
          "index": 79
        },
        "metallicFactor": 0,
        "metallicRoughnessTexture": {
          "index": 80
        }
      }
    },
    {
      "name": "M_bakelite_b",
      "normalTexture": {
        "index": 81,
        "scale": 0.3499999940395355
      },
      "pbrMetallicRoughness": {
        "baseColorTexture": {
          "index": 82
        },
        "metallicFactor": 0,
        "metallicRoughnessTexture": {
          "index": 83
        }
      }
    },
    {
      "name": "M_brass_mesh",
      "normalTexture": {
        "index": 84,
        "scale": 0.3499999940395355
      },
      "pbrMetallicRoughness": {
        "baseColorTexture": {
          "index": 85
        },
        "metallicFactor": 0.800000011920929,
        "metallicRoughnessTexture": {
          "index": 86
        }
      }
    },
    {
      "name": "M_enamel_b",
      "normalTexture": {
        "index": 87,
        "scale": 0.3499999940395355
      },
      "pbrMetallicRoughness": {
        "baseColorTexture": {
          "index": 88
        },
        "metallicFactor": 0,
        "metallicRoughnessTexture": {
          "index": 89
        }
      }
    },
    {
      "doubleSided": true,
      "name": "M_screen",
      "pbrMetallicRoughness": {
        "baseColorFactor": [
          0.07000000029802322,
          0.07999999821186066,
          0.09000000357627869,
          1
        ],
        "metallicFactor": 0,
        "roughnessFactor": 0.25
      }
    },
    {
      "name": "M_bronze",
      "normalTexture": {
        "index": 90,
        "scale": 0.3499999940395355
      },
      "pbrMetallicRoughness": {
        "baseColorTexture": {
          "index": 91
        },
        "metallicFactor": 0.75,
        "metallicRoughnessTexture": {
          "index": 92
        }
      }
    }
  ],
  "meshes": [
    {
      "name": "F01_OWN_SHOP_PAWNBROKER_retail_shop_pawnbroker_bakelite",
      "primitives": [
        {
          "attributes": {
            "NORMAL": 15,
            "POSITION": 14,
            "TEXCOORD_0": 16
          },
          "indices": 11,
          "material": 28
        }
      ]
    },
    {
      "name": "F01_OWN_SHOP_PAWNBROKER_retail_shop_pawnbroker_bakelite_black",
      "primitives": [
        {
          "attributes": {
            "NORMAL": 18,
            "POSITION": 17,
            "TEXCOORD_0": 19
          },
          "indices": 12,
          "material": 13
        }
      ]
    },
    {
      "name": "F01_OWN_SHOP_PAWNBROKER_retail_shop_pawnbroker_bakelite_black-col",
      "primitives": [
        {
          "attributes": {
            "NORMAL": 21,
            "POSITION": 20,
            "TEXCOORD_0": 22
          },
          "indices": 0,
          "material": 13
        }
      ]
    },
    {
      "name": "F01_OWN_SHOP_PAWNBROKER_retail_shop_pawnbroker_brass",
      "primitives": [
        {
          "attributes": {
            "NORMAL": 24,
            "POSITION": 23,
            "TEXCOORD_0": 25
          },
          "indices": 0,
          "material": 1
        }
      ]
    },
    {
      "name": "F01_OWN_SHOP_PAWNBROKER_retail_shop_pawnbroker_brass_bright-col",
      "primitives": [
        {
          "attributes": {
            "NORMAL": 27,
            "POSITION": 26,
            "TEXCOORD_0": 28
          },
          "indices": 1,
          "material": 14
        }
      ]
    },
    {
      "name": "F01_OWN_SHOP_PAWNBROKER_retail_shop_pawnbroker_brass_dull-col",
      "primitives": [
        {
          "attributes": {
            "NORMAL": 30,
            "POSITION": 29,
            "TEXCOORD_0": 31
          },
          "indices": 9,
          "material": 15
        }
      ]
    },
    {
      "name": "F01_OWN_SHOP_PAWNBROKER_retail_shop_pawnbroker_brass_mesh-col",
      "primitives": [
        {
          "attributes": {
            "NORMAL": 33,
            "POSITION": 32,
            "TEXCOORD_0": 34
          },
          "indices": 0,
          "material": 29
        }
      ]
    },
    {
      "name": "F01_OWN_SHOP_PAWNBROKER_retail_shop_pawnbroker_bronze-col",
      "primitives": [
        {
          "attributes": {
            "NORMAL": 36,
            "POSITION": 35,
            "TEXCOORD_0": 37
          },
          "indices": 5,
          "material": 32
        }
      ]
    },
    {
      "name": "F01_OWN_SHOP_PAWNBROKER_retail_shop_pawnbroker_cast_iron-col",
      "primitives": [
        {
          "attributes": {
            "NORMAL": 39,
            "POSITION": 38,
            "TEXCOORD_0": 40
          },
          "indices": 0,
          "material": 2
        }
      ]
    },
    {
      "name": "F01_OWN_SHOP_PAWNBROKER_retail_shop_pawnbroker_common_brick-col",
      "primitives": [
        {
          "attributes": {
            "NORMAL": 42,
            "POSITION": 41,
            "TEXCOORD_0": 43
          },
          "indices": 6,
          "material": 6
        }
      ]
    },
    {
      "name": "F01_OWN_SHOP_PAWNBROKER_retail_shop_pawnbroker_concrete-col",
      "primitives": [
        {
          "attributes": {
            "NORMAL": 45,
            "POSITION": 44,
            "TEXCOORD_0": 46
          },
          "indices": 0,
          "material": 11
        }
      ]
    },
    {
      "name": "F01_OWN_SHOP_PAWNBROKER_retail_shop_pawnbroker_countertop-col",
      "primitives": [
        {
          "attributes": {
            "NORMAL": 48,
            "POSITION": 47,
            "TEXCOORD_0": 49
          },
          "indices": 0,
          "material": 16
        }
      ]
    },
    {
      "name": "F01_OWN_SHOP_PAWNBROKER_retail_shop_pawnbroker_enamel",
      "primitives": [
        {
          "attributes": {
            "NORMAL": 51,
            "POSITION": 50,
            "TEXCOORD_0": 52
          },
          "indices": 13,
          "material": 30
        }
      ]
    },
    {
      "name": "F01_OWN_SHOP_PAWNBROKER_retail_shop_pawnbroker_enamel-col",
      "primitives": [
        {
          "attributes": {
            "NORMAL": 54,
            "POSITION": 53,
            "TEXCOORD_0": 55
          },
          "indices": 0,
          "material": 30
        }
      ]
    },
    {
      "name": "F01_OWN_SHOP_PAWNBROKER_retail_shop_pawnbroker_fabric_cool",
      "primitives": [
        {
          "attributes": {
            "NORMAL": 57,
            "POSITION": 56,
            "TEXCOORD_0": 58
          },
          "indices": 0,
          "material": 17
        }
      ]
    },
    {
      "name": "F01_OWN_SHOP_PAWNBROKER_retail_shop_pawnbroker_fabric_warm-col",
      "primitives": [
        {
          "attributes": {
            "NORMAL": 60,
            "POSITION": 59,
            "TEXCOORD_0": 61
          },
          "indices": 0,
          "material": 18
        }
      ]
    },
    {
      "name": "F01_OWN_SHOP_PAWNBROKER_retail_shop_pawnbroker_floor_oak-col",
      "primitives": [
        {
          "attributes": {
            "NORMAL": 63,
            "POSITION": 62,
            "TEXCOORD_0": 64
          },
          "indices": 0,
          "material": 12
        }
      ]
    },
    {
      "name": "F01_OWN_SHOP_PAWNBROKER_retail_shop_pawnbroker_fx_shadow",
      "primitives": [
        {
          "attributes": {
            "NORMAL": 66,
            "POSITION": 65,
            "TEXCOORD_0": 67
          },
          "indices": 2,
          "material": 19
        }
      ]
    },
    {
      "name": "F01_OWN_SHOP_PAWNBROKER_retail_shop_pawnbroker_glassish-col",
      "primitives": [
        {
          "attributes": {
            "NORMAL": 69,
            "POSITION": 68,
            "TEXCOORD_0": 70
          },
          "indices": 4,
          "material": 3
        }
      ]
    },
    {
      "name": "F01_OWN_SHOP_PAWNBROKER_retail_shop_pawnbroker_hull-colonly",
      "primitives": [
        {
          "attributes": {
            "NORMAL": 72,
            "POSITION": 71,
            "TEXCOORD_0": 73
          },
          "indices": 0,
          "material": 20
        }
      ]
    },
    {
      "name": "F01_OWN_SHOP_PAWNBROKER_retail_shop_pawnbroker_linen-col",
      "primitives": [
        {
          "attributes": {
            "NORMAL": 75,
            "POSITION": 74,
            "TEXCOORD_0": 76
          },
          "indices": 3,
          "material": 21
        }
      ]
    },
    {
      "name": "F01_OWN_SHOP_PAWNBROKER_retail_shop_pawnbroker_metal-col",
      "primitives": [
        {
          "attributes": {
            "NORMAL": 78,
            "POSITION": 77,
            "TEXCOORD_0": 79
          },
          "indices": 0,
          "material": 0
        }
      ]
    },
    {
      "name": "F01_OWN_SHOP_PAWNBROKER_retail_shop_pawnbroker_milk_glass",
      "primitives": [
        {
          "attributes": {
            "NORMAL": 81,
            "POSITION": 80,
            "TEXCOORD_0": 82
          },
          "indices": 0,
          "material": 27
        }
      ]
    },
    {
      "name": "F01_OWN_SHOP_PAWNBROKER_retail_shop_pawnbroker_paper-col",
      "primitives": [
        {
          "attributes": {
            "NORMAL": 84,
            "POSITION": 83,
            "TEXCOORD_0": 85
          },
          "indices": 8,
          "material": 22
        }
      ]
    },
    {
      "name": "F01_OWN_SHOP_PAWNBROKER_retail_shop_pawnbroker_plaster-col",
      "primitives": [
        {
          "attributes": {
            "NORMAL": 87,
            "POSITION": 86,
            "TEXCOORD_0": 88
          },
          "indices": 7,
          "material": 8
        }
      ]
    },
    {
      "name": "F01_OWN_SHOP_PAWNBROKER_retail_shop_pawnbroker_plaster_stained-col",
      "primitives": [
        {
          "attributes": {
            "NORMAL": 90,
            "POSITION": 89,
            "TEXCOORD_0": 91
          },
          "indices": 5,
          "material": 9
        }
      ]
    },
    {
      "name": "F01_OWN_SHOP_PAWNBROKER_retail_shop_pawnbroker_plywood-col",
      "primitives": [
        {
          "attributes": {
            "NORMAL": 93,
            "POSITION": 92,
            "TEXCOORD_0": 94
          },
          "indices": 0,
          "material": 4
        }
      ]
    },
    {
      "name": "F01_OWN_SHOP_PAWNBROKER_retail_shop_pawnbroker_screen",
      "primitives": [
        {
          "attributes": {
            "NORMAL": 96,
            "POSITION": 95,
            "TEXCOORD_0": 97
          },
          "indices": 0,
          "material": 31
        }
      ]
    },
    {
      "name": "F01_OWN_SHOP_PAWNBROKER_retail_shop_pawnbroker_terracotta",
      "primitives": [
        {
          "attributes": {
            "NORMAL": 99,
            "POSITION": 98,
            "TEXCOORD_0": 100
          },
          "indices": 101,
          "material": 23
        }
      ]
    },
    {
      "name": "F01_OWN_SHOP_PAWNBROKER_retail_shop_pawnbroker_timber-col",
      "primitives": [
        {
          "attributes": {
            "NORMAL": 103,
            "POSITION": 102,
            "TEXCOORD_0": 104
          },
          "indices": 5,
          "material": 24
        }
      ]
    },
    {
      "name": "F01_OWN_SHOP_PAWNBROKER_retail_shop_pawnbroker_tin_ceiling-col",
      "primitives": [
        {
          "attributes": {
            "NORMAL": 106,
            "POSITION": 105,
            "TEXCOORD_0": 107
          },
          "indices": 0,
          "material": 10
        }
      ]
    },
    {
      "name": "F01_OWN_SHOP_PAWNBROKER_retail_shop_pawnbroker_trim-col",
      "primitives": [
        {
          "attributes": {
            "NORMAL": 109,
            "POSITION": 108,
            "TEXCOORD_0": 110
          },
          "indices": 4,
          "material": 5
        }
      ]
    },
    {
      "name": "F01_OWN_SHOP_PAWNBROKER_retail_shop_pawnbroker_wainscot-col",
      "primitives": [
        {
          "attributes": {
            "NORMAL": 112,
            "POSITION": 111,
            "TEXCOORD_0": 113
          },
          "indices": 1,
          "material": 26
        }
      ]
    },
    {
      "name": "F01_OWN_SHOP_PAWNBROKER_retail_shop_pawnbroker_wood_dark-col",
      "primitives": [
        {
          "attributes": {
            "NORMAL": 115,
            "POSITION": 114,
            "TEXCOORD_0": 116
          },
          "indices": 10,
          "material": 25
        }
      ]
    },
    {
      "name": "F01_OWN_SHOP_PAWNBROKER_wear_fx_scuff",
      "primitives": [
        {
          "attributes": {
            "NORMAL": 118,
            "POSITION": 117,
            "TEXCOORD_0": 119
          },
          "indices": 2,
          "material": 7
        }
      ]
    }
  ],
  "nodes": [
    {
      "mesh": 0,
      "name": "F01_OWN_SHOP_PAWNBROKER_retail_shop_pawnbroker_bakelite"
    },
    {
      "mesh": 1,
      "name": "F01_OWN_SHOP_PAWNBROKER_retail_shop_pawnbroker_bakelite_black"
    },
    {
      "mesh": 2,
      "name": "F01_OWN_SHOP_PAWNBROKER_retail_shop_pawnbroker_bakelite_black-col"
    },
    {
      "mesh": 3,
      "name": "F01_OWN_SHOP_PAWNBROKER_retail_shop_pawnbroker_brass"
    },
    {
      "mesh": 4,
      "name": "F01_OWN_SHOP_PAWNBROKER_retail_shop_pawnbroker_brass_bright-col"
    },
    {
      "mesh": 5,
      "name": "F01_OWN_SHOP_PAWNBROKER_retail_shop_pawnbroker_brass_dull-col"
    },
    {
      "mesh": 6,
      "name": "F01_OWN_SHOP_PAWNBROKER_retail_shop_pawnbroker_brass_mesh-col"
    },
    {
      "mesh": 7,
      "name": "F01_OWN_SHOP_PAWNBROKER_retail_shop_pawnbroker_bronze-col"
    },
    {
      "mesh": 8,
      "name": "F01_OWN_SHOP_PAWNBROKER_retail_shop_pawnbroker_cast_iron-col"
    },
    {
      "mesh": 9,
      "name": "F01_OWN_SHOP_PAWNBROKER_retail_shop_pawnbroker_common_brick-col"
    },
    {
      "mesh": 10,
      "name": "F01_OWN_SHOP_PAWNBROKER_retail_shop_pawnbroker_concrete-col"
    },
    {
      "mesh": 11,
      "name": "F01_OWN_SHOP_PAWNBROKER_retail_shop_pawnbroker_countertop-col"
    },
    {
      "mesh": 12,
      "name": "F01_OWN_SHOP_PAWNBROKER_retail_shop_pawnbroker_enamel"
    },
    {
      "mesh": 13,
      "name": "F01_OWN_SHOP_PAWNBROKER_retail_shop_pawnbroker_enamel-col"
    },
    {
      "mesh": 14,
      "name": "F01_OWN_SHOP_PAWNBROKER_retail_shop_pawnbroker_fabric_cool"
    },
    {
      "mesh": 15,
      "name": "F01_OWN_SHOP_PAWNBROKER_retail_shop_pawnbroker_fabric_warm-col"
    },
    {
      "mesh": 16,
      "name": "F01_OWN_SHOP_PAWNBROKER_retail_shop_pawnbroker_floor_oak-col"
    },
    {
      "mesh": 17,
      "name": "F01_OWN_SHOP_PAWNBROKER_retail_shop_pawnbroker_fx_shadow"
    },
    {
      "mesh": 18,
      "name": "F01_OWN_SHOP_PAWNBROKER_retail_shop_pawnbroker_glassish-col"
    },
    {
      "mesh": 19,
      "name": "F01_OWN_SHOP_PAWNBROKER_retail_shop_pawnbroker_hull-colonly"
    },
    {
      "mesh": 20,
      "name": "F01_OWN_SHOP_PAWNBROKER_retail_shop_pawnbroker_linen-col"
    },
    {
      "mesh": 21,
      "name": "F01_OWN_SHOP_PAWNBROKER_retail_shop_pawnbroker_metal-col"
    },
    {
      "mesh": 22,
      "name": "F01_OWN_SHOP_PAWNBROKER_retail_shop_pawnbroker_milk_glass"
    },
    {
      "mesh": 23,
      "name": "F01_OWN_SHOP_PAWNBROKER_retail_shop_pawnbroker_paper-col"
    },
    {
      "mesh": 24,
      "name": "F01_OWN_SHOP_PAWNBROKER_retail_shop_pawnbroker_plaster-col"
    },
    {
      "mesh": 25,
      "name": "F01_OWN_SHOP_PAWNBROKER_retail_shop_pawnbroker_plaster_stained-col"
    },
    {
      "mesh": 26,
      "name": "F01_OWN_SHOP_PAWNBROKER_retail_shop_pawnbroker_plywood-col"
    },
    {
      "mesh": 27,
      "name": "F01_OWN_SHOP_PAWNBROKER_retail_shop_pawnbroker_screen"
    },
    {
      "mesh": 28,
      "name": "F01_OWN_SHOP_PAWNBROKER_retail_shop_pawnbroker_terracotta"
    },
    {
      "mesh": 29,
      "name": "F01_OWN_SHOP_PAWNBROKER_retail_shop_pawnbroker_timber-col"
    },
    {
      "mesh": 30,
      "name": "F01_OWN_SHOP_PAWNBROKER_retail_shop_pawnbroker_tin_ceiling-col"
    },
    {
      "mesh": 31,
      "name": "F01_OWN_SHOP_PAWNBROKER_retail_shop_pawnbroker_trim-col"
    },
    {
      "mesh": 32,
      "name": "F01_OWN_SHOP_PAWNBROKER_retail_shop_pawnbroker_wainscot-col"
    },
    {
      "mesh": 33,
      "name": "F01_OWN_SHOP_PAWNBROKER_retail_shop_pawnbroker_wood_dark-col"
    },
    {
      "mesh": 34,
      "name": "F01_OWN_SHOP_PAWNBROKER_wear_fx_scuff"
    }
  ],
  "samplers": [
    {
      "magFilter": 9729,
      "minFilter": 9987
    }
  ],
  "scene": 0,
  "scenes": [
    {
      "name": "Scene_shop_pawnbroker",
      "nodes": [
        0,
        1,
        2,
        3,
        4,
        5,
        6,
        7,
        8,
        9,
        10,
        11,
        12,
        13,
        14,
        15,
        16,
        17,
        18,
        19,
        20,
        21,
        22,
        23,
        24,
        25,
        26,
        27,
        28,
        29,
        30,
        31,
        32,
        33,
        34
      ]
    }
  ],
  "textures": [
    {
      "sampler": 0,
      "source": 0
    },
    {
      "sampler": 0,
      "source": 1
    },
    {
      "sampler": 0,
      "source": 2
    },
    {
      "sampler": 0,
      "source": 3
    },
    {
      "sampler": 0,
      "source": 4
    },
    {
      "sampler": 0,
      "source": 5
    },
    {
      "sampler": 0,
      "source": 6
    },
    {
      "sampler": 0,
      "source": 7
    },
    {
      "sampler": 0,
      "source": 8
    },
    {
      "sampler": 0,
      "source": 9
    },
    {
      "sampler": 0,
      "source": 10
    },
    {
      "sampler": 0,
      "source": 11
    },
    {
      "sampler": 0,
      "source": 12
    },
    {
      "sampler": 0,
      "source": 13
    },
    {
      "sampler": 0,
      "source": 14
    },
    {
      "sampler": 0,
      "source": 15
    },
    {
      "sampler": 0,
      "source": 16
    },
    {
      "sampler": 0,
      "source": 17
    },
    {
      "sampler": 0,
      "source": 18
    },
    {
      "sampler": 0,
      "source": 19
    },
    {
      "sampler": 0,
      "source": 20
    },
    {
      "sampler": 0,
      "source": 21
    },
    {
      "sampler": 0,
      "source": 22
    },
    {
      "sampler": 0,
      "source": 23
    },
    {
      "sampler": 0,
      "source": 24
    },
    {
      "sampler": 0,
      "source": 25
    },
    {
      "sampler": 0,
      "source": 26
    },
    {
      "sampler": 0,
      "source": 27
    },
    {
      "sampler": 0,
      "source": 28
    },
    {
      "sampler": 0,
      "source": 29
    },
    {
      "sampler": 0,
      "source": 30
    },
    {
      "sampler": 0,
      "source": 31
    },
    {
      "sampler": 0,
      "source": 32
    },
    {
      "sampler": 0,
      "source": 33
    },
    {
      "sampler": 0,
      "source": 34
    },
    {
      "sampler": 0,
      "source": 35
    },
    {
      "sampler": 0,
      "source": 36
    },
    {
      "sampler": 0,
      "source": 37
    },
    {
      "sampler": 0,
      "source": 38
    },
    {
      "sampler": 0,
      "source": 39
    },
    {
      "sampler": 0,
      "source": 40
    },
    {
      "sampler": 0,
      "source": 41
    },
    {
      "sampler": 0,
      "source": 42
    },
    {
      "sampler": 0,
      "source": 43
    },
    {
      "sampler": 0,
      "source": 44
    },
    {
      "sampler": 0,
      "source": 45
    },
    {
      "sampler": 0,
      "source": 46
    },
    {
      "sampler": 0,
      "source": 47
    },
    {
      "sampler": 0,
      "source": 48
    },
    {
      "sampler": 0,
      "source": 49
    },
    {
      "sampler": 0,
      "source": 50
    },
    {
      "sampler": 0,
      "source": 51
    },
    {
      "sampler": 0,
      "source": 52
    },
    {
      "sampler": 0,
      "source": 53
    },
    {
      "sampler": 0,
      "source": 54
    },
    {
      "sampler": 0,
      "source": 55
    },
    {
      "sampler": 0,
      "source": 56
    },
    {
      "sampler": 0,
      "source": 57
    },
    {
      "sampler": 0,
      "source": 58
    },
    {
      "sampler": 0,
      "source": 59
    },
    {
      "sampler": 0,
      "source": 60
    },
    {
      "sampler": 0,
      "source": 61
    },
    {
      "sampler": 0,
      "source": 62
    },
    {
      "sampler": 0,
      "source": 63
    },
    {
      "sampler": 0,
      "source": 64
    },
    {
      "sampler": 0,
      "source": 65
    },
    {
      "sampler": 0,
      "source": 66
    },
    {
      "sampler": 0,
      "source": 67
    },
    {
      "sampler": 0,
      "source": 68
    },
    {
      "sampler": 0,
      "source": 69
    },
    {
      "sampler": 0,
      "source": 70
    },
    {
      "sampler": 0,
      "source": 71
    },
    {
      "sampler": 0,
      "source": 72
    },
    {
      "sampler": 0,
      "source": 73
    },
    {
      "sampler": 0,
      "source": 74
    },
    {
      "sampler": 0,
      "source": 75
    },
    {
      "sampler": 0,
      "source": 76
    },
    {
      "sampler": 0,
      "source": 77
    },
    {
      "sampler": 0,
      "source": 78
    },
    {
      "sampler": 0,
      "source": 79
    },
    {
      "sampler": 0,
      "source": 80
    },
    {
      "sampler": 0,
      "source": 81
    },
    {
      "sampler": 0,
      "source": 82
    },
    {
      "sampler": 0,
      "source": 83
    },
    {
      "sampler": 0,
      "source": 84
    },
    {
      "sampler": 0,
      "source": 85
    },
    {
      "sampler": 0,
      "source": 86
    },
    {
      "sampler": 0,
      "source": 87
    },
    {
      "sampler": 0,
      "source": 88
    },
    {
      "sampler": 0,
      "source": 89
    },
    {
      "sampler": 0,
      "source": 90
    },
    {
      "sampler": 0,
      "source": 91
    },
    {
      "sampler": 0,
      "source": 92
    }
  ]
}
