{"asset":{"generator":"Khronos glTF Blender I/O v5.2.39","version":"2.0","extras":{"orison_bin_sha256":"ab65af2e3e4e5ce57fd9f64eac09df45468a06b1b03f47b2a41cf9270f14b2f6","orison_m11c1_candidate":{"production_asset":false,"owner_before_material":true,"spatial_inference_used":false},"orison_m11c1_owner_first":{"cell":"CELL_SHOP_RADIO_SERVICE","production_asset":false,"owner_before_material":true,"spatial_inference_used":false}}},"extensionsUsed":["KHR_materials_specular"],"scene":0,"scenes":[{"name":"Scene_shop_radio_service","nodes":[0,1,2,3,4,5,6,7,8,9,10,11,12,13,14,15,16,17,18,19,20,21,22,23,24,25,26,27,28,29,30,31,32,33,34,35]}],"nodes":[{"mesh":0,"name":"F01_OWN_SHOP_RADIO_SERVICE_retail_shop_radio_service_appliance-col"},{"mesh":1,"name":"F01_OWN_SHOP_RADIO_SERVICE_retail_shop_radio_service_awning_vinyl-col"},{"mesh":2,"name":"F01_OWN_SHOP_RADIO_SERVICE_retail_shop_radio_service_bakelite"},{"mesh":3,"name":"F01_OWN_SHOP_RADIO_SERVICE_retail_shop_radio_service_bakelite_black"},{"mesh":4,"name":"F01_OWN_SHOP_RADIO_SERVICE_retail_shop_radio_service_bakelite_black-col"},{"mesh":5,"name":"F01_OWN_SHOP_RADIO_SERVICE_retail_shop_radio_service_brass"},{"mesh":6,"name":"F01_OWN_SHOP_RADIO_SERVICE_retail_shop_radio_service_brass_bright-col"},{"mesh":7,"name":"F01_OWN_SHOP_RADIO_SERVICE_retail_shop_radio_service_brass_dull-col"},{"mesh":8,"name":"F01_OWN_SHOP_RADIO_SERVICE_retail_shop_radio_service_cast_iron-col"},{"mesh":9,"name":"F01_OWN_SHOP_RADIO_SERVICE_retail_shop_radio_service_chrome"},{"mesh":10,"name":"F01_OWN_SHOP_RADIO_SERVICE_retail_shop_radio_service_concrete-col"},{"mesh":11,"name":"F01_OWN_SHOP_RADIO_SERVICE_retail_shop_radio_service_copper_aged-col"},{"mesh":12,"name":"F01_OWN_SHOP_RADIO_SERVICE_retail_shop_radio_service_countertop-col"},{"mesh":13,"name":"F01_OWN_SHOP_RADIO_SERVICE_retail_shop_radio_service_enamel"},{"mesh":14,"name":"F01_OWN_SHOP_RADIO_SERVICE_retail_shop_radio_service_fabric_warm-col"},{"mesh":15,"name":"F01_OWN_SHOP_RADIO_SERVICE_retail_shop_radio_service_fx_shadow"},{"mesh":16,"name":"F01_OWN_SHOP_RADIO_SERVICE_retail_shop_radio_service_glassish-col"},{"mesh":17,"name":"F01_OWN_SHOP_RADIO_SERVICE_retail_shop_radio_service_hull-colonly"},{"mesh":18,"name":"F01_OWN_SHOP_RADIO_SERVICE_retail_shop_radio_service_linoleum-col"},{"mesh":19,"name":"F01_OWN_SHOP_RADIO_SERVICE_retail_shop_radio_service_metal-col"},{"mesh":20,"name":"F01_OWN_SHOP_RADIO_SERVICE_retail_shop_radio_service_milk_glass"},{"mesh":21,"name":"F01_OWN_SHOP_RADIO_SERVICE_retail_shop_radio_service_milk_glass-col"},{"mesh":22,"name":"F01_OWN_SHOP_RADIO_SERVICE_retail_shop_radio_service_nickel_plated-col"},{"mesh":23,"name":"F01_OWN_SHOP_RADIO_SERVICE_retail_shop_radio_service_paper-col"},{"mesh":24,"name":"F01_OWN_SHOP_RADIO_SERVICE_retail_shop_radio_service_plaster-col"},{"mesh":25,"name":"F01_OWN_SHOP_RADIO_SERVICE_retail_shop_radio_service_plaster_stained-col"},{"mesh":26,"name":"F01_OWN_SHOP_RADIO_SERVICE_retail_shop_radio_service_plywood-col"},{"mesh":27,"name":"F01_OWN_SHOP_RADIO_SERVICE_retail_shop_radio_service_screen"},{"mesh":28,"name":"F01_OWN_SHOP_RADIO_SERVICE_retail_shop_radio_service_screen-col"},{"mesh":29,"name":"F01_OWN_SHOP_RADIO_SERVICE_retail_shop_radio_service_stairwell_teal-col"},{"mesh":30,"name":"F01_OWN_SHOP_RADIO_SERVICE_retail_shop_radio_service_terracotta"},{"mesh":31,"name":"F01_OWN_SHOP_RADIO_SERVICE_retail_shop_radio_service_timber-col"},{"mesh":32,"name":"F01_OWN_SHOP_RADIO_SERVICE_retail_shop_radio_service_trim-col"},{"mesh":33,"name":"F01_OWN_SHOP_RADIO_SERVICE_retail_shop_radio_service_wainscot-col"},{"mesh":34,"name":"F01_OWN_SHOP_RADIO_SERVICE_retail_shop_radio_service_wood_dark-col"},{"mesh":35,"name":"F01_OWN_SHOP_RADIO_SERVICE_wear_fx_scuff"}],"meshes":[{"name":"F01_OWN_SHOP_RADIO_SERVICE_retail_shop_radio_service_appliance-col","primitives":[{"attributes":{"POSITION":14,"NORMAL":15,"TEXCOORD_0":16},"indices":0,"material":31}]},{"name":"F01_OWN_SHOP_RADIO_SERVICE_retail_shop_radio_service_awning_vinyl-col","primitives":[{"attributes":{"POSITION":17,"NORMAL":18,"TEXCOORD_0":19},"indices":3,"material":30}]},{"name":"F01_OWN_SHOP_RADIO_SERVICE_retail_shop_radio_service_bakelite","primitives":[{"attributes":{"POSITION":20,"NORMAL":21,"TEXCOORD_0":22},"indices":11,"material":26}]},{"name":"F01_OWN_SHOP_RADIO_SERVICE_retail_shop_radio_service_bakelite_black","primitives":[{"attributes":{"POSITION":23,"NORMAL":24,"TEXCOORD_0":25},"indices":26,"material":10}]},{"name":"F01_OWN_SHOP_RADIO_SERVICE_retail_shop_radio_service_bakelite_black-col","primitives":[{"attributes":{"POSITION":27,"NORMAL":28,"TEXCOORD_0":29},"indices":7,"material":10}]},{"name":"F01_OWN_SHOP_RADIO_SERVICE_retail_shop_radio_service_brass","primitives":[{"attributes":{"POSITION":30,"NORMAL":31,"TEXCOORD_0":32},"indices":12,"material":1}]},{"name":"F01_OWN_SHOP_RADIO_SERVICE_retail_shop_radio_service_brass_bright-col","primitives":[{"attributes":{"POSITION":33,"NORMAL":34,"TEXCOORD_0":35},"indices":0,"material":11}]},{"name":"F01_OWN_SHOP_RADIO_SERVICE_retail_shop_radio_service_brass_dull-col","primitives":[{"attributes":{"POSITION":36,"NORMAL":37,"TEXCOORD_0":38},"indices":1,"material":12}]},{"name":"F01_OWN_SHOP_RADIO_SERVICE_retail_shop_radio_service_cast_iron-col","primitives":[{"attributes":{"POSITION":39,"NORMAL":40,"TEXCOORD_0":41},"indices":0,"material":2}]},{"name":"F01_OWN_SHOP_RADIO_SERVICE_retail_shop_radio_service_chrome","primitives":[{"attributes":{"POSITION":42,"NORMAL":43,"TEXCOORD_0":44},"indices":12,"material":13}]},{"name":"F01_OWN_SHOP_RADIO_SERVICE_retail_shop_radio_service_concrete-col","primitives":[{"attributes":{"POSITION":45,"NORMAL":46,"TEXCOORD_0":47},"indices":0,"material":9}]},{"name":"F01_OWN_SHOP_RADIO_SERVICE_retail_shop_radio_service_copper_aged-col","primitives":[{"attributes":{"POSITION":48,"NORMAL":49,"TEXCOORD_0":50},"indices":0,"material":32}]},{"name":"F01_OWN_SHOP_RADIO_SERVICE_retail_shop_radio_service_countertop-col","primitives":[{"attributes":{"POSITION":51,"NORMAL":52,"TEXCOORD_0":53},"indices":0,"material":14}]},{"name":"F01_OWN_SHOP_RADIO_SERVICE_retail_shop_radio_service_enamel","primitives":[{"attributes":{"POSITION":54,"NORMAL":55,"TEXCOORD_0":56},"indices":57,"material":27}]},{"name":"F01_OWN_SHOP_RADIO_SERVICE_retail_shop_radio_service_fabric_warm-col","primitives":[{"attributes":{"POSITION":58,"NORMAL":59,"TEXCOORD_0":60},"indices":0,"material":15}]},{"name":"F01_OWN_SHOP_RADIO_SERVICE_retail_shop_radio_service_fx_shadow","primitives":[{"attributes":{"POSITION":61,"NORMAL":62,"TEXCOORD_0":63},"indices":4,"material":16}]},{"name":"F01_OWN_SHOP_RADIO_SERVICE_retail_shop_radio_service_glassish-col","primitives":[{"attributes":{"POSITION":64,"NORMAL":65,"TEXCOORD_0":66},"indices":2,"material":3}]},{"name":"F01_OWN_SHOP_RADIO_SERVICE_retail_shop_radio_service_hull-colonly","primitives":[{"attributes":{"POSITION":67,"NORMAL":68,"TEXCOORD_0":69},"indices":12,"material":17}]},{"name":"F01_OWN_SHOP_RADIO_SERVICE_retail_shop_radio_service_linoleum-col","primitives":[{"attributes":{"POSITION":70,"NORMAL":71,"TEXCOORD_0":72},"indices":0,"material":23}]},{"name":"F01_OWN_SHOP_RADIO_SERVICE_retail_shop_radio_service_metal-col","primitives":[{"attributes":{"POSITION":73,"NORMAL":74,"TEXCOORD_0":75},"indices":3,"material":0}]},{"name":"F01_OWN_SHOP_RADIO_SERVICE_retail_shop_radio_service_milk_glass","primitives":[{"attributes":{"POSITION":76,"NORMAL":77,"TEXCOORD_0":78},"indices":12,"material":25}]},{"name":"F01_OWN_SHOP_RADIO_SERVICE_retail_shop_radio_service_milk_glass-col","primitives":[{"attributes":{"POSITION":79,"NORMAL":80,"TEXCOORD_0":81},"indices":9,"material":25}]},{"name":"F01_OWN_SHOP_RADIO_SERVICE_retail_shop_radio_service_nickel_plated-col","primitives":[{"attributes":{"POSITION":82,"NORMAL":83,"TEXCOORD_0":84},"indices":3,"material":18}]},{"name":"F01_OWN_SHOP_RADIO_SERVICE_retail_shop_radio_service_paper-col","primitives":[{"attributes":{"POSITION":85,"NORMAL":86,"TEXCOORD_0":87},"indices":0,"material":19}]},{"name":"F01_OWN_SHOP_RADIO_SERVICE_retail_shop_radio_service_plaster-col","primitives":[{"attributes":{"POSITION":88,"NORMAL":89,"TEXCOORD_0":90},"indices":7,"material":7}]},{"name":"F01_OWN_SHOP_RADIO_SERVICE_retail_shop_radio_service_plaster_stained-col","primitives":[{"attributes":{"POSITION":91,"NORMAL":92,"TEXCOORD_0":93},"indices":6,"material":8}]},{"name":"F01_OWN_SHOP_RADIO_SERVICE_retail_shop_radio_service_plywood-col","primitives":[{"attributes":{"POSITION":94,"NORMAL":95,"TEXCOORD_0":96},"indices":0,"material":4}]},{"name":"F01_OWN_SHOP_RADIO_SERVICE_retail_shop_radio_service_screen","primitives":[{"attributes":{"POSITION":97,"NORMAL":98,"TEXCOORD_0":99},"indices":12,"material":28}]},{"name":"F01_OWN_SHOP_RADIO_SERVICE_retail_shop_radio_service_screen-col","primitives":[{"attributes":{"POSITION":100,"NORMAL":101,"TEXCOORD_0":102},"indices":0,"material":28}]},{"name":"F01_OWN_SHOP_RADIO_SERVICE_retail_shop_radio_service_stairwell_teal-col","primitives":[{"attributes":{"POSITION":103,"NORMAL":104,"TEXCOORD_0":105},"indices":0,"material":29}]},{"name":"F01_OWN_SHOP_RADIO_SERVICE_retail_shop_radio_service_terracotta","primitives":[{"attributes":{"POSITION":106,"NORMAL":107,"TEXCOORD_0":108},"indices":13,"material":20}]},{"name":"F01_OWN_SHOP_RADIO_SERVICE_retail_shop_radio_service_timber-col","primitives":[{"attributes":{"POSITION":109,"NORMAL":110,"TEXCOORD_0":111},"indices":8,"material":21}]},{"name":"F01_OWN_SHOP_RADIO_SERVICE_retail_shop_radio_service_trim-col","primitives":[{"attributes":{"POSITION":112,"NORMAL":113,"TEXCOORD_0":114},"indices":5,"material":5}]},{"name":"F01_OWN_SHOP_RADIO_SERVICE_retail_shop_radio_service_wainscot-col","primitives":[{"attributes":{"POSITION":115,"NORMAL":116,"TEXCOORD_0":117},"indices":1,"material":24}]},{"name":"F01_OWN_SHOP_RADIO_SERVICE_retail_shop_radio_service_wood_dark-col","primitives":[{"attributes":{"POSITION":118,"NORMAL":119,"TEXCOORD_0":120},"indices":10,"material":22}]},{"name":"F01_OWN_SHOP_RADIO_SERVICE_wear_fx_scuff","primitives":[{"attributes":{"POSITION":121,"NORMAL":122,"TEXCOORD_0":123},"indices":4,"material":6}]}],"accessors":[{"bufferView":0,"componentType":5123,"count":36,"type":"SCALAR"},{"bufferView":1,"componentType":5123,"count":108,"type":"SCALAR"},{"bufferView":2,"componentType":5123,"count":288,"type":"SCALAR"},{"bufferView":3,"componentType":5123,"count":72,"type":"SCALAR"},{"bufferView":4,"componentType":5123,"count":6,"type":"SCALAR"},{"bufferView":5,"componentType":5123,"count":180,"type":"SCALAR"},{"bufferView":6,"componentType":5123,"count":144,"type":"SCALAR"},{"bufferView":7,"componentType":5123,"count":252,"type":"SCALAR"},{"bufferView":8,"componentType":5123,"count":216,"type":"SCALAR"},{"bufferView":9,"componentType":5123,"count":684,"type":"SCALAR"},{"bufferView":10,"componentType":5123,"count":468,"type":"SCALAR"},{"bufferView":11,"componentType":5123,"count":384,"type":"SCALAR"},{"bufferView":12,"componentType":5123,"count":36,"type":"SCALAR"},{"bufferView":13,"componentType":5123,"count":96,"type":"SCALAR"},{"bufferView":14,"componentType":5126,"count":24,"max":[19.950000762939453,1.4500000476837158,56.41999816894531],"min":[19.450000762939453,1.0099999904632568,55.900001525878906],"type":"VEC3"},{"bufferView":15,"componentType":5126,"count":24,"type":"VEC3"},{"bufferView":16,"componentType":5126,"count":24,"type":"VEC2"},{"bufferView":17,"componentType":5126,"count":48,"max":[16.739999771118164,2.7100000381469727,58.63999938964844],"min":[15.420000076293945,2.359999895095825,55.7599983215332],"type":"VEC3"},{"bufferView":18,"componentType":5126,"count":48,"type":"VEC3"},{"bufferView":19,"componentType":5126,"count":48,"type":"VEC2"},{"bufferView":20,"componentType":5126,"count":200,"max":[21.774999618530273,0.029999999329447746,57.494998931884766],"min":[21.125,0,56.904998779296875],"type":"VEC3"},{"bufferView":21,"componentType":5126,"count":200,"type":"VEC3"},{"bufferView":22,"componentType":5126,"count":200,"type":"VEC2"},{"bufferView":23,"componentType":5126,"count":232,"max":[21.690000534057617,1.4199999570846558,57.53499984741211],"min":[20.959999084472656,0.30000001192092896,56.88999938964844],"type":"VEC3"},{"bufferView":24,"componentType":5126,"count":232,"type":"VEC3"},{"bufferView":25,"componentType":5126,"count":232,"type":"VEC2"},{"bufferView":26,"componentType":5123,"count":384,"type":"SCALAR"},{"bufferView":27,"componentType":5126,"count":168,"max":[21.610000610351562,1.3899999856948853,57.630001068115234],"min":[18.799999237060547,1.0099999904632568,55.86000061035156],"type":"VEC3"},{"bufferView":28,"componentType":5126,"count":168,"type":"VEC3"},{"bufferView":29,"componentType":5126,"count":168,"type":"VEC2"},{"bufferView":30,"componentType":5126,"count":24,"max":[21.09000015258789,0.550000011920929,57.290000915527344],"min":[21.077999114990234,0.3799999952316284,57.11000061035156],"type":"VEC3"},{"bufferView":31,"componentType":5126,"count":24,"type":"VEC3"},{"bufferView":32,"componentType":5126,"count":24,"type":"VEC2"},{"bufferView":33,"componentType":5126,"count":24,"max":[16.979999542236328,1.5800000429153442,57.38999938964844],"min":[16.95199966430664,1.3200000524520874,57.209999084472656],"type":"VEC3"},{"bufferView":34,"componentType":5126,"count":24,"type":"VEC3"},{"bufferView":35,"componentType":5126,"count":24,"type":"VEC2"},{"bufferView":36,"componentType":5126,"count":72,"max":[21.1200008392334,1.0299999713897705,58.279998779296875],"min":[17.360000610351562,0.47999998927116394,55.76499938964844],"type":"VEC3"},{"bufferView":37,"componentType":5126,"count":72,"type":"VEC3"},{"bufferView":38,"componentType":5126,"count":72,"type":"VEC2"},{"bufferView":39,"componentType":5126,"count":24,"max":[20.459999084472656,0.3400000035762787,57.52000045776367],"min":[20.079999923706055,0.07999999821186066,56.880001068115234],"type":"VEC3"},{"bufferView":40,"componentType":5126,"count":24,"type":"VEC3"},{"bufferView":41,"componentType":5126,"count":24,"type":"VEC2"},{"bufferView":42,"componentType":5126,"count":24,"max":[21.809999465942383,1.7200000286102295,57.529998779296875],"min":[21.09000015258789,0.019999999552965164,56.869998931884766],"type":"VEC3"},{"bufferView":43,"componentType":5126,"count":24,"type":"VEC3"},{"bufferView":44,"componentType":5126,"count":24,"type":"VEC2"},{"bufferView":45,"componentType":5126,"count":24,"max":[26.81999969482422,0.009999999776482582,58.70000076293945],"min":[24.219999313354492,-0.05000000074505806,55.70000076293945],"type":"VEC3"},{"bufferView":46,"componentType":5126,"count":24,"type":"VEC3"},{"bufferView":47,"componentType":5126,"count":24,"type":"VEC2"},{"bufferView":48,"componentType":5126,"count":24,"max":[20.959999084472656,0.5400000214576721,57.619998931884766],"min":[20.579999923706055,0.07999999821186066,56.779998779296875],"type":"VEC3"},{"bufferView":49,"componentType":5126,"count":24,"type":"VEC3"},{"bufferView":50,"componentType":5126,"count":24,"type":"VEC2"},{"bufferView":51,"componentType":5126,"count":24,"max":[18.399999618530273,1.1200000047683716,58.68000030517578],"min":[17.700000762939453,1.0700000524520874,57.15999984741211],"type":"VEC3"},{"bufferView":52,"componentType":5126,"count":24,"type":"VEC3"},{"bufferView":53,"componentType":5126,"count":24,"type":"VEC2"},{"bufferView":54,"componentType":5126,"count":100,"max":[21.041000366210938,0.9850000143051147,57.2859992980957],"min":[21.009000778198242,0.9700000286102295,57.13399887084961],"type":"VEC3"},{"bufferView":55,"componentType":5126,"count":100,"type":"VEC3"},{"bufferView":56,"componentType":5126,"count":100,"type":"VEC2"},{"bufferView":57,"componentType":5123,"count":192,"type":"SCALAR"},{"bufferView":58,"componentType":5126,"count":24,"max":[17.989999771118164,1.0399999618530273,57.52000045776367],"min":[17.59000015258789,0.46000000834465027,56.959999084472656],"type":"VEC3"},{"bufferView":59,"componentType":5126,"count":24,"type":"VEC3"},{"bufferView":60,"componentType":5126,"count":24,"type":"VEC2"},{"bufferView":61,"componentType":5126,"count":4,"max":[21.918800354003906,0.004000000189989805,57.69240188598633],"min":[20.84119987487793,0.004000000189989805,56.70759963989258],"type":"VEC3"},{"bufferView":62,"componentType":5126,"count":4,"type":"VEC3"},{"bufferView":63,"componentType":5126,"count":4,"type":"VEC2"},{"bufferView":64,"componentType":5126,"count":192,"max":[21.985000610351562,3.049999952316284,58.65999984741211],"min":[16.860000610351562,0.550000011920929,55.7400016784668],"type":"VEC3"},{"bufferView":65,"componentType":5126,"count":192,"type":"VEC3"},{"bufferView":66,"componentType":5126,"count":192,"type":"VEC2"},{"bufferView":67,"componentType":5126,"count":24,"max":[21.809999465942383,1.7200000286102295,57.59000015258789],"min":[20.950000762939453,0,56.810001373291016],"type":"VEC3"},{"bufferView":68,"componentType":5126,"count":24,"type":"VEC3"},{"bufferView":69,"componentType":5126,"count":24,"type":"VEC2"},{"bufferView":70,"componentType":5126,"count":24,"max":[22,0.009999999776482582,58.70000076293945],"min":[17,-0.05000000074505806,55.70000076293945],"type":"VEC3"},{"bufferView":71,"componentType":5126,"count":24,"type":"VEC3"},{"bufferView":72,"componentType":5126,"count":24,"type":"VEC2"},{"bufferView":73,"componentType":5126,"count":48,"max":[16.739999771118164,2.630000114440918,58.599998474121094],"min":[15.4399995803833,2.5799999237060547,55.810001373291016],"type":"VEC3"},{"bufferView":74,"componentType":5126,"count":48,"type":"VEC3"},{"bufferView":75,"componentType":5126,"count":48,"type":"VEC2"},{"bufferView":76,"componentType":5126,"count":24,"max":[21.139999389648438,1.7000000476837158,57.5099983215332],"min":[21.059999465942383,1.559999942779541,56.88999938964844],"type":"VEC3"},{"bufferView":77,"componentType":5126,"count":24,"type":"VEC3"},{"bufferView":78,"componentType":5126,"count":24,"type":"VEC2"},{"bufferView":79,"componentType":5126,"count":456,"max":[21.450000762939453,1.8600000143051147,58.58000183105469],"min":[19.549999237060547,0.8899999856948853,55.880001068115234],"type":"VEC3"},{"bufferView":80,"componentType":5126,"count":456,"type":"VEC3"},{"bufferView":81,"componentType":5126,"count":456,"type":"VEC2"},{"bufferView":82,"componentType":5126,"count":48,"max":[16.985000610351562,2.0850000381469727,58.65999984741211],"min":[16.844999313354492,0.5149999856948853,57.150001525878906],"type":"VEC3"},{"bufferView":83,"componentType":5126,"count":48,"type":"VEC3"},{"bufferView":84,"componentType":5126,"count":48,"type":"VEC2"},{"bufferView":85,"componentType":5126,"count":24,"max":[18.299999237060547,1.1799999475479126,57.380001068115234],"min":[17.920000076293945,1.1299999952316284,57.02000045776367],"type":"VEC3"},{"bufferView":86,"componentType":5126,"count":24,"type":"VEC3"},{"bufferView":87,"componentType":5126,"count":24,"type":"VEC2"},{"bufferView":88,"componentType":5126,"count":168,"max":[26.81999969482422,3.549999952316284,58.70000076293945],"min":[17,0.009999999776482582,55.70000076293945],"type":"VEC3"},{"bufferView":89,"componentType":5126,"count":168,"type":"VEC3"},{"bufferView":90,"componentType":5126,"count":168,"type":"VEC2"},{"bufferView":91,"componentType":5126,"count":96,"max":[22,3.259999990463257,58.70000076293945],"min":[21.940000534057617,0.009999999776482582,55.70000076293945],"type":"VEC3"},{"bufferView":92,"componentType":5126,"count":96,"type":"VEC3"},{"bufferView":93,"componentType":5126,"count":96,"type":"VEC2"},{"bufferView":94,"componentType":5126,"count":24,"max":[17.579999923706055,1.5700000524520874,58.52000045776367],"min":[17.540000915527344,0.41999998688697815,57.31999969482422],"type":"VEC3"},{"bufferView":95,"componentType":5126,"count":24,"type":"VEC3"},{"bufferView":96,"componentType":5126,"count":24,"type":"VEC2"},{"bufferView":97,"componentType":5126,"count":24,"max":[21.094999313354492,1.3799999952316284,57.470001220703125],"min":[21.084999084472656,1.0199999809265137,56.93000030517578],"type":"VEC3"},{"bufferView":98,"componentType":5126,"count":24,"type":"VEC3"},{"bufferView":99,"componentType":5126,"count":24,"type":"VEC2"},{"bufferView":100,"componentType":5126,"count":24,"max":[19.84000015258789,1.3799999952316284,56.459999084472656],"min":[19.559999465942383,1.159999966621399,56.41999816894531],"type":"VEC3"},{"bufferView":101,"componentType":5126,"count":24,"type":"VEC3"},{"bufferView":102,"componentType":5126,"count":24,"type":"VEC2"},{"bufferView":103,"componentType":5126,"count":24,"max":[16.799999237060547,3.009999990463257,58.58000183105469],"min":[16.739999771118164,2.549999952316284,55.81999969482422],"type":"VEC3"},{"bufferView":104,"componentType":5126,"count":24,"type":"VEC3"},{"bufferView":105,"componentType":5126,"count":24,"type":"VEC2"},{"bufferView":106,"componentType":5126,"count":50,"max":[21.041000366210938,0.9850000143051147,57.04600143432617],"min":[21.009000778198242,0.9700000286102295,57.013999938964844],"type":"VEC3"},{"bufferView":107,"componentType":5126,"count":50,"type":"VEC3"},{"bufferView":108,"componentType":5126,"count":50,"type":"VEC2"},{"bufferView":109,"componentType":5126,"count":144,"max":[21.719999313354492,2.1500000953674316,58.650001525878906],"min":[19.200000762939453,0.05000000074505806,55.75],"type":"VEC3"},{"bufferView":110,"componentType":5126,"count":144,"type":"VEC3"},{"bufferView":111,"componentType":5126,"count":144,"type":"VEC2"},{"bufferView":112,"componentType":5126,"count":120,"max":[22,3.0999999046325684,58.189998626708984],"min":[21.93000030517578,2.299999952316284,56.209999084472656],"type":"VEC3"},{"bufferView":113,"componentType":5126,"count":120,"type":"VEC3"},{"bufferView":114,"componentType":5126,"count":120,"type":"VEC2"},{"bufferView":115,"componentType":5126,"count":72,"max":[22,1.100000023841858,58.70000076293945],"min":[17,0.05000000074505806,55.70000076293945],"type":"VEC3"},{"bufferView":116,"componentType":5126,"count":72,"type":"VEC3"},{"bufferView":117,"componentType":5126,"count":72,"type":"VEC2"},{"bufferView":118,"componentType":5126,"count":312,"max":[25.739999771118164,4.199999809265137,58.86000061035156],"min":[16.579999923706055,0,55.540000915527344],"type":"VEC3"},{"bufferView":119,"componentType":5126,"count":312,"type":"VEC3"},{"bufferView":120,"componentType":5126,"count":312,"type":"VEC2"},{"bufferView":121,"componentType":5126,"count":4,"max":[17.110000610351562,0.006000000052154064,58.099998474121094],"min":[16.209999084472656,0.006000000052154064,56.95000076293945],"type":"VEC3"},{"bufferView":122,"componentType":5126,"count":4,"type":"VEC3"},{"bufferView":123,"componentType":5126,"count":4,"type":"VEC2"}],"bufferViews":[{"buffer":0,"byteLength":72,"byteOffset":0,"target":34963},{"buffer":0,"byteLength":216,"byteOffset":72,"target":34963},{"buffer":0,"byteLength":576,"byteOffset":288,"target":34963},{"buffer":0,"byteLength":144,"byteOffset":864,"target":34963},{"buffer":0,"byteLength":12,"byteOffset":1008,"target":34963},{"buffer":0,"byteLength":360,"byteOffset":1020,"target":34963},{"buffer":0,"byteLength":288,"byteOffset":1380,"target":34963},{"buffer":0,"byteLength":504,"byteOffset":1668,"target":34963},{"buffer":0,"byteLength":432,"byteOffset":2172,"target":34963},{"buffer":0,"byteLength":1368,"byteOffset":2604,"target":34963},{"buffer":0,"byteLength":936,"byteOffset":3972,"target":34963},{"buffer":0,"byteLength":768,"byteOffset":4908,"target":34963},{"buffer":0,"byteLength":72,"byteOffset":5676,"target":34963},{"buffer":0,"byteLength":192,"byteOffset":5748,"target":34963},{"buffer":0,"byteLength":288,"byteOffset":5940,"target":34962,"byteStride":12},{"buffer":0,"byteLength":288,"byteOffset":6228,"target":34962,"byteStride":12},{"buffer":0,"byteLength":192,"byteOffset":6516,"target":34962,"byteStride":8},{"buffer":0,"byteLength":576,"byteOffset":6708,"target":34962,"byteStride":12},{"buffer":0,"byteLength":576,"byteOffset":7284,"target":34962,"byteStride":12},{"buffer":0,"byteLength":384,"byteOffset":7860,"target":34962,"byteStride":8},{"buffer":0,"byteLength":2400,"byteOffset":8244,"target":34962,"byteStride":12},{"buffer":0,"byteLength":2400,"byteOffset":10644,"target":34962,"byteStride":12},{"buffer":0,"byteLength":1600,"byteOffset":13044,"target":34962,"byteStride":8},{"buffer":0,"byteLength":2784,"byteOffset":14644,"target":34962,"byteStride":12},{"buffer":0,"byteLength":2784,"byteOffset":17428,"target":34962,"byteStride":12},{"buffer":0,"byteLength":1856,"byteOffset":20212,"target":34962,"byteStride":8},{"buffer":0,"byteLength":768,"byteOffset":22068,"target":34963},{"buffer":0,"byteLength":2016,"byteOffset":22836,"target":34962,"byteStride":12},{"buffer":0,"byteLength":2016,"byteOffset":24852,"target":34962,"byteStride":12},{"buffer":0,"byteLength":1344,"byteOffset":26868,"target":34962,"byteStride":8},{"buffer":0,"byteLength":288,"byteOffset":28212,"target":34962,"byteStride":12},{"buffer":0,"byteLength":288,"byteOffset":28500,"target":34962,"byteStride":12},{"buffer":0,"byteLength":192,"byteOffset":28788,"target":34962,"byteStride":8},{"buffer":0,"byteLength":288,"byteOffset":28980,"target":34962,"byteStride":12},{"buffer":0,"byteLength":288,"byteOffset":29268,"target":34962,"byteStride":12},{"buffer":0,"byteLength":192,"byteOffset":29556,"target":34962,"byteStride":8},{"buffer":0,"byteLength":864,"byteOffset":29748,"target":34962,"byteStride":12},{"buffer":0,"byteLength":864,"byteOffset":30612,"target":34962,"byteStride":12},{"buffer":0,"byteLength":576,"byteOffset":31476,"target":34962,"byteStride":8},{"buffer":0,"byteLength":288,"byteOffset":32052,"target":34962,"byteStride":12},{"buffer":0,"byteLength":288,"byteOffset":32340,"target":34962,"byteStride":12},{"buffer":0,"byteLength":192,"byteOffset":32628,"target":34962,"byteStride":8},{"buffer":0,"byteLength":288,"byteOffset":32820,"target":34962,"byteStride":12},{"buffer":0,"byteLength":288,"byteOffset":33108,"target":34962,"byteStride":12},{"buffer":0,"byteLength":192,"byteOffset":33396,"target":34962,"byteStride":8},{"buffer":0,"byteLength":288,"byteOffset":33588,"target":34962,"byteStride":12},{"buffer":0,"byteLength":288,"byteOffset":33876,"target":34962,"byteStride":12},{"buffer":0,"byteLength":192,"byteOffset":34164,"target":34962,"byteStride":8},{"buffer":0,"byteLength":288,"byteOffset":34356,"target":34962,"byteStride":12},{"buffer":0,"byteLength":288,"byteOffset":34644,"target":34962,"byteStride":12},{"buffer":0,"byteLength":192,"byteOffset":34932,"target":34962,"byteStride":8},{"buffer":0,"byteLength":288,"byteOffset":35124,"target":34962,"byteStride":12},{"buffer":0,"byteLength":288,"byteOffset":35412,"target":34962,"byteStride":12},{"buffer":0,"byteLength":192,"byteOffset":35700,"target":34962,"byteStride":8},{"buffer":0,"byteLength":1200,"byteOffset":35892,"target":34962,"byteStride":12},{"buffer":0,"byteLength":1200,"byteOffset":37092,"target":34962,"byteStride":12},{"buffer":0,"byteLength":800,"byteOffset":38292,"target":34962,"byteStride":8},{"buffer":0,"byteLength":384,"byteOffset":39092,"target":34963},{"buffer":0,"byteLength":288,"byteOffset":39476,"target":34962,"byteStride":12},{"buffer":0,"byteLength":288,"byteOffset":39764,"target":34962,"byteStride":12},{"buffer":0,"byteLength":192,"byteOffset":40052,"target":34962,"byteStride":8},{"buffer":0,"byteLength":48,"byteOffset":40244,"target":34962,"byteStride":12},{"buffer":0,"byteLength":48,"byteOffset":40292,"target":34962,"byteStride":12},{"buffer":0,"byteLength":32,"byteOffset":40340,"target":34962,"byteStride":8},{"buffer":0,"byteLength":2304,"byteOffset":40372,"target":34962,"byteStride":12},{"buffer":0,"byteLength":2304,"byteOffset":42676,"target":34962,"byteStride":12},{"buffer":0,"byteLength":1536,"byteOffset":44980,"target":34962,"byteStride":8},{"buffer":0,"byteLength":288,"byteOffset":46516,"target":34962,"byteStride":12},{"buffer":0,"byteLength":288,"byteOffset":46804,"target":34962,"byteStride":12},{"buffer":0,"byteLength":192,"byteOffset":47092,"target":34962,"byteStride":8},{"buffer":0,"byteLength":288,"byteOffset":47284,"target":34962,"byteStride":12},{"buffer":0,"byteLength":288,"byteOffset":47572,"target":34962,"byteStride":12},{"buffer":0,"byteLength":192,"byteOffset":47860,"target":34962,"byteStride":8},{"buffer":0,"byteLength":576,"byteOffset":48052,"target":34962,"byteStride":12},{"buffer":0,"byteLength":576,"byteOffset":48628,"target":34962,"byteStride":12},{"buffer":0,"byteLength":384,"byteOffset":49204,"target":34962,"byteStride":8},{"buffer":0,"byteLength":288,"byteOffset":49588,"target":34962,"byteStride":12},{"buffer":0,"byteLength":288,"byteOffset":49876,"target":34962,"byteStride":12},{"buffer":0,"byteLength":192,"byteOffset":50164,"target":34962,"byteStride":8},{"buffer":0,"byteLength":5472,"byteOffset":50356,"target":34962,"byteStride":12},{"buffer":0,"byteLength":5472,"byteOffset":55828,"target":34962,"byteStride":12},{"buffer":0,"byteLength":3648,"byteOffset":61300,"target":34962,"byteStride":8},{"buffer":0,"byteLength":576,"byteOffset":64948,"target":34962,"byteStride":12},{"buffer":0,"byteLength":576,"byteOffset":65524,"target":34962,"byteStride":12},{"buffer":0,"byteLength":384,"byteOffset":66100,"target":34962,"byteStride":8},{"buffer":0,"byteLength":288,"byteOffset":66484,"target":34962,"byteStride":12},{"buffer":0,"byteLength":288,"byteOffset":66772,"target":34962,"byteStride":12},{"buffer":0,"byteLength":192,"byteOffset":67060,"target":34962,"byteStride":8},{"buffer":0,"byteLength":2016,"byteOffset":67252,"target":34962,"byteStride":12},{"buffer":0,"byteLength":2016,"byteOffset":69268,"target":34962,"byteStride":12},{"buffer":0,"byteLength":1344,"byteOffset":71284,"target":34962,"byteStride":8},{"buffer":0,"byteLength":1152,"byteOffset":72628,"target":34962,"byteStride":12},{"buffer":0,"byteLength":1152,"byteOffset":73780,"target":34962,"byteStride":12},{"buffer":0,"byteLength":768,"byteOffset":74932,"target":34962,"byteStride":8},{"buffer":0,"byteLength":288,"byteOffset":75700,"target":34962,"byteStride":12},{"buffer":0,"byteLength":288,"byteOffset":75988,"target":34962,"byteStride":12},{"buffer":0,"byteLength":192,"byteOffset":76276,"target":34962,"byteStride":8},{"buffer":0,"byteLength":288,"byteOffset":76468,"target":34962,"byteStride":12},{"buffer":0,"byteLength":288,"byteOffset":76756,"target":34962,"byteStride":12},{"buffer":0,"byteLength":192,"byteOffset":77044,"target":34962,"byteStride":8},{"buffer":0,"byteLength":288,"byteOffset":77236,"target":34962,"byteStride":12},{"buffer":0,"byteLength":288,"byteOffset":77524,"target":34962,"byteStride":12},{"buffer":0,"byteLength":192,"byteOffset":77812,"target":34962,"byteStride":8},{"buffer":0,"byteLength":288,"byteOffset":78004,"target":34962,"byteStride":12},{"buffer":0,"byteLength":288,"byteOffset":78292,"target":34962,"byteStride":12},{"buffer":0,"byteLength":192,"byteOffset":78580,"target":34962,"byteStride":8},{"buffer":0,"byteLength":600,"byteOffset":78772,"target":34962,"byteStride":12},{"buffer":0,"byteLength":600,"byteOffset":79372,"target":34962,"byteStride":12},{"buffer":0,"byteLength":400,"byteOffset":79972,"target":34962,"byteStride":8},{"buffer":0,"byteLength":1728,"byteOffset":80372,"target":34962,"byteStride":12},{"buffer":0,"byteLength":1728,"byteOffset":82100,"target":34962,"byteStride":12},{"buffer":0,"byteLength":1152,"byteOffset":83828,"target":34962,"byteStride":8},{"buffer":0,"byteLength":1440,"byteOffset":84980,"target":34962,"byteStride":12},{"buffer":0,"byteLength":1440,"byteOffset":86420,"target":34962,"byteStride":12},{"buffer":0,"byteLength":960,"byteOffset":87860,"target":34962,"byteStride":8},{"buffer":0,"byteLength":864,"byteOffset":88820,"target":34962,"byteStride":12},{"buffer":0,"byteLength":864,"byteOffset":89684,"target":34962,"byteStride":12},{"buffer":0,"byteLength":576,"byteOffset":90548,"target":34962,"byteStride":8},{"buffer":0,"byteLength":3744,"byteOffset":91124,"target":34962,"byteStride":12},{"buffer":0,"byteLength":3744,"byteOffset":94868,"target":34962,"byteStride":12},{"buffer":0,"byteLength":2496,"byteOffset":98612,"target":34962,"byteStride":8},{"buffer":0,"byteLength":48,"byteOffset":101108,"target":34962,"byteStride":12},{"buffer":0,"byteLength":48,"byteOffset":101156,"target":34962,"byteStride":12},{"buffer":0,"byteLength":32,"byteOffset":101204,"target":34962,"byteStride":8}],"buffers":[{"byteLength":101236,"uri":"shop_radio_service.bin"}],"materials":[{"name":"M_metal_b","normalTexture":{"index":0,"scale":0.3499999940395355},"pbrMetallicRoughness":{"baseColorTexture":{"index":1},"metallicFactor":0.8999999761581421,"metallicRoughnessTexture":{"index":2}}},{"name":"M_brass_b","normalTexture":{"index":3,"scale":0.3499999940395355},"pbrMetallicRoughness":{"baseColorTexture":{"index":4},"metallicFactor":0.8500000238418579,"metallicRoughnessTexture":{"index":5}}},{"name":"M_cast_iron_b","normalTexture":{"index":6,"scale":0.3499999940395355},"pbrMetallicRoughness":{"baseColorTexture":{"index":7},"metallicFactor":0.3499999940395355,"metallicRoughnessTexture":{"index":8}}},{"alphaMode":"BLEND","doubleSided":true,"name":"M_glassish","normalTexture":{"index":9,"scale":0.550000011920929},"pbrMetallicRoughness":{"baseColorFactor":[0.7599999904632568,0.8500000238418579,0.8899999856948853,0.1599999964237213],"metallicFactor":0,"metallicRoughnessTexture":{"index":10}}},{"name":"M_plywood_b","normalTexture":{"index":11,"scale":0.3499999940395355},"pbrMetallicRoughness":{"baseColorTexture":{"index":12},"metallicFactor":0,"metallicRoughnessTexture":{"index":13}}},{"name":"M_trim_b","normalTexture":{"index":14,"scale":0.3499999940395355},"pbrMetallicRoughness":{"baseColorTexture":{"index":15},"metallicFactor":0,"metallicRoughnessTexture":{"index":16}}},{"alphaMode":"BLEND","doubleSided":true,"name":"M_fx_scuff","normalTexture":{"index":17,"scale":0.2800000011920929},"pbrMetallicRoughness":{"baseColorTexture":{"index":18},"metallicFactor":0,"metallicRoughnessTexture":{"index":19}}},{"name":"M_plaster_b","normalTexture":{"index":20,"scale":0.3499999940395355},"pbrMetallicRoughness":{"baseColorTexture":{"index":21},"metallicFactor":0,"metallicRoughnessTexture":{"index":22}}},{"name":"M_plaster_stained_b","normalTexture":{"index":23,"scale":0.3499999940395355},"pbrMetallicRoughness":{"baseColorTexture":{"index":24},"metallicFactor":0,"metallicRoughnessTexture":{"index":25}}},{"name":"M_concrete_b","normalTexture":{"index":26,"scale":0.3499999940395355},"pbrMetallicRoughness":{"baseColorTexture":{"index":27},"metallicFactor":0,"metallicRoughnessTexture":{"index":28}}},{"name":"M_bakelite_black","normalTexture":{"index":29,"scale":0.3499999940395355},"pbrMetallicRoughness":{"baseColorTexture":{"index":30},"metallicFactor":0,"metallicRoughnessTexture":{"index":31}}},{"name":"M_brass_bright","normalTexture":{"index":32,"scale":0.3499999940395355},"pbrMetallicRoughness":{"baseColorTexture":{"index":33},"metallicFactor":0.8500000238418579,"metallicRoughnessTexture":{"index":34}}},{"name":"M_brass_dull","normalTexture":{"index":35,"scale":0.3499999940395355},"pbrMetallicRoughness":{"baseColorTexture":{"index":36},"metallicFactor":0.30000001192092896,"metallicRoughnessTexture":{"index":37}}},{"name":"M_chrome_b","normalTexture":{"index":38,"scale":0.3499999940395355},"pbrMetallicRoughness":{"baseColorTexture":{"index":39},"metallicRoughnessTexture":{"index":40}}},{"name":"M_countertop_b","normalTexture":{"index":41,"scale":0.3499999940395355},"pbrMetallicRoughness":{"baseColorTexture":{"index":42},"metallicFactor":0,"metallicRoughnessTexture":{"index":43}}},{"name":"M_fabric_warm_b","normalTexture":{"index":44,"scale":0.3499999940395355},"pbrMetallicRoughness":{"baseColorTexture":{"index":45},"metallicFactor":0,"metallicRoughnessTexture":{"index":46}}},{"alphaMode":"BLEND","doubleSided":true,"extensions":{"KHR_materials_specular":{"specularFactor":0}},"name":"M_fx_shadow","pbrMetallicRoughness":{"baseColorTexture":{"index":47},"metallicFactor":0}},{"name":"M_slab_b","normalTexture":{"index":48,"scale":0.3499999940395355},"pbrMetallicRoughness":{"baseColorTexture":{"index":49},"metallicFactor":0,"metallicRoughnessTexture":{"index":50}}},{"name":"M_nickel_plated","normalTexture":{"index":51,"scale":0.3499999940395355},"pbrMetallicRoughness":{"baseColorTexture":{"index":52},"metallicFactor":0.699999988079071,"metallicRoughnessTexture":{"index":53}}},{"name":"M_paper_b","normalTexture":{"index":54,"scale":0.3499999940395355},"pbrMetallicRoughness":{"baseColorTexture":{"index":55},"metallicFactor":0,"metallicRoughnessTexture":{"index":56}}},{"name":"M_terracotta_b","normalTexture":{"index":57,"scale":0.3499999940395355},"pbrMetallicRoughness":{"baseColorTexture":{"index":58},"metallicFactor":0,"metallicRoughnessTexture":{"index":59}}},{"name":"M_timber_b","normalTexture":{"index":60,"scale":0.3499999940395355},"pbrMetallicRoughness":{"baseColorTexture":{"index":61},"metallicFactor":0,"metallicRoughnessTexture":{"index":62}}},{"name":"M_wood_dark_b","normalTexture":{"index":63,"scale":0.3499999940395355},"pbrMetallicRoughness":{"baseColorTexture":{"index":64},"metallicFactor":0,"metallicRoughnessTexture":{"index":65}}},{"name":"M_linoleum_b","normalTexture":{"index":66,"scale":0.3499999940395355},"pbrMetallicRoughness":{"baseColorTexture":{"index":67},"metallicFactor":0,"metallicRoughnessTexture":{"index":68}}},{"name":"M_wainscot_b","normalTexture":{"index":69,"scale":0.3499999940395355},"pbrMetallicRoughness":{"baseColorTexture":{"index":70},"metallicFactor":0,"metallicRoughnessTexture":{"index":71}}},{"name":"M_milk_glass","normalTexture":{"index":72,"scale":0.3499999940395355},"pbrMetallicRoughness":{"baseColorTexture":{"index":73},"metallicFactor":0,"metallicRoughnessTexture":{"index":74}}},{"name":"M_bakelite_b","normalTexture":{"index":75,"scale":0.3499999940395355},"pbrMetallicRoughness":{"baseColorTexture":{"index":76},"metallicFactor":0,"metallicRoughnessTexture":{"index":77}}},{"name":"M_enamel_b","normalTexture":{"index":78,"scale":0.3499999940395355},"pbrMetallicRoughness":{"baseColorTexture":{"index":79},"metallicFactor":0,"metallicRoughnessTexture":{"index":80}}},{"doubleSided":true,"name":"M_screen","pbrMetallicRoughness":{"baseColorFactor":[0.07000000029802322,0.07999999821186066,0.09000000357627869,1],"metallicFactor":0,"roughnessFactor":0.25}},{"name":"M_stairwell_teal_b","normalTexture":{"index":81,"scale":0.3499999940395355},"pbrMetallicRoughness":{"baseColorTexture":{"index":82},"metallicFactor":0,"metallicRoughnessTexture":{"index":83}}},{"name":"M_awning_vinyl","normalTexture":{"index":84,"scale":0.3499999940395355},"pbrMetallicRoughness":{"baseColorTexture":{"index":85},"metallicFactor":0,"metallicRoughnessTexture":{"index":86}}},{"name":"M_appliance_b","normalTexture":{"index":87,"scale":0.3499999940395355},"pbrMetallicRoughness":{"baseColorTexture":{"index":88},"metallicFactor":0,"metallicRoughnessTexture":{"index":89}}},{"name":"M_copper_aged","normalTexture":{"index":90,"scale":0.3499999940395355},"pbrMetallicRoughness":{"baseColorTexture":{"index":91},"metallicFactor":0.7200000286102295,"metallicRoughnessTexture":{"index":92}}}],"textures":[{"sampler":0,"source":0},{"sampler":0,"source":1},{"sampler":0,"source":2},{"sampler":0,"source":3},{"sampler":0,"source":4},{"sampler":0,"source":5},{"sampler":0,"source":6},{"sampler":0,"source":7},{"sampler":0,"source":8},{"sampler":0,"source":9},{"sampler":0,"source":10},{"sampler":0,"source":11},{"sampler":0,"source":12},{"sampler":0,"source":13},{"sampler":0,"source":14},{"sampler":0,"source":15},{"sampler":0,"source":16},{"sampler":0,"source":17},{"sampler":0,"source":18},{"sampler":0,"source":19},{"sampler":0,"source":20},{"sampler":0,"source":21},{"sampler":0,"source":22},{"sampler":0,"source":23},{"sampler":0,"source":24},{"sampler":0,"source":25},{"sampler":0,"source":26},{"sampler":0,"source":27},{"sampler":0,"source":28},{"sampler":0,"source":29},{"sampler":0,"source":30},{"sampler":0,"source":31},{"sampler":0,"source":32},{"sampler":0,"source":33},{"sampler":0,"source":34},{"sampler":0,"source":35},{"sampler":0,"source":36},{"sampler":0,"source":37},{"sampler":0,"source":38},{"sampler":0,"source":39},{"sampler":0,"source":40},{"sampler":0,"source":41},{"sampler":0,"source":42},{"sampler":0,"source":43},{"sampler":0,"source":44},{"sampler":0,"source":45},{"sampler":0,"source":46},{"sampler":0,"source":47},{"sampler":0,"source":48},{"sampler":0,"source":49},{"sampler":0,"source":50},{"sampler":0,"source":51},{"sampler":0,"source":52},{"sampler":0,"source":53},{"sampler":0,"source":54},{"sampler":0,"source":55},{"sampler":0,"source":56},{"sampler":0,"source":57},{"sampler":0,"source":58},{"sampler":0,"source":59},{"sampler":0,"source":60},{"sampler":0,"source":61},{"sampler":0,"source":62},{"sampler":0,"source":63},{"sampler":0,"source":64},{"sampler":0,"source":65},{"sampler":0,"source":66},{"sampler":0,"source":67},{"sampler":0,"source":68},{"sampler":0,"source":69},{"sampler":0,"source":70},{"sampler":0,"source":71},{"sampler":0,"source":72},{"sampler":0,"source":73},{"sampler":0,"source":74},{"sampler":0,"source":75},{"sampler":0,"source":76},{"sampler":0,"source":77},{"sampler":0,"source":78},{"sampler":0,"source":79},{"sampler":0,"source":80},{"sampler":0,"source":81},{"sampler":0,"source":82},{"sampler":0,"source":83},{"sampler":0,"source":84},{"sampler":0,"source":85},{"sampler":0,"source":86},{"sampler":0,"source":87},{"sampler":0,"source":88},{"sampler":0,"source":89},{"sampler":0,"source":90},{"sampler":0,"source":91},{"sampler":0,"source":92}],"images":[{"mimeType":"image/png","name":"T_ai_materials_metal_b_normal","uri":"../textures/T_ai_materials_metal_b_normal.png"},{"mimeType":"image/png","name":"T_ai_materials_metal_b_albedo","uri":"../textures/T_ai_materials_metal_b_albedo.png"},{"mimeType":"image/png","name":"T_ai_materials_metal_b_rough","uri":"../textures/T_ai_materials_metal_b_rough.png"},{"mimeType":"image/png","name":"T_ai_materials_brass_b_normal","uri":"../textures/T_ai_materials_brass_b_normal.png"},{"mimeType":"image/png","name":"T_ai_materials_brass_b_albedo","uri":"../textures/T_ai_materials_brass_b_albedo.png"},{"mimeType":"image/png","name":"T_ai_materials_brass_b_rough","uri":"../textures/T_ai_materials_brass_b_rough.png"},{"mimeType":"image/png","name":"T_ai_materials_cast_iron_b_normal","uri":"../textures/T_ai_materials_cast_iron_b_normal.png"},{"mimeType":"image/png","name":"T_ai_materials_cast_iron_b_albedo","uri":"../textures/T_ai_materials_cast_iron_b_albedo.png"},{"mimeType":"image/png","name":"T_ai_materials_cast_iron_b_rough","uri":"../textures/T_ai_materials_cast_iron_b_rough.png"},{"mimeType":"image/png","name":"T_glass_normal","uri":"../textures/T_glass_normal.png"},{"mimeType":"image/png","name":"T_glass_rough","uri":"../textures/T_glass_rough.png"},{"mimeType":"image/png","name":"T_ai_materials_plywood_b_normal","uri":"../textures/T_ai_materials_plywood_b_normal.png"},{"mimeType":"image/png","name":"T_ai_materials_plywood_b_albedo","uri":"../textures/T_ai_materials_plywood_b_albedo.png"},{"mimeType":"image/png","name":"T_ai_materials_plywood_b_rough","uri":"../textures/T_ai_materials_plywood_b_rough.png"},{"mimeType":"image/png","name":"T_ai_materials_trim_b_normal","uri":"../textures/T_ai_materials_trim_b_normal.png"},{"mimeType":"image/png","name":"T_ai_materials_trim_b_albedo","uri":"../textures/T_ai_materials_trim_b_albedo.png"},{"mimeType":"image/png","name":"T_ai_materials_trim_b_rough","uri":"../textures/T_ai_materials_trim_b_rough.png"},{"mimeType":"image/png","name":"T_fx_fx_scuff_normal","uri":"../textures/T_fx_fx_scuff_normal.png"},{"mimeType":"image/png","name":"T_fx_fx_scuff","uri":"../textures/T_fx_fx_scuff.png"},{"mimeType":"image/png","name":"T_fx_fx_scuff_rough","uri":"../textures/T_fx_fx_scuff_rough.png"},{"mimeType":"image/png","name":"T_ai_materials_plaster_b_normal","uri":"../textures/T_ai_materials_plaster_b_normal.png"},{"mimeType":"image/png","name":"T_ai_materials_plaster_b_albedo","uri":"../textures/T_ai_materials_plaster_b_albedo.png"},{"mimeType":"image/png","name":"T_ai_materials_plaster_b_rough","uri":"../textures/T_ai_materials_plaster_b_rough.png"},{"mimeType":"image/png","name":"T_ai_materials_plaster_stained_b_normal","uri":"../textures/T_ai_materials_plaster_stained_b_normal.png"},{"mimeType":"image/png","name":"T_ai_materials_plaster_stained_b_albedo","uri":"../textures/T_ai_materials_plaster_stained_b_albedo.png"},{"mimeType":"image/png","name":"T_ai_materials_plaster_stained_b_rough","uri":"../textures/T_ai_materials_plaster_stained_b_rough.png"},{"mimeType":"image/png","name":"T_ai_materials_concrete_b_normal","uri":"../textures/T_ai_materials_concrete_b_normal.png"},{"mimeType":"image/png","name":"T_ai_materials_concrete_b_albedo","uri":"../textures/T_ai_materials_concrete_b_albedo.png"},{"mimeType":"image/png","name":"T_ai_materials_concrete_b_rough","uri":"../textures/T_ai_materials_concrete_b_rough.png"},{"mimeType":"image/png","name":"T_ai_materials_bakelite_black_normal","uri":"../textures/T_ai_materials_bakelite_black_normal.png"},{"mimeType":"image/png","name":"T_ai_materials_bakelite_black_albedo","uri":"../textures/T_ai_materials_bakelite_black_albedo.png"},{"mimeType":"image/png","name":"T_ai_materials_bakelite_black_rough","uri":"../textures/T_ai_materials_bakelite_black_rough.png"},{"mimeType":"image/png","name":"T_ai_materials_brass_bright_normal","uri":"../textures/T_ai_materials_brass_bright_normal.png"},{"mimeType":"image/png","name":"T_ai_materials_brass_bright_albedo","uri":"../textures/T_ai_materials_brass_bright_albedo.png"},{"mimeType":"image/png","name":"T_ai_materials_brass_bright_rough","uri":"../textures/T_ai_materials_brass_bright_rough.png"},{"mimeType":"image/png","name":"T_ai_materials_brass_normal","uri":"../textures/T_ai_materials_brass_normal.png"},{"mimeType":"image/png","name":"T_ai_materials_brass_albedo","uri":"../textures/T_ai_materials_brass_albedo.png"},{"mimeType":"image/png","name":"T_ai_materials_brass_rough","uri":"../textures/T_ai_materials_brass_rough.png"},{"mimeType":"image/png","name":"T_ai_materials_chrome_b_normal","uri":"../textures/T_ai_materials_chrome_b_normal.png"},{"mimeType":"image/png","name":"T_ai_materials_chrome_b_albedo","uri":"../textures/T_ai_materials_chrome_b_albedo.png"},{"mimeType":"image/png","name":"T_ai_materials_chrome_b_rough","uri":"../textures/T_ai_materials_chrome_b_rough.png"},{"mimeType":"image/png","name":"T_ai_materials_countertop_b_normal","uri":"../textures/T_ai_materials_countertop_b_normal.png"},{"mimeType":"image/png","name":"T_ai_materials_countertop_b_albedo","uri":"../textures/T_ai_materials_countertop_b_albedo.png"},{"mimeType":"image/png","name":"T_ai_materials_countertop_b_rough","uri":"../textures/T_ai_materials_countertop_b_rough.png"},{"mimeType":"image/png","name":"T_ai_materials_fabric_warm_b_normal","uri":"../textures/T_ai_materials_fabric_warm_b_normal.png"},{"mimeType":"image/png","name":"T_ai_materials_fabric_warm_b_albedo","uri":"../textures/T_ai_materials_fabric_warm_b_albedo.png"},{"mimeType":"image/png","name":"T_ai_materials_fabric_warm_b_rough","uri":"../textures/T_ai_materials_fabric_warm_b_rough.png"},{"mimeType":"image/png","name":"T_fx_fx_shadow","uri":"../textures/T_fx_fx_shadow.png"},{"mimeType":"image/png","name":"T_ai_materials_slab_b_normal","uri":"../textures/T_ai_materials_slab_b_normal.png"},{"mimeType":"image/png","name":"T_ai_materials_slab_b_albedo","uri":"../textures/T_ai_materials_slab_b_albedo.png"},{"mimeType":"image/png","name":"T_ai_materials_slab_b_rough","uri":"../textures/T_ai_materials_slab_b_rough.png"},{"mimeType":"image/png","name":"T_ai_materials_nickel_plated_normal","uri":"../textures/T_ai_materials_nickel_plated_normal.png"},{"mimeType":"image/png","name":"T_ai_materials_nickel_plated_albedo","uri":"../textures/T_ai_materials_nickel_plated_albedo.png"},{"mimeType":"image/png","name":"T_ai_materials_nickel_plated_rough","uri":"../textures/T_ai_materials_nickel_plated_rough.png"},{"mimeType":"image/png","name":"T_ai_materials_paper_b_normal","uri":"../textures/T_ai_materials_paper_b_normal.png"},{"mimeType":"image/png","name":"T_ai_materials_paper_b_albedo","uri":"../textures/T_ai_materials_paper_b_albedo.png"},{"mimeType":"image/png","name":"T_ai_materials_paper_b_rough","uri":"../textures/T_ai_materials_paper_b_rough.png"},{"mimeType":"image/png","name":"T_ai_materials_terracotta_b_normal","uri":"../textures/T_ai_materials_terracotta_b_normal.png"},{"mimeType":"image/png","name":"T_ai_materials_terracotta_b_albedo","uri":"../textures/T_ai_materials_terracotta_b_albedo.png"},{"mimeType":"image/png","name":"T_ai_materials_terracotta_b_rough","uri":"../textures/T_ai_materials_terracotta_b_rough.png"},{"mimeType":"image/png","name":"T_ai_materials_timber_b_normal","uri":"../textures/T_ai_materials_timber_b_normal.png"},{"mimeType":"image/png","name":"T_ai_materials_timber_b_albedo","uri":"../textures/T_ai_materials_timber_b_albedo.png"},{"mimeType":"image/png","name":"T_ai_materials_timber_b_rough","uri":"../textures/T_ai_materials_timber_b_rough.png"},{"mimeType":"image/png","name":"T_ai_materials_wood_dark_b_normal","uri":"../textures/T_ai_materials_wood_dark_b_normal.png"},{"mimeType":"image/png","name":"T_ai_materials_wood_dark_b_albedo","uri":"../textures/T_ai_materials_wood_dark_b_albedo.png"},{"mimeType":"image/png","name":"T_ai_materials_wood_dark_b_rough","uri":"../textures/T_ai_materials_wood_dark_b_rough.png"},{"mimeType":"image/png","name":"T_ai_materials_linoleum_b_normal","uri":"../textures/T_ai_materials_linoleum_b_normal.png"},{"mimeType":"image/png","name":"T_ai_materials_linoleum_b_albedo","uri":"../textures/T_ai_materials_linoleum_b_albedo.png"},{"mimeType":"image/png","name":"T_ai_materials_linoleum_b_rough","uri":"../textures/T_ai_materials_linoleum_b_rough.png"},{"mimeType":"image/png","name":"T_ai_materials_wainscot_b_normal","uri":"../textures/T_ai_materials_wainscot_b_normal.png"},{"mimeType":"image/png","name":"T_ai_materials_wainscot_b_albedo","uri":"../textures/T_ai_materials_wainscot_b_albedo.png"},{"mimeType":"image/png","name":"T_ai_materials_wainscot_b_rough","uri":"../textures/T_ai_materials_wainscot_b_rough.png"},{"mimeType":"image/png","name":"T_ai_materials_milk_glass_normal","uri":"../textures/T_ai_materials_milk_glass_normal.png"},{"mimeType":"image/png","name":"T_ai_materials_milk_glass_albedo","uri":"../textures/T_ai_materials_milk_glass_albedo.png"},{"mimeType":"image/png","name":"T_ai_materials_milk_glass_rough","uri":"../textures/T_ai_materials_milk_glass_rough.png"},{"mimeType":"image/png","name":"T_ai_materials_bakelite_b_normal","uri":"../textures/T_ai_materials_bakelite_b_normal.png"},{"mimeType":"image/png","name":"T_ai_materials_bakelite_b_albedo","uri":"../textures/T_ai_materials_bakelite_b_albedo.png"},{"mimeType":"image/png","name":"T_ai_materials_bakelite_b_rough","uri":"../textures/T_ai_materials_bakelite_b_rough.png"},{"mimeType":"image/png","name":"T_ai_materials_enamel_b_normal","uri":"../textures/T_ai_materials_enamel_b_normal.png"},{"mimeType":"image/png","name":"T_ai_materials_enamel_b_albedo","uri":"../textures/T_ai_materials_enamel_b_albedo.png"},{"mimeType":"image/png","name":"T_ai_materials_enamel_b_rough","uri":"../textures/T_ai_materials_enamel_b_rough.png"},{"mimeType":"image/png","name":"T_ai_materials_stairwell_teal_b_normal","uri":"../textures/T_ai_materials_stairwell_teal_b_normal.png"},{"mimeType":"image/png","name":"T_ai_materials_stairwell_teal_b_albedo","uri":"../textures/T_ai_materials_stairwell_teal_b_albedo.png"},{"mimeType":"image/png","name":"T_ai_materials_stairwell_teal_b_rough","uri":"../textures/T_ai_materials_stairwell_teal_b_rough.png"},{"mimeType":"image/png","name":"T_ai_materials_awning_vinyl_normal","uri":"../textures/T_ai_materials_awning_vinyl_normal.png"},{"mimeType":"image/png","name":"T_ai_materials_awning_vinyl_albedo","uri":"../textures/T_ai_materials_awning_vinyl_albedo.png"},{"mimeType":"image/png","name":"T_ai_materials_awning_vinyl_rough","uri":"../textures/T_ai_materials_awning_vinyl_rough.png"},{"mimeType":"image/png","name":"T_ai_materials_appliance_b_normal","uri":"../textures/T_ai_materials_appliance_b_normal.png"},{"mimeType":"image/png","name":"T_ai_materials_appliance_b_albedo","uri":"../textures/T_ai_materials_appliance_b_albedo.png"},{"mimeType":"image/png","name":"T_ai_materials_appliance_b_rough","uri":"../textures/T_ai_materials_appliance_b_rough.png"},{"mimeType":"image/png","name":"T_ai_materials_copper_aged_normal","uri":"../textures/T_ai_materials_copper_aged_normal.png"},{"mimeType":"image/png","name":"T_ai_materials_copper_aged_albedo","uri":"../textures/T_ai_materials_copper_aged_albedo.png"},{"mimeType":"image/png","name":"T_ai_materials_copper_aged_rough","uri":"../textures/T_ai_materials_copper_aged_rough.png"}],"samplers":[{"magFilter":9729,"minFilter":9987}]}
