{"asset":{"generator":"Khronos glTF Blender I/O v5.2.39","version":"2.0","extras":{"orison_bin_sha256":"ba098fd79b25a9b30690ef3fdd7b448938668a079626b9218378de9b6f56bb4a","orison_m11c1_candidate":{"production_asset":false,"owner_before_material":true,"spatial_inference_used":false},"orison_m11c1_owner_first":{"cell":"CELL_SHOP_OTIS_SON","production_asset":false,"owner_before_material":true,"spatial_inference_used":false}}},"extensionsUsed":["KHR_materials_specular"],"scene":0,"scenes":[{"name":"Scene_shop_otis_son","nodes":[0,1,2,3,4,5,6,7,8,9,10,11,12,13,14,15,16,17,18,19,20,21,22,23,24,25,26,27,28,29,30]}],"nodes":[{"mesh":0,"name":"F01_OWN_SHOP_OTIS_SON_retail_shop_otis___son_awning_vinyl-col"},{"mesh":1,"name":"F01_OWN_SHOP_OTIS_SON_retail_shop_otis___son_bakelite_black-col"},{"mesh":2,"name":"F01_OWN_SHOP_OTIS_SON_retail_shop_otis___son_book_ochre-col"},{"mesh":3,"name":"F01_OWN_SHOP_OTIS_SON_retail_shop_otis___son_book_teal-col"},{"mesh":4,"name":"F01_OWN_SHOP_OTIS_SON_retail_shop_otis___son_brass_bright-col"},{"mesh":5,"name":"F01_OWN_SHOP_OTIS_SON_retail_shop_otis___son_brass_dull-col"},{"mesh":6,"name":"F01_OWN_SHOP_OTIS_SON_retail_shop_otis___son_bronze-col"},{"mesh":7,"name":"F01_OWN_SHOP_OTIS_SON_retail_shop_otis___son_chrome-col"},{"mesh":8,"name":"F01_OWN_SHOP_OTIS_SON_retail_shop_otis___son_concrete-col"},{"mesh":9,"name":"F01_OWN_SHOP_OTIS_SON_retail_shop_otis___son_countertop-col"},{"mesh":10,"name":"F01_OWN_SHOP_OTIS_SON_retail_shop_otis___son_fabric_green-col"},{"mesh":11,"name":"F01_OWN_SHOP_OTIS_SON_retail_shop_otis___son_glassish-col"},{"mesh":12,"name":"F01_OWN_SHOP_OTIS_SON_retail_shop_otis___son_lacquer_red-col"},{"mesh":13,"name":"F01_OWN_SHOP_OTIS_SON_retail_shop_otis___son_limestone-col"},{"mesh":14,"name":"F01_OWN_SHOP_OTIS_SON_retail_shop_otis___son_marble_lobby-col"},{"mesh":15,"name":"F01_OWN_SHOP_OTIS_SON_retail_shop_otis___son_metal-col"},{"mesh":16,"name":"F01_OWN_SHOP_OTIS_SON_retail_shop_otis___son_milk_glass-col"},{"mesh":17,"name":"F01_OWN_SHOP_OTIS_SON_retail_shop_otis___son_oak_quartered-col"},{"mesh":18,"name":"F01_OWN_SHOP_OTIS_SON_retail_shop_otis___son_paper-col"},{"mesh":19,"name":"F01_OWN_SHOP_OTIS_SON_retail_shop_otis___son_plaster-col"},{"mesh":20,"name":"F01_OWN_SHOP_OTIS_SON_retail_shop_otis___son_plaster_stained-col"},{"mesh":21,"name":"F01_OWN_SHOP_OTIS_SON_retail_shop_otis___son_plywood-col"},{"mesh":22,"name":"F01_OWN_SHOP_OTIS_SON_retail_shop_otis___son_porcelain-col"},{"mesh":23,"name":"F01_OWN_SHOP_OTIS_SON_retail_shop_otis___son_terrazzo-col"},{"mesh":24,"name":"F01_OWN_SHOP_OTIS_SON_retail_shop_otis___son_timber-col"},{"mesh":25,"name":"F01_OWN_SHOP_OTIS_SON_retail_shop_otis___son_tin_ceiling-col"},{"mesh":26,"name":"F01_OWN_SHOP_OTIS_SON_retail_shop_otis___son_trim-col"},{"mesh":27,"name":"F01_OWN_SHOP_OTIS_SON_retail_shop_otis___son_vinyl_oxblood-col"},{"mesh":28,"name":"F01_OWN_SHOP_OTIS_SON_retail_shop_otis___son_wainscot-col"},{"mesh":29,"name":"F01_OWN_SHOP_OTIS_SON_retail_shop_otis___son_wood_dark-col"},{"mesh":30,"name":"F01_OWN_SHOP_OTIS_SON_wear_fx_scuff"}],"meshes":[{"name":"F01_OWN_SHOP_OTIS_SON_retail_shop_otis___son_awning_vinyl-col","primitives":[{"attributes":{"POSITION":10,"NORMAL":11,"TEXCOORD_0":12},"indices":2,"material":29}]},{"name":"F01_OWN_SHOP_OTIS_SON_retail_shop_otis___son_bakelite_black-col","primitives":[{"attributes":{"POSITION":13,"NORMAL":14,"TEXCOORD_0":15},"indices":0,"material":11}]},{"name":"F01_OWN_SHOP_OTIS_SON_retail_shop_otis___son_book_ochre-col","primitives":[{"attributes":{"POSITION":16,"NORMAL":17,"TEXCOORD_0":18},"indices":0,"material":12}]},{"name":"F01_OWN_SHOP_OTIS_SON_retail_shop_otis___son_book_teal-col","primitives":[{"attributes":{"POSITION":19,"NORMAL":20,"TEXCOORD_0":21},"indices":5,"material":13}]},{"name":"F01_OWN_SHOP_OTIS_SON_retail_shop_otis___son_brass_bright-col","primitives":[{"attributes":{"POSITION":22,"NORMAL":23,"TEXCOORD_0":24},"indices":0,"material":14}]},{"name":"F01_OWN_SHOP_OTIS_SON_retail_shop_otis___son_brass_dull-col","primitives":[{"attributes":{"POSITION":25,"NORMAL":26,"TEXCOORD_0":27},"indices":0,"material":15}]},{"name":"F01_OWN_SHOP_OTIS_SON_retail_shop_otis___son_bronze-col","primitives":[{"attributes":{"POSITION":28,"NORMAL":29,"TEXCOORD_0":30},"indices":1,"material":30}]},{"name":"F01_OWN_SHOP_OTIS_SON_retail_shop_otis___son_chrome-col","primitives":[{"attributes":{"POSITION":31,"NORMAL":32,"TEXCOORD_0":33},"indices":7,"material":16}]},{"name":"F01_OWN_SHOP_OTIS_SON_retail_shop_otis___son_concrete-col","primitives":[{"attributes":{"POSITION":34,"NORMAL":35,"TEXCOORD_0":36},"indices":0,"material":9}]},{"name":"F01_OWN_SHOP_OTIS_SON_retail_shop_otis___son_countertop-col","primitives":[{"attributes":{"POSITION":37,"NORMAL":38,"TEXCOORD_0":39},"indices":2,"material":17}]},{"name":"F01_OWN_SHOP_OTIS_SON_retail_shop_otis___son_fabric_green-col","primitives":[{"attributes":{"POSITION":40,"NORMAL":41,"TEXCOORD_0":42},"indices":0,"material":18}]},{"name":"F01_OWN_SHOP_OTIS_SON_retail_shop_otis___son_glassish-col","primitives":[{"attributes":{"POSITION":43,"NORMAL":44,"TEXCOORD_0":45},"indices":9,"material":1}]},{"name":"F01_OWN_SHOP_OTIS_SON_retail_shop_otis___son_lacquer_red-col","primitives":[{"attributes":{"POSITION":46,"NORMAL":47,"TEXCOORD_0":48},"indices":6,"material":27}]},{"name":"F01_OWN_SHOP_OTIS_SON_retail_shop_otis___son_limestone-col","primitives":[{"attributes":{"POSITION":49,"NORMAL":50,"TEXCOORD_0":51},"indices":7,"material":3}]},{"name":"F01_OWN_SHOP_OTIS_SON_retail_shop_otis___son_marble_lobby-col","primitives":[{"attributes":{"POSITION":52,"NORMAL":53,"TEXCOORD_0":54},"indices":6,"material":24}]},{"name":"F01_OWN_SHOP_OTIS_SON_retail_shop_otis___son_metal-col","primitives":[{"attributes":{"POSITION":55,"NORMAL":56,"TEXCOORD_0":57},"indices":2,"material":0}]},{"name":"F01_OWN_SHOP_OTIS_SON_retail_shop_otis___son_milk_glass-col","primitives":[{"attributes":{"POSITION":58,"NORMAL":59,"TEXCOORD_0":60},"indices":0,"material":26}]},{"name":"F01_OWN_SHOP_OTIS_SON_retail_shop_otis___son_oak_quartered-col","primitives":[{"attributes":{"POSITION":61,"NORMAL":62,"TEXCOORD_0":63},"indices":64,"material":19}]},{"name":"F01_OWN_SHOP_OTIS_SON_retail_shop_otis___son_paper-col","primitives":[{"attributes":{"POSITION":65,"NORMAL":66,"TEXCOORD_0":67},"indices":1,"material":20}]},{"name":"F01_OWN_SHOP_OTIS_SON_retail_shop_otis___son_plaster-col","primitives":[{"attributes":{"POSITION":68,"NORMAL":69,"TEXCOORD_0":70},"indices":8,"material":6}]},{"name":"F01_OWN_SHOP_OTIS_SON_retail_shop_otis___son_plaster_stained-col","primitives":[{"attributes":{"POSITION":71,"NORMAL":72,"TEXCOORD_0":73},"indices":6,"material":7}]},{"name":"F01_OWN_SHOP_OTIS_SON_retail_shop_otis___son_plywood-col","primitives":[{"attributes":{"POSITION":74,"NORMAL":75,"TEXCOORD_0":76},"indices":0,"material":2}]},{"name":"F01_OWN_SHOP_OTIS_SON_retail_shop_otis___son_porcelain-col","primitives":[{"attributes":{"POSITION":77,"NORMAL":78,"TEXCOORD_0":79},"indices":8,"material":21}]},{"name":"F01_OWN_SHOP_OTIS_SON_retail_shop_otis___son_terrazzo-col","primitives":[{"attributes":{"POSITION":80,"NORMAL":81,"TEXCOORD_0":82},"indices":0,"material":10}]},{"name":"F01_OWN_SHOP_OTIS_SON_retail_shop_otis___son_timber-col","primitives":[{"attributes":{"POSITION":83,"NORMAL":84,"TEXCOORD_0":85},"indices":1,"material":22}]},{"name":"F01_OWN_SHOP_OTIS_SON_retail_shop_otis___son_tin_ceiling-col","primitives":[{"attributes":{"POSITION":86,"NORMAL":87,"TEXCOORD_0":88},"indices":0,"material":8}]},{"name":"F01_OWN_SHOP_OTIS_SON_retail_shop_otis___son_trim-col","primitives":[{"attributes":{"POSITION":89,"NORMAL":90,"TEXCOORD_0":91},"indices":5,"material":4}]},{"name":"F01_OWN_SHOP_OTIS_SON_retail_shop_otis___son_vinyl_oxblood-col","primitives":[{"attributes":{"POSITION":92,"NORMAL":93,"TEXCOORD_0":94},"indices":6,"material":28}]},{"name":"F01_OWN_SHOP_OTIS_SON_retail_shop_otis___son_wainscot-col","primitives":[{"attributes":{"POSITION":95,"NORMAL":96,"TEXCOORD_0":97},"indices":1,"material":25}]},{"name":"F01_OWN_SHOP_OTIS_SON_retail_shop_otis___son_wood_dark-col","primitives":[{"attributes":{"POSITION":98,"NORMAL":99,"TEXCOORD_0":100},"indices":3,"material":23}]},{"name":"F01_OWN_SHOP_OTIS_SON_wear_fx_scuff","primitives":[{"attributes":{"POSITION":101,"NORMAL":102,"TEXCOORD_0":103},"indices":4,"material":5}]}],"accessors":[{"bufferView":0,"componentType":5123,"count":36,"type":"SCALAR"},{"bufferView":1,"componentType":5123,"count":108,"type":"SCALAR"},{"bufferView":2,"componentType":5123,"count":72,"type":"SCALAR"},{"bufferView":3,"componentType":5123,"count":1152,"type":"SCALAR"},{"bufferView":4,"componentType":5123,"count":6,"type":"SCALAR"},{"bufferView":5,"componentType":5123,"count":180,"type":"SCALAR"},{"bufferView":6,"componentType":5123,"count":144,"type":"SCALAR"},{"bufferView":7,"componentType":5123,"count":252,"type":"SCALAR"},{"bufferView":8,"componentType":5123,"count":216,"type":"SCALAR"},{"bufferView":9,"componentType":5123,"count":1080,"type":"SCALAR"},{"bufferView":10,"componentType":5126,"count":48,"max":[16.739999771118164,2.7100000381469727,48.540000915527344],"min":[15.420000076293945,2.359999895095825,44.560001373291016],"type":"VEC3"},{"bufferView":11,"componentType":5126,"count":48,"type":"VEC3"},{"bufferView":12,"componentType":5126,"count":48,"type":"VEC2"},{"bufferView":13,"componentType":5126,"count":24,"max":[19.299999237060547,1.5,48.459999084472656],"min":[18.860000610351562,1.1200000047683716,47.97999954223633],"type":"VEC3"},{"bufferView":14,"componentType":5126,"count":24,"type":"VEC3"},{"bufferView":15,"componentType":5126,"count":24,"type":"VEC2"},{"bufferView":16,"componentType":5126,"count":24,"max":[17.639999389648438,1.340000033378601,46.880001068115234],"min":[17.299999237060547,0.6200000047683716,46.540000915527344],"type":"VEC3"},{"bufferView":17,"componentType":5126,"count":24,"type":"VEC3"},{"bufferView":18,"componentType":5126,"count":24,"type":"VEC2"},{"bufferView":19,"componentType":5126,"count":120,"max":[23.059999465942383,3.009999990463257,48.47999954223633],"min":[16.739999771118164,0.6200000047683716,44.619998931884766],"type":"VEC3"},{"bufferView":20,"componentType":5126,"count":120,"type":"VEC3"},{"bufferView":21,"componentType":5126,"count":120,"type":"VEC2"},{"bufferView":22,"componentType":5126,"count":24,"max":[16.979999542236328,1.5800000429153442,46.189998626708984],"min":[16.95199966430664,1.3200000524520874,46.0099983215332],"type":"VEC3"},{"bufferView":23,"componentType":5126,"count":24,"type":"VEC3"},{"bufferView":24,"componentType":5126,"count":24,"type":"VEC2"},{"bufferView":25,"componentType":5126,"count":24,"max":[23.1200008392334,1.0299999713897705,44.60499954223633],"min":[23.059999465942383,0.9599999785423279,44.564998626708984],"type":"VEC3"},{"bufferView":26,"componentType":5126,"count":24,"type":"VEC3"},{"bufferView":27,"componentType":5126,"count":24,"type":"VEC2"},{"bufferView":28,"componentType":5126,"count":72,"max":[16.985000610351562,2.0850000381469727,48.560001373291016],"min":[16.84000015258789,0.5149999856948853,45.95000076293945],"type":"VEC3"},{"bufferView":29,"componentType":5126,"count":72,"type":"VEC3"},{"bufferView":30,"componentType":5126,"count":72,"type":"VEC2"},{"bufferView":31,"componentType":5126,"count":168,"max":[21.510000228881836,1.5199999809265137,45.79999923706055],"min":[19.350000381469727,0.009999999776482582,44.56999969482422],"type":"VEC3"},{"bufferView":32,"componentType":5126,"count":168,"type":"VEC3"},{"bufferView":33,"componentType":5126,"count":168,"type":"VEC2"},{"bufferView":34,"componentType":5126,"count":24,"max":[26.81999969482422,0.009999999776482582,48.599998474121094],"min":[24.219999313354492,-0.05000000074505806,44.5],"type":"VEC3"},{"bufferView":35,"componentType":5126,"count":24,"type":"VEC3"},{"bufferView":36,"componentType":5126,"count":24,"type":"VEC2"},{"bufferView":37,"componentType":5126,"count":48,"max":[23.75,1.159999966621399,48.58000183105469],"min":[18.549999237060547,1.059999942779541,44.7599983215332],"type":"VEC3"},{"bufferView":38,"componentType":5126,"count":48,"type":"VEC3"},{"bufferView":39,"componentType":5126,"count":48,"type":"VEC2"},{"bufferView":40,"componentType":5126,"count":24,"max":[17.639999389648438,1.340000033378601,47.36000061035156],"min":[17.299999237060547,0.6200000047683716,47.02000045776367],"type":"VEC3"},{"bufferView":41,"componentType":5126,"count":24,"type":"VEC3"},{"bufferView":42,"componentType":5126,"count":24,"type":"VEC2"},{"bufferView":43,"componentType":5126,"count":720,"max":[23.985000610351562,3.049999952316284,48.52000045776367],"min":[16.8799991607666,0.550000011920929,44.79999923706055],"type":"VEC3"},{"bufferView":44,"componentType":5126,"count":720,"type":"VEC3"},{"bufferView":45,"componentType":5126,"count":720,"type":"VEC2"},{"bufferView":46,"componentType":5126,"count":96,"max":[22.969999313354492,1.340000033378601,47.84000015258789],"min":[17.299999237060547,0.6200000047683716,44.91999816894531],"type":"VEC3"},{"bufferView":47,"componentType":5126,"count":96,"type":"VEC3"},{"bufferView":48,"componentType":5126,"count":96,"type":"VEC2"},{"bufferView":49,"componentType":5126,"count":168,"max":[17.079999923706055,4.199999809265137,48.7599983215332],"min":[16.579999923706055,0,44.34000015258789],"type":"VEC3"},{"bufferView":50,"componentType":5126,"count":168,"type":"VEC3"},{"bufferView":51,"componentType":5126,"count":168,"type":"VEC2"},{"bufferView":52,"componentType":5126,"count":96,"max":[23.559999465942383,1.5399999618530273,47.0099983215332],"min":[19.049999237060547,0.009999999776482582,44.52000045776367],"type":"VEC3"},{"bufferView":53,"componentType":5126,"count":96,"type":"VEC3"},{"bufferView":54,"componentType":5126,"count":96,"type":"VEC2"},{"bufferView":55,"componentType":5126,"count":48,"max":[16.739999771118164,2.630000114440918,48.5],"min":[15.4399995803833,2.5799999237060547,44.61000061035156],"type":"VEC3"},{"bufferView":56,"componentType":5126,"count":48,"type":"VEC3"},{"bufferView":57,"componentType":5126,"count":48,"type":"VEC2"},{"bufferView":58,"componentType":5126,"count":24,"max":[16.979999542236328,2.450000047683716,48.560001373291016],"min":[16.860000610351562,2.049999952316284,44.540000915527344],"type":"VEC3"},{"bufferView":59,"componentType":5126,"count":24,"type":"VEC3"},{"bufferView":60,"componentType":5126,"count":24,"type":"VEC2"},{"bufferView":61,"componentType":5126,"count":960,"max":[22.649999618530273,2.7200000286102295,48.54999923706055],"min":[18.75,1.2000000476837158,48.47999954223633],"type":"VEC3"},{"bufferView":62,"componentType":5126,"count":960,"type":"VEC3"},{"bufferView":63,"componentType":5126,"count":960,"type":"VEC2"},{"bufferView":64,"componentType":5123,"count":1440,"type":"SCALAR"},{"bufferView":65,"componentType":5126,"count":72,"max":[27.059999465942383,1.399999976158142,48.47999954223633],"min":[19.540000915527344,0.5,47.2599983215332],"type":"VEC3"},{"bufferView":66,"componentType":5126,"count":72,"type":"VEC3"},{"bufferView":67,"componentType":5126,"count":72,"type":"VEC2"},{"bufferView":68,"componentType":5126,"count":144,"max":[26.81999969482422,3.2799999713897705,48.599998474121094],"min":[24.219999313354492,0.009999999776482582,44.5],"type":"VEC3"},{"bufferView":69,"componentType":5126,"count":144,"type":"VEC3"},{"bufferView":70,"componentType":5126,"count":144,"type":"VEC2"},{"bufferView":71,"componentType":5126,"count":96,"max":[24,3.259999990463257,48.599998474121094],"min":[23.940000534057617,0.009999999776482582,44.5],"type":"VEC3"},{"bufferView":72,"componentType":5126,"count":96,"type":"VEC3"},{"bufferView":73,"componentType":5126,"count":96,"type":"VEC2"},{"bufferView":74,"componentType":5126,"count":24,"max":[17.579999923706055,1.5700000524520874,48.41999816894531],"min":[17.540000915527344,0.41999998688697815,46.119998931884766],"type":"VEC3"},{"bufferView":75,"componentType":5126,"count":24,"type":"VEC3"},{"bufferView":76,"componentType":5126,"count":24,"type":"VEC2"},{"bufferView":77,"componentType":5126,"count":144,"max":[23.014999389648438,1.149999976158142,45.150001525878906],"min":[22.540000915527344,0.7200000286102295,44.88999938964844],"type":"VEC3"},{"bufferView":78,"componentType":5126,"count":144,"type":"VEC3"},{"bufferView":79,"componentType":5126,"count":144,"type":"VEC2"},{"bufferView":80,"componentType":5126,"count":24,"max":[24,0.009999999776482582,48.599998474121094],"min":[17,-0.05000000074505806,44.5],"type":"VEC3"},{"bufferView":81,"componentType":5126,"count":24,"type":"VEC3"},{"bufferView":82,"componentType":5126,"count":24,"type":"VEC2"},{"bufferView":83,"componentType":5126,"count":72,"max":[23.3799991607666,1.8350000381469727,46.70000076293945],"min":[23.280000686645508,0.8199999928474426,44.720001220703125],"type":"VEC3"},{"bufferView":84,"componentType":5126,"count":72,"type":"VEC3"},{"bufferView":85,"componentType":5126,"count":72,"type":"VEC2"},{"bufferView":86,"componentType":5126,"count":24,"max":[24,3.549999952316284,48.599998474121094],"min":[17,3.299999952316284,44.5],"type":"VEC3"},{"bufferView":87,"componentType":5126,"count":24,"type":"VEC3"},{"bufferView":88,"componentType":5126,"count":24,"type":"VEC2"},{"bufferView":89,"componentType":5126,"count":120,"max":[24,3.0999999046325684,48.09000015258789],"min":[23.93000030517578,2.299999952316284,45.0099983215332],"type":"VEC3"},{"bufferView":90,"componentType":5126,"count":120,"type":"VEC3"},{"bufferView":91,"componentType":5126,"count":120,"type":"VEC2"},{"bufferView":92,"componentType":5126,"count":96,"max":[21.530000686645508,0.7599999904632568,45.84000015258789],"min":[19.329999923706055,0.6899999976158142,45.459999084472656],"type":"VEC3"},{"bufferView":93,"componentType":5126,"count":96,"type":"VEC3"},{"bufferView":94,"componentType":5126,"count":96,"type":"VEC2"},{"bufferView":95,"componentType":5126,"count":72,"max":[24,1.100000023841858,48.599998474121094],"min":[17,0.05000000074505806,44.5],"type":"VEC3"},{"bufferView":96,"componentType":5126,"count":72,"type":"VEC3"},{"bufferView":97,"componentType":5126,"count":72,"type":"VEC2"},{"bufferView":98,"componentType":5126,"count":768,"max":[26.760000228881836,2.7200000286102295,48.54999923706055],"min":[17.18000030517578,0.009999999776482582,44.51499938964844],"type":"VEC3"},{"bufferView":99,"componentType":5126,"count":768,"type":"VEC3"},{"bufferView":100,"componentType":5126,"count":768,"type":"VEC2"},{"bufferView":101,"componentType":5126,"count":4,"max":[17.110000610351562,0.006000000052154064,46.900001525878906],"min":[16.209999084472656,0.006000000052154064,45.75],"type":"VEC3"},{"bufferView":102,"componentType":5126,"count":4,"type":"VEC3"},{"bufferView":103,"componentType":5126,"count":4,"type":"VEC2"}],"bufferViews":[{"buffer":0,"byteLength":72,"byteOffset":0,"target":34963},{"buffer":0,"byteLength":216,"byteOffset":72,"target":34963},{"buffer":0,"byteLength":144,"byteOffset":288,"target":34963},{"buffer":0,"byteLength":2304,"byteOffset":432,"target":34963},{"buffer":0,"byteLength":12,"byteOffset":2736,"target":34963},{"buffer":0,"byteLength":360,"byteOffset":2748,"target":34963},{"buffer":0,"byteLength":288,"byteOffset":3108,"target":34963},{"buffer":0,"byteLength":504,"byteOffset":3396,"target":34963},{"buffer":0,"byteLength":432,"byteOffset":3900,"target":34963},{"buffer":0,"byteLength":2160,"byteOffset":4332,"target":34963},{"buffer":0,"byteLength":576,"byteOffset":6492,"target":34962,"byteStride":12},{"buffer":0,"byteLength":576,"byteOffset":7068,"target":34962,"byteStride":12},{"buffer":0,"byteLength":384,"byteOffset":7644,"target":34962,"byteStride":8},{"buffer":0,"byteLength":288,"byteOffset":8028,"target":34962,"byteStride":12},{"buffer":0,"byteLength":288,"byteOffset":8316,"target":34962,"byteStride":12},{"buffer":0,"byteLength":192,"byteOffset":8604,"target":34962,"byteStride":8},{"buffer":0,"byteLength":288,"byteOffset":8796,"target":34962,"byteStride":12},{"buffer":0,"byteLength":288,"byteOffset":9084,"target":34962,"byteStride":12},{"buffer":0,"byteLength":192,"byteOffset":9372,"target":34962,"byteStride":8},{"buffer":0,"byteLength":1440,"byteOffset":9564,"target":34962,"byteStride":12},{"buffer":0,"byteLength":1440,"byteOffset":11004,"target":34962,"byteStride":12},{"buffer":0,"byteLength":960,"byteOffset":12444,"target":34962,"byteStride":8},{"buffer":0,"byteLength":288,"byteOffset":13404,"target":34962,"byteStride":12},{"buffer":0,"byteLength":288,"byteOffset":13692,"target":34962,"byteStride":12},{"buffer":0,"byteLength":192,"byteOffset":13980,"target":34962,"byteStride":8},{"buffer":0,"byteLength":288,"byteOffset":14172,"target":34962,"byteStride":12},{"buffer":0,"byteLength":288,"byteOffset":14460,"target":34962,"byteStride":12},{"buffer":0,"byteLength":192,"byteOffset":14748,"target":34962,"byteStride":8},{"buffer":0,"byteLength":864,"byteOffset":14940,"target":34962,"byteStride":12},{"buffer":0,"byteLength":864,"byteOffset":15804,"target":34962,"byteStride":12},{"buffer":0,"byteLength":576,"byteOffset":16668,"target":34962,"byteStride":8},{"buffer":0,"byteLength":2016,"byteOffset":17244,"target":34962,"byteStride":12},{"buffer":0,"byteLength":2016,"byteOffset":19260,"target":34962,"byteStride":12},{"buffer":0,"byteLength":1344,"byteOffset":21276,"target":34962,"byteStride":8},{"buffer":0,"byteLength":288,"byteOffset":22620,"target":34962,"byteStride":12},{"buffer":0,"byteLength":288,"byteOffset":22908,"target":34962,"byteStride":12},{"buffer":0,"byteLength":192,"byteOffset":23196,"target":34962,"byteStride":8},{"buffer":0,"byteLength":576,"byteOffset":23388,"target":34962,"byteStride":12},{"buffer":0,"byteLength":576,"byteOffset":23964,"target":34962,"byteStride":12},{"buffer":0,"byteLength":384,"byteOffset":24540,"target":34962,"byteStride":8},{"buffer":0,"byteLength":288,"byteOffset":24924,"target":34962,"byteStride":12},{"buffer":0,"byteLength":288,"byteOffset":25212,"target":34962,"byteStride":12},{"buffer":0,"byteLength":192,"byteOffset":25500,"target":34962,"byteStride":8},{"buffer":0,"byteLength":8640,"byteOffset":25692,"target":34962,"byteStride":12},{"buffer":0,"byteLength":8640,"byteOffset":34332,"target":34962,"byteStride":12},{"buffer":0,"byteLength":5760,"byteOffset":42972,"target":34962,"byteStride":8},{"buffer":0,"byteLength":1152,"byteOffset":48732,"target":34962,"byteStride":12},{"buffer":0,"byteLength":1152,"byteOffset":49884,"target":34962,"byteStride":12},{"buffer":0,"byteLength":768,"byteOffset":51036,"target":34962,"byteStride":8},{"buffer":0,"byteLength":2016,"byteOffset":51804,"target":34962,"byteStride":12},{"buffer":0,"byteLength":2016,"byteOffset":53820,"target":34962,"byteStride":12},{"buffer":0,"byteLength":1344,"byteOffset":55836,"target":34962,"byteStride":8},{"buffer":0,"byteLength":1152,"byteOffset":57180,"target":34962,"byteStride":12},{"buffer":0,"byteLength":1152,"byteOffset":58332,"target":34962,"byteStride":12},{"buffer":0,"byteLength":768,"byteOffset":59484,"target":34962,"byteStride":8},{"buffer":0,"byteLength":576,"byteOffset":60252,"target":34962,"byteStride":12},{"buffer":0,"byteLength":576,"byteOffset":60828,"target":34962,"byteStride":12},{"buffer":0,"byteLength":384,"byteOffset":61404,"target":34962,"byteStride":8},{"buffer":0,"byteLength":288,"byteOffset":61788,"target":34962,"byteStride":12},{"buffer":0,"byteLength":288,"byteOffset":62076,"target":34962,"byteStride":12},{"buffer":0,"byteLength":192,"byteOffset":62364,"target":34962,"byteStride":8},{"buffer":0,"byteLength":11520,"byteOffset":62556,"target":34962,"byteStride":12},{"buffer":0,"byteLength":11520,"byteOffset":74076,"target":34962,"byteStride":12},{"buffer":0,"byteLength":7680,"byteOffset":85596,"target":34962,"byteStride":8},{"buffer":0,"byteLength":2880,"byteOffset":93276,"target":34963},{"buffer":0,"byteLength":864,"byteOffset":96156,"target":34962,"byteStride":12},{"buffer":0,"byteLength":864,"byteOffset":97020,"target":34962,"byteStride":12},{"buffer":0,"byteLength":576,"byteOffset":97884,"target":34962,"byteStride":8},{"buffer":0,"byteLength":1728,"byteOffset":98460,"target":34962,"byteStride":12},{"buffer":0,"byteLength":1728,"byteOffset":100188,"target":34962,"byteStride":12},{"buffer":0,"byteLength":1152,"byteOffset":101916,"target":34962,"byteStride":8},{"buffer":0,"byteLength":1152,"byteOffset":103068,"target":34962,"byteStride":12},{"buffer":0,"byteLength":1152,"byteOffset":104220,"target":34962,"byteStride":12},{"buffer":0,"byteLength":768,"byteOffset":105372,"target":34962,"byteStride":8},{"buffer":0,"byteLength":288,"byteOffset":106140,"target":34962,"byteStride":12},{"buffer":0,"byteLength":288,"byteOffset":106428,"target":34962,"byteStride":12},{"buffer":0,"byteLength":192,"byteOffset":106716,"target":34962,"byteStride":8},{"buffer":0,"byteLength":1728,"byteOffset":106908,"target":34962,"byteStride":12},{"buffer":0,"byteLength":1728,"byteOffset":108636,"target":34962,"byteStride":12},{"buffer":0,"byteLength":1152,"byteOffset":110364,"target":34962,"byteStride":8},{"buffer":0,"byteLength":288,"byteOffset":111516,"target":34962,"byteStride":12},{"buffer":0,"byteLength":288,"byteOffset":111804,"target":34962,"byteStride":12},{"buffer":0,"byteLength":192,"byteOffset":112092,"target":34962,"byteStride":8},{"buffer":0,"byteLength":864,"byteOffset":112284,"target":34962,"byteStride":12},{"buffer":0,"byteLength":864,"byteOffset":113148,"target":34962,"byteStride":12},{"buffer":0,"byteLength":576,"byteOffset":114012,"target":34962,"byteStride":8},{"buffer":0,"byteLength":288,"byteOffset":114588,"target":34962,"byteStride":12},{"buffer":0,"byteLength":288,"byteOffset":114876,"target":34962,"byteStride":12},{"buffer":0,"byteLength":192,"byteOffset":115164,"target":34962,"byteStride":8},{"buffer":0,"byteLength":1440,"byteOffset":115356,"target":34962,"byteStride":12},{"buffer":0,"byteLength":1440,"byteOffset":116796,"target":34962,"byteStride":12},{"buffer":0,"byteLength":960,"byteOffset":118236,"target":34962,"byteStride":8},{"buffer":0,"byteLength":1152,"byteOffset":119196,"target":34962,"byteStride":12},{"buffer":0,"byteLength":1152,"byteOffset":120348,"target":34962,"byteStride":12},{"buffer":0,"byteLength":768,"byteOffset":121500,"target":34962,"byteStride":8},{"buffer":0,"byteLength":864,"byteOffset":122268,"target":34962,"byteStride":12},{"buffer":0,"byteLength":864,"byteOffset":123132,"target":34962,"byteStride":12},{"buffer":0,"byteLength":576,"byteOffset":123996,"target":34962,"byteStride":8},{"buffer":0,"byteLength":9216,"byteOffset":124572,"target":34962,"byteStride":12},{"buffer":0,"byteLength":9216,"byteOffset":133788,"target":34962,"byteStride":12},{"buffer":0,"byteLength":6144,"byteOffset":143004,"target":34962,"byteStride":8},{"buffer":0,"byteLength":48,"byteOffset":149148,"target":34962,"byteStride":12},{"buffer":0,"byteLength":48,"byteOffset":149196,"target":34962,"byteStride":12},{"buffer":0,"byteLength":32,"byteOffset":149244,"target":34962,"byteStride":8}],"buffers":[{"byteLength":149276,"uri":"shop_otis_son.bin"}],"materials":[{"name":"M_metal_b","normalTexture":{"index":0,"scale":0.3499999940395355},"pbrMetallicRoughness":{"baseColorTexture":{"index":1},"metallicFactor":0.8999999761581421,"metallicRoughnessTexture":{"index":2}}},{"alphaMode":"BLEND","doubleSided":true,"name":"M_glassish","normalTexture":{"index":3,"scale":0.550000011920929},"pbrMetallicRoughness":{"baseColorFactor":[0.7599999904632568,0.8500000238418579,0.8899999856948853,0.1599999964237213],"metallicFactor":0,"metallicRoughnessTexture":{"index":4}}},{"name":"M_plywood_b","normalTexture":{"index":5,"scale":0.3499999940395355},"pbrMetallicRoughness":{"baseColorTexture":{"index":6},"metallicFactor":0,"metallicRoughnessTexture":{"index":7}}},{"name":"M_limestone_b","normalTexture":{"index":8,"scale":0.3499999940395355},"pbrMetallicRoughness":{"baseColorTexture":{"index":9},"metallicFactor":0,"metallicRoughnessTexture":{"index":10}}},{"name":"M_trim_b","normalTexture":{"index":11,"scale":0.3499999940395355},"pbrMetallicRoughness":{"baseColorTexture":{"index":12},"metallicFactor":0,"metallicRoughnessTexture":{"index":13}}},{"alphaMode":"BLEND","doubleSided":true,"name":"M_fx_scuff","normalTexture":{"index":14,"scale":0.2800000011920929},"pbrMetallicRoughness":{"baseColorTexture":{"index":15},"metallicFactor":0,"metallicRoughnessTexture":{"index":16}}},{"name":"M_plaster_b","normalTexture":{"index":17,"scale":0.3499999940395355},"pbrMetallicRoughness":{"baseColorTexture":{"index":18},"metallicFactor":0,"metallicRoughnessTexture":{"index":19}}},{"name":"M_plaster_stained_b","normalTexture":{"index":20,"scale":0.3499999940395355},"pbrMetallicRoughness":{"baseColorTexture":{"index":21},"metallicFactor":0,"metallicRoughnessTexture":{"index":22}}},{"name":"M_tin_ceiling_b","normalTexture":{"index":23,"scale":0.3499999940395355},"pbrMetallicRoughness":{"baseColorTexture":{"index":24},"metallicFactor":0.07999999821186066,"metallicRoughnessTexture":{"index":25}}},{"name":"M_concrete_b","normalTexture":{"index":26,"scale":0.3499999940395355},"pbrMetallicRoughness":{"baseColorTexture":{"index":27},"metallicFactor":0,"metallicRoughnessTexture":{"index":28}}},{"name":"M_terrazzo_b","normalTexture":{"index":29,"scale":0.3499999940395355},"pbrMetallicRoughness":{"baseColorTexture":{"index":30},"metallicFactor":0,"metallicRoughnessTexture":{"index":31}}},{"name":"M_bakelite_black","normalTexture":{"index":32,"scale":0.3499999940395355},"pbrMetallicRoughness":{"baseColorTexture":{"index":33},"metallicFactor":0,"metallicRoughnessTexture":{"index":34}}},{"name":"M_book_ochre","normalTexture":{"index":35,"scale":0.3499999940395355},"pbrMetallicRoughness":{"baseColorTexture":{"index":36},"metallicFactor":0,"metallicRoughnessTexture":{"index":37}}},{"name":"M_book_teal","normalTexture":{"index":38,"scale":0.3499999940395355},"pbrMetallicRoughness":{"baseColorTexture":{"index":39},"metallicFactor":0,"metallicRoughnessTexture":{"index":40}}},{"name":"M_brass_bright","normalTexture":{"index":41,"scale":0.3499999940395355},"pbrMetallicRoughness":{"baseColorTexture":{"index":42},"metallicFactor":0.8500000238418579,"metallicRoughnessTexture":{"index":43}}},{"name":"M_brass_dull","normalTexture":{"index":44,"scale":0.3499999940395355},"pbrMetallicRoughness":{"baseColorTexture":{"index":45},"metallicFactor":0.30000001192092896,"metallicRoughnessTexture":{"index":46}}},{"name":"M_chrome_b","normalTexture":{"index":47,"scale":0.3499999940395355},"pbrMetallicRoughness":{"baseColorTexture":{"index":48},"metallicRoughnessTexture":{"index":49}}},{"name":"M_countertop_b","normalTexture":{"index":50,"scale":0.3499999940395355},"pbrMetallicRoughness":{"baseColorTexture":{"index":51},"metallicFactor":0,"metallicRoughnessTexture":{"index":52}}},{"name":"M_fabric_green_b","normalTexture":{"index":53,"scale":0.3499999940395355},"pbrMetallicRoughness":{"baseColorTexture":{"index":54},"metallicFactor":0,"metallicRoughnessTexture":{"index":55}}},{"name":"M_oak_quartered","normalTexture":{"index":56,"scale":0.3499999940395355},"pbrMetallicRoughness":{"baseColorTexture":{"index":57},"metallicFactor":0,"metallicRoughnessTexture":{"index":58}}},{"name":"M_paper_b","normalTexture":{"index":59,"scale":0.3499999940395355},"pbrMetallicRoughness":{"baseColorTexture":{"index":60},"metallicFactor":0,"metallicRoughnessTexture":{"index":61}}},{"name":"M_porcelain_b","normalTexture":{"index":62,"scale":0.3499999940395355},"pbrMetallicRoughness":{"baseColorTexture":{"index":63},"metallicFactor":0,"metallicRoughnessTexture":{"index":64}}},{"name":"M_timber_b","normalTexture":{"index":65,"scale":0.3499999940395355},"pbrMetallicRoughness":{"baseColorTexture":{"index":66},"metallicFactor":0,"metallicRoughnessTexture":{"index":67}}},{"name":"M_wood_dark_b","normalTexture":{"index":68,"scale":0.3499999940395355},"pbrMetallicRoughness":{"baseColorTexture":{"index":69},"metallicFactor":0,"metallicRoughnessTexture":{"index":70}}},{"name":"M_marble_lobby_b","normalTexture":{"index":71,"scale":0.3499999940395355},"pbrMetallicRoughness":{"baseColorTexture":{"index":72},"metallicFactor":0,"metallicRoughnessTexture":{"index":73}}},{"name":"M_wainscot_b","normalTexture":{"index":74,"scale":0.3499999940395355},"pbrMetallicRoughness":{"baseColorTexture":{"index":75},"metallicFactor":0,"metallicRoughnessTexture":{"index":76}}},{"name":"M_milk_glass","normalTexture":{"index":77,"scale":0.3499999940395355},"pbrMetallicRoughness":{"baseColorTexture":{"index":78},"metallicFactor":0,"metallicRoughnessTexture":{"index":79}}},{"name":"M_lacquer_red_b","normalTexture":{"index":80,"scale":0.3499999940395355},"pbrMetallicRoughness":{"baseColorTexture":{"index":81},"metallicFactor":0,"metallicRoughnessTexture":{"index":82}}},{"name":"M_vinyl_oxblood_b","normalTexture":{"index":83,"scale":0.3499999940395355},"pbrMetallicRoughness":{"baseColorTexture":{"index":84},"metallicFactor":0,"metallicRoughnessTexture":{"index":85}}},{"name":"M_awning_vinyl","normalTexture":{"index":86,"scale":0.3499999940395355},"pbrMetallicRoughness":{"baseColorTexture":{"index":87},"metallicFactor":0,"metallicRoughnessTexture":{"index":88}}},{"name":"M_bronze","normalTexture":{"index":89,"scale":0.3499999940395355},"pbrMetallicRoughness":{"baseColorTexture":{"index":90},"metallicFactor":0.75,"metallicRoughnessTexture":{"index":91}}}],"textures":[{"sampler":0,"source":0},{"sampler":0,"source":1},{"sampler":0,"source":2},{"sampler":0,"source":3},{"sampler":0,"source":4},{"sampler":0,"source":5},{"sampler":0,"source":6},{"sampler":0,"source":7},{"sampler":0,"source":8},{"sampler":0,"source":9},{"sampler":0,"source":10},{"sampler":0,"source":11},{"sampler":0,"source":12},{"sampler":0,"source":13},{"sampler":0,"source":14},{"sampler":0,"source":15},{"sampler":0,"source":16},{"sampler":0,"source":17},{"sampler":0,"source":18},{"sampler":0,"source":19},{"sampler":0,"source":20},{"sampler":0,"source":21},{"sampler":0,"source":22},{"sampler":0,"source":23},{"sampler":0,"source":24},{"sampler":0,"source":25},{"sampler":0,"source":26},{"sampler":0,"source":27},{"sampler":0,"source":28},{"sampler":0,"source":29},{"sampler":0,"source":30},{"sampler":0,"source":31},{"sampler":0,"source":32},{"sampler":0,"source":33},{"sampler":0,"source":34},{"sampler":0,"source":35},{"sampler":0,"source":36},{"sampler":0,"source":37},{"sampler":0,"source":38},{"sampler":0,"source":39},{"sampler":0,"source":40},{"sampler":0,"source":41},{"sampler":0,"source":42},{"sampler":0,"source":43},{"sampler":0,"source":44},{"sampler":0,"source":45},{"sampler":0,"source":46},{"sampler":0,"source":47},{"sampler":0,"source":48},{"sampler":0,"source":49},{"sampler":0,"source":50},{"sampler":0,"source":51},{"sampler":0,"source":52},{"sampler":0,"source":53},{"sampler":0,"source":54},{"sampler":0,"source":55},{"sampler":0,"source":56},{"sampler":0,"source":57},{"sampler":0,"source":58},{"sampler":0,"source":59},{"sampler":0,"source":60},{"sampler":0,"source":61},{"sampler":0,"source":62},{"sampler":0,"source":63},{"sampler":0,"source":64},{"sampler":0,"source":65},{"sampler":0,"source":66},{"sampler":0,"source":67},{"sampler":0,"source":68},{"sampler":0,"source":69},{"sampler":0,"source":70},{"sampler":0,"source":71},{"sampler":0,"source":72},{"sampler":0,"source":73},{"sampler":0,"source":74},{"sampler":0,"source":75},{"sampler":0,"source":76},{"sampler":0,"source":77},{"sampler":0,"source":78},{"sampler":0,"source":79},{"sampler":0,"source":80},{"sampler":0,"source":81},{"sampler":0,"source":82},{"sampler":0,"source":83},{"sampler":0,"source":84},{"sampler":0,"source":85},{"sampler":0,"source":86},{"sampler":0,"source":87},{"sampler":0,"source":88},{"sampler":0,"source":89},{"sampler":0,"source":90},{"sampler":0,"source":91}],"images":[{"mimeType":"image/png","name":"T_ai_materials_metal_b_normal","uri":"../textures/T_ai_materials_metal_b_normal.png"},{"mimeType":"image/png","name":"T_ai_materials_metal_b_albedo","uri":"../textures/T_ai_materials_metal_b_albedo.png"},{"mimeType":"image/png","name":"T_ai_materials_metal_b_rough","uri":"../textures/T_ai_materials_metal_b_rough.png"},{"mimeType":"image/png","name":"T_glass_normal","uri":"../textures/T_glass_normal.png"},{"mimeType":"image/png","name":"T_glass_rough","uri":"../textures/T_glass_rough.png"},{"mimeType":"image/png","name":"T_ai_materials_plywood_b_normal","uri":"../textures/T_ai_materials_plywood_b_normal.png"},{"mimeType":"image/png","name":"T_ai_materials_plywood_b_albedo","uri":"../textures/T_ai_materials_plywood_b_albedo.png"},{"mimeType":"image/png","name":"T_ai_materials_plywood_b_rough","uri":"../textures/T_ai_materials_plywood_b_rough.png"},{"mimeType":"image/png","name":"T_ai_materials_limestone_b_normal","uri":"../textures/T_ai_materials_limestone_b_normal.png"},{"mimeType":"image/png","name":"T_ai_materials_limestone_b_albedo","uri":"../textures/T_ai_materials_limestone_b_albedo.png"},{"mimeType":"image/png","name":"T_ai_materials_limestone_b_rough","uri":"../textures/T_ai_materials_limestone_b_rough.png"},{"mimeType":"image/png","name":"T_ai_materials_trim_b_normal","uri":"../textures/T_ai_materials_trim_b_normal.png"},{"mimeType":"image/png","name":"T_ai_materials_trim_b_albedo","uri":"../textures/T_ai_materials_trim_b_albedo.png"},{"mimeType":"image/png","name":"T_ai_materials_trim_b_rough","uri":"../textures/T_ai_materials_trim_b_rough.png"},{"mimeType":"image/png","name":"T_fx_fx_scuff_normal","uri":"../textures/T_fx_fx_scuff_normal.png"},{"mimeType":"image/png","name":"T_fx_fx_scuff","uri":"../textures/T_fx_fx_scuff.png"},{"mimeType":"image/png","name":"T_fx_fx_scuff_rough","uri":"../textures/T_fx_fx_scuff_rough.png"},{"mimeType":"image/png","name":"T_ai_materials_plaster_b_normal","uri":"../textures/T_ai_materials_plaster_b_normal.png"},{"mimeType":"image/png","name":"T_ai_materials_plaster_b_albedo","uri":"../textures/T_ai_materials_plaster_b_albedo.png"},{"mimeType":"image/png","name":"T_ai_materials_plaster_b_rough","uri":"../textures/T_ai_materials_plaster_b_rough.png"},{"mimeType":"image/png","name":"T_ai_materials_plaster_stained_b_normal","uri":"../textures/T_ai_materials_plaster_stained_b_normal.png"},{"mimeType":"image/png","name":"T_ai_materials_plaster_stained_b_albedo","uri":"../textures/T_ai_materials_plaster_stained_b_albedo.png"},{"mimeType":"image/png","name":"T_ai_materials_plaster_stained_b_rough","uri":"../textures/T_ai_materials_plaster_stained_b_rough.png"},{"mimeType":"image/png","name":"T_ai_materials_tin_ceiling_b_normal","uri":"../textures/T_ai_materials_tin_ceiling_b_normal.png"},{"mimeType":"image/png","name":"T_ai_materials_tin_ceiling_b_albedo","uri":"../textures/T_ai_materials_tin_ceiling_b_albedo.png"},{"mimeType":"image/png","name":"T_ai_materials_tin_ceiling_b_rough","uri":"../textures/T_ai_materials_tin_ceiling_b_rough.png"},{"mimeType":"image/png","name":"T_ai_materials_concrete_b_normal","uri":"../textures/T_ai_materials_concrete_b_normal.png"},{"mimeType":"image/png","name":"T_ai_materials_concrete_b_albedo","uri":"../textures/T_ai_materials_concrete_b_albedo.png"},{"mimeType":"image/png","name":"T_ai_materials_concrete_b_rough","uri":"../textures/T_ai_materials_concrete_b_rough.png"},{"mimeType":"image/png","name":"T_ai_materials_terrazzo_b_normal","uri":"../textures/T_ai_materials_terrazzo_b_normal.png"},{"mimeType":"image/png","name":"T_ai_materials_terrazzo_b_albedo","uri":"../textures/T_ai_materials_terrazzo_b_albedo.png"},{"mimeType":"image/png","name":"T_ai_materials_terrazzo_b_rough","uri":"../textures/T_ai_materials_terrazzo_b_rough.png"},{"mimeType":"image/png","name":"T_ai_materials_bakelite_black_normal","uri":"../textures/T_ai_materials_bakelite_black_normal.png"},{"mimeType":"image/png","name":"T_ai_materials_bakelite_black_albedo","uri":"../textures/T_ai_materials_bakelite_black_albedo.png"},{"mimeType":"image/png","name":"T_ai_materials_bakelite_black_rough","uri":"../textures/T_ai_materials_bakelite_black_rough.png"},{"mimeType":"image/png","name":"T_library_furniture_book_ochre_normal","uri":"../textures/T_library_furniture_book_ochre_normal.png"},{"mimeType":"image/png","name":"T_library_furniture_book_ochre_albedo","uri":"../textures/T_library_furniture_book_ochre_albedo.png"},{"mimeType":"image/png","name":"T_library_furniture_book_ochre_rough","uri":"../textures/T_library_furniture_book_ochre_rough.png"},{"mimeType":"image/png","name":"T_library_furniture_book_teal_normal","uri":"../textures/T_library_furniture_book_teal_normal.png"},{"mimeType":"image/png","name":"T_library_furniture_book_teal_albedo","uri":"../textures/T_library_furniture_book_teal_albedo.png"},{"mimeType":"image/png","name":"T_library_furniture_book_teal_rough","uri":"../textures/T_library_furniture_book_teal_rough.png"},{"mimeType":"image/png","name":"T_ai_materials_brass_bright_normal","uri":"../textures/T_ai_materials_brass_bright_normal.png"},{"mimeType":"image/png","name":"T_ai_materials_brass_bright_albedo","uri":"../textures/T_ai_materials_brass_bright_albedo.png"},{"mimeType":"image/png","name":"T_ai_materials_brass_bright_rough","uri":"../textures/T_ai_materials_brass_bright_rough.png"},{"mimeType":"image/png","name":"T_ai_materials_brass_normal","uri":"../textures/T_ai_materials_brass_normal.png"},{"mimeType":"image/png","name":"T_ai_materials_brass_albedo","uri":"../textures/T_ai_materials_brass_albedo.png"},{"mimeType":"image/png","name":"T_ai_materials_brass_rough","uri":"../textures/T_ai_materials_brass_rough.png"},{"mimeType":"image/png","name":"T_ai_materials_chrome_b_normal","uri":"../textures/T_ai_materials_chrome_b_normal.png"},{"mimeType":"image/png","name":"T_ai_materials_chrome_b_albedo","uri":"../textures/T_ai_materials_chrome_b_albedo.png"},{"mimeType":"image/png","name":"T_ai_materials_chrome_b_rough","uri":"../textures/T_ai_materials_chrome_b_rough.png"},{"mimeType":"image/png","name":"T_ai_materials_countertop_b_normal","uri":"../textures/T_ai_materials_countertop_b_normal.png"},{"mimeType":"image/png","name":"T_ai_materials_countertop_b_albedo","uri":"../textures/T_ai_materials_countertop_b_albedo.png"},{"mimeType":"image/png","name":"T_ai_materials_countertop_b_rough","uri":"../textures/T_ai_materials_countertop_b_rough.png"},{"mimeType":"image/png","name":"T_ai_materials_fabric_green_b_normal","uri":"../textures/T_ai_materials_fabric_green_b_normal.png"},{"mimeType":"image/png","name":"T_ai_materials_fabric_green_b_albedo","uri":"../textures/T_ai_materials_fabric_green_b_albedo.png"},{"mimeType":"image/png","name":"T_ai_materials_fabric_green_b_rough","uri":"../textures/T_ai_materials_fabric_green_b_rough.png"},{"mimeType":"image/png","name":"T_ai_materials_oak_quartered_normal","uri":"../textures/T_ai_materials_oak_quartered_normal.png"},{"mimeType":"image/png","name":"T_ai_materials_oak_quartered_albedo","uri":"../textures/T_ai_materials_oak_quartered_albedo.png"},{"mimeType":"image/png","name":"T_ai_materials_oak_quartered_rough","uri":"../textures/T_ai_materials_oak_quartered_rough.png"},{"mimeType":"image/png","name":"T_ai_materials_paper_b_normal","uri":"../textures/T_ai_materials_paper_b_normal.png"},{"mimeType":"image/png","name":"T_ai_materials_paper_b_albedo","uri":"../textures/T_ai_materials_paper_b_albedo.png"},{"mimeType":"image/png","name":"T_ai_materials_paper_b_rough","uri":"../textures/T_ai_materials_paper_b_rough.png"},{"mimeType":"image/png","name":"T_ai_materials_porcelain_b_normal","uri":"../textures/T_ai_materials_porcelain_b_normal.png"},{"mimeType":"image/png","name":"T_ai_materials_porcelain_b_albedo","uri":"../textures/T_ai_materials_porcelain_b_albedo.png"},{"mimeType":"image/png","name":"T_ai_materials_porcelain_b_rough","uri":"../textures/T_ai_materials_porcelain_b_rough.png"},{"mimeType":"image/png","name":"T_ai_materials_timber_b_normal","uri":"../textures/T_ai_materials_timber_b_normal.png"},{"mimeType":"image/png","name":"T_ai_materials_timber_b_albedo","uri":"../textures/T_ai_materials_timber_b_albedo.png"},{"mimeType":"image/png","name":"T_ai_materials_timber_b_rough","uri":"../textures/T_ai_materials_timber_b_rough.png"},{"mimeType":"image/png","name":"T_ai_materials_wood_dark_b_normal","uri":"../textures/T_ai_materials_wood_dark_b_normal.png"},{"mimeType":"image/png","name":"T_ai_materials_wood_dark_b_albedo","uri":"../textures/T_ai_materials_wood_dark_b_albedo.png"},{"mimeType":"image/png","name":"T_ai_materials_wood_dark_b_rough","uri":"../textures/T_ai_materials_wood_dark_b_rough.png"},{"mimeType":"image/png","name":"T_ai_materials_marble_lobby_b_normal","uri":"../textures/T_ai_materials_marble_lobby_b_normal.png"},{"mimeType":"image/png","name":"T_ai_materials_marble_lobby_b_albedo","uri":"../textures/T_ai_materials_marble_lobby_b_albedo.png"},{"mimeType":"image/png","name":"T_ai_materials_marble_lobby_b_rough","uri":"../textures/T_ai_materials_marble_lobby_b_rough.png"},{"mimeType":"image/png","name":"T_ai_materials_wainscot_b_normal","uri":"../textures/T_ai_materials_wainscot_b_normal.png"},{"mimeType":"image/png","name":"T_ai_materials_wainscot_b_albedo","uri":"../textures/T_ai_materials_wainscot_b_albedo.png"},{"mimeType":"image/png","name":"T_ai_materials_wainscot_b_rough","uri":"../textures/T_ai_materials_wainscot_b_rough.png"},{"mimeType":"image/png","name":"T_ai_materials_milk_glass_normal","uri":"../textures/T_ai_materials_milk_glass_normal.png"},{"mimeType":"image/png","name":"T_ai_materials_milk_glass_albedo","uri":"../textures/T_ai_materials_milk_glass_albedo.png"},{"mimeType":"image/png","name":"T_ai_materials_milk_glass_rough","uri":"../textures/T_ai_materials_milk_glass_rough.png"},{"mimeType":"image/png","name":"T_ai_materials_lacquer_red_b_normal","uri":"../textures/T_ai_materials_lacquer_red_b_normal.png"},{"mimeType":"image/png","name":"T_ai_materials_lacquer_red_b_albedo","uri":"../textures/T_ai_materials_lacquer_red_b_albedo.png"},{"mimeType":"image/png","name":"T_ai_materials_lacquer_red_b_rough","uri":"../textures/T_ai_materials_lacquer_red_b_rough.png"},{"mimeType":"image/png","name":"T_ai_materials_vinyl_oxblood_b_normal","uri":"../textures/T_ai_materials_vinyl_oxblood_b_normal.png"},{"mimeType":"image/png","name":"T_ai_materials_vinyl_oxblood_b_albedo","uri":"../textures/T_ai_materials_vinyl_oxblood_b_albedo.png"},{"mimeType":"image/png","name":"T_ai_materials_vinyl_oxblood_b_rough","uri":"../textures/T_ai_materials_vinyl_oxblood_b_rough.png"},{"mimeType":"image/png","name":"T_ai_materials_awning_vinyl_normal","uri":"../textures/T_ai_materials_awning_vinyl_normal.png"},{"mimeType":"image/png","name":"T_ai_materials_awning_vinyl_albedo","uri":"../textures/T_ai_materials_awning_vinyl_albedo.png"},{"mimeType":"image/png","name":"T_ai_materials_awning_vinyl_rough","uri":"../textures/T_ai_materials_awning_vinyl_rough.png"},{"mimeType":"image/png","name":"T_ai_materials_bronze_normal","uri":"../textures/T_ai_materials_bronze_normal.png"},{"mimeType":"image/png","name":"T_ai_materials_bronze_albedo","uri":"../textures/T_ai_materials_bronze_albedo.png"},{"mimeType":"image/png","name":"T_ai_materials_bronze_rough","uri":"../textures/T_ai_materials_bronze_rough.png"}],"samplers":[{"magFilter":9729,"minFilter":9987}]}
