{"asset":{"generator":"Khronos glTF Blender I/O v5.2.39","version":"2.0","extras":{"orison_bin_sha256":"8d3c8326480aa5714fe085ddd33cc1e71ea674c69185a5b6d13631b8ff7c98eb","orison_m11c1_candidate":{"production_asset":false,"owner_before_material":true,"spatial_inference_used":false},"orison_m11c1_owner_first":{"cell":"CELL_SHOP_HARDWARE_PAINT","production_asset":false,"owner_before_material":true,"spatial_inference_used":false}}},"extensionsUsed":["KHR_materials_specular"],"scene":0,"scenes":[{"name":"Scene_shop_hardware_paint","nodes":[0,1,2,3,4,5,6,7,8,9,10,11,12,13,14,15,16,17,18,19,20,21]}],"nodes":[{"mesh":0,"name":"F01_OWN_SHOP_HARDWARE_PAINT_retail_shop_hardware_paint_book_teal-col"},{"mesh":1,"name":"F01_OWN_SHOP_HARDWARE_PAINT_retail_shop_hardware_paint_brass_bright-col"},{"mesh":2,"name":"F01_OWN_SHOP_HARDWARE_PAINT_retail_shop_hardware_paint_brass_dull-col"},{"mesh":3,"name":"F01_OWN_SHOP_HARDWARE_PAINT_retail_shop_hardware_paint_cast_iron-col"},{"mesh":4,"name":"F01_OWN_SHOP_HARDWARE_PAINT_retail_shop_hardware_paint_concrete-col"},{"mesh":5,"name":"F01_OWN_SHOP_HARDWARE_PAINT_retail_shop_hardware_paint_countertop-col"},{"mesh":6,"name":"F01_OWN_SHOP_HARDWARE_PAINT_retail_shop_hardware_paint_fabric_green-col"},{"mesh":7,"name":"F01_OWN_SHOP_HARDWARE_PAINT_retail_shop_hardware_paint_glassish-col"},{"mesh":8,"name":"F01_OWN_SHOP_HARDWARE_PAINT_retail_shop_hardware_paint_lacquer_red-col"},{"mesh":9,"name":"F01_OWN_SHOP_HARDWARE_PAINT_retail_shop_hardware_paint_metal-col"},{"mesh":10,"name":"F01_OWN_SHOP_HARDWARE_PAINT_retail_shop_hardware_paint_oak_quartered-col"},{"mesh":11,"name":"F01_OWN_SHOP_HARDWARE_PAINT_retail_shop_hardware_paint_paper-col"},{"mesh":12,"name":"F01_OWN_SHOP_HARDWARE_PAINT_retail_shop_hardware_paint_plaster-col"},{"mesh":13,"name":"F01_OWN_SHOP_HARDWARE_PAINT_retail_shop_hardware_paint_plaster_stained-col"},{"mesh":14,"name":"F01_OWN_SHOP_HARDWARE_PAINT_retail_shop_hardware_paint_plywood-col"},{"mesh":15,"name":"F01_OWN_SHOP_HARDWARE_PAINT_retail_shop_hardware_paint_safety_orange-col"},{"mesh":16,"name":"F01_OWN_SHOP_HARDWARE_PAINT_retail_shop_hardware_paint_soot-col"},{"mesh":17,"name":"F01_OWN_SHOP_HARDWARE_PAINT_retail_shop_hardware_paint_timber-col"},{"mesh":18,"name":"F01_OWN_SHOP_HARDWARE_PAINT_retail_shop_hardware_paint_trim-col"},{"mesh":19,"name":"F01_OWN_SHOP_HARDWARE_PAINT_retail_shop_hardware_paint_wainscot-col"},{"mesh":20,"name":"F01_OWN_SHOP_HARDWARE_PAINT_retail_shop_hardware_paint_wood_dark-col"},{"mesh":21,"name":"F01_OWN_SHOP_HARDWARE_PAINT_wear_fx_scuff"}],"meshes":[{"name":"F01_OWN_SHOP_HARDWARE_PAINT_retail_shop_hardware_paint_book_teal-col","primitives":[{"attributes":{"POSITION":10,"NORMAL":11,"TEXCOORD_0":12},"indices":3,"material":10}]},{"name":"F01_OWN_SHOP_HARDWARE_PAINT_retail_shop_hardware_paint_brass_bright-col","primitives":[{"attributes":{"POSITION":13,"NORMAL":14,"TEXCOORD_0":15},"indices":0,"material":11}]},{"name":"F01_OWN_SHOP_HARDWARE_PAINT_retail_shop_hardware_paint_brass_dull-col","primitives":[{"attributes":{"POSITION":16,"NORMAL":17,"TEXCOORD_0":18},"indices":19,"material":12}]},{"name":"F01_OWN_SHOP_HARDWARE_PAINT_retail_shop_hardware_paint_cast_iron-col","primitives":[{"attributes":{"POSITION":20,"NORMAL":21,"TEXCOORD_0":22},"indices":3,"material":1}]},{"name":"F01_OWN_SHOP_HARDWARE_PAINT_retail_shop_hardware_paint_concrete-col","primitives":[{"attributes":{"POSITION":23,"NORMAL":24,"TEXCOORD_0":25},"indices":3,"material":9}]},{"name":"F01_OWN_SHOP_HARDWARE_PAINT_retail_shop_hardware_paint_countertop-col","primitives":[{"attributes":{"POSITION":26,"NORMAL":27,"TEXCOORD_0":28},"indices":0,"material":13}]},{"name":"F01_OWN_SHOP_HARDWARE_PAINT_retail_shop_hardware_paint_fabric_green-col","primitives":[{"attributes":{"POSITION":29,"NORMAL":30,"TEXCOORD_0":31},"indices":7,"material":14}]},{"name":"F01_OWN_SHOP_HARDWARE_PAINT_retail_shop_hardware_paint_glassish-col","primitives":[{"attributes":{"POSITION":32,"NORMAL":33,"TEXCOORD_0":34},"indices":2,"material":2}]},{"name":"F01_OWN_SHOP_HARDWARE_PAINT_retail_shop_hardware_paint_lacquer_red-col","primitives":[{"attributes":{"POSITION":35,"NORMAL":36,"TEXCOORD_0":37},"indices":3,"material":20}]},{"name":"F01_OWN_SHOP_HARDWARE_PAINT_retail_shop_hardware_paint_metal-col","primitives":[{"attributes":{"POSITION":38,"NORMAL":39,"TEXCOORD_0":40},"indices":4,"material":0}]},{"name":"F01_OWN_SHOP_HARDWARE_PAINT_retail_shop_hardware_paint_oak_quartered-col","primitives":[{"attributes":{"POSITION":41,"NORMAL":42,"TEXCOORD_0":43},"indices":8,"material":15}]},{"name":"F01_OWN_SHOP_HARDWARE_PAINT_retail_shop_hardware_paint_paper-col","primitives":[{"attributes":{"POSITION":44,"NORMAL":45,"TEXCOORD_0":46},"indices":7,"material":16}]},{"name":"F01_OWN_SHOP_HARDWARE_PAINT_retail_shop_hardware_paint_plaster-col","primitives":[{"attributes":{"POSITION":47,"NORMAL":48,"TEXCOORD_0":49},"indices":9,"material":7}]},{"name":"F01_OWN_SHOP_HARDWARE_PAINT_retail_shop_hardware_paint_plaster_stained-col","primitives":[{"attributes":{"POSITION":50,"NORMAL":51,"TEXCOORD_0":52},"indices":7,"material":8}]},{"name":"F01_OWN_SHOP_HARDWARE_PAINT_retail_shop_hardware_paint_plywood-col","primitives":[{"attributes":{"POSITION":53,"NORMAL":54,"TEXCOORD_0":55},"indices":3,"material":3}]},{"name":"F01_OWN_SHOP_HARDWARE_PAINT_retail_shop_hardware_paint_safety_orange-col","primitives":[{"attributes":{"POSITION":56,"NORMAL":57,"TEXCOORD_0":58},"indices":59,"material":21}]},{"name":"F01_OWN_SHOP_HARDWARE_PAINT_retail_shop_hardware_paint_soot-col","primitives":[{"attributes":{"POSITION":60,"NORMAL":61,"TEXCOORD_0":62},"indices":2,"material":4}]},{"name":"F01_OWN_SHOP_HARDWARE_PAINT_retail_shop_hardware_paint_timber-col","primitives":[{"attributes":{"POSITION":63,"NORMAL":64,"TEXCOORD_0":65},"indices":66,"material":17}]},{"name":"F01_OWN_SHOP_HARDWARE_PAINT_retail_shop_hardware_paint_trim-col","primitives":[{"attributes":{"POSITION":67,"NORMAL":68,"TEXCOORD_0":69},"indices":6,"material":5}]},{"name":"F01_OWN_SHOP_HARDWARE_PAINT_retail_shop_hardware_paint_wainscot-col","primitives":[{"attributes":{"POSITION":70,"NORMAL":71,"TEXCOORD_0":72},"indices":1,"material":19}]},{"name":"F01_OWN_SHOP_HARDWARE_PAINT_retail_shop_hardware_paint_wood_dark-col","primitives":[{"attributes":{"POSITION":73,"NORMAL":74,"TEXCOORD_0":75},"indices":76,"material":18}]},{"name":"F01_OWN_SHOP_HARDWARE_PAINT_wear_fx_scuff","primitives":[{"attributes":{"POSITION":77,"NORMAL":78,"TEXCOORD_0":79},"indices":5,"material":6}]}],"accessors":[{"bufferView":0,"componentType":5123,"count":36,"type":"SCALAR"},{"bufferView":1,"componentType":5123,"count":108,"type":"SCALAR"},{"bufferView":2,"componentType":5123,"count":288,"type":"SCALAR"},{"bufferView":3,"componentType":5123,"count":72,"type":"SCALAR"},{"bufferView":4,"componentType":5123,"count":756,"type":"SCALAR"},{"bufferView":5,"componentType":5123,"count":6,"type":"SCALAR"},{"bufferView":6,"componentType":5123,"count":180,"type":"SCALAR"},{"bufferView":7,"componentType":5123,"count":144,"type":"SCALAR"},{"bufferView":8,"componentType":5123,"count":1260,"type":"SCALAR"},{"bufferView":9,"componentType":5123,"count":252,"type":"SCALAR"},{"bufferView":10,"componentType":5126,"count":48,"max":[5.550000190734863,1.2899999618530273,57.40999984741211],"min":[5.21999979019165,1.0299999713897705,55.9900016784668],"type":"VEC3"},{"bufferView":11,"componentType":5126,"count":48,"type":"VEC3"},{"bufferView":12,"componentType":5126,"count":48,"type":"VEC2"},{"bufferView":13,"componentType":5126,"count":24,"max":[11.04800033569336,1.5800000429153442,57.790000915527344],"min":[11.020000457763672,1.3200000524520874,57.61000061035156],"type":"VEC3"},{"bufferView":14,"componentType":5126,"count":24,"type":"VEC3"},{"bufferView":15,"componentType":5126,"count":24,"type":"VEC2"},{"bufferView":16,"componentType":5126,"count":1200,"max":[7.940000057220459,2.0199999809265137,59.23500061035156],"min":[4.559999942779541,0.25999999046325684,54.20000076293945],"type":"VEC3"},{"bufferView":17,"componentType":5126,"count":1200,"type":"VEC3"},{"bufferView":18,"componentType":5126,"count":1200,"type":"VEC2"},{"bufferView":19,"componentType":5123,"count":1800,"type":"SCALAR"},{"bufferView":20,"componentType":5126,"count":48,"max":[6.619999885559082,1.1299999952316284,58.02000045776367],"min":[5.920000076293945,0.05000000074505806,56.36000061035156],"type":"VEC3"},{"bufferView":21,"componentType":5126,"count":48,"type":"VEC3"},{"bufferView":22,"componentType":5126,"count":48,"type":"VEC2"},{"bufferView":23,"componentType":5126,"count":48,"max":[11,0.009999999776482582,59.29999923706055],"min":[1.1799999475479126,-0.05000000074505806,54.099998474121094],"type":"VEC3"},{"bufferView":24,"componentType":5126,"count":48,"type":"VEC3"},{"bufferView":25,"componentType":5126,"count":48,"type":"VEC2"},{"bufferView":26,"componentType":5126,"count":24,"max":[10.25,1.1200000047683716,57.7400016784668],"min":[9.550000190734863,1.0700000524520874,54.65999984741211],"type":"VEC3"},{"bufferView":27,"componentType":5126,"count":24,"type":"VEC3"},{"bufferView":28,"componentType":5126,"count":24,"type":"VEC2"},{"bufferView":29,"componentType":5126,"count":96,"max":[12.300000190734863,3.4200000762939453,59.18000030517578],"min":[5.21999979019165,1.0299999713897705,54.220001220703125],"type":"VEC3"},{"bufferView":30,"componentType":5126,"count":96,"type":"VEC3"},{"bufferView":31,"componentType":5126,"count":96,"type":"VEC2"},{"bufferView":32,"componentType":5126,"count":192,"max":[11.140000343322754,3.049999952316284,59.2599983215332],"min":[4.514999866485596,0.2199999988079071,54.13999938964844],"type":"VEC3"},{"bufferView":33,"componentType":5126,"count":192,"type":"VEC3"},{"bufferView":34,"componentType":5126,"count":192,"type":"VEC2"},{"bufferView":35,"componentType":5126,"count":48,"max":[5.550000190734863,1.2899999618530273,57.11000061035156],"min":[5.21999979019165,1.0299999713897705,55.689998626708984],"type":"VEC3"},{"bufferView":36,"componentType":5126,"count":48,"type":"VEC3"},{"bufferView":37,"componentType":5126,"count":48,"type":"VEC2"},{"bufferView":38,"componentType":5126,"count":504,"max":[12.319999694824219,3.4700000286102295,59.20000076293945],"min":[4.880000114440918,0.25999999046325684,54.20000076293945],"type":"VEC3"},{"bufferView":39,"componentType":5126,"count":504,"type":"VEC3"},{"bufferView":40,"componentType":5126,"count":504,"type":"VEC2"},{"bufferView":41,"componentType":5126,"count":840,"max":[4.659999847412109,2.1600000858306885,57.41428756713867],"min":[4.590000152587891,0.23999999463558197,54.599998474121094],"type":"VEC3"},{"bufferView":42,"componentType":5126,"count":840,"type":"VEC3"},{"bufferView":43,"componentType":5126,"count":840,"type":"VEC2"},{"bufferView":44,"componentType":5126,"count":96,"max":[10.079999923706055,2,58.900001525878906],"min":[1.2599999904632568,0.5,56.52000045776367],"type":"VEC3"},{"bufferView":45,"componentType":5126,"count":96,"type":"VEC3"},{"bufferView":46,"componentType":5126,"count":96,"type":"VEC2"},{"bufferView":47,"componentType":5126,"count":168,"max":[11,3.549999952316284,59.29999923706055],"min":[1.1799999475479126,0.009999999776482582,54.099998474121094],"type":"VEC3"},{"bufferView":48,"componentType":5126,"count":168,"type":"VEC3"},{"bufferView":49,"componentType":5126,"count":168,"type":"VEC2"},{"bufferView":50,"componentType":5126,"count":96,"max":[4.559999942779541,3.259999990463257,59.29999923706055],"min":[4.5,0.009999999776482582,54.099998474121094],"type":"VEC3"},{"bufferView":51,"componentType":5126,"count":96,"type":"VEC3"},{"bufferView":52,"componentType":5126,"count":96,"type":"VEC2"},{"bufferView":53,"componentType":5126,"count":48,"max":[10.460000038146973,2.440000057220459,59.209999084472656],"min":[4.71999979019165,0.41999998688697815,54.279998779296875],"type":"VEC3"},{"bufferView":54,"componentType":5126,"count":48,"type":"VEC3"},{"bufferView":55,"componentType":5126,"count":48,"type":"VEC2"},{"bufferView":56,"componentType":5126,"count":312,"max":[7.320000171661377,1.2999999523162842,59.20000076293945],"min":[5.119999885559082,0.25999999046325684,54.20000076293945],"type":"VEC3"},{"bufferView":57,"componentType":5126,"count":312,"type":"VEC3"},{"bufferView":58,"componentType":5126,"count":312,"type":"VEC2"},{"bufferView":59,"componentType":5123,"count":468,"type":"SCALAR"},{"bufferView":60,"componentType":5126,"count":192,"max":[7.079999923706055,1.6399999856948853,59.18000030517578],"min":[4.860000133514404,1.2200000286102295,58.869998931884766],"type":"VEC3"},{"bufferView":61,"componentType":5126,"count":192,"type":"VEC3"},{"bufferView":62,"componentType":5126,"count":192,"type":"VEC2"},{"bufferView":63,"componentType":5126,"count":624,"max":[8.899999618530273,3.0999999046325684,59.25],"min":[5,0.009999999776482582,54.150001525878906],"type":"VEC3"},{"bufferView":64,"componentType":5126,"count":624,"type":"VEC3"},{"bufferView":65,"componentType":5126,"count":624,"type":"VEC2"},{"bufferView":66,"componentType":5123,"count":936,"type":"SCALAR"},{"bufferView":67,"componentType":5126,"count":120,"max":[4.570000171661377,3.0999999046325684,58.790000915527344],"min":[4.5,2.299999952316284,54.61000061035156],"type":"VEC3"},{"bufferView":68,"componentType":5126,"count":120,"type":"VEC3"},{"bufferView":69,"componentType":5126,"count":120,"type":"VEC2"},{"bufferView":70,"componentType":5126,"count":72,"max":[11,1.100000023841858,59.29999923706055],"min":[4.5,0.05000000074505806,54.099998474121094],"type":"VEC3"},{"bufferView":71,"componentType":5126,"count":72,"type":"VEC3"},{"bufferView":72,"componentType":5126,"count":72,"type":"VEC2"},{"bufferView":73,"componentType":5126,"count":552,"max":[11.420000076293945,4.199999809265137,59.459999084472656],"min":[1.2400000095367432,0,53.939998626708984],"type":"VEC3"},{"bufferView":74,"componentType":5126,"count":552,"type":"VEC3"},{"bufferView":75,"componentType":5126,"count":552,"type":"VEC2"},{"bufferView":76,"componentType":5123,"count":828,"type":"SCALAR"},{"bufferView":77,"componentType":5126,"count":4,"max":[11.789999961853027,0.006000000052154064,59],"min":[10.890000343322754,0.006000000052154064,57.849998474121094],"type":"VEC3"},{"bufferView":78,"componentType":5126,"count":4,"type":"VEC3"},{"bufferView":79,"componentType":5126,"count":4,"type":"VEC2"}],"bufferViews":[{"buffer":0,"byteLength":72,"byteOffset":0,"target":34963},{"buffer":0,"byteLength":216,"byteOffset":72,"target":34963},{"buffer":0,"byteLength":576,"byteOffset":288,"target":34963},{"buffer":0,"byteLength":144,"byteOffset":864,"target":34963},{"buffer":0,"byteLength":1512,"byteOffset":1008,"target":34963},{"buffer":0,"byteLength":12,"byteOffset":2520,"target":34963},{"buffer":0,"byteLength":360,"byteOffset":2532,"target":34963},{"buffer":0,"byteLength":288,"byteOffset":2892,"target":34963},{"buffer":0,"byteLength":2520,"byteOffset":3180,"target":34963},{"buffer":0,"byteLength":504,"byteOffset":5700,"target":34963},{"buffer":0,"byteLength":576,"byteOffset":6204,"target":34962,"byteStride":12},{"buffer":0,"byteLength":576,"byteOffset":6780,"target":34962,"byteStride":12},{"buffer":0,"byteLength":384,"byteOffset":7356,"target":34962,"byteStride":8},{"buffer":0,"byteLength":288,"byteOffset":7740,"target":34962,"byteStride":12},{"buffer":0,"byteLength":288,"byteOffset":8028,"target":34962,"byteStride":12},{"buffer":0,"byteLength":192,"byteOffset":8316,"target":34962,"byteStride":8},{"buffer":0,"byteLength":14400,"byteOffset":8508,"target":34962,"byteStride":12},{"buffer":0,"byteLength":14400,"byteOffset":22908,"target":34962,"byteStride":12},{"buffer":0,"byteLength":9600,"byteOffset":37308,"target":34962,"byteStride":8},{"buffer":0,"byteLength":3600,"byteOffset":46908,"target":34963},{"buffer":0,"byteLength":576,"byteOffset":50508,"target":34962,"byteStride":12},{"buffer":0,"byteLength":576,"byteOffset":51084,"target":34962,"byteStride":12},{"buffer":0,"byteLength":384,"byteOffset":51660,"target":34962,"byteStride":8},{"buffer":0,"byteLength":576,"byteOffset":52044,"target":34962,"byteStride":12},{"buffer":0,"byteLength":576,"byteOffset":52620,"target":34962,"byteStride":12},{"buffer":0,"byteLength":384,"byteOffset":53196,"target":34962,"byteStride":8},{"buffer":0,"byteLength":288,"byteOffset":53580,"target":34962,"byteStride":12},{"buffer":0,"byteLength":288,"byteOffset":53868,"target":34962,"byteStride":12},{"buffer":0,"byteLength":192,"byteOffset":54156,"target":34962,"byteStride":8},{"buffer":0,"byteLength":1152,"byteOffset":54348,"target":34962,"byteStride":12},{"buffer":0,"byteLength":1152,"byteOffset":55500,"target":34962,"byteStride":12},{"buffer":0,"byteLength":768,"byteOffset":56652,"target":34962,"byteStride":8},{"buffer":0,"byteLength":2304,"byteOffset":57420,"target":34962,"byteStride":12},{"buffer":0,"byteLength":2304,"byteOffset":59724,"target":34962,"byteStride":12},{"buffer":0,"byteLength":1536,"byteOffset":62028,"target":34962,"byteStride":8},{"buffer":0,"byteLength":576,"byteOffset":63564,"target":34962,"byteStride":12},{"buffer":0,"byteLength":576,"byteOffset":64140,"target":34962,"byteStride":12},{"buffer":0,"byteLength":384,"byteOffset":64716,"target":34962,"byteStride":8},{"buffer":0,"byteLength":6048,"byteOffset":65100,"target":34962,"byteStride":12},{"buffer":0,"byteLength":6048,"byteOffset":71148,"target":34962,"byteStride":12},{"buffer":0,"byteLength":4032,"byteOffset":77196,"target":34962,"byteStride":8},{"buffer":0,"byteLength":10080,"byteOffset":81228,"target":34962,"byteStride":12},{"buffer":0,"byteLength":10080,"byteOffset":91308,"target":34962,"byteStride":12},{"buffer":0,"byteLength":6720,"byteOffset":101388,"target":34962,"byteStride":8},{"buffer":0,"byteLength":1152,"byteOffset":108108,"target":34962,"byteStride":12},{"buffer":0,"byteLength":1152,"byteOffset":109260,"target":34962,"byteStride":12},{"buffer":0,"byteLength":768,"byteOffset":110412,"target":34962,"byteStride":8},{"buffer":0,"byteLength":2016,"byteOffset":111180,"target":34962,"byteStride":12},{"buffer":0,"byteLength":2016,"byteOffset":113196,"target":34962,"byteStride":12},{"buffer":0,"byteLength":1344,"byteOffset":115212,"target":34962,"byteStride":8},{"buffer":0,"byteLength":1152,"byteOffset":116556,"target":34962,"byteStride":12},{"buffer":0,"byteLength":1152,"byteOffset":117708,"target":34962,"byteStride":12},{"buffer":0,"byteLength":768,"byteOffset":118860,"target":34962,"byteStride":8},{"buffer":0,"byteLength":576,"byteOffset":119628,"target":34962,"byteStride":12},{"buffer":0,"byteLength":576,"byteOffset":120204,"target":34962,"byteStride":12},{"buffer":0,"byteLength":384,"byteOffset":120780,"target":34962,"byteStride":8},{"buffer":0,"byteLength":3744,"byteOffset":121164,"target":34962,"byteStride":12},{"buffer":0,"byteLength":3744,"byteOffset":124908,"target":34962,"byteStride":12},{"buffer":0,"byteLength":2496,"byteOffset":128652,"target":34962,"byteStride":8},{"buffer":0,"byteLength":936,"byteOffset":131148,"target":34963},{"buffer":0,"byteLength":2304,"byteOffset":132084,"target":34962,"byteStride":12},{"buffer":0,"byteLength":2304,"byteOffset":134388,"target":34962,"byteStride":12},{"buffer":0,"byteLength":1536,"byteOffset":136692,"target":34962,"byteStride":8},{"buffer":0,"byteLength":7488,"byteOffset":138228,"target":34962,"byteStride":12},{"buffer":0,"byteLength":7488,"byteOffset":145716,"target":34962,"byteStride":12},{"buffer":0,"byteLength":4992,"byteOffset":153204,"target":34962,"byteStride":8},{"buffer":0,"byteLength":1872,"byteOffset":158196,"target":34963},{"buffer":0,"byteLength":1440,"byteOffset":160068,"target":34962,"byteStride":12},{"buffer":0,"byteLength":1440,"byteOffset":161508,"target":34962,"byteStride":12},{"buffer":0,"byteLength":960,"byteOffset":162948,"target":34962,"byteStride":8},{"buffer":0,"byteLength":864,"byteOffset":163908,"target":34962,"byteStride":12},{"buffer":0,"byteLength":864,"byteOffset":164772,"target":34962,"byteStride":12},{"buffer":0,"byteLength":576,"byteOffset":165636,"target":34962,"byteStride":8},{"buffer":0,"byteLength":6624,"byteOffset":166212,"target":34962,"byteStride":12},{"buffer":0,"byteLength":6624,"byteOffset":172836,"target":34962,"byteStride":12},{"buffer":0,"byteLength":4416,"byteOffset":179460,"target":34962,"byteStride":8},{"buffer":0,"byteLength":1656,"byteOffset":183876,"target":34963},{"buffer":0,"byteLength":48,"byteOffset":185532,"target":34962,"byteStride":12},{"buffer":0,"byteLength":48,"byteOffset":185580,"target":34962,"byteStride":12},{"buffer":0,"byteLength":32,"byteOffset":185628,"target":34962,"byteStride":8}],"buffers":[{"byteLength":185660,"uri":"shop_hardware_paint.bin"}],"materials":[{"name":"M_metal_b","normalTexture":{"index":0,"scale":0.3499999940395355},"pbrMetallicRoughness":{"baseColorTexture":{"index":1},"metallicFactor":0.8999999761581421,"metallicRoughnessTexture":{"index":2}}},{"name":"M_cast_iron_b","normalTexture":{"index":3,"scale":0.3499999940395355},"pbrMetallicRoughness":{"baseColorTexture":{"index":4},"metallicFactor":0.3499999940395355,"metallicRoughnessTexture":{"index":5}}},{"alphaMode":"BLEND","doubleSided":true,"name":"M_glassish","normalTexture":{"index":6,"scale":0.550000011920929},"pbrMetallicRoughness":{"baseColorFactor":[0.7599999904632568,0.8500000238418579,0.8899999856948853,0.1599999964237213],"metallicFactor":0,"metallicRoughnessTexture":{"index":7}}},{"name":"M_plywood_b","normalTexture":{"index":8,"scale":0.3499999940395355},"pbrMetallicRoughness":{"baseColorTexture":{"index":9},"metallicFactor":0,"metallicRoughnessTexture":{"index":10}}},{"name":"M_soot_b","normalTexture":{"index":11,"scale":0.3499999940395355},"pbrMetallicRoughness":{"baseColorTexture":{"index":12},"metallicFactor":0,"metallicRoughnessTexture":{"index":13}}},{"name":"M_trim_b","normalTexture":{"index":14,"scale":0.3499999940395355},"pbrMetallicRoughness":{"baseColorTexture":{"index":15},"metallicFactor":0,"metallicRoughnessTexture":{"index":16}}},{"alphaMode":"BLEND","doubleSided":true,"name":"M_fx_scuff","normalTexture":{"index":17,"scale":0.2800000011920929},"pbrMetallicRoughness":{"baseColorTexture":{"index":18},"metallicFactor":0,"metallicRoughnessTexture":{"index":19}}},{"name":"M_plaster_b","normalTexture":{"index":20,"scale":0.3499999940395355},"pbrMetallicRoughness":{"baseColorTexture":{"index":21},"metallicFactor":0,"metallicRoughnessTexture":{"index":22}}},{"name":"M_plaster_stained_b","normalTexture":{"index":23,"scale":0.3499999940395355},"pbrMetallicRoughness":{"baseColorTexture":{"index":24},"metallicFactor":0,"metallicRoughnessTexture":{"index":25}}},{"name":"M_concrete_b","normalTexture":{"index":26,"scale":0.3499999940395355},"pbrMetallicRoughness":{"baseColorTexture":{"index":27},"metallicFactor":0,"metallicRoughnessTexture":{"index":28}}},{"name":"M_book_teal","normalTexture":{"index":29,"scale":0.3499999940395355},"pbrMetallicRoughness":{"baseColorTexture":{"index":30},"metallicFactor":0,"metallicRoughnessTexture":{"index":31}}},{"name":"M_brass_bright","normalTexture":{"index":32,"scale":0.3499999940395355},"pbrMetallicRoughness":{"baseColorTexture":{"index":33},"metallicFactor":0.8500000238418579,"metallicRoughnessTexture":{"index":34}}},{"name":"M_brass_dull","normalTexture":{"index":35,"scale":0.3499999940395355},"pbrMetallicRoughness":{"baseColorTexture":{"index":36},"metallicFactor":0.30000001192092896,"metallicRoughnessTexture":{"index":37}}},{"name":"M_countertop_b","normalTexture":{"index":38,"scale":0.3499999940395355},"pbrMetallicRoughness":{"baseColorTexture":{"index":39},"metallicFactor":0,"metallicRoughnessTexture":{"index":40}}},{"name":"M_fabric_green_b","normalTexture":{"index":41,"scale":0.3499999940395355},"pbrMetallicRoughness":{"baseColorTexture":{"index":42},"metallicFactor":0,"metallicRoughnessTexture":{"index":43}}},{"name":"M_oak_quartered","normalTexture":{"index":44,"scale":0.3499999940395355},"pbrMetallicRoughness":{"baseColorTexture":{"index":45},"metallicFactor":0,"metallicRoughnessTexture":{"index":46}}},{"name":"M_paper_b","normalTexture":{"index":47,"scale":0.3499999940395355},"pbrMetallicRoughness":{"baseColorTexture":{"index":48},"metallicFactor":0,"metallicRoughnessTexture":{"index":49}}},{"name":"M_timber_b","normalTexture":{"index":50,"scale":0.3499999940395355},"pbrMetallicRoughness":{"baseColorTexture":{"index":51},"metallicFactor":0,"metallicRoughnessTexture":{"index":52}}},{"name":"M_wood_dark_b","normalTexture":{"index":53,"scale":0.3499999940395355},"pbrMetallicRoughness":{"baseColorTexture":{"index":54},"metallicFactor":0,"metallicRoughnessTexture":{"index":55}}},{"name":"M_wainscot_b","normalTexture":{"index":56,"scale":0.3499999940395355},"pbrMetallicRoughness":{"baseColorTexture":{"index":57},"metallicFactor":0,"metallicRoughnessTexture":{"index":58}}},{"name":"M_lacquer_red_b","normalTexture":{"index":59,"scale":0.3499999940395355},"pbrMetallicRoughness":{"baseColorTexture":{"index":60},"metallicFactor":0,"metallicRoughnessTexture":{"index":61}}},{"name":"M_safety_orange_b","normalTexture":{"index":62,"scale":0.3499999940395355},"pbrMetallicRoughness":{"baseColorTexture":{"index":63},"metallicFactor":0,"metallicRoughnessTexture":{"index":64}}}],"textures":[{"sampler":0,"source":0},{"sampler":0,"source":1},{"sampler":0,"source":2},{"sampler":0,"source":3},{"sampler":0,"source":4},{"sampler":0,"source":5},{"sampler":0,"source":6},{"sampler":0,"source":7},{"sampler":0,"source":8},{"sampler":0,"source":9},{"sampler":0,"source":10},{"sampler":0,"source":11},{"sampler":0,"source":12},{"sampler":0,"source":13},{"sampler":0,"source":14},{"sampler":0,"source":15},{"sampler":0,"source":16},{"sampler":0,"source":17},{"sampler":0,"source":18},{"sampler":0,"source":19},{"sampler":0,"source":20},{"sampler":0,"source":21},{"sampler":0,"source":22},{"sampler":0,"source":23},{"sampler":0,"source":24},{"sampler":0,"source":25},{"sampler":0,"source":26},{"sampler":0,"source":27},{"sampler":0,"source":28},{"sampler":0,"source":29},{"sampler":0,"source":30},{"sampler":0,"source":31},{"sampler":0,"source":32},{"sampler":0,"source":33},{"sampler":0,"source":34},{"sampler":0,"source":35},{"sampler":0,"source":36},{"sampler":0,"source":37},{"sampler":0,"source":38},{"sampler":0,"source":39},{"sampler":0,"source":40},{"sampler":0,"source":41},{"sampler":0,"source":42},{"sampler":0,"source":43},{"sampler":0,"source":44},{"sampler":0,"source":45},{"sampler":0,"source":46},{"sampler":0,"source":47},{"sampler":0,"source":48},{"sampler":0,"source":49},{"sampler":0,"source":50},{"sampler":0,"source":51},{"sampler":0,"source":52},{"sampler":0,"source":53},{"sampler":0,"source":54},{"sampler":0,"source":55},{"sampler":0,"source":56},{"sampler":0,"source":57},{"sampler":0,"source":58},{"sampler":0,"source":59},{"sampler":0,"source":60},{"sampler":0,"source":61},{"sampler":0,"source":62},{"sampler":0,"source":63},{"sampler":0,"source":64}],"images":[{"mimeType":"image/png","name":"T_ai_materials_metal_b_normal","uri":"../textures/T_ai_materials_metal_b_normal.png"},{"mimeType":"image/png","name":"T_ai_materials_metal_b_albedo","uri":"../textures/T_ai_materials_metal_b_albedo.png"},{"mimeType":"image/png","name":"T_ai_materials_metal_b_rough","uri":"../textures/T_ai_materials_metal_b_rough.png"},{"mimeType":"image/png","name":"T_ai_materials_cast_iron_b_normal","uri":"../textures/T_ai_materials_cast_iron_b_normal.png"},{"mimeType":"image/png","name":"T_ai_materials_cast_iron_b_albedo","uri":"../textures/T_ai_materials_cast_iron_b_albedo.png"},{"mimeType":"image/png","name":"T_ai_materials_cast_iron_b_rough","uri":"../textures/T_ai_materials_cast_iron_b_rough.png"},{"mimeType":"image/png","name":"T_glass_normal","uri":"../textures/T_glass_normal.png"},{"mimeType":"image/png","name":"T_glass_rough","uri":"../textures/T_glass_rough.png"},{"mimeType":"image/png","name":"T_ai_materials_plywood_b_normal","uri":"../textures/T_ai_materials_plywood_b_normal.png"},{"mimeType":"image/png","name":"T_ai_materials_plywood_b_albedo","uri":"../textures/T_ai_materials_plywood_b_albedo.png"},{"mimeType":"image/png","name":"T_ai_materials_plywood_b_rough","uri":"../textures/T_ai_materials_plywood_b_rough.png"},{"mimeType":"image/png","name":"T_ai_materials_soot_b_normal","uri":"../textures/T_ai_materials_soot_b_normal.png"},{"mimeType":"image/png","name":"T_ai_materials_soot_b_albedo","uri":"../textures/T_ai_materials_soot_b_albedo.png"},{"mimeType":"image/png","name":"T_ai_materials_soot_b_rough","uri":"../textures/T_ai_materials_soot_b_rough.png"},{"mimeType":"image/png","name":"T_ai_materials_trim_b_normal","uri":"../textures/T_ai_materials_trim_b_normal.png"},{"mimeType":"image/png","name":"T_ai_materials_trim_b_albedo","uri":"../textures/T_ai_materials_trim_b_albedo.png"},{"mimeType":"image/png","name":"T_ai_materials_trim_b_rough","uri":"../textures/T_ai_materials_trim_b_rough.png"},{"mimeType":"image/png","name":"T_fx_fx_scuff_normal","uri":"../textures/T_fx_fx_scuff_normal.png"},{"mimeType":"image/png","name":"T_fx_fx_scuff","uri":"../textures/T_fx_fx_scuff.png"},{"mimeType":"image/png","name":"T_fx_fx_scuff_rough","uri":"../textures/T_fx_fx_scuff_rough.png"},{"mimeType":"image/png","name":"T_ai_materials_plaster_b_normal","uri":"../textures/T_ai_materials_plaster_b_normal.png"},{"mimeType":"image/png","name":"T_ai_materials_plaster_b_albedo","uri":"../textures/T_ai_materials_plaster_b_albedo.png"},{"mimeType":"image/png","name":"T_ai_materials_plaster_b_rough","uri":"../textures/T_ai_materials_plaster_b_rough.png"},{"mimeType":"image/png","name":"T_ai_materials_plaster_stained_b_normal","uri":"../textures/T_ai_materials_plaster_stained_b_normal.png"},{"mimeType":"image/png","name":"T_ai_materials_plaster_stained_b_albedo","uri":"../textures/T_ai_materials_plaster_stained_b_albedo.png"},{"mimeType":"image/png","name":"T_ai_materials_plaster_stained_b_rough","uri":"../textures/T_ai_materials_plaster_stained_b_rough.png"},{"mimeType":"image/png","name":"T_ai_materials_concrete_b_normal","uri":"../textures/T_ai_materials_concrete_b_normal.png"},{"mimeType":"image/png","name":"T_ai_materials_concrete_b_albedo","uri":"../textures/T_ai_materials_concrete_b_albedo.png"},{"mimeType":"image/png","name":"T_ai_materials_concrete_b_rough","uri":"../textures/T_ai_materials_concrete_b_rough.png"},{"mimeType":"image/png","name":"T_library_furniture_book_teal_normal","uri":"../textures/T_library_furniture_book_teal_normal.png"},{"mimeType":"image/png","name":"T_library_furniture_book_teal_albedo","uri":"../textures/T_library_furniture_book_teal_albedo.png"},{"mimeType":"image/png","name":"T_library_furniture_book_teal_rough","uri":"../textures/T_library_furniture_book_teal_rough.png"},{"mimeType":"image/png","name":"T_ai_materials_brass_bright_normal","uri":"../textures/T_ai_materials_brass_bright_normal.png"},{"mimeType":"image/png","name":"T_ai_materials_brass_bright_albedo","uri":"../textures/T_ai_materials_brass_bright_albedo.png"},{"mimeType":"image/png","name":"T_ai_materials_brass_bright_rough","uri":"../textures/T_ai_materials_brass_bright_rough.png"},{"mimeType":"image/png","name":"T_ai_materials_brass_normal","uri":"../textures/T_ai_materials_brass_normal.png"},{"mimeType":"image/png","name":"T_ai_materials_brass_albedo","uri":"../textures/T_ai_materials_brass_albedo.png"},{"mimeType":"image/png","name":"T_ai_materials_brass_rough","uri":"../textures/T_ai_materials_brass_rough.png"},{"mimeType":"image/png","name":"T_ai_materials_countertop_b_normal","uri":"../textures/T_ai_materials_countertop_b_normal.png"},{"mimeType":"image/png","name":"T_ai_materials_countertop_b_albedo","uri":"../textures/T_ai_materials_countertop_b_albedo.png"},{"mimeType":"image/png","name":"T_ai_materials_countertop_b_rough","uri":"../textures/T_ai_materials_countertop_b_rough.png"},{"mimeType":"image/png","name":"T_ai_materials_fabric_green_b_normal","uri":"../textures/T_ai_materials_fabric_green_b_normal.png"},{"mimeType":"image/png","name":"T_ai_materials_fabric_green_b_albedo","uri":"../textures/T_ai_materials_fabric_green_b_albedo.png"},{"mimeType":"image/png","name":"T_ai_materials_fabric_green_b_rough","uri":"../textures/T_ai_materials_fabric_green_b_rough.png"},{"mimeType":"image/png","name":"T_ai_materials_oak_quartered_normal","uri":"../textures/T_ai_materials_oak_quartered_normal.png"},{"mimeType":"image/png","name":"T_ai_materials_oak_quartered_albedo","uri":"../textures/T_ai_materials_oak_quartered_albedo.png"},{"mimeType":"image/png","name":"T_ai_materials_oak_quartered_rough","uri":"../textures/T_ai_materials_oak_quartered_rough.png"},{"mimeType":"image/png","name":"T_ai_materials_paper_b_normal","uri":"../textures/T_ai_materials_paper_b_normal.png"},{"mimeType":"image/png","name":"T_ai_materials_paper_b_albedo","uri":"../textures/T_ai_materials_paper_b_albedo.png"},{"mimeType":"image/png","name":"T_ai_materials_paper_b_rough","uri":"../textures/T_ai_materials_paper_b_rough.png"},{"mimeType":"image/png","name":"T_ai_materials_timber_b_normal","uri":"../textures/T_ai_materials_timber_b_normal.png"},{"mimeType":"image/png","name":"T_ai_materials_timber_b_albedo","uri":"../textures/T_ai_materials_timber_b_albedo.png"},{"mimeType":"image/png","name":"T_ai_materials_timber_b_rough","uri":"../textures/T_ai_materials_timber_b_rough.png"},{"mimeType":"image/png","name":"T_ai_materials_wood_dark_b_normal","uri":"../textures/T_ai_materials_wood_dark_b_normal.png"},{"mimeType":"image/png","name":"T_ai_materials_wood_dark_b_albedo","uri":"../textures/T_ai_materials_wood_dark_b_albedo.png"},{"mimeType":"image/png","name":"T_ai_materials_wood_dark_b_rough","uri":"../textures/T_ai_materials_wood_dark_b_rough.png"},{"mimeType":"image/png","name":"T_ai_materials_wainscot_b_normal","uri":"../textures/T_ai_materials_wainscot_b_normal.png"},{"mimeType":"image/png","name":"T_ai_materials_wainscot_b_albedo","uri":"../textures/T_ai_materials_wainscot_b_albedo.png"},{"mimeType":"image/png","name":"T_ai_materials_wainscot_b_rough","uri":"../textures/T_ai_materials_wainscot_b_rough.png"},{"mimeType":"image/png","name":"T_ai_materials_lacquer_red_b_normal","uri":"../textures/T_ai_materials_lacquer_red_b_normal.png"},{"mimeType":"image/png","name":"T_ai_materials_lacquer_red_b_albedo","uri":"../textures/T_ai_materials_lacquer_red_b_albedo.png"},{"mimeType":"image/png","name":"T_ai_materials_lacquer_red_b_rough","uri":"../textures/T_ai_materials_lacquer_red_b_rough.png"},{"mimeType":"image/png","name":"T_ai_materials_safety_orange_b_normal","uri":"../textures/T_ai_materials_safety_orange_b_normal.png"},{"mimeType":"image/png","name":"T_ai_materials_safety_orange_b_albedo","uri":"../textures/T_ai_materials_safety_orange_b_albedo.png"},{"mimeType":"image/png","name":"T_ai_materials_safety_orange_b_rough","uri":"../textures/T_ai_materials_safety_orange_b_rough.png"}],"samplers":[{"magFilter":9729,"minFilter":9987}]}
