{
  "accessors": [
    {
      "bufferView": 0,
      "componentType": 5123,
      "count": 360,
      "type": "SCALAR"
    },
    {
      "bufferView": 1,
      "componentType": 5123,
      "count": 36,
      "type": "SCALAR"
    },
    {
      "bufferView": 2,
      "componentType": 5123,
      "count": 108,
      "type": "SCALAR"
    },
    {
      "bufferView": 3,
      "componentType": 5123,
      "count": 72,
      "type": "SCALAR"
    },
    {
      "bufferView": 4,
      "componentType": 5123,
      "count": 180,
      "type": "SCALAR"
    },
    {
      "bufferView": 5,
      "componentType": 5123,
      "count": 324,
      "type": "SCALAR"
    },
    {
      "bufferView": 6,
      "componentType": 5123,
      "count": 12,
      "type": "SCALAR"
    },
    {
      "bufferView": 7,
      "componentType": 5123,
      "count": 1260,
      "type": "SCALAR"
    },
    {
      "bufferView": 8,
      "componentType": 5123,
      "count": 396,
      "type": "SCALAR"
    },
    {
      "bufferView": 9,
      "componentType": 5123,
      "count": 1224,
      "type": "SCALAR"
    },
    {
      "bufferView": 10,
      "componentType": 5123,
      "count": 252,
      "type": "SCALAR"
    },
    {
      "bufferView": 11,
      "componentType": 5123,
      "count": 216,
      "type": "SCALAR"
    },
    {
      "bufferView": 12,
      "componentType": 5123,
      "count": 1296,
      "type": "SCALAR"
    },
    {
      "bufferView": 13,
      "componentType": 5123,
      "count": 684,
      "type": "SCALAR"
    },
    {
      "bufferView": 14,
      "componentType": 5123,
      "count": 1692,
      "type": "SCALAR"
    },
    {
      "bufferView": 15,
      "componentType": 5123,
      "count": 468,
      "type": "SCALAR"
    },
    {
      "bufferView": 16,
      "componentType": 5123,
      "count": 1188,
      "type": "SCALAR"
    },
    {
      "bufferView": 17,
      "componentType": 5123,
      "count": 864,
      "type": "SCALAR"
    },
    {
      "bufferView": 18,
      "componentType": 5123,
      "count": 1584,
      "type": "SCALAR"
    },
    {
      "bufferView": 19,
      "componentType": 5123,
      "count": 1116,
      "type": "SCALAR"
    },
    {
      "bufferView": 20,
      "componentType": 5126,
      "count": 1436,
      "max": [
        66.45050048828125,
        47.95733642578125,
        85.4610595703125
      ],
      "min": [
        -87.36209106445312,
        18.63331413269043,
        -47.48106384277344
      ],
      "type": "VEC3"
    },
    {
      "bufferView": 21,
      "componentType": 5126,
      "count": 1436,
      "type": "VEC3"
    },
    {
      "bufferView": 22,
      "componentType": 5126,
      "count": 1436,
      "type": "VEC2"
    },
    {
      "bufferView": 23,
      "componentType": 5123,
      "count": 2040,
      "type": "SCALAR"
    },
    {
      "bufferView": 24,
      "componentType": 5126,
      "count": 1083,
      "max": [
        66.72677612304688,
        48.727779388427734,
        86.26815032958984
      ],
      "min": [
        -87.84832763671875,
        17.78624153137207,
        -47.58292007446289
      ],
      "type": "VEC3"
    },
    {
      "bufferView": 25,
      "componentType": 5126,
      "count": 1083,
      "type": "VEC3"
    },
    {
      "bufferView": 26,
      "componentType": 5126,
      "count": 1083,
      "type": "VEC2"
    },
    {
      "bufferView": 27,
      "componentType": 5123,
      "count": 2040,
      "type": "SCALAR"
    },
    {
      "bufferView": 28,
      "componentType": 5126,
      "count": 1975,
      "max": [
        7.041999816894531,
        0.07599999755620956,
        12.192000389099121
      ],
      "min": [
        -6.7220001220703125,
        -0.00800000037997961,
        10.128999710083008
      ],
      "type": "VEC3"
    },
    {
      "bufferView": 29,
      "componentType": 5126,
      "count": 1975,
      "type": "VEC3"
    },
    {
      "bufferView": 30,
      "componentType": 5126,
      "count": 1975,
      "type": "VEC2"
    },
    {
      "bufferView": 31,
      "componentType": 5123,
      "count": 3084,
      "type": "SCALAR"
    },
    {
      "bufferView": 32,
      "componentType": 5126,
      "count": 172,
      "max": [
        4.974999904632568,
        0.057999998331069946,
        11.244999885559082
      ],
      "min": [
        -3.8499999046325684,
        -0.017999999225139618,
        10.194999694824219
      ],
      "type": "VEC3"
    },
    {
      "bufferView": 33,
      "componentType": 5126,
      "count": 172,
      "type": "VEC3"
    },
    {
      "bufferView": 34,
      "componentType": 5126,
      "count": 172,
      "type": "VEC2"
    },
    {
      "bufferView": 35,
      "componentType": 5123,
      "count": 312,
      "type": "SCALAR"
    },
    {
      "bufferView": 36,
      "componentType": 5126,
      "count": 8,
      "max": [
        -12.574657440185547,
        0.004000000189989805,
        14.240087509155273
      ],
      "min": [
        -13.659725189208984,
        0.004000000189989805,
        12.950392723083496
      ],
      "type": "VEC3"
    },
    {
      "bufferView": 37,
      "componentType": 5126,
      "count": 8,
      "type": "VEC3"
    },
    {
      "bufferView": 38,
      "componentType": 5126,
      "count": 8,
      "type": "VEC2"
    },
    {
      "bufferView": 39,
      "componentType": 5126,
      "count": 2996,
      "max": [
        12.557592391967773,
        0.18648648262023926,
        13.677594184875488
      ],
      "min": [
        -3.7662856578826904,
        0,
        10.287211418151855
      ],
      "type": "VEC3"
    },
    {
      "bufferView": 40,
      "componentType": 5126,
      "count": 2996,
      "type": "VEC3"
    },
    {
      "bufferView": 41,
      "componentType": 5126,
      "count": 2996,
      "type": "VEC2"
    },
    {
      "bufferView": 42,
      "componentType": 5123,
      "count": 5664,
      "type": "SCALAR"
    },
    {
      "bufferView": 43,
      "componentType": 5126,
      "count": 48,
      "max": [
        -12.663729667663574,
        0.33000001311302185,
        14.147354125976562
      ],
      "min": [
        -13.564282417297363,
        0,
        13.042811393737793
      ],
      "type": "VEC3"
    },
    {
      "bufferView": 44,
      "componentType": 5126,
      "count": 48,
      "type": "VEC3"
    },
    {
      "bufferView": 45,
      "componentType": 5126,
      "count": 48,
      "type": "VEC2"
    },
    {
      "bufferView": 46,
      "componentType": 5123,
      "count": 72,
      "type": "SCALAR"
    },
    {
      "bufferView": 47,
      "componentType": 5126,
      "count": 25143,
      "max": [
        98.63043212890625,
        53.36522674560547,
        93.1784896850586
      ],
      "min": [
        -103.78043365478516,
        0,
        -55.661800384521484
      ],
      "type": "VEC3"
    },
    {
      "bufferView": 48,
      "componentType": 5126,
      "count": 25143,
      "type": "VEC3"
    },
    {
      "bufferView": 49,
      "componentType": 5126,
      "count": 25143,
      "type": "VEC2"
    },
    {
      "bufferView": 50,
      "componentType": 5123,
      "count": 38520,
      "type": "SCALAR"
    },
    {
      "bufferView": 51,
      "componentType": 5126,
      "count": 72,
      "max": [
        1.4049999713897705,
        0.25546547770500183,
        14.1074857711792
      ],
      "min": [
        -13.524415016174316,
        0.019999999552965164,
        10.605999946594238
      ],
      "type": "VEC3"
    },
    {
      "bufferView": 52,
      "componentType": 5126,
      "count": 72,
      "type": "VEC3"
    },
    {
      "bufferView": 53,
      "componentType": 5126,
      "count": 72,
      "type": "VEC2"
    },
    {
      "bufferView": 54,
      "componentType": 5123,
      "count": 108,
      "type": "SCALAR"
    },
    {
      "bufferView": 55,
      "componentType": 5126,
      "count": 1328,
      "max": [
        94.191162109375,
        50.61649703979492,
        91.31117248535156
      ],
      "min": [
        -90.36618041992188,
        0,
        -46.73011779785156
      ],
      "type": "VEC3"
    },
    {
      "bufferView": 56,
      "componentType": 5126,
      "count": 1328,
      "type": "VEC3"
    },
    {
      "bufferView": 57,
      "componentType": 5126,
      "count": 1328,
      "type": "VEC2"
    },
    {
      "bufferView": 58,
      "componentType": 5123,
      "count": 2424,
      "type": "SCALAR"
    },
    {
      "bufferView": 59,
      "componentType": 5126,
      "count": 744,
      "max": [
        108,
        0.03400000184774399,
        82
      ],
      "min": [
        -112,
        -0.30000001192092896,
        -66
      ],
      "type": "VEC3"
    },
    {
      "bufferView": 60,
      "componentType": 5126,
      "count": 744,
      "type": "VEC3"
    },
    {
      "bufferView": 61,
      "componentType": 5126,
      "count": 744,
      "type": "VEC2"
    },
    {
      "bufferView": 62,
      "componentType": 5126,
      "count": 168,
      "max": [
        81.75776672363281,
        33.47999954223633,
        48.336761474609375
      ],
      "min": [
        -63.89889907836914,
        14.729999542236328,
        -1.141142725944519
      ],
      "type": "VEC3"
    },
    {
      "bufferView": 63,
      "componentType": 5126,
      "count": 168,
      "type": "VEC3"
    },
    {
      "bufferView": 64,
      "componentType": 5126,
      "count": 168,
      "type": "VEC2"
    },
    {
      "bufferView": 65,
      "componentType": 5126,
      "count": 240,
      "max": [
        58,
        18.200000762939453,
        38.20000076293945
      ],
      "min": [
        -58,
        5.940000057220459,
        -24.5
      ],
      "type": "VEC3"
    },
    {
      "bufferView": 66,
      "componentType": 5126,
      "count": 240,
      "type": "VEC3"
    },
    {
      "bufferView": 67,
      "componentType": 5126,
      "count": 240,
      "type": "VEC2"
    },
    {
      "bufferView": 68,
      "componentType": 5126,
      "count": 3696,
      "max": [
        104.19999694824219,
        47.635311126708984,
        102.19999694824219
      ],
      "min": [
        -108.19999694824219,
        6.800000190734863,
        -62.20000076293945
      ],
      "type": "VEC3"
    },
    {
      "bufferView": 69,
      "componentType": 5126,
      "count": 3696,
      "type": "VEC3"
    },
    {
      "bufferView": 70,
      "componentType": 5126,
      "count": 3696,
      "type": "VEC2"
    },
    {
      "bufferView": 71,
      "componentType": 5123,
      "count": 5544,
      "type": "SCALAR"
    },
    {
      "bufferView": 72,
      "componentType": 5126,
      "count": 1056,
      "max": [
        86,
        40.7599983215332,
        68
      ],
      "min": [
        -108,
        0,
        -58
      ],
      "type": "VEC3"
    },
    {
      "bufferView": 73,
      "componentType": 5126,
      "count": 1056,
      "type": "VEC3"
    },
    {
      "bufferView": 74,
      "componentType": 5126,
      "count": 1056,
      "type": "VEC2"
    },
    {
      "bufferView": 75,
      "componentType": 5126,
      "count": 840,
      "max": [
        62,
        6.199999809265137,
        38.20000076293945
      ],
      "min": [
        -62,
        -0.019999999552965164,
        -24.5
      ],
      "type": "VEC3"
    },
    {
      "bufferView": 76,
      "componentType": 5126,
      "count": 840,
      "type": "VEC3"
    },
    {
      "bufferView": 77,
      "componentType": 5126,
      "count": 840,
      "type": "VEC2"
    },
    {
      "bufferView": 78,
      "componentType": 5126,
      "count": 24,
      "max": [
        -15.699999809265137,
        0.17000000178813934,
        14.899999618530273
      ],
      "min": [
        -16.799999237060547,
        0.009999999776482582,
        14.350000381469727
      ],
      "type": "VEC3"
    },
    {
      "bufferView": 79,
      "componentType": 5126,
      "count": 24,
      "type": "VEC3"
    },
    {
      "bufferView": 80,
      "componentType": 5126,
      "count": 24,
      "type": "VEC2"
    },
    {
      "bufferView": 81,
      "componentType": 5126,
      "count": 216,
      "max": [
        31,
        21.65999984741211,
        38
      ],
      "min": [
        -46,
        6.539999961853027,
        -24.5
      ],
      "type": "VEC3"
    },
    {
      "bufferView": 82,
      "componentType": 5126,
      "count": 216,
      "type": "VEC3"
    },
    {
      "bufferView": 83,
      "componentType": 5126,
      "count": 216,
      "type": "VEC2"
    },
    {
      "bufferView": 84,
      "componentType": 5126,
      "count": 24,
      "max": [
        -11.600000381469727,
        2.049999952316284,
        13.600000381469727
      ],
      "min": [
        -12.300000190734863,
        0.699999988079071,
        12.899999618530273
      ],
      "type": "VEC3"
    },
    {
      "bufferView": 85,
      "componentType": 5126,
      "count": 24,
      "type": "VEC3"
    },
    {
      "bufferView": 86,
      "componentType": 5126,
      "count": 24,
      "type": "VEC2"
    },
    {
      "bufferView": 87,
      "componentType": 5126,
      "count": 456,
      "max": [
        86.43604278564453,
        53.585227966308594,
        90.32177734375
      ],
      "min": [
        -88.06322479248047,
        22.427162170410156,
        -48.338993072509766
      ],
      "type": "VEC3"
    },
    {
      "bufferView": 88,
      "componentType": 5126,
      "count": 456,
      "type": "VEC3"
    },
    {
      "bufferView": 89,
      "componentType": 5126,
      "count": 456,
      "type": "VEC2"
    },
    {
      "bufferView": 90,
      "componentType": 5126,
      "count": 3888,
      "max": [
        56.15657424926758,
        0.0730549618601799,
        17.739299774169922
      ],
      "min": [
        -56.461002349853516,
        0.00800000037997961,
        9.857537269592285
      ],
      "type": "VEC3"
    },
    {
      "bufferView": 91,
      "componentType": 5126,
      "count": 3888,
      "type": "VEC3"
    },
    {
      "bufferView": 92,
      "componentType": 5126,
      "count": 3888,
      "type": "VEC2"
    },
    {
      "bufferView": 93,
      "componentType": 5123,
      "count": 5832,
      "type": "SCALAR"
    },
    {
      "bufferView": 94,
      "componentType": 5126,
      "count": 1128,
      "max": [
        104,
        47.475311279296875,
        102
      ],
      "min": [
        -108,
        0,
        -62
      ],
      "type": "VEC3"
    },
    {
      "bufferView": 95,
      "componentType": 5126,
      "count": 1128,
      "type": "VEC3"
    },
    {
      "bufferView": 96,
      "componentType": 5126,
      "count": 1128,
      "type": "VEC2"
    },
    {
      "bufferView": 97,
      "componentType": 5126,
      "count": 984,
      "max": [
        59.599998474121094,
        0.006000000052154064,
        19.371999740600586
      ],
      "min": [
        -62,
        0,
        19.27199935913086
      ],
      "type": "VEC3"
    },
    {
      "bufferView": 98,
      "componentType": 5126,
      "count": 984,
      "type": "VEC3"
    },
    {
      "bufferView": 99,
      "componentType": 5126,
      "count": 984,
      "type": "VEC2"
    },
    {
      "bufferView": 100,
      "componentType": 5123,
      "count": 1476,
      "type": "SCALAR"
    },
    {
      "bufferView": 101,
      "componentType": 5126,
      "count": 3000,
      "max": [
        82.1077651977539,
        33.869998931884766,
        48.39676284790039
      ],
      "min": [
        -64.2489013671875,
        0,
        -24.700000762939453
      ],
      "type": "VEC3"
    },
    {
      "bufferView": 102,
      "componentType": 5126,
      "count": 3000,
      "type": "VEC3"
    },
    {
      "bufferView": 103,
      "componentType": 5126,
      "count": 3000,
      "type": "VEC2"
    },
    {
      "bufferView": 104,
      "componentType": 5123,
      "count": 4500,
      "type": "SCALAR"
    },
    {
      "bufferView": 105,
      "componentType": 5126,
      "count": 912,
      "max": [
        60.78945541381836,
        0.00800000037997961,
        22.709999084472656
      ],
      "min": [
        -53.57948684692383,
        0.0010000000474974513,
        9.199695587158203
      ],
      "type": "VEC3"
    },
    {
      "bufferView": 106,
      "componentType": 5126,
      "count": 912,
      "type": "VEC3"
    },
    {
      "bufferView": 107,
      "componentType": 5126,
      "count": 912,
      "type": "VEC2"
    },
    {
      "bufferView": 108,
      "componentType": 5123,
      "count": 1368,
      "type": "SCALAR"
    },
    {
      "bufferView": 109,
      "componentType": 5126,
      "count": 24,
      "max": [
        16,
        -0.014000000432133675,
        14.600000381469727
      ],
      "min": [
        -16,
        -0.035999998450279236,
        9.979999542236328
      ],
      "type": "VEC3"
    },
    {
      "bufferView": 110,
      "componentType": 5126,
      "count": 24,
      "type": "VEC3"
    },
    {
      "bufferView": 111,
      "componentType": 5126,
      "count": 24,
      "type": "VEC2"
    },
    {
      "bufferView": 112,
      "componentType": 5126,
      "count": 292,
      "max": [
        17.418601989746094,
        0.055973704904317856,
        14.557605743408203
      ],
      "min": [
        -15.973807334899902,
        -0.005792159587144852,
        10.028547286987305
      ],
      "type": "VEC3"
    },
    {
      "bufferView": 113,
      "componentType": 5126,
      "count": 292,
      "type": "VEC3"
    },
    {
      "bufferView": 114,
      "componentType": 5126,
      "count": 292,
      "type": "VEC2"
    },
    {
      "bufferView": 115,
      "componentType": 5123,
      "count": 438,
      "type": "SCALAR"
    },
    {
      "bufferView": 116,
      "componentType": 5126,
      "count": 1752,
      "max": [
        17.418601989746094,
        0.05197370424866676,
        14.557605743408203
      ],
      "min": [
        -15.973807334899902,
        -0.06079215928912163,
        10.028547286987305
      ],
      "type": "VEC3"
    },
    {
      "bufferView": 117,
      "componentType": 5126,
      "count": 1752,
      "type": "VEC3"
    },
    {
      "bufferView": 118,
      "componentType": 5126,
      "count": 1752,
      "type": "VEC2"
    },
    {
      "bufferView": 119,
      "componentType": 5123,
      "count": 2628,
      "type": "SCALAR"
    },
    {
      "bufferView": 120,
      "componentType": 5126,
      "count": 864,
      "max": [
        58.20000076293945,
        18.360000610351562,
        38.400001525878906
      ],
      "min": [
        -58.20000076293945,
        4.599999904632568,
        -24.700000762939453
      ],
      "type": "VEC3"
    },
    {
      "bufferView": 121,
      "componentType": 5126,
      "count": 864,
      "type": "VEC3"
    },
    {
      "bufferView": 122,
      "componentType": 5126,
      "count": 864,
      "type": "VEC2"
    },
    {
      "bufferView": 123,
      "componentType": 5126,
      "count": 576,
      "max": [
        45.400001525878906,
        27.700000762939453,
        21.899999618530273
      ],
      "min": [
        -42,
        0,
        -11.300000190734863
      ],
      "type": "VEC3"
    },
    {
      "bufferView": 124,
      "componentType": 5126,
      "count": 576,
      "type": "VEC3"
    },
    {
      "bufferView": 125,
      "componentType": 5126,
      "count": 576,
      "type": "VEC2"
    },
    {
      "bufferView": 126,
      "componentType": 5126,
      "count": 816,
      "max": [
        61.39543151855469,
        0.02500000037252903,
        22
      ],
      "min": [
        -56.56776428222656,
        0.0010000000474974513,
        9.238316535949707
      ],
      "type": "VEC3"
    },
    {
      "bufferView": 127,
      "componentType": 5126,
      "count": 816,
      "type": "VEC3"
    },
    {
      "bufferView": 128,
      "componentType": 5126,
      "count": 816,
      "type": "VEC2"
    },
    {
      "bufferView": 129,
      "componentType": 5126,
      "count": 24,
      "max": [
        15.800000190734863,
        10.279999732971191,
        28.416000366210938
      ],
      "min": [
        12.199999809265137,
        9.420000076293945,
        27.875999450683594
      ],
      "type": "VEC3"
    },
    {
      "bufferView": 130,
      "componentType": 5126,
      "count": 24,
      "type": "VEC3"
    },
    {
      "bufferView": 131,
      "componentType": 5126,
      "count": 24,
      "type": "VEC2"
    },
    {
      "bufferView": 132,
      "componentType": 5126,
      "count": 1390,
      "max": [
        20.35230827331543,
        9.380000114440918,
        33.22349548339844
      ],
      "min": [
        6.64769172668457,
        -1.0384000539779663,
        27.76099967956543
      ],
      "type": "VEC3"
    },
    {
      "bufferView": 133,
      "componentType": 5126,
      "count": 1390,
      "type": "VEC3"
    },
    {
      "bufferView": 134,
      "componentType": 5126,
      "count": 1390,
      "type": "VEC2"
    },
    {
      "bufferView": 135,
      "componentType": 5123,
      "count": 2160,
      "type": "SCALAR"
    },
    {
      "bufferView": 136,
      "componentType": 5126,
      "count": 1032,
      "max": [
        20.200000762939453,
        3.9000000953674316,
        33.25
      ],
      "min": [
        10.819999694824219,
        0.20000000298023224,
        27.055999755859375
      ],
      "type": "VEC3"
    },
    {
      "bufferView": 137,
      "componentType": 5126,
      "count": 1032,
      "type": "VEC3"
    },
    {
      "bufferView": 138,
      "componentType": 5126,
      "count": 1032,
      "type": "VEC2"
    },
    {
      "bufferView": 139,
      "componentType": 5123,
      "count": 1548,
      "type": "SCALAR"
    },
    {
      "bufferView": 140,
      "componentType": 5126,
      "count": 144,
      "max": [
        20.600000381469727,
        9.899999618530273,
        28.416000366210938
      ],
      "min": [
        6.400000095367432,
        0,
        27.615999221801758
      ],
      "type": "VEC3"
    },
    {
      "bufferView": 141,
      "componentType": 5126,
      "count": 144,
      "type": "VEC3"
    },
    {
      "bufferView": 142,
      "componentType": 5126,
      "count": 144,
      "type": "VEC2"
    },
    {
      "bufferView": 143,
      "componentType": 5126,
      "count": 312,
      "max": [
        20.600000381469727,
        9.199999809265137,
        28.416000366210938
      ],
      "min": [
        6.400000095367432,
        5.260000228881836,
        27.916000366210938
      ],
      "type": "VEC3"
    },
    {
      "bufferView": 144,
      "componentType": 5126,
      "count": 312,
      "type": "VEC3"
    },
    {
      "bufferView": 145,
      "componentType": 5126,
      "count": 312,
      "type": "VEC2"
    },
    {
      "bufferView": 146,
      "componentType": 5126,
      "count": 312,
      "max": [
        20.145000457763672,
        3.3550000190734863,
        33.25
      ],
      "min": [
        18.604999542236328,
        1.159999966621399,
        27.799999237060547
      ],
      "type": "VEC3"
    },
    {
      "bufferView": 147,
      "componentType": 5126,
      "count": 312,
      "type": "VEC3"
    },
    {
      "bufferView": 148,
      "componentType": 5126,
      "count": 312,
      "type": "VEC2"
    },
    {
      "bufferView": 149,
      "componentType": 5126,
      "count": 672,
      "max": [
        20.700000762939453,
        9.979999542236328,
        33.25
      ],
      "min": [
        6.300000190734863,
        -1.340000033378601,
        27.416000366210938
      ],
      "type": "VEC3"
    },
    {
      "bufferView": 150,
      "componentType": 5126,
      "count": 672,
      "type": "VEC3"
    },
    {
      "bufferView": 151,
      "componentType": 5126,
      "count": 672,
      "type": "VEC2"
    },
    {
      "bufferView": 152,
      "componentType": 5123,
      "count": 1008,
      "type": "SCALAR"
    },
    {
      "bufferView": 153,
      "componentType": 5126,
      "count": 3744,
      "max": [
        20.600000381469727,
        9.199999809265137,
        33.25
      ],
      "min": [
        6.400000095367432,
        -1.340000033378601,
        27.799999237060547
      ],
      "type": "VEC3"
    },
    {
      "bufferView": 154,
      "componentType": 5126,
      "count": 3744,
      "type": "VEC3"
    },
    {
      "bufferView": 155,
      "componentType": 5126,
      "count": 3744,
      "type": "VEC2"
    },
    {
      "bufferView": 156,
      "componentType": 5123,
      "count": 5616,
      "type": "SCALAR"
    },
    {
      "bufferView": 157,
      "componentType": 5126,
      "count": 72,
      "max": [
        20.059999465942383,
        0.20000000298023224,
        32.2599983215332
      ],
      "min": [
        18.690000534057617,
        -1.340000033378601,
        27.979999542236328
      ],
      "type": "VEC3"
    },
    {
      "bufferView": 158,
      "componentType": 5126,
      "count": 72,
      "type": "VEC3"
    },
    {
      "bufferView": 159,
      "componentType": 5126,
      "count": 72,
      "type": "VEC2"
    },
    {
      "bufferView": 160,
      "componentType": 5126,
      "count": 72,
      "max": [
        16.8799991607666,
        3.0999999046325684,
        28.416000366210938
      ],
      "min": [
        11.119999885559082,
        0.18000000715255737,
        28.381000518798828
      ],
      "type": "VEC3"
    },
    {
      "bufferView": 161,
      "componentType": 5126,
      "count": 72,
      "type": "VEC3"
    },
    {
      "bufferView": 162,
      "componentType": 5126,
      "count": 72,
      "type": "VEC2"
    },
    {
      "bufferView": 163,
      "componentType": 5126,
      "count": 792,
      "max": [
        18.1299991607666,
        10.739999771118164,
        28.63599967956543
      ],
      "min": [
        9.869999885559082,
        0,
        27.236000061035156
      ],
      "type": "VEC3"
    },
    {
      "bufferView": 164,
      "componentType": 5126,
      "count": 792,
      "type": "VEC3"
    },
    {
      "bufferView": 165,
      "componentType": 5126,
      "count": 792,
      "type": "VEC2"
    },
    {
      "bufferView": 166,
      "componentType": 5126,
      "count": 120,
      "max": [
        16.908000946044922,
        3.180000066757202,
        28.44099998474121
      ],
      "min": [
        11.092000007629395,
        0.10000000149011612,
        28.356000900268555
      ],
      "type": "VEC3"
    },
    {
      "bufferView": 167,
      "componentType": 5126,
      "count": 120,
      "type": "VEC3"
    },
    {
      "bufferView": 168,
      "componentType": 5126,
      "count": 120,
      "type": "VEC2"
    },
    {
      "bufferView": 169,
      "componentType": 5126,
      "count": 72,
      "max": [
        16.350000381469727,
        2.4000000953674316,
        -10
      ],
      "min": [
        -16.350000381469727,
        0,
        -14.899999618530273
      ],
      "type": "VEC3"
    },
    {
      "bufferView": 170,
      "componentType": 5126,
      "count": 72,
      "type": "VEC3"
    },
    {
      "bufferView": 171,
      "componentType": 5126,
      "count": 72,
      "type": "VEC2"
    },
    {
      "bufferView": 172,
      "componentType": 5126,
      "count": 48,
      "max": [
        32.20000076293945,
        2.549999952316284,
        28.299999237060547
      ],
      "min": [
        -33.20000076293945,
        0,
        23.950000762939453
      ],
      "type": "VEC3"
    },
    {
      "bufferView": 173,
      "componentType": 5126,
      "count": 48,
      "type": "VEC3"
    },
    {
      "bufferView": 174,
      "componentType": 5126,
      "count": 48,
      "type": "VEC2"
    },
    {
      "bufferView": 175,
      "componentType": 5126,
      "count": 264,
      "max": [
        6.849999904632568,
        0.00800000037997961,
        23.833999633789062
      ],
      "min": [
        0.3499999940395355,
        0.0020000000949949026,
        14.8100004196167
      ],
      "type": "VEC3"
    },
    {
      "bufferView": 176,
      "componentType": 5126,
      "count": 264,
      "type": "VEC3"
    },
    {
      "bufferView": 177,
      "componentType": 5126,
      "count": 264,
      "type": "VEC2"
    },
    {
      "bufferView": 178,
      "componentType": 5126,
      "count": 72,
      "max": [
        16.049999237060547,
        1.440000057220459,
        11.100000381469727
      ],
      "min": [
        8.899999618530273,
        0,
        -12.649999618530273
      ],
      "type": "VEC3"
    },
    {
      "bufferView": 179,
      "componentType": 5126,
      "count": 72,
      "type": "VEC3"
    },
    {
      "bufferView": 180,
      "componentType": 5126,
      "count": 72,
      "type": "VEC2"
    },
    {
      "bufferView": 181,
      "componentType": 5126,
      "count": 120,
      "max": [
        -8.25,
        2.450000047683716,
        26.920000076293945
      ],
      "min": [
        -12.550000190734863,
        0,
        26.770000457763672
      ],
      "type": "VEC3"
    },
    {
      "bufferView": 182,
      "componentType": 5126,
      "count": 120,
      "type": "VEC3"
    },
    {
      "bufferView": 183,
      "componentType": 5126,
      "count": 120,
      "type": "VEC2"
    },
    {
      "bufferView": 184,
      "componentType": 5126,
      "count": 24,
      "max": [
        -8.350000381469727,
        2.299999952316284,
        26.899999618530273
      ],
      "min": [
        -12.449999809265137,
        0.44999998807907104,
        26.850000381469727
      ],
      "type": "VEC3"
    },
    {
      "bufferView": 185,
      "componentType": 5126,
      "count": 24,
      "type": "VEC3"
    },
    {
      "bufferView": 186,
      "componentType": 5126,
      "count": 24,
      "type": "VEC2"
    },
    {
      "bufferView": 187,
      "componentType": 5126,
      "count": 24,
      "max": [
        -8.600000381469727,
        0.5,
        26.770000457763672
      ],
      "min": [
        -12.199999809265137,
        0.41999998688697815,
        26.329999923706055
      ],
      "type": "VEC3"
    },
    {
      "bufferView": 188,
      "componentType": 5126,
      "count": 24,
      "type": "VEC3"
    },
    {
      "bufferView": 189,
      "componentType": 5126,
      "count": 24,
      "type": "VEC2"
    },
    {
      "bufferView": 190,
      "componentType": 5126,
      "count": 24,
      "max": [
        -8.199999809265137,
        2.569999933242798,
        26.950000762939453
      ],
      "min": [
        -12.600000381469727,
        2.450000047683716,
        25.549999237060547
      ],
      "type": "VEC3"
    },
    {
      "bufferView": 191,
      "componentType": 5126,
      "count": 24,
      "type": "VEC3"
    },
    {
      "bufferView": 192,
      "componentType": 5126,
      "count": 24,
      "type": "VEC2"
    }
  ],
  "asset": {
    "extras": {
      "orison_bin_sha256": "4b8d4a73f088df1b067f850689c2bc436517ef3e13e2e98e18a90a90b51cafa9",
      "orison_floor01_owner_first": {
        "cell_id": "CELL_SITE_STREET_COMMON",
        "collision_name_contract": [
          "-col",
          "-colonly"
        ],
        "owner_before_material": true,
        "production_asset": true,
        "rollback_monolith_loaded_simultaneously": false,
        "schema": "orison.floor01.production-cell.v1",
        "spatial_inference_used": false
      }
    },
    "generator": "Khronos glTF Blender I/O v5.2.39",
    "version": "2.0"
  },
  "bufferViews": [
    {
      "buffer": 0,
      "byteLength": 720,
      "byteOffset": 0,
      "target": 34963
    },
    {
      "buffer": 0,
      "byteLength": 72,
      "byteOffset": 720,
      "target": 34963
    },
    {
      "buffer": 0,
      "byteLength": 216,
      "byteOffset": 792,
      "target": 34963
    },
    {
      "buffer": 0,
      "byteLength": 144,
      "byteOffset": 1008,
      "target": 34963
    },
    {
      "buffer": 0,
      "byteLength": 360,
      "byteOffset": 1152,
      "target": 34963
    },
    {
      "buffer": 0,
      "byteLength": 648,
      "byteOffset": 1512,
      "target": 34963
    },
    {
      "buffer": 0,
      "byteLength": 24,
      "byteOffset": 2160,
      "target": 34963
    },
    {
      "buffer": 0,
      "byteLength": 2520,
      "byteOffset": 2184,
      "target": 34963
    },
    {
      "buffer": 0,
      "byteLength": 792,
      "byteOffset": 4704,
      "target": 34963
    },
    {
      "buffer": 0,
      "byteLength": 2448,
      "byteOffset": 5496,
      "target": 34963
    },
    {
      "buffer": 0,
      "byteLength": 504,
      "byteOffset": 7944,
      "target": 34963
    },
    {
      "buffer": 0,
      "byteLength": 432,
      "byteOffset": 8448,
      "target": 34963
    },
    {
      "buffer": 0,
      "byteLength": 2592,
      "byteOffset": 8880,
      "target": 34963
    },
    {
      "buffer": 0,
      "byteLength": 1368,
      "byteOffset": 11472,
      "target": 34963
    },
    {
      "buffer": 0,
      "byteLength": 3384,
      "byteOffset": 12840,
      "target": 34963
    },
    {
      "buffer": 0,
      "byteLength": 936,
      "byteOffset": 16224,
      "target": 34963
    },
    {
      "buffer": 0,
      "byteLength": 2376,
      "byteOffset": 17160,
      "target": 34963
    },
    {
      "buffer": 0,
      "byteLength": 1728,
      "byteOffset": 19536,
      "target": 34963
    },
    {
      "buffer": 0,
      "byteLength": 3168,
      "byteOffset": 21264,
      "target": 34963
    },
    {
      "buffer": 0,
      "byteLength": 2232,
      "byteOffset": 24432,
      "target": 34963
    },
    {
      "buffer": 0,
      "byteLength": 17232,
      "byteOffset": 26664,
      "target": 34962
    },
    {
      "buffer": 0,
      "byteLength": 17232,
      "byteOffset": 43896,
      "target": 34962
    },
    {
      "buffer": 0,
      "byteLength": 11488,
      "byteOffset": 61128,
      "target": 34962
    },
    {
      "buffer": 0,
      "byteLength": 4080,
      "byteOffset": 72616,
      "target": 34963
    },
    {
      "buffer": 0,
      "byteLength": 12996,
      "byteOffset": 76696,
      "target": 34962
    },
    {
      "buffer": 0,
      "byteLength": 12996,
      "byteOffset": 89692,
      "target": 34962
    },
    {
      "buffer": 0,
      "byteLength": 8664,
      "byteOffset": 102688,
      "target": 34962
    },
    {
      "buffer": 0,
      "byteLength": 4080,
      "byteOffset": 111352,
      "target": 34963
    },
    {
      "buffer": 0,
      "byteLength": 23700,
      "byteOffset": 115432,
      "target": 34962
    },
    {
      "buffer": 0,
      "byteLength": 23700,
      "byteOffset": 139132,
      "target": 34962
    },
    {
      "buffer": 0,
      "byteLength": 15800,
      "byteOffset": 162832,
      "target": 34962
    },
    {
      "buffer": 0,
      "byteLength": 6168,
      "byteOffset": 178632,
      "target": 34963
    },
    {
      "buffer": 0,
      "byteLength": 2064,
      "byteOffset": 184800,
      "target": 34962
    },
    {
      "buffer": 0,
      "byteLength": 2064,
      "byteOffset": 186864,
      "target": 34962
    },
    {
      "buffer": 0,
      "byteLength": 1376,
      "byteOffset": 188928,
      "target": 34962
    },
    {
      "buffer": 0,
      "byteLength": 624,
      "byteOffset": 190304,
      "target": 34963
    },
    {
      "buffer": 0,
      "byteLength": 96,
      "byteOffset": 190928,
      "target": 34962
    },
    {
      "buffer": 0,
      "byteLength": 96,
      "byteOffset": 191024,
      "target": 34962
    },
    {
      "buffer": 0,
      "byteLength": 64,
      "byteOffset": 191120,
      "target": 34962
    },
    {
      "buffer": 0,
      "byteLength": 35952,
      "byteOffset": 191184,
      "target": 34962
    },
    {
      "buffer": 0,
      "byteLength": 35952,
      "byteOffset": 227136,
      "target": 34962
    },
    {
      "buffer": 0,
      "byteLength": 23968,
      "byteOffset": 263088,
      "target": 34962
    },
    {
      "buffer": 0,
      "byteLength": 11328,
      "byteOffset": 287056,
      "target": 34963
    },
    {
      "buffer": 0,
      "byteLength": 576,
      "byteOffset": 298384,
      "target": 34962
    },
    {
      "buffer": 0,
      "byteLength": 576,
      "byteOffset": 298960,
      "target": 34962
    },
    {
      "buffer": 0,
      "byteLength": 384,
      "byteOffset": 299536,
      "target": 34962
    },
    {
      "buffer": 0,
      "byteLength": 144,
      "byteOffset": 299920,
      "target": 34963
    },
    {
      "buffer": 0,
      "byteLength": 301716,
      "byteOffset": 300064,
      "target": 34962
    },
    {
      "buffer": 0,
      "byteLength": 301716,
      "byteOffset": 601780,
      "target": 34962
    },
    {
      "buffer": 0,
      "byteLength": 201144,
      "byteOffset": 903496,
      "target": 34962
    },
    {
      "buffer": 0,
      "byteLength": 77040,
      "byteOffset": 1104640,
      "target": 34963
    },
    {
      "buffer": 0,
      "byteLength": 864,
      "byteOffset": 1181680,
      "target": 34962
    },
    {
      "buffer": 0,
      "byteLength": 864,
      "byteOffset": 1182544,
      "target": 34962
    },
    {
      "buffer": 0,
      "byteLength": 576,
      "byteOffset": 1183408,
      "target": 34962
    },
    {
      "buffer": 0,
      "byteLength": 216,
      "byteOffset": 1183984,
      "target": 34963
    },
    {
      "buffer": 0,
      "byteLength": 15936,
      "byteOffset": 1184200,
      "target": 34962
    },
    {
      "buffer": 0,
      "byteLength": 15936,
      "byteOffset": 1200136,
      "target": 34962
    },
    {
      "buffer": 0,
      "byteLength": 10624,
      "byteOffset": 1216072,
      "target": 34962
    },
    {
      "buffer": 0,
      "byteLength": 4848,
      "byteOffset": 1226696,
      "target": 34963
    },
    {
      "buffer": 0,
      "byteLength": 8928,
      "byteOffset": 1231544,
      "target": 34962
    },
    {
      "buffer": 0,
      "byteLength": 8928,
      "byteOffset": 1240472,
      "target": 34962
    },
    {
      "buffer": 0,
      "byteLength": 5952,
      "byteOffset": 1249400,
      "target": 34962
    },
    {
      "buffer": 0,
      "byteLength": 2016,
      "byteOffset": 1255352,
      "target": 34962
    },
    {
      "buffer": 0,
      "byteLength": 2016,
      "byteOffset": 1257368,
      "target": 34962
    },
    {
      "buffer": 0,
      "byteLength": 1344,
      "byteOffset": 1259384,
      "target": 34962
    },
    {
      "buffer": 0,
      "byteLength": 2880,
      "byteOffset": 1260728,
      "target": 34962
    },
    {
      "buffer": 0,
      "byteLength": 2880,
      "byteOffset": 1263608,
      "target": 34962
    },
    {
      "buffer": 0,
      "byteLength": 1920,
      "byteOffset": 1266488,
      "target": 34962
    },
    {
      "buffer": 0,
      "byteLength": 44352,
      "byteOffset": 1268408,
      "target": 34962
    },
    {
      "buffer": 0,
      "byteLength": 44352,
      "byteOffset": 1312760,
      "target": 34962
    },
    {
      "buffer": 0,
      "byteLength": 29568,
      "byteOffset": 1357112,
      "target": 34962
    },
    {
      "buffer": 0,
      "byteLength": 11088,
      "byteOffset": 1386680,
      "target": 34963
    },
    {
      "buffer": 0,
      "byteLength": 12672,
      "byteOffset": 1397768,
      "target": 34962
    },
    {
      "buffer": 0,
      "byteLength": 12672,
      "byteOffset": 1410440,
      "target": 34962
    },
    {
      "buffer": 0,
      "byteLength": 8448,
      "byteOffset": 1423112,
      "target": 34962
    },
    {
      "buffer": 0,
      "byteLength": 10080,
      "byteOffset": 1431560,
      "target": 34962
    },
    {
      "buffer": 0,
      "byteLength": 10080,
      "byteOffset": 1441640,
      "target": 34962
    },
    {
      "buffer": 0,
      "byteLength": 6720,
      "byteOffset": 1451720,
      "target": 34962
    },
    {
      "buffer": 0,
      "byteLength": 288,
      "byteOffset": 1458440,
      "target": 34962
    },
    {
      "buffer": 0,
      "byteLength": 288,
      "byteOffset": 1458728,
      "target": 34962
    },
    {
      "buffer": 0,
      "byteLength": 192,
      "byteOffset": 1459016,
      "target": 34962
    },
    {
      "buffer": 0,
      "byteLength": 2592,
      "byteOffset": 1459208,
      "target": 34962
    },
    {
      "buffer": 0,
      "byteLength": 2592,
      "byteOffset": 1461800,
      "target": 34962
    },
    {
      "buffer": 0,
      "byteLength": 1728,
      "byteOffset": 1464392,
      "target": 34962
    },
    {
      "buffer": 0,
      "byteLength": 288,
      "byteOffset": 1466120,
      "target": 34962
    },
    {
      "buffer": 0,
      "byteLength": 288,
      "byteOffset": 1466408,
      "target": 34962
    },
    {
      "buffer": 0,
      "byteLength": 192,
      "byteOffset": 1466696,
      "target": 34962
    },
    {
      "buffer": 0,
      "byteLength": 5472,
      "byteOffset": 1466888,
      "target": 34962
    },
    {
      "buffer": 0,
      "byteLength": 5472,
      "byteOffset": 1472360,
      "target": 34962
    },
    {
      "buffer": 0,
      "byteLength": 3648,
      "byteOffset": 1477832,
      "target": 34962
    },
    {
      "buffer": 0,
      "byteLength": 46656,
      "byteOffset": 1481480,
      "target": 34962
    },
    {
      "buffer": 0,
      "byteLength": 46656,
      "byteOffset": 1528136,
      "target": 34962
    },
    {
      "buffer": 0,
      "byteLength": 31104,
      "byteOffset": 1574792,
      "target": 34962
    },
    {
      "buffer": 0,
      "byteLength": 11664,
      "byteOffset": 1605896,
      "target": 34963
    },
    {
      "buffer": 0,
      "byteLength": 13536,
      "byteOffset": 1617560,
      "target": 34962
    },
    {
      "buffer": 0,
      "byteLength": 13536,
      "byteOffset": 1631096,
      "target": 34962
    },
    {
      "buffer": 0,
      "byteLength": 9024,
      "byteOffset": 1644632,
      "target": 34962
    },
    {
      "buffer": 0,
      "byteLength": 11808,
      "byteOffset": 1653656,
      "target": 34962
    },
    {
      "buffer": 0,
      "byteLength": 11808,
      "byteOffset": 1665464,
      "target": 34962
    },
    {
      "buffer": 0,
      "byteLength": 7872,
      "byteOffset": 1677272,
      "target": 34962
    },
    {
      "buffer": 0,
      "byteLength": 2952,
      "byteOffset": 1685144,
      "target": 34963
    },
    {
      "buffer": 0,
      "byteLength": 36000,
      "byteOffset": 1688096,
      "target": 34962
    },
    {
      "buffer": 0,
      "byteLength": 36000,
      "byteOffset": 1724096,
      "target": 34962
    },
    {
      "buffer": 0,
      "byteLength": 24000,
      "byteOffset": 1760096,
      "target": 34962
    },
    {
      "buffer": 0,
      "byteLength": 9000,
      "byteOffset": 1784096,
      "target": 34963
    },
    {
      "buffer": 0,
      "byteLength": 10944,
      "byteOffset": 1793096,
      "target": 34962
    },
    {
      "buffer": 0,
      "byteLength": 10944,
      "byteOffset": 1804040,
      "target": 34962
    },
    {
      "buffer": 0,
      "byteLength": 7296,
      "byteOffset": 1814984,
      "target": 34962
    },
    {
      "buffer": 0,
      "byteLength": 2736,
      "byteOffset": 1822280,
      "target": 34963
    },
    {
      "buffer": 0,
      "byteLength": 288,
      "byteOffset": 1825016,
      "target": 34962
    },
    {
      "buffer": 0,
      "byteLength": 288,
      "byteOffset": 1825304,
      "target": 34962
    },
    {
      "buffer": 0,
      "byteLength": 192,
      "byteOffset": 1825592,
      "target": 34962
    },
    {
      "buffer": 0,
      "byteLength": 3504,
      "byteOffset": 1825784,
      "target": 34962
    },
    {
      "buffer": 0,
      "byteLength": 3504,
      "byteOffset": 1829288,
      "target": 34962
    },
    {
      "buffer": 0,
      "byteLength": 2336,
      "byteOffset": 1832792,
      "target": 34962
    },
    {
      "buffer": 0,
      "byteLength": 876,
      "byteOffset": 1835128,
      "target": 34963
    },
    {
      "buffer": 0,
      "byteLength": 21024,
      "byteOffset": 1836004,
      "target": 34962
    },
    {
      "buffer": 0,
      "byteLength": 21024,
      "byteOffset": 1857028,
      "target": 34962
    },
    {
      "buffer": 0,
      "byteLength": 14016,
      "byteOffset": 1878052,
      "target": 34962
    },
    {
      "buffer": 0,
      "byteLength": 5256,
      "byteOffset": 1892068,
      "target": 34963
    },
    {
      "buffer": 0,
      "byteLength": 10368,
      "byteOffset": 1897324,
      "target": 34962
    },
    {
      "buffer": 0,
      "byteLength": 10368,
      "byteOffset": 1907692,
      "target": 34962
    },
    {
      "buffer": 0,
      "byteLength": 6912,
      "byteOffset": 1918060,
      "target": 34962
    },
    {
      "buffer": 0,
      "byteLength": 6912,
      "byteOffset": 1924972,
      "target": 34962
    },
    {
      "buffer": 0,
      "byteLength": 6912,
      "byteOffset": 1931884,
      "target": 34962
    },
    {
      "buffer": 0,
      "byteLength": 4608,
      "byteOffset": 1938796,
      "target": 34962
    },
    {
      "buffer": 0,
      "byteLength": 9792,
      "byteOffset": 1943404,
      "target": 34962
    },
    {
      "buffer": 0,
      "byteLength": 9792,
      "byteOffset": 1953196,
      "target": 34962
    },
    {
      "buffer": 0,
      "byteLength": 6528,
      "byteOffset": 1962988,
      "target": 34962
    },
    {
      "buffer": 0,
      "byteLength": 288,
      "byteOffset": 1969516,
      "target": 34962
    },
    {
      "buffer": 0,
      "byteLength": 288,
      "byteOffset": 1969804,
      "target": 34962
    },
    {
      "buffer": 0,
      "byteLength": 192,
      "byteOffset": 1970092,
      "target": 34962
    },
    {
      "buffer": 0,
      "byteLength": 16680,
      "byteOffset": 1970284,
      "target": 34962
    },
    {
      "buffer": 0,
      "byteLength": 16680,
      "byteOffset": 1986964,
      "target": 34962
    },
    {
      "buffer": 0,
      "byteLength": 11120,
      "byteOffset": 2003644,
      "target": 34962
    },
    {
      "buffer": 0,
      "byteLength": 4320,
      "byteOffset": 2014764,
      "target": 34963
    },
    {
      "buffer": 0,
      "byteLength": 12384,
      "byteOffset": 2019084,
      "target": 34962
    },
    {
      "buffer": 0,
      "byteLength": 12384,
      "byteOffset": 2031468,
      "target": 34962
    },
    {
      "buffer": 0,
      "byteLength": 8256,
      "byteOffset": 2043852,
      "target": 34962
    },
    {
      "buffer": 0,
      "byteLength": 3096,
      "byteOffset": 2052108,
      "target": 34963
    },
    {
      "buffer": 0,
      "byteLength": 1728,
      "byteOffset": 2055204,
      "target": 34962
    },
    {
      "buffer": 0,
      "byteLength": 1728,
      "byteOffset": 2056932,
      "target": 34962
    },
    {
      "buffer": 0,
      "byteLength": 1152,
      "byteOffset": 2058660,
      "target": 34962
    },
    {
      "buffer": 0,
      "byteLength": 3744,
      "byteOffset": 2059812,
      "target": 34962
    },
    {
      "buffer": 0,
      "byteLength": 3744,
      "byteOffset": 2063556,
      "target": 34962
    },
    {
      "buffer": 0,
      "byteLength": 2496,
      "byteOffset": 2067300,
      "target": 34962
    },
    {
      "buffer": 0,
      "byteLength": 3744,
      "byteOffset": 2069796,
      "target": 34962
    },
    {
      "buffer": 0,
      "byteLength": 3744,
      "byteOffset": 2073540,
      "target": 34962
    },
    {
      "buffer": 0,
      "byteLength": 2496,
      "byteOffset": 2077284,
      "target": 34962
    },
    {
      "buffer": 0,
      "byteLength": 8064,
      "byteOffset": 2079780,
      "target": 34962
    },
    {
      "buffer": 0,
      "byteLength": 8064,
      "byteOffset": 2087844,
      "target": 34962
    },
    {
      "buffer": 0,
      "byteLength": 5376,
      "byteOffset": 2095908,
      "target": 34962
    },
    {
      "buffer": 0,
      "byteLength": 2016,
      "byteOffset": 2101284,
      "target": 34963
    },
    {
      "buffer": 0,
      "byteLength": 44928,
      "byteOffset": 2103300,
      "target": 34962
    },
    {
      "buffer": 0,
      "byteLength": 44928,
      "byteOffset": 2148228,
      "target": 34962
    },
    {
      "buffer": 0,
      "byteLength": 29952,
      "byteOffset": 2193156,
      "target": 34962
    },
    {
      "buffer": 0,
      "byteLength": 11232,
      "byteOffset": 2223108,
      "target": 34963
    },
    {
      "buffer": 0,
      "byteLength": 864,
      "byteOffset": 2234340,
      "target": 34962
    },
    {
      "buffer": 0,
      "byteLength": 864,
      "byteOffset": 2235204,
      "target": 34962
    },
    {
      "buffer": 0,
      "byteLength": 576,
      "byteOffset": 2236068,
      "target": 34962
    },
    {
      "buffer": 0,
      "byteLength": 864,
      "byteOffset": 2236644,
      "target": 34962
    },
    {
      "buffer": 0,
      "byteLength": 864,
      "byteOffset": 2237508,
      "target": 34962
    },
    {
      "buffer": 0,
      "byteLength": 576,
      "byteOffset": 2238372,
      "target": 34962
    },
    {
      "buffer": 0,
      "byteLength": 9504,
      "byteOffset": 2238948,
      "target": 34962
    },
    {
      "buffer": 0,
      "byteLength": 9504,
      "byteOffset": 2248452,
      "target": 34962
    },
    {
      "buffer": 0,
      "byteLength": 6336,
      "byteOffset": 2257956,
      "target": 34962
    },
    {
      "buffer": 0,
      "byteLength": 1440,
      "byteOffset": 2264292,
      "target": 34962
    },
    {
      "buffer": 0,
      "byteLength": 1440,
      "byteOffset": 2265732,
      "target": 34962
    },
    {
      "buffer": 0,
      "byteLength": 960,
      "byteOffset": 2267172,
      "target": 34962
    },
    {
      "buffer": 0,
      "byteLength": 864,
      "byteOffset": 2268132,
      "target": 34962
    },
    {
      "buffer": 0,
      "byteLength": 864,
      "byteOffset": 2268996,
      "target": 34962
    },
    {
      "buffer": 0,
      "byteLength": 576,
      "byteOffset": 2269860,
      "target": 34962
    },
    {
      "buffer": 0,
      "byteLength": 576,
      "byteOffset": 2270436,
      "target": 34962
    },
    {
      "buffer": 0,
      "byteLength": 576,
      "byteOffset": 2271012,
      "target": 34962
    },
    {
      "buffer": 0,
      "byteLength": 384,
      "byteOffset": 2271588,
      "target": 34962
    },
    {
      "buffer": 0,
      "byteLength": 3168,
      "byteOffset": 2271972,
      "target": 34962
    },
    {
      "buffer": 0,
      "byteLength": 3168,
      "byteOffset": 2275140,
      "target": 34962
    },
    {
      "buffer": 0,
      "byteLength": 2112,
      "byteOffset": 2278308,
      "target": 34962
    },
    {
      "buffer": 0,
      "byteLength": 864,
      "byteOffset": 2280420,
      "target": 34962
    },
    {
      "buffer": 0,
      "byteLength": 864,
      "byteOffset": 2281284,
      "target": 34962
    },
    {
      "buffer": 0,
      "byteLength": 576,
      "byteOffset": 2282148,
      "target": 34962
    },
    {
      "buffer": 0,
      "byteLength": 1440,
      "byteOffset": 2282724,
      "target": 34962
    },
    {
      "buffer": 0,
      "byteLength": 1440,
      "byteOffset": 2284164,
      "target": 34962
    },
    {
      "buffer": 0,
      "byteLength": 960,
      "byteOffset": 2285604,
      "target": 34962
    },
    {
      "buffer": 0,
      "byteLength": 288,
      "byteOffset": 2286564,
      "target": 34962
    },
    {
      "buffer": 0,
      "byteLength": 288,
      "byteOffset": 2286852,
      "target": 34962
    },
    {
      "buffer": 0,
      "byteLength": 192,
      "byteOffset": 2287140,
      "target": 34962
    },
    {
      "buffer": 0,
      "byteLength": 288,
      "byteOffset": 2287332,
      "target": 34962
    },
    {
      "buffer": 0,
      "byteLength": 288,
      "byteOffset": 2287620,
      "target": 34962
    },
    {
      "buffer": 0,
      "byteLength": 192,
      "byteOffset": 2287908,
      "target": 34962
    },
    {
      "buffer": 0,
      "byteLength": 288,
      "byteOffset": 2288100,
      "target": 34962
    },
    {
      "buffer": 0,
      "byteLength": 288,
      "byteOffset": 2288388,
      "target": 34962
    },
    {
      "buffer": 0,
      "byteLength": 192,
      "byteOffset": 2288676,
      "target": 34962
    }
  ],
  "buffers": [
    {
      "byteLength": 2288868,
      "uri": "site_street_common.bin"
    }
  ],
  "extensionsUsed": [
    "KHR_materials_specular"
  ],
  "images": [
    {
      "mimeType": "image/png",
      "name": "T_ai_materials_metal_b_normal",
      "uri": "../textures/T_ai_materials_metal_b_normal.png"
    },
    {
      "mimeType": "image/png",
      "name": "T_ai_materials_metal_b_albedo",
      "uri": "../textures/T_ai_materials_metal_b_albedo.png"
    },
    {
      "mimeType": "image/png",
      "name": "T_ai_materials_metal_b_rough",
      "uri": "../textures/T_ai_materials_metal_b_rough.png"
    },
    {
      "mimeType": "image/png",
      "name": "T_ai_materials_cast_iron_b_normal",
      "uri": "../textures/T_ai_materials_cast_iron_b_normal.png"
    },
    {
      "mimeType": "image/png",
      "name": "T_ai_materials_cast_iron_b_albedo",
      "uri": "../textures/T_ai_materials_cast_iron_b_albedo.png"
    },
    {
      "mimeType": "image/png",
      "name": "T_ai_materials_cast_iron_b_rough",
      "uri": "../textures/T_ai_materials_cast_iron_b_rough.png"
    },
    {
      "mimeType": "image/png",
      "name": "T_glass_normal",
      "uri": "../textures/T_glass_normal.png"
    },
    {
      "mimeType": "image/png",
      "name": "T_glass_rough",
      "uri": "../textures/T_glass_rough.png"
    },
    {
      "mimeType": "image/png",
      "name": "T_ai_materials_plywood_b_normal",
      "uri": "../textures/T_ai_materials_plywood_b_normal.png"
    },
    {
      "mimeType": "image/png",
      "name": "T_ai_materials_plywood_b_albedo",
      "uri": "../textures/T_ai_materials_plywood_b_albedo.png"
    },
    {
      "mimeType": "image/png",
      "name": "T_ai_materials_plywood_b_rough",
      "uri": "../textures/T_ai_materials_plywood_b_rough.png"
    },
    {
      "mimeType": "image/png",
      "name": "T_ai_materials_soot_b_normal",
      "uri": "../textures/T_ai_materials_soot_b_normal.png"
    },
    {
      "mimeType": "image/png",
      "name": "T_ai_materials_soot_b_albedo",
      "uri": "../textures/T_ai_materials_soot_b_albedo.png"
    },
    {
      "mimeType": "image/png",
      "name": "T_ai_materials_soot_b_rough",
      "uri": "../textures/T_ai_materials_soot_b_rough.png"
    },
    {
      "mimeType": "image/png",
      "name": "T_ai_materials_limestone_b_normal",
      "uri": "../textures/T_ai_materials_limestone_b_normal.png"
    },
    {
      "mimeType": "image/png",
      "name": "T_ai_materials_limestone_b_albedo",
      "uri": "../textures/T_ai_materials_limestone_b_albedo.png"
    },
    {
      "mimeType": "image/png",
      "name": "T_ai_materials_limestone_b_rough",
      "uri": "../textures/T_ai_materials_limestone_b_rough.png"
    },
    {
      "mimeType": "image/png",
      "name": "T_ai_materials_common_brick_b_normal",
      "uri": "../textures/T_ai_materials_common_brick_b_normal.png"
    },
    {
      "mimeType": "image/png",
      "name": "T_ai_materials_common_brick_b_albedo",
      "uri": "../textures/T_ai_materials_common_brick_b_albedo.png"
    },
    {
      "mimeType": "image/png",
      "name": "T_ai_materials_common_brick_b_rough",
      "uri": "../textures/T_ai_materials_common_brick_b_rough.png"
    },
    {
      "mimeType": "image/png",
      "name": "T_ai_materials_face_brick_b_normal",
      "uri": "../textures/T_ai_materials_face_brick_b_normal.png"
    },
    {
      "mimeType": "image/png",
      "name": "T_ai_materials_face_brick_b_albedo",
      "uri": "../textures/T_ai_materials_face_brick_b_albedo.png"
    },
    {
      "mimeType": "image/png",
      "name": "T_ai_materials_face_brick_b_rough",
      "uri": "../textures/T_ai_materials_face_brick_b_rough.png"
    },
    {
      "mimeType": "image/png",
      "name": "T_ai_materials_concrete_b_normal",
      "uri": "../textures/T_ai_materials_concrete_b_normal.png"
    },
    {
      "mimeType": "image/png",
      "name": "T_ai_materials_concrete_b_albedo",
      "uri": "../textures/T_ai_materials_concrete_b_albedo.png"
    },
    {
      "mimeType": "image/png",
      "name": "T_ai_materials_concrete_b_rough",
      "uri": "../textures/T_ai_materials_concrete_b_rough.png"
    },
    {
      "mimeType": "image/png",
      "name": "T_ai_materials_brass_normal",
      "uri": "../textures/T_ai_materials_brass_normal.png"
    },
    {
      "mimeType": "image/png",
      "name": "T_ai_materials_brass_albedo",
      "uri": "../textures/T_ai_materials_brass_albedo.png"
    },
    {
      "mimeType": "image/png",
      "name": "T_ai_materials_brass_rough",
      "uri": "../textures/T_ai_materials_brass_rough.png"
    },
    {
      "mimeType": "image/png",
      "name": "T_ai_materials_fabric_cool_b_normal",
      "uri": "../textures/T_ai_materials_fabric_cool_b_normal.png"
    },
    {
      "mimeType": "image/png",
      "name": "T_ai_materials_fabric_cool_b_albedo",
      "uri": "../textures/T_ai_materials_fabric_cool_b_albedo.png"
    },
    {
      "mimeType": "image/png",
      "name": "T_ai_materials_fabric_cool_b_rough",
      "uri": "../textures/T_ai_materials_fabric_cool_b_rough.png"
    },
    {
      "mimeType": "image/png",
      "name": "T_fx_fx_shadow",
      "uri": "../textures/T_fx_fx_shadow.png"
    },
    {
      "mimeType": "image/png",
      "name": "T_ai_materials_slab_b_normal",
      "uri": "../textures/T_ai_materials_slab_b_normal.png"
    },
    {
      "mimeType": "image/png",
      "name": "T_ai_materials_slab_b_albedo",
      "uri": "../textures/T_ai_materials_slab_b_albedo.png"
    },
    {
      "mimeType": "image/png",
      "name": "T_ai_materials_slab_b_rough",
      "uri": "../textures/T_ai_materials_slab_b_rough.png"
    },
    {
      "mimeType": "image/png",
      "name": "T_ai_materials_linen_b_normal",
      "uri": "../textures/T_ai_materials_linen_b_normal.png"
    },
    {
      "mimeType": "image/png",
      "name": "T_ai_materials_linen_b_albedo",
      "uri": "../textures/T_ai_materials_linen_b_albedo.png"
    },
    {
      "mimeType": "image/png",
      "name": "T_ai_materials_linen_b_rough",
      "uri": "../textures/T_ai_materials_linen_b_rough.png"
    },
    {
      "mimeType": "image/png",
      "name": "T_ai_materials_timber_b_normal",
      "uri": "../textures/T_ai_materials_timber_b_normal.png"
    },
    {
      "mimeType": "image/png",
      "name": "T_ai_materials_timber_b_albedo",
      "uri": "../textures/T_ai_materials_timber_b_albedo.png"
    },
    {
      "mimeType": "image/png",
      "name": "T_ai_materials_timber_b_rough",
      "uri": "../textures/T_ai_materials_timber_b_rough.png"
    },
    {
      "mimeType": "image/png",
      "name": "T_ai_materials_subway_tile_b_normal",
      "uri": "../textures/T_ai_materials_subway_tile_b_normal.png"
    },
    {
      "mimeType": "image/png",
      "name": "T_ai_materials_subway_tile_b_albedo",
      "uri": "../textures/T_ai_materials_subway_tile_b_albedo.png"
    },
    {
      "mimeType": "image/png",
      "name": "T_ai_materials_subway_tile_b_rough",
      "uri": "../textures/T_ai_materials_subway_tile_b_rough.png"
    },
    {
      "mimeType": "image/png",
      "name": "T_ai_materials_brass_mesh_normal",
      "uri": "../textures/T_ai_materials_brass_mesh_normal.png"
    },
    {
      "mimeType": "image/png",
      "name": "T_ai_materials_brass_mesh_albedo",
      "uri": "../textures/T_ai_materials_brass_mesh_albedo.png"
    },
    {
      "mimeType": "image/png",
      "name": "T_ai_materials_brass_mesh_rough",
      "uri": "../textures/T_ai_materials_brass_mesh_rough.png"
    },
    {
      "mimeType": "image/png",
      "name": "T_ai_materials_lacquer_red_b_normal",
      "uri": "../textures/T_ai_materials_lacquer_red_b_normal.png"
    },
    {
      "mimeType": "image/png",
      "name": "T_ai_materials_lacquer_red_b_albedo",
      "uri": "../textures/T_ai_materials_lacquer_red_b_albedo.png"
    },
    {
      "mimeType": "image/png",
      "name": "T_ai_materials_lacquer_red_b_rough",
      "uri": "../textures/T_ai_materials_lacquer_red_b_rough.png"
    },
    {
      "mimeType": "image/png",
      "name": "T_ai_materials_bronze_normal",
      "uri": "../textures/T_ai_materials_bronze_normal.png"
    },
    {
      "mimeType": "image/png",
      "name": "T_ai_materials_bronze_albedo",
      "uri": "../textures/T_ai_materials_bronze_albedo.png"
    },
    {
      "mimeType": "image/png",
      "name": "T_ai_materials_bronze_rough",
      "uri": "../textures/T_ai_materials_bronze_rough.png"
    },
    {
      "mimeType": "image/png",
      "name": "T_ai_materials_zinc_liner_normal",
      "uri": "../textures/T_ai_materials_zinc_liner_normal.png"
    },
    {
      "mimeType": "image/png",
      "name": "T_ai_materials_zinc_liner_albedo",
      "uri": "../textures/T_ai_materials_zinc_liner_albedo.png"
    },
    {
      "mimeType": "image/png",
      "name": "T_ai_materials_zinc_liner_rough",
      "uri": "../textures/T_ai_materials_zinc_liner_rough.png"
    },
    {
      "mimeType": "image/png",
      "name": "T_ai_materials_asphalt_b_normal",
      "uri": "../textures/T_ai_materials_asphalt_b_normal.png"
    },
    {
      "mimeType": "image/png",
      "name": "T_ai_materials_asphalt_b_albedo",
      "uri": "../textures/T_ai_materials_asphalt_b_albedo.png"
    },
    {
      "mimeType": "image/png",
      "name": "T_ai_materials_asphalt_b_rough",
      "uri": "../textures/T_ai_materials_asphalt_b_rough.png"
    },
    {
      "mimeType": "image/png",
      "name": "T_ai_materials_brick_patched_b_normal",
      "uri": "../textures/T_ai_materials_brick_patched_b_normal.png"
    },
    {
      "mimeType": "image/png",
      "name": "T_ai_materials_brick_patched_b_albedo",
      "uri": "../textures/T_ai_materials_brick_patched_b_albedo.png"
    },
    {
      "mimeType": "image/png",
      "name": "T_ai_materials_brick_patched_b_rough",
      "uri": "../textures/T_ai_materials_brick_patched_b_rough.png"
    },
    {
      "mimeType": "image/png",
      "name": "T_ai_materials_leaf_fall_b_normal",
      "uri": "../textures/T_ai_materials_leaf_fall_b_normal.png"
    },
    {
      "mimeType": "image/png",
      "name": "T_ai_materials_leaf_fall_b_albedo",
      "uri": "../textures/T_ai_materials_leaf_fall_b_albedo.png"
    },
    {
      "mimeType": "image/png",
      "name": "T_ai_materials_leaf_fall_b_rough",
      "uri": "../textures/T_ai_materials_leaf_fall_b_rough.png"
    },
    {
      "mimeType": "image/png",
      "name": "T_ai_materials_puddle_b_normal",
      "uri": "../textures/T_ai_materials_puddle_b_normal.png"
    },
    {
      "mimeType": "image/png",
      "name": "T_ai_materials_puddle_b_albedo",
      "uri": "../textures/T_ai_materials_puddle_b_albedo.png"
    },
    {
      "mimeType": "image/png",
      "name": "T_ai_materials_puddle_b_rough",
      "uri": "../textures/T_ai_materials_puddle_b_rough.png"
    },
    {
      "mimeType": "image/png",
      "name": "T_ai_materials_sidewalk_grout_b_normal",
      "uri": "../textures/T_ai_materials_sidewalk_grout_b_normal.png"
    },
    {
      "mimeType": "image/png",
      "name": "T_ai_materials_sidewalk_grout_b_albedo",
      "uri": "../textures/T_ai_materials_sidewalk_grout_b_albedo.png"
    },
    {
      "mimeType": "image/png",
      "name": "T_ai_materials_sidewalk_grout_b_rough",
      "uri": "../textures/T_ai_materials_sidewalk_grout_b_rough.png"
    },
    {
      "mimeType": "image/png",
      "name": "T_ai_materials_sidewalk_haunted_b_normal",
      "uri": "../textures/T_ai_materials_sidewalk_haunted_b_normal.png"
    },
    {
      "mimeType": "image/png",
      "name": "T_ai_materials_sidewalk_haunted_b_albedo",
      "uri": "../textures/T_ai_materials_sidewalk_haunted_b_albedo.png"
    },
    {
      "mimeType": "image/png",
      "name": "T_ai_materials_sidewalk_haunted_b_rough",
      "uri": "../textures/T_ai_materials_sidewalk_haunted_b_rough.png"
    },
    {
      "mimeType": "image/png",
      "name": "T_ai_materials_wet_asphalt_b_normal",
      "uri": "../textures/T_ai_materials_wet_asphalt_b_normal.png"
    },
    {
      "mimeType": "image/png",
      "name": "T_ai_materials_wet_asphalt_b_albedo",
      "uri": "../textures/T_ai_materials_wet_asphalt_b_albedo.png"
    },
    {
      "mimeType": "image/png",
      "name": "T_ai_materials_wet_asphalt_b_rough",
      "uri": "../textures/T_ai_materials_wet_asphalt_b_rough.png"
    },
    {
      "mimeType": "image/png",
      "name": "T_generated_road_paint_normal",
      "uri": "../textures/T_generated_road_paint_normal.png"
    },
    {
      "mimeType": "image/png",
      "name": "T_generated_road_paint_albedo",
      "uri": "../textures/T_generated_road_paint_albedo.png"
    },
    {
      "mimeType": "image/png",
      "name": "T_generated_road_paint_rough",
      "uri": "../textures/T_generated_road_paint_rough.png"
    }
  ],
  "materials": [
    {
      "name": "M_metal_b",
      "normalTexture": {
        "index": 0,
        "scale": 0.3499999940395355
      },
      "pbrMetallicRoughness": {
        "baseColorTexture": {
          "index": 1
        },
        "metallicFactor": 0.8999999761581421,
        "metallicRoughnessTexture": {
          "index": 2
        }
      }
    },
    {
      "name": "M_cast_iron_b",
      "normalTexture": {
        "index": 3,
        "scale": 0.3499999940395355
      },
      "pbrMetallicRoughness": {
        "baseColorTexture": {
          "index": 4
        },
        "metallicFactor": 0.3499999940395355,
        "metallicRoughnessTexture": {
          "index": 5
        }
      }
    },
    {
      "alphaMode": "BLEND",
      "doubleSided": true,
      "name": "M_glassish",
      "normalTexture": {
        "index": 6,
        "scale": 0.550000011920929
      },
      "pbrMetallicRoughness": {
        "baseColorFactor": [
          0.7599999904632568,
          0.8500000238418579,
          0.8899999856948853,
          0.1599999964237213
        ],
        "metallicFactor": 0,
        "metallicRoughnessTexture": {
          "index": 7
        }
      }
    },
    {
      "name": "M_plywood_b",
      "normalTexture": {
        "index": 8,
        "scale": 0.3499999940395355
      },
      "pbrMetallicRoughness": {
        "baseColorTexture": {
          "index": 9
        },
        "metallicFactor": 0,
        "metallicRoughnessTexture": {
          "index": 10
        }
      }
    },
    {
      "name": "M_soot_b",
      "normalTexture": {
        "index": 11,
        "scale": 0.3499999940395355
      },
      "pbrMetallicRoughness": {
        "baseColorTexture": {
          "index": 12
        },
        "metallicFactor": 0,
        "metallicRoughnessTexture": {
          "index": 13
        }
      }
    },
    {
      "name": "M_limestone_b",
      "normalTexture": {
        "index": 14,
        "scale": 0.3499999940395355
      },
      "pbrMetallicRoughness": {
        "baseColorTexture": {
          "index": 15
        },
        "metallicFactor": 0,
        "metallicRoughnessTexture": {
          "index": 16
        }
      }
    },
    {
      "name": "M_common_brick_b",
      "normalTexture": {
        "index": 17,
        "scale": 0.3499999940395355
      },
      "pbrMetallicRoughness": {
        "baseColorTexture": {
          "index": 18
        },
        "metallicFactor": 0,
        "metallicRoughnessTexture": {
          "index": 19
        }
      }
    },
    {
      "name": "M_face_brick_b",
      "normalTexture": {
        "index": 20,
        "scale": 0.3499999940395355
      },
      "pbrMetallicRoughness": {
        "baseColorTexture": {
          "index": 21
        },
        "metallicFactor": 0,
        "metallicRoughnessTexture": {
          "index": 22
        }
      }
    },
    {
      "name": "M_concrete_b",
      "normalTexture": {
        "index": 23,
        "scale": 0.3499999940395355
      },
      "pbrMetallicRoughness": {
        "baseColorTexture": {
          "index": 24
        },
        "metallicFactor": 0,
        "metallicRoughnessTexture": {
          "index": 25
        }
      }
    },
    {
      "name": "M_brass_dull",
      "normalTexture": {
        "index": 26,
        "scale": 0.3499999940395355
      },
      "pbrMetallicRoughness": {
        "baseColorTexture": {
          "index": 27
        },
        "metallicFactor": 0.30000001192092896,
        "metallicRoughnessTexture": {
          "index": 28
        }
      }
    },
    {
      "name": "M_fabric_cool_b",
      "normalTexture": {
        "index": 29,
        "scale": 0.3499999940395355
      },
      "pbrMetallicRoughness": {
        "baseColorTexture": {
          "index": 30
        },
        "metallicFactor": 0,
        "metallicRoughnessTexture": {
          "index": 31
        }
      }
    },
    {
      "alphaMode": "BLEND",
      "doubleSided": true,
      "extensions": {
        "KHR_materials_specular": {
          "specularFactor": 0
        }
      },
      "name": "M_fx_shadow",
      "pbrMetallicRoughness": {
        "baseColorTexture": {
          "index": 32
        },
        "metallicFactor": 0
      }
    },
    {
      "name": "M_slab_b",
      "normalTexture": {
        "index": 33,
        "scale": 0.3499999940395355
      },
      "pbrMetallicRoughness": {
        "baseColorTexture": {
          "index": 34
        },
        "metallicFactor": 0,
        "metallicRoughnessTexture": {
          "index": 35
        }
      }
    },
    {
      "name": "M_linen_b",
      "normalTexture": {
        "index": 36,
        "scale": 0.3499999940395355
      },
      "pbrMetallicRoughness": {
        "baseColorTexture": {
          "index": 37
        },
        "metallicFactor": 0,
        "metallicRoughnessTexture": {
          "index": 38
        }
      }
    },
    {
      "name": "M_timber_b",
      "normalTexture": {
        "index": 39,
        "scale": 0.3499999940395355
      },
      "pbrMetallicRoughness": {
        "baseColorTexture": {
          "index": 40
        },
        "metallicFactor": 0,
        "metallicRoughnessTexture": {
          "index": 41
        }
      }
    },
    {
      "name": "M_subway_tile_b",
      "normalTexture": {
        "index": 42,
        "scale": 0.3499999940395355
      },
      "pbrMetallicRoughness": {
        "baseColorTexture": {
          "index": 43
        },
        "metallicFactor": 0,
        "metallicRoughnessTexture": {
          "index": 44
        }
      }
    },
    {
      "name": "M_brass_mesh",
      "normalTexture": {
        "index": 45,
        "scale": 0.3499999940395355
      },
      "pbrMetallicRoughness": {
        "baseColorTexture": {
          "index": 46
        },
        "metallicFactor": 0.800000011920929,
        "metallicRoughnessTexture": {
          "index": 47
        }
      }
    },
    {
      "name": "M_lacquer_red_b",
      "normalTexture": {
        "index": 48,
        "scale": 0.3499999940395355
      },
      "pbrMetallicRoughness": {
        "baseColorTexture": {
          "index": 49
        },
        "metallicFactor": 0,
        "metallicRoughnessTexture": {
          "index": 50
        }
      }
    },
    {
      "name": "M_bronze",
      "normalTexture": {
        "index": 51,
        "scale": 0.3499999940395355
      },
      "pbrMetallicRoughness": {
        "baseColorTexture": {
          "index": 52
        },
        "metallicFactor": 0.75,
        "metallicRoughnessTexture": {
          "index": 53
        }
      }
    },
    {
      "name": "M_zinc_liner",
      "normalTexture": {
        "index": 54,
        "scale": 0.3499999940395355
      },
      "pbrMetallicRoughness": {
        "baseColorTexture": {
          "index": 55
        },
        "metallicFactor": 0.11999999731779099,
        "metallicRoughnessTexture": {
          "index": 56
        }
      }
    },
    {
      "name": "M_asphalt_b",
      "normalTexture": {
        "index": 57,
        "scale": 0.3499999940395355
      },
      "pbrMetallicRoughness": {
        "baseColorTexture": {
          "index": 58
        },
        "metallicFactor": 0,
        "metallicRoughnessTexture": {
          "index": 59
        }
      }
    },
    {
      "name": "M_brick_patched_b",
      "normalTexture": {
        "index": 60,
        "scale": 0.3499999940395355
      },
      "pbrMetallicRoughness": {
        "baseColorTexture": {
          "index": 61
        },
        "metallicFactor": 0,
        "metallicRoughnessTexture": {
          "index": 62
        }
      }
    },
    {
      "name": "M_leaf_fall_b",
      "normalTexture": {
        "index": 63,
        "scale": 0.3499999940395355
      },
      "pbrMetallicRoughness": {
        "baseColorTexture": {
          "index": 64
        },
        "metallicFactor": 0,
        "metallicRoughnessTexture": {
          "index": 65
        }
      }
    },
    {
      "name": "M_puddle_b",
      "normalTexture": {
        "index": 66,
        "scale": 0.3499999940395355
      },
      "pbrMetallicRoughness": {
        "baseColorTexture": {
          "index": 67
        },
        "metallicFactor": 0.3499999940395355,
        "metallicRoughnessTexture": {
          "index": 68
        }
      }
    },
    {
      "name": "M_sidewalk_grout_b",
      "normalTexture": {
        "index": 69,
        "scale": 0.3499999940395355
      },
      "pbrMetallicRoughness": {
        "baseColorTexture": {
          "index": 70
        },
        "metallicFactor": 0,
        "metallicRoughnessTexture": {
          "index": 71
        }
      }
    },
    {
      "name": "M_sidewalk_haunted_b",
      "normalTexture": {
        "index": 72,
        "scale": 0.3499999940395355
      },
      "pbrMetallicRoughness": {
        "baseColorTexture": {
          "index": 73
        },
        "metallicFactor": 0,
        "metallicRoughnessTexture": {
          "index": 74
        }
      }
    },
    {
      "name": "M_wet_asphalt_b",
      "normalTexture": {
        "index": 75,
        "scale": 0.3499999940395355
      },
      "pbrMetallicRoughness": {
        "baseColorTexture": {
          "index": 76
        },
        "metallicFactor": 0,
        "metallicRoughnessTexture": {
          "index": 77
        }
      }
    },
    {
      "name": "M_road_paint",
      "normalTexture": {
        "index": 78,
        "scale": 0.3499999940395355
      },
      "pbrMetallicRoughness": {
        "baseColorTexture": {
          "index": 79
        },
        "metallicFactor": 0,
        "metallicRoughnessTexture": {
          "index": 80
        }
      }
    }
  ],
  "meshes": [
    {
      "name": "F01_OWN_STREET_furnish_brass_dull",
      "primitives": [
        {
          "attributes": {
            "NORMAL": 21,
            "POSITION": 20,
            "TEXCOORD_0": 22
          },
          "indices": 23,
          "material": 9
        }
      ]
    },
    {
      "name": "F01_OWN_STREET_furnish_bronze",
      "primitives": [
        {
          "attributes": {
            "NORMAL": 25,
            "POSITION": 24,
            "TEXCOORD_0": 26
          },
          "indices": 27,
          "material": 18
        }
      ]
    },
    {
      "name": "F01_OWN_STREET_furnish_cast_iron",
      "primitives": [
        {
          "attributes": {
            "NORMAL": 29,
            "POSITION": 28,
            "TEXCOORD_0": 30
          },
          "indices": 31,
          "material": 1
        }
      ]
    },
    {
      "name": "F01_OWN_STREET_furnish_concrete",
      "primitives": [
        {
          "attributes": {
            "NORMAL": 33,
            "POSITION": 32,
            "TEXCOORD_0": 34
          },
          "indices": 35,
          "material": 8
        }
      ]
    },
    {
      "name": "F01_OWN_STREET_furnish_fx_shadow",
      "primitives": [
        {
          "attributes": {
            "NORMAL": 37,
            "POSITION": 36,
            "TEXCOORD_0": 38
          },
          "indices": 6,
          "material": 11
        }
      ]
    },
    {
      "name": "F01_OWN_STREET_furnish_glassish",
      "primitives": [
        {
          "attributes": {
            "NORMAL": 40,
            "POSITION": 39,
            "TEXCOORD_0": 41
          },
          "indices": 42,
          "material": 2
        }
      ]
    },
    {
      "name": "F01_OWN_STREET_furnish_hull-colonly",
      "primitives": [
        {
          "attributes": {
            "NORMAL": 44,
            "POSITION": 43,
            "TEXCOORD_0": 45
          },
          "indices": 46,
          "material": 12
        }
      ]
    },
    {
      "name": "F01_OWN_STREET_furnish_metal",
      "primitives": [
        {
          "attributes": {
            "NORMAL": 48,
            "POSITION": 47,
            "TEXCOORD_0": 49
          },
          "indices": 50,
          "material": 0
        }
      ]
    },
    {
      "name": "F01_OWN_STREET_furnish_soot",
      "primitives": [
        {
          "attributes": {
            "NORMAL": 52,
            "POSITION": 51,
            "TEXCOORD_0": 53
          },
          "indices": 54,
          "material": 4
        }
      ]
    },
    {
      "name": "F01_OWN_STREET_furnish_timber",
      "primitives": [
        {
          "attributes": {
            "NORMAL": 56,
            "POSITION": 55,
            "TEXCOORD_0": 57
          },
          "indices": 58,
          "material": 14
        }
      ]
    },
    {
      "name": "F01_OWN_STREET_furniture_asphalt-col",
      "primitives": [
        {
          "attributes": {
            "NORMAL": 60,
            "POSITION": 59,
            "TEXCOORD_0": 61
          },
          "indices": 19,
          "material": 20
        }
      ]
    },
    {
      "name": "F01_OWN_STREET_furniture_brass_mesh-col",
      "primitives": [
        {
          "attributes": {
            "NORMAL": 63,
            "POSITION": 62,
            "TEXCOORD_0": 64
          },
          "indices": 10,
          "material": 16
        }
      ]
    },
    {
      "name": "F01_OWN_STREET_furniture_brick_patched-col",
      "primitives": [
        {
          "attributes": {
            "NORMAL": 66,
            "POSITION": 65,
            "TEXCOORD_0": 67
          },
          "indices": 0,
          "material": 21
        }
      ]
    },
    {
      "name": "F01_OWN_STREET_furniture_bronze-col",
      "primitives": [
        {
          "attributes": {
            "NORMAL": 69,
            "POSITION": 68,
            "TEXCOORD_0": 70
          },
          "indices": 71,
          "material": 18
        }
      ]
    },
    {
      "name": "F01_OWN_STREET_furniture_common_brick-col",
      "primitives": [
        {
          "attributes": {
            "NORMAL": 73,
            "POSITION": 72,
            "TEXCOORD_0": 74
          },
          "indices": 18,
          "material": 6
        }
      ]
    },
    {
      "name": "F01_OWN_STREET_furniture_concrete-col",
      "primitives": [
        {
          "attributes": {
            "NORMAL": 76,
            "POSITION": 75,
            "TEXCOORD_0": 77
          },
          "indices": 7,
          "material": 8
        }
      ]
    },
    {
      "name": "F01_OWN_STREET_furniture_fabric_cool-col",
      "primitives": [
        {
          "attributes": {
            "NORMAL": 79,
            "POSITION": 78,
            "TEXCOORD_0": 80
          },
          "indices": 1,
          "material": 10
        }
      ]
    },
    {
      "name": "F01_OWN_STREET_furniture_face_brick-col",
      "primitives": [
        {
          "attributes": {
            "NORMAL": 82,
            "POSITION": 81,
            "TEXCOORD_0": 83
          },
          "indices": 5,
          "material": 7
        }
      ]
    },
    {
      "name": "F01_OWN_STREET_furniture_glassish-col",
      "primitives": [
        {
          "attributes": {
            "NORMAL": 85,
            "POSITION": 84,
            "TEXCOORD_0": 86
          },
          "indices": 1,
          "material": 2
        }
      ]
    },
    {
      "name": "F01_OWN_STREET_furniture_lacquer_red-col",
      "primitives": [
        {
          "attributes": {
            "NORMAL": 88,
            "POSITION": 87,
            "TEXCOORD_0": 89
          },
          "indices": 13,
          "material": 17
        }
      ]
    },
    {
      "name": "F01_OWN_STREET_furniture_leaf_fall-col",
      "primitives": [
        {
          "attributes": {
            "NORMAL": 91,
            "POSITION": 90,
            "TEXCOORD_0": 92
          },
          "indices": 93,
          "material": 22
        }
      ]
    },
    {
      "name": "F01_OWN_STREET_furniture_limestone-col",
      "primitives": [
        {
          "attributes": {
            "NORMAL": 95,
            "POSITION": 94,
            "TEXCOORD_0": 96
          },
          "indices": 14,
          "material": 5
        }
      ]
    },
    {
      "name": "F01_OWN_STREET_furniture_linen-col",
      "primitives": [
        {
          "attributes": {
            "NORMAL": 98,
            "POSITION": 97,
            "TEXCOORD_0": 99
          },
          "indices": 100,
          "material": 13
        }
      ]
    },
    {
      "name": "F01_OWN_STREET_furniture_metal-col",
      "primitives": [
        {
          "attributes": {
            "NORMAL": 102,
            "POSITION": 101,
            "TEXCOORD_0": 103
          },
          "indices": 104,
          "material": 0
        }
      ]
    },
    {
      "name": "F01_OWN_STREET_furniture_puddle-col",
      "primitives": [
        {
          "attributes": {
            "NORMAL": 106,
            "POSITION": 105,
            "TEXCOORD_0": 107
          },
          "indices": 108,
          "material": 23
        }
      ]
    },
    {
      "name": "F01_OWN_STREET_furniture_sidewalk_grout-col",
      "primitives": [
        {
          "attributes": {
            "NORMAL": 110,
            "POSITION": 109,
            "TEXCOORD_0": 111
          },
          "indices": 1,
          "material": 24
        }
      ]
    },
    {
      "name": "F01_OWN_STREET_furniture_sidewalk_haunted",
      "primitives": [
        {
          "attributes": {
            "NORMAL": 113,
            "POSITION": 112,
            "TEXCOORD_0": 114
          },
          "indices": 115,
          "material": 25
        }
      ]
    },
    {
      "name": "F01_OWN_STREET_furniture_sidewalk_kerb-col",
      "primitives": [
        {
          "attributes": {
            "NORMAL": 117,
            "POSITION": 116,
            "TEXCOORD_0": 118
          },
          "indices": 119,
          "material": 8
        }
      ]
    },
    {
      "name": "F01_OWN_STREET_furniture_soot-col",
      "primitives": [
        {
          "attributes": {
            "NORMAL": 121,
            "POSITION": 120,
            "TEXCOORD_0": 122
          },
          "indices": 12,
          "material": 4
        }
      ]
    },
    {
      "name": "F01_OWN_STREET_furniture_timber-col",
      "primitives": [
        {
          "attributes": {
            "NORMAL": 124,
            "POSITION": 123,
            "TEXCOORD_0": 125
          },
          "indices": 17,
          "material": 14
        }
      ]
    },
    {
      "name": "F01_OWN_STREET_furniture_wet_asphalt-col",
      "primitives": [
        {
          "attributes": {
            "NORMAL": 127,
            "POSITION": 126,
            "TEXCOORD_0": 128
          },
          "indices": 9,
          "material": 26
        }
      ]
    },
    {
      "name": "F01_OWN_STREET_retail_passage_proxy_common_brick-col",
      "primitives": [
        {
          "attributes": {
            "NORMAL": 130,
            "POSITION": 129,
            "TEXCOORD_0": 131
          },
          "indices": 1,
          "material": 6
        }
      ]
    },
    {
      "name": "F01_OWN_STREET_retail_passage_proxy_gateway_cast_iron",
      "primitives": [
        {
          "attributes": {
            "NORMAL": 133,
            "POSITION": 132,
            "TEXCOORD_0": 134
          },
          "indices": 135,
          "material": 1
        }
      ]
    },
    {
      "name": "F01_OWN_STREET_retail_passage_proxy_gateway_cast_iron-col",
      "primitives": [
        {
          "attributes": {
            "NORMAL": 137,
            "POSITION": 136,
            "TEXCOORD_0": 138
          },
          "indices": 139,
          "material": 1
        }
      ]
    },
    {
      "name": "F01_OWN_STREET_retail_passage_proxy_gateway_common_brick-col",
      "primitives": [
        {
          "attributes": {
            "NORMAL": 141,
            "POSITION": 140,
            "TEXCOORD_0": 142
          },
          "indices": 11,
          "material": 6
        }
      ]
    },
    {
      "name": "F01_OWN_STREET_retail_passage_proxy_gateway_face_brick-col",
      "primitives": [
        {
          "attributes": {
            "NORMAL": 144,
            "POSITION": 143,
            "TEXCOORD_0": 145
          },
          "indices": 15,
          "material": 7
        }
      ]
    },
    {
      "name": "F01_OWN_STREET_retail_passage_proxy_gateway_glassish-col",
      "primitives": [
        {
          "attributes": {
            "NORMAL": 147,
            "POSITION": 146,
            "TEXCOORD_0": 148
          },
          "indices": 15,
          "material": 2
        }
      ]
    },
    {
      "name": "F01_OWN_STREET_retail_passage_proxy_gateway_limestone-col",
      "primitives": [
        {
          "attributes": {
            "NORMAL": 150,
            "POSITION": 149,
            "TEXCOORD_0": 151
          },
          "indices": 152,
          "material": 5
        }
      ]
    },
    {
      "name": "F01_OWN_STREET_retail_passage_proxy_gateway_soot-col",
      "primitives": [
        {
          "attributes": {
            "NORMAL": 154,
            "POSITION": 153,
            "TEXCOORD_0": 155
          },
          "indices": 156,
          "material": 4
        }
      ]
    },
    {
      "name": "F01_OWN_STREET_retail_passage_proxy_gateway_subway_tile-col",
      "primitives": [
        {
          "attributes": {
            "NORMAL": 158,
            "POSITION": 157,
            "TEXCOORD_0": 159
          },
          "indices": 2,
          "material": 15
        }
      ]
    },
    {
      "name": "F01_OWN_STREET_retail_passage_proxy_glassish-col",
      "primitives": [
        {
          "attributes": {
            "NORMAL": 161,
            "POSITION": 160,
            "TEXCOORD_0": 162
          },
          "indices": 2,
          "material": 2
        }
      ]
    },
    {
      "name": "F01_OWN_STREET_retail_passage_proxy_limestone-col",
      "primitives": [
        {
          "attributes": {
            "NORMAL": 164,
            "POSITION": 163,
            "TEXCOORD_0": 165
          },
          "indices": 16,
          "material": 5
        }
      ]
    },
    {
      "name": "F01_OWN_STREET_retail_passage_proxy_metal-col",
      "primitives": [
        {
          "attributes": {
            "NORMAL": 167,
            "POSITION": 166,
            "TEXCOORD_0": 168
          },
          "indices": 4,
          "material": 0
        }
      ]
    },
    {
      "name": "F01_OWN_STREET_retail_site_metal-col",
      "primitives": [
        {
          "attributes": {
            "NORMAL": 170,
            "POSITION": 169,
            "TEXCOORD_0": 171
          },
          "indices": 2,
          "material": 0
        }
      ]
    },
    {
      "name": "F01_OWN_STREET_retail_site_plywood-col",
      "primitives": [
        {
          "attributes": {
            "NORMAL": 173,
            "POSITION": 172,
            "TEXCOORD_0": 174
          },
          "indices": 3,
          "material": 3
        }
      ]
    },
    {
      "name": "F01_OWN_STREET_retail_site_road_paint-col",
      "primitives": [
        {
          "attributes": {
            "NORMAL": 176,
            "POSITION": 175,
            "TEXCOORD_0": 177
          },
          "indices": 8,
          "material": 27
        }
      ]
    },
    {
      "name": "F01_OWN_STREET_retail_site_soot-col",
      "primitives": [
        {
          "attributes": {
            "NORMAL": 179,
            "POSITION": 178,
            "TEXCOORD_0": 180
          },
          "indices": 2,
          "material": 4
        }
      ]
    },
    {
      "name": "F01_OWN_STREET_transit_shelter_cast_iron-col",
      "primitives": [
        {
          "attributes": {
            "NORMAL": 182,
            "POSITION": 181,
            "TEXCOORD_0": 183
          },
          "indices": 4,
          "material": 1
        }
      ]
    },
    {
      "name": "F01_OWN_STREET_transit_shelter_glassish-col",
      "primitives": [
        {
          "attributes": {
            "NORMAL": 185,
            "POSITION": 184,
            "TEXCOORD_0": 186
          },
          "indices": 1,
          "material": 2
        }
      ]
    },
    {
      "name": "F01_OWN_STREET_transit_shelter_timber-col",
      "primitives": [
        {
          "attributes": {
            "NORMAL": 188,
            "POSITION": 187,
            "TEXCOORD_0": 189
          },
          "indices": 1,
          "material": 14
        }
      ]
    },
    {
      "name": "F01_OWN_STREET_transit_shelter_zinc_liner-col",
      "primitives": [
        {
          "attributes": {
            "NORMAL": 191,
            "POSITION": 190,
            "TEXCOORD_0": 192
          },
          "indices": 1,
          "material": 19
        }
      ]
    }
  ],
  "nodes": [
    {
      "mesh": 0,
      "name": "F01_OWN_STREET_furnish_brass_dull"
    },
    {
      "mesh": 1,
      "name": "F01_OWN_STREET_furnish_bronze"
    },
    {
      "mesh": 2,
      "name": "F01_OWN_STREET_furnish_cast_iron"
    },
    {
      "mesh": 3,
      "name": "F01_OWN_STREET_furnish_concrete"
    },
    {
      "mesh": 4,
      "name": "F01_OWN_STREET_furnish_fx_shadow"
    },
    {
      "mesh": 5,
      "name": "F01_OWN_STREET_furnish_glassish"
    },
    {
      "mesh": 6,
      "name": "F01_OWN_STREET_furnish_hull-colonly"
    },
    {
      "mesh": 7,
      "name": "F01_OWN_STREET_furnish_metal"
    },
    {
      "mesh": 8,
      "name": "F01_OWN_STREET_furnish_soot"
    },
    {
      "mesh": 9,
      "name": "F01_OWN_STREET_furnish_timber"
    },
    {
      "mesh": 10,
      "name": "F01_OWN_STREET_furniture_asphalt-col"
    },
    {
      "mesh": 11,
      "name": "F01_OWN_STREET_furniture_brass_mesh-col"
    },
    {
      "mesh": 12,
      "name": "F01_OWN_STREET_furniture_brick_patched-col"
    },
    {
      "mesh": 13,
      "name": "F01_OWN_STREET_furniture_bronze-col"
    },
    {
      "mesh": 14,
      "name": "F01_OWN_STREET_furniture_common_brick-col"
    },
    {
      "mesh": 15,
      "name": "F01_OWN_STREET_furniture_concrete-col"
    },
    {
      "mesh": 16,
      "name": "F01_OWN_STREET_furniture_fabric_cool-col"
    },
    {
      "mesh": 17,
      "name": "F01_OWN_STREET_furniture_face_brick-col"
    },
    {
      "mesh": 18,
      "name": "F01_OWN_STREET_furniture_glassish-col"
    },
    {
      "mesh": 19,
      "name": "F01_OWN_STREET_furniture_lacquer_red-col"
    },
    {
      "mesh": 20,
      "name": "F01_OWN_STREET_furniture_leaf_fall-col"
    },
    {
      "mesh": 21,
      "name": "F01_OWN_STREET_furniture_limestone-col"
    },
    {
      "mesh": 22,
      "name": "F01_OWN_STREET_furniture_linen-col"
    },
    {
      "mesh": 23,
      "name": "F01_OWN_STREET_furniture_metal-col"
    },
    {
      "mesh": 24,
      "name": "F01_OWN_STREET_furniture_puddle-col"
    },
    {
      "mesh": 25,
      "name": "F01_OWN_STREET_furniture_sidewalk_grout-col"
    },
    {
      "mesh": 26,
      "name": "F01_OWN_STREET_furniture_sidewalk_haunted"
    },
    {
      "mesh": 27,
      "name": "F01_OWN_STREET_furniture_sidewalk_kerb-col"
    },
    {
      "mesh": 28,
      "name": "F01_OWN_STREET_furniture_soot-col"
    },
    {
      "mesh": 29,
      "name": "F01_OWN_STREET_furniture_timber-col"
    },
    {
      "mesh": 30,
      "name": "F01_OWN_STREET_furniture_wet_asphalt-col"
    },
    {
      "mesh": 31,
      "name": "F01_OWN_STREET_retail_passage_proxy_common_brick-col"
    },
    {
      "mesh": 32,
      "name": "F01_OWN_STREET_retail_passage_proxy_gateway_cast_iron"
    },
    {
      "mesh": 33,
      "name": "F01_OWN_STREET_retail_passage_proxy_gateway_cast_iron-col"
    },
    {
      "mesh": 34,
      "name": "F01_OWN_STREET_retail_passage_proxy_gateway_common_brick-col"
    },
    {
      "mesh": 35,
      "name": "F01_OWN_STREET_retail_passage_proxy_gateway_face_brick-col"
    },
    {
      "mesh": 36,
      "name": "F01_OWN_STREET_retail_passage_proxy_gateway_glassish-col"
    },
    {
      "mesh": 37,
      "name": "F01_OWN_STREET_retail_passage_proxy_gateway_limestone-col"
    },
    {
      "mesh": 38,
      "name": "F01_OWN_STREET_retail_passage_proxy_gateway_soot-col"
    },
    {
      "mesh": 39,
      "name": "F01_OWN_STREET_retail_passage_proxy_gateway_subway_tile-col"
    },
    {
      "mesh": 40,
      "name": "F01_OWN_STREET_retail_passage_proxy_glassish-col"
    },
    {
      "mesh": 41,
      "name": "F01_OWN_STREET_retail_passage_proxy_limestone-col"
    },
    {
      "mesh": 42,
      "name": "F01_OWN_STREET_retail_passage_proxy_metal-col"
    },
    {
      "mesh": 43,
      "name": "F01_OWN_STREET_retail_site_metal-col"
    },
    {
      "mesh": 44,
      "name": "F01_OWN_STREET_retail_site_plywood-col"
    },
    {
      "mesh": 45,
      "name": "F01_OWN_STREET_retail_site_road_paint-col"
    },
    {
      "mesh": 46,
      "name": "F01_OWN_STREET_retail_site_soot-col"
    },
    {
      "mesh": 47,
      "name": "F01_OWN_STREET_transit_shelter_cast_iron-col"
    },
    {
      "mesh": 48,
      "name": "F01_OWN_STREET_transit_shelter_glassish-col"
    },
    {
      "mesh": 49,
      "name": "F01_OWN_STREET_transit_shelter_timber-col"
    },
    {
      "mesh": 50,
      "name": "F01_OWN_STREET_transit_shelter_zinc_liner-col"
    }
  ],
  "samplers": [
    {
      "magFilter": 9729,
      "minFilter": 9987
    }
  ],
  "scene": 0,
  "scenes": [
    {
      "name": "Scene_site_street_common",
      "nodes": [
        0,
        1,
        2,
        3,
        4,
        5,
        6,
        7,
        8,
        9,
        10,
        11,
        12,
        13,
        14,
        15,
        16,
        17,
        18,
        19,
        20,
        21,
        22,
        23,
        24,
        25,
        26,
        27,
        28,
        29,
        30,
        31,
        32,
        33,
        34,
        35,
        36,
        37,
        38,
        39,
        40,
        41,
        42,
        43,
        44,
        45,
        46,
        47,
        48,
        49,
        50
      ]
    }
  ],
  "textures": [
    {
      "sampler": 0,
      "source": 0
    },
    {
      "sampler": 0,
      "source": 1
    },
    {
      "sampler": 0,
      "source": 2
    },
    {
      "sampler": 0,
      "source": 3
    },
    {
      "sampler": 0,
      "source": 4
    },
    {
      "sampler": 0,
      "source": 5
    },
    {
      "sampler": 0,
      "source": 6
    },
    {
      "sampler": 0,
      "source": 7
    },
    {
      "sampler": 0,
      "source": 8
    },
    {
      "sampler": 0,
      "source": 9
    },
    {
      "sampler": 0,
      "source": 10
    },
    {
      "sampler": 0,
      "source": 11
    },
    {
      "sampler": 0,
      "source": 12
    },
    {
      "sampler": 0,
      "source": 13
    },
    {
      "sampler": 0,
      "source": 14
    },
    {
      "sampler": 0,
      "source": 15
    },
    {
      "sampler": 0,
      "source": 16
    },
    {
      "sampler": 0,
      "source": 17
    },
    {
      "sampler": 0,
      "source": 18
    },
    {
      "sampler": 0,
      "source": 19
    },
    {
      "sampler": 0,
      "source": 20
    },
    {
      "sampler": 0,
      "source": 21
    },
    {
      "sampler": 0,
      "source": 22
    },
    {
      "sampler": 0,
      "source": 23
    },
    {
      "sampler": 0,
      "source": 24
    },
    {
      "sampler": 0,
      "source": 25
    },
    {
      "sampler": 0,
      "source": 26
    },
    {
      "sampler": 0,
      "source": 27
    },
    {
      "sampler": 0,
      "source": 28
    },
    {
      "sampler": 0,
      "source": 29
    },
    {
      "sampler": 0,
      "source": 30
    },
    {
      "sampler": 0,
      "source": 31
    },
    {
      "sampler": 0,
      "source": 32
    },
    {
      "sampler": 0,
      "source": 33
    },
    {
      "sampler": 0,
      "source": 34
    },
    {
      "sampler": 0,
      "source": 35
    },
    {
      "sampler": 0,
      "source": 36
    },
    {
      "sampler": 0,
      "source": 37
    },
    {
      "sampler": 0,
      "source": 38
    },
    {
      "sampler": 0,
      "source": 39
    },
    {
      "sampler": 0,
      "source": 40
    },
    {
      "sampler": 0,
      "source": 41
    },
    {
      "sampler": 0,
      "source": 42
    },
    {
      "sampler": 0,
      "source": 43
    },
    {
      "sampler": 0,
      "source": 44
    },
    {
      "sampler": 0,
      "source": 45
    },
    {
      "sampler": 0,
      "source": 46
    },
    {
      "sampler": 0,
      "source": 47
    },
    {
      "sampler": 0,
      "source": 48
    },
    {
      "sampler": 0,
      "source": 49
    },
    {
      "sampler": 0,
      "source": 50
    },
    {
      "sampler": 0,
      "source": 51
    },
    {
      "sampler": 0,
      "source": 52
    },
    {
      "sampler": 0,
      "source": 53
    },
    {
      "sampler": 0,
      "source": 54
    },
    {
      "sampler": 0,
      "source": 55
    },
    {
      "sampler": 0,
      "source": 56
    },
    {
      "sampler": 0,
      "source": 57
    },
    {
      "sampler": 0,
      "source": 58
    },
    {
      "sampler": 0,
      "source": 59
    },
    {
      "sampler": 0,
      "source": 60
    },
    {
      "sampler": 0,
      "source": 61
    },
    {
      "sampler": 0,
      "source": 62
    },
    {
      "sampler": 0,
      "source": 63
    },
    {
      "sampler": 0,
      "source": 64
    },
    {
      "sampler": 0,
      "source": 65
    },
    {
      "sampler": 0,
      "source": 66
    },
    {
      "sampler": 0,
      "source": 67
    },
    {
      "sampler": 0,
      "source": 68
    },
    {
      "sampler": 0,
      "source": 69
    },
    {
      "sampler": 0,
      "source": 70
    },
    {
      "sampler": 0,
      "source": 71
    },
    {
      "sampler": 0,
      "source": 72
    },
    {
      "sampler": 0,
      "source": 73
    },
    {
      "sampler": 0,
      "source": 74
    },
    {
      "sampler": 0,
      "source": 75
    },
    {
      "sampler": 0,
      "source": 76
    },
    {
      "sampler": 0,
      "source": 77
    },
    {
      "sampler": 0,
      "source": 78
    },
    {
      "sampler": 0,
      "source": 79
    },
    {
      "sampler": 0,
      "source": 80
    }
  ]
}
