{"asset":{"generator":"Khronos glTF Blender I/O v5.2.39","version":"2.0"},"extensionsUsed":["KHR_materials_specular"],"scene":0,"scenes":[{"name":"Scene","nodes":[25]}],"nodes":[{"name":"LeftToeBase","rotation":[-0.3404845595359802,-0.028830135241150856,-0.010445402935147285,0.9397500157356262],"scale":[0.9999999403953552,0.9999997019767761,0.9999999403953552],"translation":[4.3213367462158203e-07,14.001260757446289,-1.7940998077392578e-05]},{"children":[0],"name":"LeftFoot","rotation":[-0.4623631238937378,-0.03385617211461067,0.0003365197335369885,0.8860440254211426],"scale":[1.0000001192092896,1.0000001192092896,1],"translation":[3.069639205932617e-06,38.40471267700195,-1.1920928955078125e-07]},{"children":[1],"name":"LeftLeg","rotation":[0.022865060716867447,0.014745491556823254,0.011886305175721645,0.9995591640472412],"scale":[0.9999999403953552,0.9999999403953552,1],"translation":[6.4820051193237305e-06,36.47615432739258,1.2874603271484375e-05]},{"children":[2],"name":"LeftUpLeg","rotation":[0.41171279549598694,-0.425654798746109,-0.5539582967758179,0.5851844549179077],"scale":[1.0000001192092896,0.9999997615814209,0.9999997615814209],"translation":[3.8565335273742676,-7.2339935302734375,9.490182876586914]},{"name":"RightToeBase","rotation":[-0.3457318842411041,0.037884920835494995,0.013971365988254547,0.9374641180038452],"scale":[0.9999998807907104,0.9999999403953552,1],"translation":[-2.3543834686279297e-06,14.35780143737793,1.1920928955078125e-07]},{"children":[4],"name":"RightFoot","rotation":[-0.45775309205055237,0.050337862223386765,0.01897805742919445,0.8874503374099731],"scale":[1.0000001192092896,0.9999999403953552,1],"translation":[-2.9802322387695312e-08,38.03374481201172,5.960464477539062e-07]},{"children":[5],"name":"RightLeg","rotation":[0.025122979655861855,-0.01665915921330452,-0.01363266073167324,0.9994525909423828],"scale":[1,0.9999998807907104,0.9999999403953552],"translation":[1.2293457984924316e-06,36.457008361816406,1.4424324035644531e-05]},{"children":[6],"name":"RightUpLeg","rotation":[0.42245811223983765,-0.40348193049430847,-0.455696702003479,0.6716189384460449],"scale":[1,1,0.9999999403953552],"translation":[1.3995099067687988,9.282035827636719,7.775463104248047]},{"name":"LeftHand","rotation":[0.01632947102189064,0.1071244329214096,0.16208676993846893,0.9808086156845093],"scale":[1,1.000000238418579,1],"translation":[-5.781650543212891e-06,23.285032272338867,-7.3909759521484375e-06]},{"children":[8],"name":"LeftForeArm","rotation":[-0.18202008306980133,-0.06294291466474533,0.025513213127851486,0.9809465408325195],"scale":[0.9999998807907104,0.9999999403953552,0.9999999403953552],"translation":[-1.0251998901367188e-05,24.472612380981445,8.106231689453125e-06]},{"children":[9],"name":"LeftArm","rotation":[0.44313982129096985,0.47649189829826355,0.27808842062950134,0.706575870513916],"scale":[0.9999999403953552,0.9999999403953552,0.9999998807907104],"translation":[5.76638376514893e-06,13.683658599853516,-4.5739008783129975e-05]},{"children":[10],"name":"LeftShoulder","rotation":[0.5223263502120972,0.561638355255127,-0.4687078893184662,0.43823567032814026],"scale":[0.9999998211860657,1.0000001192092896,1],"translation":[3.406702756881714,2.953165292739868,-0.46980154514312744]},{"name":"head_end","rotation":[-0.22621038556098938,-7.200698259879346e-09,-0.002435985254123807,0.974075436592102],"translation":[0.0921185314655304,17.42426300048828,-8.554313659667969]},{"name":"headfront","rotation":[0.3982270658016205,-3.591667407931709e-08,0.004288351628929377,0.917276918888092],"translation":[-0.0921187624335289,7.994884014129639,8.55435562133789]},{"children":[12,13],"name":"Head","rotation":[0.4040592312812805,-6.0888967709615827e-05,0.004491419065743685,0.9147217869758606],"scale":[1,0.9999998807907104,0.9999998807907104],"translation":[-1.862645149230957e-08,6.822478771209717,-6.759539246559143e-06]},{"children":[14],"name":"neck","rotation":[0.04855065047740936,0.004930539056658745,-0.004016696009784937,0.9988004565238953],"scale":[0.9999998211860657,1.0000001192092896,0.9999999403953552],"translation":[0.08303287625312805,9.719326972961426,0.9467374682426453]},{"name":"RightHand","rotation":[0.01098710484802723,-0.10022202134132385,-0.15525667369365692,0.9827157855033875],"scale":[1,0.9999999403953552,1],"translation":[3.1322240829467773e-05,23.12944793701172,1.8656253814697266e-05]},{"children":[16],"name":"RightForeArm","rotation":[-0.19318318367004395,0.090950146317482,0.006260046735405922,0.9769181609153748],"scale":[0.9999998807907104,1,0.9999998807907104],"translation":[-2.384185791015625e-06,23.997819900512695,2.384185791015625e-06]},{"children":[17],"name":"RightArm","rotation":[0.45223909616470337,-0.4851568341255188,-0.2958938777446747,0.6874223351478577],"scale":[1,0.9999998211860657,1],"translation":[-5.205311026657e-08,13.972500801086426,1.9641004200821044e-07]},{"children":[18],"name":"RightShoulder","rotation":[0.5229716897010803,-0.5610374808311462,0.47053563594818115,0.43627265095710754],"scale":[0.9999998807907104,0.9999997019767761,0.9999999403953552],"translation":[-3.489734411239624,2.9360690116882324,-0.4769456386566162]},{"children":[11,15,19],"name":"Spine","rotation":[-0.048525501042604446,-0.0013951141154393554,0.0010589862940832973,0.998820424079895],"scale":[1,0.9999998807907104,1.0000001192092896],"translation":[-3.725290298461914e-09,12.901200294494629,-5.3942203521728516e-06]},{"children":[20],"name":"Spine01","rotation":[-6.886192949195902e-08,-7.80710180947608e-08,1.9681463570009328e-08,1],"scale":[1.0000001192092896,1.0000001192092896,1.0000001192092896],"translation":[1.0943040251731873e-06,12.901224136352539,-1.3944343663752079e-05]},{"children":[21],"name":"Spine02","rotation":[-0.6568955779075623,0.5294042825698853,-0.38452866673469543,0.37464258074760437],"scale":[1,0.9999997615814209,0.9999998807907104],"translation":[-5.256016254425049,-2.048044204711914,-11.602654457092285]},{"children":[3,7,22],"name":"Hips","rotation":[0.640956699848175,-0.5142161250114441,0.4029618203639984,0.40296173095703125],"scale":[0.9999999403953552,0.9999999403953552,0.9999999403953552],"translation":[0,96.22493743896484,1.1881747245788574]},{"mesh":0,"name":"char1","skin":0},{"children":[24,23],"name":"Armature","scale":[0.009999999776482582,0.009999999776482582,0.009999999776482582]}],"materials":[{"alphaMode":"BLEND","doubleSided":true,"extensions":{"KHR_materials_specular":{"specularColorFactor":[1.0,1.0,1.0]}},"name":"Material_1","pbrMetallicRoughness":{"baseColorTexture":{"index":1}}}],"meshes":[{"name":"char1","primitives":[{"attributes":{"POSITION":0,"NORMAL":1,"TEXCOORD_0":2,"JOINTS_0":3,"WEIGHTS_0":4},"indices":5,"material":0}]}],"textures":[{"sampler":0,"source":0},{"sampler":0,"source":0}],"images":[{"mimeType":"image/png","name":"texture_0","uri":"texture_0.png"}],"skins":[{"inverseBindMatrices":6,"joints":[23,3,2,1,0,7,6,5,4,22,21,20,11,10,9,8,15,14,12,13,19,18,17,16],"name":"Armature"}],"accessors":[{"bufferView":0,"componentType":5126,"count":31442,"max":[0.4767237603664398,1.699995756149292,0.156646266579628],"min":[-0.4766487777233124,1.2991974472242873e-05,-0.15658150613307953],"type":"VEC3"},{"bufferView":1,"componentType":5126,"count":31442,"type":"VEC3"},{"bufferView":2,"componentType":5126,"count":31442,"type":"VEC2"},{"bufferView":3,"componentType":5121,"count":31442,"type":"VEC4"},{"bufferView":4,"componentType":5126,"count":31442,"type":"VEC4"},{"bufferView":5,"componentType":5123,"count":119997,"type":"SCALAR"},{"bufferView":6,"componentType":5126,"count":24,"type":"MAT4"}],"bufferViews":[{"buffer":0,"byteLength":377304,"byteOffset":0,"target":34962},{"buffer":0,"byteLength":377304,"byteOffset":377304,"target":34962},{"buffer":0,"byteLength":251536,"byteOffset":754608,"target":34962},{"buffer":0,"byteLength":125768,"byteOffset":1006144,"target":34962},{"buffer":0,"byteLength":503072,"byteOffset":1131912,"target":34962},{"buffer":0,"byteLength":239994,"byteOffset":1634984,"target":34963},{"buffer":0,"byteLength":1536,"byteOffset":1874980}],"samplers":[{"magFilter":9729,"minFilter":9987}],"buffers":[{"byteLength":1876516,"uri":"jonah_price.bin"}]}