{
	"asset":{
		"generator":"Khronos glTF Blender I/O v5.2.39",
		"version":"2.0"
	},
	"extensionsUsed":[
		"KHR_materials_specular"
	],
	"scene":0,
	"scenes":[
		{
			"name":"Scene",
			"nodes":[
				25
			]
		}
	],
	"nodes":[
		{
			"name":"LeftToeBase",
			"rotation":[
				-0.41198092699050903,
				-0.021359669044613838,
				-0.00966481864452362,
				0.9108908176422119
			],
			"scale":[
				1.0000001192092896,
				1,
				0.9999999403953552
			],
			"translation":[
				1.4454126358032227e-06,
				13.972856521606445,
				1.4901161193847656e-06
			]
		},
		{
			"children":[
				0
			],
			"name":"LeftFoot",
			"rotation":[
				-0.40130487084388733,
				-0.0045285914093256,
				0.02651185169816017,
				0.9155495762825012
			],
			"scale":[
				0.9999999403953552,
				0.9999998807907104,
				0.9999999403953552
			],
			"translation":[
				2.384185791015625e-07,
				38.86142349243164,
				4.76837158203125e-07
			]
		},
		{
			"children":[
				1
			],
			"name":"LeftLeg",
			"rotation":[
				0.006993416231125593,
				0.009899506345391273,
				0.008349599316716194,
				0.9998916983604431
			],
			"scale":[
				1,
				1.0000001192092896,
				1
			],
			"translation":[
				2.0265579223632812e-06,
				36.011322021484375,
				9.000301361083984e-06
			]
		},
		{
			"children":[
				2
			],
			"name":"LeftUpLeg",
			"rotation":[
				-0.5094888806343079,
				-0.6608629822731018,
				0.40266725420951843,
				0.3762184977531433
			],
			"scale":[
				1,
				1.0000001192092896,
				1
			],
			"translation":[
				2.821566104888916,
				8.918651580810547,
				-7.934607982635498
			]
		},
		{
			"name":"RightToeBase",
			"rotation":[
				-0.41640621423721313,
				0.029138173907995224,
				0.01335150096565485,
				0.9086136221885681
			],
			"scale":[
				0.9999999403953552,
				0.9999999403953552,
				1
			],
			"translation":[
				-1.1622905731201172e-06,
				14.345120429992676,
				8.940696716308594e-07
			]
		},
		{
			"children":[
				4
			],
			"name":"RightFoot",
			"rotation":[
				-0.39949798583984375,
				0.016176737844944,
				-0.012785578146576881,
				0.9165021777153015
			],
			"scale":[
				1.0000001192092896,
				1.0000001192092896,
				1.0000001192092896
			],
			"translation":[
				2.086162567138672e-07,
				38.12687683105469,
				3.5762786865234375e-07
			]
		},
		{
			"children":[
				5
			],
			"name":"RightLeg",
			"rotation":[
				0.011047491803765297,
				-0.015595744363963604,
				-0.013135738670825958,
				0.9997310638427734
			],
			"scale":[
				0.9999999403953552,
				0.9999997615814209,
				0.9999998211860657
			],
			"translation":[
				-3.129243850708008e-06,
				36.31443405151367,
				1.9311904907226562e-05
			]
		},
		{
			"children":[
				6
			],
			"name":"RightUpLeg",
			"rotation":[
				-0.608753502368927,
				-0.5673024654388428,
				0.3811527192592621,
				0.4028765857219696
			],
			"scale":[
				1.0000001192092896,
				1.000000238418579,
				1.0000001192092896
			],
			"translation":[
				4.011391639709473,
				-8.02702522277832,
				-8.696805000305176
			]
		},
		{
			"name":"LeftHand",
			"rotation":[
				-0.010364110581576824,
				0.09045235067605972,
				0.1389140635728836,
				0.9861104488372803
			],
			"scale":[
				0.9999999403953552,
				0.9999999403953552,
				1
			],
			"translation":[
				1.0272487998008728e-05,
				22.903244018554688,
				1.7605721950531006e-05
			]
		},
		{
			"children":[
				8
			],
			"name":"LeftForeArm",
			"rotation":[
				-0.21199259161949158,
				-0.043456897139549255,
				0.03774448484182358,
				0.9755746722221375
			],
			"translation":[
				1.1920928955078125e-06,
				24.645008087158203,
				7.152557373046875e-07
			]
		},
		{
			"children":[
				9
			],
			"name":"LeftArm",
			"rotation":[
				0.46964380145072937,
				0.5300092697143555,
				0.3183090090751648,
				0.6302414536476135
			],
			"scale":[
				0.9999999403953552,
				0.9999997019767761,
				0.9999998807907104
			],
			"translation":[
				3.2832285796757787e-06,
				12.41923999786377,
				-3.0433548090513796e-05
			]
		},
		{
			"children":[
				10
			],
			"name":"LeftShoulder",
			"rotation":[
				0.5431938767433167,
				0.6130128502845764,
				-0.4373646676540375,
				0.3713054955005646
			],
			"scale":[
				1.0000001192092896,
				1.0000001192092896,
				1.0000001192092896
			],
			"translation":[
				3.0943515300750732,
				2.065389633178711,
				-0.8847129344940186
			]
		},
		{
			"name":"head_end",
			"rotation":[
				-0.2629484236240387,
				-1.2794550308115049e-08,
				1.7981255373555882e-09,
				0.9648098945617676
			],
			"scale":[
				1,
				1.0000001192092896,
				0.9999998211860657
			],
			"translation":[
				-1.1062466853672959e-07,
				15.907990455627441,
				-9.366867065429688
			]
		},
		{
			"name":"headfront",
			"rotation":[
				0.43031981587409973,
				6.548688702423533e-08,
				1.8972496462765776e-08,
				0.902676522731781
			],
			"scale":[
				1,
				0.9999998807907104,
				0.9999999403953552
			],
			"translation":[
				1.3808600840548024e-07,
				7.591684818267822,
				9.366872787475586
			]
		},
		{
			"children":[
				12,
				13
			],
			"name":"Head",
			"rotation":[
				0.3745862543582916,
				1.2112426617250094e-08,
				-9.330854311428993e-09,
				0.9271920919418335
			],
			"scale":[
				1,
				1.0000001192092896,
				1
			],
			"translation":[
				5.162909246791969e-07,
				11.166237831115723,
				2.260538849441218e-06
			]
		},
		{
			"children":[
				14
			],
			"name":"neck",
			"rotation":[
				0.1306782215833664,
				0.008962547406554222,
				-0.008216548711061478,
				0.9913502931594849
			],
			"scale":[
				1.0000001192092896,
				1.0000001192092896,
				1.0000001192092896
			],
			"translation":[
				0.11933153867721558,
				6.184597015380859,
				1.6583523750305176
			]
		},
		{
			"name":"RightHand",
			"rotation":[
				-0.015564863570034504,
				-0.0723453238606453,
				-0.1148090586066246,
				0.9906274676322937
			],
			"scale":[
				1.0000001192092896,
				0.9999997615814209,
				1
			],
			"translation":[
				-3.6563724279403687e-06,
				23.39305877685547,
				-2.7321279048919678e-05
			]
		},
		{
			"children":[
				16
			],
			"name":"RightForeArm",
			"rotation":[
				-0.22566917538642883,
				0.07088205218315125,
				-0.005746686365455389,
				0.9716049432754517
			],
			"scale":[
				1,
				1,
				1.0000001192092896
			],
			"translation":[
				-5.125999450683594e-06,
				23.846296310424805,
				9.5367431640625e-07
			]
		},
		{
			"children":[
				17
			],
			"name":"RightArm",
			"rotation":[
				0.48085540533065796,
				-0.5403774976730347,
				-0.33938154578208923,
				0.6013239026069641
			],
			"scale":[
				1,
				1.0000001192092896,
				1
			],
			"translation":[
				-1.51160747918766e-07,
				12.997750282287598,
				-4.173507761606743e-07
			]
		},
		{
			"children":[
				18
			],
			"name":"RightShoulder",
			"rotation":[
				0.5444765090942383,
				-0.6118738055229187,
				0.42042049765586853,
				0.39038753509521484
			],
			"scale":[
				1,
				0.9999998807907104,
				1
			],
			"translation":[
				-3.2136855125427246,
				2.1587181091308594,
				-0.7736486792564392
			]
		},
		{
			"children":[
				11,
				15,
				19
			],
			"name":"Spine",
			"rotation":[
				-0.12638919055461884,
				-0.008998014032840729,
				0.008177698589861393,
				0.9919061660766602
			],
			"scale":[
				1,
				1,
				1.0000001192092896
			],
			"translation":[
				1.2243465619121707e-07,
				12.430645942687988,
				-2.2202016225492116e-06
			]
		},
		{
			"children":[
				20
			],
			"name":"Spine01",
			"rotation":[
				5.4016702222270396e-08,
				-7.63118546132091e-09,
				-2.5523586799636178e-08,
				1
			],
			"scale":[
				1,
				1.0000001192092896,
				1.0000001192092896
			],
			"translation":[
				9.261104878532933e-07,
				12.430624008178711,
				-1.036187222780427e-05
			]
		},
		{
			"children":[
				21
			],
			"name":"Spine02",
			"rotation":[
				0.33569106459617615,
				0.33300790190696716,
				0.6505193114280701,
				0.5943416357040405
			],
			"scale":[
				0.9999999403953552,
				0.9999999403953552,
				0.9999999403953552
			],
			"translation":[
				-6.83292293548584,
				-0.8916182518005371,
				10.345831871032715
			]
		},
		{
			"children":[
				3,
				7,
				22
			],
			"name":"Hips",
			"rotation":[
				-0.3636627495288849,
				-0.36366263031959534,
				-0.6338919401168823,
				0.5776503086090088
			],
			"translation":[
				0.36296892166137695,
				97.69184875488281,
				3.5950913429260254
			]
		},
		{
			"mesh":0,
			"name":"char1",
			"skin":0
		},
		{
			"children":[
				24,
				23
			],
			"name":"Armature",
			"scale":[
				0.009999999776482582,
				0.009999999776482582,
				0.009999999776482582
			]
		}
	],
	"materials":[
		{
			"doubleSided":true,
			"emissiveFactor":[
				1,
				1,
				1
			],
			"emissiveTexture":{
				"index":0
			},
			"extensions":{
				"KHR_materials_specular":{
					"specularColorFactor":[
						2.0,
						2.0,
						2.0
					]
				}
			},
			"name":"Material_1",
			"pbrMetallicRoughness":{
				"baseColorTexture":{
					"index":1
				}
			}
		}
	],
	"meshes":[
		{
			"name":"char1",
			"primitives":[
				{
					"attributes":{
						"POSITION":0,
						"NORMAL":1,
						"TEXCOORD_0":2,
						"JOINTS_0":3,
						"WEIGHTS_0":4
					},
					"indices":5,
					"material":0
				}
			]
		}
	],
	"textures":[
		{
			"sampler":0,
			"source":0
		},
		{
			"sampler":0,
			"source":0
		}
	],
	"images":[
		{
			"mimeType":"image/png",
			"name":"texture_0",
			"uri":"texture_0.png"
		}
	],
	"skins":[
		{
			"inverseBindMatrices":6,
			"joints":[
				23,
				3,
				2,
				1,
				0,
				7,
				6,
				5,
				4,
				22,
				21,
				20,
				11,
				10,
				9,
				8,
				15,
				14,
				12,
				13,
				19,
				18,
				17,
				16
			],
			"name":"Armature"
		}
	],
	"accessors":[
		{
			"bufferView":0,
			"componentType":5126,
			"count":23996,
			"max":[
				0.38009244203567505,
				1.7003618478775024,
				0.13311955332756042
			],
			"min":[
				-0.3800240159034729,
				1.3703092918149196e-05,
				-0.13324101269245148
			],
			"type":"VEC3"
		},
		{
			"bufferView":1,
			"componentType":5126,
			"count":23996,
			"type":"VEC3"
		},
		{
			"bufferView":2,
			"componentType":5126,
			"count":23996,
			"type":"VEC2"
		},
		{
			"bufferView":3,
			"componentType":5121,
			"count":23996,
			"type":"VEC4"
		},
		{
			"bufferView":4,
			"componentType":5126,
			"count":23996,
			"type":"VEC4"
		},
		{
			"bufferView":5,
			"componentType":5123,
			"count":120000,
			"type":"SCALAR"
		},
		{
			"bufferView":6,
			"componentType":5126,
			"count":24,
			"type":"MAT4"
		}
	],
	"bufferViews":[
		{
			"buffer":0,
			"byteLength":287952,
			"byteOffset":0,
			"target":34962
		},
		{
			"buffer":0,
			"byteLength":287952,
			"byteOffset":287952,
			"target":34962
		},
		{
			"buffer":0,
			"byteLength":191968,
			"byteOffset":575904,
			"target":34962
		},
		{
			"buffer":0,
			"byteLength":95984,
			"byteOffset":767872,
			"target":34962
		},
		{
			"buffer":0,
			"byteLength":383936,
			"byteOffset":863856,
			"target":34962
		},
		{
			"buffer":0,
			"byteLength":240000,
			"byteOffset":1247792,
			"target":34963
		},
		{
			"buffer":0,
			"byteLength":1536,
			"byteOffset":1487792
		}
	],
	"samplers":[
		{
			"magFilter":9729,
			"minFilter":9987
		}
	],
	"buffers":[
		{
			"byteLength":1489328,
			"uri":"sacha_reed.bin"
		}
	]
}
