{
	"asset":{
		"generator":"Khronos glTF Blender I/O v5.2.39",
		"version":"2.0"
	},
	"extensionsUsed":[
		"KHR_materials_specular"
	],
	"scene":0,
	"scenes":[
		{
			"name":"Scene",
			"nodes":[
				25
			]
		}
	],
	"nodes":[
		{
			"name":"LeftToeBase",
			"rotation":[
				-0.42937207221984863,
				-0.01892128773033619,
				-0.008997554890811443,
				0.9028846621513367
			],
			"scale":[
				1,
				1.0000001192092896,
				1
			],
			"translation":[
				6.034970283508301e-07,
				11.941048622131348,
				6.407499313354492e-06
			]
		},
		{
			"children":[
				0
			],
			"name":"LeftFoot",
			"rotation":[
				-0.3693440854549408,
				0.004465324804186821,
				0.035808902233839035,
				0.928591787815094
			],
			"scale":[
				1.0000001192092896,
				1,
				1.0000001192092896
			],
			"translation":[
				-2.9802322387695312e-08,
				38.771697998046875,
				-3.5762786865234375e-07
			]
		},
		{
			"children":[
				1
			],
			"name":"LeftLeg",
			"rotation":[
				-0.00918655376881361,
				-0.00037937710294499993,
				0.00043645291589200497,
				0.9999576807022095
			],
			"scale":[
				0.9999999403953552,
				1,
				0.9999999403953552
			],
			"translation":[
				2.8014183044433594e-06,
				37.16611099243164,
				-2.86102294921875e-06
			]
		},
		{
			"children":[
				2
			],
			"name":"LeftUpLeg",
			"rotation":[
				0.9801314473152161,
				0.016265658661723137,
				-0.03607713058590889,
				0.1943611204624176
			],
			"scale":[
				1,
				1.0000001192092896,
				1.0000009536743164
			],
			"translation":[
				7.500336170196533,
				-8.759820938110352,
				3.8203301429748535
			]
		},
		{
			"name":"RightToeBase",
			"rotation":[
				-0.43682822585105896,
				0.055358484387397766,
				0.026946213096380234,
				0.8974354863166809
			],
			"scale":[
				1,
				0.9999998807907104,
				1
			],
			"translation":[
				-7.152557373046875e-07,
				12.924181938171387,
				7.152557373046875e-07
			]
		},
		{
			"children":[
				4
			],
			"name":"RightFoot",
			"rotation":[
				-0.36093470454216003,
				0.04158395156264305,
				0.013827218674123287,
				0.9315609335899353
			],
			"scale":[
				0.9999999403953552,
				0.9999999403953552,
				1.0000001192092896
			],
			"translation":[
				2.86102294921875e-06,
				38.38176727294922,
				5.841255187988281e-06
			]
		},
		{
			"children":[
				5
			],
			"name":"RightLeg",
			"rotation":[
				-0.004466921091079712,
				-0.00843565259128809,
				-0.008031169883906841,
				0.9999222159385681
			],
			"scale":[
				1.0000001192092896,
				1.0000001192092896,
				1
			],
			"translation":[
				-7.37607479095459e-07,
				36.8651008605957,
				1.6093254089355469e-06
			]
		},
		{
			"children":[
				6
			],
			"name":"RightUpLeg",
			"rotation":[
				0.9773480296134949,
				-0.04763565957546234,
				0.07012370228767395,
				0.19391845166683197
			],
			"scale":[
				0.9999999403953552,
				0.9999999403953552,
				0.9999996423721313
			],
			"translation":[
				-7.955344200134277,
				-8.311661720275879,
				3.150021553039551
			]
		},
		{
			"name":"LeftHand",
			"rotation":[
				0.007528027985244989,
				0.013666451908648014,
				0.016016963869333267,
				0.9997499585151672
			],
			"scale":[
				0.9999999403953552,
				1,
				1.0000001192092896
			],
			"translation":[
				-6.377696990966797e-06,
				23.523941040039062,
				-8.344650268554688e-07
			]
		},
		{
			"children":[
				8
			],
			"name":"LeftForeArm",
			"rotation":[
				-0.19182857871055603,
				-0.05309329181909561,
				0.0033413253258913755,
				0.9799855947494507
			],
			"scale":[
				1,
				0.9999999403953552,
				1.0000001192092896
			],
			"translation":[
				-2.384185791015625e-06,
				25.351486206054688,
				-9.5367431640625e-07
			]
		},
		{
			"children":[
				9
			],
			"name":"LeftArm",
			"rotation":[
				0.4820418655872345,
				0.5347104072570801,
				0.3626139461994171,
				0.5918036699295044
			],
			"translation":[
				1.1172640370205045e-05,
				12.539186477661133,
				-9.202582441503182e-05
			]
		},
		{
			"children":[
				10
			],
			"name":"LeftShoulder",
			"rotation":[
				0.525898814201355,
				0.5833592414855957,
				-0.4767513573169708,
				0.3947538733482361
			],
			"scale":[
				0.9999998807907104,
				0.9999997019767761,
				0.9999997615814209
			],
			"translation":[
				3.2154581546783447,
				3.6110785007476807,
				-0.5662578344345093
			]
		},
		{
			"name":"head_end",
			"rotation":[
				-0.24520166218280792,
				-9.846765181009687e-09,
				0.004606008064001799,
				0.9694611430168152
			],
			"scale":[
				1.0000001192092896,
				1.0000001192092896,
				1.0000001192092896
			],
			"translation":[
				-0.1600586175918579,
				15.766430854797363,
				-8.520788192749023
			]
		},
		{
			"name":"headfront",
			"rotation":[
				0.41419047117233276,
				6.843017530400175e-08,
				-0.007780371233820915,
				0.9101569652557373
			],
			"scale":[
				1,
				1.0000001192092896,
				1.0000001192092896
			],
			"translation":[
				0.16005843877792358,
				7.422414779663086,
				8.520685195922852
			]
		},
		{
			"children":[
				12,
				13
			],
			"name":"Head",
			"rotation":[
				0.3883371949195862,
				-9.580217738403007e-05,
				-0.007084200158715248,
				0.9214901328086853
			],
			"scale":[
				1,
				1.0000001192092896,
				1
			],
			"translation":[
				-1.4882534742355347e-06,
				10.881168365478516,
				-3.909692168235779e-06
			]
		},
		{
			"children":[
				14
			],
			"name":"neck",
			"rotation":[
				0.0777401551604271,
				0.008466712199151516,
				-0.00924238096922636,
				0.996894896030426
			],
			"scale":[
				1.0000001192092896,
				0.9999998211860657,
				1
			],
			"translation":[
				0.114194855093956,
				5.712886810302734,
				0.8955793380737305
			]
		},
		{
			"name":"RightHand",
			"rotation":[
				0.04993565008044243,
				-0.07638862729072571,
				-0.08909887075424194,
				0.991832971572876
			],
			"scale":[
				0.9999999403953552,
				0.9999999403953552,
				0.9999999403953552
			],
			"translation":[
				-4.6193599700927734e-06,
				23.380374908447266,
				-7.212162017822266e-06
			]
		},
		{
			"children":[
				16
			],
			"name":"RightForeArm",
			"rotation":[
				-0.19962604343891144,
				0.038988638669252396,
				-0.01872345805168152,
				0.9789171814918518
			],
			"translation":[
				-3.0994415283203125e-06,
				25.36884307861328,
				-4.76837158203125e-07
			]
		},
		{
			"children":[
				17
			],
			"name":"RightArm",
			"rotation":[
				0.4852164089679718,
				-0.5343543291091919,
				-0.3585299849510193,
				0.592019259929657
			],
			"scale":[
				0.9999998211860657,
				1,
				1
			],
			"translation":[
				-1.0517589544178918e-05,
				13.803777694702148,
				-7.60803886805661e-05
			]
		},
		{
			"children":[
				18
			],
			"name":"RightShoulder",
			"rotation":[
				0.5279937982559204,
				-0.5814639329910278,
				0.4403390884399414,
				0.4349985718727112
			],
			"scale":[
				0.9999998807907104,
				1,
				1
			],
			"translation":[
				-3.329657554626465,
				3.8294923305511475,
				-0.32932230830192566
			]
		},
		{
			"children":[
				11,
				15,
				19
			],
			"name":"Spine",
			"rotation":[
				-0.0776713415980339,
				-0.0145625751465559,
				0.014039850793778896,
				0.9967738389968872
			],
			"scale":[
				1.0000001192092896,
				0.9999998807907104,
				1
			],
			"translation":[
				2.7241185307502747e-08,
				12.95991039276123,
				1.150183379650116e-07
			]
		},
		{
			"children":[
				20
			],
			"name":"Spine01",
			"rotation":[
				-3.356944944243878e-08,
				-2.6047928258776665e-09,
				3.856257535517216e-09,
				1
			],
			"translation":[
				1.0468065738677979e-06,
				12.95982837677002,
				1.053791493177414e-06
			]
		},
		{
			"children":[
				21
			],
			"name":"Spine02",
			"rotation":[
				-0.28050497174263,
				-0.019268112257122993,
				-0.012661454267799854,
				0.9595756530761719
			],
			"scale":[
				1,
				1.0000001192092896,
				0.9999999403953552
			],
			"translation":[
				0.4550057351589203,
				10.916290283203125,
				-6.970398426055908
			]
		},
		{
			"children":[
				3,
				7,
				22
			],
			"name":"Hips",
			"rotation":[
				0.2411692589521408,
				0.016971537843346596,
				0.016971539705991745,
				0.9701862931251526
			],
			"scale":[
				0.9999999403953552,
				0.9999999403953552,
				0.9999998211860657
			],
			"translation":[
				1.0990583896636963,
				97.32381439208984,
				3.4394426345825195
			]
		},
		{
			"mesh":0,
			"name":"char1",
			"skin":0
		},
		{
			"children":[
				24,
				23
			],
			"name":"Armature",
			"scale":[
				0.009999999776482582,
				0.009999999776482582,
				0.009999999776482582
			]
		}
	],
	"materials":[
		{
			"doubleSided":true,
			"emissiveFactor":[
				1,
				1,
				1
			],
			"emissiveTexture":{
				"index":0
			},
			"extensions":{
				"KHR_materials_specular":{
					"specularColorFactor":[
						2.0,
						2.0,
						2.0
					]
				}
			},
			"name":"Material_1",
			"pbrMetallicRoughness":{
				"baseColorTexture":{
					"index":1
				}
			}
		}
	],
	"meshes":[
		{
			"name":"char1",
			"primitives":[
				{
					"attributes":{
						"POSITION":0,
						"NORMAL":1,
						"TEXCOORD_0":2,
						"JOINTS_0":3,
						"WEIGHTS_0":4
					},
					"indices":5,
					"material":0
				}
			]
		}
	],
	"textures":[
		{
			"sampler":0,
			"source":0
		},
		{
			"sampler":0,
			"source":0
		}
	],
	"images":[
		{
			"mimeType":"image/png",
			"name":"texture_0",
			"uri":"texture_0.png"
		}
	],
	"skins":[
		{
			"inverseBindMatrices":6,
			"joints":[
				23,
				3,
				2,
				1,
				0,
				7,
				6,
				5,
				4,
				22,
				21,
				20,
				11,
				10,
				9,
				8,
				15,
				14,
				12,
				13,
				19,
				18,
				17,
				16
			],
			"name":"Armature"
		}
	],
	"accessors":[
		{
			"bufferView":0,
			"componentType":5126,
			"count":25129,
			"max":[
				0.3932962715625763,
				1.7001781463623047,
				0.1258472055196762
			],
			"min":[
				-0.3587583303451538,
				2.8714307518384885e-06,
				-0.125881165266037
			],
			"type":"VEC3"
		},
		{
			"bufferView":1,
			"componentType":5126,
			"count":25129,
			"type":"VEC3"
		},
		{
			"bufferView":2,
			"componentType":5126,
			"count":25129,
			"type":"VEC2"
		},
		{
			"bufferView":3,
			"componentType":5121,
			"count":25129,
			"type":"VEC4"
		},
		{
			"bufferView":4,
			"componentType":5126,
			"count":25129,
			"type":"VEC4"
		},
		{
			"bufferView":5,
			"componentType":5123,
			"count":119991,
			"type":"SCALAR"
		},
		{
			"bufferView":6,
			"componentType":5126,
			"count":24,
			"type":"MAT4"
		}
	],
	"bufferViews":[
		{
			"buffer":0,
			"byteLength":301548,
			"byteOffset":0,
			"target":34962
		},
		{
			"buffer":0,
			"byteLength":301548,
			"byteOffset":301548,
			"target":34962
		},
		{
			"buffer":0,
			"byteLength":201032,
			"byteOffset":603096,
			"target":34962
		},
		{
			"buffer":0,
			"byteLength":100516,
			"byteOffset":804128,
			"target":34962
		},
		{
			"buffer":0,
			"byteLength":402064,
			"byteOffset":904644,
			"target":34962
		},
		{
			"buffer":0,
			"byteLength":239982,
			"byteOffset":1306708,
			"target":34963
		},
		{
			"buffer":0,
			"byteLength":1536,
			"byteOffset":1546692
		}
	],
	"samplers":[
		{
			"magFilter":9729,
			"minFilter":9987
		}
	],
	"buffers":[
		{
			"byteLength":1548228,
			"uri":"juno_kells.bin"
		}
	]
}
