{
	"asset":{
		"generator":"Khronos glTF Blender I/O v5.2.39",
		"version":"2.0"
	},
	"extensionsUsed":[
		"KHR_materials_specular"
	],
	"scene":0,
	"scenes":[
		{
			"name":"Scene",
			"nodes":[
				25
			]
		}
	],
	"nodes":[
		{
			"name":"LeftToeBase",
			"rotation":[
				-0.38580748438835144,
				-0.034637220203876495,
				-0.01449747383594513,
				0.9218149185180664
			],
			"scale":[
				1,
				1.0000001192092896,
				1.000000238418579
			],
			"translation":[
				-2.175569534301758e-06,
				15.331198692321777,
				6.556510925292969e-07
			]
		},
		{
			"children":[
				0
			],
			"name":"LeftFoot",
			"rotation":[
				-0.4385282099246979,
				-0.033555977046489716,
				-0.002674320712685585,
				0.8980867862701416
			],
			"scale":[
				0.9999998211860657,
				0.9999999403953552,
				1
			],
			"translation":[
				-2.682209014892578e-07,
				36.7315673828125,
				9.5367431640625e-07
			]
		},
		{
			"children":[
				1
			],
			"name":"LeftLeg",
			"rotation":[
				0.028636356815695763,
				0.0217705387622118,
				0.017224526032805443,
				0.9992043972015381
			],
			"scale":[
				0.9999999403953552,
				0.9999999403953552,
				1
			],
			"translation":[
				-2.421438694000244e-06,
				36.28418731689453,
				-1.2516975402832031e-06
			]
		},
		{
			"children":[
				2
			],
			"name":"LeftUpLeg",
			"rotation":[
				0.9877113103866577,
				0.04104068502783775,
				-0.05949385464191437,
				0.13857297599315643
			],
			"scale":[
				1.0000003576278687,
				1,
				1.0000025033950806
			],
			"translation":[
				8.862198829650879,
				-8.701255798339844,
				2.4520208835601807
			]
		},
		{
			"name":"RightToeBase",
			"rotation":[
				-0.39099228382110596,
				0.03860487788915634,
				0.016415927559137344,
				0.9194374680519104
			],
			"scale":[
				1,
				0.9999999403953552,
				0.9999998807907104
			],
			"translation":[
				-5.066394805908203e-07,
				15.59147834777832,
				3.5762786865234375e-07
			]
		},
		{
			"children":[
				4
			],
			"name":"RightFoot",
			"rotation":[
				-0.4314976930618286,
				0.03456924110651016,
				-0.000624809181317687,
				0.9014512896537781
			],
			"scale":[
				1,
				0.9999999403953552,
				0.9999999403953552
			],
			"translation":[
				9.5367431640625e-07,
				36.38138961791992,
				7.152557373046875e-07
			]
		},
		{
			"children":[
				5
			],
			"name":"RightLeg",
			"rotation":[
				0.026006558910012245,
				-0.015375439077615738,
				-0.0115658575668931,
				0.9994766116142273
			],
			"scale":[
				1,
				1,
				1.0000001192092896
			],
			"translation":[
				4.947185516357422e-06,
				36.583099365234375,
				-2.980232238769531e-07
			]
		},
		{
			"children":[
				6
			],
			"name":"RightUpLeg",
			"rotation":[
				0.9877890348434448,
				-0.042153216898441315,
				0.06061246618628502,
				0.1371934562921524
			],
			"scale":[
				1.0000001192092896,
				1,
				1.0000011920928955
			],
			"translation":[
				-8.882526397705078,
				-8.759855270385742,
				2.418909788131714
			]
		},
		{
			"name":"LeftHand",
			"rotation":[
				0.021998485550284386,
				0.09339333325624466,
				0.11971679329872131,
				0.9881607294082642
			],
			"scale":[
				1,
				1.0000001192092896,
				1.0000001192092896
			],
			"translation":[
				5.364418029785156e-07,
				22.819494247436523,
				1.1205673217773438e-05
			]
		},
		{
			"children":[
				8
			],
			"name":"LeftForeArm",
			"rotation":[
				-0.19209329783916473,
				-0.06329444795846939,
				0.02790200524032116,
				0.9789358973503113
			],
			"scale":[
				0.9999998807907104,
				1,
				0.9999998211860657
			],
			"translation":[
				-1.9073486328125e-06,
				23.673765182495117,
				-1.1920928955078125e-06
			]
		},
		{
			"children":[
				9
			],
			"name":"LeftArm",
			"rotation":[
				0.4688054919242859,
				0.5187238454818726,
				0.2667028605937958,
				0.6633375287055969
			],
			"scale":[
				1,
				1,
				1.0000001192092896
			],
			"translation":[
				3.769957402255386e-06,
				13.86357307434082,
				-1.5255421203619335e-05
			]
		},
		{
			"children":[
				10
			],
			"name":"LeftShoulder",
			"rotation":[
				0.5168117880821228,
				0.5718417167663574,
				-0.4748138189315796,
				0.424799382686615
			],
			"scale":[
				1.0000001192092896,
				1,
				1
			],
			"translation":[
				3.4651267528533936,
				4.75614595413208,
				-0.5263891220092773
			]
		},
		{
			"name":"head_end",
			"rotation":[
				-0.13002102077007294,
				-3.823740879482784e-09,
				-3.4121576675261167e-09,
				0.9915112853050232
			],
			"scale":[
				1,
				1,
				1.0000001192092896
			],
			"translation":[
				8.332802536870076e-08,
				23.107563018798828,
				-6.166431427001953
			]
		},
		{
			"name":"headfront",
			"rotation":[
				0.5906584858894348,
				-6.590551038243575e-08,
				-4.459131019984852e-08,
				0.806921660900116
			],
			"scale":[
				1,
				1.0000001192092896,
				1
			],
			"translation":[
				-1.4039298434909142e-07,
				1.955262303352356,
				6.166393280029297
			]
		},
		{
			"children":[
				12,
				13
			],
			"name":"Head",
			"rotation":[
				0.18655143678188324,
				2.548676381053383e-09,
				4.129648623063531e-09,
				0.9824451804161072
			],
			"scale":[
				0.9999999403953552,
				0.9999998807907104,
				1
			],
			"translation":[
				-8.19426801967893e-08,
				6.815847873687744,
				-7.746643859718461e-07
			]
		},
		{
			"children":[
				14
			],
			"name":"neck",
			"rotation":[
				0.06050362065434456,
				0.0023432730231434107,
				-0.0021885486785322428,
				0.9981628656387329
			],
			"scale":[
				0.9999998211860657,
				0.9999999403953552,
				1
			],
			"translation":[
				0.03857666626572609,
				8.230653762817383,
				1.0013912916183472
			]
		},
		{
			"name":"RightHand",
			"rotation":[
				0.009016573429107666,
				-0.08514387160539627,
				-0.11446718871593475,
				0.9897304773330688
			],
			"scale":[
				1,
				1,
				1.0000001192092896
			],
			"translation":[
				1.1444091796875e-05,
				23.10785484313965,
				2.1457672119140625e-06
			]
		},
		{
			"children":[
				16
			],
			"name":"RightForeArm",
			"rotation":[
				-0.19628888368606567,
				0.09327045828104019,
				0.0035329509992152452,
				0.9760936498641968
			],
			"scale":[
				1,
				1.000000238418579,
				1.0000001192092896
			],
			"translation":[
				5.0067901611328125e-06,
				22.566869735717773,
				-1.0728836059570312e-06
			]
		},
		{
			"children":[
				17
			],
			"name":"RightArm",
			"rotation":[
				0.4770817160606384,
				-0.5261434316635132,
				-0.27872002124786377,
				0.646437406539917
			],
			"translation":[
				-2.2510994313051924e-06,
				14.150803565979004,
				3.045173616555985e-05
			]
		},
		{
			"children":[
				18
			],
			"name":"RightShoulder",
			"rotation":[
				0.5177491903305054,
				-0.5709931254386902,
				0.4698086678981781,
				0.43032824993133545
			],
			"scale":[
				1.0000001192092896,
				1,
				1
			],
			"translation":[
				-3.50370454788208,
				4.781373977661133,
				-0.47501346468925476
			]
		},
		{
			"children":[
				11,
				15,
				19
			],
			"name":"Spine",
			"rotation":[
				-0.06050368770956993,
				-0.002343270229175687,
				0.0021885510068386793,
				0.9981628656387329
			],
			"scale":[
				0.9999999403953552,
				0.9999998807907104,
				0.9999998807907104
			],
			"translation":[
				3.447611973683706e-08,
				11.750123977661133,
				-1.9685769530042307e-06
			]
		},
		{
			"children":[
				20
			],
			"name":"Spine01",
			"rotation":[
				-2.384185791015625e-07,
				-2.5209221377053836e-09,
				-2.6527566809875225e-09,
				1
			],
			"translation":[
				2.209345772996585e-08,
				11.750157356262207,
				-3.574214133550413e-07
			]
		},
		{
			"children":[
				21
			],
			"name":"Spine02",
			"rotation":[
				-0.21209752559661865,
				-0.0006872714729979634,
				-0.0007358576403930783,
				0.9772480130195618
			],
			"scale":[
				1,
				0.9999999403953552,
				0.9999998807907104
			],
			"translation":[
				0.020325032994151115,
				10.692946434020996,
				-4.870937824249268
			]
		},
		{
			"children":[
				3,
				7,
				22
			],
			"name":"Hips",
			"rotation":[
				0.1786300241947174,
				0.0007119793444871902,
				0.0007119794609025121,
				0.9839158058166504
			],
			"scale":[
				0.9999999403953552,
				0.9999998807907104,
				0.9999998807907104
			],
			"translation":[
				0.36296892166137695,
				96.22493743896484,
				3.201693058013916
			]
		},
		{
			"mesh":0,
			"name":"char1",
			"skin":0
		},
		{
			"children":[
				24,
				23
			],
			"name":"Armature",
			"scale":[
				0.009999999776482582,
				0.009999999776482582,
				0.009999999776482582
			]
		}
	],
	"materials":[
		{
			"doubleSided":true,
			"emissiveFactor":[
				1,
				1,
				1
			],
			"emissiveTexture":{
				"index":0
			},
			"extensions":{
				"KHR_materials_specular":{
					"specularColorFactor":[
						2.0,
						2.0,
						2.0
					]
				}
			},
			"name":"Material_1",
			"pbrMetallicRoughness":{
				"baseColorTexture":{
					"index":1
				}
			}
		}
	],
	"meshes":[
		{
			"name":"char1",
			"primitives":[
				{
					"attributes":{
						"POSITION":0,
						"NORMAL":1,
						"TEXCOORD_0":2,
						"JOINTS_0":3,
						"WEIGHTS_0":4
					},
					"indices":5,
					"material":0
				}
			]
		}
	],
	"textures":[
		{
			"sampler":0,
			"source":0
		},
		{
			"sampler":0,
			"source":0
		}
	],
	"images":[
		{
			"mimeType":"image/png",
			"name":"texture_0",
			"uri":"texture_0.png"
		}
	],
	"skins":[
		{
			"inverseBindMatrices":6,
			"joints":[
				23,
				3,
				2,
				1,
				0,
				7,
				6,
				5,
				4,
				22,
				21,
				20,
				11,
				10,
				9,
				8,
				15,
				14,
				12,
				13,
				19,
				18,
				17,
				16
			],
			"name":"Armature"
		}
	],
	"accessors":[
		{
			"bufferView":0,
			"componentType":5126,
			"count":23337,
			"max":[
				0.4583130180835724,
				1.7000218629837036,
				0.151080921292305
			],
			"min":[
				-0.4583568871021271,
				0.0001417297316947952,
				-0.15093287825584412
			],
			"type":"VEC3"
		},
		{
			"bufferView":1,
			"componentType":5126,
			"count":23337,
			"type":"VEC3"
		},
		{
			"bufferView":2,
			"componentType":5126,
			"count":23337,
			"type":"VEC2"
		},
		{
			"bufferView":3,
			"componentType":5121,
			"count":23337,
			"type":"VEC4"
		},
		{
			"bufferView":4,
			"componentType":5126,
			"count":23337,
			"type":"VEC4"
		},
		{
			"bufferView":5,
			"componentType":5123,
			"count":119997,
			"type":"SCALAR"
		},
		{
			"bufferView":6,
			"componentType":5126,
			"count":24,
			"type":"MAT4"
		}
	],
	"bufferViews":[
		{
			"buffer":0,
			"byteLength":280044,
			"byteOffset":0,
			"target":34962
		},
		{
			"buffer":0,
			"byteLength":280044,
			"byteOffset":280044,
			"target":34962
		},
		{
			"buffer":0,
			"byteLength":186696,
			"byteOffset":560088,
			"target":34962
		},
		{
			"buffer":0,
			"byteLength":93348,
			"byteOffset":746784,
			"target":34962
		},
		{
			"buffer":0,
			"byteLength":373392,
			"byteOffset":840132,
			"target":34962
		},
		{
			"buffer":0,
			"byteLength":239994,
			"byteOffset":1213524,
			"target":34963
		},
		{
			"buffer":0,
			"byteLength":1536,
			"byteOffset":1453520
		}
	],
	"samplers":[
		{
			"magFilter":9729,
			"minFilter":9987
		}
	],
	"buffers":[
		{
			"byteLength":1455056,
			"uri":"cam_ortiz.bin"
		}
	]
}
