{"asset":{"generator":"Khronos glTF Blender I/O v5.2.39","version":"2.0"},"extensionsUsed":["KHR_materials_specular"],"scene":0,"scenes":[{"name":"Scene","nodes":[25]}],"nodes":[{"name":"LeftToeBase","rotation":[-0.4396510422229767,0.007199319079518318,0.0035239309072494507,0.8981329202651978],"translation":[-8.828938007354736e-07,13.356515884399414,-8.091330528259277e-06]},{"children":[0],"name":"LeftFoot","rotation":[-0.3776611387729645,0.017282841727137566,0.025695813819766045,0.9254258871078491],"translation":[-2.5331974029541016e-07,40.62335968017578,1.4901161193847656e-06]},{"children":[1],"name":"LeftLeg","rotation":[0.013219449669122696,0.027467267587780952,0.024127600714564323,0.9992440342903137],"scale":[1.0000001192092896,1,1.0000001192092896],"translation":[-6.236135959625244e-06,36.82308578491211,1.615285873413086e-05]},{"children":[2],"name":"LeftUpLeg","rotation":[0.9800148010253906,0.056330516934394836,-0.07627453655004501,0.17487183213233948],"scale":[1.0000001192092896,1.0000001192092896,1.0000015497207642],"translation":[7.620063304901123,-8.322114944458008,2.662768602371216]},{"name":"RightToeBase","rotation":[-0.4423846900463104,0.01859421096742153,0.009176085703074932,0.8965856432914734],"scale":[1.0000001192092896,1,1.0000001192092896],"translation":[1.7881393432617188e-07,13.400070190429688,2.9802322387695312e-08]},{"children":[4],"name":"RightFoot","rotation":[-0.3737237751483917,0.015267753973603249,0.0068562873639166355,0.9273890256881714],"scale":[0.9999998807907104,1.0000001192092896,1.0000001192092896],"translation":[7.078051567077637e-07,40.60846710205078,8.940696716308594e-08]},{"children":[5],"name":"RightLeg","rotation":[0.01274949498474598,-0.0343308262526989,-0.03041095659136772,0.9988664388656616],"scale":[0.9999999403953552,1,0.9999998211860657],"translation":[-2.7492642402648926e-06,36.53670120239258,1.9788742065429688e-05]},{"children":[6],"name":"RightUpLeg","rotation":[0.9843189120292664,-0.005867423489689827,0.021810472011566162,0.17494602501392365],"scale":[1,0.9999999403953552,1.0000011920928955],"translation":[-6.7695698738098145,-8.846330642700195,3.572340250015259]},{"name":"LeftHand","rotation":[0.04725846275687218,0.0872713252902031,0.11022403091192245,0.9889394044876099],"scale":[0.9999998807907104,0.9999999403953552,0.9999999403953552],"translation":[-1.2576580047607422e-05,23.355934143066406,2.6226043701171875e-06]},{"children":[8],"name":"LeftForeArm","rotation":[-0.20349127054214478,-0.076250821352005,0.03212627395987511,0.9755741953849792],"scale":[1,1.0000001192092896,1],"translation":[6.4373016357421875e-06,24.764516830444336,8.106231689453125e-06]},{"children":[9],"name":"LeftArm","rotation":[0.4361906051635742,0.4838368892669678,0.2611168622970581,0.712360680103302],"translation":[1.8141246982850134e-05,12.080784797668457,-6.112611299613491e-05]},{"children":[10],"name":"LeftShoulder","rotation":[0.5208940505981445,0.5777926445007324,-0.47167813777923584,0.4151444137096405],"scale":[0.9999999403953552,0.9999996423721313,0.9999999403953552],"translation":[3.029019832611084,3.3433501720428467,-0.5859169960021973]},{"name":"head_end","rotation":[-0.2493530958890915,1.5214397519613954e-09,0.0002834198239725083,0.9684125781059265],"scale":[0.9999998807907104,1.0000001192092896,1],"translation":[-0.009902726858854294,15.796645164489746,-8.712512969970703]},{"name":"headfront","rotation":[0.4438662827014923,7.101442633938859e-08,-0.000504473049659282,0.89609295129776],"scale":[0.9999998807907104,1,1],"translation":[0.009902825579047203,6.636737823486328,8.712432861328125]},{"children":[12,13],"name":"Head","rotation":[0.36232030391693115,-1.4309237030829536e-06,-0.00040893908590078354,0.9320535659790039],"scale":[0.9999999403953552,1,1],"translation":[1.3352837413549423e-07,6.827969551086426,-1.4392106095328927e-05]},{"children":[14],"name":"neck","rotation":[0.060695357620716095,0.004880324471741915,-0.004526074044406414,0.9981341361999512],"scale":[1,0.9999998807907104,1.0000001192092896],"translation":[0.08735160529613495,9.005720138549805,1.0989331007003784]},{"name":"RightHand","rotation":[0.036520056426525116,-0.07617786526679993,-0.0992298573255539,0.9914719462394714],"scale":[0.9999999403953552,1,1],"translation":[-1.615285873413086e-05,23.216339111328125,-2.1636486053466797e-05]},{"children":[16],"name":"RightForeArm","rotation":[-0.2194356769323349,0.11064399033784866,0.006098085083067417,0.9693135619163513],"scale":[0.9999998807907104,0.9999998807907104,1],"translation":[-8.821487426757812e-06,24.103254318237305,-2.384185791015625e-06]},{"children":[17],"name":"RightArm","rotation":[0.4499235451221466,-0.49675676226615906,-0.2823132574558258,0.6863678097724915],"scale":[0.9999998807907104,0.9999998211860657,0.9999999403953552],"translation":[-1.7293634300585836e-05,12.629899024963379,-3.058010042877868e-05]},{"children":[18],"name":"RightShoulder","rotation":[0.5222280621528625,-0.5765872597694397,0.46066081523895264,0.42733678221702576],"scale":[1,0.9999999403953552,0.9999999403953552],"translation":[-3.1163713932037354,3.400944232940674,-0.5129579901695251]},{"children":[11,15,19],"name":"Spine","rotation":[-0.06069498509168625,-0.0052519687451422215,0.004826236516237259,0.9981308579444885],"translation":[5.840047379024327e-08,12.367392539978027,-5.068082828074694e-06]},{"children":[20],"name":"Spine01","rotation":[-5.216048748479807e-08,-3.6043272810815097e-09,-7.353264219744915e-09,1],"scale":[1,1.0000001192092896,1.0000001192092896],"translation":[7.007038220763206e-07,12.367355346679688,-1.537302159704268e-05]},{"children":[21],"name":"Spine02","rotation":[-0.2621888518333435,0.02571481093764305,0.028667327016592026,0.9642478823661804],"scale":[1,0.9999999403953552,0.9999999403953552],"translation":[-0.8504944443702698,10.646722793579102,-6.235081672668457]},{"children":[3,7,22],"name":"Hips","rotation":[0.21830008924007416,-0.027163580060005188,-0.027163587510585785,0.9751253128051758],"scale":[0.9999999403953552,1,1.0000001192092896],"translation":[0.36296892166137695,99.8950424194336,3.4581007957458496]},{"mesh":0,"name":"char1","skin":0},{"children":[24,23],"name":"Armature","scale":[0.009999999776482582,0.009999999776482582,0.009999999776482582]}],"materials":[{"doubleSided":true,"extensions":{"KHR_materials_specular":{"specularColorFactor":[1.0,1.0,1.0]}},"name":"Material_1","pbrMetallicRoughness":{"baseColorTexture":{"index":1}}}],"meshes":[{"name":"char1","primitives":[{"attributes":{"POSITION":0,"NORMAL":1,"TEXCOORD_0":2,"JOINTS_0":3,"WEIGHTS_0":4},"indices":5,"material":0}]}],"textures":[{"sampler":0,"source":0},{"sampler":0,"source":0}],"images":[{"mimeType":"image/png","name":"texture_0","uri":"texture_0.png"}],"skins":[{"inverseBindMatrices":6,"joints":[23,3,2,1,0,7,6,5,4,22,21,20,11,10,9,8,15,14,12,13,19,18,17,16],"name":"Armature"}],"accessors":[{"bufferView":0,"componentType":5126,"count":23843,"max":[0.46570974588394165,1.6999715566635132,0.1344784051179886],"min":[-0.4657024145126343,8.969823829829693e-05,-0.1349281668663025],"type":"VEC3"},{"bufferView":1,"componentType":5126,"count":23843,"type":"VEC3"},{"bufferView":2,"componentType":5126,"count":23843,"type":"VEC2"},{"bufferView":3,"componentType":5121,"count":23843,"type":"VEC4"},{"bufferView":4,"componentType":5126,"count":23843,"type":"VEC4"},{"bufferView":5,"componentType":5123,"count":120000,"type":"SCALAR"},{"bufferView":6,"componentType":5126,"count":24,"type":"MAT4"}],"bufferViews":[{"buffer":0,"byteLength":286116,"byteOffset":0,"target":34962},{"buffer":0,"byteLength":286116,"byteOffset":286116,"target":34962},{"buffer":0,"byteLength":190744,"byteOffset":572232,"target":34962},{"buffer":0,"byteLength":95372,"byteOffset":762976,"target":34962},{"buffer":0,"byteLength":381488,"byteOffset":858348,"target":34962},{"buffer":0,"byteLength":240000,"byteOffset":1239836,"target":34963},{"buffer":0,"byteLength":1536,"byteOffset":1479836}],"samplers":[{"magFilter":9729,"minFilter":9987}],"buffers":[{"byteLength":1481372,"uri":"mae_kessler.bin"}]}