{
	"asset":{
		"generator":"Khronos glTF Blender I/O v5.2.39",
		"version":"2.0"
	},
	"extensionsUsed":[
		"KHR_materials_specular"
	],
	"scene":0,
	"scenes":[
		{
			"name":"Scene",
			"nodes":[
				25
			]
		}
	],
	"nodes":[
		{
			"name":"LeftToeBase",
			"rotation":[
				-0.4100990891456604,
				-0.01655004732310772,
				-0.007436423096805811,
				0.9118605256080627
			],
			"scale":[
				1,
				1.0000001192092896,
				1.0000001192092896
			],
			"translation":[
				1.5348196029663086e-06,
				14.798813819885254,
				-1.7881393432617188e-07
			]
		},
		{
			"children":[
				0
			],
			"name":"LeftFoot",
			"rotation":[
				-0.39525651931762695,
				-0.0010601799003779888,
				0.02587992139160633,
				0.9182055592536926
			],
			"scale":[
				0.9999998211860657,
				0.9999999403953552,
				0.9999999403953552
			],
			"translation":[
				-1.3113021850585938e-06,
				38.02159118652344,
				3.5762786865234375e-07
			]
		},
		{
			"children":[
				1
			],
			"name":"LeftLeg",
			"rotation":[
				-0.011621547862887383,
				0.010176356881856918,
				0.010092508047819138,
				0.9998297691345215
			],
			"scale":[
				1,
				0.9999999403953552,
				1
			],
			"translation":[
				2.0563602447509766e-06,
				37.837684631347656,
				8.344650268554688e-07
			]
		},
		{
			"children":[
				2
			],
			"name":"LeftUpLeg",
			"rotation":[
				0.980991005897522,
				0.032679229974746704,
				-0.05435391888022423,
				0.18339668214321136
			],
			"scale":[
				1,
				1.0000001192092896,
				1.0000011920928955
			],
			"translation":[
				8.1209716796875,
				-8.810185432434082,
				3.3821725845336914
			]
		},
		{
			"name":"RightToeBase",
			"rotation":[
				-0.40867653489112854,
				0.02480238676071167,
				0.011111672967672348,
				0.9122745394706726
			],
			"scale":[
				1,
				0.9999998807907104,
				1.0000001192092896
			],
			"translation":[
				2.1010637283325195e-06,
				14.874213218688965,
				2.980232238769531e-07
			]
		},
		{
			"children":[
				4
			],
			"name":"RightFoot",
			"rotation":[
				-0.39830565452575684,
				0.012289933860301971,
				-0.015621121972799301,
				0.9170373678207397
			],
			"scale":[
				1,
				0.9999999403953552,
				0.9999999403953552
			],
			"translation":[
				-7.748603820800781e-07,
				38.409912109375,
				-2.980232238769531e-07
			]
		},
		{
			"children":[
				5
			],
			"name":"RightLeg",
			"rotation":[
				-0.0075986371375620365,
				-0.010960280895233154,
				-0.010476785711944103,
				0.999856173992157
			],
			"scale":[
				1.0000001192092896,
				1.0000001192092896,
				1
			],
			"translation":[
				1.9222497940063477e-06,
				37.53121566772461,
				3.6954879760742188e-06
			]
		},
		{
			"children":[
				6
			],
			"name":"RightUpLeg",
			"rotation":[
				0.9805904626846313,
				-0.034209419041872025,
				0.05619746074080467,
				0.1846994161605835
			],
			"scale":[
				0.9999998807907104,
				1,
				1.0000001192092896
			],
			"translation":[
				-8.14217472076416,
				-8.71334457397461,
				3.350552797317505
			]
		},
		{
			"name":"LeftHand",
			"rotation":[
				0.056497279554605484,
				0.06326588243246078,
				0.0713772401213646,
				0.9938364028930664
			],
			"scale":[
				1,
				0.9999998807907104,
				0.9999999403953552
			],
			"translation":[
				-1.71661376953125e-05,
				22.449506759643555,
				3.0994415283203125e-06
			]
		},
		{
			"children":[
				8
			],
			"name":"LeftForeArm",
			"rotation":[
				-0.24174021184444427,
				-0.0767773985862732,
				0.005056764930486679,
				0.9672855734825134
			],
			"scale":[
				1,
				1.000000238418579,
				1.0000001192092896
			],
			"translation":[
				4.172325134277344e-06,
				25.58201026916504,
				-1.3709068298339844e-06
			]
		},
		{
			"children":[
				9
			],
			"name":"LeftArm",
			"rotation":[
				0.4721204340457916,
				0.5323563814163208,
				0.3476470410823822,
				0.6106066703796387
			],
			"scale":[
				0.9999999403953552,
				0.9999999403953552,
				1
			],
			"translation":[
				1.160745887318626e-05,
				12.12143611907959,
				1.4887824363540858e-05
			]
		},
		{
			"children":[
				10
			],
			"name":"LeftShoulder",
			"rotation":[
				0.5468171238899231,
				0.6165831089019775,
				-0.43233639001846313,
				0.36592572927474976
			],
			"scale":[
				0.9999998807907104,
				0.9999997615814209,
				0.9999999403953552
			],
			"translation":[
				3.0228123664855957,
				2.0616822242736816,
				-0.8076640367507935
			]
		},
		{
			"name":"head_end",
			"rotation":[
				-0.2242390662431717,
				-3.126484848792188e-09,
				-6.386833839577832e-10,
				0.9745341539382935
			],
			"scale":[
				1,
				1.0000001192092896,
				1
			],
			"translation":[
				8.179925714557612e-08,
				17.52456283569336,
				-8.515617370605469
			]
		},
		{
			"name":"headfront",
			"rotation":[
				0.43824267387390137,
				-6.63206591866583e-08,
				-3.2156140861161475e-08,
				0.8988566994667053
			],
			"scale":[
				1,
				1.0000001192092896,
				1
			],
			"translation":[
				5.619284593194607e-09,
				6.657078742980957,
				8.515605926513672
			]
		},
		{
			"children":[
				12,
				13
			],
			"name":"Head",
			"rotation":[
				0.3738735318183899,
				7.678623958895514e-09,
				-2.305486246356736e-09,
				0.9274796843528748
			],
			"scale":[
				1,
				0.9999998807907104,
				0.9999998807907104
			],
			"translation":[
				-1.9978207888016186e-07,
				10.17420482635498,
				-9.302186299464665e-06
			]
		},
		{
			"children":[
				14
			],
			"name":"neck",
			"rotation":[
				0.1315637081861496,
				0.00971734058111906,
				-0.008765960112214088,
				0.9912213683128357
			],
			"scale":[
				0.9999998807907104,
				0.9999999403953552,
				0.9999999403953552
			],
			"translation":[
				0.11509047448635101,
				5.572537422180176,
				1.5048024654388428
			]
		},
		{
			"name":"RightHand",
			"rotation":[
				0.06362467259168625,
				-0.08656564354896545,
				-0.10247684270143509,
				0.9889169931411743
			],
			"scale":[
				0.9999998807907104,
				0.9999999403953552,
				0.9999998807907104
			],
			"translation":[
				-9.59634780883789e-06,
				22.707704544067383,
				6.794929504394531e-06
			]
		},
		{
			"children":[
				16
			],
			"name":"RightForeArm",
			"rotation":[
				-0.2531292140483856,
				0.11127912253141403,
				0.03435874730348587,
				0.9603968262672424
			],
			"scale":[
				0.9999999403953552,
				1,
				0.9999999403953552
			],
			"translation":[
				1.430511474609375e-06,
				24.48721694946289,
				-1.9073486328125e-06
			]
		},
		{
			"children":[
				17
			],
			"name":"RightArm",
			"rotation":[
				0.4818524122238159,
				-0.5413697361946106,
				-0.3662237524986267,
				0.5836241841316223
			],
			"scale":[
				1,
				0.9999999403953552,
				1
			],
			"translation":[
				-1.167541449831333e-05,
				12.700968742370605,
				1.5456687833648175e-05
			]
		},
		{
			"children":[
				18
			],
			"name":"RightShoulder",
			"rotation":[
				0.5479228496551514,
				-0.6156008839607239,
				0.41427695751190186,
				0.38625213503837585
			],
			"scale":[
				0.9999999403953552,
				1,
				0.9999998807907104
			],
			"translation":[
				-3.1379032135009766,
				2.16162109375,
				-0.697123110294342
			]
		},
		{
			"children":[
				11,
				15,
				19
			],
			"name":"Spine",
			"rotation":[
				-0.13047195971012115,
				-0.009726990945637226,
				0.008755253627896309,
				0.9913656711578369
			],
			"scale":[
				0.9999998211860657,
				0.9999998807907104,
				0.9999999403953552
			],
			"translation":[
				-3.708659335188713e-08,
				12.14453125,
				1.457915459468495e-06
			]
		},
		{
			"children":[
				20
			],
			"name":"Spine01",
			"rotation":[
				-7.450580596923828e-09,
				-3.267323744893247e-09,
				-3.622745881060041e-09,
				1
			],
			"translation":[
				-1.5978443457242975e-08,
				12.144479751586914,
				-1.4305379636425641e-06
			]
		},
		{
			"children":[
				21
			],
			"name":"Spine02",
			"rotation":[
				-0.28960445523262024,
				-0.0006452010129578412,
				-0.0007168104057200253,
				0.9571459293365479
			],
			"scale":[
				0.9999999403953552,
				0.9999999403953552,
				1
			],
			"translation":[
				0.02120288275182247,
				10.107359886169434,
				-6.732753753662109
			]
		},
		{
			"children":[
				3,
				7,
				22
			],
			"name":"Hips",
			"rotation":[
				0.23895135521888733,
				0.000681946228723973,
				0.0006819463451392949,
				0.9710310697555542
			],
			"scale":[
				0.9999999403953552,
				1,
				1.0000001192092896
			],
			"translation":[
				0.36296892166137695,
				99.52699279785156,
				3.9903318881988525
			]
		},
		{
			"mesh":0,
			"name":"char1",
			"skin":0
		},
		{
			"children":[
				24,
				23
			],
			"name":"Armature",
			"scale":[
				0.009999999776482582,
				0.009999999776482582,
				0.009999999776482582
			]
		}
	],
	"materials":[
		{
			"doubleSided":true,
			"emissiveFactor":[
				1,
				1,
				1
			],
			"emissiveTexture":{
				"index":0
			},
			"extensions":{
				"KHR_materials_specular":{
					"specularColorFactor":[
						2.0,
						2.0,
						2.0
					]
				}
			},
			"name":"Material_1",
			"pbrMetallicRoughness":{
				"baseColorTexture":{
					"index":1
				}
			}
		}
	],
	"meshes":[
		{
			"name":"char1",
			"primitives":[
				{
					"attributes":{
						"POSITION":0,
						"NORMAL":1,
						"TEXCOORD_0":2,
						"JOINTS_0":3,
						"WEIGHTS_0":4
					},
					"indices":5,
					"material":0
				}
			]
		}
	],
	"textures":[
		{
			"sampler":0,
			"source":0
		},
		{
			"sampler":0,
			"source":0
		}
	],
	"images":[
		{
			"mimeType":"image/png",
			"name":"texture_0",
			"uri":"texture_0.png"
		}
	],
	"skins":[
		{
			"inverseBindMatrices":6,
			"joints":[
				23,
				3,
				2,
				1,
				0,
				7,
				6,
				5,
				4,
				22,
				21,
				20,
				11,
				10,
				9,
				8,
				15,
				14,
				12,
				13,
				19,
				18,
				17,
				16
			],
			"name":"Armature"
		}
	],
	"accessors":[
		{
			"bufferView":0,
			"componentType":5126,
			"count":23632,
			"max":[
				0.3803746700286865,
				1.6999797821044922,
				0.14114366471767426
			],
			"min":[
				-0.3804733157157898,
				8.040045213419944e-05,
				-0.14092811942100525
			],
			"type":"VEC3"
		},
		{
			"bufferView":1,
			"componentType":5126,
			"count":23632,
			"type":"VEC3"
		},
		{
			"bufferView":2,
			"componentType":5126,
			"count":23632,
			"type":"VEC2"
		},
		{
			"bufferView":3,
			"componentType":5121,
			"count":23632,
			"type":"VEC4"
		},
		{
			"bufferView":4,
			"componentType":5126,
			"count":23632,
			"type":"VEC4"
		},
		{
			"bufferView":5,
			"componentType":5123,
			"count":119994,
			"type":"SCALAR"
		},
		{
			"bufferView":6,
			"componentType":5126,
			"count":24,
			"type":"MAT4"
		}
	],
	"bufferViews":[
		{
			"buffer":0,
			"byteLength":283584,
			"byteOffset":0,
			"target":34962
		},
		{
			"buffer":0,
			"byteLength":283584,
			"byteOffset":283584,
			"target":34962
		},
		{
			"buffer":0,
			"byteLength":189056,
			"byteOffset":567168,
			"target":34962
		},
		{
			"buffer":0,
			"byteLength":94528,
			"byteOffset":756224,
			"target":34962
		},
		{
			"buffer":0,
			"byteLength":378112,
			"byteOffset":850752,
			"target":34962
		},
		{
			"buffer":0,
			"byteLength":239988,
			"byteOffset":1228864,
			"target":34963
		},
		{
			"buffer":0,
			"byteLength":1536,
			"byteOffset":1468852
		}
	],
	"samplers":[
		{
			"magFilter":9729,
			"minFilter":9987
		}
	],
	"buffers":[
		{
			"byteLength":1470388,
			"uri":"iris_bell.bin"
		}
	]
}
