{"asset":{"generator":"Khronos glTF Blender I/O v5.2.39","version":"2.0"},"extensionsUsed":["KHR_materials_specular"],"scene":0,"scenes":[{"name":"Scene","nodes":[25]}],"nodes":[{"name":"LeftToeBase","rotation":[-0.3416706919670105,-0.029329288750886917,-0.010668450966477394,0.9393013715744019],"scale":[1.000000238418579,1.0000001192092896,1],"translation":[2.8312206268310547e-07,13.627848625183105,-9.715557098388672e-06]},{"children":[0],"name":"LeftFoot","rotation":[-0.4807449281215668,-0.042294904589653015,-0.017814982682466507,0.8756586909294128],"scale":[1,0.9999999403953552,1],"translation":[2.9802322387695312e-08,37.428001403808594,2.384185791015625e-07]},{"children":[1],"name":"LeftLeg","rotation":[0.04147880896925926,0.03671398013830185,0.03034977801144123,0.9980032444000244],"scale":[1,1.0000001192092896,1.0000001192092896],"translation":[-1.7508864402770996e-07,30.799983978271484,1.9818544387817383e-06]},{"children":[2],"name":"LeftUpLeg","rotation":[0.0799567922949791,-0.1404949575662613,-0.627382755279541,0.7617473006248474],"scale":[0.9999998807907104,1,0.9999998807907104],"translation":[9.41299819946289,-5.393444538116455,2.5710949897766113]},{"name":"RightToeBase","rotation":[-0.340509831905365,0.0368497408926487,0.013356841169297695,0.939423680305481],"scale":[0.9999999403953552,0.9999998211860657,0.9999998807907104],"translation":[1.3262033462524414e-06,13.856002807617188,1.6689300537109375e-06]},{"children":[4],"name":"RightFoot","rotation":[-0.4833977222442627,0.056026071310043335,0.0290997177362442,0.8731213808059692],"scale":[1,1.0000001192092896,1.0000001192092896],"translation":[-1.043081283569336e-07,37.09819793701172,5.960464477539062e-07]},{"children":[5],"name":"RightLeg","rotation":[0.045169245451688766,-0.0367654412984848,-0.02997882477939129,0.9978523254394531],"scale":[1,0.9999999403953552,0.9999999403953552],"translation":[-3.7401914596557617e-06,30.80158805847168,7.420778274536133e-06]},{"children":[6],"name":"RightUpLeg","rotation":[0.1345900446176529,-0.06198795884847641,-0.5299195647239685,0.8350020051002502],"scale":[0.9999999403953552,0.9999999403953552,0.9999999403953552],"translation":[4.464425563812256,10.016045570373535,1.9615452289581299]},{"name":"LeftHand","rotation":[0.03773561865091324,0.107558473944664,0.1271263211965561,0.9853152632713318],"translation":[-1.150369644165039e-05,23.898422241210938,-4.470348358154297e-06]},{"children":[8],"name":"LeftForeArm","rotation":[-0.1677444875240326,-0.08760576695203781,-0.021345149725675583,0.981698215007782],"scale":[1.0000001192092896,1,1],"translation":[-1.3947486877441406e-05,27.521345138549805,4.76837158203125e-07]},{"children":[9],"name":"LeftArm","rotation":[0.4726431965827942,0.5136926770210266,0.3152396082878113,0.6429247856140137],"scale":[0.9999998807907104,1.0000001192092896,1],"translation":[6.251808372326195e-06,14.000849723815918,-4.578028165269643e-05]},{"children":[10],"name":"LeftShoulder","rotation":[0.5073696970939636,0.5514352917671204,-0.4895097613334656,0.4459545910358429],"scale":[0.9999998211860657,0.9999995827674866,0.9999998807907104],"translation":[3.5119829177856445,6.004178524017334,-0.44322365522384644]},{"name":"head_end","rotation":[-0.24364076554775238,-3.108847224098099e-08,-0.002049056813120842,0.9698633551597595],"translation":[0.07750696688890457,17.185243606567383,-9.21585464477539]},{"name":"headfront","rotation":[0.42514824867248535,4.784631713050658e-08,0.0035755790304392576,0.9051166772842407],"scale":[1,1.0000001192092896,1.0000001192092896],"translation":[-0.07750749588012695,7.6454548835754395,9.21591854095459]},{"children":[12,13],"name":"Head","rotation":[0.36471661925315857,-4.604603964253329e-05,0.003165413858368993,0.9311131834983826],"scale":[0.9999999403953552,1,1],"translation":[2.337619662284851e-07,6.810311794281006,-4.4191256165504456e-06]},{"children":[14],"name":"neck","rotation":[0.03459024801850319,0.007027254439890385,-0.006360670085996389,0.9993566870689392],"scale":[0.9999998807907104,1,0.9999997615814209],"translation":[0.1627049446105957,12.296208381652832,0.8511183261871338]},{"name":"RightHand","rotation":[0.024789532646536827,-0.09019637107849121,-0.10989484190940857,0.9895318150520325],"translation":[1.4901161193847656e-06,24.043209075927734,-1.0848045349121094e-05]},{"children":[16],"name":"RightForeArm","rotation":[-0.1735941469669342,0.11060532182455063,0.04621711000800133,0.9774945378303528],"scale":[0.9999999403953552,0.9999998807907104,1],"translation":[2.5033950805664062e-06,26.817596435546875,-3.0472874641418457e-06]},{"children":[17],"name":"RightArm","rotation":[0.48017507791519165,-0.5194095969200134,-0.32889866828918457,0.625676691532135],"scale":[0.9999998807907104,0.9999998807907104,0.9999999403953552],"translation":[-5.3728799684904516e-06,14.840529441833496,-3.0674385925522074e-05]},{"children":[18],"name":"RightShoulder","rotation":[0.5086715817451477,-0.5502345561981201,0.48402032256126404,0.45190656185150146],"scale":[0.9999997615814209,0.9999997615814209,0.9999998807907104],"translation":[-3.6746885776519775,6.035244941711426,-0.407898873090744]},{"children":[11,15,19],"name":"Spine","rotation":[-0.03457506000995636,-0.004366659093648195,0.0040094670839607716,0.9993845224380493],"scale":[0.9999999403953552,0.9999998211860657,0.9999999403953552],"translation":[-1.2712553143501282e-07,14.883929252624512,1.8095597624778748e-06]},{"children":[20],"name":"Spine01","rotation":[5.85575961054019e-08,-3.4287953809553073e-08,2.84817396334347e-08,1],"scale":[0.9999999403953552,0.9999999403953552,0.9999998807907104],"translation":[-9.091338142752647e-06,14.88394832611084,1.8381979316473007e-07]},{"children":[21],"name":"Spine02","rotation":[-0.8063173294067383,0.5837533473968506,-0.07169941812753677,0.06279768794775009],"scale":[1.0000001192092896,1.0000003576278687,0.9999998807907104],"translation":[-13.877373695373535,-4.622593879699707,-2.753207206726074]},{"children":[3,7,22],"name":"Hips","rotation":[0.8033537864685059,-0.5829957723617554,0.08584511280059814,0.08584503084421158],"scale":[0.9999999403953552,0.9999999403953552,0.9999998807907104],"translation":[0.36296892166137695,87.64259338378906,2.518273115158081]},{"mesh":0,"name":"char1","skin":0},{"children":[24,23],"name":"Armature","scale":[0.009999999776482582,0.009999999776482582,0.009999999776482582]}],"materials":[{"doubleSided":true,"extensions":{"KHR_materials_specular":{"specularColorFactor":[1.0,1.0,1.0]}},"name":"Material_1","pbrMetallicRoughness":{"baseColorTexture":{"index":1}}}],"meshes":[{"name":"char1","primitives":[{"attributes":{"POSITION":0,"NORMAL":1,"TEXCOORD_0":2,"JOINTS_0":3,"WEIGHTS_0":4},"indices":5,"material":0}]}],"textures":[{"sampler":0,"source":0},{"sampler":0,"source":0}],"images":[{"mimeType":"image/png","name":"texture_0","uri":"texture_0.png"}],"skins":[{"inverseBindMatrices":6,"joints":[23,3,2,1,0,7,6,5,4,22,21,20,11,10,9,8,15,14,12,13,19,18,17,16],"name":"Armature"}],"accessors":[{"bufferView":0,"componentType":5126,"count":22777,"max":[0.4579508900642395,1.7000558376312256,0.15280786156654358],"min":[-0.4581073820590973,9.039771248353645e-05,-0.15336279571056366],"type":"VEC3"},{"bufferView":1,"componentType":5126,"count":22777,"type":"VEC3"},{"bufferView":2,"componentType":5126,"count":22777,"type":"VEC2"},{"bufferView":3,"componentType":5121,"count":22777,"type":"VEC4"},{"bufferView":4,"componentType":5126,"count":22777,"type":"VEC4"},{"bufferView":5,"componentType":5123,"count":119997,"type":"SCALAR"},{"bufferView":6,"componentType":5126,"count":24,"type":"MAT4"}],"bufferViews":[{"buffer":0,"byteLength":273324,"byteOffset":0,"target":34962},{"buffer":0,"byteLength":273324,"byteOffset":273324,"target":34962},{"buffer":0,"byteLength":182216,"byteOffset":546648,"target":34962},{"buffer":0,"byteLength":91108,"byteOffset":728864,"target":34962},{"buffer":0,"byteLength":364432,"byteOffset":819972,"target":34962},{"buffer":0,"byteLength":239994,"byteOffset":1184404,"target":34963},{"buffer":0,"byteLength":1536,"byteOffset":1424400}],"samplers":[{"magFilter":9729,"minFilter":9987}],"buffers":[{"byteLength":1425936,"uri":"cal_dwyer.bin"}]}