{"asset":{"generator":"Khronos glTF Blender I/O v5.2.39","version":"2.0"},"extensionsUsed":["KHR_materials_specular"],"scene":0,"scenes":[{"name":"Scene","nodes":[25]}],"nodes":[{"name":"LeftToeBase","rotation":[-0.4358757734298706,-0.039114344865083694,-0.018964288756251335,0.8989564776420593],"scale":[1,1,0.9999999403953552],"translation":[-5.662441253662109e-07,13.072803497314453,-8.344650268554688e-07]},{"children":[0],"name":"LeftFoot","rotation":[-0.36875486373901367,-0.016855593770742416,0.017234494909644127,0.9292140603065491],"scale":[0.9999998807907104,0.9999999403953552,1],"translation":[-1.8477439880371094e-06,37.73793411254883,2.384185791015625e-07]},{"children":[1],"name":"LeftLeg","rotation":[-0.001360808266326785,0.0008054487989284098,0.0008522119023837149,0.9999983906745911],"scale":[1,0.9999999403953552,0.9999998211860657],"translation":[2.3096799850463867e-06,37.78854751586914,7.748603820800781e-07]},{"children":[2],"name":"LeftUpLeg","rotation":[-0.5086677670478821,-0.6500358581542969,0.41097909212112427,0.38704878091812134],"scale":[0.9999998807907104,0.9999996423721313,1],"translation":[2.7869627475738525,8.883665084838867,-8.485774993896484]},{"name":"RightToeBase","rotation":[-0.43813788890838623,0.04840363562107086,0.023634925484657288,0.89729243516922],"scale":[1,0.9999999403953552,0.9999998807907104],"translation":[4.5746564865112305e-06,13.48265552520752,-7.152557373046875e-06]},{"children":[4],"name":"RightFoot","rotation":[-0.3706115484237671,0.030312441289424896,-0.0015798159874975681,0.9282918572425842],"scale":[0.9999999403953552,0.9999998211860657,0.9999998807907104],"translation":[-6.854534149169922e-07,38.12206268310547,0]},{"children":[5],"name":"RightLeg","rotation":[0.0066287158988416195,-0.008998735807836056,-0.007561690639704466,0.999908983707428],"scale":[0.9999999403953552,0.9999998807907104,0.9999998807907104],"translation":[9.175390005111694e-06,37.196876525878906,3.2186508178710938e-06]},{"children":[6],"name":"RightUpLeg","rotation":[-0.6050976514816284,-0.5596447587013245,0.3902358412742615,0.41032978892326355],"scale":[1,1.0000001192092896,1.000000238418579],"translation":[3.7889187335968018,-8.088109970092773,-8.969863891601562]},{"name":"LeftHand","rotation":[0.060630954802036285,0.09899785369634628,0.10622424632310867,0.9875422716140747],"scale":[0.9999997615814209,1.0000001192092896,1.0000001192092896],"translation":[-1.195073127746582e-05,23.40535545349121,2.422928810119629e-05]},{"children":[8],"name":"LeftForeArm","rotation":[-0.19336482882499695,-0.0995250940322876,-0.024318762123584747,0.9757629632949829],"scale":[1,0.9999998807907104,1],"translation":[7.152557373046875e-06,25.29928207397461,-4.172325134277344e-07]},{"children":[9],"name":"LeftArm","rotation":[0.4690394401550293,0.5259271264076233,0.32667088508605957,0.62983238697052],"scale":[0.9999999403953552,1.0000001192092896,0.9999998807907104],"translation":[-4.4656189857050776e-08,12.372824668884277,1.520704881841084e-05]},{"children":[10],"name":"LeftShoulder","rotation":[0.5300202965736389,0.5943039059638977,-0.45746996998786926,0.3957304060459137],"scale":[1.0000001192092896,1.0000001192092896,0.9999998807907104],"translation":[3.094423294067383,2.8235020637512207,-0.7128285765647888]},{"name":"head_end","rotation":[-0.21786504983901978,-1.8637248688779806e-10,-2.6888343995778996e-08,0.9759789109230042],"scale":[1,0.9999999403953552,1],"translation":[9.397282951795205e-07,17.64549446105957,-8.291086196899414]},{"name":"headfront","rotation":[0.4446007013320923,1.8789288347420552e-08,6.471479707670369e-08,0.8957288861274719],"scale":[1,0.9999999403953552,1],"translation":[-1.1323515991534805e-06,6.294225215911865,8.291054725646973]},{"children":[12,13],"name":"Head","rotation":[0.36320918798446655,8.495660175356079e-09,4.1306218889758384e-08,0.9317076206207275],"scale":[1,0.9999998807907104,0.9999999403953552],"translation":[6.539597308119482e-08,8.552207946777344,-3.247510221626726e-06]},{"children":[14],"name":"neck","rotation":[0.08867605775594711,0.006765234749764204,-0.006156924646347761,0.9960185289382935],"scale":[0.9999998807907104,0.9999998807907104,1],"translation":[0.10132010281085968,7.4059882164001465,1.3286163806915283]},{"name":"RightHand","rotation":[0.04249270260334015,-0.08038818836212158,-0.08887232840061188,0.9918839931488037],"scale":[1,0.9999998807907104,1],"translation":[3.8743019104003906e-07,23.343097686767578,-8.761882781982422e-06]},{"children":[16],"name":"RightForeArm","rotation":[-0.1953619420528412,0.11747778207063675,0.0469314269721508,0.9725380539894104],"scale":[1,0.9999999403953552,0.9999999403953552],"translation":[-2.384185791015625e-06,24.602577209472656,-2.5937333703041077e-06]},{"children":[17],"name":"RightArm","rotation":[0.4769289195537567,-0.5318004488945007,-0.34166985750198364,0.6107280850410461],"scale":[1,0.9999998807907104,0.9999998211860657],"translation":[-2.0969673641957343e-07,12.949348449707031,-4.6371258122235304e-07]},{"children":[18],"name":"RightShoulder","rotation":[0.5316643714904785,-0.5928335189819336,0.4441574215888977,0.41061609983444214],"scale":[0.9999998807907104,0.9999998807907104,0.9999999403953552],"translation":[-3.195744752883911,2.891616106033325,-0.6157946586608887]},{"children":[11,15,19],"name":"Spine","rotation":[-0.08867594599723816,-0.006765237543731928,0.006156922783702612,0.9960185289382935],"translation":[-5.0168839749176186e-08,12.504412651062012,-2.620931809360627e-06]},{"children":[20],"name":"Spine01","rotation":[-1.303851338008144e-08,5.240883282908726e-08,-3.322706021435806e-08,1],"translation":[6.301063422142761e-07,12.504456520080566,-4.834546871279599e-06]},{"children":[21],"name":"Spine02","rotation":[0.34454602003097534,0.34218329191207886,0.6427279114723206,0.592536449432373],"scale":[0.9999999403953552,1,1.0000001192092896],"translation":[-6.575887203216553,-0.7955626249313354,10.605971336364746]},{"children":[3,7,22],"name":"Hips","rotation":[-0.3720276951789856,-0.372027724981308,-0.6259264349937439,0.5756794810295105],"scale":[1,1,0.9999999403953552],"translation":[0.36296892166137695,98.05988311767578,3.9401893615722656]},{"mesh":0,"name":"char1","skin":0},{"children":[24,23],"name":"Armature","scale":[0.009999999776482582,0.009999999776482582,0.009999999776482582]}],"materials":[{"doubleSided":true,"extensions":{"KHR_materials_specular":{"specularColorFactor":[1.0,1.0,1.0]}},"name":"Material_1","pbrMetallicRoughness":{"baseColorTexture":{"index":1}}}],"meshes":[{"name":"char1","primitives":[{"attributes":{"POSITION":0,"NORMAL":1,"TEXCOORD_0":2,"JOINTS_0":3,"WEIGHTS_0":4},"indices":5,"material":0}]}],"textures":[{"sampler":0,"source":0},{"sampler":0,"source":0}],"images":[{"mimeType":"image/png","name":"texture_0","uri":"texture_0.png"}],"skins":[{"inverseBindMatrices":6,"joints":[23,3,2,1,0,7,6,5,4,22,21,20,11,10,9,8,15,14,12,13,19,18,17,16],"name":"Armature"}],"accessors":[{"bufferView":0,"componentType":5126,"count":24807,"max":[0.42310917377471924,1.699678659439087,0.1335212141275406],"min":[-0.423105925321579,2.9270999220898375e-05,-0.1336451917886734],"type":"VEC3"},{"bufferView":1,"componentType":5126,"count":24807,"type":"VEC3"},{"bufferView":2,"componentType":5126,"count":24807,"type":"VEC2"},{"bufferView":3,"componentType":5121,"count":24807,"type":"VEC4"},{"bufferView":4,"componentType":5126,"count":24807,"type":"VEC4"},{"bufferView":5,"componentType":5123,"count":119997,"type":"SCALAR"},{"bufferView":6,"componentType":5126,"count":24,"type":"MAT4"}],"bufferViews":[{"buffer":0,"byteLength":297684,"byteOffset":0,"target":34962},{"buffer":0,"byteLength":297684,"byteOffset":297684,"target":34962},{"buffer":0,"byteLength":198456,"byteOffset":595368,"target":34962},{"buffer":0,"byteLength":99228,"byteOffset":793824,"target":34962},{"buffer":0,"byteLength":396912,"byteOffset":893052,"target":34962},{"buffer":0,"byteLength":239994,"byteOffset":1289964,"target":34963},{"buffer":0,"byteLength":1536,"byteOffset":1529960}],"samplers":[{"magFilter":9729,"minFilter":9987}],"buffers":[{"byteLength":1531496,"uri":"nadia_quell.bin"}]}