{"asset":{"generator":"Khronos glTF Blender I/O v5.2.39","version":"2.0"},"extensionsUsed":["KHR_materials_specular"],"scene":0,"scenes":[{"name":"Scene","nodes":[25]}],"nodes":[{"name":"LeftToeBase","rotation":[-0.3670869469642639,-0.020475400611758232,-0.008080136962234974,0.9299261569976807],"scale":[1,0.9999998807907104,1],"translation":[-3.725290298461914e-08,13.587085723876953,6.258487701416016e-07]},{"children":[0],"name":"LeftFoot","rotation":[-0.45965975522994995,-0.02466593123972416,-0.007672059815376997,0.8877193331718445],"scale":[1.0000001192092896,0.9999998807907104,1],"translation":[5.960464477539062e-07,37.05337142944336,1.3709068298339844e-06]},{"children":[1],"name":"LeftLeg","rotation":[0.018668383359909058,0.03073800355195999,0.026166440919041634,0.9990105032920837],"scale":[0.9999998807907104,1,1],"translation":[-4.945322871208191e-07,36.30457305908203,1.4454126358032227e-06]},{"children":[2],"name":"LeftUpLeg","rotation":[-0.5140647888183594,-0.653258740901947,0.40494486689567566,0.38080182671546936],"scale":[1,1.000000238418579,1],"translation":[2.8589518070220947,8.099695205688477,-8.09178352355957]},{"name":"RightToeBase","rotation":[-0.36408671736717224,0.02687115967273712,0.01050836406648159,0.9309180974960327],"scale":[1.0000001192092896,1,1.0000001192092896],"translation":[-2.682209014892578e-07,13.586626052856445,7.68899917602539e-06]},{"children":[4],"name":"RightFoot","rotation":[-0.46233871579170227,0.038289498537778854,0.02395576983690262,0.8855523467063904],"scale":[0.9999998211860657,0.9999999403953552,1],"translation":[1.1920928955078125e-06,37.0517578125,-2.086162567138672e-07]},{"children":[5],"name":"RightLeg","rotation":[0.019931161776185036,-0.037897851318120956,-0.03249490261077881,0.9985542297363281],"scale":[0.9999999403953552,0.9999998807907104,0.9999997615814209],"translation":[2.2994354367256165e-06,36.31126403808594,-1.0952353477478027e-06]},{"children":[6],"name":"RightUpLeg","rotation":[-0.6043266654014587,-0.5679728984832764,0.3852289617061615,0.40471580624580383],"scale":[1,0.9999998807907104,0.9999998211860657],"translation":[3.853848934173584,-7.276641368865967,-8.685494422912598]},{"name":"LeftHand","rotation":[0.10769239813089371,0.10366055369377136,0.08086124062538147,0.9854533672332764],"scale":[1,0.9999998807907104,1],"translation":[1.71661376953125e-05,23.574974060058594,4.76837158203125e-06]},{"children":[8],"name":"LeftForeArm","rotation":[-0.17307955026626587,-0.07464686036109924,0.04172974452376366,0.9811880588531494],"scale":[1,0.9999999403953552,0.9999998807907104],"translation":[5.9604644775390625e-06,23.37250518798828,1.239776611328125e-05]},{"children":[9],"name":"LeftArm","rotation":[0.3963470757007599,0.4305309057235718,0.20774339139461517,0.783833384513855],"scale":[0.9999998807907104,1,1.0000001192092896],"translation":[-3.672108505270444e-06,13.544681549072266,-1.5555559684798936e-07]},{"children":[10],"name":"LeftShoulder","rotation":[0.5374426245689392,0.5837957262992859,-0.4476701617240906,0.4122249484062195],"scale":[0.9999998807907104,1.0000001192092896,0.9999999403953552],"translation":[3.374518871307373,1.9321024417877197,-0.6384978890419006]},{"name":"head_end","rotation":[-0.21776127815246582,-3.1394771227155616e-09,-2.256192566107984e-08,0.976002037525177],"scale":[0.9999999403953552,0.9999998807907104,1],"translation":[1.055038296726707e-06,20.169635772705078,-9.471853256225586]},{"name":"headfront","rotation":[0.5066712498664856,2.4011370669541066e-08,6.964285148569616e-08,0.8621393442153931],"scale":[0.9999999403953552,0.9999999403953552,1],"translation":[-9.938383982444066e-07,5.275241374969482,9.47184944152832]},{"children":[12,13],"name":"Head","rotation":[0.2956022024154663,7.956534098241264e-09,3.0247957027995653e-08,0.955311119556427],"scale":[0.9999999403953552,1,1],"translation":[6.322032675143419e-09,9.605133056640625,6.326083166641183e-06]},{"children":[14],"name":"neck","rotation":[0.08505140990018845,-5.412464088294655e-05,4.938746860716492e-05,0.9963765740394592],"scale":[1,0.9999999403953552,0.9999999403953552],"translation":[-0.0008221910102292895,7.529222011566162,1.2948366403579712]},{"name":"RightHand","rotation":[0.0971275269985199,-0.09788643568754196,-0.07724146544933319,0.9874301552772522],"scale":[1,1,1.0000001192092896],"translation":[9.059906005859375e-06,24.292646408081055,5.245208740234375e-06]},{"children":[16],"name":"RightForeArm","rotation":[-0.1953350156545639,0.11133577674627304,-0.006884532980620861,0.9743722081184387],"scale":[0.9999998807907104,0.9999999403953552,0.9999998807907104],"translation":[4.291534423828125e-06,21.72728157043457,1.6689300537109375e-06]},{"children":[17],"name":"RightArm","rotation":[0.41132158041000366,-0.4473901093006134,-0.22395849227905273,0.7619050145149231],"scale":[0.9999998211860657,0.9999999403953552,1],"translation":[3.5148095776094124e-06,13.542104721069336,1.5120577700145077e-05]},{"children":[18],"name":"RightShoulder","rotation":[0.5370564460754395,-0.584151029586792,0.44804179668426514,0.4118209481239319],"scale":[1.0000001192092896,1.000000238418579,1],"translation":[-3.373696804046631,1.9360734224319458,-0.6563124060630798]},{"children":[11,15,19],"name":"Spine","rotation":[-0.08021621406078339,5.4363506933441386e-05,-4.912425720249303e-05,0.9967774748802185],"scale":[1.0000001192092896,1,1],"translation":[-7.720373673691938e-09,12.136866569519043,2.332473286514869e-06]},{"children":[20],"name":"Spine01","rotation":[-5.5879347371501353e-08,4.7544212122829776e-08,-5.207005671081788e-08,1],"scale":[1,1,1.0000001192092896],"translation":[-1.0797010645546834e-06,12.136908531188965,9.866570280792075e-07]},{"children":[21],"name":"Spine02","rotation":[0.33455345034599304,0.33185702562332153,0.649600625038147,0.5966271758079529],"scale":[0.9999999403953552,0.9999999403953552,0.9999999403953552],"translation":[-6.712830066680908,-0.8230509757995605,10.077980995178223]},{"children":[3,7,22],"name":"Hips","rotation":[-0.36445140838623047,-0.36445140838623047,-0.6318901777267456,0.578848123550415],"scale":[1.0000001192092896,1.0000001192092896,0.9999999403953552],"translation":[0.36296892166137695,94.75782775878906,4.6472063064575195]},{"mesh":0,"name":"char1","skin":0},{"children":[24,23],"name":"Armature","scale":[0.009999999776482582,0.009999999776482582,0.009999999776482582]}],"materials":[{"alphaMode":"BLEND","doubleSided":true,"extensions":{"KHR_materials_specular":{"specularColorFactor":[1.0,1.0,1.0]}},"name":"Material_1","pbrMetallicRoughness":{"baseColorTexture":{"index":1}}}],"meshes":[{"name":"char1","primitives":[{"attributes":{"POSITION":0,"NORMAL":1,"TEXCOORD_0":2,"JOINTS_0":3,"WEIGHTS_0":4},"indices":5,"material":0}]}],"textures":[{"sampler":0,"source":0},{"sampler":0,"source":0}],"images":[{"mimeType":"image/png","name":"texture_0","uri":"texture_0.png"}],"skins":[{"inverseBindMatrices":6,"joints":[23,3,2,1,0,7,6,5,4,22,21,20,11,10,9,8,15,14,12,13,19,18,17,16],"name":"Armature"}],"accessors":[{"bufferView":0,"componentType":5126,"count":29854,"max":[0.5759588479995728,1.6999636888504028,0.15286700427532196],"min":[-0.5756687521934509,1.0083271263283677e-05,-0.15308217704296112],"type":"VEC3"},{"bufferView":1,"componentType":5126,"count":29854,"type":"VEC3"},{"bufferView":2,"componentType":5126,"count":29854,"type":"VEC2"},{"bufferView":3,"componentType":5121,"count":29854,"type":"VEC4"},{"bufferView":4,"componentType":5126,"count":29854,"type":"VEC4"},{"bufferView":5,"componentType":5123,"count":120000,"type":"SCALAR"},{"bufferView":6,"componentType":5126,"count":24,"type":"MAT4"}],"bufferViews":[{"buffer":0,"byteLength":358248,"byteOffset":0,"target":34962},{"buffer":0,"byteLength":358248,"byteOffset":358248,"target":34962},{"buffer":0,"byteLength":238832,"byteOffset":716496,"target":34962},{"buffer":0,"byteLength":119416,"byteOffset":955328,"target":34962},{"buffer":0,"byteLength":477664,"byteOffset":1074744,"target":34962},{"buffer":0,"byteLength":240000,"byteOffset":1552408,"target":34963},{"buffer":0,"byteLength":1536,"byteOffset":1792408}],"samplers":[{"magFilter":9729,"minFilter":9987}],"buffers":[{"byteLength":1793944,"uri":"lena_ortiz.bin"}]}