{"asset":{"generator":"Khronos glTF Blender I/O v5.2.39","version":"2.0"},"extensionsUsed":["KHR_materials_specular"],"scene":0,"scenes":[{"name":"Scene","nodes":[25]}],"nodes":[{"name":"LeftToeBase","rotation":[-0.32052308320999146,-0.02739376574754715,-0.009275794960558414,0.9467990398406982],"scale":[1.0000001192092896,1.0000001192092896,1.0000001192092896],"translation":[8.642673492431641e-07,14.562036514282227,2.384185791015625e-07]},{"children":[0],"name":"LeftFoot","rotation":[-0.5017356276512146,-0.05158355459570885,-0.040043044835329056,0.8625527024269104],"scale":[0.9999999403953552,0.9999999403953552,0.9999999403953552],"translation":[7.301568984985352e-07,38.52206039428711,-7.450580596923828e-08]},{"children":[1],"name":"LeftLeg","rotation":[0.01509852521121502,0.03764644265174866,0.03256361559033394,0.9986463189125061],"scale":[0.9999998807907104,0.9999999403953552,0.9999999403953552],"translation":[1.0728836059570312e-06,37.48945999145508,9.59634780883789e-06]},{"children":[2],"name":"LeftUpLeg","rotation":[0.9796967506408691,0.0489228218793869,-0.07012277841567993,0.18133872747421265],"scale":[1,0.9999999403953552,1.0000004768371582],"translation":[7.477243423461914,-8.519700050354004,2.9520442485809326]},{"name":"RightToeBase","rotation":[-0.31902360916137695,0.03223900496959686,0.010858498513698578,0.9471360445022583],"scale":[0.9999999403953552,0.9999998211860657,0.9999999403953552],"translation":[-1.087784767150879e-06,14.604988098144531,-1.150369644165039e-05]},{"children":[4],"name":"RightFoot","rotation":[-0.5023014545440674,0.0637555718421936,0.055337682366371155,0.8605616092681885],"scale":[1,0.9999999403953552,0.9999998807907104],"translation":[9.365037954012223e-07,38.89194107055664,3.7845825318072457e-07]},{"children":[5],"name":"RightLeg","rotation":[0.016250256448984146,-0.0449075885117054,-0.038977935910224915,0.9980981945991516],"scale":[0.9999998211860657,0.9999999403953552,0.9999999403953552],"translation":[2.7567148208618164e-06,37.201751708984375,7.152557373046875e-06]},{"children":[6],"name":"RightUpLeg","rotation":[0.982799232006073,-0.011657653376460075,0.029232900589704514,0.18197579681873322],"scale":[0.9999998807907104,1,1.0000004768371582],"translation":[-6.884077072143555,-8.880311965942383,3.6455912590026855]},{"name":"LeftHand","rotation":[0.06155766174197197,0.10860466957092285,0.11605863273143768,0.9853659868240356],"scale":[1,0.9999998807907104,0.9999998807907104],"translation":[-1.8894672393798828e-05,23.391138076782227,-3.993511199951172e-06]},{"children":[8],"name":"LeftForeArm","rotation":[-0.15652425587177277,-0.0692843571305275,0.015068048611283302,0.9851258397102356],"scale":[0.9999999403953552,1.0000001192092896,1],"translation":[1.239776611328125e-05,24.429317474365234,1.71661376953125e-05]},{"children":[9],"name":"LeftArm","rotation":[0.43813973665237427,0.48090651631355286,0.2530503571033478,0.7160502672195435],"scale":[1.0000001192092896,0.9999999403953552,1.0000001192092896],"translation":[3.1507406674791127e-06,13.440062522888184,3.052058161756577e-07]},{"children":[10],"name":"LeftShoulder","rotation":[0.5391587615013123,0.5917866230010986,-0.45000016689300537,0.3957224488258362],"scale":[1.0000001192092896,1.0000003576278687,1.000000238418579],"translation":[3.3576765060424805,1.9406298398971558,-0.7747588753700256]},{"name":"head_end","rotation":[-0.23843196034431458,-3.910849954991136e-08,-0.0019960980862379074,0.9711571335792542],"scale":[1,1.0000001192092896,1.0000001192092896],"translation":[0.07532215863466263,17.218582153320312,-8.997140884399414]},{"name":"headfront","rotation":[0.4154035151004791,-1.1614264394665952e-07,0.0034775864332914352,0.9096305966377258],"scale":[1,1.0000001192092896,1],"translation":[-0.075322225689888,7.796201705932617,8.99716854095459]},{"children":[12,13],"name":"Head","rotation":[0.3875214755535126,-3.937939982279204e-05,0.003330530598759651,0.9218546748161316],"scale":[0.9999999403953552,1,1],"translation":[-2.7008354663848877e-08,9.569849014282227,-5.673617124557495e-06]},{"children":[14],"name":"neck","rotation":[0.10178527981042862,0.012756884098052979,-0.010887552052736282,0.9946650266647339],"scale":[1,1.000000238418579,1.0000001192092896],"translation":[0.1848170906305313,7.459772109985352,1.5407065153121948]},{"name":"RightHand","rotation":[0.06150519847869873,-0.10597804188728333,-0.11218570172786713,0.9861035346984863],"scale":[0.9999999403953552,0.9999999403953552,0.9999998807907104],"translation":[-1.3709068298339844e-06,23.611745834350586,-2.372264862060547e-05]},{"children":[16],"name":"RightForeArm","rotation":[-0.1659822165966034,0.0847533792257309,-0.0013863581698387861,0.98247891664505],"scale":[1,1.0000001192092896,0.9999999403953552],"translation":[-5.245208740234375e-06,23.76191520690918,-4.76837158203125e-07]},{"children":[17],"name":"RightArm","rotation":[0.44480007886886597,-0.48574867844581604,-0.25855523347854614,0.7066472172737122],"scale":[1.000000238418579,1.0000001192092896,1.000000238418579],"translation":[3.198147169314325e-07,14.254881858825684,1.515265648777131e-05]},{"children":[18],"name":"RightShoulder","rotation":[0.5406509637832642,-0.590423583984375,0.43476301431655884,0.4124046266078949],"scale":[1.0000003576278687,1.0000004768371582,1.000000238418579],"translation":[-3.542492151260376,1.6757779121398926,-0.7659364938735962]},{"children":[11,15,19],"name":"Spine","rotation":[-0.09846525639295578,-0.010102901607751846,0.008857563138008118,0.995049774646759],"scale":[0.9999999403953552,0.9999998807907104,0.9999999403953552],"translation":[-2.3748725652694702e-07,12.368159294128418,-2.7136411517858505e-06]},{"children":[20],"name":"Spine01","rotation":[5.772199429543434e-08,-7.552444003522396e-09,1.8168066162616014e-08,1],"scale":[1.0000001192092896,0.9999999403953552,1],"translation":[1.755543053150177e-07,12.36802864074707,-1.2356089428067207e-05]},{"children":[21],"name":"Spine02","rotation":[-0.27821698784828186,0.021055918186903,0.018874622881412506,0.9601019620895386],"scale":[0.9999999403953552,1,0.9999998211860657],"translation":[-0.5931670665740967,10.444619178771973,-6.597625732421875]},{"children":[3,7,22],"name":"Hips","rotation":[0.23536022007465363,-0.020469188690185547,-0.0204691831022501,0.9714770317077637],"scale":[0.9999998807907104,0.9999999403953552,0.9999999403953552],"translation":[0.36296892166137695,97.32381439208984,3.065776824951172]},{"mesh":0,"name":"char1","skin":0},{"children":[24,23],"name":"Armature","scale":[0.009999999776482582,0.009999999776482582,0.009999999776482582]}],"materials":[{"doubleSided":true,"extensions":{"KHR_materials_specular":{"specularColorFactor":[1.0,1.0,1.0]}},"name":"Material_1","pbrMetallicRoughness":{"baseColorTexture":{"index":1}}}],"meshes":[{"name":"char1","primitives":[{"attributes":{"POSITION":0,"NORMAL":1,"TEXCOORD_0":2,"JOINTS_0":3,"WEIGHTS_0":4},"indices":5,"material":0}]}],"textures":[{"sampler":0,"source":0},{"sampler":0,"source":0}],"images":[{"mimeType":"image/png","name":"texture_0","uri":"texture_0.png"}],"skins":[{"inverseBindMatrices":6,"joints":[23,3,2,1,0,7,6,5,4,22,21,20,11,10,9,8,15,14,12,13,19,18,17,16],"name":"Armature"}],"accessors":[{"bufferView":0,"componentType":5126,"count":24145,"max":[0.5034406185150146,1.6998302936553955,0.15218862891197205],"min":[-0.5034791827201843,2.1423718408186687e-06,-0.152404323220253],"type":"VEC3"},{"bufferView":1,"componentType":5126,"count":24145,"type":"VEC3"},{"bufferView":2,"componentType":5126,"count":24145,"type":"VEC2"},{"bufferView":3,"componentType":5121,"count":24145,"type":"VEC4"},{"bufferView":4,"componentType":5126,"count":24145,"type":"VEC4"},{"bufferView":5,"componentType":5123,"count":120000,"type":"SCALAR"},{"bufferView":6,"componentType":5126,"count":24,"type":"MAT4"}],"bufferViews":[{"buffer":0,"byteLength":289740,"byteOffset":0,"target":34962},{"buffer":0,"byteLength":289740,"byteOffset":289740,"target":34962},{"buffer":0,"byteLength":193160,"byteOffset":579480,"target":34962},{"buffer":0,"byteLength":96580,"byteOffset":772640,"target":34962},{"buffer":0,"byteLength":386320,"byteOffset":869220,"target":34962},{"buffer":0,"byteLength":240000,"byteOffset":1255540,"target":34963},{"buffer":0,"byteLength":1536,"byteOffset":1495540}],"samplers":[{"magFilter":9729,"minFilter":9987}],"buffers":[{"byteLength":1497076,"uri":"peter_wren.bin"}]}