{
	"asset":{
		"generator":"Khronos glTF Blender I/O v5.2.39",
		"version":"2.0"
	},
	"extensionsUsed":[
		"KHR_materials_specular"
	],
	"scene":0,
	"scenes":[
		{
			"name":"Scene",
			"nodes":[
				29
			]
		}
	],
	"nodes":[
		{
			"name":"LeftToe_end",
			"rotation":[
				0.004053320270031691,
				0.21404866874217987,
				-0.7629284262657166,
				0.6100057363510132
			],
			"translation":[
				5.718220563721843e-09,
				0.06748947501182556,
				1.269304661377646e-09
			]
		},
		{
			"children":[
				0
			],
			"name":"LeftToeBase",
			"rotation":[
				0.017268288880586624,
				0.9093976616859436,
				-0.2347962111234665,
				0.34288251399993896
			],
			"scale":[
				0.9999999403953552,
				1.000000238418579,
				0.9999999403953552
			],
			"translation":[
				2.3283064365386963e-09,
				0.11032521724700928,
				-2.7939677238464355e-09
			]
		},
		{
			"children":[
				1
			],
			"name":"LeftFoot",
			"rotation":[
				-0.5190978646278381,
				0.22493185102939606,
				-0.25275933742523193,
				0.784892201423645
			],
			"scale":[
				0.9999999403953552,
				0.9999999403953552,
				1
			],
			"translation":[
				-1.1318277870486781e-08,
				0.40234604477882385,
				6.703544386255089e-09
			]
		},
		{
			"children":[
				2
			],
			"name":"LeftLeg",
			"rotation":[
				0.02702256478369236,
				-0.04334647208452225,
				0.04870812967419624,
				0.9975060820579529
			],
			"scale":[
				0.9999999403953552,
				1,
				0.9999999403953552
			],
			"translation":[
				7.683411240577698e-09,
				0.35131922364234924,
				-1.862645149230957e-09
			]
		},
		{
			"children":[
				3
			],
			"name":"LeftUpLeg",
			"rotation":[
				0.9978592991828918,
				0.049925100058317184,
				0.04208723455667496,
				0.00360594829544425
			],
			"scale":[
				1.0000245571136475,
				0.9999999403953552,
				1.0000003576278687
			],
			"translation":[
				0.07743525505065918,
				-0.08672911673784256,
				0.005726332776248455
			]
		},
		{
			"name":"RightToe_end",
			"rotation":[
				0.01926542818546295,
				-0.6403629183769226,
				0.7678093314170837,
				0.005745420698076487
			],
			"scale":[
				0.9999998211860657,
				0.9999997615814209,
				0.9999998807907104
			],
			"translation":[
				9.335963113699108e-10,
				0.07259754836559296,
				1.1007159628206864e-09
			]
		},
		{
			"children":[
				5
			],
			"name":"RightToeBase",
			"rotation":[
				0.027306970208883286,
				-0.9077319502830505,
				0.22927801311016083,
				0.3502978980541229
			],
			"scale":[
				1,
				1.0000001192092896,
				1
			],
			"translation":[
				-7.450580596923828e-09,
				0.11037321388721466,
				-6.51925802230835e-09
			]
		},
		{
			"children":[
				6
			],
			"name":"RightFoot",
			"rotation":[
				-0.5199573636054993,
				-0.20599645376205444,
				0.2509010434150696,
				0.7901003360748291
			],
			"translation":[
				3.958120942115784e-09,
				0.39555466175079346,
				4.190951585769653e-09
			]
		},
		{
			"children":[
				7
			],
			"name":"RightLeg",
			"rotation":[
				0.029435385018587112,
				0.020056957378983498,
				-0.023662900552153587,
				0.9990852475166321
			],
			"scale":[
				1,
				1,
				0.9999998807907104
			],
			"translation":[
				-4.889443516731262e-09,
				0.3565426468849182,
				-3.725290298461914e-09
			]
		},
		{
			"children":[
				8
			],
			"name":"RightUpLeg",
			"rotation":[
				0.9984707832336426,
				-0.037962883710861206,
				-0.03986365348100662,
				0.005081024020910263
			],
			"scale":[
				1.0000081062316895,
				0.9999995231628418,
				1.000000238418579
			],
			"translation":[
				-0.06722936779260635,
				-0.08879019320011139,
				0.006517713889479637
			]
		},
		{
			"name":"LeftHand_End",
			"rotation":[
				-5.065544428362045e-07,
				-0.8935322761535645,
				1.1256765475309294e-07,
				0.4489990472793579
			],
			"scale":[
				1,
				1,
				0.9999999403953552
			],
			"translation":[
				-9.313225746154785e-10,
				0.08546210825443268,
				1.0244548320770264e-08
			]
		},
		{
			"children":[
				10
			],
			"name":"LeftHand",
			"rotation":[
				0.08741659671068192,
				0.025107266381382942,
				-0.05840573459863663,
				0.9941412210464478
			],
			"scale":[
				1.0000001192092896,
				1,
				1.0000001192092896
			],
			"translation":[
				-8.527422323822975e-08,
				0.25395116209983826,
				-4.877801984548569e-08
			]
		},
		{
			"children":[
				11
			],
			"name":"LeftForeArm",
			"rotation":[
				-0.04856407269835472,
				0.08541038632392883,
				0.09046103060245514,
				0.9910416007041931
			],
			"scale":[
				0.9999999403953552,
				1,
				1
			],
			"translation":[
				-5.448237061500549e-08,
				0.2541619539260864,
				8.032657206058502e-08
			]
		},
		{
			"children":[
				12
			],
			"name":"LeftArm",
			"rotation":[
				-0.4016779959201813,
				0.40303072333335876,
				-0.5176896452903748,
				0.6389197707176208
			],
			"scale":[
				1.0000001192092896,
				1,
				1
			],
			"translation":[
				-8.032657206058502e-09,
				0.1391351819038391,
				-4.1065504774451256e-08
			]
		},
		{
			"children":[
				13
			],
			"name":"LeftShoulder",
			"rotation":[
				-0.6462361216545105,
				-0.3421670198440552,
				-0.3125632405281067,
				0.6063042879104614
			],
			"scale":[
				1,
				1,
				0.9999998807907104
			],
			"translation":[
				0.029167041182518005,
				0.03204059973359108,
				-0.00032624026061967015
			]
		},
		{
			"name":"head_end",
			"rotation":[
				-1.332373358309269e-07,
				3.16067598760128e-08,
				7.543712854385376e-08,
				1
			],
			"scale":[
				0.9999999403953552,
				1,
				1
			],
			"translation":[
				-2.9802322387695312e-08,
				0.1377781629562378,
				-2.0780134946107864e-08
			]
		},
		{
			"name":"headfront",
			"rotation":[
				1.2771481650020178e-09,
				-0.729220449924469,
				-0.6829897165298462,
				0.04198339954018593
			],
			"scale":[
				0.9999999403953552,
				0.999999463558197,
				0.9999998807907104
			],
			"translation":[
				0.004898151382803917,
				0.005727153271436691,
				0.08507770299911499
			]
		},
		{
			"children":[
				15,
				16
			],
			"name":"Head",
			"rotation":[
				-0.002196438377723098,
				-0.02513829804956913,
				-0.023418137803673744,
				0.9994072914123535
			],
			"scale":[
				1,
				0.9999999403953552,
				0.9999998807907104
			],
			"translation":[
				1.4842953532934189e-09,
				0.09931588172912598,
				1.4500983525067568e-08
			]
		},
		{
			"children":[
				17
			],
			"name":"neck",
			"rotation":[
				-2.2382664610631764e-08,
				-9.47329681366682e-09,
				-1.465377863496542e-08,
				1
			],
			"translation":[
				-2.9976945370435715e-09,
				0.06988473236560822,
				1.8875653040595353e-08
			]
		},
		{
			"name":"RightHand_End",
			"rotation":[
				-6.63940795675444e-07,
				0.8935321569442749,
				-9.380636356581817e-08,
				0.44899919629096985
			],
			"scale":[
				1,
				1.0000001192092896,
				1
			],
			"translation":[
				1.1711381375789642e-07,
				0.0776689201593399,
				1.1082738637924194e-07
			]
		},
		{
			"children":[
				19
			],
			"name":"RightHand",
			"rotation":[
				0.08391951769590378,
				-0.10806584358215332,
				-0.040571071207523346,
				0.9897642731666565
			],
			"scale":[
				0.9999999403953552,
				1,
				1
			],
			"translation":[
				-6.650225259363651e-09,
				0.2539518475532532,
				-1.2820237316191196e-07
			]
		},
		{
			"children":[
				20
			],
			"name":"RightForeArm",
			"rotation":[
				-0.0488494373857975,
				-0.08543241024017334,
				-0.09068380296230316,
				0.9910052418708801
			],
			"scale":[
				1,
				1,
				1.0000001192092896
			],
			"translation":[
				4.190951585769653e-08,
				0.2542122006416321,
				1.1594966053962708e-07
			]
		},
		{
			"children":[
				21
			],
			"name":"RightArm",
			"rotation":[
				-0.4046240448951721,
				-0.39966028928756714,
				0.5131942629814148,
				0.6427929401397705
			],
			"scale":[
				1,
				1.000000238418579,
				1.000000238418579
			],
			"translation":[
				-1.9208528101444244e-09,
				0.14250032603740692,
				-4.845605872105807e-08
			]
		},
		{
			"children":[
				22
			],
			"name":"RightShoulder",
			"rotation":[
				-0.6436226963996887,
				0.3470519781112671,
				0.33057907223701477,
				0.5966760516166687
			],
			"scale":[
				0.9999998211860657,
				0.9999998211860657,
				0.9999999403953552
			],
			"translation":[
				-0.029368354007601738,
				0.03143122047185898,
				0.00032853844459168613
			]
		},
		{
			"children":[
				14,
				18,
				23
			],
			"name":"Spine",
			"rotation":[
				-2.3771883206791244e-05,
				-0.003189979586750269,
				-0.0029743523336946964,
				0.9999905228614807
			],
			"scale":[
				1,
				0.9999999403953552,
				1
			],
			"translation":[
				-4.729372449219227e-10,
				0.1342257261276245,
				6.856680556666106e-09
			]
		},
		{
			"children":[
				24
			],
			"name":"Spine01",
			"rotation":[
				3.911372914444655e-08,
				-9.38598532229662e-10,
				-2.393790055066347e-09,
				1
			],
			"translation":[
				7.821654435247183e-10,
				0.13027851283550262,
				-1.2506916391430423e-08
			]
		},
		{
			"children":[
				25
			],
			"name":"Spine02",
			"rotation":[
				-1.3033513823756948e-08,
				-3.41970007866621e-10,
				1.6589183360338211e-09,
				1
			],
			"translation":[
				-5.657057045027614e-10,
				0.13027870655059814,
				1.842659003159497e-08
			]
		},
		{
			"children":[
				4,
				9,
				26
			],
			"name":"Hips",
			"rotation":[
				0.034939732402563095,
				-0.002313200617209077,
				-0.0023132015485316515,
				0.9993840456008911
			],
			"translation":[
				0,
				0.9232805967330933,
				-0.005924553610384464
			]
		},
		{
			"mesh":0,
			"name":"MinaResolveSkin",
			"skin":0
		},
		{
			"children":[
				28,
				27
			],
			"name":"MinaResolve"
		}
	],
	"materials":[
		{
			"doubleSided":true,
			"extensions":{
				"KHR_materials_specular":{
					"specularFactor":0
				}
			},
			"name":"BakedMaterial",
			"normalTexture":{
				"index":0
			},
			"pbrMetallicRoughness":{
				"baseColorTexture":{
					"index":1
				},
				"metallicRoughnessTexture":{
					"index":2
				}
			}
		}
	],
	"meshes":[
		{
			"name":"output",
			"primitives":[
				{
					"attributes":{
						"POSITION":0,
						"NORMAL":1,
						"TEXCOORD_0":2,
						"JOINTS_0":3,
						"WEIGHTS_0":4
					},
					"indices":5,
					"material":0
				}
			]
		}
	],
	"textures":[
		{
			"sampler":0,
			"source":0
		},
		{
			"sampler":0,
			"source":1
		},
		{
			"sampler":0,
			"source":2
		}
	],
	"images":[
		{
			"mimeType":"image/png",
			"name":"texture_0_normal",
			"uri":"texture_0_normal.png"
		},
		{
			"mimeType":"image/png",
			"name":"texture_0",
			"uri":"texture_0.png"
		},
		{
			"mimeType":"image/png",
			"name":"texture_0_metallic-texture_0_roughness",
			"uri":"texture_0_metallic-texture_0_roughness.png"
		}
	],
	"skins":[
		{
			"inverseBindMatrices":6,
			"joints":[
				27,
				4,
				3,
				2,
				1,
				0,
				9,
				8,
				7,
				6,
				5,
				26,
				25,
				24,
				14,
				13,
				12,
				11,
				10,
				18,
				17,
				15,
				16,
				23,
				22,
				21,
				20,
				19
			],
			"name":"MinaResolve"
		}
	],
	"accessors":[
		{
			"bufferView":0,
			"componentType":5126,
			"count":28322,
			"max":[
				0.3773558735847473,
				1.6499181985855103,
				0.13810861110687256
			],
			"min":[
				-0.38125649094581604,
				0.00013253395445644855,
				-0.13550373911857605
			],
			"type":"VEC3"
		},
		{
			"bufferView":1,
			"componentType":5126,
			"count":28322,
			"type":"VEC3"
		},
		{
			"bufferView":2,
			"componentType":5126,
			"count":28322,
			"type":"VEC2"
		},
		{
			"bufferView":3,
			"componentType":5121,
			"count":28322,
			"type":"VEC4"
		},
		{
			"bufferView":4,
			"componentType":5126,
			"count":28322,
			"type":"VEC4"
		},
		{
			"bufferView":5,
			"componentType":5123,
			"count":119958,
			"type":"SCALAR"
		},
		{
			"bufferView":6,
			"componentType":5126,
			"count":28,
			"type":"MAT4"
		}
	],
	"bufferViews":[
		{
			"buffer":0,
			"byteLength":339864,
			"byteOffset":0,
			"target":34962
		},
		{
			"buffer":0,
			"byteLength":339864,
			"byteOffset":339864,
			"target":34962
		},
		{
			"buffer":0,
			"byteLength":226576,
			"byteOffset":679728,
			"target":34962
		},
		{
			"buffer":0,
			"byteLength":113288,
			"byteOffset":906304,
			"target":34962
		},
		{
			"buffer":0,
			"byteLength":453152,
			"byteOffset":1019592,
			"target":34962
		},
		{
			"buffer":0,
			"byteLength":239916,
			"byteOffset":1472744,
			"target":34963
		},
		{
			"buffer":0,
			"byteLength":1792,
			"byteOffset":1712660
		}
	],
	"samplers":[
		{
			"magFilter":9729,
			"minFilter":9987
		}
	],
	"buffers":[
		{
			"byteLength":1714452,
			"uri":"mina_vale.bin"
		}
	]
}
